  0
SECTION
  2
HEADER
  9
$ACADVER
  1
AC1015
  9
$ACADMAINTVER
 70
    20
  9
$DWGCODEPAGE
  3
ANSI_1251
  9
$INSBASE
 10
0.0
 20
0.0
 30
0.0
  9
$EXTMIN
 10
-3.895010537231428
 20
-2458.392127407592
 30
-0.0000000349181948
  9
$EXTMAX
 10
463.5689203165244
 20
288.4653455494863
 30
0.0000000814935747
  9
$LIMMIN
 10
0.0
 20
0.0
  9
$LIMMAX
 10
420.0
 20
297.0
  9
$ORTHOMODE
 70
     0
  9
$REGENMODE
 70
     1
  9
$FILLMODE
 70
     1
  9
$QTEXTMODE
 70
     0
  9
$MIRRTEXT
 70
     0
  9
$LTSCALE
 40
1.0
  9
$ATTMODE
 70
     1
  9
$TEXTSIZE
 40
10.0
  9
$TRACEWID
 40
1.0
  9
$TEXTSTYLE
  7
Standard
  9
$CLAYER
  8
0
  9
$CELTYPE
  6
ByLayer
  9
$CECOLOR
 62
   256
  9
$CELTSCALE
 40
1.0
  9
$DISPSILH
 70
     0
  9
$DIMSCALE
 40
1.0
  9
$DIMASZ
 40
2.5
  9
$DIMEXO
 40
0.625
  9
$DIMDLI
 40
3.75
  9
$DIMRND
 40
0.0
  9
$DIMDLE
 40
0.0
  9
$DIMEXE
 40
1.25
  9
$DIMTP
 40
0.0
  9
$DIMTM
 40
0.0
  9
$DIMTXT
 40
2.5
  9
$DIMCEN
 40
2.5
  9
$DIMTSZ
 40
0.0
  9
$DIMTOL
 70
     0
  9
$DIMLIM
 70
     0
  9
$DIMTIH
 70
     0
  9
$DIMTOH
 70
     0
  9
$DIMSE1
 70
     0
  9
$DIMSE2
 70
     0
  9
$DIMTAD
 70
     1
  9
$DIMZIN
 70
     8
  9
$DIMBLK
  1

  9
$DIMASO
 70
     1
  9
$DIMSHO
 70
     1
  9
$DIMPOST
  1

  9
$DIMAPOST
  1

  9
$DIMALT
 70
     0
  9
$DIMALTD
 70
     3
  9
$DIMALTF
 40
0.03937007874016
  9
$DIMLFAC
 40
1.0
  9
$DIMTOFL
 70
     1
  9
$DIMTVP
 40
0.0
  9
$DIMTIX
 70
     0
  9
$DIMSOXD
 70
     0
  9
$DIMSAH
 70
     0
  9
$DIMBLK1
  1

  9
$DIMBLK2
  1

  9
$DIMSTYLE
  2
ISO-25
  9
$DIMCLRD
 70
     0
  9
$DIMCLRE
 70
     0
  9
$DIMCLRT
 70
     0
  9
$DIMTFAC
 40
1.0
  9
$DIMGAP
 40
0.625
  9
$DIMJUST
 70
     0
  9
$DIMSD1
 70
     0
  9
$DIMSD2
 70
     0
  9
$DIMTOLJ
 70
     0
  9
$DIMTZIN
 70
     8
  9
$DIMALTZ
 70
     0
  9
$DIMALTTZ
 70
     0
  9
$DIMUPT
 70
     0
  9
$DIMDEC
 70
     2
  9
$DIMTDEC
 70
     2
  9
$DIMALTU
 70
     2
  9
$DIMALTTD
 70
     3
  9
$DIMTXSTY
  7
Standard
  9
$DIMAUNIT
 70
     0
  9
$DIMADEC
 70
     0
  9
$DIMALTRND
 40
0.0
  9
$DIMAZIN
 70
     0
  9
$DIMDSEP
 70
    44
  9
$DIMATFIT
 70
     3
  9
$DIMFRAC
 70
     0
  9
$DIMLDRBLK
  1

  9
$DIMLUNIT
 70
     2
  9
$DIMLWD
 70
    -2
  9
$DIMLWE
 70
    -2
  9
$DIMTMOVE
 70
     0
  9
$LUNITS
 70
     2
  9
$LUPREC
 70
     4
  9
$SKETCHINC
 40
1.0
  9
$FILLETRAD
 40
0.0
  9
$AUNITS
 70
     0
  9
$AUPREC
 70
     0
  9
$MENU
  1
.
  9
$ELEVATION
 40
0.0
  9
$PELEVATION
 40
0.0
  9
$THICKNESS
 40
0.0
  9
$LIMCHECK
 70
     0
  9
$CHAMFERA
 40
0.0
  9
$CHAMFERB
 40
0.0
  9
$CHAMFERC
 40
0.0
  9
$CHAMFERD
 40
0.0
  9
$SKPOLY
 70
     0
  9
$TDCREATE
 40
2453999.544071366
  9
$TDUCREATE
 40
2453999.377404699
  9
$TDUPDATE
 40
2454245.674908820
  9
$TDUUPDATE
 40
2454245.508242153
  9
$TDINDWG
 40
0.2994082292
  9
$TDUSRTIMER
 40
0.2993630324
  9
$USRTIMER
 70
     1
  9
$ANGBASE
 50
0.0
  9
$ANGDIR
 70
     0
  9
$PDMODE
 70
     0
  9
$PDSIZE
 40
0.0
  9
$PLINEWID
 40
0.0
  9
$SPLFRAME
 70
     0
  9
$SPLINETYPE
 70
     6
  9
$SPLINESEGS
 70
     8
  9
$HANDSEED
  5
917
  9
$SURFTAB1
 70
     6
  9
$SURFTAB2
 70
     6
  9
$SURFTYPE
 70
     6
  9
$SURFU
 70
     6
  9
$SURFV
 70
     6
  9
$UCSBASE
  2

  9
$UCSNAME
  2

  9
$UCSORG
 10
0.0
 20
0.0
 30
0.0
  9
$UCSXDIR
 10
1.0
 20
0.0
 30
0.0
  9
$UCSYDIR
 10
0.0
 20
1.0
 30
0.0
  9
$UCSORTHOREF
  2

  9
$UCSORTHOVIEW
 70
     0
  9
$UCSORGTOP
 10
0.0
 20
0.0
 30
0.0
  9
$UCSORGBOTTOM
 10
0.0
 20
0.0
 30
0.0
  9
$UCSORGLEFT
 10
0.0
 20
0.0
 30
0.0
  9
$UCSORGRIGHT
 10
0.0
 20
0.0
 30
0.0
  9
$UCSORGFRONT
 10
0.0
 20
0.0
 30
0.0
  9
$UCSORGBACK
 10
0.0
 20
0.0
 30
0.0
  9
$PUCSBASE
  2

  9
$PUCSNAME
  2

  9
$PUCSORG
 10
0.0
 20
0.0
 30
0.0
  9
$PUCSXDIR
 10
1.0
 20
0.0
 30
0.0
  9
$PUCSYDIR
 10
0.0
 20
1.0
 30
0.0
  9
$PUCSORTHOREF
  2

  9
$PUCSORTHOVIEW
 70
     0
  9
$PUCSORGTOP
 10
0.0
 20
0.0
 30
0.0
  9
$PUCSORGBOTTOM
 10
0.0
 20
0.0
 30
0.0
  9
$PUCSORGLEFT
 10
0.0
 20
0.0
 30
0.0
  9
$PUCSORGRIGHT
 10
0.0
 20
0.0
 30
0.0
  9
$PUCSORGFRONT
 10
0.0
 20
0.0
 30
0.0
  9
$PUCSORGBACK
 10
0.0
 20
0.0
 30
0.0
  9
$USERI1
 70
     0
  9
$USERI2
 70
     0
  9
$USERI3
 70
     0
  9
$USERI4
 70
     0
  9
$USERI5
 70
     0
  9
$USERR1
 40
0.0
  9
$USERR2
 40
0.0
  9
$USERR3
 40
0.0
  9
$USERR4
 40
0.0
  9
$USERR5
 40
0.0
  9
$WORLDVIEW
 70
     1
  9
$SHADEDGE
 70
     3
  9
$SHADEDIF
 70
    70
  9
$TILEMODE
 70
     1
  9
$MAXACTVP
 70
    64
  9
$PINSBASE
 10
0.0
 20
0.0
 30
0.0
  9
$PLIMCHECK
 70
     0
  9
$PEXTMIN
 10
0.0
 20
0.0
 30
0.0
  9
$PEXTMAX
 10
0.0
 20
0.0
 30
0.0
  9
$PLIMMIN
 10
0.0
 20
0.0
  9
$PLIMMAX
 10
12.0
 20
9.0
  9
$UNITMODE
 70
     0
  9
$VISRETAIN
 70
     1
  9
$PLINEGEN
 70
     0
  9
$PSLTSCALE
 70
     1
  9
$TREEDEPTH
 70
  3020
  9
$CMLSTYLE
  2
Standard
  9
$CMLJUST
 70
     0
  9
$CMLSCALE
 40
20.0
  9
$PROXYGRAPHICS
 70
     1
  9
$MEASUREMENT
 70
     1
  9
$CELWEIGHT
370
    -1
  9
$ENDCAPS
280
     0
  9
$JOINSTYLE
280
     0
  9
$LWDISPLAY
290
     0
  9
$INSUNITS
 70
     4
  9
$HYPERLINKBASE
  1

  9
$STYLESHEET
  1

  9
$XEDIT
290
     1
  9
$CEPSNTYPE
380
     0
  9
$PSTYLEMODE
290
     1
  9
$FINGERPRINTGUID
  2
{AB1B87CA-2F87-4B86-B78F-0820640F5C34}
  9
$VERSIONGUID
  2
{A7BABD94-1BA0-42F0-8603-49CA0E811877}
  9
$EXTNAMES
290
     1
  9
$PSVPSCALE
 40
0.0
  9
$OLESTARTUP
290
     0
  0
ENDSEC
  0
SECTION
  2
CLASSES
  0
CLASS
  1
ACDBDICTIONARYWDFLT
  2
AcDbDictionaryWithDefault
  3
ObjectDBX Classes
 90
        0
280
     0
281
     0
  0
CLASS
  1
ACDBPLACEHOLDER
  2
AcDbPlaceHolder
  3
ObjectDBX Classes
 90
        0
280
     0
281
     0
  0
CLASS
  1
LAYOUT
  2
AcDbLayout
  3
ObjectDBX Classes
 90
        0
280
     0
281
     0
  0
CLASS
  1
DICTIONARYVAR
  2
AcDbDictionaryVar
  3
ObjectDBX Classes
 90
        0
280
     0
281
     0
  0
CLASS
  1
TABLESTYLE
  2
AcDbTableStyle
  3
ObjectDBX Classes
 90
     2047
280
     0
281
     0
  0
CLASS
  1
SORTENTSTABLE
  2
AcDbSortentsTable
  3
ObjectDBX Classes
 90
        0
280
     0
281
     0
  0
ENDSEC
  0
SECTION
  2
TABLES
  0
TABLE
  2
VPORT
  5
8
330
0
100
AcDbSymbolTable
 70
     2
  0
VPORT
  5
910
330
8
100
AcDbSymbolTableRecord
100
AcDbViewportTableRecord
  2
*Active
 70
     0
 10
0.0
 20
0.0
 11
1.0
 21
1.0
 12
229.7084104976124
 22
138.7356496597876
 13
0.0
 23
0.0
 14
10.0
 24
10.0
 15
10.0
 25
10.0
 16
0.0
 26
0.0
 36
1.0
 17
0.0
 27
0.0
 37
0.0
 40
364.3237493942252
 41
1.304416403785489
 42
50.0
 43
0.0
 44
0.0
 50
0.0
 51
0.0
 71
     0
 72
  1000
 73
     1
 74
     3
 75
     0
 76
     0
 77
     0
 78
     0
281
     0
 65
     1
110
0.0
120
0.0
130
0.0
111
1.0
121
0.0
131
0.0
112
0.0
122
1.0
132
0.0
 79
     0
146
0.0
  0
ENDTAB
  0
TABLE
  2
LTYPE
  5
5
330
0
100
AcDbSymbolTable
 70
     1
  0
LTYPE
  5
14
330
5
100
AcDbSymbolTableRecord
100
AcDbLinetypeTableRecord
  2
ByBlock
 70
     0
  3

 72
    65
 73
     0
 40
0.0
  0
LTYPE
  5
15
330
5
100
AcDbSymbolTableRecord
100
AcDbLinetypeTableRecord
  2
ByLayer
 70
     0
  3

 72
    65
 73
     0
 40
0.0
  0
LTYPE
  5
16
330
5
100
AcDbSymbolTableRecord
100
AcDbLinetypeTableRecord
  2
Continuous
 70
     0
  3
Solid line
 72
    65
 73
     0
 40
0.0
  0
ENDTAB
  0
TABLE
  2
LAYER
  5
2
102
{ACAD_XDICTIONARY
360
21C
102
}
330
0
100
AcDbSymbolTable
 70
     1
  0
LAYER
  5
10
330
2
100
AcDbSymbolTableRecord
100
AcDbLayerTableRecord
  2
0
 70
     0
 62
     7
  6
Continuous
370
    -3
390
F
  0
ENDTAB
  0
TABLE
  2
STYLE
  5
3
330
0
100
AcDbSymbolTable
 70
     1
  0
STYLE
  5
11
330
3
100
AcDbSymbolTableRecord
100
AcDbTextStyleTableRecord
  2
Standard
 70
     0
 40
0.0
 41
1.0
 50
0.0
 71
     0
 42
10.0
  3
txt
  4

  0
ENDTAB
  0
TABLE
  2
VIEW
  5
6
330
0
100
AcDbSymbolTable
 70
     0
  0
ENDTAB
  0
TABLE
  2
UCS
  5
7
330
0
100
AcDbSymbolTable
 70
     0
  0
ENDTAB
  0
TABLE
  2
APPID
  5
9
330
0
100
AcDbSymbolTable
 70
     2
  0
APPID
  5
12
330
9
100
AcDbSymbolTableRecord
100
AcDbRegAppTableRecord
  2
ACAD
 70
     0
  0
APPID
  5
9E
330
9
100
AcDbSymbolTableRecord
100
AcDbRegAppTableRecord
  2
ACAD_PSEXT
 70
     0
  0
ENDTAB
  0
TABLE
  2
DIMSTYLE
  5
A
330
0
100
AcDbSymbolTable
 70
     1
100
AcDbDimStyleTable
 71
     1
340
27
  0
DIMSTYLE
105
27
330
A
100
AcDbSymbolTableRecord
100
AcDbDimStyleTableRecord
  2
ISO-25
 70
     0
 41
2.5
 42
0.625
 43
3.75
 44
1.25
 73
     0
 74
     0
 77
     1
 78
     8
140
2.5
141
2.5
143
0.03937007874016
147
0.625
171
     3
172
     1
271
     2
272
     2
274
     3
278
    44
283
     0
284
     8
340
11
  0
ENDTAB
  0
TABLE
  2
BLOCK_RECORD
  5
1
330
0
100
AcDbSymbolTable
 70
     2
  0
BLOCK_RECORD
  5
1F
102
{ACAD_XDICTIONARY
360
EE
102
}
330
1
100
AcDbSymbolTableRecord
100
AcDbBlockTableRecord
  2
*Model_Space
340
22
  0
BLOCK_RECORD
  5
5AF
330
1
100
AcDbSymbolTableRecord
100
AcDbBlockTableRecord
  2
*Paper_Space
340
5B0
  0
BLOCK_RECORD
  5
392
102
{ACAD_XDICTIONARY
360
3C3
102
}
330
1
100
AcDbSymbolTableRecord
100
AcDbBlockTableRecord
  2
A$C6F6E0BA3
340
0
  0
BLOCK_RECORD
  5
461
102
{ACAD_XDICTIONARY
360
4C2
102
}
330
1
100
AcDbSymbolTableRecord
100
AcDbBlockTableRecord
  2
A$C37703A5D
340
0
  0
ENDTAB
  0
ENDSEC
  0
SECTION
  2
BLOCKS
  0
BLOCK
  5
20
330
1F
100
AcDbEntity
  8
0
100
AcDbBlockBegin
  2
*Model_Space
 70
     0
 10
0.0
 20
0.0
 30
0.0
  3
*Model_Space
  1

  0
ENDBLK
  5
21
330
1F
100
AcDbEntity
  8
0
100
AcDbBlockEnd
  0
BLOCK
  5
5B1
330
5AF
100
AcDbEntity
 67
     1
  8
0
100
AcDbBlockBegin
  2
*Paper_Space
 70
     0
 10
0.0
 20
0.0
 30
0.0
  3
*Paper_Space
  1

  0
ENDBLK
  5
5B2
330
5AF
100
AcDbEntity
 67
     1
  8
0
100
AcDbBlockEnd
  0
BLOCK
  5
3C5
330
392
100
AcDbEntity
  8
0
100
AcDbBlockBegin
  2
A$C6F6E0BA3
 70
     0
 10
0.0
 20
0.0
 30
0.0
  3
A$C6F6E0BA3
  1

  0
TEXT
  5
393
330
392
100
AcDbEntity
  8
0
100
AcDbText
 10
30.00000196942437
 20
600.0000007993557
 30
0.0
 40
10.0
  1
SOLID
100
AcDbText
  0
HATCH
  5
394
330
392
100
AcDbEntity
  8
0
100
AcDbHatch
 10
0.0
 20
0.0
 30
0.0
210
0.0
220
0.0
230
1.0
  2
SOLID
 70
     1
 71
     0
 91
        1
 92
        1
 93
        4
 72
     1
 10
0.0000019694243747
 20
615.0000007993558
 11
100.0000019694244
 21
615.0000007993558
 72
     1
 10
100.0000019694244
 20
615.0000007993558
 11
100.0000019694244
 21
715.0000007993558
 72
     1
 10
100.0000019694244
 20
715.0000007993558
 11
0.0000019694243747
 21
715.0000007993558
 72
     1
 10
0.0000019694243747
 20
715.0000007993558
 11
0.0000019694243747
 21
615.0000007993558
 97
        0
 75
     0
 76
     1
 98
        1
 10
0.0000019694243747
 20
615.0000007993558
  0
TEXT
  5
395
330
392
100
AcDbEntity
  8
0
100
AcDbText
 10
150.0000019694244
 20
600.0000007993557
 30
0.0
 40
10.0
  1
SOLID
100
AcDbText
  0
HATCH
  5
396
330
392
100
AcDbEntity
  8
0
100
AcDbHatch
 10
0.0
 20
0.0
 30
0.0
210
0.0
220
0.0
230
1.0
  2
SOLID
 70
     1
 71
     0
 91
        1
 92
        1
 93
        4
 72
     1
 10
120.0000019694243
 20
615.0000007993558
 11
220.0000019694244
 21
615.0000007993558
 72
     1
 10
220.0000019694244
 20
615.0000007993558
 11
220.0000019694244
 21
715.0000007993558
 72
     1
 10
220.0000019694244
 20
715.0000007993558
 11
120.0000019694243
 21
715.0000007993558
 72
     1
 10
120.0000019694243
 20
715.0000007993558
 11
120.0000019694243
 21
615.0000007993558
 97
        0
 75
     0
 76
     1
 98
        1
 10
120.0000019694243
 20
615.0000007993558
  0
TEXT
  5
397
330
392
100
AcDbEntity
  8
0
100
AcDbText
 10
270.0000019694244
 20
600.0000007993557
 30
0.0
 40
10.0
  1
SOLID
100
AcDbText
  0
HATCH
  5
398
330
392
100
AcDbEntity
  8
0
100
AcDbHatch
 10
0.0
 20
0.0
 30
0.0
210
0.0
220
0.0
230
1.0
  2
SOLID
 70
     1
 71
     0
 91
        1
 92
        1
 93
        4
 72
     1
 10
240.0000019694244
 20
615.0000007993558
 11
340.0000019694244
 21
615.0000007993558
 72
     1
 10
340.0000019694244
 20
615.0000007993558
 11
340.0000019694244
 21
715.0000007993558
 72
     1
 10
340.0000019694244
 20
715.0000007993558
 11
240.0000019694244
 21
715.0000007993558
 72
     1
 10
240.0000019694244
 20
715.0000007993558
 11
240.0000019694244
 21
615.0000007993558
 97
        0
 75
     0
 76
     1
 98
        1
 10
240.0000019694244
 20
615.0000007993558
  0
TEXT
  5
399
330
392
100
AcDbEntity
  8
0
100
AcDbText
 10
390.0000019694244
 20
600.0000007993557
 30
0.0
 40
10.0
  1
SOLID
100
AcDbText
  0
HATCH
  5
39A
330
392
100
AcDbEntity
  8
0
100
AcDbHatch
 10
0.0
 20
0.0
 30
0.0
210
0.0
220
0.0
230
1.0
  2
SOLID
 70
     1
 71
     0
 91
        1
 92
        1
 93
        4
 72
     1
 10
360.0000019694244
 20
615.0000007993558
 11
460.0000019694244
 21
615.0000007993558
 72
     1
 10
460.0000019694244
 20
615.0000007993558
 11
460.0000019694244
 21
715.0000007993558
 72
     1
 10
460.0000019694244
 20
715.0000007993558
 11
360.0000019694244
 21
715.0000007993558
 72
     1
 10
360.0000019694244
 20
715.0000007993558
 11
360.0000019694244
 21
615.0000007993558
 97
        0
 75
     0
 76
     1
 98
        1
 10
360.0000019694244
 20
615.0000007993558
  0
TEXT
  5
39B
330
392
100
AcDbEntity
  8
0
100
AcDbText
 10
30.00000196942437
 20
480.0000007993558
 30
0.0
 40
10.0
  1
SOLID
100
AcDbText
  0
HATCH
  5
39C
330
392
100
AcDbEntity
  8
0
100
AcDbHatch
 10
0.0
 20
0.0
 30
0.0
210
0.0
220
0.0
230
1.0
  2
SOLID
 70
     1
 71
     0
 91
        1
 92
        1
 93
        4
 72
     1
 10
0.0000019694243747
 20
495.0000007993557
 11
100.0000019694244
 21
495.0000007993557
 72
     1
 10
100.0000019694244
 20
495.0000007993557
 11
100.0000019694244
 21
595.0000007993557
 72
     1
 10
100.0000019694244
 20
595.0000007993557
 11
0.0000019694243747
 21
595.0000007993557
 72
     1
 10
0.0000019694243747
 20
595.0000007993557
 11
0.0000019694243747
 21
495.0000007993557
 97
        0
 75
     0
 76
     1
 98
        1
 10
0.0000019694243747
 20
495.0000007993557
  0
TEXT
  5
39D
330
392
100
AcDbEntity
  8
0
100
AcDbText
 10
150.0000019694244
 20
480.0000007993558
 30
0.0
 40
10.0
  1
SOLID
100
AcDbText
  0
HATCH
  5
39E
330
392
100
AcDbEntity
  8
0
100
AcDbHatch
 10
0.0
 20
0.0
 30
0.0
210
0.0
220
0.0
230
1.0
  2
SOLID
 70
     1
 71
     0
 91
        1
 92
        1
 93
        4
 72
     1
 10
120.0000019694243
 20
495.0000007993557
 11
220.0000019694244
 21
495.0000007993557
 72
     1
 10
220.0000019694244
 20
495.0000007993557
 11
220.0000019694244
 21
595.0000007993557
 72
     1
 10
220.0000019694244
 20
595.0000007993557
 11
120.0000019694243
 21
595.0000007993557
 72
     1
 10
120.0000019694243
 20
595.0000007993557
 11
120.0000019694243
 21
495.0000007993557
 97
        0
 75
     0
 76
     1
 98
        1
 10
120.0000019694243
 20
495.0000007993557
  0
TEXT
  5
39F
330
392
100
AcDbEntity
  8
0
100
AcDbText
 10
270.0000019694244
 20
480.0000007993558
 30
0.0
 40
10.0
  1
SOLID
100
AcDbText
  0
HATCH
  5
3A0
330
392
100
AcDbEntity
  8
0
100
AcDbHatch
 10
0.0
 20
0.0
 30
0.0
210
0.0
220
0.0
230
1.0
  2
SOLID
 70
     1
 71
     0
 91
        1
 92
        1
 93
        4
 72
     1
 10
240.0000019694244
 20
495.0000007993557
 11
340.0000019694244
 21
495.0000007993557
 72
     1
 10
340.0000019694244
 20
495.0000007993557
 11
340.0000019694244
 21
595.0000007993557
 72
     1
 10
340.0000019694244
 20
595.0000007993557
 11
240.0000019694244
 21
595.0000007993557
 72
     1
 10
240.0000019694244
 20
595.0000007993557
 11
240.0000019694244
 21
495.0000007993557
 97
        0
 75
     0
 76
     1
 98
        1
 10
240.0000019694244
 20
495.0000007993557
  0
TEXT
  5
3A1
330
392
100
AcDbEntity
  8
0
100
AcDbText
 10
390.0000019694244
 20
480.0000007993558
 30
0.0
 40
10.0
  1
SOLID
100
AcDbText
  0
HATCH
  5
3A2
330
392
100
AcDbEntity
  8
0
100
AcDbHatch
 10
0.0
 20
0.0
 30
0.0
210
0.0
220
0.0
230
1.0
  2
SOLID
 70
     1
 71
     0
 91
        1
 92
        1
 93
        4
 72
     1
 10
360.0000019694244
 20
495.0000007993557
 11
460.0000019694244
 21
495.0000007993557
 72
     1
 10
460.0000019694244
 20
495.0000007993557
 11
460.0000019694244
 21
595.0000007993557
 72
     1
 10
460.0000019694244
 20
595.0000007993557
 11
360.0000019694244
 21
595.0000007993557
 72
     1
 10
360.0000019694244
 20
595.0000007993557
 11
360.0000019694244
 21
495.0000007993557
 97
        0
 75
     0
 76
     1
 98
        1
 10
360.0000019694244
 20
495.0000007993557
  0
TEXT
  5
3A3
330
392
100
AcDbEntity
  8
0
100
AcDbText
 10
30.00000196942437
 20
360.0000007993559
 30
0.0
 40
10.0
  1
SOLID
100
AcDbText
  0
HATCH
  5
3A4
330
392
100
AcDbEntity
  8
0
100
AcDbHatch
 10
0.0
 20
0.0
 30
0.0
210
0.0
220
0.0
230
1.0
  2
SOLID
 70
     1
 71
     0
 91
        1
 92
        1
 93
        4
 72
     1
 10
0.0000019694243747
 20
375.0000007993559
 11
100.0000019694244
 21
375.0000007993559
 72
     1
 10
100.0000019694244
 20
375.0000007993559
 11
100.0000019694244
 21
475.0000007993556
 72
     1
 10
100.0000019694244
 20
475.0000007993556
 11
0.0000019694243747
 21
475.0000007993556
 72
     1
 10
0.0000019694243747
 20
475.0000007993556
 11
0.0000019694243747
 21
375.0000007993559
 97
        0
 75
     0
 76
     1
 98
        1
 10
0.0000019694243747
 20
375.0000007993559
  0
TEXT
  5
3A5
330
392
100
AcDbEntity
  8
0
100
AcDbText
 10
150.0000019694244
 20
360.0000007993559
 30
0.0
 40
10.0
  1
SOLID
100
AcDbText
  0
HATCH
  5
3A6
330
392
100
AcDbEntity
  8
0
100
AcDbHatch
 10
0.0
 20
0.0
 30
0.0
210
0.0
220
0.0
230
1.0
  2
SOLID
 70
     1
 71
     0
 91
        1
 92
        1
 93
        4
 72
     1
 10
120.0000019694243
 20
375.0000007993559
 11
220.0000019694244
 21
375.0000007993559
 72
     1
 10
220.0000019694244
 20
375.0000007993559
 11
220.0000019694244
 21
475.0000007993556
 72
     1
 10
220.0000019694244
 20
475.0000007993556
 11
120.0000019694243
 21
475.0000007993556
 72
     1
 10
120.0000019694243
 20
475.0000007993556
 11
120.0000019694243
 21
375.0000007993559
 97
        0
 75
     0
 76
     1
 98
        1
 10
120.0000019694243
 20
375.0000007993559
  0
TEXT
  5
3A7
330
392
100
AcDbEntity
  8
0
100
AcDbText
 10
270.0000019694244
 20
360.0000007993559
 30
0.0
 40
10.0
  1
SOLID
100
AcDbText
  0
HATCH
  5
3A8
330
392
100
AcDbEntity
  8
0
100
AcDbHatch
 10
0.0
 20
0.0
 30
0.0
210
0.0
220
0.0
230
1.0
  2
SOLID
 70
     1
 71
     0
 91
        1
 92
        1
 93
        4
 72
     1
 10
240.0000019694244
 20
375.0000007993559
 11
340.0000019694244
 21
375.0000007993559
 72
     1
 10
340.0000019694244
 20
375.0000007993559
 11
340.0000019694244
 21
475.0000007993556
 72
     1
 10
340.0000019694244
 20
475.0000007993556
 11
240.0000019694244
 21
475.0000007993556
 72
     1
 10
240.0000019694244
 20
475.0000007993556
 11
240.0000019694244
 21
375.0000007993559
 97
        0
 75
     0
 76
     1
 98
        1
 10
240.0000019694244
 20
375.0000007993559
  0
TEXT
  5
3A9
330
392
100
AcDbEntity
  8
0
100
AcDbText
 10
390.0000019694244
 20
360.0000007993559
 30
0.0
 40
10.0
  1
SOLID
100
AcDbText
  0
HATCH
  5
3AA
330
392
100
AcDbEntity
  8
0
100
AcDbHatch
 10
0.0
 20
0.0
 30
0.0
210
0.0
220
0.0
230
1.0
  2
SOLID
 70
     1
 71
     0
 91
        1
 92
        1
 93
        4
 72
     1
 10
360.0000019694244
 20
375.0000007993559
 11
460.0000019694244
 21
375.0000007993559
 72
     1
 10
460.0000019694244
 20
375.0000007993559
 11
460.0000019694244
 21
475.0000007993556
 72
     1
 10
460.0000019694244
 20
475.0000007993556
 11
360.0000019694244
 21
475.0000007993556
 72
     1
 10
360.0000019694244
 20
475.0000007993556
 11
360.0000019694244
 21
375.0000007993559
 97
        0
 75
     0
 76
     1
 98
        1
 10
360.0000019694244
 20
375.0000007993559
  0
TEXT
  5
3AB
330
392
100
AcDbEntity
  8
0
100
AcDbText
 10
30.00000196942437
 20
240.0000007993558
 30
0.0
 40
10.0
  1
SOLID
100
AcDbText
  0
HATCH
  5
3AC
330
392
100
AcDbEntity
  8
0
100
AcDbHatch
 10
0.0
 20
0.0
 30
0.0
210
0.0
220
0.0
230
1.0
  2
SOLID
 70
     1
 71
     0
 91
        1
 92
        1
 93
        4
 72
     1
 10
0.0000019694243747
 20
255.0000007993558
 11
100.0000019694244
 21
255.0000007993558
 72
     1
 10
100.0000019694244
 20
255.0000007993558
 11
100.0000019694244
 21
355.0000007993558
 72
     1
 10
100.0000019694244
 20
355.0000007993558
 11
0.0000019694243747
 21
355.0000007993558
 72
     1
 10
0.0000019694243747
 20
355.0000007993558
 11
0.0000019694243747
 21
255.0000007993558
 97
        0
 75
     0
 76
     1
 98
        1
 10
0.0000019694243747
 20
255.0000007993558
  0
TEXT
  5
3AD
330
392
100
AcDbEntity
  8
0
100
AcDbText
 10
150.0000019694244
 20
240.0000007993558
 30
0.0
 40
10.0
  1
SOLID
100
AcDbText
  0
HATCH
  5
3AE
330
392
100
AcDbEntity
  8
0
100
AcDbHatch
 10
0.0
 20
0.0
 30
0.0
210
0.0
220
0.0
230
1.0
  2
SOLID
 70
     1
 71
     0
 91
        1
 92
        1
 93
        4
 72
     1
 10
120.0000019694243
 20
255.0000007993558
 11
220.0000019694244
 21
255.0000007993558
 72
     1
 10
220.0000019694244
 20
255.0000007993558
 11
220.0000019694244
 21
355.0000007993558
 72
     1
 10
220.0000019694244
 20
355.0000007993558
 11
120.0000019694243
 21
355.0000007993558
 72
     1
 10
120.0000019694243
 20
355.0000007993558
 11
120.0000019694243
 21
255.0000007993558
 97
        0
 75
     0
 76
     1
 98
        1
 10
120.0000019694243
 20
255.0000007993558
  0
TEXT
  5
3AF
330
392
100
AcDbEntity
  8
0
100
AcDbText
 10
270.0000019694244
 20
240.0000007993558
 30
0.0
 40
10.0
  1
SOLID
100
AcDbText
  0
HATCH
  5
3B0
330
392
100
AcDbEntity
  8
0
100
AcDbHatch
 10
0.0
 20
0.0
 30
0.0
210
0.0
220
0.0
230
1.0
  2
SOLID
 70
     1
 71
     0
 91
        1
 92
        1
 93
        4
 72
     1
 10
240.0000019694244
 20
255.0000007993558
 11
340.0000019694244
 21
255.0000007993558
 72
     1
 10
340.0000019694244
 20
255.0000007993558
 11
340.0000019694244
 21
355.0000007993558
 72
     1
 10
340.0000019694244
 20
355.0000007993558
 11
240.0000019694244
 21
355.0000007993558
 72
     1
 10
240.0000019694244
 20
355.0000007993558
 11
240.0000019694244
 21
255.0000007993558
 97
        0
 75
     0
 76
     1
 98
        1
 10
240.0000019694244
 20
255.0000007993558
  0
TEXT
  5
3B1
330
392
100
AcDbEntity
  8
0
100
AcDbText
 10
390.0000019694244
 20
240.0000007993558
 30
0.0
 40
10.0
  1
SOLID
100
AcDbText
  0
HATCH
  5
3B2
330
392
100
AcDbEntity
  8
0
100
AcDbHatch
 10
0.0
 20
0.0
 30
0.0
210
0.0
220
0.0
230
1.0
  2
SOLID
 70
     1
 71
     0
 91
        1
 92
        1
 93
        4
 72
     1
 10
360.0000019694244
 20
255.0000007993558
 11
460.0000019694244
 21
255.0000007993558
 72
     1
 10
460.0000019694244
 20
255.0000007993558
 11
460.0000019694244
 21
355.0000007993558
 72
     1
 10
460.0000019694244
 20
355.0000007993558
 11
360.0000019694244
 21
355.0000007993558
 72
     1
 10
360.0000019694244
 20
355.0000007993558
 11
360.0000019694244
 21
255.0000007993558
 97
        0
 75
     0
 76
     1
 98
        1
 10
360.0000019694244
 20
255.0000007993558
  0
TEXT
  5
3B3
330
392
100
AcDbEntity
  8
0
100
AcDbText
 10
30.00000196942437
 20
120.0000007993558
 30
0.0
 40
10.0
  1
SOLID
100
AcDbText
  0
HATCH
  5
3B4
330
392
100
AcDbEntity
  8
0
100
AcDbHatch
 10
0.0
 20
0.0
 30
0.0
210
0.0
220
0.0
230
1.0
  2
SOLID
 70
     1
 71
     0
 91
        1
 92
        1
 93
        4
 72
     1
 10
0.0000019694243747
 20
135.0000007993558
 11
100.0000019694244
 21
135.0000007993558
 72
     1
 10
100.0000019694244
 20
135.0000007993558
 11
100.0000019694244
 21
235.0000007993558
 72
     1
 10
100.0000019694244
 20
235.0000007993558
 11
0.0000019694243747
 21
235.0000007993558
 72
     1
 10
0.0000019694243747
 20
235.0000007993558
 11
0.0000019694243747
 21
135.0000007993558
 97
        0
 75
     0
 76
     1
 98
        1
 10
0.0000019694243747
 20
135.0000007993558
  0
TEXT
  5
3B5
330
392
100
AcDbEntity
  8
0
100
AcDbText
 10
150.0000019694244
 20
120.0000007993558
 30
0.0
 40
10.0
  1
SOLID
100
AcDbText
  0
HATCH
  5
3B6
330
392
100
AcDbEntity
  8
0
100
AcDbHatch
 10
0.0
 20
0.0
 30
0.0
210
0.0
220
0.0
230
1.0
  2
SOLID
 70
     1
 71
     0
 91
        1
 92
        1
 93
        4
 72
     1
 10
120.0000019694243
 20
135.0000007993558
 11
220.0000019694244
 21
135.0000007993558
 72
     1
 10
220.0000019694244
 20
135.0000007993558
 11
220.0000019694244
 21
235.0000007993558
 72
     1
 10
220.0000019694244
 20
235.0000007993558
 11
120.0000019694243
 21
235.0000007993558
 72
     1
 10
120.0000019694243
 20
235.0000007993558
 11
120.0000019694243
 21
135.0000007993558
 97
        0
 75
     0
 76
     1
 98
        1
 10
120.0000019694243
 20
135.0000007993558
  0
TEXT
  5
3B7
330
392
100
AcDbEntity
  8
0
100
AcDbText
 10
270.0000019694244
 20
120.0000007993558
 30
0.0
 40
10.0
  1
SOLID
100
AcDbText
  0
HATCH
  5
3B8
330
392
100
AcDbEntity
  8
0
100
AcDbHatch
 10
0.0
 20
0.0
 30
0.0
210
0.0
220
0.0
230
1.0
  2
SOLID
 70
     1
 71
     0
 91
        1
 92
        1
 93
        4
 72
     1
 10
240.0000019694244
 20
135.0000007993558
 11
340.0000019694244
 21
135.0000007993558
 72
     1
 10
340.0000019694244
 20
135.0000007993558
 11
340.0000019694244
 21
235.0000007993558
 72
     1
 10
340.0000019694244
 20
235.0000007993558
 11
240.0000019694244
 21
235.0000007993558
 72
     1
 10
240.0000019694244
 20
235.0000007993558
 11
240.0000019694244
 21
135.0000007993558
 97
        0
 75
     0
 76
     1
 98
        1
 10
240.0000019694244
 20
135.0000007993558
  0
TEXT
  5
3B9
330
392
100
AcDbEntity
  8
0
100
AcDbText
 10
390.0000019694244
 20
120.0000007993558
 30
0.0
 40
10.0
  1
SOLID
100
AcDbText
  0
HATCH
  5
3BA
330
392
100
AcDbEntity
  8
0
100
AcDbHatch
 10
0.0
 20
0.0
 30
0.0
210
0.0
220
0.0
230
1.0
  2
SOLID
 70
     1
 71
     0
 91
        1
 92
        1
 93
        4
 72
     1
 10
360.0000019694244
 20
135.0000007993558
 11
460.0000019694244
 21
135.0000007993558
 72
     1
 10
460.0000019694244
 20
135.0000007993558
 11
460.0000019694244
 21
235.0000007993558
 72
     1
 10
460.0000019694244
 20
235.0000007993558
 11
360.0000019694244
 21
235.0000007993558
 72
     1
 10
360.0000019694244
 20
235.0000007993558
 11
360.0000019694244
 21
135.0000007993558
 97
        0
 75
     0
 76
     1
 98
        1
 10
360.0000019694244
 20
135.0000007993558
  0
TEXT
  5
3BB
330
392
100
AcDbEntity
  8
0
100
AcDbText
 10
30.00000196942437
 20
0.0000007993558029
 30
0.0
 40
10.0
  1
SOLID
100
AcDbText
  0
HATCH
  5
3BC
330
392
100
AcDbEntity
  8
0
100
AcDbHatch
 10
0.0
 20
0.0
 30
0.0
210
0.0
220
0.0
230
1.0
  2
SOLID
 70
     1
 71
     0
 91
        1
 92
        1
 93
        4
 72
     1
 10
0.0000019694243747
 20
15.0000007993558
 11
100.0000019694244
 21
15.0000007993558
 72
     1
 10
100.0000019694244
 20
15.0000007993558
 11
100.0000019694244
 21
115.0000007993558
 72
     1
 10
100.0000019694244
 20
115.0000007993558
 11
0.0000019694243747
 21
115.0000007993558
 72
     1
 10
0.0000019694243747
 20
115.0000007993558
 11
0.0000019694243747
 21
15.0000007993558
 97
        0
 75
     0
 76
     1
 98
        1
 10
0.0000019694243747
 20
15.0000007993558
  0
TEXT
  5
3BD
330
392
100
AcDbEntity
  8
0
100
AcDbText
 10
150.0000019694244
 20
0.0000007993558029
 30
0.0
 40
10.0
  1
SOLID
100
AcDbText
  0
HATCH
  5
3BE
330
392
100
AcDbEntity
  8
0
100
AcDbHatch
 10
0.0
 20
0.0
 30
0.0
210
0.0
220
0.0
230
1.0
  2
SOLID
 70
     1
 71
     0
 91
        1
 92
        1
 93
        4
 72
     1
 10
120.0000019694243
 20
15.0000007993558
 11
220.0000019694244
 21
15.0000007993558
 72
     1
 10
220.0000019694244
 20
15.0000007993558
 11
220.0000019694244
 21
115.0000007993558
 72
     1
 10
220.0000019694244
 20
115.0000007993558
 11
120.0000019694243
 21
115.0000007993558
 72
     1
 10
120.0000019694243
 20
115.0000007993558
 11
120.0000019694243
 21
15.0000007993558
 97
        0
 75
     0
 76
     1
 98
        1
 10
120.0000019694243
 20
15.0000007993558
  0
TEXT
  5
3BF
330
392
100
AcDbEntity
  8
0
100
AcDbText
 10
270.0000019694244
 20
0.0000007993558029
 30
0.0
 40
10.0
  1
SOLID
100
AcDbText
  0
HATCH
  5
3C0
330
392
100
AcDbEntity
  8
0
100
AcDbHatch
 10
0.0
 20
0.0
 30
0.0
210
0.0
220
0.0
230
1.0
  2
SOLID
 70
     1
 71
     0
 91
        1
 92
        1
 93
        4
 72
     1
 10
240.0000019694244
 20
15.0000007993558
 11
340.0000019694244
 21
15.0000007993558
 72
     1
 10
340.0000019694244
 20
15.0000007993558
 11
340.0000019694244
 21
115.0000007993558
 72
     1
 10
340.0000019694244
 20
115.0000007993558
 11
240.0000019694244
 21
115.0000007993558
 72
     1
 10
240.0000019694244
 20
115.0000007993558
 11
240.0000019694244
 21
15.0000007993558
 97
        0
 75
     0
 76
     1
 98
        1
 10
240.0000019694244
 20
15.0000007993558
  0
TEXT
  5
3C1
330
392
100
AcDbEntity
  8
0
100
AcDbText
 10
390.0000019694244
 20
0.0000007993558029
 30
0.0
 40
10.0
  1
SOLID
100
AcDbText
  0
HATCH
  5
3C2
330
392
100
AcDbEntity
  8
0
100
AcDbHatch
 10
0.0
 20
0.0
 30
0.0
210
0.0
220
0.0
230
1.0
  2
SOLID
 70
     1
 71
     0
 91
        1
 92
        1
 93
        4
 72
     1
 10
360.0000019694244
 20
15.0000007993558
 11
460.0000019694244
 21
15.0000007993558
 72
     1
 10
460.0000019694244
 20
15.0000007993558
 11
460.0000019694244
 21
115.0000007993558
 72
     1
 10
460.0000019694244
 20
115.0000007993558
 11
360.0000019694244
 21
115.0000007993558
 72
     1
 10
360.0000019694244
 20
115.0000007993558
 11
360.0000019694244
 21
15.0000007993558
 97
        0
 75
     0
 76
     1
 98
        1
 10
360.0000019694244
 20
15.0000007993558
  0
ENDBLK
  5
3C6
330
392
100
AcDbEntity
  8
0
100
AcDbBlockEnd
  0
BLOCK
  5
4C4
330
461
100
AcDbEntity
  8
0
100
AcDbBlockBegin
  2
A$C37703A5D
 70
     0
 10
0.0
 20
0.0
 30
0.0
  3
A$C37703A5D
  1

  0
TEXT
  5
462
330
461
100
AcDbEntity
  8
0
100
AcDbText
 10
30.00000196942437
 20
600.0000007993557
 30
0.0
 40
10.0
  1
SOLID
100
AcDbText
  0
HATCH
  5
463
330
461
100
AcDbEntity
  8
0
100
AcDbHatch
 10
0.0
 20
0.0
 30
0.0
210
0.0
220
0.0
230
1.0
  2
SOLID
 70
     1
 71
     0
 91
        1
 92
        1
 93
        4
 72
     1
 10
0.0000019694243747
 20
615.0000007993558
 11
100.0000019694244
 21
615.0000007993558
 72
     1
 10
100.0000019694244
 20
615.0000007993558
 11
100.0000019694244
 21
715.0000007993558
 72
     1
 10
100.0000019694244
 20
715.0000007993558
 11
0.0000019694243747
 21
715.0000007993558
 72
     1
 10
0.0000019694243747
 20
715.0000007993558
 11
0.0000019694243747
 21
615.0000007993558
 97
        0
 75
     0
 76
     1
 98
        1
 10
0.0000019694243747
 20
615.0000007993558
  0
TEXT
  5
464
330
461
100
AcDbEntity
  8
0
100
AcDbText
 10
150.0000019694244
 20
600.0000007993557
 30
0.0
 40
10.0
  1
SOLID
100
AcDbText
  0
HATCH
  5
465
330
461
100
AcDbEntity
  8
0
100
AcDbHatch
 10
0.0
 20
0.0
 30
0.0
210
0.0
220
0.0
230
1.0
  2
SOLID
 70
     1
 71
     0
 91
        1
 92
        1
 93
        4
 72
     1
 10
120.0000019694243
 20
615.0000007993558
 11
220.0000019694244
 21
615.0000007993558
 72
     1
 10
220.0000019694244
 20
615.0000007993558
 11
220.0000019694244
 21
715.0000007993558
 72
     1
 10
220.0000019694244
 20
715.0000007993558
 11
120.0000019694243
 21
715.0000007993558
 72
     1
 10
120.0000019694243
 20
715.0000007993558
 11
120.0000019694243
 21
615.0000007993558
 97
        0
 75
     0
 76
     1
 98
        1
 10
120.0000019694243
 20
615.0000007993558
  0
TEXT
  5
466
330
461
100
AcDbEntity
  8
0
100
AcDbText
 10
270.0000019694244
 20
600.0000007993557
 30
0.0
 40
10.0
  1
SOLID
100
AcDbText
  0
HATCH
  5
467
330
461
100
AcDbEntity
  8
0
100
AcDbHatch
 10
0.0
 20
0.0
 30
0.0
210
0.0
220
0.0
230
1.0
  2
SOLID
 70
     1
 71
     0
 91
        1
 92
        1
 93
        4
 72
     1
 10
240.0000019694244
 20
615.0000007993558
 11
340.0000019694244
 21
615.0000007993558
 72
     1
 10
340.0000019694244
 20
615.0000007993558
 11
340.0000019694244
 21
715.0000007993558
 72
     1
 10
340.0000019694244
 20
715.0000007993558
 11
240.0000019694244
 21
715.0000007993558
 72
     1
 10
240.0000019694244
 20
715.0000007993558
 11
240.0000019694244
 21
615.0000007993558
 97
        0
 75
     0
 76
     1
 98
        1
 10
240.0000019694244
 20
615.0000007993558
  0
TEXT
  5
468
330
461
100
AcDbEntity
  8
0
100
AcDbText
 10
390.0000019694244
 20
600.0000007993557
 30
0.0
 40
10.0
  1
SOLID
100
AcDbText
  0
HATCH
  5
469
330
461
100
AcDbEntity
  8
0
100
AcDbHatch
 10
0.0
 20
0.0
 30
0.0
210
0.0
220
0.0
230
1.0
  2
SOLID
 70
     1
 71
     0
 91
        1
 92
        1
 93
        4
 72
     1
 10
360.0000019694244
 20
615.0000007993558
 11
460.0000019694244
 21
615.0000007993558
 72
     1
 10
460.0000019694244
 20
615.0000007993558
 11
460.0000019694244
 21
715.0000007993558
 72
     1
 10
460.0000019694244
 20
715.0000007993558
 11
360.0000019694244
 21
715.0000007993558
 72
     1
 10
360.0000019694244
 20
715.0000007993558
 11
360.0000019694244
 21
615.0000007993558
 97
        0
 75
     0
 76
     1
 98
        1
 10
360.0000019694244
 20
615.0000007993558
  0
TEXT
  5
46A
330
461
100
AcDbEntity
  8
0
100
AcDbText
 10
30.00000196942437
 20
480.0000007993558
 30
0.0
 40
10.0
  1
SOLID
100
AcDbText
  0
HATCH
  5
46B
330
461
100
AcDbEntity
  8
0
100
AcDbHatch
 10
0.0
 20
0.0
 30
0.0
210
0.0
220
0.0
230
1.0
  2
SOLID
 70
     1
 71
     0
 91
        1
 92
        1
 93
        4
 72
     1
 10
0.0000019694243747
 20
495.0000007993557
 11
100.0000019694244
 21
495.0000007993557
 72
     1
 10
100.0000019694244
 20
495.0000007993557
 11
100.0000019694244
 21
595.0000007993557
 72
     1
 10
100.0000019694244
 20
595.0000007993557
 11
0.0000019694243747
 21
595.0000007993557
 72
     1
 10
0.0000019694243747
 20
595.0000007993557
 11
0.0000019694243747
 21
495.0000007993557
 97
        0
 75
     0
 76
     1
 98
        1
 10
0.0000019694243747
 20
495.0000007993557
  0
TEXT
  5
46C
330
461
100
AcDbEntity
  8
0
100
AcDbText
 10
150.0000019694244
 20
480.0000007993558
 30
0.0
 40
10.0
  1
SOLID
100
AcDbText
  0
HATCH
  5
46D
330
461
100
AcDbEntity
  8
0
100
AcDbHatch
 10
0.0
 20
0.0
 30
0.0
210
0.0
220
0.0
230
1.0
  2
SOLID
 70
     1
 71
     0
 91
        1
 92
        1
 93
        4
 72
     1
 10
120.0000019694243
 20
495.0000007993557
 11
220.0000019694244
 21
495.0000007993557
 72
     1
 10
220.0000019694244
 20
495.0000007993557
 11
220.0000019694244
 21
595.0000007993557
 72
     1
 10
220.0000019694244
 20
595.0000007993557
 11
120.0000019694243
 21
595.0000007993557
 72
     1
 10
120.0000019694243
 20
595.0000007993557
 11
120.0000019694243
 21
495.0000007993557
 97
        0
 75
     0
 76
     1
 98
        1
 10
120.0000019694243
 20
495.0000007993557
  0
TEXT
  5
46E
330
461
100
AcDbEntity
  8
0
100
AcDbText
 10
270.0000019694244
 20
480.0000007993558
 30
0.0
 40
10.0
  1
SOLID
100
AcDbText
  0
HATCH
  5
46F
330
461
100
AcDbEntity
  8
0
100
AcDbHatch
 10
0.0
 20
0.0
 30
0.0
210
0.0
220
0.0
230
1.0
  2
SOLID
 70
     1
 71
     0
 91
        1
 92
        1
 93
        4
 72
     1
 10
240.0000019694244
 20
495.0000007993557
 11
340.0000019694244
 21
495.0000007993557
 72
     1
 10
340.0000019694244
 20
495.0000007993557
 11
340.0000019694244
 21
595.0000007993557
 72
     1
 10
340.0000019694244
 20
595.0000007993557
 11
240.0000019694244
 21
595.0000007993557
 72
     1
 10
240.0000019694244
 20
595.0000007993557
 11
240.0000019694244
 21
495.0000007993557
 97
        0
 75
     0
 76
     1
 98
        1
 10
240.0000019694244
 20
495.0000007993557
  0
TEXT
  5
470
330
461
100
AcDbEntity
  8
0
100
AcDbText
 10
390.0000019694244
 20
480.0000007993558
 30
0.0
 40
10.0
  1
SOLID
100
AcDbText
  0
HATCH
  5
471
330
461
100
AcDbEntity
  8
0
100
AcDbHatch
 10
0.0
 20
0.0
 30
0.0
210
0.0
220
0.0
230
1.0
  2
SOLID
 70
     1
 71
     0
 91
        1
 92
        1
 93
        4
 72
     1
 10
360.0000019694244
 20
495.0000007993557
 11
460.0000019694244
 21
495.0000007993557
 72
     1
 10
460.0000019694244
 20
495.0000007993557
 11
460.0000019694244
 21
595.0000007993557
 72
     1
 10
460.0000019694244
 20
595.0000007993557
 11
360.0000019694244
 21
595.0000007993557
 72
     1
 10
360.0000019694244
 20
595.0000007993557
 11
360.0000019694244
 21
495.0000007993557
 97
        0
 75
     0
 76
     1
 98
        1
 10
360.0000019694244
 20
495.0000007993557
  0
TEXT
  5
472
330
461
100
AcDbEntity
  8
0
100
AcDbText
 10
30.00000196942437
 20
360.0000007993559
 30
0.0
 40
10.0
  1
SOLID
100
AcDbText
  0
HATCH
  5
473
330
461
100
AcDbEntity
  8
0
100
AcDbHatch
 10
0.0
 20
0.0
 30
0.0
210
0.0
220
0.0
230
1.0
  2
SOLID
 70
     1
 71
     0
 91
        1
 92
        1
 93
        4
 72
     1
 10
0.0000019694243747
 20
375.0000007993559
 11
100.0000019694244
 21
375.0000007993559
 72
     1
 10
100.0000019694244
 20
375.0000007993559
 11
100.0000019694244
 21
475.0000007993556
 72
     1
 10
100.0000019694244
 20
475.0000007993556
 11
0.0000019694243747
 21
475.0000007993556
 72
     1
 10
0.0000019694243747
 20
475.0000007993556
 11
0.0000019694243747
 21
375.0000007993559
 97
        0
 75
     0
 76
     1
 98
        1
 10
0.0000019694243747
 20
375.0000007993559
  0
TEXT
  5
474
330
461
100
AcDbEntity
  8
0
100
AcDbText
 10
150.0000019694244
 20
360.0000007993559
 30
0.0
 40
10.0
  1
SOLID
100
AcDbText
  0
HATCH
  5
475
330
461
100
AcDbEntity
  8
0
100
AcDbHatch
 10
0.0
 20
0.0
 30
0.0
210
0.0
220
0.0
230
1.0
  2
SOLID
 70
     1
 71
     0
 91
        1
 92
        1
 93
        4
 72
     1
 10
120.0000019694243
 20
375.0000007993559
 11
220.0000019694244
 21
375.0000007993559
 72
     1
 10
220.0000019694244
 20
375.0000007993559
 11
220.0000019694244
 21
475.0000007993556
 72
     1
 10
220.0000019694244
 20
475.0000007993556
 11
120.0000019694243
 21
475.0000007993556
 72
     1
 10
120.0000019694243
 20
475.0000007993556
 11
120.0000019694243
 21
375.0000007993559
 97
        0
 75
     0
 76
     1
 98
        1
 10
120.0000019694243
 20
375.0000007993559
  0
TEXT
  5
476
330
461
100
AcDbEntity
  8
0
100
AcDbText
 10
270.0000019694244
 20
360.0000007993559
 30
0.0
 40
10.0
  1
SOLID
100
AcDbText
  0
HATCH
  5
477
330
461
100
AcDbEntity
  8
0
100
AcDbHatch
 10
0.0
 20
0.0
 30
0.0
210
0.0
220
0.0
230
1.0
  2
SOLID
 70
     1
 71
     0
 91
        1
 92
        1
 93
        4
 72
     1
 10
240.0000019694244
 20
375.0000007993559
 11
340.0000019694244
 21
375.0000007993559
 72
     1
 10
340.0000019694244
 20
375.0000007993559
 11
340.0000019694244
 21
475.0000007993556
 72
     1
 10
340.0000019694244
 20
475.0000007993556
 11
240.0000019694244
 21
475.0000007993556
 72
     1
 10
240.0000019694244
 20
475.0000007993556
 11
240.0000019694244
 21
375.0000007993559
 97
        0
 75
     0
 76
     1
 98
        1
 10
240.0000019694244
 20
375.0000007993559
  0
TEXT
  5
478
330
461
100
AcDbEntity
  8
0
100
AcDbText
 10
390.0000019694244
 20
360.0000007993559
 30
0.0
 40
10.0
  1
SOLID
100
AcDbText
  0
HATCH
  5
479
330
461
100
AcDbEntity
  8
0
100
AcDbHatch
 10
0.0
 20
0.0
 30
0.0
210
0.0
220
0.0
230
1.0
  2
SOLID
 70
     1
 71
     0
 91
        1
 92
        1
 93
        4
 72
     1
 10
360.0000019694244
 20
375.0000007993559
 11
460.0000019694244
 21
375.0000007993559
 72
     1
 10
460.0000019694244
 20
375.0000007993559
 11
460.0000019694244
 21
475.0000007993556
 72
     1
 10
460.0000019694244
 20
475.0000007993556
 11
360.0000019694244
 21
475.0000007993556
 72
     1
 10
360.0000019694244
 20
475.0000007993556
 11
360.0000019694244
 21
375.0000007993559
 97
        0
 75
     0
 76
     1
 98
        1
 10
360.0000019694244
 20
375.0000007993559
  0
TEXT
  5
47A
330
461
100
AcDbEntity
  8
0
100
AcDbText
 10
30.00000196942437
 20
240.0000007993558
 30
0.0
 40
10.0
  1
SOLID
100
AcDbText
  0
HATCH
  5
47B
330
461
100
AcDbEntity
  8
0
100
AcDbHatch
 10
0.0
 20
0.0
 30
0.0
210
0.0
220
0.0
230
1.0
  2
SOLID
 70
     1
 71
     0
 91
        1
 92
        1
 93
        4
 72
     1
 10
0.0000019694243747
 20
255.0000007993558
 11
100.0000019694244
 21
255.0000007993558
 72
     1
 10
100.0000019694244
 20
255.0000007993558
 11
100.0000019694244
 21
355.0000007993558
 72
     1
 10
100.0000019694244
 20
355.0000007993558
 11
0.0000019694243747
 21
355.0000007993558
 72
     1
 10
0.0000019694243747
 20
355.0000007993558
 11
0.0000019694243747
 21
255.0000007993558
 97
        0
 75
     0
 76
     1
 98
        1
 10
0.0000019694243747
 20
255.0000007993558
  0
TEXT
  5
47C
330
461
100
AcDbEntity
  8
0
100
AcDbText
 10
150.0000019694244
 20
240.0000007993558
 30
0.0
 40
10.0
  1
SOLID
100
AcDbText
  0
HATCH
  5
47D
330
461
100
AcDbEntity
  8
0
100
AcDbHatch
 10
0.0
 20
0.0
 30
0.0
210
0.0
220
0.0
230
1.0
  2
SOLID
 70
     1
 71
     0
 91
        1
 92
        1
 93
        4
 72
     1
 10
120.0000019694243
 20
255.0000007993558
 11
220.0000019694244
 21
255.0000007993558
 72
     1
 10
220.0000019694244
 20
255.0000007993558
 11
220.0000019694244
 21
355.0000007993558
 72
     1
 10
220.0000019694244
 20
355.0000007993558
 11
120.0000019694243
 21
355.0000007993558
 72
     1
 10
120.0000019694243
 20
355.0000007993558
 11
120.0000019694243
 21
255.0000007993558
 97
        0
 75
     0
 76
     1
 98
        1
 10
120.0000019694243
 20
255.0000007993558
  0
TEXT
  5
47E
330
461
100
AcDbEntity
  8
0
100
AcDbText
 10
270.0000019694244
 20
240.0000007993558
 30
0.0
 40
10.0
  1
SOLID
100
AcDbText
  0
HATCH
  5
47F
330
461
100
AcDbEntity
  8
0
100
AcDbHatch
 10
0.0
 20
0.0
 30
0.0
210
0.0
220
0.0
230
1.0
  2
SOLID
 70
     1
 71
     0
 91
        1
 92
        1
 93
        4
 72
     1
 10
240.0000019694244
 20
255.0000007993558
 11
340.0000019694244
 21
255.0000007993558
 72
     1
 10
340.0000019694244
 20
255.0000007993558
 11
340.0000019694244
 21
355.0000007993558
 72
     1
 10
340.0000019694244
 20
355.0000007993558
 11
240.0000019694244
 21
355.0000007993558
 72
     1
 10
240.0000019694244
 20
355.0000007993558
 11
240.0000019694244
 21
255.0000007993558
 97
        0
 75
     0
 76
     1
 98
        1
 10
240.0000019694244
 20
255.0000007993558
  0
TEXT
  5
480
330
461
100
AcDbEntity
  8
0
100
AcDbText
 10
390.0000019694244
 20
240.0000007993558
 30
0.0
 40
10.0
  1
SOLID
100
AcDbText
  0
HATCH
  5
481
330
461
100
AcDbEntity
  8
0
100
AcDbHatch
 10
0.0
 20
0.0
 30
0.0
210
0.0
220
0.0
230
1.0
  2
SOLID
 70
     1
 71
     0
 91
        1
 92
        1
 93
        4
 72
     1
 10
360.0000019694244
 20
255.0000007993558
 11
460.0000019694244
 21
255.0000007993558
 72
     1
 10
460.0000019694244
 20
255.0000007993558
 11
460.0000019694244
 21
355.0000007993558
 72
     1
 10
460.0000019694244
 20
355.0000007993558
 11
360.0000019694244
 21
355.0000007993558
 72
     1
 10
360.0000019694244
 20
355.0000007993558
 11
360.0000019694244
 21
255.0000007993558
 97
        0
 75
     0
 76
     1
 98
        1
 10
360.0000019694244
 20
255.0000007993558
  0
TEXT
  5
482
330
461
100
AcDbEntity
  8
0
100
AcDbText
 10
30.00000196942437
 20
120.0000007993558
 30
0.0
 40
10.0
  1
SOLID
100
AcDbText
  0
HATCH
  5
483
330
461
100
AcDbEntity
  8
0
100
AcDbHatch
 10
0.0
 20
0.0
 30
0.0
210
0.0
220
0.0
230
1.0
  2
SOLID
 70
     1
 71
     0
 91
        1
 92
        1
 93
        4
 72
     1
 10
0.0000019694243747
 20
135.0000007993558
 11
100.0000019694244
 21
135.0000007993558
 72
     1
 10
100.0000019694244
 20
135.0000007993558
 11
100.0000019694244
 21
235.0000007993558
 72
     1
 10
100.0000019694244
 20
235.0000007993558
 11
0.0000019694243747
 21
235.0000007993558
 72
     1
 10
0.0000019694243747
 20
235.0000007993558
 11
0.0000019694243747
 21
135.0000007993558
 97
        0
 75
     0
 76
     1
 98
        1
 10
0.0000019694243747
 20
135.0000007993558
  0
TEXT
  5
484
330
461
100
AcDbEntity
  8
0
100
AcDbText
 10
150.0000019694244
 20
120.0000007993558
 30
0.0
 40
10.0
  1
SOLID
100
AcDbText
  0
HATCH
  5
485
330
461
100
AcDbEntity
  8
0
100
AcDbHatch
 10
0.0
 20
0.0
 30
0.0
210
0.0
220
0.0
230
1.0
  2
SOLID
 70
     1
 71
     0
 91
        1
 92
        1
 93
        4
 72
     1
 10
120.0000019694243
 20
135.0000007993558
 11
220.0000019694244
 21
135.0000007993558
 72
     1
 10
220.0000019694244
 20
135.0000007993558
 11
220.0000019694244
 21
235.0000007993558
 72
     1
 10
220.0000019694244
 20
235.0000007993558
 11
120.0000019694243
 21
235.0000007993558
 72
     1
 10
120.0000019694243
 20
235.0000007993558
 11
120.0000019694243
 21
135.0000007993558
 97
        0
 75
     0
 76
     1
 98
        1
 10
120.0000019694243
 20
135.0000007993558
  0
TEXT
  5
486
330
461
100
AcDbEntity
  8
0
100
AcDbText
 10
270.0000019694244
 20
120.0000007993558
 30
0.0
 40
10.0
  1
SOLID
100
AcDbText
  0
HATCH
  5
487
330
461
100
AcDbEntity
  8
0
100
AcDbHatch
 10
0.0
 20
0.0
 30
0.0
210
0.0
220
0.0
230
1.0
  2
SOLID
 70
     1
 71
     0
 91
        1
 92
        1
 93
        4
 72
     1
 10
240.0000019694244
 20
135.0000007993558
 11
340.0000019694244
 21
135.0000007993558
 72
     1
 10
340.0000019694244
 20
135.0000007993558
 11
340.0000019694244
 21
235.0000007993558
 72
     1
 10
340.0000019694244
 20
235.0000007993558
 11
240.0000019694244
 21
235.0000007993558
 72
     1
 10
240.0000019694244
 20
235.0000007993558
 11
240.0000019694244
 21
135.0000007993558
 97
        0
 75
     0
 76
     1
 98
        1
 10
240.0000019694244
 20
135.0000007993558
  0
TEXT
  5
488
330
461
100
AcDbEntity
  8
0
100
AcDbText
 10
390.0000019694244
 20
120.0000007993558
 30
0.0
 40
10.0
  1
SOLID
100
AcDbText
  0
HATCH
  5
489
330
461
100
AcDbEntity
  8
0
100
AcDbHatch
 10
0.0
 20
0.0
 30
0.0
210
0.0
220
0.0
230
1.0
  2
SOLID
 70
     1
 71
     0
 91
        1
 92
        1
 93
        4
 72
     1
 10
360.0000019694244
 20
135.0000007993558
 11
460.0000019694244
 21
135.0000007993558
 72
     1
 10
460.0000019694244
 20
135.0000007993558
 11
460.0000019694244
 21
235.0000007993558
 72
     1
 10
460.0000019694244
 20
235.0000007993558
 11
360.0000019694244
 21
235.0000007993558
 72
     1
 10
360.0000019694244
 20
235.0000007993558
 11
360.0000019694244
 21
135.0000007993558
 97
        0
 75
     0
 76
     1
 98
        1
 10
360.0000019694244
 20
135.0000007993558
  0
TEXT
  5
48A
330
461
100
AcDbEntity
  8
0
100
AcDbText
 10
30.00000196942437
 20
0.0000007993558029
 30
0.0
 40
10.0
  1
SOLID
100
AcDbText
  0
HATCH
  5
48B
330
461
100
AcDbEntity
  8
0
100
AcDbHatch
 10
0.0
 20
0.0
 30
0.0
210
0.0
220
0.0
230
1.0
  2
SOLID
 70
     1
 71
     0
 91
        1
 92
        1
 93
        4
 72
     1
 10
0.0000019694243747
 20
15.0000007993558
 11
100.0000019694244
 21
15.0000007993558
 72
     1
 10
100.0000019694244
 20
15.0000007993558
 11
100.0000019694244
 21
115.0000007993558
 72
     1
 10
100.0000019694244
 20
115.0000007993558
 11
0.0000019694243747
 21
115.0000007993558
 72
     1
 10
0.0000019694243747
 20
115.0000007993558
 11
0.0000019694243747
 21
15.0000007993558
 97
        0
 75
     0
 76
     1
 98
        1
 10
0.0000019694243747
 20
15.0000007993558
  0
TEXT
  5
48C
330
461
100
AcDbEntity
  8
0
100
AcDbText
 10
150.0000019694244
 20
0.0000007993558029
 30
0.0
 40
10.0
  1
SOLID
100
AcDbText
  0
HATCH
  5
48D
330
461
100
AcDbEntity
  8
0
100
AcDbHatch
 10
0.0
 20
0.0
 30
0.0
210
0.0
220
0.0
230
1.0
  2
SOLID
 70
     1
 71
     0
 91
        1
 92
        1
 93
        4
 72
     1
 10
120.0000019694243
 20
15.0000007993558
 11
220.0000019694244
 21
15.0000007993558
 72
     1
 10
220.0000019694244
 20
15.0000007993558
 11
220.0000019694244
 21
115.0000007993558
 72
     1
 10
220.0000019694244
 20
115.0000007993558
 11
120.0000019694243
 21
115.0000007993558
 72
     1
 10
120.0000019694243
 20
115.0000007993558
 11
120.0000019694243
 21
15.0000007993558
 97
        0
 75
     0
 76
     1
 98
        1
 10
120.0000019694243
 20
15.0000007993558
  0
TEXT
  5
48E
330
461
100
AcDbEntity
  8
0
100
AcDbText
 10
270.0000019694244
 20
0.0000007993558029
 30
0.0
 40
10.0
  1
SOLID
100
AcDbText
  0
HATCH
  5
48F
330
461
100
AcDbEntity
  8
0
100
AcDbHatch
 10
0.0
 20
0.0
 30
0.0
210
0.0
220
0.0
230
1.0
  2
SOLID
 70
     1
 71
     0
 91
        1
 92
        1
 93
        4
 72
     1
 10
240.0000019694244
 20
15.0000007993558
 11
340.0000019694244
 21
15.0000007993558
 72
     1
 10
340.0000019694244
 20
15.0000007993558
 11
340.0000019694244
 21
115.0000007993558
 72
     1
 10
340.0000019694244
 20
115.0000007993558
 11
240.0000019694244
 21
115.0000007993558
 72
     1
 10
240.0000019694244
 20
115.0000007993558
 11
240.0000019694244
 21
15.0000007993558
 97
        0
 75
     0
 76
     1
 98
        1
 10
240.0000019694244
 20
15.0000007993558
  0
TEXT
  5
490
330
461
100
AcDbEntity
  8
0
100
AcDbText
 10
390.0000019694244
 20
0.0000007993558029
 30
0.0
 40
10.0
  1
SOLID
100
AcDbText
  0
HATCH
  5
491
330
461
100
AcDbEntity
  8
0
100
AcDbHatch
 10
0.0
 20
0.0
 30
0.0
210
0.0
220
0.0
230
1.0
  2
SOLID
 70
     1
 71
     0
 91
        1
 92
        1
 93
        4
 72
     1
 10
360.0000019694244
 20
15.0000007993558
 11
460.0000019694244
 21
15.0000007993558
 72
     1
 10
460.0000019694244
 20
15.0000007993558
 11
460.0000019694244
 21
115.0000007993558
 72
     1
 10
460.0000019694244
 20
115.0000007993558
 11
360.0000019694244
 21
115.0000007993558
 72
     1
 10
360.0000019694244
 20
115.0000007993558
 11
360.0000019694244
 21
15.0000007993558
 97
        0
 75
     0
 76
     1
 98
        1
 10
360.0000019694244
 20
15.0000007993558
  0
TEXT
  5
492
330
461
100
AcDbEntity
  8
0
100
AcDbText
 10
510.0000019694244
 20
600.0000007993557
 30
0.0
 40
10.0
  1
SOLID
100
AcDbText
  0
HATCH
  5
493
330
461
100
AcDbEntity
  8
0
100
AcDbHatch
 10
0.0
 20
0.0
 30
0.0
210
0.0
220
0.0
230
1.0
  2
SOLID
 70
     1
 71
     0
 91
        1
 92
        1
 93
        4
 72
     1
 10
480.0000019694244
 20
615.0000007993558
 11
580.0000019694244
 21
615.0000007993558
 72
     1
 10
580.0000019694244
 20
615.0000007993558
 11
580.0000019694244
 21
715.0000007993558
 72
     1
 10
580.0000019694244
 20
715.0000007993558
 11
480.0000019694244
 21
715.0000007993558
 72
     1
 10
480.0000019694244
 20
715.0000007993558
 11
480.0000019694244
 21
615.0000007993558
 97
        0
 75
     0
 76
     1
 98
        1
 10
480.0000019694244
 20
615.0000007993558
  0
TEXT
  5
494
330
461
100
AcDbEntity
  8
0
100
AcDbText
 10
630.0000019694244
 20
600.0000007993557
 30
0.0
 40
10.0
  1
SOLID
100
AcDbText
  0
HATCH
  5
495
330
461
100
AcDbEntity
  8
0
100
AcDbHatch
 10
0.0
 20
0.0
 30
0.0
210
0.0
220
0.0
230
1.0
  2
SOLID
 70
     1
 71
     0
 91
        1
 92
        1
 93
        4
 72
     1
 10
600.0000019694242
 20
615.0000007993558
 11
700.0000019694242
 21
615.0000007993558
 72
     1
 10
700.0000019694242
 20
615.0000007993558
 11
700.0000019694242
 21
715.0000007993558
 72
     1
 10
700.0000019694242
 20
715.0000007993558
 11
600.0000019694242
 21
715.0000007993558
 72
     1
 10
600.0000019694242
 20
715.0000007993558
 11
600.0000019694242
 21
615.0000007993558
 97
        0
 75
     0
 76
     1
 98
        1
 10
600.0000019694242
 20
615.0000007993558
  0
TEXT
  5
496
330
461
100
AcDbEntity
  8
0
100
AcDbText
 10
750.0000019694242
 20
600.0000007993557
 30
0.0
 40
10.0
  1
SOLID
100
AcDbText
  0
HATCH
  5
497
330
461
100
AcDbEntity
  8
0
100
AcDbHatch
 10
0.0
 20
0.0
 30
0.0
210
0.0
220
0.0
230
1.0
  2
SOLID
 70
     1
 71
     0
 91
        1
 92
        1
 93
        4
 72
     1
 10
720.0000019694242
 20
615.0000007993558
 11
820.0000019694241
 21
615.0000007993558
 72
     1
 10
820.0000019694241
 20
615.0000007993558
 11
820.0000019694241
 21
715.0000007993558
 72
     1
 10
820.0000019694241
 20
715.0000007993558
 11
720.0000019694242
 21
715.0000007993558
 72
     1
 10
720.0000019694242
 20
715.0000007993558
 11
720.0000019694242
 21
615.0000007993558
 97
        0
 75
     0
 76
     1
 98
        1
 10
720.0000019694242
 20
615.0000007993558
  0
TEXT
  5
498
330
461
100
AcDbEntity
  8
0
100
AcDbText
 10
870.0000019694241
 20
600.0000007993557
 30
0.0
 40
10.0
  1
SOLID
100
AcDbText
  0
HATCH
  5
499
330
461
100
AcDbEntity
  8
0
100
AcDbHatch
 10
0.0
 20
0.0
 30
0.0
210
0.0
220
0.0
230
1.0
  2
SOLID
 70
     1
 71
     0
 91
        1
 92
        1
 93
        4
 72
     1
 10
840.0000019694243
 20
615.0000007993558
 11
940.0000019694244
 21
615.0000007993558
 72
     1
 10
940.0000019694244
 20
615.0000007993558
 11
940.0000019694244
 21
715.0000007993558
 72
     1
 10
940.0000019694244
 20
715.0000007993558
 11
840.0000019694243
 21
715.0000007993558
 72
     1
 10
840.0000019694243
 20
715.0000007993558
 11
840.0000019694243
 21
615.0000007993558
 97
        0
 75
     0
 76
     1
 98
        1
 10
840.0000019694243
 20
615.0000007993558
  0
TEXT
  5
49A
330
461
100
AcDbEntity
  8
0
100
AcDbText
 10
510.0000019694244
 20
480.0000007993558
 30
0.0
 40
10.0
  1
SOLID
100
AcDbText
  0
HATCH
  5
49B
330
461
100
AcDbEntity
  8
0
100
AcDbHatch
 10
0.0
 20
0.0
 30
0.0
210
0.0
220
0.0
230
1.0
  2
SOLID
 70
     1
 71
     0
 91
        1
 92
        1
 93
        4
 72
     1
 10
480.0000019694244
 20
495.0000007993557
 11
580.0000019694244
 21
495.0000007993557
 72
     1
 10
580.0000019694244
 20
495.0000007993557
 11
580.0000019694244
 21
595.0000007993557
 72
     1
 10
580.0000019694244
 20
595.0000007993557
 11
480.0000019694244
 21
595.0000007993557
 72
     1
 10
480.0000019694244
 20
595.0000007993557
 11
480.0000019694244
 21
495.0000007993557
 97
        0
 75
     0
 76
     1
 98
        1
 10
480.0000019694244
 20
495.0000007993557
  0
TEXT
  5
49C
330
461
100
AcDbEntity
  8
0
100
AcDbText
 10
630.0000019694244
 20
480.0000007993558
 30
0.0
 40
10.0
  1
SOLID
100
AcDbText
  0
HATCH
  5
49D
330
461
100
AcDbEntity
  8
0
100
AcDbHatch
 10
0.0
 20
0.0
 30
0.0
210
0.0
220
0.0
230
1.0
  2
SOLID
 70
     1
 71
     0
 91
        1
 92
        1
 93
        4
 72
     1
 10
600.0000019694242
 20
495.0000007993557
 11
700.0000019694242
 21
495.0000007993557
 72
     1
 10
700.0000019694242
 20
495.0000007993557
 11
700.0000019694242
 21
595.0000007993557
 72
     1
 10
700.0000019694242
 20
595.0000007993557
 11
600.0000019694242
 21
595.0000007993557
 72
     1
 10
600.0000019694242
 20
595.0000007993557
 11
600.0000019694242
 21
495.0000007993557
 97
        0
 75
     0
 76
     1
 98
        1
 10
600.0000019694242
 20
495.0000007993557
  0
TEXT
  5
49E
330
461
100
AcDbEntity
  8
0
100
AcDbText
 10
750.0000019694242
 20
480.0000007993558
 30
0.0
 40
10.0
  1
SOLID
100
AcDbText
  0
HATCH
  5
49F
330
461
100
AcDbEntity
  8
0
100
AcDbHatch
 10
0.0
 20
0.0
 30
0.0
210
0.0
220
0.0
230
1.0
  2
SOLID
 70
     1
 71
     0
 91
        1
 92
        1
 93
        4
 72
     1
 10
720.0000019694242
 20
495.0000007993557
 11
820.0000019694241
 21
495.0000007993557
 72
     1
 10
820.0000019694241
 20
495.0000007993557
 11
820.0000019694241
 21
595.0000007993557
 72
     1
 10
820.0000019694241
 20
595.0000007993557
 11
720.0000019694242
 21
595.0000007993557
 72
     1
 10
720.0000019694242
 20
595.0000007993557
 11
720.0000019694242
 21
495.0000007993557
 97
        0
 75
     0
 76
     1
 98
        1
 10
720.0000019694242
 20
495.0000007993557
  0
TEXT
  5
4A0
330
461
100
AcDbEntity
  8
0
100
AcDbText
 10
870.0000019694241
 20
480.0000007993558
 30
0.0
 40
10.0
  1
SOLID
100
AcDbText
  0
HATCH
  5
4A1
330
461
100
AcDbEntity
  8
0
100
AcDbHatch
 10
0.0
 20
0.0
 30
0.0
210
0.0
220
0.0
230
1.0
  2
SOLID
 70
     1
 71
     0
 91
        1
 92
        1
 93
        4
 72
     1
 10
840.0000019694243
 20
495.0000007993557
 11
940.0000019694244
 21
495.0000007993557
 72
     1
 10
940.0000019694244
 20
495.0000007993557
 11
940.0000019694244
 21
595.0000007993557
 72
     1
 10
940.0000019694244
 20
595.0000007993557
 11
840.0000019694243
 21
595.0000007993557
 72
     1
 10
840.0000019694243
 20
595.0000007993557
 11
840.0000019694243
 21
495.0000007993557
 97
        0
 75
     0
 76
     1
 98
        1
 10
840.0000019694243
 20
495.0000007993557
  0
TEXT
  5
4A2
330
461
100
AcDbEntity
  8
0
100
AcDbText
 10
510.0000019694244
 20
360.0000007993559
 30
0.0
 40
10.0
  1
SOLID
100
AcDbText
  0
HATCH
  5
4A3
330
461
100
AcDbEntity
  8
0
100
AcDbHatch
 10
0.0
 20
0.0
 30
0.0
210
0.0
220
0.0
230
1.0
  2
SOLID
 70
     1
 71
     0
 91
        1
 92
        1
 93
        4
 72
     1
 10
480.0000019694244
 20
375.0000007993559
 11
580.0000019694244
 21
375.0000007993559
 72
     1
 10
580.0000019694244
 20
375.0000007993559
 11
580.0000019694244
 21
475.0000007993556
 72
     1
 10
580.0000019694244
 20
475.0000007993556
 11
480.0000019694244
 21
475.0000007993556
 72
     1
 10
480.0000019694244
 20
475.0000007993556
 11
480.0000019694244
 21
375.0000007993559
 97
        0
 75
     0
 76
     1
 98
        1
 10
480.0000019694244
 20
375.0000007993559
  0
TEXT
  5
4A4
330
461
100
AcDbEntity
  8
0
100
AcDbText
 10
630.0000019694244
 20
360.0000007993559
 30
0.0
 40
10.0
  1
SOLID
100
AcDbText
  0
HATCH
  5
4A5
330
461
100
AcDbEntity
  8
0
100
AcDbHatch
 10
0.0
 20
0.0
 30
0.0
210
0.0
220
0.0
230
1.0
  2
SOLID
 70
     1
 71
     0
 91
        1
 92
        1
 93
        4
 72
     1
 10
600.0000019694242
 20
375.0000007993559
 11
700.0000019694242
 21
375.0000007993559
 72
     1
 10
700.0000019694242
 20
375.0000007993559
 11
700.0000019694242
 21
475.0000007993556
 72
     1
 10
700.0000019694242
 20
475.0000007993556
 11
600.0000019694242
 21
475.0000007993556
 72
     1
 10
600.0000019694242
 20
475.0000007993556
 11
600.0000019694242
 21
375.0000007993559
 97
        0
 75
     0
 76
     1
 98
        1
 10
600.0000019694242
 20
375.0000007993559
  0
TEXT
  5
4A6
330
461
100
AcDbEntity
  8
0
100
AcDbText
 10
750.0000019694242
 20
360.0000007993559
 30
0.0
 40
10.0
  1
SOLID
100
AcDbText
  0
HATCH
  5
4A7
330
461
100
AcDbEntity
  8
0
100
AcDbHatch
 10
0.0
 20
0.0
 30
0.0
210
0.0
220
0.0
230
1.0
  2
SOLID
 70
     1
 71
     0
 91
        1
 92
        1
 93
        4
 72
     1
 10
720.0000019694242
 20
375.0000007993559
 11
820.0000019694241
 21
375.0000007993559
 72
     1
 10
820.0000019694241
 20
375.0000007993559
 11
820.0000019694241
 21
475.0000007993556
 72
     1
 10
820.0000019694241
 20
475.0000007993556
 11
720.0000019694242
 21
475.0000007993556
 72
     1
 10
720.0000019694242
 20
475.0000007993556
 11
720.0000019694242
 21
375.0000007993559
 97
        0
 75
     0
 76
     1
 98
        1
 10
720.0000019694242
 20
375.0000007993559
  0
TEXT
  5
4A8
330
461
100
AcDbEntity
  8
0
100
AcDbText
 10
870.0000019694241
 20
360.0000007993559
 30
0.0
 40
10.0
  1
SOLID
100
AcDbText
  0
HATCH
  5
4A9
330
461
100
AcDbEntity
  8
0
100
AcDbHatch
 10
0.0
 20
0.0
 30
0.0
210
0.0
220
0.0
230
1.0
  2
SOLID
 70
     1
 71
     0
 91
        1
 92
        1
 93
        4
 72
     1
 10
840.0000019694243
 20
375.0000007993559
 11
940.0000019694244
 21
375.0000007993559
 72
     1
 10
940.0000019694244
 20
375.0000007993559
 11
940.0000019694244
 21
475.0000007993556
 72
     1
 10
940.0000019694244
 20
475.0000007993556
 11
840.0000019694243
 21
475.0000007993556
 72
     1
 10
840.0000019694243
 20
475.0000007993556
 11
840.0000019694243
 21
375.0000007993559
 97
        0
 75
     0
 76
     1
 98
        1
 10
840.0000019694243
 20
375.0000007993559
  0
TEXT
  5
4AA
330
461
100
AcDbEntity
  8
0
100
AcDbText
 10
510.0000019694244
 20
240.0000007993558
 30
0.0
 40
10.0
  1
SOLID
100
AcDbText
  0
HATCH
  5
4AB
330
461
100
AcDbEntity
  8
0
100
AcDbHatch
 10
0.0
 20
0.0
 30
0.0
210
0.0
220
0.0
230
1.0
  2
SOLID
 70
     1
 71
     0
 91
        1
 92
        1
 93
        4
 72
     1
 10
480.0000019694244
 20
255.0000007993558
 11
580.0000019694244
 21
255.0000007993558
 72
     1
 10
580.0000019694244
 20
255.0000007993558
 11
580.0000019694244
 21
355.0000007993558
 72
     1
 10
580.0000019694244
 20
355.0000007993558
 11
480.0000019694244
 21
355.0000007993558
 72
     1
 10
480.0000019694244
 20
355.0000007993558
 11
480.0000019694244
 21
255.0000007993558
 97
        0
 75
     0
 76
     1
 98
        1
 10
480.0000019694244
 20
255.0000007993558
  0
TEXT
  5
4AC
330
461
100
AcDbEntity
  8
0
100
AcDbText
 10
630.0000019694244
 20
240.0000007993558
 30
0.0
 40
10.0
  1
SOLID
100
AcDbText
  0
HATCH
  5
4AD
330
461
100
AcDbEntity
  8
0
100
AcDbHatch
 10
0.0
 20
0.0
 30
0.0
210
0.0
220
0.0
230
1.0
  2
SOLID
 70
     1
 71
     0
 91
        1
 92
        1
 93
        4
 72
     1
 10
600.0000019694242
 20
255.0000007993558
 11
700.0000019694242
 21
255.0000007993558
 72
     1
 10
700.0000019694242
 20
255.0000007993558
 11
700.0000019694242
 21
355.0000007993558
 72
     1
 10
700.0000019694242
 20
355.0000007993558
 11
600.0000019694242
 21
355.0000007993558
 72
     1
 10
600.0000019694242
 20
355.0000007993558
 11
600.0000019694242
 21
255.0000007993558
 97
        0
 75
     0
 76
     1
 98
        1
 10
600.0000019694242
 20
255.0000007993558
  0
TEXT
  5
4AE
330
461
100
AcDbEntity
  8
0
100
AcDbText
 10
750.0000019694242
 20
240.0000007993558
 30
0.0
 40
10.0
  1
SOLID
100
AcDbText
  0
HATCH
  5
4AF
330
461
100
AcDbEntity
  8
0
100
AcDbHatch
 10
0.0
 20
0.0
 30
0.0
210
0.0
220
0.0
230
1.0
  2
SOLID
 70
     1
 71
     0
 91
        1
 92
        1
 93
        4
 72
     1
 10
720.0000019694242
 20
255.0000007993558
 11
820.0000019694241
 21
255.0000007993558
 72
     1
 10
820.0000019694241
 20
255.0000007993558
 11
820.0000019694241
 21
355.0000007993558
 72
     1
 10
820.0000019694241
 20
355.0000007993558
 11
720.0000019694242
 21
355.0000007993558
 72
     1
 10
720.0000019694242
 20
355.0000007993558
 11
720.0000019694242
 21
255.0000007993558
 97
        0
 75
     0
 76
     1
 98
        1
 10
720.0000019694242
 20
255.0000007993558
  0
TEXT
  5
4B0
330
461
100
AcDbEntity
  8
0
100
AcDbText
 10
870.0000019694241
 20
240.0000007993558
 30
0.0
 40
10.0
  1
SOLID
100
AcDbText
  0
HATCH
  5
4B1
330
461
100
AcDbEntity
  8
0
100
AcDbHatch
 10
0.0
 20
0.0
 30
0.0
210
0.0
220
0.0
230
1.0
  2
SOLID
 70
     1
 71
     0
 91
        1
 92
        1
 93
        4
 72
     1
 10
840.0000019694243
 20
255.0000007993558
 11
940.0000019694244
 21
255.0000007993558
 72
     1
 10
940.0000019694244
 20
255.0000007993558
 11
940.0000019694244
 21
355.0000007993558
 72
     1
 10
940.0000019694244
 20
355.0000007993558
 11
840.0000019694243
 21
355.0000007993558
 72
     1
 10
840.0000019694243
 20
355.0000007993558
 11
840.0000019694243
 21
255.0000007993558
 97
        0
 75
     0
 76
     1
 98
        1
 10
840.0000019694243
 20
255.0000007993558
  0
TEXT
  5
4B2
330
461
100
AcDbEntity
  8
0
100
AcDbText
 10
510.0000019694244
 20
120.0000007993558
 30
0.0
 40
10.0
  1
SOLID
100
AcDbText
  0
HATCH
  5
4B3
330
461
100
AcDbEntity
  8
0
100
AcDbHatch
 10
0.0
 20
0.0
 30
0.0
210
0.0
220
0.0
230
1.0
  2
SOLID
 70
     1
 71
     0
 91
        1
 92
        1
 93
        4
 72
     1
 10
480.0000019694244
 20
135.0000007993558
 11
580.0000019694244
 21
135.0000007993558
 72
     1
 10
580.0000019694244
 20
135.0000007993558
 11
580.0000019694244
 21
235.0000007993558
 72
     1
 10
580.0000019694244
 20
235.0000007993558
 11
480.0000019694244
 21
235.0000007993558
 72
     1
 10
480.0000019694244
 20
235.0000007993558
 11
480.0000019694244
 21
135.0000007993558
 97
        0
 75
     0
 76
     1
 98
        1
 10
480.0000019694244
 20
135.0000007993558
  0
TEXT
  5
4B4
330
461
100
AcDbEntity
  8
0
100
AcDbText
 10
630.0000019694244
 20
120.0000007993558
 30
0.0
 40
10.0
  1
SOLID
100
AcDbText
  0
HATCH
  5
4B5
330
461
100
AcDbEntity
  8
0
100
AcDbHatch
 10
0.0
 20
0.0
 30
0.0
210
0.0
220
0.0
230
1.0
  2
SOLID
 70
     1
 71
     0
 91
        1
 92
        1
 93
        4
 72
     1
 10
600.0000019694242
 20
135.0000007993558
 11
700.0000019694242
 21
135.0000007993558
 72
     1
 10
700.0000019694242
 20
135.0000007993558
 11
700.0000019694242
 21
235.0000007993558
 72
     1
 10
700.0000019694242
 20
235.0000007993558
 11
600.0000019694242
 21
235.0000007993558
 72
     1
 10
600.0000019694242
 20
235.0000007993558
 11
600.0000019694242
 21
135.0000007993558
 97
        0
 75
     0
 76
     1
 98
        1
 10
600.0000019694242
 20
135.0000007993558
  0
TEXT
  5
4B6
330
461
100
AcDbEntity
  8
0
100
AcDbText
 10
750.0000019694242
 20
120.0000007993558
 30
0.0
 40
10.0
  1
SOLID
100
AcDbText
  0
HATCH
  5
4B7
330
461
100
AcDbEntity
  8
0
100
AcDbHatch
 10
0.0
 20
0.0
 30
0.0
210
0.0
220
0.0
230
1.0
  2
SOLID
 70
     1
 71
     0
 91
        1
 92
        1
 93
        4
 72
     1
 10
720.0000019694242
 20
135.0000007993558
 11
820.0000019694241
 21
135.0000007993558
 72
     1
 10
820.0000019694241
 20
135.0000007993558
 11
820.0000019694241
 21
235.0000007993558
 72
     1
 10
820.0000019694241
 20
235.0000007993558
 11
720.0000019694242
 21
235.0000007993558
 72
     1
 10
720.0000019694242
 20
235.0000007993558
 11
720.0000019694242
 21
135.0000007993558
 97
        0
 75
     0
 76
     1
 98
        1
 10
720.0000019694242
 20
135.0000007993558
  0
TEXT
  5
4B8
330
461
100
AcDbEntity
  8
0
100
AcDbText
 10
870.0000019694241
 20
120.0000007993558
 30
0.0
 40
10.0
  1
SOLID
100
AcDbText
  0
HATCH
  5
4B9
330
461
100
AcDbEntity
  8
0
100
AcDbHatch
 10
0.0
 20
0.0
 30
0.0
210
0.0
220
0.0
230
1.0
  2
SOLID
 70
     1
 71
     0
 91
        1
 92
        1
 93
        4
 72
     1
 10
840.0000019694243
 20
135.0000007993558
 11
940.0000019694244
 21
135.0000007993558
 72
     1
 10
940.0000019694244
 20
135.0000007993558
 11
940.0000019694244
 21
235.0000007993558
 72
     1
 10
940.0000019694244
 20
235.0000007993558
 11
840.0000019694243
 21
235.0000007993558
 72
     1
 10
840.0000019694243
 20
235.0000007993558
 11
840.0000019694243
 21
135.0000007993558
 97
        0
 75
     0
 76
     1
 98
        1
 10
840.0000019694243
 20
135.0000007993558
  0
TEXT
  5
4BA
330
461
100
AcDbEntity
  8
0
100
AcDbText
 10
510.0000019694244
 20
0.0000007993558029
 30
0.0
 40
10.0
  1
SOLID
100
AcDbText
  0
HATCH
  5
4BB
330
461
100
AcDbEntity
  8
0
100
AcDbHatch
 10
0.0
 20
0.0
 30
0.0
210
0.0
220
0.0
230
1.0
  2
SOLID
 70
     1
 71
     0
 91
        1
 92
        1
 93
        4
 72
     1
 10
480.0000019694244
 20
15.0000007993558
 11
580.0000019694244
 21
15.0000007993558
 72
     1
 10
580.0000019694244
 20
15.0000007993558
 11
580.0000019694244
 21
115.0000007993558
 72
     1
 10
580.0000019694244
 20
115.0000007993558
 11
480.0000019694244
 21
115.0000007993558
 72
     1
 10
480.0000019694244
 20
115.0000007993558
 11
480.0000019694244
 21
15.0000007993558
 97
        0
 75
     0
 76
     1
 98
        1
 10
480.0000019694244
 20
15.0000007993558
  0
TEXT
  5
4BC
330
461
100
AcDbEntity
  8
0
100
AcDbText
 10
630.0000019694244
 20
0.0000007993558029
 30
0.0
 40
10.0
  1
SOLID
100
AcDbText
  0
HATCH
  5
4BD
330
461
100
AcDbEntity
  8
0
100
AcDbHatch
 10
0.0
 20
0.0
 30
0.0
210
0.0
220
0.0
230
1.0
  2
SOLID
 70
     1
 71
     0
 91
        1
 92
        1
 93
        4
 72
     1
 10
600.0000019694242
 20
15.0000007993558
 11
700.0000019694242
 21
15.0000007993558
 72
     1
 10
700.0000019694242
 20
15.0000007993558
 11
700.0000019694242
 21
115.0000007993558
 72
     1
 10
700.0000019694242
 20
115.0000007993558
 11
600.0000019694242
 21
115.0000007993558
 72
     1
 10
600.0000019694242
 20
115.0000007993558
 11
600.0000019694242
 21
15.0000007993558
 97
        0
 75
     0
 76
     1
 98
        1
 10
600.0000019694242
 20
15.0000007993558
  0
TEXT
  5
4BE
330
461
100
AcDbEntity
  8
0
100
AcDbText
 10
750.0000019694242
 20
0.0000007993558029
 30
0.0
 40
10.0
  1
SOLID
100
AcDbText
  0
HATCH
  5
4BF
330
461
100
AcDbEntity
  8
0
100
AcDbHatch
 10
0.0
 20
0.0
 30
0.0
210
0.0
220
0.0
230
1.0
  2
SOLID
 70
     1
 71
     0
 91
        1
 92
        1
 93
        4
 72
     1
 10
720.0000019694242
 20
15.0000007993558
 11
820.0000019694241
 21
15.0000007993558
 72
     1
 10
820.0000019694241
 20
15.0000007993558
 11
820.0000019694241
 21
115.0000007993558
 72
     1
 10
820.0000019694241
 20
115.0000007993558
 11
720.0000019694242
 21
115.0000007993558
 72
     1
 10
720.0000019694242
 20
115.0000007993558
 11
720.0000019694242
 21
15.0000007993558
 97
        0
 75
     0
 76
     1
 98
        1
 10
720.0000019694242
 20
15.0000007993558
  0
TEXT
  5
4C0
330
461
100
AcDbEntity
  8
0
100
AcDbText
 10
870.0000019694241
 20
0.0000007993558029
 30
0.0
 40
10.0
  1
SOLID
100
AcDbText
  0
HATCH
  5
4C1
330
461
100
AcDbEntity
  8
0
100
AcDbHatch
 10
0.0
 20
0.0
 30
0.0
210
0.0
220
0.0
230
1.0
  2
SOLID
 70
     1
 71
     0
 91
        1
 92
        1
 93
        4
 72
     1
 10
840.0000019694243
 20
15.0000007993558
 11
940.0000019694244
 21
15.0000007993558
 72
     1
 10
940.0000019694244
 20
15.0000007993558
 11
940.0000019694244
 21
115.0000007993558
 72
     1
 10
940.0000019694244
 20
115.0000007993558
 11
840.0000019694243
 21
115.0000007993558
 72
     1
 10
840.0000019694243
 20
115.0000007993558
 11
840.0000019694243
 21
15.0000007993558
 97
        0
 75
     0
 76
     1
 98
        1
 10
840.0000019694243
 20
15.0000007993558
  0
ENDBLK
  5
4C5
330
461
100
AcDbEntity
  8
0
100
AcDbBlockEnd
  0
ENDSEC
  0
SECTION
  2
ENTITIES
  0
TEXT
  5
361
330
1F
100
AcDbEntity
  8
0
100
AcDbText
 10
146.279951122764
 20
145.3920767772679
 30
0.0
 40
10.0
  1
ANSI31
100
AcDbText
  0
HATCH
  5
362
330
1F
100
AcDbEntity
  8
0
100
AcDbHatch
 10
0.0
 20
0.0
 30
0.0
210
0.0
220
0.0
230
1.0
  2
ANSI31
 70
     0
 71
     0
 91
        1
 92
        1
 93
        4
 72
     1
 10
119.1464162645498
 20
164.9827978810258
 11
219.1464162645498
 21
164.9827978810258
 72
     1
 10
219.1464162645498
 20
164.9827978810258
 11
219.1464162645498
 21
264.9827978810258
 72
     1
 10
219.1464162645498
 20
264.9827978810258
 11
119.1464162645498
 21
264.9827978810258
 72
     1
 10
119.1464162645498
 20
264.9827978810258
 11
119.1464162645498
 21
164.9827978810258
 97
        0
 75
     0
 76
     1
 52
0.0
 41
2.0
 77
     0
 78
     1
 53
45.0
 43
0.0
 44
0.0
 45
-4.490128060534575
 46
4.490128060534575
 79
     0
 98
        1
 10
119.1464162645498
 20
164.9827978810258
  0
TEXT
  5
363
330
1F
100
AcDbEntity
  8
0
100
AcDbText
 10
23.68834312415998
 20
0.1083936141862978
 30
0.0
 40
10.0
  1
ANSI32
100
AcDbText
  0
HATCH
  5
364
330
1F
100
AcDbEntity
  8
0
100
AcDbHatch
 10
0.0
 20
0.0
 30
0.0
210
0.0
220
0.0
230
1.0
  2
ANSI32
 70
     0
 71
     0
 91
        1
 92
        1
 93
        4
 72
     1
 10
-1.584222288982346
 20
15.1083936141863
 11
98.41577771101764
 21
15.1083936141863
 72
     1
 10
98.41577771101764
 20
15.1083936141863
 11
98.41577771101764
 21
115.1083936141863
 72
     1
 10
98.41577771101764
 20
115.1083936141863
 11
-1.584222288982346
 21
115.1083936141863
 72
     1
 10
-1.584222288982346
 20
115.1083936141863
 11
-1.584222288982346
 21
15.1083936141863
 97
        0
 75
     0
 76
     1
 52
0.0
 41
2.0
 77
     0
 78
     2
 53
45.0
 43
0.0
 44
0.0
 45
-13.47038418160373
 46
13.47038418160373
 79
     0
 53
45.0
 43
8.980260000000003
 44
0.0
 45
-13.47038418160373
 46
13.47038418160373
 79
     0
 98
        1
 10
-1.584222288982346
 20
15.1083936141863
  0
TEXT
  5
365
330
1F
100
AcDbEntity
  8
0
100
AcDbText
 10
148.4157777110176
 20
0.1083936141862978
 30
0.0
 40
10.0
  1
ANSI33
100
AcDbText
  0
HATCH
  5
366
330
1F
100
AcDbEntity
  8
0
100
AcDbHatch
 10
0.0
 20
0.0
 30
0.0
210
0.0
220
0.0
230
1.0
  2
ANSI33
 70
     0
 71
     0
 91
        1
 92
        1
 93
        4
 72
     1
 10
118.4157777110176
 20
15.1083936141863
 11
218.4157777110177
 21
15.1083936141863
 72
     1
 10
218.4157777110177
 20
15.1083936141863
 11
218.4157777110177
 21
115.1083936141863
 72
     1
 10
218.4157777110177
 20
115.1083936141863
 11
118.4157777110176
 21
115.1083936141863
 72
     1
 10
118.4157777110176
 20
115.1083936141863
 11
118.4157777110176
 21
15.1083936141863
 97
        0
 75
     0
 76
     1
 52
0.0
 41
2.0
 77
     0
 78
     2
 53
45.0
 43
0.0
 44
0.0
 45
-8.98025612106915
 46
8.98025612106915
 79
     0
 53
45.0
 43
8.980260000000003
 44
0.0
 45
-8.98025612106915
 46
8.98025612106915
 79
     2
 49
6.349999999999997
 49
-3.174999999999998
 98
        1
 10
118.4157777110176
 20
15.1083936141863
  0
TEXT
  5
367
330
1F
100
AcDbEntity
  8
0
100
AcDbText
 10
268.4157777110177
 20
0.1083936141862978
 30
0.0
 40
10.0
  1
ANSI34
100
AcDbText
  0
HATCH
  5
368
330
1F
100
AcDbEntity
  8
0
100
AcDbHatch
 10
0.0
 20
0.0
 30
0.0
210
0.0
220
0.0
230
1.0
  2
ANSI34
 70
     0
 71
     0
 91
        1
 92
        1
 93
        4
 72
     1
 10
238.4157777110177
 20
15.1083936141863
 11
338.4157777110177
 21
15.1083936141863
 72
     1
 10
338.4157777110177
 20
15.1083936141863
 11
338.4157777110177
 21
115.1083936141863
 72
     1
 10
338.4157777110177
 20
115.1083936141863
 11
238.4157777110177
 21
115.1083936141863
 72
     1
 10
238.4157777110177
 20
115.1083936141863
 11
238.4157777110177
 21
15.1083936141863
 97
        0
 75
     0
 76
     1
 52
0.0
 41
2.0
 77
     0
 78
     4
 53
45.0
 43
0.0
 44
0.0
 45
-26.94076836320746
 46
26.94076836320747
 79
     0
 53
45.0
 43
8.980260000000003
 44
0.0
 45
-26.94076836320746
 46
26.94076836320747
 79
     0
 53
45.0
 43
17.96052
 44
0.0
 45
-26.94076836320746
 46
26.94076836320747
 79
     0
 53
45.0
 43
26.9408
 44
0.0
 45
-26.94076836320746
 46
26.94076836320747
 79
     0
 98
        1
 10
238.4157777110177
 20
15.1083936141863
  0
TEXT
  5
369
330
1F
100
AcDbEntity
  8
0
100
AcDbText
 10
-1.690827275580885
 20
-269.9319535511695
 30
0.0
 40
8.0
  1
ACAD_ISO02W100
100
AcDbText
  0
HATCH
  5
36A
330
1F
100
AcDbEntity
  8
0
100
AcDbHatch
 10
0.0
 20
0.0
 30
0.0
210
0.0
220
0.0
230
1.0
  2
ACAD_ISO02W100
 70
     0
 71
     0
 91
        1
 92
        1
 93
        4
 72
     1
 10
-1.708589923255203
 20
-257.2307756072323
 11
98.29141007674481
 21
-257.2307756072323
 72
     1
 10
98.29141007674481
 20
-257.2307756072323
 11
98.29141007674481
 21
-157.2307756072323
 72
     1
 10
98.29141007674481
 20
-157.2307756072323
 11
-1.708589923255203
 21
-157.2307756072323
 72
     1
 10
-1.708589923255203
 20
-157.2307756072323
 11
-1.708589923255203
 21
-257.2307756072323
 97
        0
 75
     0
 76
     1
 52
0.0
 41
2.0
 77
     0
 78
     1
 53
0.0
 43
0.0
 44
0.0
 45
0.0
 46
10.0
 79
     2
 49
24.0
 49
-6.0
 98
        1
 10
-1.708589923255203
 20
-257.2307756072323
  0
TEXT
  5
36B
330
1F
100
AcDbEntity
  8
0
100
AcDbText
 10
116.8292254465314
 20
-270.2556143341735
 30
0.0
 40
8.0
  1
ACAD_ISO03W100
100
AcDbText
  0
HATCH
  5
36C
330
1F
100
AcDbEntity
  8
0
100
AcDbHatch
 10
0.0
 20
0.0
 30
0.0
210
0.0
220
0.0
230
1.0
  2
ACAD_ISO03W100
 70
     0
 71
     0
 91
        1
 92
        1
 93
        4
 72
     1
 10
118.2914100767448
 20
-257.2307756072323
 11
218.2914100767448
 21
-257.2307756072323
 72
     1
 10
218.2914100767448
 20
-257.2307756072323
 11
218.2914100767448
 21
-157.2307756072323
 72
     1
 10
218.2914100767448
 20
-157.2307756072323
 11
118.2914100767448
 21
-157.2307756072323
 72
     1
 10
118.2914100767448
 20
-157.2307756072323
 11
118.2914100767448
 21
-257.2307756072323
 97
        0
 75
     0
 76
     1
 52
0.0
 41
1.3
 77
     0
 78
     1
 53
0.0
 43
0.0
 44
0.0
 45
0.0
 46
6.5
 79
     2
 49
15.6
 49
-23.4
 98
        1
 10
118.2914100767448
 20
-257.2307756072323
  0
TEXT
  5
36D
330
1F
100
AcDbEntity
  8
0
100
AcDbText
 10
237.7897551812339
 20
-270.2556143341735
 30
0.0
 40
8.0
  1
ACAD_ISO04W100
100
AcDbText
  0
HATCH
  5
36E
330
1F
100
AcDbEntity
  8
0
100
AcDbHatch
 10
0.0
 20
0.0
 30
0.0
210
0.0
220
0.0
230
1.0
  2
ACAD_ISO04W100
 70
     0
 71
     0
 91
        1
 92
        1
 93
        4
 72
     1
 10
238.2914100767448
 20
-257.2307756072323
 11
338.2914100767448
 21
-257.2307756072323
 72
     1
 10
338.2914100767448
 20
-257.2307756072323
 11
338.2914100767448
 21
-157.2307756072323
 72
     1
 10
338.2914100767448
 20
-157.2307756072323
 11
238.2914100767448
 21
-157.2307756072323
 72
     1
 10
238.2914100767448
 20
-157.2307756072323
 11
238.2914100767448
 21
-257.2307756072323
 97
        0
 75
     0
 76
     1
 52
0.0
 41
2.0
 77
     0
 78
     1
 53
0.0
 43
0.0
 44
0.0
 45
0.0
 46
10.0
 79
     4
 49
48.0
 49
-6.0
 49
1.0
 49
-6.0
 98
        1
 10
238.2914100767448
 20
-257.2307756072323
  0
TEXT
  5
36F
330
1F
100
AcDbEntity
  8
0
100
AcDbText
 10
355.4633097499973
 20
-271.5701547420895
 30
0.0
 40
8.0
  1
ACAD_ISO05W100
100
AcDbText
  0
HATCH
  5
370
330
1F
100
AcDbEntity
  8
0
100
AcDbHatch
 10
0.0
 20
0.0
 30
0.0
210
0.0
220
0.0
230
1.0
  2
ACAD_ISO05W100
 70
     0
 71
     0
 91
        1
 92
        1
 93
        4
 72
     1
 10
358.2914100767449
 20
-257.2307756072323
 11
458.2914100767448
 21
-257.2307756072323
 72
     1
 10
458.2914100767448
 20
-257.2307756072323
 11
458.2914100767448
 21
-157.2307756072323
 72
     1
 10
458.2914100767448
 20
-157.2307756072323
 11
358.2914100767449
 21
-157.2307756072323
 72
     1
 10
358.2914100767449
 20
-157.2307756072323
 11
358.2914100767449
 21
-257.2307756072323
 97
        0
 75
     0
 76
     1
 52
0.0
 41
2.0
 77
     0
 78
     1
 53
0.0
 43
0.0
 44
0.0
 45
0.0
 46
10.0
 79
     6
 49
48.0
 49
-6.0
 49
1.0
 49
-6.0
 49
1.0
 49
-6.0
 98
        1
 10
358.2914100767449
 20
-257.2307756072323
  0
TEXT
  5
371
330
1F
100
AcDbEntity
  8
0
100
AcDbText
 10
-2.781551519752154
 20
-386.9198161430844
 30
0.0
 40
8.0
  1
ACAD_ISO10W100
100
AcDbText
  0
HATCH
  5
372
330
1F
100
AcDbEntity
  8
0
100
AcDbHatch
 10
0.0
 20
0.0
 30
0.0
210
0.0
220
0.0
230
1.0
  2
ACAD_ISO10W100
 70
     0
 71
     0
 91
        1
 92
        1
 93
        4
 72
     1
 10
-1.708589923255203
 20
-377.2307756072323
 11
98.29141007674481
 21
-377.2307756072323
 72
     1
 10
98.29141007674481
 20
-377.2307756072323
 11
98.29141007674481
 21
-277.2307756072323
 72
     1
 10
98.29141007674481
 20
-277.2307756072323
 11
-1.708589923255203
 21
-277.2307756072323
 72
     1
 10
-1.708589923255203
 20
-277.2307756072323
 11
-1.708589923255203
 21
-377.2307756072323
 97
        0
 75
     0
 76
     1
 52
0.0
 41
2.0
 77
     0
 78
     1
 53
0.0
 43
0.0
 44
0.0
 45
0.0
 46
10.0
 79
     4
 49
24.0
 49
-6.0
 49
1.0
 49
-6.0
 98
        1
 10
-1.708589923255203
 20
-377.2307756072323
  0
TEXT
  5
373
330
1F
100
AcDbEntity
  8
0
100
AcDbText
 10
121.8553885467963
 20
-387.7072267417379
 30
0.0
 40
8.0
  1
ACAD_ISO11W100
100
AcDbText
  0
HATCH
  5
374
330
1F
100
AcDbEntity
  8
0
100
AcDbHatch
 10
0.0
 20
0.0
 30
0.0
210
0.0
220
0.0
230
1.0
  2
ACAD_ISO11W100
 70
     0
 71
     0
 91
        1
 92
        1
 93
        4
 72
     1
 10
118.2914100767448
 20
-377.2307756072323
 11
218.2914100767448
 21
-377.2307756072323
 72
     1
 10
218.2914100767448
 20
-377.2307756072323
 11
218.2914100767448
 21
-277.2307756072323
 72
     1
 10
218.2914100767448
 20
-277.2307756072323
 11
118.2914100767448
 21
-277.2307756072323
 72
     1
 10
118.2914100767448
 20
-277.2307756072323
 11
118.2914100767448
 21
-377.2307756072323
 97
        0
 75
     0
 76
     1
 52
0.0
 41
2.0
 77
     0
 78
     1
 53
0.0
 43
0.0
 44
0.0
 45
0.0
 46
10.0
 79
     6
 49
24.0
 49
-6.0
 49
24.0
 49
-6.0
 49
1.0
 49
-6.0
 98
        1
 10
118.2914100767448
 20
-377.2307756072323
  0
TEXT
  5
375
330
1F
100
AcDbEntity
  8
0
100
AcDbText
 10
239.3474629418461
 20
-386.4758522807838
 30
0.0
 40
8.0
  1
ACAD_ISO12W100
100
AcDbText
  0
HATCH
  5
376
330
1F
100
AcDbEntity
  8
0
100
AcDbHatch
 10
0.0
 20
0.0
 30
0.0
210
0.0
220
0.0
230
1.0
  2
ACAD_ISO12W100
 70
     0
 71
     0
 91
        1
 92
        1
 93
        4
 72
     1
 10
238.2914100767448
 20
-377.2307756072323
 11
338.2914100767448
 21
-377.2307756072323
 72
     1
 10
338.2914100767448
 20
-377.2307756072323
 11
338.2914100767448
 21
-277.2307756072323
 72
     1
 10
338.2914100767448
 20
-277.2307756072323
 11
238.2914100767448
 21
-277.2307756072323
 72
     1
 10
238.2914100767448
 20
-277.2307756072323
 11
238.2914100767448
 21
-377.2307756072323
 97
        0
 75
     0
 76
     1
 52
0.0
 41
2.0
 77
     0
 78
     1
 53
0.0
 43
0.0
 44
0.0
 45
0.0
 46
10.0
 79
     6
 49
24.0
 49
-6.0
 49
1.0
 49
-6.0
 49
1.0
 49
-6.0
 98
        1
 10
238.2914100767448
 20
-377.2307756072323
  0
TEXT
  5
377
330
1F
100
AcDbEntity
  8
0
100
AcDbText
 10
359.1350255794937
 20
-386.4758522807838
 30
0.0
 40
8.0
  1
ACAD_ISO13W100
100
AcDbText
  0
HATCH
  5
378
330
1F
100
AcDbEntity
  8
0
100
AcDbHatch
 10
0.0
 20
0.0
 30
0.0
210
0.0
220
0.0
230
1.0
  2
ACAD_ISO13W100
 70
     0
 71
     0
 91
        1
 92
        1
 93
        4
 72
     1
 10
358.2914100767449
 20
-377.2307756072323
 11
458.2914100767448
 21
-377.2307756072323
 72
     1
 10
458.2914100767448
 20
-377.2307756072323
 11
458.2914100767448
 21
-277.2307756072323
 72
     1
 10
458.2914100767448
 20
-277.2307756072323
 11
358.2914100767449
 21
-277.2307756072323
 72
     1
 10
358.2914100767449
 20
-277.2307756072323
 11
358.2914100767449
 21
-377.2307756072323
 97
        0
 75
     0
 76
     1
 52
0.0
 41
2.0
 77
     0
 78
     2
 53
0.0
 43
0.0
 44
0.0
 45
0.0
 46
10.0
 79
     6
 49
24.0
 49
-6.0
 49
24.0
 49
-6.0
 49
1.0
 49
-13.0
 53
0.0
 43
0.0
 44
0.0
 45
0.0
 46
10.0
 79
     3
 49
-67.0
 49
1.0
 49
-6.0
 98
        1
 10
358.2914100767449
 20
-377.2307756072323
  0
TEXT
  5
379
330
1F
100
AcDbEntity
  8
0
100
AcDbText
 10
22.94197789648115
 20
145.9989813825627
 30
0.0
 40
10.0
  1
SOLID
100
AcDbText
  0
HATCH
  5
37A
330
1F
100
AcDbEntity
  8
0
100
AcDbHatch
 10
0.0
 20
0.0
 30
0.0
210
0.0
220
0.0
230
1.0
  2
SOLID
 70
     1
 71
     0
 91
        1
 92
        1
 93
        4
 72
     1
 10
-1.144869252769692
 20
165.5812239877399
 11
98.8551307472303
 21
165.5812239877399
 72
     1
 10
98.8551307472303
 20
165.5812239877399
 11
98.8551307472303
 21
265.5812239877401
 72
     1
 10
98.8551307472303
 20
265.58122398774
 11
-1.144869252769694
 21
265.58122398774
 72
     1
 10
-1.144869252769692
 20
265.58122398774
 11
-1.144869252769692
 21
165.5812239877399
 97
        0
 75
     0
 76
     1
 98
        1
 10
-1.144869252769692
 20
165.5812239877399
  0
TEXT
  5
37B
330
1F
100
AcDbEntity
  8
0
100
AcDbText
 10
25.18968291611964
 20
-764.9073381631601
 30
0.0
 40
10.0
  1
ANGLE
100
AcDbText
  0
HATCH
  5
37C
330
1F
100
AcDbEntity
  8
0
100
AcDbHatch
 10
0.0
 20
0.0
 30
0.0
210
0.0
220
0.0
230
1.0
  2
ANGLE
 70
     0
 71
     0
 91
        1
 92
        1
 93
        4
 72
     1
 10
-0.5579159117528576
 20
-748.4221842037127
 11
99.44208408824721
 21
-748.4221842037127
 72
     1
 10
99.44208408824721
 20
-748.4221842037127
 11
99.44208408824721
 21
-648.4221842037125
 72
     1
 10
99.44208408824721
 20
-648.4221842037127
 11
-0.5579159117528576
 21
-648.4221842037127
 72
     1
 10
-0.5579159117528576
 20
-648.4221842037127
 11
-0.5579159117528576
 21
-748.4221842037129
 97
        0
 75
     0
 76
     1
 52
0.0
 41
2.0
 77
     0
 78
     2
 53
0.0
 43
0.0
 44
0.0
 45
0.0
 46
13.97
 79
     2
 49
10.16
 49
-3.81
 53
90.0
 43
0.0
 44
0.0
 45
-13.97
 46
0.0000000000000009
 79
     2
 49
10.16
 49
-3.81
 98
        1
 10
-0.5579159117528576
 20
-748.4221842037127
  0
TEXT
  5
37D
330
1F
100
AcDbEntity
  8
0
100
AcDbText
 10
258.6027057747301
 20
-768.8416101717231
 30
0.0
 40
10.0
  1
AR-B816
100
AcDbText
  0
HATCH
  5
37E
330
1F
100
AcDbEntity
  8
0
100
AcDbHatch
 10
0.0
 20
0.0
 30
0.0
210
0.0
220
0.0
230
1.0
  2
AR-B816
 70
     0
 71
     0
 91
        1
 92
        1
 93
        4
 72
     1
 10
236.133516408318
 20
-752.9004333223284
 11
336.133516408318
 21
-752.9004333223284
 72
     1
 10
336.133516408318
 20
-752.9004333223284
 11
336.133516408318
 21
-652.9004333223284
 72
     1
 10
336.133516408318
 20
-652.9004333223284
 11
236.133516408318
 21
-652.9004333223284
 72
     1
 10
236.133516408318
 20
-652.9004333223284
 11
236.133516408318
 21
-752.9004333223284
 97
        0
 75
     0
 76
     1
 52
0.0
 41
0.1
 77
     0
 78
     2
 53
0.0
 43
-3.866483591682026
 44
-392.9004333223284
 45
0.0
 46
20.32
 79
     0
 53
90.0
 43
-3.866483591682026
 44
-392.9004333223284
 45
-20.32
 46
20.32
 79
     2
 49
20.32
 49
-20.32
 98
        1
 10
236.133516408318
 20
-752.9004333223284
  0
TEXT
  5
37F
330
1F
100
AcDbEntity
  8
0
100
AcDbText
 10
371.0718951411418
 20
-767.9004333223282
 30
0.0
 40
10.0
  1
AR-B816C
100
AcDbText
  0
HATCH
  5
380
330
1F
100
AcDbEntity
  8
0
100
AcDbHatch
 10
0.0
 20
0.0
 30
0.0
210
0.0
220
0.0
230
1.0
  2
AR-B816C
 70
     0
 71
     0
 91
        1
 92
        1
 93
        4
 72
     1
 10
356.133516408318
 20
-752.9004333223284
 11
456.1335164083177
 21
-752.9004333223284
 72
     1
 10
456.1335164083177
 20
-752.9004333223284
 11
456.1335164083177
 21
-652.9004333223284
 72
     1
 10
456.1335164083177
 20
-652.9004333223284
 11
356.133516408318
 21
-652.9004333223284
 72
     1
 10
356.133516408318
 20
-652.9004333223284
 11
356.133516408318
 21
-752.9004333223284
 97
        0
 75
     0
 76
     1
 52
0.0
 41
0.1
 77
     0
 78
     4
 53
0.0
 43
-3.866483591682026
 44
-392.9004333223284
 45
20.32
 46
20.32
 79
     2
 49
39.6875
 49
-0.9525000000000002
 53
0.0
 43
-24.18648359168202
 44
-391.9479333223283
 45
20.32
 46
20.32
 79
     2
 49
39.6875
 49
-0.9525000000000002
 53
90.0
 43
-3.866483591682026
 44
-392.9004333223284
 45
-20.32
 46
20.32
 79
     2
 49
-21.2725
 49
19.3675
 53
90.0
 43
-4.818983591682025
 44
-392.9004333223284
 45
-20.32
 46
20.32
 79
     2
 49
-21.2725
 49
19.3675
 98
        1
 10
356.133516408318
 20
-752.9004333223284
  0
TEXT
  5
381
330
1F
100
AcDbEntity
  8
0
100
AcDbText
 10
7.085836701830884
 20
-888.3758112625788
 30
0.0
 40
10.0
  1
AR-HBONE
100
AcDbText
  0
HATCH
  5
382
330
1F
100
AcDbEntity
  8
0
100
AcDbHatch
 10
0.0
 20
0.0
 30
0.0
210
0.0
220
0.0
230
1.0
  2
AR-HBONE
 70
     0
 71
     0
 91
        1
 92
        1
 93
        4
 72
     1
 10
-3.866483591682026
 20
-872.9004333223283
 11
96.13351640831801
 21
-872.9004333223283
 72
     1
 10
96.13351640831801
 20
-872.9004333223283
 11
96.13351640831801
 21
-772.9004333223282
 72
     1
 10
96.13351640831801
 20
-772.9004333223282
 11
-3.866483591682026
 21
-772.9004333223282
 72
     1
 10
-3.866483591682026
 20
-772.9004333223282
 11
-3.866483591682026
 21
-872.9004333223283
 97
        0
 75
     0
 76
     1
 52
0.0
 41
0.2
 77
     0
 78
     2
 53
45.0
 43
-3.866483591682026
 44
-392.9004333223284
 45
0.0000000000000028
 46
28.7368195874213
 79
     2
 49
60.96
 49
-20.32
 53
135.0
 43
10.50191640831797
 44
-378.5320333223284
 45
0.0000000000000028
 46
28.7368195874213
 79
     2
 49
60.96
 49
-20.32
 98
        1
 10
-3.866483591682026
 20
-872.9004333223283
  0
TEXT
  5
383
330
1F
100
AcDbEntity
  8
0
100
AcDbText
 10
128.6329389520684
 20
-888.7909867168886
 30
0.0
 40
10.0
  1
AR-PARQ1
100
AcDbText
  0
HATCH
  5
384
330
1F
100
AcDbEntity
  8
0
100
AcDbHatch
 10
0.0
 20
0.0
 30
0.0
210
0.0
220
0.0
230
1.0
  2
AR-PARQ1
 70
     0
 71
     0
 91
        1
 92
        1
 93
        4
 72
     1
 10
116.1335164083179
 20
-872.9004333223283
 11
216.133516408318
 21
-872.9004333223283
 72
     1
 10
216.133516408318
 20
-872.9004333223283
 11
216.133516408318
 21
-772.9004333223282
 72
     1
 10
216.133516408318
 20
-772.9004333223282
 11
116.1335164083179
 21
-772.9004333223282
 72
     1
 10
116.1335164083179
 20
-772.9004333223282
 11
116.1335164083179
 21
-872.9004333223283
 97
        0
 75
     0
 76
     1
 52
0.0
 41
0.1
 77
     0
 78
    14
 53
90.0
 43
-3.866483591682026
 44
-392.9004333223284
 45
-30.48
 46
30.48
 79
     2
 49
30.48
 49
-30.48
 53
90.0
 43
1.213516408317971
 44
-392.9004333223284
 45
-30.48
 46
30.48
 79
     2
 49
30.48
 49
-30.48
 53
90.0
 43
6.293516408317972
 44
-392.9004333223284
 45
-30.48
 46
30.48
 79
     2
 49
30.48
 49
-30.48
 53
90.0
 43
11.37351640831797
 44
-392.9004333223284
 45
-30.48
 46
30.48
 79
     2
 49
30.48
 49
-30.48
 53
90.0
 43
16.45351640831797
 44
-392.9004333223284
 45
-30.48
 46
30.48
 79
     2
 49
30.48
 49
-30.48
 53
90.0
 43
21.53351640831798
 44
-392.9004333223284
 45
-30.48
 46
30.48
 79
     2
 49
30.48
 49
-30.48
 53
90.0
 43
26.61351640831798
 44
-392.9004333223284
 45
-30.48
 46
30.48
 79
     2
 49
30.48
 49
-30.48
 53
0.0
 43
-3.866483591682026
 44
-362.4204333223283
 45
30.48
 46
-30.48
 79
     2
 49
30.48
 49
-30.48
 53
0.0
 43
-3.866483591682026
 44
-357.3404333223284
 45
30.48
 46
-30.48
 79
     2
 49
30.48
 49
-30.48
 53
0.0
 43
-3.866483591682026
 44
-352.2604333223283
 45
30.48
 46
-30.48
 79
     2
 49
30.48
 49
-30.48
 53
0.0
 43
-3.866483591682026
 44
-347.1804333223283
 45
30.48
 46
-30.48
 79
     2
 49
30.48
 49
-30.48
 53
0.0
 43
-3.866483591682026
 44
-342.1004333223284
 45
30.48
 46
-30.48
 79
     2
 49
30.48
 49
-30.48
 53
0.0
 43
-3.866483591682026
 44
-337.0204333223284
 45
30.48
 46
-30.48
 79
     2
 49
30.48
 49
-30.48
 53
0.0
 43
-3.866483591682026
 44
-331.9404333223283
 45
30.48
 46
-30.48
 79
     2
 49
30.48
 49
-30.48
 98
        1
 10
116.1335164083179
 20
-872.9004333223283
  0
TEXT
  5
385
330
1F
100
AcDbEntity
  8
0
100
AcDbText
 10
248.9202297782245
 20
-887.78896623404
 30
0.0
 40
10.0
  1
AR-RROOF
100
AcDbText
  0
HATCH
  5
386
330
1F
100
AcDbEntity
  8
0
100
AcDbHatch
 10
0.0
 20
0.0
 30
0.0
210
0.0
220
0.0
230
1.0
  2
AR-RROOF
 70
     0
 71
     0
 91
        1
 92
        1
 93
        4
 72
     1
 10
236.133516408318
 20
-872.9004333223283
 11
336.133516408318
 21
-872.9004333223283
 72
     1
 10
336.133516408318
 20
-872.9004333223283
 11
336.133516408318
 21
-772.9004333223282
 72
     1
 10
336.133516408318
 20
-772.9004333223282
 11
236.133516408318
 21
-772.9004333223282
 72
     1
 10
236.133516408318
 20
-772.9004333223282
 11
236.133516408318
 21
-872.9004333223283
 97
        0
 75
     0
 76
     1
 52
0.0
 41
1.0
 77
     0
 78
     3
 53
0.0
 43
-3.866483591682026
 44
-392.9004333223284
 45
55.88
 46
25.4
 79
     4
 49
381.0
 49
-50.8
 49
127.0
 49
-25.4
 53
0.0
 43
29.91551640831797
 44
-380.2004333223284
 45
-25.4
 46
33.782
 79
     4
 49
76.2
 49
-8.381999999999999
 49
152.4
 49
-19.05
 53
0.0
 43
8.833516408317965
 44
-371.3104333223283
 45
132.08
 46
17.018
 79
     4
 49
203.2
 49
-35.56
 49
101.6
 49
-25.4
 98
        1
 10
236.133516408318
 20
-872.9004333223283
  0
TEXT
  5
387
330
1F
100
AcDbEntity
  8
0
100
AcDbText
 10
368.2925904101022
 20
-887.3789301235056
 30
0.0
 40
10.0
  1
AR-RSHKE
100
AcDbText
  0
HATCH
  5
388
330
1F
100
AcDbEntity
  8
0
100
AcDbHatch
 10
0.0
 20
0.0
 30
0.0
210
0.0
220
0.0
230
1.0
  2
AR-RSHKE
 70
     0
 71
     0
 91
        1
 92
        1
 93
        4
 72
     1
 10
356.133516408318
 20
-872.9004333223283
 11
456.1335164083177
 21
-872.9004333223283
 72
     1
 10
456.1335164083177
 20
-872.9004333223283
 11
456.1335164083177
 21
-772.9004333223282
 72
     1
 10
456.1335164083177
 20
-772.9004333223282
 11
356.133516408318
 21
-772.9004333223282
 72
     1
 10
356.133516408318
 20
-772.9004333223282
 11
356.133516408318
 21
-872.9004333223283
 97
        0
 75
     0
 76
     1
 52
0.0
 41
0.1
 77
     0
 78
     9
 53
0.0
 43
-3.866483591682026
 44
-392.9004333223284
 45
64.77000000000001
 46
30.48
 79
     6
 49
15.24
 49
-12.7
 49
17.78
 49
-7.62
 49
22.86
 49
-10.16
 53
0.0
 43
11.37351640831797
 44
-391.6304333223283
 45
64.77000000000001
 46
30.48
 79
     4
 49
12.7
 49
-48.26
 49
10.16
 49
-15.24
 53
0.0
 43
41.85351640831796
 44
-394.8054333223283
 45
64.77000000000001
 46
30.48
 79
     2
 49
7.62
 49
-78.74000000000002
 53
90.0
 43
-3.866483591682026
 44
-392.9004333223284
 45
-21.59
 46
30.48
 79
     2
 49
29.21000000000001
 49
-92.70999999999999
 53
90.0
 43
11.37351640831797
 44
-392.9004333223284
 45
-21.59
 46
30.48
 79
     2
 49
28.575
 49
-93.34500000000002
 53
90.0
 43
24.07351640831798
 44
-392.9004333223284
 45
-21.59
 46
30.48
 79
     2
 49
26.67
 49
-95.25
 53
90.0
 43
41.85351640831796
 44
-394.8054333223283
 45
-21.59
 46
30.48
 79
     2
 49
29.21000000000001
 49
-92.70999999999999
 53
90.0
 43
49.47351640831797
 44
-394.8054333223283
 45
-21.59
 46
30.48
 79
     2
 49
29.21000000000001
 49
-92.70999999999999
 53
90.0
 43
72.33351640831799
 44
-392.9004333223284
 45
-21.59
 46
30.48
 79
     2
 49
27.94
 49
-93.98000000000001
 98
        1
 10
356.133516408318
 20
-872.9004333223283
  0
TEXT
  5
389
330
1F
100
AcDbEntity
  8
0
100
AcDbText
 10
8.822547458204553
 20
-1007.835549841606
 30
0.0
 40
10.0
  1
BRSTONE
100
AcDbText
  0
HATCH
  5
38A
330
1F
100
AcDbEntity
  8
0
100
AcDbHatch
 10
0.0
 20
0.0
 30
0.0
210
0.0
220
0.0
230
1.0
  2
BRSTONE
 70
     0
 71
     0
 91
        1
 92
        1
 93
        4
 72
     1
 10
-3.866483591682026
 20
-992.9004333223284
 11
96.13351640831801
 21
-992.9004333223284
 72
     1
 10
96.13351640831801
 20
-992.9004333223284
 11
96.13351640831801
 21
-892.9004333223284
 72
     1
 10
96.13351640831801
 20
-892.9004333223284
 11
-3.866483591682026
 21
-892.9004333223284
 72
     1
 10
-3.866483591682026
 20
-892.9004333223284
 11
-3.866483591682026
 21
-992.9004333223282
 97
        0
 75
     0
 76
     1
 52
0.0
 41
2.0
 77
     0
 78
     8
 53
0.0
 43
0.0
 44
0.0
 45
0.0
 46
16.764
 79
     0
 53
90.0
 43
45.72
 44
0.0
 45
-25.4
 46
16.764
 79
     2
 49
16.764
 49
-16.764
 53
90.0
 43
40.64
 44
0.0
 45
-25.4
 46
16.764
 79
     2
 49
16.764
 49
-16.764
 53
0.0
 43
45.72
 44
2.793999999999998
 45
25.4
 46
16.764
 79
     2
 49
-45.72
 49
5.08
 53
0.0
 43
45.72
 44
5.587999999999999
 45
25.4
 46
16.764
 79
     2
 49
-45.72
 49
5.08
 53
0.0
 43
45.72
 44
8.381999999999999
 45
25.4
 46
16.764
 79
     2
 49
-45.72
 49
5.08
 53
0.0
 43
45.72
 44
11.176
 45
25.4
 46
16.764
 79
     2
 49
-45.72
 49
5.08
 53
0.0
 43
45.72
 44
13.97
 45
25.4
 46
16.764
 79
     2
 49
-45.72
 49
5.08
 98
        1
 10
-3.866483591682026
 20
-992.9004333223284
  0
TEXT
  5
38B
330
1F
100
AcDbEntity
  8
0
100
AcDbText
 10
146.1335164083179
 20
-1007.900433322328
 30
0.0
 40
10.0
  1
CLAY
100
AcDbText
  0
HATCH
  5
38C
330
1F
100
AcDbEntity
  8
0
100
AcDbHatch
 10
0.0
 20
0.0
 30
0.0
210
0.0
220
0.0
230
1.0
  2
CLAY
 70
     0
 71
     0
 91
        1
 92
        1
 93
        4
 72
     1
 10
116.1335164083179
 20
-992.9004333223284
 11
216.133516408318
 21
-992.9004333223284
 72
     1
 10
216.133516408318
 20
-992.9004333223284
 11
216.133516408318
 21
-892.9004333223284
 72
     1
 10
216.133516408318
 20
-892.9004333223284
 11
116.1335164083179
 21
-892.9004333223284
 72
     1
 10
116.1335164083179
 20
-892.9004333223284
 11
116.1335164083179
 21
-992.9004333223282
 97
        0
 75
     0
 76
     1
 52
0.0
 41
3.0
 77
     0
 78
     4
 53
0.0
 43
0.0
 44
0.0
 45
0.0
 46
14.2875
 79
     0
 53
0.0
 43
0.0
 44
2.381249999999999
 45
0.0
 46
14.2875
 79
     0
 53
0.0
 43
0.0
 44
4.762499999999998
 45
0.0
 46
14.2875
 79
     0
 53
0.0
 43
0.0
 44
9.524999999999996
 45
0.0
 46
14.2875
 79
     2
 49
14.2875
 49
-9.524999999999996
 98
        1
 10
116.1335164083179
 20
-992.9004333223284
  0
TEXT
  5
38D
330
1F
100
AcDbEntity
  8
0
100
AcDbText
 10
266.133516408318
 20
-1007.900433322328
 30
0.0
 40
10.0
  1
CORK
100
AcDbText
  0
HATCH
  5
38E
330
1F
100
AcDbEntity
  8
0
100
AcDbHatch
 10
0.0
 20
0.0
 30
0.0
210
0.0
220
0.0
230
1.0
  2
CORK
 70
     0
 71
     0
 91
        1
 92
        1
 93
        4
 72
     1
 10
236.133516408318
 20
-992.9004333223284
 11
336.133516408318
 21
-992.9004333223284
 72
     1
 10
336.133516408318
 20
-992.9004333223284
 11
336.133516408318
 21
-892.9004333223284
 72
     1
 10
336.133516408318
 20
-892.9004333223284
 11
236.133516408318
 21
-892.9004333223284
 72
     1
 10
236.133516408318
 20
-892.9004333223284
 11
236.133516408318
 21
-992.9004333223282
 97
        0
 75
     0
 76
     1
 52
0.0
 41
2.0
 77
     0
 78
     4
 53
0.0
 43
0.0
 44
0.0
 45
0.0
 46
6.349999999999997
 79
     0
 53
135.0
 43
3.174999999999998
 44
-3.174999999999998
 45
-12.70000548563661
 46
-12.70000548563661
 79
     2
 49
8.980260000000003
 49
-8.980260000000003
 53
135.0
 43
4.7625
 44
-3.174999999999998
 45
-12.70000548563661
 46
-12.70000548563661
 79
     2
 49
8.980260000000003
 49
-8.980260000000003
 53
135.0
 43
6.349999999999997
 44
-3.174999999999998
 45
-12.70000548563661
 46
-12.70000548563661
 79
     2
 49
8.980260000000003
 49
-8.980260000000003
 98
        1
 10
236.133516408318
 20
-992.9004333223284
  0
TEXT
  5
38F
330
1F
100
AcDbEntity
  8
0
100
AcDbText
 10
386.133516408318
 20
-1007.900433322328
 30
0.0
 40
10.0
  1
CROSS
100
AcDbText
  0
HATCH
  5
390
330
1F
100
AcDbEntity
  8
0
100
AcDbHatch
 10
0.0
 20
0.0
 30
0.0
210
0.0
220
0.0
230
1.0
  2
CROSS
 70
     0
 71
     0
 91
        1
 92
        1
 93
        4
 72
     1
 10
356.133516408318
 20
-992.9004333223284
 11
456.1335164083177
 21
-992.9004333223284
 72
     1
 10
456.1335164083177
 20
-992.9004333223284
 11
456.1335164083177
 21
-892.9004333223284
 72
     1
 10
456.1335164083177
 20
-892.9004333223284
 11
356.133516408318
 21
-892.9004333223284
 72
     1
 10
356.133516408318
 20
-892.9004333223284
 11
356.133516408318
 21
-992.9004333223282
 97
        0
 75
     0
 76
     1
 52
0.0
 41
2.0
 77
     0
 78
     2
 53
0.0
 43
0.0
 44
0.0
 45
12.7
 46
12.7
 79
     2
 49
6.349999999999997
 49
-19.05
 53
90.0
 43
3.174999999999998
 44
-3.174999999999998
 45
-12.7
 46
12.7
 79
     2
 49
6.349999999999997
 49
-19.05
 98
        1
 10
356.133516408318
 20
-992.9004333223284
  0
TEXT
  5
430
330
1F
100
AcDbEntity
  8
0
100
AcDbText
 10
388.4157777110177
 20
0.1083936141862978
 30
0.0
 40
10.0
  1
ANSI35
100
AcDbText
  0
HATCH
  5
431
330
1F
100
AcDbEntity
  8
0
100
AcDbHatch
 10
0.0
 20
0.0
 30
0.0
210
0.0
220
0.0
230
1.0
  2
ANSI35
 70
     0
 71
     0
 91
        1
 92
        1
 93
        4
 72
     1
 10
358.4157777110176
 20
15.1083936141863
 11
458.4157777110176
 21
15.1083936141863
 72
     1
 10
458.4157777110176
 20
15.1083936141863
 11
458.4157777110176
 21
115.1083936141863
 72
     1
 10
458.4157777110176
 20
115.1083936141863
 11
358.4157777110176
 21
115.1083936141863
 72
     1
 10
358.4157777110176
 20
115.1083936141863
 11
358.4157777110176
 21
15.1083936141863
 97
        0
 75
     0
 76
     1
 52
0.0
 41
2.0
 77
     0
 78
     2
 53
45.0
 43
0.0
 44
0.0
 45
-8.98025612106915
 46
8.98025612106915
 79
     0
 53
45.0
 43
8.980260000000003
 44
0.0
 45
-8.98025612106915
 46
8.98025612106915
 79
     4
 49
15.875
 49
-3.174999999999998
 49
0.0
 49
-3.174999999999998
 98
        1
 10
358.4157777110176
 20
15.1083936141863
  0
TEXT
  5
432
330
1F
100
AcDbEntity
  8
0
100
AcDbText
 10
28.22880412175619
 20
-122.8428335557514
 30
0.0
 40
10.0
  1
ANSI36
100
AcDbText
  0
HATCH
  5
433
330
1F
100
AcDbEntity
  8
0
100
AcDbHatch
 10
0.0
 20
0.0
 30
0.0
210
0.0
220
0.0
230
1.0
  2
ANSI36
 70
     0
 71
     0
 91
        1
 92
        1
 93
        4
 72
     1
 10
-1.771195878243815
 20
-107.8428335557514
 11
98.22880412175621
 21
-107.8428335557514
 72
     1
 10
98.22880412175621
 20
-107.8428335557514
 11
98.22880412175621
 21
-7.842833555751425
 72
     1
 10
98.22880412175621
 20
-7.842833555751425
 11
-1.771195878243815
 21
-7.842833555751425
 72
     1
 10
-1.771195878243815
 20
-7.842833555751425
 11
-1.771195878243815
 21
-107.8428335557514
 97
        0
 75
     0
 76
     1
 52
0.0
 41
2.0
 77
     0
 78
     1
 53
45.0
 43
0.0
 44
0.0
 45
3.367596045400933
 46
12.34785216647009
 79
     4
 49
15.875
 49
-3.174999999999998
 49
0.0
 49
-3.174999999999998
 98
        1
 10
-1.771195878243815
 20
-107.8428335557514
  0
TEXT
  5
434
330
1F
100
AcDbEntity
  8
0
100
AcDbText
 10
148.2288041217562
 20
-122.8428335557514
 30
0.0
 40
10.0
  1
ANSI37
100
AcDbText
  0
HATCH
  5
435
330
1F
100
AcDbEntity
  8
0
100
AcDbHatch
 10
0.0
 20
0.0
 30
0.0
210
0.0
220
0.0
230
1.0
  2
ANSI37
 70
     0
 71
     0
 91
        1
 92
        1
 93
        4
 72
     1
 10
118.2288041217562
 20
-107.8428335557514
 11
218.2288041217562
 21
-107.8428335557514
 72
     1
 10
218.2288041217562
 20
-107.8428335557514
 11
218.2288041217562
 21
-7.842833555751425
 72
     1
 10
218.2288041217562
 20
-7.842833555751425
 11
118.2288041217562
 21
-7.842833555751425
 72
     1
 10
118.2288041217562
 20
-7.842833555751425
 11
118.2288041217562
 21
-107.8428335557514
 97
        0
 75
     0
 76
     1
 52
0.0
 41
2.0
 77
     0
 78
     2
 53
45.0
 43
0.0
 44
0.0
 45
-4.490128060534575
 46
4.490128060534575
 79
     0
 53
135.0
 43
0.0
 44
0.0
 45
-4.490128060534575
 46
-4.490128060534575
 79
     0
 98
        1
 10
118.2288041217562
 20
-107.8428335557514
  0
TEXT
  5
436
330
1F
100
AcDbEntity
  8
0
100
AcDbText
 10
268.2288041217562
 20
-122.8428335557514
 30
0.0
 40
10.0
  1
ANSI38
100
AcDbText
  0
HATCH
  5
437
330
1F
100
AcDbEntity
  8
0
100
AcDbHatch
 10
0.0
 20
0.0
 30
0.0
210
0.0
220
0.0
230
1.0
  2
ANSI38
 70
     0
 71
     0
 91
        1
 92
        1
 93
        4
 72
     1
 10
238.2288041217562
 20
-107.8428335557514
 11
338.2288041217562
 21
-107.8428335557514
 72
     1
 10
338.2288041217562
 20
-107.8428335557514
 11
338.2288041217562
 21
-7.842833555751425
 72
     1
 10
338.2288041217562
 20
-7.842833555751425
 11
238.2288041217562
 21
-7.842833555751425
 72
     1
 10
238.2288041217562
 20
-7.842833555751425
 11
238.2288041217562
 21
-107.8428335557514
 97
        0
 75
     0
 76
     1
 52
0.0
 41
2.0
 77
     0
 78
     2
 53
45.0
 43
0.0
 44
0.0
 45
-4.490128060534575
 46
4.490128060534575
 79
     0
 53
135.0
 43
0.0
 44
0.0
 45
-13.47038418160373
 46
4.490128060534577
 79
     2
 49
15.875
 49
-9.525
 98
        1
 10
238.2288041217562
 20
-107.8428335557514
  0
TEXT
  5
438
330
1F
100
AcDbEntity
  8
0
100
AcDbText
 10
0.1533393102080254
 20
-506.0514920998138
 30
0.0
 40
8.0
  1
ACAD_ISO06W100
100
AcDbText
  0
HATCH
  5
439
330
1F
100
AcDbEntity
  8
0
100
AcDbHatch
 10
0.0
 20
0.0
 30
0.0
210
0.0
220
0.0
230
1.0
  2
ACAD_ISO06W100
 70
     0
 71
     0
 91
        1
 92
        1
 93
        4
 72
     1
 10
-0.2596536617511447
 20
-492.3503312241319
 11
99.74034633824885
 21
-492.3503312241319
 72
     1
 10
99.74034633824885
 20
-492.3503312241319
 11
99.74034633824885
 21
-392.3503312241319
 72
     1
 10
99.74034633824885
 20
-392.3503312241319
 11
-0.2596536617511447
 21
-392.3503312241319
 72
     1
 10
-0.2596536617511447
 20
-392.3503312241319
 11
-0.2596536617511447
 21
-492.3503312241319
 97
        0
 75
     0
 76
     1
 52
0.0
 41
2.0
 77
     0
 78
     2
 53
0.0
 43
0.0
 44
0.0
 45
0.0
 46
10.0
 79
     6
 49
48.0
 49
-6.0
 49
1.0
 49
-6.0
 49
1.0
 49
-13.0
 53
0.0
 43
0.0
 44
0.0
 45
0.0
 46
10.0
 79
     3
 49
-68.0
 49
1.0
 49
-6.0
 98
        1
 10
-0.2596536617511447
 20
-492.3503312241319
  0
TEXT
  5
43A
330
1F
100
AcDbEntity
  8
0
100
AcDbText
 10
115.8547157464713
 20
-505.3942185280019
 30
0.0
 40
8.0
  1
ACAD_ISO07W100
100
AcDbText
  0
HATCH
  5
43B
330
1F
100
AcDbEntity
  8
0
100
AcDbHatch
 10
0.0
 20
0.0
 30
0.0
210
0.0
220
0.0
230
1.0
  2
ACAD_ISO07W100
 70
     0
 71
     0
 91
        1
 92
        1
 93
        4
 72
     1
 10
119.7403463382488
 20
-492.3503312241319
 11
219.7403463382489
 21
-492.3503312241319
 72
     1
 10
219.7403463382489
 20
-492.3503312241319
 11
219.7403463382489
 21
-392.3503312241319
 72
     1
 10
219.7403463382489
 20
-392.3503312241319
 11
119.7403463382488
 21
-392.3503312241319
 72
     1
 10
119.7403463382488
 20
-392.3503312241319
 11
119.7403463382488
 21
-492.3503312241319
 97
        0
 75
     0
 76
     1
 52
0.0
 41
2.0
 77
     0
 78
     1
 53
0.0
 43
0.0
 44
0.0
 45
0.0
 46
10.0
 79
     2
 49
1.0
 49
-6.0
 98
        1
 10
119.7403463382488
 20
-492.3503312241319
  0
TEXT
  5
43C
330
1F
100
AcDbEntity
  8
0
100
AcDbText
 10
237.7379129859614
 20
-504.7398076312957
 30
0.0
 40
8.0
  1
ACAD_ISO08W100
100
AcDbText
  0
HATCH
  5
43D
330
1F
100
AcDbEntity
  8
0
100
AcDbHatch
 10
0.0
 20
0.0
 30
0.0
210
0.0
220
0.0
230
1.0
  2
ACAD_ISO08W100
 70
     0
 71
     0
 91
        1
 92
        1
 93
        4
 72
     1
 10
239.7403463382488
 20
-492.3503312241319
 11
339.7403463382488
 21
-492.3503312241319
 72
     1
 10
339.7403463382488
 20
-492.3503312241319
 11
339.7403463382488
 21
-392.3503312241319
 72
     1
 10
339.7403463382488
 20
-392.3503312241319
 11
239.7403463382488
 21
-392.3503312241319
 72
     1
 10
239.7403463382488
 20
-392.3503312241319
 11
239.7403463382488
 21
-492.3503312241319
 97
        0
 75
     0
 76
     1
 52
0.0
 41
2.0
 77
     0
 78
     1
 53
0.0
 43
0.0
 44
0.0
 45
0.0
 46
10.0
 79
     4
 49
48.0
 49
-6.0
 49
12.0
 49
-6.0
 98
        1
 10
239.7403463382488
 20
-492.3503312241319
  0
TEXT
  5
43E
330
1F
100
AcDbEntity
  8
0
100
AcDbText
 10
360.87372235111
 20
-506.0467299555812
 30
0.0
 40
8.0
  1
ACAD_ISO09W100
100
AcDbText
  0
HATCH
  5
43F
330
1F
100
AcDbEntity
  8
0
100
AcDbHatch
 10
0.0
 20
0.0
 30
0.0
210
0.0
220
0.0
230
1.0
  2
ACAD_ISO09W100
 70
     0
 71
     0
 91
        1
 92
        1
 93
        4
 72
     1
 10
359.7403463382489
 20
-492.3503312241319
 11
459.7403463382486
 21
-492.3503312241319
 72
     1
 10
459.7403463382486
 20
-492.3503312241319
 11
459.7403463382486
 21
-392.3503312241319
 72
     1
 10
459.7403463382486
 20
-392.3503312241319
 11
359.7403463382489
 21
-392.3503312241319
 72
     1
 10
359.7403463382489
 20
-392.3503312241319
 11
359.7403463382489
 21
-492.3503312241319
 97
        0
 75
     0
 76
     1
 52
0.0
 41
2.0
 77
     0
 78
     1
 53
0.0
 43
0.0
 44
0.0
 45
0.0
 46
10.0
 79
     6
 49
48.0
 49
-6.0
 49
12.0
 49
-6.0
 49
12.0
 49
-6.0
 98
        1
 10
359.7403463382489
 20
-492.3503312241319
  0
TEXT
  5
440
330
1F
100
AcDbEntity
  8
0
100
AcDbText
 10
-0.0964724953801692
 20
-622.4127016399748
 30
0.0
 40
8.0
  1
ACAD_ISO14W100
100
AcDbText
  0
HATCH
  5
441
330
1F
100
AcDbEntity
  8
0
100
AcDbHatch
 10
0.0
 20
0.0
 30
0.0
210
0.0
220
0.0
230
1.0
  2
ACAD_ISO14W100
 70
     0
 71
     0
 91
        1
 92
        1
 93
        4
 72
     1
 10
-0.2596536617511447
 20
-612.3503312241317
 11
99.74034633824885
 21
-612.3503312241317
 72
     1
 10
99.74034633824885
 20
-612.3503312241317
 11
99.74034633824885
 21
-512.3503312241316
 72
     1
 10
99.74034633824885
 20
-512.3503312241316
 11
-0.2596536617511447
 21
-512.3503312241316
 72
     1
 10
-0.2596536617511447
 20
-512.3503312241316
 11
-0.2596536617511447
 21
-612.3503312241317
 97
        0
 75
     0
 76
     1
 52
0.0
 41
2.0
 77
     0
 78
     2
 53
0.0
 43
0.0
 44
0.0
 45
0.0
 46
10.0
 79
     6
 49
24.0
 49
-6.0
 49
1.0
 49
-6.0
 49
1.0
 49
-13.0
 53
0.0
 43
0.0
 44
0.0
 45
0.0
 46
10.0
 79
     3
 49
-44.0
 49
1.0
 49
-6.0
 98
        1
 10
-0.2596536617511447
 20
-612.3503312241317
  0
TEXT
  5
442
330
1F
100
AcDbEntity
  8
0
100
AcDbText
 10
121.268197097297
 20
-622.2293792941449
 30
0.0
 40
8.0
  1
ACAD_ISO15W100
100
AcDbText
  0
HATCH
  5
443
330
1F
100
AcDbEntity
  8
0
100
AcDbHatch
 10
0.0
 20
0.0
 30
0.0
210
0.0
220
0.0
230
1.0
  2
ACAD_ISO15W100
 70
     0
 71
     0
 91
        1
 92
        1
 93
        4
 72
     1
 10
119.7403463382488
 20
-612.3503312241317
 11
219.7403463382489
 21
-612.3503312241317
 72
     1
 10
219.7403463382489
 20
-612.3503312241317
 11
219.7403463382489
 21
-512.3503312241316
 72
     1
 10
219.7403463382489
 20
-512.3503312241316
 11
119.7403463382488
 21
-512.3503312241316
 72
     1
 10
119.7403463382488
 20
-512.3503312241316
 11
119.7403463382488
 21
-612.3503312241317
 97
        0
 75
     0
 76
     1
 52
0.0
 41
2.0
 77
     0
 78
     2
 53
0.0
 43
0.0
 44
0.0
 45
0.0
 46
10.0
 79
     6
 49
24.0
 49
-6.0
 49
24.0
 49
-6.0
 49
1.0
 49
-20.0
 53
0.0
 43
0.0
 44
0.0
 45
0.0
 46
10.0
 79
     5
 49
-67.0
 49
1.0
 49
-6.0
 49
1.0
 49
-6.0
 98
        1
 10
119.7403463382488
 20
-612.3503312241317
  0
TEXT
  5
448
330
1F
100
AcDbEntity
  8
0
100
AcDbText
 10
27.56759285488124
 20
-1607.243139662999
 30
0.0
 40
10.0
  1
AR-B88
100
AcDbText
  0
HATCH
  5
449
330
1F
100
AcDbEntity
  8
0
100
AcDbHatch
 10
0.0
 20
0.0
 30
0.0
210
0.0
220
0.0
230
1.0
  2
AR-B88
 70
     0
 71
     0
 91
        1
 92
        1
 93
        4
 72
     1
 10
-2.432407145118981
 20
-1592.243139662999
 11
97.56759285488101
 21
-1592.243139662999
 72
     1
 10
97.56759285488101
 20
-1592.243139662999
 11
97.56759285488101
 21
-1492.243139662999
 72
     1
 10
97.56759285488101
 20
-1492.243139662999
 11
-2.432407145118986
 21
-1492.243139662999
 72
     1
 10
-2.432407145118981
 20
-1492.243139662999
 11
-2.432407145118981
 21
-1592.243139662999
 97
        0
 75
     0
 76
     1
 52
0.0
 41
0.1
 77
     0
 78
     2
 53
0.0
 43
-482.4324071451187
 44
-1232.243139662999
 45
0.0
 46
20.32
 79
     0
 53
90.0
 43
-482.4324071451187
 44
-1232.243139662999
 45
-10.16
 46
20.32
 79
     2
 49
20.32
 49
-20.32
 98
        1
 10
-2.432407145118981
 20
-1592.243139662999
  0
TEXT
  5
44A
330
1F
100
AcDbEntity
  8
0
100
AcDbText
 10
132.8869384672424
 20
-1607.408359079194
 30
0.0
 40
10.0
  1
AR-BRELM
100
AcDbText
  0
HATCH
  5
44B
330
1F
100
AcDbEntity
  8
0
100
AcDbHatch
 10
0.0
 20
0.0
 30
0.0
210
0.0
220
0.0
230
1.0
  2
AR-BRELM
 70
     0
 71
     0
 91
        1
 92
        1
 93
        4
 72
     1
 10
117.5675928548811
 20
-1592.243139662999
 11
217.5675928548811
 21
-1592.243139662999
 72
     1
 10
217.5675928548811
 20
-1592.243139662999
 11
217.5675928548811
 21
-1492.243139662999
 72
     1
 10
217.5675928548811
 20
-1492.243139662999
 11
117.5675928548811
 21
-1492.243139662999
 72
     1
 10
117.5675928548811
 20
-1492.243139662999
 11
117.5675928548811
 21
-1592.243139662999
 97
        0
 75
     0
 76
     1
 52
0.0
 41
0.4
 77
     0
 78
     8
 53
0.0
 43
-482.4324071451187
 44
-1232.243139662999
 45
0.0
 46
54.19360000000001
 79
     2
 49
77.47000000000001
 49
-3.81
 53
0.0
 43
-482.4324071451187
 44
-1209.383139662999
 45
0.0
 46
54.19360000000001
 79
     2
 49
77.47000000000001
 49
-3.81
 53
0.0
 43
-462.1124071451188
 44
-1205.146419662999
 45
0.0
 46
54.19360000000001
 79
     2
 49
36.83000000000003
 49
-3.81
 53
0.0
 43
-462.1124071451188
 44
-1182.286339662999
 45
0.0
 46
54.19360000000001
 79
     2
 49
36.83000000000003
 49
-3.81
 53
90.0
 43
-482.4324071451187
 44
-1232.243139662999
 45
-81.28
 46
0.000000000000005
 79
     2
 49
22.86
 49
-31.33344000000001
 53
90.0
 43
-486.2424071451187
 44
-1232.243139662999
 45
-81.28
 46
0.000000000000005
 79
     2
 49
22.86
 49
-31.33344000000001
 53
90.0
 43
-462.1124071451188
 44
-1205.146419662999
 45
-40.64
 46
0.0000000000000025
 79
     2
 49
22.86
 49
-31.33344000000001
 53
90.0
 43
-465.9224071451188
 44
-1205.146419662999
 45
-40.64
 46
0.0000000000000025
 79
     2
 49
22.86
 49
-31.33344000000001
 98
        1
 10
117.5675928548811
 20
-1592.243139662999
  0
TEXT
  5
44C
330
1F
100
AcDbEntity
  8
0
100
AcDbText
 10
250.2963484544915
 20
-1607.401424669735
 30
0.0
 40
10.0
  1
AR-BRSTD
100
AcDbText
  0
HATCH
  5
44D
330
1F
100
AcDbEntity
  8
0
100
AcDbHatch
 10
0.0
 20
0.0
 30
0.0
210
0.0
220
0.0
230
1.0
  2
AR-BRSTD
 70
     0
 71
     0
 91
        1
 92
        1
 93
        4
 72
     1
 10
237.5675928548812
 20
-1592.243139662999
 11
337.5675928548811
 21
-1592.243139662999
 72
     1
 10
337.5675928548811
 20
-1592.243139662999
 11
337.5675928548811
 21
-1492.243139662999
 72
     1
 10
337.5675928548811
 20
-1492.243139662999
 11
237.5675928548812
 21
-1492.243139662999
 72
     1
 10
237.5675928548812
 20
-1492.243139662999
 11
237.5675928548812
 21
-1592.243139662999
 97
        0
 75
     0
 76
     1
 52
0.0
 41
0.4
 77
     0
 78
     2
 53
0.0
 43
-482.4324071451187
 44
-1232.243139662999
 45
0.0
 46
27.09672
 79
     0
 53
90.0
 43
-482.4324071451187
 44
-1232.243139662999
 45
-40.64
 46
27.09672
 79
     2
 49
27.09672
 49
-27.09672
 98
        1
 10
237.5675928548812
 20
-1592.243139662999
  0
TEXT
  5
44E
330
1F
100
AcDbEntity
  8
0
100
AcDbText
 10
369.713298289509
 20
-1607.563886533686
 30
0.0
 40
10.0
  1
AR-CONC
100
AcDbText
  0
HATCH
  5
44F
330
1F
100
AcDbEntity
  8
0
100
AcDbHatch
 10
0.0
 20
0.0
 30
0.0
210
0.0
220
0.0
230
1.0
  2
AR-CONC
 70
     0
 71
     0
 91
        1
 92
        1
 93
        4
 72
     1
 10
357.5675928548812
 20
-1592.243139662999
 11
457.5675928548811
 21
-1592.243139662999
 72
     1
 10
457.5675928548811
 20
-1592.243139662999
 11
457.5675928548811
 21
-1492.243139662999
 72
     1
 10
457.5675928548811
 20
-1492.243139662999
 11
357.5675928548812
 21
-1492.243139662999
 72
     1
 10
357.5675928548812
 20
-1492.243139662999
 11
357.5675928548812
 21
-1592.243139662999
 97
        0
 75
     0
 76
     1
 52
0.0
 41
0.2
 77
     0
 78
    13
 53
50.0
 43
0.0
 44
0.0
 45
36.4369337992008
 46
-3.187817107780616
 79
     2
 49
3.81
 49
-41.90999999999998
 53
355.0
 43
0.0
 44
0.0
 45
-7.048565195133397
 46
38.211328576436
 79
     2
 49
3.048
 49
-33.528
 53
100.451
 43
3.036399999999998
 44
-0.26565
 45
29.38850033319186
 46
35.02333756405838
 79
     2
 49
3.237999999999998
 49
-35.618
 53
46.1842
 43
0.0
 44
10.16
 45
54.21580817842599
 46
-8.408465586545428
 79
     2
 49
5.714999999999997
 49
-62.865
 53
96.6356
 43
4.51798
 44
9.4593
 45
47.48084689324743
 46
49.48511117800984
 79
     2
 49
4.857
 49
-53.427
 53
351.184
 43
0.0
 44
10.16
 45
47.48092116278677
 46
49.48502357211953
 79
     2
 49
4.572
 49
-50.292
 53
21.0
 43
5.08
 44
7.62
 45
30.32297596707666
 46
-20.4531037033525
 79
     2
 49
3.81
 49
-41.90999999999998
 53
326.0
 43
5.08
 44
7.62
 45
12.36040566952941
 46
36.83759322446385
 79
     2
 49
3.048
 49
-33.528
 53
71.45140000000002
 43
7.6069
 44
5.91558
 45
42.6832981540249
 46
16.38457154321149
 79
     2
 49
3.237999999999998
 49
-35.618
 53
37.5
 43
0.0
 44
0.0
 45
0.6177206501183635
 46
16.91100777463062
 79
     6
 49
0.0
 49
-33.1216
 49
0.0
 49
-34.036
 49
0.0
 49
-33.655
 53
7.499999999999999
 43
0.0
 44
0.0
 45
13.36393250206115
 46
20.0361149636239
 79
     6
 49
0.0
 49
-19.4056
 49
0.0
 49
-32.3596
 49
0.0
 49
-12.827
 53
327.5
 43
-11.3284
 44
0.0
 45
27.11811903337428
 46
-1.145748798534689
 79
     6
 49
0.0
 49
-12.7
 49
0.0
 49
-39.624
 49
0.0
 49
-52.578
 53
317.5
 43
-16.4084
 44
0.0
 45
29.62583627720361
 46
5.085298206666603
 79
     6
 49
0.0
 49
-16.51
 49
0.0
 49
-26.3144
 49
0.0
 49
-37.338
 98
        1
 10
357.5675928548812
 20
-1592.243139662999
  0
TEXT
  5
450
330
1F
100
AcDbEntity
  8
0
100
AcDbText
 10
10.91349838818905
 20
-1727.243139662999
 30
0.0
 40
10.0
  1
AR-SAND
100
AcDbText
  0
HATCH
  5
451
330
1F
100
AcDbEntity
  8
0
100
AcDbHatch
 10
0.0
 20
0.0
 30
0.0
210
0.0
220
0.0
230
1.0
  2
AR-SAND
 70
     0
 71
     0
 91
        1
 92
        1
 93
        4
 72
     1
 10
-2.432407145118981
 20
-1712.243139662999
 11
97.56759285488101
 21
-1712.243139662999
 72
     1
 10
97.56759285488101
 20
-1712.243139662999
 11
97.56759285488101
 21
-1612.243139662999
 72
     1
 10
97.56759285488101
 20
-1612.243139662999
 11
-2.432407145118986
 21
-1612.243139662999
 72
     1
 10
-2.432407145118981
 20
-1612.243139662999
 11
-2.432407145118981
 21
-1712.243139662999
 97
        0
 75
     0
 76
     1
 52
0.0
 41
0.2
 77
     0
 78
     4
 53
37.5
 43
-482.4324071451187
 44
-1232.243139662999
 45
-0.3200062591968091
 46
9.788264746586847
 79
     6
 49
0.0
 49
-7.721600000000001
 49
0.0
 49
-8.636000000000001
 49
0.0
 49
-8.255
 53
7.499999999999999
 43
-482.4324071451187
 44
-1232.243139662999
 45
8.990465662760053
 46
14.33650201136708
 79
     6
 49
0.0
 49
-4.1656
 49
0.0
 49
-6.9596
 49
0.0
 49
-2.666999999999998
 53
327.5
 43
-488.6808071451187
 44
-1232.243139662999
 45
15.81984740482916
 46
0.0287436935709138
 79
     6
 49
0.0
 49
-2.54
 49
0.0
 49
-9.144
 49
0.0
 49
-11.938
 53
317.5
 43
-488.6808071451187
 44
-1232.243139662999
 45
15.27112904944594
 46
4.458586465144324
 79
     6
 49
0.0
 49
-1.27
 49
0.0
 49
-5.994399999999997
 49
0.0
 49
-6.857999999999997
 98
        1
 10
-2.432407145118981
 20
-1712.243139662999
  0
TEXT
  5
452
330
1F
100
AcDbEntity
  8
0
100
AcDbText
 10
147.567592854881
 20
-1727.243139662999
 30
0.0
 40
10.0
  1
BOX
100
AcDbText
  0
HATCH
  5
453
330
1F
100
AcDbEntity
  8
0
100
AcDbHatch
 10
0.0
 20
0.0
 30
0.0
210
0.0
220
0.0
230
1.0
  2
BOX
 70
     0
 71
     0
 91
        1
 92
        1
 93
        4
 72
     1
 10
117.5675928548811
 20
-1712.243139662999
 11
217.5675928548811
 21
-1712.243139662999
 72
     1
 10
217.5675928548811
 20
-1712.243139662999
 11
217.5675928548811
 21
-1612.243139662999
 72
     1
 10
217.5675928548811
 20
-1612.243139662999
 11
117.5675928548811
 21
-1612.243139662999
 72
     1
 10
117.5675928548811
 20
-1612.243139662999
 11
117.5675928548811
 21
-1712.243139662999
 97
        0
 75
     0
 76
     1
 52
0.0
 41
2.0
 77
     0
 78
     8
 53
90.0
 43
0.0
 44
0.0
 45
-50.8
 46
0.0000000000000031
 79
     0
 53
90.0
 43
12.7
 44
0.0
 45
-50.8
 46
0.0000000000000031
 79
     0
 53
0.0
 43
0.0
 44
0.0
 45
0.0
 46
50.8
 79
     2
 49
-12.7
 49
12.7
 53
0.0
 43
0.0
 44
12.7
 45
0.0
 46
50.8
 79
     2
 49
-12.7
 49
12.7
 53
0.0
 43
0.0
 44
25.4
 45
0.0
 46
50.8
 79
     2
 49
12.7
 49
-12.7
 53
0.0
 43
0.0
 44
38.1
 45
0.0
 46
50.8
 79
     2
 49
12.7
 49
-12.7
 53
90.0
 43
25.4
 44
0.0
 45
-50.8
 46
0.0000000000000031
 79
     2
 49
12.7
 49
-12.7
 53
90.0
 43
38.1
 44
0.0
 45
-50.8
 46
0.0000000000000031
 79
     2
 49
12.7
 49
-12.7
 98
        1
 10
117.5675928548811
 20
-1712.243139662999
  0
TEXT
  5
454
330
1F
100
AcDbEntity
  8
0
100
AcDbText
 10
267.5675928548811
 20
-1727.243139662999
 30
0.0
 40
10.0
  1
BRASS
100
AcDbText
  0
HATCH
  5
455
330
1F
100
AcDbEntity
  8
0
100
AcDbHatch
 10
0.0
 20
0.0
 30
0.0
210
0.0
220
0.0
230
1.0
  2
BRASS
 70
     0
 71
     0
 91
        1
 92
        1
 93
        4
 72
     1
 10
237.5675928548812
 20
-1712.243139662999
 11
337.5675928548811
 21
-1712.243139662999
 72
     1
 10
337.5675928548811
 20
-1712.243139662999
 11
337.5675928548811
 21
-1612.243139662999
 72
     1
 10
337.5675928548811
 20
-1612.243139662999
 11
237.5675928548812
 21
-1612.243139662999
 72
     1
 10
237.5675928548812
 20
-1612.243139662999
 11
237.5675928548812
 21
-1712.243139662999
 97
        0
 75
     0
 76
     1
 52
0.0
 41
2.0
 77
     0
 78
     2
 53
0.0
 43
0.0
 44
0.0
 45
0.0
 46
12.7
 79
     0
 53
0.0
 43
0.0
 44
6.349999999999997
 45
0.0
 46
12.7
 79
     2
 49
6.349999999999997
 49
-3.174999999999998
 98
        1
 10
237.5675928548812
 20
-1712.243139662999
  0
TEXT
  5
456
330
1F
100
AcDbEntity
  8
0
100
AcDbText
 10
387.5675928548814
 20
-1727.243139662999
 30
0.0
 40
10.0
  1
BRICK
100
AcDbText
  0
HATCH
  5
457
330
1F
100
AcDbEntity
  8
0
100
AcDbHatch
 10
0.0
 20
0.0
 30
0.0
210
0.0
220
0.0
230
1.0
  2
BRICK
 70
     0
 71
     0
 91
        1
 92
        1
 93
        4
 72
     1
 10
357.5675928548812
 20
-1712.243139662999
 11
457.5675928548811
 21
-1712.243139662999
 72
     1
 10
457.5675928548811
 20
-1712.243139662999
 11
457.5675928548811
 21
-1612.243139662999
 72
     1
 10
457.5675928548811
 20
-1612.243139662999
 11
357.5675928548812
 21
-1612.243139662999
 72
     1
 10
357.5675928548812
 20
-1612.243139662999
 11
357.5675928548812
 21
-1712.243139662999
 97
        0
 75
     0
 76
     1
 52
0.0
 41
2.0
 77
     0
 78
     3
 53
0.0
 43
0.0
 44
0.0
 45
0.0
 46
12.7
 79
     0
 53
90.0
 43
0.0
 44
0.0
 45
-25.4
 46
0.0000000000000016
 79
     2
 49
12.7
 49
-12.7
 53
90.0
 43
12.7
 44
0.0
 45
-25.4
 46
0.0000000000000016
 79
     2
 49
-12.7
 49
12.7
 98
        1
 10
357.5675928548812
 20
-1712.243139662999
  0
TEXT
  5
458
330
1F
100
AcDbEntity
  8
0
100
AcDbText
 10
27.56759285488124
 20
-1847.243139662999
 30
0.0
 40
10.0
  1
DASH
100
AcDbText
  0
HATCH
  5
459
330
1F
100
AcDbEntity
  8
0
100
AcDbHatch
 10
0.0
 20
0.0
 30
0.0
210
0.0
220
0.0
230
1.0
  2
DASH
 70
     0
 71
     0
 91
        1
 92
        1
 93
        4
 72
     1
 10
-2.432407145118981
 20
-1832.243139662999
 11
97.56759285488101
 21
-1832.243139662999
 72
     1
 10
97.56759285488101
 20
-1832.243139662999
 11
97.56759285488101
 21
-1732.243139662999
 72
     1
 10
97.56759285488101
 20
-1732.243139662999
 11
-2.432407145118986
 21
-1732.243139662999
 72
     1
 10
-2.432407145118981
 20
-1732.243139662999
 11
-2.432407145118981
 21
-1832.243139662999
 97
        0
 75
     0
 76
     1
 52
0.0
 41
2.0
 77
     0
 78
     1
 53
0.0
 43
0.0
 44
0.0
 45
6.349999999999997
 46
6.349999999999997
 79
     2
 49
6.349999999999997
 49
-6.349999999999997
 98
        1
 10
-2.432407145118981
 20
-1832.243139662999
  0
TEXT
  5
45A
330
1F
100
AcDbEntity
  8
0
100
AcDbText
 10
147.567592854881
 20
-1847.243139662999
 30
0.0
 40
10.0
  1
DOLMIT
100
AcDbText
  0
HATCH
  5
45B
330
1F
100
AcDbEntity
  8
0
100
AcDbHatch
 10
0.0
 20
0.0
 30
0.0
210
0.0
220
0.0
230
1.0
  2
DOLMIT
 70
     0
 71
     0
 91
        1
 92
        1
 93
        4
 72
     1
 10
117.5675928548811
 20
-1832.243139662999
 11
217.5675928548811
 21
-1832.243139662999
 72
     1
 10
217.5675928548811
 20
-1832.243139662999
 11
217.5675928548811
 21
-1732.243139662999
 72
     1
 10
217.5675928548811
 20
-1732.243139662999
 11
117.5675928548811
 21
-1732.243139662999
 72
     1
 10
117.5675928548811
 20
-1732.243139662999
 11
117.5675928548811
 21
-1832.243139662999
 97
        0
 75
     0
 76
     1
 52
0.0
 41
2.0
 77
     0
 78
     2
 53
0.0
 43
0.0
 44
0.0
 45
0.0
 46
12.7
 79
     0
 53
45.0
 43
0.0
 44
0.0
 45
-25.39998268700197
 46
25.39998268700197
 79
     2
 49
17.96052
 49
-35.921
 98
        1
 10
117.5675928548811
 20
-1832.243139662999
  0
TEXT
  5
45C
330
1F
100
AcDbEntity
  8
0
100
AcDbText
 10
267.5675928548811
 20
-1847.243139662999
 30
0.0
 40
10.0
  1
DOTS
100
AcDbText
  0
HATCH
  5
45D
330
1F
100
AcDbEntity
  8
0
100
AcDbHatch
 10
0.0
 20
0.0
 30
0.0
210
0.0
220
0.0
230
1.0
  2
DOTS
 70
     0
 71
     0
 91
        1
 92
        1
 93
        4
 72
     1
 10
237.5675928548812
 20
-1832.243139662999
 11
337.5675928548811
 21
-1832.243139662999
 72
     1
 10
337.5675928548811
 20
-1832.243139662999
 11
337.5675928548811
 21
-1732.243139662999
 72
     1
 10
337.5675928548811
 20
-1732.243139662999
 11
237.5675928548812
 21
-1732.243139662999
 72
     1
 10
237.5675928548812
 20
-1732.243139662999
 11
237.5675928548812
 21
-1832.243139662999
 97
        0
 75
     0
 76
     1
 52
0.0
 41
2.0
 77
     0
 78
     1
 53
0.0
 43
0.0
 44
0.0
 45
1.587499999999999
 46
3.174999999999998
 79
     2
 49
0.0
 49
-3.174999999999998
 98
        1
 10
237.5675928548812
 20
-1832.243139662999
  0
TEXT
  5
45E
330
1F
100
AcDbEntity
  8
0
100
AcDbText
 10
387.5675928548814
 20
-1847.243139662999
 30
0.0
 40
10.0
  1
EARTH
100
AcDbText
  0
HATCH
  5
45F
330
1F
100
AcDbEntity
  8
0
100
AcDbHatch
 10
0.0
 20
0.0
 30
0.0
210
0.0
220
0.0
230
1.0
  2
EARTH
 70
     0
 71
     0
 91
        1
 92
        1
 93
        4
 72
     1
 10
357.5675928548812
 20
-1832.243139662999
 11
457.5675928548811
 21
-1832.243139662999
 72
     1
 10
457.5675928548811
 20
-1832.243139662999
 11
457.5675928548811
 21
-1732.243139662999
 72
     1
 10
457.5675928548811
 20
-1732.243139662999
 11
357.5675928548812
 21
-1732.243139662999
 72
     1
 10
357.5675928548812
 20
-1732.243139662999
 11
357.5675928548812
 21
-1832.243139662999
 97
        0
 75
     0
 76
     1
 52
0.0
 41
2.0
 77
     0
 78
     6
 53
0.0
 43
-482.4324071451187
 44
-1232.243139662999
 45
12.7
 46
12.7
 79
     2
 49
12.7
 49
-12.7
 53
0.0
 43
-482.4324071451187
 44
-1227.480639662999
 45
12.7
 46
12.7
 79
     2
 49
12.7
 49
-12.7
 53
0.0
 43
-482.4324071451187
 44
-1222.718139662999
 45
12.7
 46
12.7
 79
     2
 49
12.7
 49
-12.7
 53
90.0
 43
-480.8449071451187
 44
-1221.130639662999
 45
-12.7
 46
12.7
 79
     2
 49
12.7
 49
-12.7
 53
90.0
 43
-476.0824071451187
 44
-1221.130639662999
 45
-12.7
 46
12.7
 79
     2
 49
12.7
 49
-12.7
 53
90.0
 43
-471.3199071451186
 44
-1221.130639662999
 45
-12.7
 46
12.7
 79
     2
 49
12.7
 49
-12.7
 98
        1
 10
357.5675928548812
 20
-1832.243139662999
  0
TEXT
  5
52D
330
1F
100
AcDbEntity
  8
0
100
AcDbText
 10
18.86445402897243
 20
-1128.086467830267
 30
0.0
 40
10.0
  1
ESCHER
100
AcDbText
  0
HATCH
  5
52E
330
1F
100
AcDbEntity
  8
0
100
AcDbHatch
 10
0.0
 20
0.0
 30
0.0
210
0.0
220
0.0
230
1.0
  2
ESCHER
 70
     0
 71
     0
 91
        1
 92
        1
 93
        4
 72
     1
 10
-3.866483591682026
 20
-1112.900433322328
 11
96.13351640831801
 21
-1112.900433322328
 72
     1
 10
96.13351640831801
 20
-1112.900433322328
 11
96.13351640831801
 21
-1012.900433322328
 72
     1
 10
96.13351640831801
 20
-1012.900433322328
 11
-3.866483591682026
 21
-1012.900433322328
 72
     1
 10
-3.866483591682026
 20
-1012.900433322328
 11
-3.866483591682026
 21
-1112.900433322328
 97
        0
 75
     0
 76
     1
 52
0.0
 41
2.0
 77
     0
 78
    21
 53
60.0
 43
0.0
 44
0.0
 45
-60.96007914199186
 46
0.0000456926503176
 79
     2
 49
55.88
 49
-5.08
 53
180.0
 43
0.0
 44
0.0
 45
30.48
 46
-52.793
 79
     2
 49
55.88
 49
-5.08
 53
300.0
 43
0.0
 44
0.0
 45
60.96007914199186
 46
0.0000456926503176
 79
     2
 49
55.88
 49
-5.08
 53
60.0
 43
5.08
 44
0.0
 45
-60.96007914199186
 46
0.0000456926503176
 79
     2
 49
10.16
 49
-50.8
 53
300.0
 43
5.08
 44
0.0
 45
60.96007914199186
 46
0.0000456926503176
 79
     2
 49
10.16
 49
-50.8
 53
60.0
 43
-2.54
 44
4.399399999999999
 45
-60.96007914199186
 46
0.0000456926503176
 79
     2
 49
10.16
 49
-50.8
 53
180.0
 43
-2.54
 44
4.399399999999999
 45
30.48
 46
-52.793
 79
     2
 49
10.16
 49
-50.8
 53
300.0
 43
-2.54
 44
-4.399399999999999
 45
60.96007914199186
 46
0.0000456926503176
 79
     2
 49
10.16
 49
-50.8
 53
180.0
 43
-2.54
 44
-4.399399999999999
 45
30.48
 46
-52.793
 79
     2
 49
10.16
 49
-50.8
 53
60.0
 43
-20.32
 44
0.0
 45
-60.96007914199186
 46
0.0000456926503176
 79
     2
 49
10.16
 49
-50.8
 53
300.0
 43
-20.32
 44
0.0
 45
60.96007914199186
 46
0.0000456926503176
 79
     2
 49
10.16
 49
-50.8
 53
60.0
 43
10.16
 44
-17.59764
 45
-60.96007914199186
 46
0.0000456926503176
 79
     2
 49
10.16
 49
-50.8
 53
180.0
 43
10.16
 44
-17.59764
 45
30.48
 46
-52.793
 79
     2
 49
10.16
 49
-50.8
 53
300.0
 43
10.16
 44
17.59764
 45
60.96007914199186
 46
0.0000456926503176
 79
     2
 49
10.16
 49
-50.8
 53
180.0
 43
10.16
 44
17.59764
 45
30.48
 46
-52.793
 79
     2
 49
10.16
 49
-50.8
 53
0.0
 43
10.16
 44
8.798819999999997
 45
-30.48
 46
52.793
 79
     2
 49
35.56
 49
-25.4
 53
0.0
 43
10.16
 44
-8.798819999999997
 45
-30.48
 46
52.793
 79
     2
 49
35.56
 49
-25.4
 53
120.0
 43
2.54
 44
13.19822
 45
-60.96007914199186
 46
-0.0000456926502963
 79
     2
 49
35.56
 49
-25.4
 53
120.0
 43
-12.7
 44
4.399399999999999
 45
-60.96007914199186
 46
-0.0000456926502963
 79
     2
 49
35.56
 49
-25.4
 53
240.0
 43
-12.7
 44
-4.399399999999999
 45
30.48007914199184
 46
-52.7929543073497
 79
     2
 49
35.56
 49
-25.4
 53
240.0
 43
2.54
 44
-13.19822
 45
30.48007914199184
 46
-52.7929543073497
 79
     2
 49
35.56
 49
-25.4
 98
        1
 10
-3.866483591682026
 20
-1112.900433322328
  0
TEXT
  5
52F
330
1F
100
AcDbEntity
  8
0
100
AcDbText
 10
146.1335164083179
 20
-1127.900433322328
 30
0.0
 40
10.0
  1
FLEX
100
AcDbText
  0
HATCH
  5
530
330
1F
100
AcDbEntity
  8
0
100
AcDbHatch
 10
0.0
 20
0.0
 30
0.0
210
0.0
220
0.0
230
1.0
  2
FLEX
 70
     0
 71
     0
 91
        1
 92
        1
 93
        4
 72
     1
 10
116.1335164083179
 20
-1112.900433322328
 11
216.133516408318
 21
-1112.900433322328
 72
     1
 10
216.133516408318
 20
-1112.900433322328
 11
216.133516408318
 21
-1012.900433322328
 72
     1
 10
216.133516408318
 20
-1012.900433322328
 11
116.1335164083179
 21
-1012.900433322328
 72
     1
 10
116.1335164083179
 20
-1012.900433322328
 11
116.1335164083179
 21
-1112.900433322328
 97
        0
 75
     0
 76
     1
 52
0.0
 41
2.0
 77
     0
 78
     2
 53
0.0
 43
0.0
 44
0.0
 45
0.0
 46
12.7
 79
     2
 49
12.7
 49
-12.7
 53
45.0
 43
12.7
 44
0.0
 45
0.0000000000000009
 46
12.70000548563661
 79
     4
 49
3.174999999999998
 49
-11.61052
 49
3.174999999999998
 49
-17.96052
 98
        1
 10
116.1335164083179
 20
-1112.900433322328
  0
TEXT
  5
531
330
1F
100
AcDbEntity
  8
0
100
AcDbText
 10
266.133516408318
 20
-1127.900433322328
 30
0.0
 40
10.0
  1
GRASS
100
AcDbText
  0
HATCH
  5
532
330
1F
100
AcDbEntity
  8
0
100
AcDbHatch
 10
0.0
 20
0.0
 30
0.0
210
0.0
220
0.0
230
1.0
  2
GRASS
 70
     0
 71
     0
 91
        1
 92
        1
 93
        4
 72
     1
 10
236.133516408318
 20
-1112.900433322328
 11
336.133516408318
 21
-1112.900433322328
 72
     1
 10
336.133516408318
 20
-1112.900433322328
 11
336.133516408318
 21
-1012.900433322328
 72
     1
 10
336.133516408318
 20
-1012.900433322328
 11
236.133516408318
 21
-1012.900433322328
 72
     1
 10
236.133516408318
 20
-1012.900433322328
 11
236.133516408318
 21
-1112.900433322328
 97
        0
 75
     0
 76
     1
 52
0.0
 41
1.0
 77
     0
 78
     3
 53
90.0
 43
-3.866483591682026
 44
-392.9004333223284
 45
-17.9605
 46
17.9605
 79
     2
 49
4.7625
 49
-31.1585
 53
45.0
 43
-3.866483591682026
 44
-392.9004333223284
 45
-17.9605122421383
 46
17.96051224213831
 79
     2
 49
4.7625
 49
-20.6375
 53
135.0
 43
-3.866483591682026
 44
-392.9004333223284
 45
-17.96051224213831
 46
-17.9605122421383
 79
     2
 49
4.7625
 49
-20.6375
 98
        1
 10
236.133516408318
 20
-1112.900433322328
  0
TEXT
  5
533
330
1F
100
AcDbEntity
  8
0
100
AcDbText
 10
386.133516408318
 20
-1127.900433322328
 30
0.0
 40
10.0
  1
GRATE
100
AcDbText
  0
HATCH
  5
534
330
1F
100
AcDbEntity
  8
0
100
AcDbHatch
 10
0.0
 20
0.0
 30
0.0
210
0.0
220
0.0
230
1.0
  2
GRATE
 70
     0
 71
     0
 91
        1
 92
        1
 93
        4
 72
     1
 10
356.133516408318
 20
-1112.900433322328
 11
456.1335164083177
 21
-1112.900433322328
 72
     1
 10
456.1335164083177
 20
-1112.900433322328
 11
456.1335164083177
 21
-1012.900433322328
 72
     1
 10
456.1335164083177
 20
-1012.900433322328
 11
356.133516408318
 21
-1012.900433322328
 72
     1
 10
356.133516408318
 20
-1012.900433322328
 11
356.133516408318
 21
-1112.900433322328
 97
        0
 75
     0
 76
     1
 52
0.0
 41
10.0
 77
     0
 78
     2
 53
0.0
 43
0.0
 44
0.0
 45
0.0
 46
7.9375
 79
     0
 53
90.0
 43
0.0
 44
0.0
 45
-31.75
 46
0.0000000000000019
 79
     0
 98
        1
 10
356.133516408318
 20
-1112.900433322328
  0
TEXT
  5
535
330
1F
100
AcDbEntity
  8
0
100
AcDbText
 10
26.13351640831798
 20
-1247.900433322328
 30
0.0
 40
10.0
  1
INSUL
100
AcDbText
  0
HATCH
  5
536
330
1F
100
AcDbEntity
  8
0
100
AcDbHatch
 10
0.0
 20
0.0
 30
0.0
210
0.0
220
0.0
230
1.0
  2
INSUL
 70
     0
 71
     0
 91
        1
 92
        1
 93
        4
 72
     1
 10
-3.866483591682026
 20
-1232.900433322328
 11
96.13351640831801
 21
-1232.900433322328
 72
     1
 10
96.13351640831801
 20
-1232.900433322328
 11
96.13351640831801
 21
-1132.900433322329
 72
     1
 10
96.13351640831801
 20
-1132.900433322328
 11
-3.866483591682026
 21
-1132.900433322328
 72
     1
 10
-3.866483591682026
 20
-1132.900433322328
 11
-3.866483591682026
 21
-1232.900433322328
 97
        0
 75
     0
 76
     1
 52
0.0
 41
2.0
 77
     0
 78
     3
 53
0.0
 43
0.0
 44
0.0
 45
0.0
 46
19.05
 79
     0
 53
0.0
 43
0.0
 44
6.349999999999997
 45
0.0
 46
19.05
 79
     2
 49
6.349999999999997
 49
-6.349999999999997
 53
0.0
 43
0.0
 44
12.7
 45
0.0
 46
19.05
 79
     2
 49
6.349999999999997
 49
-6.349999999999997
 98
        1
 10
-3.866483591682026
 20
-1232.900433322328
  0
TEXT
  5
537
330
1F
100
AcDbEntity
  8
0
100
AcDbText
 10
4.501080344988053
 20
-2456.557305479484
 30
0.0
 40
10.0
  1
JIS_LC_20
100
AcDbText
  0
HATCH
  5
538
330
1F
100
AcDbEntity
  8
0
100
AcDbHatch
 10
0.0
 20
0.0
 30
0.0
210
0.0
220
0.0
230
1.0
  2
JIS_LC_20
 70
     0
 71
     0
 91
        1
 92
        1
 93
        4
 72
     1
 10
0.0379743322800721
 20
-2436.156646386931
 11
100.0379743322801
 21
-2436.156646386931
 72
     1
 10
100.0379743322801
 20
-2436.156646386931
 11
100.0379743322801
 21
-2336.15664638693
 72
     1
 10
100.0379743322801
 20
-2336.15664638693
 11
0.0379743322800721
 21
-2336.15664638693
 72
     1
 10
0.0379743322800721
 20
-2336.15664638693
 11
0.0379743322800721
 21
-2436.156646386931
 97
        0
 75
     0
 76
     1
 52
0.0
 41
1.0
 77
     0
 78
     2
 53
45.0
 43
-119.9620256677199
 44
-1596.15664638693
 45
-14.14213562373095
 46
14.14213562373095
 79
     0
 53
45.0
 43
-119.5620256677199
 44
-1596.15664638693
 45
-14.14213562373095
 46
14.14213562373095
 79
     0
 98
        1
 10
0.0379743322800721
 20
-2436.156646386931
  0
TEXT
  5
539
330
1F
100
AcDbEntity
  8
0
100
AcDbText
 10
242.1120622709668
 20
-1249.4787007045
 30
0.0
 40
10.0
  1
JIS_LC_20A
100
AcDbText
  0
HATCH
  5
53A
330
1F
100
AcDbEntity
  8
0
100
AcDbHatch
 10
0.0
 20
0.0
 30
0.0
210
0.0
220
0.0
230
1.0
  2
JIS_LC_20A
 70
     0
 71
     0
 91
        1
 92
        1
 93
        4
 72
     1
 10
236.133516408318
 20
-1232.900433322328
 11
336.133516408318
 21
-1232.900433322328
 72
     1
 10
336.133516408318
 20
-1232.900433322328
 11
336.133516408318
 21
-1132.900433322329
 72
     1
 10
336.133516408318
 20
-1132.900433322328
 11
236.133516408318
 21
-1132.900433322328
 72
     1
 10
236.133516408318
 20
-1132.900433322328
 11
236.133516408318
 21
-1232.900433322328
 97
        0
 75
     0
 76
     1
 52
0.0
 41
1.0
 77
     0
 78
     2
 53
45.0
 43
-3.866483591682026
 44
-392.9004333223284
 45
-14.14213562373095
 46
14.14213562373095
 79
     0
 53
45.0
 43
-2.866483591682022
 44
-392.9004333223284
 45
-14.14213562373095
 46
14.14213562373095
 79
     0
 98
        1
 10
236.133516408318
 20
-1232.900433322328
  0
TEXT
  5
53B
330
1F
100
AcDbEntity
  8
0
100
AcDbText
 10
369.8600828182072
 20
-1247.505182591122
 30
0.0
 40
10.0
  1
JIS_LC_8
100
AcDbText
  0
HATCH
  5
53C
330
1F
100
AcDbEntity
  8
0
100
AcDbHatch
 10
0.0
 20
0.0
 30
0.0
210
0.0
220
0.0
230
1.0
  2
JIS_LC_8
 70
     0
 71
     0
 91
        1
 92
        1
 93
        4
 72
     1
 10
356.133516408318
 20
-1232.900433322328
 11
456.1335164083177
 21
-1232.900433322328
 72
     1
 10
456.1335164083177
 20
-1232.900433322328
 11
456.1335164083177
 21
-1132.900433322329
 72
     1
 10
456.1335164083177
 20
-1132.900433322328
 11
356.133516408318
 21
-1132.900433322328
 72
     1
 10
356.133516408318
 20
-1132.900433322328
 11
356.133516408318
 21
-1232.900433322328
 97
        0
 75
     0
 76
     1
 52
0.0
 41
2.0
 77
     0
 78
     2
 53
45.0
 43
0.0
 44
0.0
 45
-11.03086578651014
 46
11.03086578651014
 79
     0
 53
45.0
 43
0.8
 44
0.0
 45
-11.03086578651014
 46
11.03086578651014
 79
     0
 98
        1
 10
356.133516408318
 20
-1232.900433322328
  0
TEXT
  5
53D
330
1F
100
AcDbEntity
  8
0
100
AcDbText
 10
4.013687052614383
 20
-1367.574475631897
 30
0.0
 40
10.0
  1
JIS_RC_30
100
AcDbText
  0
HATCH
  5
53E
330
1F
100
AcDbEntity
  8
0
100
AcDbHatch
 10
0.0
 20
0.0
 30
0.0
210
0.0
220
0.0
230
1.0
  2
JIS_RC_30
 70
     0
 71
     0
 91
        1
 92
        1
 93
        4
 72
     1
 10
-3.866483591682026
 20
-1352.900433322328
 11
96.13351640831801
 21
-1352.900433322328
 72
     1
 10
96.13351640831801
 20
-1352.900433322328
 11
96.13351640831801
 21
-1252.900433322328
 72
     1
 10
96.13351640831801
 20
-1252.900433322328
 11
-3.866483591682026
 21
-1252.900433322328
 72
     1
 10
-3.866483591682026
 20
-1252.900433322328
 11
-3.866483591682026
 21
-1352.900433322328
 97
        0
 75
     0
 76
     1
 52
0.0
 41
1.0
 77
     0
 78
     3
 53
45.0
 43
-3.866483591682026
 44
-392.9004333223284
 45
-21.21320343559642
 46
21.21320343559643
 79
     0
 53
45.0
 43
-2.866483591682022
 44
-392.9004333223284
 45
-21.21320343559642
 46
21.21320343559643
 79
     0
 53
45.0
 43
-1.866483591682024
 44
-392.9004333223284
 45
-21.21320343559642
 46
21.21320343559643
 79
     0
 98
        1
 10
-3.866483591682026
 20
-1352.900433322328
  0
TEXT
  5
53F
330
1F
100
AcDbEntity
  8
0
100
AcDbText
 10
121.9648945639123
 20
-1367.458503611641
 30
0.0
 40
10.0
  1
JIS_STN_1E
100
AcDbText
  0
HATCH
  5
540
330
1F
100
AcDbEntity
  8
0
100
AcDbHatch
 10
0.0
 20
0.0
 30
0.0
210
0.0
220
0.0
230
1.0
  2
JIS_STN_1E
 70
     0
 71
     0
 91
        1
 92
        1
 93
        4
 72
     1
 10
116.1335164083179
 20
-1352.900433322328
 11
216.133516408318
 21
-1352.900433322328
 72
     1
 10
216.133516408318
 20
-1352.900433322328
 11
216.133516408318
 21
-1252.900433322328
 72
     1
 10
216.133516408318
 20
-1252.900433322328
 11
116.1335164083179
 21
-1252.900433322328
 72
     1
 10
116.1335164083179
 20
-1252.900433322328
 11
116.1335164083179
 21
-1352.900433322328
 97
        0
 75
     0
 76
     1
 52
0.0
 41
20.0
 77
     0
 78
     2
 53
45.0
 43
0.0
 44
0.0
 45
-14.14213562373095
 46
14.14213562373095
 79
     0
 53
45.0
 43
14.1
 44
0.0
 45
-14.14213562373095
 46
14.14213562373095
 79
     2
 49
20.0
 49
-10.0
 98
        1
 10
116.1335164083179
 20
-1352.900433322328
  0
TEXT
  5
541
330
1F
100
AcDbEntity
  8
0
100
AcDbText
 10
237.691921609171
 20
-1367.900433322329
 30
0.0
 40
10.0
  1
JIS_STN_2.5
100
AcDbText
  0
HATCH
  5
542
330
1F
100
AcDbEntity
  8
0
100
AcDbHatch
 10
0.0
 20
0.0
 30
0.0
210
0.0
220
0.0
230
1.0
  2
JIS_STN_2.5
 70
     0
 71
     0
 91
        1
 92
        1
 93
        4
 72
     1
 10
236.133516408318
 20
-1352.900433322328
 11
336.133516408318
 21
-1352.900433322328
 72
     1
 10
336.133516408318
 20
-1352.900433322328
 11
336.133516408318
 21
-1252.900433322328
 72
     1
 10
336.133516408318
 20
-1252.900433322328
 11
236.133516408318
 21
-1252.900433322328
 72
     1
 10
236.133516408318
 20
-1252.900433322328
 11
236.133516408318
 21
-1352.900433322328
 97
        0
 75
     0
 76
     1
 52
0.0
 41
10.0
 77
     0
 78
     2
 53
45.0
 43
0.0
 44
0.0
 45
-17.67766952966368
 46
17.67766952966369
 79
     0
 53
45.0
 43
17.65
 44
0.0
 45
-17.67766952966368
 46
17.67766952966369
 79
     2
 49
12.0
 49
-5.0
 98
        1
 10
236.133516408318
 20
-1352.900433322328
  0
TEXT
  5
543
330
1F
100
AcDbEntity
  8
0
100
AcDbText
 10
365.8947750465573
 20
-1368.6167318553
 30
0.0
 40
10.0
  1
JIS_WOOD
100
AcDbText
  0
HATCH
  5
544
330
1F
100
AcDbEntity
  8
0
100
AcDbHatch
 10
0.0
 20
0.0
 30
0.0
210
0.0
220
0.0
230
1.0
  2
JIS_WOOD
 70
     0
 71
     0
 91
        1
 92
        1
 93
        4
 72
     1
 10
356.133516408318
 20
-1352.900433322328
 11
456.1335164083177
 21
-1352.900433322328
 72
     1
 10
456.1335164083177
 20
-1352.900433322328
 11
456.1335164083177
 21
-1252.900433322328
 72
     1
 10
456.1335164083177
 20
-1252.900433322328
 11
356.133516408318
 21
-1252.900433322328
 72
     1
 10
356.133516408318
 20
-1252.900433322328
 11
356.133516408318
 21
-1352.900433322328
 97
        0
 75
     0
 76
     1
 52
0.0
 41
10.0
 77
     0
 78
     1
 53
45.0
 43
0.0
 44
0.0
 45
-4.999999991609841
 46
4.999999991609841
 79
     0
 98
        1
 10
356.133516408318
 20
-1352.900433322328
  0
TEXT
  5
545
330
1F
100
AcDbEntity
  8
0
100
AcDbText
 10
26.13351640831798
 20
-1487.900433322328
 30
0.0
 40
10.0
  1
PLAST
100
AcDbText
  0
HATCH
  5
546
330
1F
100
AcDbEntity
  8
0
100
AcDbHatch
 10
0.0
 20
0.0
 30
0.0
210
0.0
220
0.0
230
1.0
  2
PLAST
 70
     0
 71
     0
 91
        1
 92
        1
 93
        4
 72
     1
 10
-3.866483591682026
 20
-1472.900433322329
 11
96.13351640831801
 21
-1472.900433322329
 72
     1
 10
96.13351640831801
 20
-1472.900433322329
 11
96.13351640831801
 21
-1372.900433322328
 72
     1
 10
96.13351640831801
 20
-1372.900433322328
 11
-3.866483591682026
 21
-1372.900433322328
 72
     1
 10
-3.866483591682026
 20
-1372.900433322328
 11
-3.866483591682026
 21
-1472.900433322329
 97
        0
 75
     0
 76
     1
 52
0.0
 41
2.0
 77
     0
 78
     3
 53
0.0
 43
0.0
 44
0.0
 45
0.0
 46
12.7
 79
     0
 53
0.0
 43
0.0
 44
1.587499999999999
 45
0.0
 46
12.7
 79
     0
 53
0.0
 43
0.0
 44
3.174999999999998
 45
0.0
 46
12.7
 79
     0
 98
        1
 10
-3.866483591682026
 20
-1472.900433322329
  0
TEXT
  5
547
330
1F
100
AcDbEntity
  8
0
100
AcDbText
 10
146.1335164083179
 20
-1487.900433322328
 30
0.0
 40
10.0
  1
PLASTI
100
AcDbText
  0
HATCH
  5
548
330
1F
100
AcDbEntity
  8
0
100
AcDbHatch
 10
0.0
 20
0.0
 30
0.0
210
0.0
220
0.0
230
1.0
  2
PLASTI
 70
     0
 71
     0
 91
        1
 92
        1
 93
        4
 72
     1
 10
116.1335164083179
 20
-1472.900433322329
 11
216.133516408318
 21
-1472.900433322329
 72
     1
 10
216.133516408318
 20
-1472.900433322329
 11
216.133516408318
 21
-1372.900433322328
 72
     1
 10
216.133516408318
 20
-1372.900433322328
 11
116.1335164083179
 21
-1372.900433322328
 72
     1
 10
116.1335164083179
 20
-1372.900433322328
 11
116.1335164083179
 21
-1472.900433322329
 97
        0
 75
     0
 76
     1
 52
0.0
 41
5.0
 77
     0
 78
     4
 53
0.0
 43
0.0
 44
0.0
 45
0.0
 46
31.75
 79
     0
 53
0.0
 43
0.0
 44
3.96875
 45
0.0
 46
31.75
 79
     0
 53
0.0
 43
0.0
 44
7.9375
 45
0.0
 46
31.75
 79
     0
 53
0.0
 43
0.0
 44
19.84375
 45
0.0
 46
31.75
 79
     0
 98
        1
 10
116.1335164083179
 20
-1472.900433322329
  0
TEXT
  5
549
330
1F
100
AcDbEntity
  8
0
100
AcDbText
 10
266.133516408318
 20
-1487.900433322328
 30
0.0
 40
10.0
  1
SACNCR
100
AcDbText
  0
HATCH
  5
54A
330
1F
100
AcDbEntity
  8
0
100
AcDbHatch
 10
0.0
 20
0.0
 30
0.0
210
0.0
220
0.0
230
1.0
  2
SACNCR
 70
     0
 71
     0
 91
        1
 92
        1
 93
        4
 72
     1
 10
236.133516408318
 20
-1472.900433322329
 11
336.133516408318
 21
-1472.900433322329
 72
     1
 10
336.133516408318
 20
-1472.900433322329
 11
336.133516408318
 21
-1372.900433322328
 72
     1
 10
336.133516408318
 20
-1372.900433322328
 11
236.133516408318
 21
-1372.900433322328
 72
     1
 10
236.133516408318
 20
-1372.900433322328
 11
236.133516408318
 21
-1472.900433322329
 97
        0
 75
     0
 76
     1
 52
0.0
 41
5.0
 77
     0
 78
     2
 53
45.0
 43
0.0
 44
0.0
 45
-8.41899011350233
 46
8.41899011350233
 79
     0
 53
45.0
 43
8.419
 44
0.0
 45
-8.41899011350233
 46
8.41899011350233
 79
     2
 49
0.0
 49
-11.90625
 98
        1
 10
236.133516408318
 20
-1472.900433322329
  0
TEXT
  5
54B
330
1F
100
AcDbEntity
  8
0
100
AcDbText
 10
378.9951758230809
 20
-1487.895343928696
 30
0.0
 40
10.0
  1
SQUARE
100
AcDbText
  0
HATCH
  5
54C
330
1F
100
AcDbEntity
  8
0
100
AcDbHatch
 10
0.0
 20
0.0
 30
0.0
210
0.0
220
0.0
230
1.0
  2
SQUARE
 70
     0
 71
     0
 91
        1
 92
        1
 93
        4
 72
     1
 10
356.133516408318
 20
-1472.900433322329
 11
456.1335164083177
 21
-1472.900433322329
 72
     1
 10
456.1335164083177
 20
-1472.900433322329
 11
456.1335164083177
 21
-1372.900433322328
 72
     1
 10
456.1335164083177
 20
-1372.900433322328
 11
356.133516408318
 21
-1372.900433322328
 72
     1
 10
356.133516408318
 20
-1372.900433322328
 11
356.133516408318
 21
-1472.900433322329
 97
        0
 75
     0
 76
     1
 52
0.0
 41
4.0
 77
     0
 78
     2
 53
0.0
 43
0.0
 44
0.0
 45
0.0
 46
12.7
 79
     2
 49
12.7
 49
-12.7
 53
90.0
 43
0.0
 44
0.0
 45
-12.7
 46
0.0000000000000008
 79
     2
 49
12.7
 49
-12.7
 98
        1
 10
356.133516408318
 20
-1472.900433322329
  0
TEXT
  5
54D
330
1F
100
AcDbEntity
  8
0
100
AcDbText
 10
139.5409344865524
 20
-1245.469243565638
 30
0.0
 40
10.0
  1
TRIANG
100
AcDbText
  0
HATCH
  5
54E
330
1F
100
AcDbEntity
  8
0
100
AcDbHatch
 10
0.0
 20
0.0
 30
0.0
210
0.0
220
0.0
230
1.0
  2
TRIANG
 70
     0
 71
     0
 91
        1
 92
        1
 93
        4
 72
     1
 10
115.7023506506424
 20
-1234.943244145022
 11
215.7023506506425
 21
-1234.943244145022
 72
     1
 10
215.7023506506425
 20
-1234.943244145022
 11
215.7023506506425
 21
-1134.943244145022
 72
     1
 10
215.7023506506425
 20
-1134.943244145022
 11
115.7023506506424
 21
-1134.943244145022
 72
     1
 10
115.7023506506424
 20
-1134.943244145022
 11
115.7023506506424
 21
-1234.943244145022
 97
        0
 75
     0
 76
     1
 52
0.0
 41
2.0
 77
     0
 78
     3
 53
60.0
 43
0.0
 44
0.0
 45
-9.524996586046832
 46
16.49778197104678
 79
     2
 49
9.525
 49
-9.525
 53
120.0
 43
0.0
 44
0.0
 45
-19.04999658604683
 46
0.0000019710467836
 79
     2
 49
9.525
 49
-9.525
 53
0.0
 43
-4.7625
 44
8.2489
 45
9.525
 46
16.49778
 79
     2
 49
9.525
 49
-9.525
 98
        1
 10
115.7023506506424
 20
-1234.943244145022
  0
TEXT
  5
54F
330
1F
100
AcDbEntity
  8
0
100
AcDbText
 10
135.1688403273114
 20
-765.6629913245982
 30
0.0
 40
10.0
  1
ZIGZAG
100
AcDbText
  0
HATCH
  5
550
330
1F
100
AcDbEntity
  8
0
100
AcDbHatch
 10
0.0
 20
0.0
 30
0.0
210
0.0
220
0.0
230
1.0
  2
ZIGZAG
 70
     0
 71
     0
 91
        1
 92
        1
 93
        4
 72
     1
 10
119.06083043052
 20
-749.1258636871378
 11
219.0608304305202
 21
-749.1258636871378
 72
     1
 10
219.0608304305202
 20
-749.1258636871378
 11
219.0608304305202
 21
-649.1258636871378
 72
     1
 10
219.0608304305202
 20
-649.1258636871378
 11
119.06083043052
 21
-649.1258636871378
 72
     1
 10
119.06083043052
 20
-649.1258636871378
 11
119.06083043052
 21
-749.1258636871378
 97
        0
 75
     0
 76
     1
 52
0.0
 41
2.0
 77
     0
 78
     2
 53
0.0
 43
-0.9391695694798723
 44
450.8741363128623
 45
6.349999999999997
 46
6.349999999999997
 79
     2
 49
6.349999999999997
 49
-6.349999999999997
 53
90.0
 43
5.410830430520124
 44
450.8741363128623
 45
-6.349999999999997
 46
6.349999999999997
 79
     2
 49
6.349999999999997
 49
-6.349999999999997
 98
        1
 10
119.06083043052
 20
-749.1258636871378
  0
TEXT
  5
55D
330
1F
100
AcDbEntity
  8
0
100
AcDbText
 10
27.56759285488124
 20
-1967.243139662999
 30
0.0
 40
10.0
  1
GRAVEL
100
AcDbText
  0
HATCH
  5
55E
330
1F
100
AcDbEntity
  8
0
100
AcDbHatch
 10
0.0
 20
0.0
 30
0.0
210
0.0
220
0.0
230
1.0
  2
GRAVEL
 70
     0
 71
     0
 91
        1
 92
        1
 93
        4
 72
     1
 10
-2.432407145118981
 20
-1952.243139662999
 11
97.56759285488101
 21
-1952.243139662999
 72
     1
 10
97.56759285488101
 20
-1952.243139662999
 11
97.56759285488101
 21
-1852.243139662999
 72
     1
 10
97.56759285488101
 20
-1852.243139662999
 11
-2.432407145118986
 21
-1852.243139662999
 72
     1
 10
-2.432407145118981
 20
-1852.243139662999
 11
-2.432407145118981
 21
-1952.243139662999
 97
        0
 75
     0
 76
     1
 52
0.0
 41
1.0
 77
     0
 78
    42
 53
228.0128
 43
-464.1444071451187
 44
-1206.843139662999
 45
-203.2001726589601
 46
-228.6002808951258
 79
     2
 49
3.417209999999998
 49
-338.305
 53
184.9697
 43
-466.4304071451186
 44
-1209.383139662999
 45
304.8004930617913
 46
25.39982075387458
 79
     2
 49
5.864049999999997
 49
-580.5399999999997
 53
132.5104
 43
-472.2724071451187
 44
-1209.891139662999
 45
253.9998151833169
 46
-279.4002729246041
 79
     2
 49
4.134819999999998
 49
-409.3469999999999
 53
267.2737
 43
-482.1784071451187
 44
-1216.241139662999
 45
25.39988970828173
 46
507.9998365336641
 79
     2
 49
5.340049999999997
 49
-528.664
 53
292.8337
 43
-482.4324071451187
 44
-1221.575139662999
 45
-127.000360555019
 46
304.8001733005111
 79
     2
 49
5.23634
 49
-518.398
 53
357.2737
 43
-480.4004071451188
 44
-1226.401139662999
 45
-507.9998365336641
 46
25.39988970828175
 79
     2
 49
5.340049999999997
 49
-528.664
 53
37.6942
 43
-475.0664071451187
 44
-1226.655139662999
 45
-330.2002086123993
 46
-253.9997735698489
 79
     2
 49
7.061939999999997
 49
-699.1310000000003
 53
72.2553
 43
-469.4784071451187
 44
-1222.337139662999
 45
177.8003556546719
 46
558.8001620603638
 79
     2
 49
6.6672
 49
-660.053
 53
121.4296
 43
-467.4464071451187
 44
-1215.987139662999
 45
-203.2000523526448
 46
330.1996115997269
 79
     2
 49
5.35813
 49
-530.455
 53
175.2364
 43
-470.2404071451186
 44
-1211.415139662999
 45
279.3997805305445
 46
-25.39976162721156
 79
     2
 49
6.117129999999994
 49
-299.7389999999998
 53
222.3974
 43
-476.3364071451187
 44
-1210.907139662999
 45
-304.8000091723971
 46
-279.3996365063697
 79
     2
 49
7.910779999999999
 49
-783.168
 53
138.8141
 43
-457.0324071451188
 44
-1216.495139662999
 45
-177.7998867422473
 46
152.3997655712399
 79
     2
 49
2.70005
 49
-267.306
 53
171.4692
 43
-459.0644071451187
 44
-1214.717139662999
 45
330.199495955914
 46
-50.80012800045697
 79
     2
 49
5.136819999999992
 49
-508.5459999999994
 53
225.0
 43
-464.1444071451187
 44
-1213.955139662999
 45
-0.0000000000000053
 46
-25.39998268700197
 79
     2
 49
3.59209
 49
-32.3289
 53
203.1986
 43
-465.9224071451188
 44
-1210.907139662999
 45
127.0004282559083
 46
50.80022274306265
 79
     2
 49
1.934409999999995
 49
-191.5059999999998
 53
291.8014
 43
-467.7004071451187
 44
-1211.669139662999
 45
-25.40001781894509
 46
76.20004908731864
 79
     2
 49
2.735659999999998
 49
-134.048
 53
30.9638
 43
-466.6844071451187
 44
-1214.209139662999
 45
76.19991954808226
 46
50.80003958660552
 79
     2
 49
4.443199999999995
 49
-143.6629999999998
 53
161.5651
 43
-462.8744071451187
 44
-1211.923139662999
 45
50.80002318180981
 46
-25.39996222465077
 79
     2
 49
3.21287
 49
-77.10899999999998
 53
16.38950000000001
 43
-482.4324071451187
 44
-1211.669139662999
 45
254.0001401396935
 46
76.19984149967804
 79
     2
 49
4.50088
 49
-445.588
 53
70.3462
 43
-478.1144071451187
 44
-1210.399139662999
 45
-101.5997168867651
 46
-279.39960488545
 79
     2
 49
3.77599
 49
-373.822
 53
293.1986
 43
-462.8744071451187
 44
-1206.843139662999
 45
-50.80022274306264
 46
127.0004282559083
 79
     2
 49
3.868799999999998
 49
-189.572
 53
343.6105
 43
-461.3504071451187
 44
-1210.399139662999
 45
-254.0001401396935
 46
76.19984149967812
 79
     2
 49
4.500879999999994
 49
-445.5879999999996
 53
339.4440000000001
 43
-482.4324071451187
 44
-1227.417139662999
 45
-127.0001576425591
 46
50.79993836050139
 79
     2
 49
4.340349999999999
 49
-212.677
 53
294.7751
 43
-478.3684071451187
 44
-1228.941139662999
 45
-126.9997040362684
 46
279.3998702615667
 79
     2
 49
3.636719999999995
 49
-360.0359999999996
 53
66.8014
 43
-462.6204071451186
 44
-1232.243139662999
 45
50.80022274306267
 46
127.0004282559083
 79
     2
 49
3.868799999999998
 49
-189.572
 53
17.354
 43
-461.0964071451187
 44
-1228.687139662999
 45
-330.2000178185996
 46
-101.5998467560563
 79
     2
 49
4.257829999999993
 49
-421.5239999999995
 53
69.444
 43
-475.0664071451187
 44
-1232.243139662999
 45
-50.79993836050144
 46
-127.000157642559
 79
     2
 49
2.170179999999995
 49
-214.848
 53
101.3098999999999
 43
-464.1444071451187
 44
-1232.243139662999
 45
-25.39987462887348
 46
101.5996746090262
 79
     2
 49
1.295149999999998
 49
-128.22
 53
165.9638
 43
-464.3984071451186
 44
-1230.973139662999
 45
76.20005354697173
 46
-25.39995604123642
 79
     2
 49
5.23634
 49
-99.49049999999999
 53
186.009
 43
-469.4784071451187
 44
-1229.703139662999
 45
253.9996254442795
 46
25.39994068547859
 79
     2
 49
4.852669999999998
 49
-480.414
 53
303.6901
 43
-466.6844071451187
 44
-1216.495139662999
 45
-25.40000871307233
 46
50.79995099231839
 79
     2
 49
3.66324
 49
-87.91780000000001
 53
353.1572
 43
-464.6524071451187
 44
-1219.543139662999
 45
431.8001785664342
 46
-50.8002275165484
 79
     2
 49
6.395569999999997
 49
-633.1599999999999
 53
60.94540000000001
 43
-458.3024071451188
 44
-1220.305139662999
 45
-101.5997636582909
 46
-177.7995761083412
 79
     2
 49
2.615079999999998
 49
-258.894
 53
90.0
 43
-457.0324071451188
 44
-1218.019139662999
 45
-25.4
 46
25.4
 79
     2
 49
1.524
 49
-23.876
 53
120.2564
 43
-469.9864071451187
 44
-1228.941139662999
 45
101.5997846683611
 46
-177.7999103247756
 79
     2
 49
3.528669999999998
 49
-349.339
 53
48.01279999999999
 43
-471.7644071451188
 44
-1225.893139662999
 45
203.2001726589601
 46
228.6002808951258
 79
     2
 49
6.83443
 49
-334.888
 53
0.0
 43
-467.1924071451186
 44
-1220.813139662999
 45
25.4
 46
25.4
 79
     2
 49
6.604
 49
-18.796
 53
325.3048
 43
-460.5884071451186
 44
-1220.813139662999
 45
-253.9995599095369
 46
177.8000169048476
 79
     2
 49
4.016099999999998
 49
-397.593
 53
254.0546
 43
-457.2864071451187
 44
-1223.099139662999
 45
-25.40006479701474
 46
-101.6002420320363
 79
     2
 49
3.69829
 49
-181.217
 53
207.6459999999999
 43
-458.3024071451188
 44
-1226.655139662999
 45
-482.5998304902271
 46
-254.0001597472339
 79
     2
 49
6.021449999999997
 49
-596.1249999999997
 53
175.4261
 43
-463.6364071451187
 44
-1229.449139662999
 45
-330.2000760474751
 46
25.39987711219462
 79
     2
 49
6.370289999999994
 49
-630.6579999999992
 53
175.4261
 43
-463.6364071451187
 44
-1229.449139662999
 45
-330.2000760474751
 46
25.39987711219462
 79
     2
 49
6.370289999999994
 49
-630.6579999999992
 98
        1
 10
-2.432407145118981
 20
-1952.243139662999
  0
TEXT
  5
55F
330
1F
100
AcDbEntity
  8
0
100
AcDbText
 10
147.567592854881
 20
-1967.243139662999
 30
0.0
 40
10.0
  1
HEX
100
AcDbText
  0
HATCH
  5
560
330
1F
100
AcDbEntity
  8
0
100
AcDbHatch
 10
0.0
 20
0.0
 30
0.0
210
0.0
220
0.0
230
1.0
  2
HEX
 70
     0
 71
     0
 91
        1
 92
        1
 93
        4
 72
     1
 10
117.5675928548811
 20
-1952.243139662999
 11
217.5675928548811
 21
-1952.243139662999
 72
     1
 10
217.5675928548811
 20
-1952.243139662999
 11
217.5675928548811
 21
-1852.243139662999
 72
     1
 10
217.5675928548811
 20
-1852.243139662999
 11
117.5675928548811
 21
-1852.243139662999
 72
     1
 10
117.5675928548811
 20
-1852.243139662999
 11
117.5675928548811
 21
-1952.243139662999
 97
        0
 75
     0
 76
     1
 52
0.0
 41
1.0
 77
     0
 78
     3
 53
0.0
 43
-482.4324071451187
 44
-1232.243139662999
 45
0.0
 46
5.499259999999997
 79
     2
 49
3.174999999999998
 49
-6.349999999999997
 53
120.0
 43
-482.4324071451187
 44
-1232.243139662999
 45
-4.762498862015611
 46
-2.749629999999998
 79
     2
 49
3.174999999999995
 49
-6.349999999999994
 53
60.0
 43
-479.2574071451187
 44
-1232.243139662999
 45
-4.762498862015611
 46
2.749629999999998
 79
     2
 49
3.174999999999998
 49
-6.349999999999997
 98
        1
 10
117.5675928548811
 20
-1952.243139662999
  0
TEXT
  5
561
330
1F
100
AcDbEntity
  8
0
100
AcDbText
 10
267.5675928548811
 20
-1967.243139662999
 30
0.0
 40
10.0
  1
HONEY
100
AcDbText
  0
HATCH
  5
562
330
1F
100
AcDbEntity
  8
0
100
AcDbHatch
 10
0.0
 20
0.0
 30
0.0
210
0.0
220
0.0
230
1.0
  2
HONEY
 70
     0
 71
     0
 91
        1
 92
        1
 93
        4
 72
     1
 10
237.5675928548812
 20
-1952.243139662999
 11
337.5675928548811
 21
-1952.243139662999
 72
     1
 10
337.5675928548811
 20
-1952.243139662999
 11
337.5675928548811
 21
-1852.243139662999
 72
     1
 10
337.5675928548811
 20
-1852.243139662999
 11
237.5675928548812
 21
-1852.243139662999
 72
     1
 10
237.5675928548812
 20
-1852.243139662999
 11
237.5675928548812
 21
-1952.243139662999
 97
        0
 75
     0
 76
     1
 52
0.0
 41
2.0
 77
     0
 78
     3
 53
0.0
 43
-482.4324071451187
 44
-1232.243139662999
 45
9.525
 46
5.499259999999997
 79
     2
 49
6.349999999999997
 49
-12.7
 53
120.0
 43
-482.4324071451187
 44
-1232.243139662999
 45
-9.524998862015607
 46
5.499261971046781
 79
     2
 49
6.349999999999994
 49
-12.69999999999999
 53
60.0
 43
-482.4324071451187
 44
-1232.243139662999
 45
0.0000011379843894
 46
10.99852197104677
 79
     2
 49
-12.7
 49
6.349999999999997
 98
        1
 10
237.5675928548812
 20
-1952.243139662999
  0
TEXT
  5
563
330
1F
100
AcDbEntity
  8
0
100
AcDbText
 10
387.5675928548814
 20
-1967.243139662999
 30
0.0
 40
10.0
  1
HOUND
100
AcDbText
  0
HATCH
  5
564
330
1F
100
AcDbEntity
  8
0
100
AcDbHatch
 10
0.0
 20
0.0
 30
0.0
210
0.0
220
0.0
230
1.0
  2
HOUND
 70
     0
 71
     0
 91
        1
 92
        1
 93
        4
 72
     1
 10
357.5675928548812
 20
-1952.243139662999
 11
457.5675928548811
 21
-1952.243139662999
 72
     1
 10
457.5675928548811
 20
-1952.243139662999
 11
457.5675928548811
 21
-1852.243139662999
 72
     1
 10
457.5675928548811
 20
-1852.243139662999
 11
357.5675928548812
 21
-1852.243139662999
 72
     1
 10
357.5675928548812
 20
-1852.243139662999
 11
357.5675928548812
 21
-1952.243139662999
 97
        0
 75
     0
 76
     1
 52
0.0
 41
3.0
 77
     0
 78
     2
 53
0.0
 43
-482.4324071451187
 44
-1232.243139662999
 45
19.05
 46
4.762499999999998
 79
     2
 49
76.19999999999997
 49
-38.1
 53
90.0
 43
-482.4324071451187
 44
-1232.243139662999
 45
-4.762500000000001
 46
-19.05
 79
     2
 49
76.19999999999997
 49
-38.1
 98
        1
 10
357.5675928548812
 20
-1952.243139662999
  0
TEXT
  5
565
330
1F
100
AcDbEntity
  8
0
100
AcDbText
 10
7.769204822587937
 20
-2087.743683961152
 30
0.0
 40
10.0
  1
JIS_LC_8A
100
AcDbText
  0
HATCH
  5
566
330
1F
100
AcDbEntity
  8
0
100
AcDbHatch
 10
0.0
 20
0.0
 30
0.0
210
0.0
220
0.0
230
1.0
  2
JIS_LC_8A
 70
     0
 71
     0
 91
        1
 92
        1
 93
        4
 72
     1
 10
-2.432407145118981
 20
-2072.243139662999
 11
97.56759285488101
 21
-2072.243139662999
 72
     1
 10
97.56759285488101
 20
-2072.243139662999
 11
97.56759285488101
 21
-1972.243139663
 72
     1
 10
97.56759285488101
 20
-1972.243139662999
 11
-2.432407145118986
 21
-1972.243139662999
 72
     1
 10
-2.432407145118981
 20
-1972.243139662999
 11
-2.432407145118981
 21
-2072.243139662999
 97
        0
 75
     0
 76
     1
 52
0.0
 41
1.0
 77
     0
 78
     2
 53
45.0
 43
-482.4324071451187
 44
-1232.243139662999
 45
-5.51543289325507
 46
5.515432893255071
 79
     0
 53
45.0
 43
-481.4324071451188
 44
-1232.243139662999
 45
-5.51543289325507
 46
5.515432893255071
 79
     0
 98
        1
 10
-2.432407145118981
 20
-2072.243139662999
  0
TEXT
  5
567
330
1F
100
AcDbEntity
  8
0
100
AcDbText
 10
127.103749784789
 20
-2087.126228516115
 30
0.0
 40
10.0
  1
JIS_RC_10
100
AcDbText
  0
HATCH
  5
568
330
1F
100
AcDbEntity
  8
0
100
AcDbHatch
 10
0.0
 20
0.0
 30
0.0
210
0.0
220
0.0
230
1.0
  2
JIS_RC_10
 70
     0
 71
     0
 91
        1
 92
        1
 93
        4
 72
     1
 10
117.5675928548811
 20
-2072.243139662999
 11
217.5675928548811
 21
-2072.243139662999
 72
     1
 10
217.5675928548811
 20
-2072.243139662999
 11
217.5675928548811
 21
-1972.243139663
 72
     1
 10
217.5675928548811
 20
-1972.243139662999
 11
117.5675928548811
 21
-1972.243139662999
 72
     1
 10
117.5675928548811
 20
-1972.243139662999
 11
117.5675928548811
 21
-2072.243139662999
 97
        0
 75
     0
 76
     1
 52
0.0
 41
1.0
 77
     0
 78
     3
 53
45.0
 43
-482.4324071451187
 44
-1232.243139662999
 45
-7.071067811865472
 46
7.071067811865475
 79
     0
 53
45.0
 43
-481.7074071451187
 44
-1232.243139662999
 45
-7.071067811865472
 46
7.071067811865475
 79
     0
 53
45.0
 43
-480.9824071451187
 44
-1232.243139662999
 45
-7.071067811865472
 46
7.071067811865475
 79
     0
 98
        1
 10
117.5675928548811
 20
-2072.243139662999
  0
TEXT
  5
569
330
1F
100
AcDbEntity
  8
0
100
AcDbText
 10
247.9182653615726
 20
-2087.920910492936
 30
0.0
 40
10.0
  1
JIS_RC_15
100
AcDbText
  0
HATCH
  5
56A
330
1F
100
AcDbEntity
  8
0
100
AcDbHatch
 10
0.0
 20
0.0
 30
0.0
210
0.0
220
0.0
230
1.0
  2
JIS_RC_15
 70
     0
 71
     0
 91
        1
 92
        1
 93
        4
 72
     1
 10
237.5675928548812
 20
-2072.243139662999
 11
337.5675928548811
 21
-2072.243139662999
 72
     1
 10
337.5675928548811
 20
-2072.243139662999
 11
337.5675928548811
 21
-1972.243139663
 72
     1
 10
337.5675928548811
 20
-1972.243139662999
 11
237.5675928548812
 21
-1972.243139662999
 72
     1
 10
237.5675928548812
 20
-1972.243139662999
 11
237.5675928548812
 21
-2072.243139662999
 97
        0
 75
     0
 76
     1
 52
0.0
 41
1.0
 77
     0
 78
     3
 53
45.0
 43
-482.4324071451187
 44
-1232.243139662999
 45
-10.60660171779821
 46
10.60660171779821
 79
     0
 53
45.0
 43
-481.7074071451187
 44
-1232.243139662999
 45
-10.60660171779821
 46
10.60660171779821
 79
     0
 53
45.0
 43
-480.9824071451187
 44
-1232.243139662999
 45
-10.60660171779821
 46
10.60660171779821
 79
     0
 98
        1
 10
237.5675928548812
 20
-2072.243139662999
  0
TEXT
  5
56B
330
1F
100
AcDbEntity
  8
0
100
AcDbText
 10
364.7586211261176
 20
-2087.920910492936
 30
0.0
 40
10.0
  1
JIS_RC_18
100
AcDbText
  0
HATCH
  5
56C
330
1F
100
AcDbEntity
  8
0
100
AcDbHatch
 10
0.0
 20
0.0
 30
0.0
210
0.0
220
0.0
230
1.0
  2
JIS_RC_18
 70
     0
 71
     0
 91
        1
 92
        1
 93
        4
 72
     1
 10
357.5675928548812
 20
-2072.243139662999
 11
457.5675928548811
 21
-2072.243139662999
 72
     1
 10
457.5675928548811
 20
-2072.243139662999
 11
457.5675928548811
 21
-1972.243139663
 72
     1
 10
457.5675928548811
 20
-1972.243139662999
 11
357.5675928548812
 21
-1972.243139662999
 72
     1
 10
357.5675928548812
 20
-1972.243139662999
 11
357.5675928548812
 21
-2072.243139662999
 97
        0
 75
     0
 76
     1
 52
0.0
 41
1.0
 77
     0
 78
     3
 53
45.0
 43
-482.4324071451187
 44
-1232.243139662999
 45
-12.72792206135785
 46
12.72792206135785
 79
     0
 53
45.0
 43
-481.4324071451188
 44
-1232.243139662999
 45
-12.72792206135785
 46
12.72792206135785
 79
     0
 53
45.0
 43
-480.4324071451187
 44
-1232.243139662999
 45
-12.72792206135785
 46
12.72792206135785
 79
     0
 98
        1
 10
357.5675928548812
 20
-2072.243139662999
  0
TEXT
  5
56D
330
1F
100
AcDbEntity
  8
0
100
AcDbText
 10
27.56759285488124
 20
-2207.243139662999
 30
0.0
 40
10.0
  1
LINE
100
AcDbText
  0
HATCH
  5
56E
330
1F
100
AcDbEntity
  8
0
100
AcDbHatch
 10
0.0
 20
0.0
 30
0.0
210
0.0
220
0.0
230
1.0
  2
LINE
 70
     0
 71
     0
 91
        1
 92
        1
 93
        4
 72
     1
 10
-2.432407145118981
 20
-2192.243139662999
 11
97.56759285488101
 21
-2192.243139662999
 72
     1
 10
97.56759285488101
 20
-2192.243139662999
 11
97.56759285488101
 21
-2092.243139662999
 72
     1
 10
97.56759285488101
 20
-2092.243139662999
 11
-2.432407145118986
 21
-2092.243139662999
 72
     1
 10
-2.432407145118981
 20
-2092.243139662999
 11
-2.432407145118981
 21
-2192.243139662999
 97
        0
 75
     0
 76
     1
 52
0.0
 41
2.0
 77
     0
 78
     1
 53
0.0
 43
0.0
 44
0.0
 45
0.0
 46
6.349999999999997
 79
     0
 98
        1
 10
-2.432407145118981
 20
-2192.243139662999
  0
TEXT
  5
56F
330
1F
100
AcDbEntity
  8
0
100
AcDbText
 10
147.567592854881
 20
-2207.243139662999
 30
0.0
 40
10.0
  1
MUDST
100
AcDbText
  0
HATCH
  5
570
330
1F
100
AcDbEntity
  8
0
100
AcDbHatch
 10
0.0
 20
0.0
 30
0.0
210
0.0
220
0.0
230
1.0
  2
MUDST
 70
     0
 71
     0
 91
        1
 92
        1
 93
        4
 72
     1
 10
117.5675928548811
 20
-2192.243139662999
 11
217.5675928548811
 21
-2192.243139662999
 72
     1
 10
217.5675928548811
 20
-2192.243139662999
 11
217.5675928548811
 21
-2092.243139662999
 72
     1
 10
217.5675928548811
 20
-2092.243139662999
 11
117.5675928548811
 21
-2092.243139662999
 72
     1
 10
117.5675928548811
 20
-2092.243139662999
 11
117.5675928548811
 21
-2192.243139662999
 97
        0
 75
     0
 76
     1
 52
0.0
 41
2.0
 77
     0
 78
     1
 53
0.0
 43
0.0
 44
0.0
 45
25.4
 46
12.7
 79
     6
 49
12.7
 49
-12.7
 49
0.0
 49
-12.7
 49
0.0
 49
-12.7
 98
        1
 10
117.5675928548811
 20
-2192.243139662999
  0
TEXT
  5
571
330
1F
100
AcDbEntity
  8
0
100
AcDbText
 10
267.5675928548811
 20
-2207.243139662999
 30
0.0
 40
10.0
  1
NET
100
AcDbText
  0
HATCH
  5
572
330
1F
100
AcDbEntity
  8
0
100
AcDbHatch
 10
0.0
 20
0.0
 30
0.0
210
0.0
220
0.0
230
1.0
  2
NET
 70
     0
 71
     0
 91
        1
 92
        1
 93
        4
 72
     1
 10
237.5675928548812
 20
-2192.243139662999
 11
337.5675928548811
 21
-2192.243139662999
 72
     1
 10
337.5675928548811
 20
-2192.243139662999
 11
337.5675928548811
 21
-2092.243139662999
 72
     1
 10
337.5675928548811
 20
-2092.243139662999
 11
237.5675928548812
 21
-2092.243139662999
 72
     1
 10
237.5675928548812
 20
-2092.243139662999
 11
237.5675928548812
 21
-2192.243139662999
 97
        0
 75
     0
 76
     1
 52
0.0
 41
2.0
 77
     0
 78
     2
 53
0.0
 43
0.0
 44
0.0
 45
0.0
 46
6.349999999999997
 79
     0
 53
90.0
 43
0.0
 44
0.0
 45
-6.349999999999997
 46
0.0000000000000004
 79
     0
 98
        1
 10
237.5675928548812
 20
-2192.243139662999
  0
TEXT
  5
573
330
1F
100
AcDbEntity
  8
0
100
AcDbText
 10
387.5675928548814
 20
-2207.243139662999
 30
0.0
 40
10.0
  1
NET3
100
AcDbText
  0
HATCH
  5
574
330
1F
100
AcDbEntity
  8
0
100
AcDbHatch
 10
0.0
 20
0.0
 30
0.0
210
0.0
220
0.0
230
1.0
  2
NET3
 70
     0
 71
     0
 91
        1
 92
        1
 93
        4
 72
     1
 10
357.5675928548812
 20
-2192.243139662999
 11
457.5675928548811
 21
-2192.243139662999
 72
     1
 10
457.5675928548811
 20
-2192.243139662999
 11
457.5675928548811
 21
-2092.243139662999
 72
     1
 10
457.5675928548811
 20
-2092.243139662999
 11
357.5675928548812
 21
-2092.243139662999
 72
     1
 10
357.5675928548812
 20
-2092.243139662999
 11
357.5675928548812
 21
-2192.243139662999
 97
        0
 75
     0
 76
     1
 52
0.0
 41
5.0
 77
     0
 78
     3
 53
0.0
 43
0.0
 44
0.0
 45
0.0
 46
15.875
 79
     0
 53
60.0
 43
0.0
 44
0.0
 45
-13.74815328507796
 46
7.9375
 79
     0
 53
120.0
 43
0.0
 44
0.0
 45
-13.74815328507796
 46
-7.937499999999996
 79
     0
 98
        1
 10
357.5675928548812
 20
-2192.243139662999
  0
TEXT
  5
575
330
1F
100
AcDbEntity
  8
0
100
AcDbText
 10
27.56759285488124
 20
-2327.243139662999
 30
0.0
 40
10.0
  1
STARS
100
AcDbText
  0
HATCH
  5
576
330
1F
100
AcDbEntity
  8
0
100
AcDbHatch
 10
0.0
 20
0.0
 30
0.0
210
0.0
220
0.0
230
1.0
  2
STARS
 70
     0
 71
     0
 91
        1
 92
        1
 93
        4
 72
     1
 10
-2.432407145118981
 20
-2312.243139662999
 11
97.56759285488101
 21
-2312.243139662999
 72
     1
 10
97.56759285488101
 20
-2312.243139662999
 11
97.56759285488101
 21
-2212.243139662999
 72
     1
 10
97.56759285488101
 20
-2212.243139662999
 11
-2.432407145118986
 21
-2212.243139662999
 72
     1
 10
-2.432407145118981
 20
-2212.243139662999
 11
-2.432407145118981
 21
-2312.243139662999
 97
        0
 75
     0
 76
     1
 52
0.0
 41
2.0
 77
     0
 78
     3
 53
0.0
 43
0.0
 44
0.0
 45
0.0
 46
10.99852
 79
     2
 49
6.349999999999997
 49
-6.349999999999997
 53
60.0
 43
0.0
 44
0.0
 45
-9.524997724031225
 46
5.499259999999998
 79
     2
 49
6.349999999999997
 49
-6.349999999999997
 53
120.0
 43
3.174999999999998
 44
5.499259999999997
 45
-9.524997724031225
 46
-5.499259999999996
 79
     2
 49
6.349999999999997
 49
-6.349999999999997
 98
        1
 10
-2.432407145118981
 20
-2312.243139662999
  0
TEXT
  5
577
330
1F
100
AcDbEntity
  8
0
100
AcDbText
 10
147.567592854881
 20
-2327.243139662999
 30
0.0
 40
10.0
  1
STEEL
100
AcDbText
  0
HATCH
  5
578
330
1F
100
AcDbEntity
  8
0
100
AcDbHatch
 10
0.0
 20
0.0
 30
0.0
210
0.0
220
0.0
230
1.0
  2
STEEL
 70
     0
 71
     0
 91
        1
 92
        1
 93
        4
 72
     1
 10
117.5675928548811
 20
-2312.243139662999
 11
217.5675928548811
 21
-2312.243139662999
 72
     1
 10
217.5675928548811
 20
-2312.243139662999
 11
217.5675928548811
 21
-2212.243139662999
 72
     1
 10
217.5675928548811
 20
-2212.243139662999
 11
117.5675928548811
 21
-2212.243139662999
 72
     1
 10
117.5675928548811
 20
-2212.243139662999
 11
117.5675928548811
 21
-2312.243139662999
 97
        0
 75
     0
 76
     1
 52
0.0
 41
4.0
 77
     0
 78
     2
 53
45.0
 43
0.0
 44
0.0
 45
-8.98025612106915
 46
8.98025612106915
 79
     0
 53
45.0
 43
0.0
 44
6.349999999999997
 45
-8.98025612106915
 46
8.98025612106915
 79
     0
 98
        1
 10
117.5675928548811
 20
-2312.243139662999
  0
TEXT
  5
579
330
1F
100
AcDbEntity
  8
0
100
AcDbText
 10
267.5675928548811
 20
-2327.243139662999
 30
0.0
 40
10.0
  1
SWAMP
100
AcDbText
  0
HATCH
  5
57A
330
1F
100
AcDbEntity
  8
0
100
AcDbHatch
 10
0.0
 20
0.0
 30
0.0
210
0.0
220
0.0
230
1.0
  2
SWAMP
 70
     0
 71
     0
 91
        1
 92
        1
 93
        4
 72
     1
 10
237.5675928548812
 20
-2312.243139662999
 11
337.5675928548811
 21
-2312.243139662999
 72
     1
 10
337.5675928548811
 20
-2312.243139662999
 11
337.5675928548811
 21
-2212.243139662999
 72
     1
 10
337.5675928548811
 20
-2212.243139662999
 11
237.5675928548812
 21
-2212.243139662999
 72
     1
 10
237.5675928548812
 20
-2212.243139662999
 11
237.5675928548812
 21
-2312.243139662999
 97
        0
 75
     0
 76
     1
 52
0.0
 41
1.0
 77
     0
 78
     6
 53
0.0
 43
0.0
 44
0.0
 45
12.7
 46
21.997
 79
     2
 49
3.174999999999998
 49
-22.225
 53
90.0
 43
1.587499999999999
 44
0.0
 45
-12.7
 46
21.997
 79
     2
 49
1.587499999999999
 49
-42.4066
 53
90.0
 43
1.984379999999999
 44
0.0
 45
-12.7
 46
21.997
 79
     2
 49
1.27
 49
-42.72409999999999
 53
90.0
 43
1.19062
 44
0.0
 45
-12.7
 46
21.997
 79
     2
 49
1.27
 49
-42.72409999999999
 53
60.0
 43
2.38125
 44
0.0
 45
-12.69996080704629
 46
21.99702262806237
 79
     2
 49
1.016
 49
-24.384
 53
120.0
 43
0.79375
 44
0.0
 45
-25.3999608070463
 46
0.0000226280623767
 79
     2
 49
1.016
 49
-24.384
 98
        1
 10
237.5675928548812
 20
-2312.243139662999
  0
TEXT
  5
57B
330
1F
100
AcDbEntity
  8
0
100
AcDbText
 10
387.5675928548814
 20
-2327.243139662999
 30
0.0
 40
10.0
  1
TRANS
100
AcDbText
  0
HATCH
  5
57C
330
1F
100
AcDbEntity
  8
0
100
AcDbHatch
 10
0.0
 20
0.0
 30
0.0
210
0.0
220
0.0
230
1.0
  2
TRANS
 70
     0
 71
     0
 91
        1
 92
        1
 93
        4
 72
     1
 10
357.5675928548812
 20
-2312.243139662999
 11
457.5675928548811
 21
-2312.243139662999
 72
     1
 10
457.5675928548811
 20
-2312.243139662999
 11
457.5675928548811
 21
-2212.243139662999
 72
     1
 10
457.5675928548811
 20
-2212.243139662999
 11
357.5675928548812
 21
-2212.243139662999
 72
     1
 10
357.5675928548812
 20
-2212.243139662999
 11
357.5675928548812
 21
-2312.243139662999
 97
        0
 75
     0
 76
     1
 52
0.0
 41
2.0
 77
     0
 78
     2
 53
0.0
 43
0.0
 44
0.0
 45
0.0
 46
12.7
 79
     0
 53
0.0
 43
0.0
 44
6.349999999999997
 45
0.0
 46
12.7
 79
     2
 49
6.349999999999997
 49
-6.349999999999997
 98
        1
 10
357.5675928548812
 20
-2312.243139662999
  0
TEXT
  5
62B
330
1F
100
AcDbEntity
  8
0
100
AcDbText
 10
9.479595287266873
 20
123.7982305182522
 30
0.0
 40
10.0
  1
ANSI:
100
AcDbText
  0
TEXT
  5
633
330
1F
100
AcDbEntity
  8
0
100
AcDbText
 10
10.92901535124792
 20
-155.6399420626903
 30
0.0
 40
10.0
  1
ISO:
100
AcDbText
  0
TEXT
  5
63E
330
1F
100
AcDbEntity
  8
0
100
AcDbText
 10
-2.603013924048809
 20
-642.9176318082509
 30
0.0
 40
10.0
  1
Other:
100
AcDbText
  0
MTEXT
  5
6EB
330
1F
100
AcDbEntity
  8
0
100
AcDbMText
 10
12.31818851284834
 20
288.3212134173077
 30
0.0
 40
10.0
 41
301.2589828351011
 71
     1
 72
     5
  1
Popular:
 73
     1
 44
1.0
1001
ACAD
1000
MTEXTBEGIN
1070
    73
1070
     1
1070
    44
1040
1.0
1070
    74
1070
     0
1000
MTEXTEND
  0
ENDSEC
  0
SECTION
  2
OBJECTS
  0
DICTIONARY
  5
C
330
0
100
AcDbDictionary
281
     1
  3
ACAD_COLOR
350
6B
  3
ACAD_GROUP
350
D
  3
ACAD_LAYOUT
350
1A
  3
ACAD_MATERIAL
350
6A
  3
ACAD_MLINESTYLE
350
17
  3
ACAD_PLOTSETTINGS
350
19
  3
ACAD_PLOTSTYLENAME
350
E
  3
ACAD_TABLESTYLE
350
7E
  3
ACDBHEADERROUNDTRIPXREC
350
912
  3
AcDbVariableDictionary
350
5E
  3
DWGPROPS
350
911
  0
DICTIONARY
  5
21C
330
2
100
AcDbDictionary
280
     1
281
     1
  3
ACAD_LAYERSTATES
360
21D
  0
DICTIONARY
  5
EE
330
1F
100
AcDbDictionary
280
     1
281
     1
  3
ACAD_SORTENTS
360
EF
  0
DICTIONARY
  5
3C3
330
392
100
AcDbDictionary
280
     1
281
     1
  3
ACAD_SORTENTS
360
3C4
  0
DICTIONARY
  5
4C2
330
461
100
AcDbDictionary
280
     1
281
     1
  3
ACAD_SORTENTS
360
4C3
  0
DICTIONARY
  5
6B
102
{ACAD_REACTORS
330
C
102
}
330
C
100
AcDbDictionary
281
     1
  0
DICTIONARY
  5
D
102
{ACAD_REACTORS
330
C
102
}
330
C
100
AcDbDictionary
281
     1
  0
DICTIONARY
  5
1A
102
{ACAD_REACTORS
330
C
102
}
330
C
100
AcDbDictionary
281
     1
  3
Layout1
350
5B0
  3
Model
350
22
  0
DICTIONARY
  5
6A
102
{ACAD_REACTORS
330
C
102
}
330
C
100
AcDbDictionary
281
     1
  0
DICTIONARY
  5
17
102
{ACAD_REACTORS
330
C
102
}
330
C
100
AcDbDictionary
281
     1
  3
Standard
350
18
  0
DICTIONARY
  5
19
102
{ACAD_REACTORS
330
C
102
}
330
C
100
AcDbDictionary
281
     1
  0
ACDBDICTIONARYWDFLT
  5
E
102
{ACAD_REACTORS
330
C
102
}
330
C
100
AcDbDictionary
281
     1
  3
Normal
350
F
100
AcDbDictionaryWithDefault
340
F
  0
DICTIONARY
  5
7E
102
{ACAD_REACTORS
330
C
102
}
330
C
100
AcDbDictionary
281
     1
  3
Standard
350
7F
  0
DICTIONARY
  5
912
102
{ACAD_REACTORS
330
C
102
}
330
C
100
AcDbDictionary
281
     1
  0
DICTIONARY
  5
5E
102
{ACAD_REACTORS
330
C
102
}
330
C
100
AcDbDictionary
281
     1
  3
CTABLESTYLE
350
84
  3
DIMASSOC
350
5F
  3
HIDETEXT
350
63
  3
PROJECTNAME
350
30D
  0
XRECORD
  5
911
102
{ACAD_REACTORS
330
C
102
}
330
C
100
AcDbXrecord
280
     1
  1
DWGPROPS COOKIE
  2

  3

  4

  6

  7

  8
Autodesk
  9

300
=
301
=
302
=
303
=
304
=
305
=
306
=
307
=
308
=
309
=
 40
0.2994073263888889
 41
2453999.544071366
 42
2454245.67490882
  1

 90
        0
  0
DICTIONARY
  5
21D
102
{ACAD_REACTORS
330
21C
102
}
330
21C
100
AcDbDictionary
281
     1
  0
SORTENTSTABLE
  5
EF
102
{ACAD_REACTORS
330
EE
102
}
330
EE
100
AcDbSortentsTable
330
1F
  0
SORTENTSTABLE
  5
3C4
102
{ACAD_REACTORS
330
3C3
102
}
330
3C3
100
AcDbSortentsTable
330
392
  0
SORTENTSTABLE
  5
4C3
102
{ACAD_REACTORS
330
4C2
102
}
330
4C2
100
AcDbSortentsTable
330
461
  0
LAYOUT
  5
5B0
102
{ACAD_XDICTIONARY
360
915
102
}
102
{ACAD_REACTORS
330
1A
102
}
330
1A
100
AcDbPlotSettings
  1

  2
Microsoft Office Document Image Writer
  4

  6

 40
0.0
 41
0.0
 42
0.0
 43
0.0
 44
0.0
 45
0.0
 46
0.0
 47
0.0
 48
0.0
 49
0.0
140
0.0
141
0.0
142
1.0
143
1.0
 70
   688
 72
     0
 73
     0
 74
     5
  7

 75
    16
147
1.0
148
0.0
149
0.0
100
AcDbLayout
  1
Layout1
 70
     1
 71
     1
 10
0.0
 20
0.0
 11
12.0
 21
9.0
 12
0.0
 22
0.0
 32
0.0
 14
0.0
 24
0.0
 34
0.0
 15
0.0
 25
0.0
 35
0.0
146
0.0
 13
0.0
 23
0.0
 33
0.0
 16
1.0
 26
0.0
 36
0.0
 17
0.0
 27
1.0
 37
0.0
 76
     0
330
5AF
  0
LAYOUT
  5
22
102
{ACAD_XDICTIONARY
360
913
102
}
102
{ACAD_REACTORS
330
1A
102
}
330
1A
100
AcDbPlotSettings
  1

  2
none_device
  4
ISO_A4_(210.00_x_297.00_MM)
  6

 40
7.5
 41
20.0
 42
7.5
 43
20.0
 44
210.0
 45
297.0
 46
11.54999923706054
 47
-13.65000009536743
 48
0.0
 49
0.0
140
0.0
141
0.0
142
1.0
143
8.704084754739808
 70
 11952
 72
     1
 73
     0
 74
     0
  7

 75
     0
147
0.1148885871608098
148
0.0
149
0.0
100
AcDbLayout
  1
Model
 70
     1
 71
     0
 10
0.0
 20
0.0
 11
12.0
 21
9.0
 12
0.0
 22
0.0
 32
0.0
 14
0.0
 24
0.0
 34
0.0
 15
0.0
 25
0.0
 35
0.0
146
0.0
 13
0.0
 23
0.0
 33
0.0
 16
1.0
 26
0.0
 36
0.0
 17
0.0
 27
1.0
 37
0.0
 76
     0
330
1F
1001
ACAD_PSEXT
1000
None
1000
None
1000
Not applicable
1000
The layout will not be plotted unless a new plotter configuration name is selected.
1070
     0
  0
MLINESTYLE
  5
18
102
{ACAD_REACTORS
330
17
102
}
330
17
100
AcDbMlineStyle
  2
STANDARD
 70
     0
  3

 62
   256
 51
90.0
 52
90.0
 71
     2
 49
0.5
 62
   256
  6
BYLAYER
 49
-0.5
 62
   256
  6
BYLAYER
  0
ACDBPLACEHOLDER
  5
F
102
{ACAD_REACTORS
330
E
102
}
330
E
  0
TABLESTYLE
  5
7F
102
{ACAD_REACTORS
330
7E
102
}
330
7E
100
AcDbTableStyle
  3
Standard
 70
     0
 71
     0
 40
1.5
 41
1.5
280
     0
281
     0
  7
Standard
140
4.5
170
     2
 62
     0
 63
     7
283
     0
274
    -2
284
     1
 64
     0
275
    -2
285
     1
 65
     0
276
    -2
286
     1
 66
     0
277
    -2
287
     1
 67
     0
278
    -2
288
     1
 68
     0
279
    -2
289
     1
 69
     0
  7
Standard
140
6.0
170
     5
 62
     0
 63
     7
283
     0
274
    -2
284
     1
 64
     0
275
    -2
285
     1
 65
     0
276
    -2
286
     1
 66
     0
277
    -2
287
     1
 67
     0
278
    -2
288
     1
 68
     0
279
    -2
289
     1
 69
     0
  7
Standard
140
4.5
170
     5
 62
     0
 63
     7
283
     0
274
    -2
284
     1
 64
     0
275
    -2
285
     1
 65
     0
276
    -2
286
     1
 66
     0
277
    -2
287
     1
 67
     0
278
    -2
288
     1
 68
     0
279
    -2
289
     1
 69
     0
  0
DICTIONARYVAR
  5
84
102
{ACAD_REACTORS
330
5E
102
}
330
5E
100
DictionaryVariables
280
     0
  1
STANDARD
  0
DICTIONARYVAR
  5
5F
102
{ACAD_REACTORS
330
5E
102
}
330
5E
100
DictionaryVariables
280
     0
  1
2
  0
DICTIONARYVAR
  5
63
102
{ACAD_REACTORS
330
5E
102
}
330
5E
100
DictionaryVariables
280
     0
  1
1
  0
DICTIONARYVAR
  5
30D
102
{ACAD_REACTORS
330
5E
102
}
330
5E
100
DictionaryVariables
280
     0
  1

  0
DICTIONARY
  5
915
330
5B0
100
AcDbDictionary
280
     1
281
     1
  3
ACAD_XREC_ROUNDTRIP
360
916
  0
DICTIONARY
  5
913
330
22
100
AcDbDictionary
280
     1
281
     1
  3
ACAD_XREC_ROUNDTRIP
360
914
  0
XRECORD
  5
916
102
{ACAD_REACTORS
330
915
102
}
330
915
100
AcDbXrecord
280
     1
102
SHADEPLOT
 70
     0
102
SHADEPLOTRESLEVEL
 70
     2
102
SHADEPLOTCUSTOMDPI
 70
   300
  0
XRECORD
  5
914
102
{ACAD_REACTORS
330
913
102
}
330
913
100
AcDbXrecord
280
     1
102
SHADEPLOT
 70
     0
102
SHADEPLOTRESLEVEL
 70
     2
102
SHADEPLOTCUSTOMDPI
 70
   300
  0
ENDSEC
  0
EOF
