ISO-10303-21;
HEADER;
/* Generated by software containing ST-Developer
 * from STEP Tools, Inc. (www.steptools.com) 
 */
/* OPTION: strings as raw bytes, not using required /X/ escapes */

FILE_DESCRIPTION(
/* description */ ('Unknown'),
/* implementation_level */ '2;1');

FILE_NAME(
/* name */ '28800X',
/* time_stamp */ '2026-01-21T16:33:52+07:00',
/* author */ ('Unknown'),
/* organization */ ('Unknown'),
/* preprocessor_version */ 'ST-DEVELOPER v20',
/* originating_system */ 'Solid Edge',
/* authorisation */ 'Unknown');

FILE_SCHEMA (('AUTOMOTIVE_DESIGN {1 0 10303 214 3 1 1}'));
ENDSEC;

DATA;
#10=PROPERTY_DEFINITION_REPRESENTATION(#14,#12);
#11=PROPERTY_DEFINITION_REPRESENTATION(#15,#13);
#12=REPRESENTATION('',(#16),#1110);
#13=REPRESENTATION('',(#17),#1110);
#14=PROPERTY_DEFINITION('pmi validation property','',#1123);
#15=PROPERTY_DEFINITION('pmi validation property','',#1123);
#16=VALUE_REPRESENTATION_ITEM('number of annotations',COUNT_MEASURE(0.));
#17=VALUE_REPRESENTATION_ITEM('number of views',COUNT_MEASURE(0.));
#18=CONTEXT_DEPENDENT_SHAPE_REPRESENTATION(#26,#1126);
#19=CONTEXT_DEPENDENT_SHAPE_REPRESENTATION(#27,#1129);
#20=CONTEXT_DEPENDENT_SHAPE_REPRESENTATION(#28,#1130);
#21=CONTEXT_DEPENDENT_SHAPE_REPRESENTATION(#29,#1131);
#22=NEXT_ASSEMBLY_USAGE_OCCURRENCE('Part1','Part1','Part1',#1133,#1134,
'');
#23=NEXT_ASSEMBLY_USAGE_OCCURRENCE('Extruded','Extruded','Extruded',#1135,
#1136,'');
#24=NEXT_ASSEMBLY_USAGE_OCCURRENCE('737110528','737110528','737110528',
#1133,#1135,'');
#25=NEXT_ASSEMBLY_USAGE_OCCURRENCE('U1','U1','U1',#1132,#1133,'');
#26=(
REPRESENTATION_RELATIONSHIP(' ',' ',#656,#657)
REPRESENTATION_RELATIONSHIP_WITH_TRANSFORMATION(#30)
SHAPE_REPRESENTATION_RELATIONSHIP()
);
#27=(
REPRESENTATION_RELATIONSHIP(' ',' ',#658,#659)
REPRESENTATION_RELATIONSHIP_WITH_TRANSFORMATION(#31)
SHAPE_REPRESENTATION_RELATIONSHIP()
);
#28=(
REPRESENTATION_RELATIONSHIP(' ',' ',#659,#657)
REPRESENTATION_RELATIONSHIP_WITH_TRANSFORMATION(#32)
SHAPE_REPRESENTATION_RELATIONSHIP()
);
#29=(
REPRESENTATION_RELATIONSHIP(' ',' ',#657,#660)
REPRESENTATION_RELATIONSHIP_WITH_TRANSFORMATION(#33)
SHAPE_REPRESENTATION_RELATIONSHIP()
);
#30=ITEM_DEFINED_TRANSFORMATION(' ',' ',#661,#722);
#31=ITEM_DEFINED_TRANSFORMATION(' ',' ',#661,#729);
#32=ITEM_DEFINED_TRANSFORMATION(' ',' ',#661,#730);
#33=ITEM_DEFINED_TRANSFORMATION(' ',' ',#661,#731);
#34=SHAPE_REPRESENTATION_RELATIONSHIP('','',#656,#36);
#35=SHAPE_REPRESENTATION_RELATIONSHIP('','',#658,#37);
#36=ADVANCED_BREP_SHAPE_REPRESENTATION('',(#649),#1112);
#37=ADVANCED_BREP_SHAPE_REPRESENTATION('',(#650),#1114);
#38=CONICAL_SURFACE('',#683,9.16904136648,1.368841300048);
#39=CYLINDRICAL_SURFACE('',#668,11.5);
#40=CYLINDRICAL_SURFACE('',#671,11.5);
#41=CYLINDRICAL_SURFACE('',#674,11.5);
#42=CYLINDRICAL_SURFACE('',#679,5.9);
#43=CYLINDRICAL_SURFACE('',#685,1.);
#44=CYLINDRICAL_SURFACE('',#688,1.);
#45=CYLINDRICAL_SURFACE('',#691,2.);
#46=CYLINDRICAL_SURFACE('',#694,2.);
#47=CYLINDRICAL_SURFACE('',#698,10.);
#48=CYLINDRICAL_SURFACE('',#700,11.5);
#49=CYLINDRICAL_SURFACE('',#718,4.);
#50=CYLINDRICAL_SURFACE('',#719,2.5);
#51=CYLINDRICAL_SURFACE('',#720,2.5);
#52=CYLINDRICAL_SURFACE('',#721,4.);
#53=LINE('',#932,#97);
#54=LINE('',#935,#98);
#55=LINE('',#937,#99);
#56=LINE('',#939,#100);
#57=LINE('',#941,#101);
#58=LINE('',#944,#102);
#59=LINE('',#946,#103);
#60=LINE('',#948,#104);
#61=LINE('',#950,#105);
#62=LINE('',#953,#106);
#63=LINE('',#955,#107);
#64=LINE('',#957,#108);
#65=LINE('',#962,#109);
#66=LINE('',#966,#110);
#67=LINE('',#973,#111);
#68=LINE('',#1030,#112);
#69=LINE('',#1034,#113);
#70=LINE('',#1036,#114);
#71=LINE('',#1038,#115);
#72=LINE('',#1040,#116);
#73=LINE('',#1042,#117);
#74=LINE('',#1044,#118);
#75=LINE('',#1046,#119);
#76=LINE('',#1049,#120);
#77=LINE('',#1053,#121);
#78=LINE('',#1055,#122);
#79=LINE('',#1062,#123);
#80=LINE('',#1064,#124);
#81=LINE('',#1068,#125);
#82=LINE('',#1070,#126);
#83=LINE('',#1072,#127);
#84=LINE('',#1074,#128);
#85=LINE('',#1081,#129);
#86=LINE('',#1084,#130);
#87=LINE('',#1086,#131);
#88=LINE('',#1088,#132);
#89=LINE('',#1090,#133);
#90=LINE('',#1093,#134);
#91=LINE('',#1095,#135);
#92=LINE('',#1097,#136);
#93=LINE('',#1099,#137);
#94=LINE('',#1100,#138);
#95=LINE('',#1102,#139);
#96=LINE('',#1104,#140);
#97=VECTOR('',#742,1000.);
#98=VECTOR('',#743,1000.);
#99=VECTOR('',#744,1000.);
#100=VECTOR('',#745,1000.);
#101=VECTOR('',#748,1000.);
#102=VECTOR('',#749,1000.);
#103=VECTOR('',#750,1000.);
#104=VECTOR('',#751,1000.);
#105=VECTOR('',#754,1000.);
#106=VECTOR('',#755,1000.);
#107=VECTOR('',#756,1000.);
#108=VECTOR('',#757,1000.);
#109=VECTOR('',#762,1000.);
#110=VECTOR('',#765,1000.);
#111=VECTOR('',#776,1000.);
#112=VECTOR('',#829,1000.);
#113=VECTOR('',#832,1000.);
#114=VECTOR('',#835,1000.);
#115=VECTOR('',#836,1000.);
#116=VECTOR('',#837,1000.);
#117=VECTOR('',#840,1000.);
#118=VECTOR('',#841,1000.);
#119=VECTOR('',#842,1000.);
#120=VECTOR('',#847,1000.);
#121=VECTOR('',#850,1000.);
#122=VECTOR('',#853,1000.);
#123=VECTOR('',#862,1000.);
#124=VECTOR('',#865,1000.);
#125=VECTOR('',#868,1000.);
#126=VECTOR('',#871,1000.);
#127=VECTOR('',#874,1000.);
#128=VECTOR('',#877,1000.);
#129=VECTOR('',#890,1000.);
#130=VECTOR('',#891,1000.);
#131=VECTOR('',#892,1000.);
#132=VECTOR('',#893,1000.);
#133=VECTOR('',#896,1000.);
#134=VECTOR('',#897,1000.);
#135=VECTOR('',#898,1000.);
#136=VECTOR('',#899,1000.);
#137=VECTOR('',#902,1000.);
#138=VECTOR('',#903,1000.);
#139=VECTOR('',#906,1000.);
#140=VECTOR('',#909,1000.);
#141=PLANE('',#665);
#142=PLANE('',#666);
#143=PLANE('',#667);
#144=PLANE('',#677);
#145=PLANE('',#681);
#146=PLANE('',#697);
#147=PLANE('',#703);
#148=PLANE('',#704);
#149=PLANE('',#705);
#150=PLANE('',#710);
#151=PLANE('',#715);
#152=PLANE('',#716);
#153=PLANE('',#717);
#154=PLANE('',#723);
#155=PLANE('',#724);
#156=PLANE('',#725);
#157=PLANE('',#726);
#158=PLANE('',#727);
#159=PLANE('',#728);
#160=B_SPLINE_CURVE_WITH_KNOTS('',6,(#922,#923,#924,#925,#926,#927,#928),
 .UNSPECIFIED.,.F.,.F.,(7,7),(0.,1.570796326795),.UNSPECIFIED.);
#161=B_SPLINE_CURVE_WITH_KNOTS('',1,(#980,#981),.UNSPECIFIED.,.F.,.F.,(2,
2),(0.,7.25),.UNSPECIFIED.);
#162=B_SPLINE_CURVE_WITH_KNOTS('',1,(#988,#989),.UNSPECIFIED.,.F.,.F.,(2,
2),(-7.863209438426,0.),.UNSPECIFIED.);
#163=B_SPLINE_CURVE_WITH_KNOTS('',1,(#993,#994),.UNSPECIFIED.,.F.,.F.,(2,
2),(8.5,10.),.UNSPECIFIED.);
#164=B_SPLINE_CURVE_WITH_KNOTS('',1,(#1000,#1001),.UNSPECIFIED.,.F.,.F.,
(2,2),(8.5,10.),.UNSPECIFIED.);
#165=B_SPLINE_CURVE_WITH_KNOTS('',1,(#1007,#1008),.UNSPECIFIED.,.F.,.F.,
(2,2),(8.5,10.),.UNSPECIFIED.);
#166=B_SPLINE_CURVE_WITH_KNOTS('',1,(#1014,#1015),.UNSPECIFIED.,.F.,.F.,
(2,2),(8.5,10.),.UNSPECIFIED.);
#167=B_SPLINE_CURVE_WITH_KNOTS('',1,(#1022,#1023),.UNSPECIFIED.,.F.,.F.,
(2,2),(0.3,9.9),.UNSPECIFIED.);
#168=ORIENTED_EDGE('',*,*,#334,.T.);
#169=ORIENTED_EDGE('',*,*,#335,.T.);
#170=ORIENTED_EDGE('',*,*,#336,.F.);
#171=ORIENTED_EDGE('',*,*,#335,.F.);
#172=ORIENTED_EDGE('',*,*,#337,.F.);
#173=ORIENTED_EDGE('',*,*,#338,.T.);
#174=ORIENTED_EDGE('',*,*,#339,.T.);
#175=ORIENTED_EDGE('',*,*,#340,.F.);
#176=ORIENTED_EDGE('',*,*,#341,.F.);
#177=ORIENTED_EDGE('',*,*,#342,.T.);
#178=ORIENTED_EDGE('',*,*,#343,.T.);
#179=ORIENTED_EDGE('',*,*,#344,.F.);
#180=ORIENTED_EDGE('',*,*,#345,.T.);
#181=ORIENTED_EDGE('',*,*,#346,.F.);
#182=ORIENTED_EDGE('',*,*,#347,.F.);
#183=ORIENTED_EDGE('',*,*,#348,.T.);
#184=ORIENTED_EDGE('',*,*,#349,.T.);
#185=ORIENTED_EDGE('',*,*,#350,.F.);
#186=ORIENTED_EDGE('',*,*,#351,.F.);
#187=ORIENTED_EDGE('',*,*,#352,.T.);
#188=ORIENTED_EDGE('',*,*,#353,.F.);
#189=ORIENTED_EDGE('',*,*,#340,.T.);
#190=ORIENTED_EDGE('',*,*,#354,.T.);
#191=ORIENTED_EDGE('',*,*,#348,.F.);
#192=ORIENTED_EDGE('',*,*,#355,.T.);
#193=ORIENTED_EDGE('',*,*,#356,.F.);
#194=ORIENTED_EDGE('',*,*,#357,.F.);
#195=ORIENTED_EDGE('',*,*,#344,.T.);
#196=ORIENTED_EDGE('',*,*,#358,.F.);
#197=ORIENTED_EDGE('',*,*,#359,.T.);
#198=ORIENTED_EDGE('',*,*,#360,.F.);
#199=ORIENTED_EDGE('',*,*,#359,.F.);
#200=ORIENTED_EDGE('',*,*,#358,.T.);
#201=ORIENTED_EDGE('',*,*,#361,.T.);
#202=ORIENTED_EDGE('',*,*,#362,.T.);
#203=ORIENTED_EDGE('',*,*,#363,.T.);
#204=ORIENTED_EDGE('',*,*,#362,.F.);
#205=ORIENTED_EDGE('',*,*,#361,.F.);
#206=ORIENTED_EDGE('',*,*,#364,.F.);
#207=ORIENTED_EDGE('',*,*,#365,.F.);
#208=ORIENTED_EDGE('',*,*,#364,.T.);
#209=ORIENTED_EDGE('',*,*,#366,.F.);
#210=ORIENTED_EDGE('',*,*,#367,.F.);
#211=ORIENTED_EDGE('',*,*,#368,.F.);
#212=ORIENTED_EDGE('',*,*,#367,.T.);
#213=ORIENTED_EDGE('',*,*,#369,.F.);
#214=ORIENTED_EDGE('',*,*,#370,.F.);
#215=ORIENTED_EDGE('',*,*,#371,.F.);
#216=ORIENTED_EDGE('',*,*,#370,.T.);
#217=ORIENTED_EDGE('',*,*,#372,.F.);
#218=ORIENTED_EDGE('',*,*,#373,.F.);
#219=ORIENTED_EDGE('',*,*,#374,.F.);
#220=ORIENTED_EDGE('',*,*,#373,.T.);
#221=ORIENTED_EDGE('',*,*,#375,.F.);
#222=ORIENTED_EDGE('',*,*,#336,.T.);
#223=ORIENTED_EDGE('',*,*,#363,.F.);
#224=ORIENTED_EDGE('',*,*,#334,.F.);
#225=ORIENTED_EDGE('',*,*,#376,.T.);
#226=ORIENTED_EDGE('',*,*,#377,.T.);
#227=ORIENTED_EDGE('',*,*,#376,.F.);
#228=ORIENTED_EDGE('',*,*,#378,.F.);
#229=ORIENTED_EDGE('',*,*,#379,.T.);
#230=ORIENTED_EDGE('',*,*,#380,.T.);
#231=ORIENTED_EDGE('',*,*,#381,.F.);
#232=ORIENTED_EDGE('',*,*,#382,.F.);
#233=ORIENTED_EDGE('',*,*,#383,.T.);
#234=ORIENTED_EDGE('',*,*,#384,.T.);
#235=ORIENTED_EDGE('',*,*,#352,.F.);
#236=ORIENTED_EDGE('',*,*,#385,.T.);
#237=ORIENTED_EDGE('',*,*,#386,.F.);
#238=ORIENTED_EDGE('',*,*,#387,.F.);
#239=ORIENTED_EDGE('',*,*,#381,.T.);
#240=ORIENTED_EDGE('',*,*,#347,.T.);
#241=ORIENTED_EDGE('',*,*,#388,.T.);
#242=ORIENTED_EDGE('',*,*,#341,.T.);
#243=ORIENTED_EDGE('',*,*,#357,.T.);
#244=ORIENTED_EDGE('',*,*,#389,.T.);
#245=ORIENTED_EDGE('',*,*,#390,.T.);
#246=ORIENTED_EDGE('',*,*,#391,.T.);
#247=ORIENTED_EDGE('',*,*,#378,.T.);
#248=ORIENTED_EDGE('',*,*,#387,.T.);
#249=ORIENTED_EDGE('',*,*,#392,.T.);
#250=ORIENTED_EDGE('',*,*,#382,.T.);
#251=ORIENTED_EDGE('',*,*,#351,.T.);
#252=ORIENTED_EDGE('',*,*,#393,.T.);
#253=ORIENTED_EDGE('',*,*,#394,.T.);
#254=ORIENTED_EDGE('',*,*,#337,.T.);
#255=ORIENTED_EDGE('',*,*,#353,.T.);
#256=ORIENTED_EDGE('',*,*,#377,.F.);
#257=ORIENTED_EDGE('',*,*,#375,.T.);
#258=ORIENTED_EDGE('',*,*,#372,.T.);
#259=ORIENTED_EDGE('',*,*,#369,.T.);
#260=ORIENTED_EDGE('',*,*,#366,.T.);
#261=ORIENTED_EDGE('',*,*,#395,.F.);
#262=ORIENTED_EDGE('',*,*,#345,.F.);
#263=ORIENTED_EDGE('',*,*,#354,.F.);
#264=ORIENTED_EDGE('',*,*,#339,.F.);
#265=ORIENTED_EDGE('',*,*,#396,.F.);
#266=ORIENTED_EDGE('',*,*,#397,.F.);
#267=ORIENTED_EDGE('',*,*,#349,.F.);
#268=ORIENTED_EDGE('',*,*,#384,.F.);
#269=ORIENTED_EDGE('',*,*,#398,.F.);
#270=ORIENTED_EDGE('',*,*,#385,.F.);
#271=ORIENTED_EDGE('',*,*,#380,.F.);
#272=ORIENTED_EDGE('',*,*,#399,.F.);
#273=ORIENTED_EDGE('',*,*,#400,.F.);
#274=ORIENTED_EDGE('',*,*,#401,.F.);
#275=ORIENTED_EDGE('',*,*,#355,.F.);
#276=ORIENTED_EDGE('',*,*,#343,.F.);
#277=ORIENTED_EDGE('',*,*,#374,.T.);
#278=ORIENTED_EDGE('',*,*,#371,.T.);
#279=ORIENTED_EDGE('',*,*,#368,.T.);
#280=ORIENTED_EDGE('',*,*,#365,.T.);
#281=ORIENTED_EDGE('',*,*,#360,.T.);
#282=ORIENTED_EDGE('',*,*,#401,.T.);
#283=ORIENTED_EDGE('',*,*,#402,.F.);
#284=ORIENTED_EDGE('',*,*,#389,.F.);
#285=ORIENTED_EDGE('',*,*,#356,.T.);
#286=ORIENTED_EDGE('',*,*,#397,.T.);
#287=ORIENTED_EDGE('',*,*,#403,.F.);
#288=ORIENTED_EDGE('',*,*,#393,.F.);
#289=ORIENTED_EDGE('',*,*,#350,.T.);
#290=ORIENTED_EDGE('',*,*,#391,.F.);
#291=ORIENTED_EDGE('',*,*,#404,.T.);
#292=ORIENTED_EDGE('',*,*,#399,.T.);
#293=ORIENTED_EDGE('',*,*,#379,.F.);
#294=ORIENTED_EDGE('',*,*,#404,.F.);
#295=ORIENTED_EDGE('',*,*,#390,.F.);
#296=ORIENTED_EDGE('',*,*,#402,.T.);
#297=ORIENTED_EDGE('',*,*,#400,.T.);
#298=ORIENTED_EDGE('',*,*,#383,.F.);
#299=ORIENTED_EDGE('',*,*,#392,.F.);
#300=ORIENTED_EDGE('',*,*,#386,.T.);
#301=ORIENTED_EDGE('',*,*,#398,.T.);
#302=ORIENTED_EDGE('',*,*,#342,.F.);
#303=ORIENTED_EDGE('',*,*,#388,.F.);
#304=ORIENTED_EDGE('',*,*,#346,.T.);
#305=ORIENTED_EDGE('',*,*,#395,.T.);
#306=ORIENTED_EDGE('',*,*,#394,.F.);
#307=ORIENTED_EDGE('',*,*,#403,.T.);
#308=ORIENTED_EDGE('',*,*,#396,.T.);
#309=ORIENTED_EDGE('',*,*,#338,.F.);
#310=ORIENTED_EDGE('',*,*,#405,.F.);
#311=ORIENTED_EDGE('',*,*,#406,.F.);
#312=ORIENTED_EDGE('',*,*,#407,.F.);
#313=ORIENTED_EDGE('',*,*,#408,.F.);
#314=ORIENTED_EDGE('',*,*,#409,.T.);
#315=ORIENTED_EDGE('',*,*,#410,.T.);
#316=ORIENTED_EDGE('',*,*,#411,.T.);
#317=ORIENTED_EDGE('',*,*,#412,.T.);
#318=ORIENTED_EDGE('',*,*,#413,.T.);
#319=ORIENTED_EDGE('',*,*,#405,.T.);
#320=ORIENTED_EDGE('',*,*,#414,.F.);
#321=ORIENTED_EDGE('',*,*,#412,.F.);
#322=ORIENTED_EDGE('',*,*,#415,.T.);
#323=ORIENTED_EDGE('',*,*,#406,.T.);
#324=ORIENTED_EDGE('',*,*,#413,.F.);
#325=ORIENTED_EDGE('',*,*,#411,.F.);
#326=ORIENTED_EDGE('',*,*,#416,.T.);
#327=ORIENTED_EDGE('',*,*,#407,.T.);
#328=ORIENTED_EDGE('',*,*,#415,.F.);
#329=ORIENTED_EDGE('',*,*,#410,.F.);
#330=ORIENTED_EDGE('',*,*,#414,.T.);
#331=ORIENTED_EDGE('',*,*,#408,.T.);
#332=ORIENTED_EDGE('',*,*,#416,.F.);
#333=ORIENTED_EDGE('',*,*,#409,.F.);
#334=EDGE_CURVE('',#417,#417,#472,.T.);
#335=EDGE_CURVE('',#417,#418,#160,.T.);
#336=EDGE_CURVE('',#418,#418,#473,.T.);
#337=EDGE_CURVE('',#419,#420,#53,.T.);
#338=EDGE_CURVE('',#419,#421,#54,.T.);
#339=EDGE_CURVE('',#421,#422,#55,.T.);
#340=EDGE_CURVE('',#420,#422,#56,.T.);
#341=EDGE_CURVE('',#423,#424,#57,.T.);
#342=EDGE_CURVE('',#423,#425,#58,.T.);
#343=EDGE_CURVE('',#425,#426,#59,.T.);
#344=EDGE_CURVE('',#424,#426,#60,.T.);
#345=EDGE_CURVE('',#427,#428,#61,.T.);
#346=EDGE_CURVE('',#429,#428,#62,.T.);
#347=EDGE_CURVE('',#430,#429,#63,.T.);
#348=EDGE_CURVE('',#430,#427,#64,.T.);
#349=EDGE_CURVE('',#431,#432,#474,.T.);
#350=EDGE_CURVE('',#433,#432,#65,.T.);
#351=EDGE_CURVE('',#434,#433,#475,.T.);
#352=EDGE_CURVE('',#434,#431,#66,.T.);
#353=EDGE_CURVE('',#420,#430,#476,.T.);
#354=EDGE_CURVE('',#422,#427,#477,.T.);
#355=EDGE_CURVE('',#426,#435,#478,.T.);
#356=EDGE_CURVE('',#436,#435,#67,.T.);
#357=EDGE_CURVE('',#424,#436,#479,.T.);
#358=EDGE_CURVE('',#437,#437,#480,.T.);
#359=EDGE_CURVE('',#437,#438,#161,.T.);
#360=EDGE_CURVE('',#438,#438,#481,.T.);
#361=EDGE_CURVE('',#439,#439,#482,.T.);
#362=EDGE_CURVE('',#439,#440,#162,.T.);
#363=EDGE_CURVE('',#440,#440,#483,.T.);
#364=EDGE_CURVE('',#441,#442,#163,.T.);
#365=EDGE_CURVE('',#441,#441,#484,.T.);
#366=EDGE_CURVE('',#442,#442,#485,.T.);
#367=EDGE_CURVE('',#443,#444,#164,.T.);
#368=EDGE_CURVE('',#443,#443,#486,.T.);
#369=EDGE_CURVE('',#444,#444,#487,.T.);
#370=EDGE_CURVE('',#445,#446,#165,.T.);
#371=EDGE_CURVE('',#445,#445,#488,.T.);
#372=EDGE_CURVE('',#446,#446,#489,.T.);
#373=EDGE_CURVE('',#447,#448,#166,.T.);
#374=EDGE_CURVE('',#447,#447,#490,.T.);
#375=EDGE_CURVE('',#448,#448,#491,.T.);
#376=EDGE_CURVE('',#417,#449,#167,.T.);
#377=EDGE_CURVE('',#449,#449,#492,.T.);
#378=EDGE_CURVE('',#450,#451,#493,.T.);
#379=EDGE_CURVE('',#450,#452,#68,.T.);
#380=EDGE_CURVE('',#452,#453,#494,.T.);
#381=EDGE_CURVE('',#451,#453,#69,.T.);
#382=EDGE_CURVE('',#454,#434,#70,.T.);
#383=EDGE_CURVE('',#454,#455,#71,.T.);
#384=EDGE_CURVE('',#455,#431,#72,.T.);
#385=EDGE_CURVE('',#453,#456,#73,.T.);
#386=EDGE_CURVE('',#457,#456,#74,.T.);
#387=EDGE_CURVE('',#451,#457,#75,.T.);
#388=EDGE_CURVE('',#429,#423,#495,.T.);
#389=EDGE_CURVE('',#436,#458,#76,.T.);
#390=EDGE_CURVE('',#458,#459,#496,.T.);
#391=EDGE_CURVE('',#459,#450,#77,.T.);
#392=EDGE_CURVE('',#457,#454,#497,.T.);
#393=EDGE_CURVE('',#433,#460,#78,.T.);
#394=EDGE_CURVE('',#460,#419,#498,.T.);
#395=EDGE_CURVE('',#428,#425,#499,.T.);
#396=EDGE_CURVE('',#461,#421,#500,.T.);
#397=EDGE_CURVE('',#432,#461,#79,.T.);
#398=EDGE_CURVE('',#456,#455,#501,.T.);
#399=EDGE_CURVE('',#462,#452,#80,.T.);
#400=EDGE_CURVE('',#463,#462,#502,.T.);
#401=EDGE_CURVE('',#435,#463,#81,.T.);
#402=EDGE_CURVE('',#458,#463,#82,.T.);
#403=EDGE_CURVE('',#460,#461,#83,.T.);
#404=EDGE_CURVE('',#459,#462,#84,.T.);
#405=EDGE_CURVE('',#464,#465,#85,.T.);
#406=EDGE_CURVE('',#466,#464,#86,.T.);
#407=EDGE_CURVE('',#467,#466,#87,.T.);
#408=EDGE_CURVE('',#465,#467,#88,.T.);
#409=EDGE_CURVE('',#468,#469,#89,.T.);
#410=EDGE_CURVE('',#469,#470,#90,.T.);
#411=EDGE_CURVE('',#470,#471,#91,.T.);
#412=EDGE_CURVE('',#471,#468,#92,.T.);
#413=EDGE_CURVE('',#471,#464,#93,.T.);
#414=EDGE_CURVE('',#468,#465,#94,.T.);
#415=EDGE_CURVE('',#470,#466,#95,.T.);
#416=EDGE_CURVE('',#469,#467,#96,.T.);
#417=VERTEX_POINT('',#921);
#418=VERTEX_POINT('',#929);
#419=VERTEX_POINT('',#933);
#420=VERTEX_POINT('',#934);
#421=VERTEX_POINT('',#936);
#422=VERTEX_POINT('',#938);
#423=VERTEX_POINT('',#942);
#424=VERTEX_POINT('',#943);
#425=VERTEX_POINT('',#945);
#426=VERTEX_POINT('',#947);
#427=VERTEX_POINT('',#951);
#428=VERTEX_POINT('',#952);
#429=VERTEX_POINT('',#954);
#430=VERTEX_POINT('',#956);
#431=VERTEX_POINT('',#960);
#432=VERTEX_POINT('',#961);
#433=VERTEX_POINT('',#963);
#434=VERTEX_POINT('',#965);
#435=VERTEX_POINT('',#972);
#436=VERTEX_POINT('',#974);
#437=VERTEX_POINT('',#978);
#438=VERTEX_POINT('',#982);
#439=VERTEX_POINT('',#986);
#440=VERTEX_POINT('',#990);
#441=VERTEX_POINT('',#995);
#442=VERTEX_POINT('',#996);
#443=VERTEX_POINT('',#1002);
#444=VERTEX_POINT('',#1003);
#445=VERTEX_POINT('',#1009);
#446=VERTEX_POINT('',#1010);
#447=VERTEX_POINT('',#1016);
#448=VERTEX_POINT('',#1017);
#449=VERTEX_POINT('',#1024);
#450=VERTEX_POINT('',#1028);
#451=VERTEX_POINT('',#1029);
#452=VERTEX_POINT('',#1031);
#453=VERTEX_POINT('',#1033);
#454=VERTEX_POINT('',#1037);
#455=VERTEX_POINT('',#1039);
#456=VERTEX_POINT('',#1043);
#457=VERTEX_POINT('',#1045);
#458=VERTEX_POINT('',#1050);
#459=VERTEX_POINT('',#1052);
#460=VERTEX_POINT('',#1056);
#461=VERTEX_POINT('',#1061);
#462=VERTEX_POINT('',#1065);
#463=VERTEX_POINT('',#1067);
#464=VERTEX_POINT('',#1082);
#465=VERTEX_POINT('',#1083);
#466=VERTEX_POINT('',#1085);
#467=VERTEX_POINT('',#1087);
#468=VERTEX_POINT('',#1091);
#469=VERTEX_POINT('',#1092);
#470=VERTEX_POINT('',#1094);
#471=VERTEX_POINT('',#1096);
#472=CIRCLE('',#663,10.);
#473=CIRCLE('',#664,9.7);
#474=CIRCLE('',#669,11.5);
#475=CIRCLE('',#670,11.5);
#476=CIRCLE('',#672,11.5);
#477=CIRCLE('',#673,11.5);
#478=CIRCLE('',#675,11.5);
#479=CIRCLE('',#676,11.5);
#480=CIRCLE('',#678,5.9);
#481=CIRCLE('',#680,5.9);
#482=CIRCLE('',#682,1.465641427785);
#483=CIRCLE('',#684,9.16904136648);
#484=CIRCLE('',#686,1.);
#485=CIRCLE('',#687,1.);
#486=CIRCLE('',#689,1.);
#487=CIRCLE('',#690,1.);
#488=CIRCLE('',#692,2.);
#489=CIRCLE('',#693,2.);
#490=CIRCLE('',#695,2.);
#491=CIRCLE('',#696,2.);
#492=CIRCLE('',#699,10.);
#493=CIRCLE('',#701,11.5);
#494=CIRCLE('',#702,11.5);
#495=CIRCLE('',#706,2.5);
#496=CIRCLE('',#707,4.);
#497=CIRCLE('',#708,2.5);
#498=CIRCLE('',#709,4.);
#499=CIRCLE('',#711,2.5);
#500=CIRCLE('',#712,4.);
#501=CIRCLE('',#713,2.5);
#502=CIRCLE('',#714,4.);
#503=EDGE_LOOP('',(#168,#169,#170,#171));
#504=EDGE_LOOP('',(#172,#173,#174,#175));
#505=EDGE_LOOP('',(#176,#177,#178,#179));
#506=EDGE_LOOP('',(#180,#181,#182,#183));
#507=EDGE_LOOP('',(#184,#185,#186,#187));
#508=EDGE_LOOP('',(#188,#189,#190,#191));
#509=EDGE_LOOP('',(#192,#193,#194,#195));
#510=EDGE_LOOP('',(#196));
#511=EDGE_LOOP('',(#197,#198,#199,#200));
#512=EDGE_LOOP('',(#201));
#513=EDGE_LOOP('',(#202,#203,#204,#205));
#514=EDGE_LOOP('',(#206,#207,#208,#209));
#515=EDGE_LOOP('',(#210,#211,#212,#213));
#516=EDGE_LOOP('',(#214,#215,#216,#217));
#517=EDGE_LOOP('',(#218,#219,#220,#221));
#518=EDGE_LOOP('',(#222));
#519=EDGE_LOOP('',(#223));
#520=EDGE_LOOP('',(#224,#225,#226,#227));
#521=EDGE_LOOP('',(#228,#229,#230,#231));
#522=EDGE_LOOP('',(#232,#233,#234,#235));
#523=EDGE_LOOP('',(#236,#237,#238,#239));
#524=EDGE_LOOP('',(#240,#241,#242,#243,#244,#245,#246,#247,#248,#249,#250,
#251,#252,#253,#254,#255));
#525=EDGE_LOOP('',(#256));
#526=EDGE_LOOP('',(#257));
#527=EDGE_LOOP('',(#258));
#528=EDGE_LOOP('',(#259));
#529=EDGE_LOOP('',(#260));
#530=EDGE_LOOP('',(#261,#262,#263,#264,#265,#266,#267,#268,#269,#270,#271,
#272,#273,#274,#275,#276));
#531=EDGE_LOOP('',(#277));
#532=EDGE_LOOP('',(#278));
#533=EDGE_LOOP('',(#279));
#534=EDGE_LOOP('',(#280));
#535=EDGE_LOOP('',(#281));
#536=EDGE_LOOP('',(#282,#283,#284,#285));
#537=EDGE_LOOP('',(#286,#287,#288,#289));
#538=EDGE_LOOP('',(#290,#291,#292,#293));
#539=EDGE_LOOP('',(#294,#295,#296,#297));
#540=EDGE_LOOP('',(#298,#299,#300,#301));
#541=EDGE_LOOP('',(#302,#303,#304,#305));
#542=EDGE_LOOP('',(#306,#307,#308,#309));
#543=EDGE_LOOP('',(#310,#311,#312,#313));
#544=EDGE_LOOP('',(#314,#315,#316,#317));
#545=EDGE_LOOP('',(#318,#319,#320,#321));
#546=EDGE_LOOP('',(#322,#323,#324,#325));
#547=EDGE_LOOP('',(#326,#327,#328,#329));
#548=EDGE_LOOP('',(#330,#331,#332,#333));
#549=FACE_BOUND('',#503,.T.);
#550=FACE_BOUND('',#504,.T.);
#551=FACE_BOUND('',#505,.T.);
#552=FACE_BOUND('',#506,.T.);
#553=FACE_BOUND('',#507,.T.);
#554=FACE_BOUND('',#508,.T.);
#555=FACE_BOUND('',#509,.T.);
#556=FACE_BOUND('',#510,.T.);
#557=FACE_BOUND('',#511,.T.);
#558=FACE_BOUND('',#512,.T.);
#559=FACE_BOUND('',#513,.T.);
#560=FACE_BOUND('',#514,.T.);
#561=FACE_BOUND('',#515,.T.);
#562=FACE_BOUND('',#516,.T.);
#563=FACE_BOUND('',#517,.T.);
#564=FACE_BOUND('',#518,.T.);
#565=FACE_BOUND('',#519,.T.);
#566=FACE_BOUND('',#520,.T.);
#567=FACE_BOUND('',#521,.T.);
#568=FACE_BOUND('',#522,.T.);
#569=FACE_BOUND('',#523,.T.);
#570=FACE_BOUND('',#524,.T.);
#571=FACE_BOUND('',#525,.T.);
#572=FACE_BOUND('',#526,.T.);
#573=FACE_BOUND('',#527,.T.);
#574=FACE_BOUND('',#528,.T.);
#575=FACE_BOUND('',#529,.T.);
#576=FACE_BOUND('',#530,.T.);
#577=FACE_BOUND('',#531,.T.);
#578=FACE_BOUND('',#532,.T.);
#579=FACE_BOUND('',#533,.T.);
#580=FACE_BOUND('',#534,.T.);
#581=FACE_BOUND('',#535,.T.);
#582=FACE_BOUND('',#536,.T.);
#583=FACE_BOUND('',#537,.T.);
#584=FACE_BOUND('',#538,.T.);
#585=FACE_BOUND('',#539,.T.);
#586=FACE_BOUND('',#540,.T.);
#587=FACE_BOUND('',#541,.T.);
#588=FACE_BOUND('',#542,.T.);
#589=FACE_BOUND('',#543,.T.);
#590=FACE_BOUND('',#544,.T.);
#591=FACE_BOUND('',#545,.T.);
#592=FACE_BOUND('',#546,.T.);
#593=FACE_BOUND('',#547,.T.);
#594=FACE_BOUND('',#548,.T.);
#595=TOROIDAL_SURFACE('',#662,9.7,0.3);
#596=ADVANCED_FACE('',(#549),#595,.T.);
#597=ADVANCED_FACE('',(#550),#141,.F.);
#598=ADVANCED_FACE('',(#551),#142,.F.);
#599=ADVANCED_FACE('',(#552),#143,.F.);
#600=ADVANCED_FACE('',(#553),#39,.T.);
#601=ADVANCED_FACE('',(#554),#40,.T.);
#602=ADVANCED_FACE('',(#555),#41,.T.);
#603=ADVANCED_FACE('',(#556),#144,.F.);
#604=ADVANCED_FACE('',(#557),#42,.F.);
#605=ADVANCED_FACE('',(#558),#145,.F.);
#606=ADVANCED_FACE('',(#559),#38,.F.);
#607=ADVANCED_FACE('',(#560),#43,.F.);
#608=ADVANCED_FACE('',(#561),#44,.F.);
#609=ADVANCED_FACE('',(#562),#45,.F.);
#610=ADVANCED_FACE('',(#563),#46,.F.);
#611=ADVANCED_FACE('',(#564,#565),#146,.T.);
#612=ADVANCED_FACE('',(#566),#47,.T.);
#613=ADVANCED_FACE('',(#567),#48,.T.);
#614=ADVANCED_FACE('',(#568),#147,.F.);
#615=ADVANCED_FACE('',(#569),#148,.F.);
#616=ADVANCED_FACE('',(#570,#571,#572,#573,#574,#575),#149,.T.);
#617=ADVANCED_FACE('',(#576,#577,#578,#579,#580,#581),#150,.F.);
#618=ADVANCED_FACE('',(#582),#151,.F.);
#619=ADVANCED_FACE('',(#583),#152,.F.);
#620=ADVANCED_FACE('',(#584),#153,.F.);
#621=ADVANCED_FACE('',(#585),#49,.T.);
#622=ADVANCED_FACE('',(#586),#50,.T.);
#623=ADVANCED_FACE('',(#587),#51,.T.);
#624=ADVANCED_FACE('',(#588),#52,.T.);
#625=ADVANCED_FACE('',(#589),#154,.T.);
#626=ADVANCED_FACE('',(#590),#155,.F.);
#627=ADVANCED_FACE('',(#591),#156,.T.);
#628=ADVANCED_FACE('',(#592),#157,.T.);
#629=ADVANCED_FACE('',(#593),#158,.T.);
#630=ADVANCED_FACE('',(#594),#159,.T.);
#631=CLOSED_SHELL('',(#596,#597,#598,#599,#600,#601,#602,#603,#604,#605,
#606,#607,#608,#609,#610,#611,#612,#613,#614,#615,#616,#617,#618,#619,#620,
#621,#622,#623,#624));
#632=CLOSED_SHELL('',(#625,#626,#627,#628,#629,#630));
#633=STYLED_ITEM('',(#635),#649);
#634=STYLED_ITEM('',(#636),#650);
#635=PRESENTATION_STYLE_ASSIGNMENT((#637));
#636=PRESENTATION_STYLE_ASSIGNMENT((#638));
#637=SURFACE_STYLE_USAGE(.BOTH.,#639);
#638=SURFACE_STYLE_USAGE(.BOTH.,#640);
#639=SURFACE_SIDE_STYLE('',(#641));
#640=SURFACE_SIDE_STYLE('',(#642));
#641=SURFACE_STYLE_FILL_AREA(#643);
#642=SURFACE_STYLE_FILL_AREA(#644);
#643=FILL_AREA_STYLE('',(#645));
#644=FILL_AREA_STYLE('',(#646));
#645=FILL_AREA_STYLE_COLOUR('',#647);
#646=FILL_AREA_STYLE_COLOUR('',#648);
#647=COLOUR_RGB('',1.,0.600000023841858,0.);
#648=COLOUR_RGB('',0.466666668653488,0.466666668653488,0.466666668653488);
#649=MANIFOLD_SOLID_BREP('',#631);
#650=MANIFOLD_SOLID_BREP('',#632);
#651=SHAPE_DEFINITION_REPRESENTATION(#1125,#656);
#652=SHAPE_DEFINITION_REPRESENTATION(#1124,#657);
#653=SHAPE_DEFINITION_REPRESENTATION(#1128,#658);
#654=SHAPE_DEFINITION_REPRESENTATION(#1127,#659);
#655=SHAPE_DEFINITION_REPRESENTATION(#1123,#660);
#656=SHAPE_REPRESENTATION('Part1',(#661),#1112);
#657=SHAPE_REPRESENTATION('U1',(#661,#722,#730),#1111);
#658=SHAPE_REPRESENTATION('Extruded',(#661),#1114);
#659=SHAPE_REPRESENTATION('737110528',(#661,#729),#1113);
#660=SHAPE_REPRESENTATION('Smoke_2_click_v104',(#661,#731),#1110);
#661=AXIS2_PLACEMENT_3D('',#918,#732,#733);
#662=AXIS2_PLACEMENT_3D('',#919,#734,#735);
#663=AXIS2_PLACEMENT_3D('',#920,#736,#737);
#664=AXIS2_PLACEMENT_3D('',#930,#738,#739);
#665=AXIS2_PLACEMENT_3D('',#931,#740,#741);
#666=AXIS2_PLACEMENT_3D('',#940,#746,#747);
#667=AXIS2_PLACEMENT_3D('',#949,#752,#753);
#668=AXIS2_PLACEMENT_3D('',#958,#758,#759);
#669=AXIS2_PLACEMENT_3D('',#959,#760,#761);
#670=AXIS2_PLACEMENT_3D('',#964,#763,#764);
#671=AXIS2_PLACEMENT_3D('',#967,#766,#767);
#672=AXIS2_PLACEMENT_3D('',#968,#768,#769);
#673=AXIS2_PLACEMENT_3D('',#969,#770,#771);
#674=AXIS2_PLACEMENT_3D('',#970,#772,#773);
#675=AXIS2_PLACEMENT_3D('',#971,#774,#775);
#676=AXIS2_PLACEMENT_3D('',#975,#777,#778);
#677=AXIS2_PLACEMENT_3D('',#976,#779,#780);
#678=AXIS2_PLACEMENT_3D('',#977,#781,#782);
#679=AXIS2_PLACEMENT_3D('',#979,#783,#784);
#680=AXIS2_PLACEMENT_3D('',#983,#785,#786);
#681=AXIS2_PLACEMENT_3D('',#984,#787,#788);
#682=AXIS2_PLACEMENT_3D('',#985,#789,#790);
#683=AXIS2_PLACEMENT_3D('',#987,#791,#792);
#684=AXIS2_PLACEMENT_3D('',#991,#793,#794);
#685=AXIS2_PLACEMENT_3D('',#992,#795,#796);
#686=AXIS2_PLACEMENT_3D('',#997,#797,#798);
#687=AXIS2_PLACEMENT_3D('',#998,#799,#800);
#688=AXIS2_PLACEMENT_3D('',#999,#801,#802);
#689=AXIS2_PLACEMENT_3D('',#1004,#803,#804);
#690=AXIS2_PLACEMENT_3D('',#1005,#805,#806);
#691=AXIS2_PLACEMENT_3D('',#1006,#807,#808);
#692=AXIS2_PLACEMENT_3D('',#1011,#809,#810);
#693=AXIS2_PLACEMENT_3D('',#1012,#811,#812);
#694=AXIS2_PLACEMENT_3D('',#1013,#813,#814);
#695=AXIS2_PLACEMENT_3D('',#1018,#815,#816);
#696=AXIS2_PLACEMENT_3D('',#1019,#817,#818);
#697=AXIS2_PLACEMENT_3D('',#1020,#819,#820);
#698=AXIS2_PLACEMENT_3D('',#1021,#821,#822);
#699=AXIS2_PLACEMENT_3D('',#1025,#823,#824);
#700=AXIS2_PLACEMENT_3D('',#1026,#825,#826);
#701=AXIS2_PLACEMENT_3D('',#1027,#827,#828);
#702=AXIS2_PLACEMENT_3D('',#1032,#830,#831);
#703=AXIS2_PLACEMENT_3D('',#1035,#833,#834);
#704=AXIS2_PLACEMENT_3D('',#1041,#838,#839);
#705=AXIS2_PLACEMENT_3D('',#1047,#843,#844);
#706=AXIS2_PLACEMENT_3D('',#1048,#845,#846);
#707=AXIS2_PLACEMENT_3D('',#1051,#848,#849);
#708=AXIS2_PLACEMENT_3D('',#1054,#851,#852);
#709=AXIS2_PLACEMENT_3D('',#1057,#854,#855);
#710=AXIS2_PLACEMENT_3D('',#1058,#856,#857);
#711=AXIS2_PLACEMENT_3D('',#1059,#858,#859);
#712=AXIS2_PLACEMENT_3D('',#1060,#860,#861);
#713=AXIS2_PLACEMENT_3D('',#1063,#863,#864);
#714=AXIS2_PLACEMENT_3D('',#1066,#866,#867);
#715=AXIS2_PLACEMENT_3D('',#1069,#869,#870);
#716=AXIS2_PLACEMENT_3D('',#1071,#872,#873);
#717=AXIS2_PLACEMENT_3D('',#1073,#875,#876);
#718=AXIS2_PLACEMENT_3D('',#1075,#878,#879);
#719=AXIS2_PLACEMENT_3D('',#1076,#880,#881);
#720=AXIS2_PLACEMENT_3D('',#1077,#882,#883);
#721=AXIS2_PLACEMENT_3D('',#1078,#884,#885);
#722=AXIS2_PLACEMENT_3D('',#1079,#886,#887);
#723=AXIS2_PLACEMENT_3D('',#1080,#888,#889);
#724=AXIS2_PLACEMENT_3D('',#1089,#894,#895);
#725=AXIS2_PLACEMENT_3D('',#1098,#900,#901);
#726=AXIS2_PLACEMENT_3D('',#1101,#904,#905);
#727=AXIS2_PLACEMENT_3D('',#1103,#907,#908);
#728=AXIS2_PLACEMENT_3D('',#1105,#910,#911);
#729=AXIS2_PLACEMENT_3D('',#1106,#912,#913);
#730=AXIS2_PLACEMENT_3D('',#1107,#914,#915);
#731=AXIS2_PLACEMENT_3D('',#1108,#916,#917);
#732=DIRECTION('',(0.,0.,1.));
#733=DIRECTION('',(1.,0.,0.));
#734=DIRECTION('',(0.,0.,1.));
#735=DIRECTION('',(1.,0.,0.));
#736=DIRECTION('',(0.,0.,1.));
#737=DIRECTION('',(1.,0.,0.));
#738=DIRECTION('',(0.,0.,1.));
#739=DIRECTION('',(1.,0.,0.));
#740=DIRECTION('',(0.,-1.,0.));
#741=DIRECTION('',(0.,0.,-1.));
#742=DIRECTION('',(-1.,0.,0.));
#743=DIRECTION('',(0.,0.,-1.));
#744=DIRECTION('',(-1.,0.,0.));
#745=DIRECTION('',(0.,0.,-1.));
#746=DIRECTION('',(1.,0.,0.));
#747=DIRECTION('',(0.,0.,-1.));
#748=DIRECTION('',(0.,-1.,0.));
#749=DIRECTION('',(0.,0.,-1.));
#750=DIRECTION('',(0.,-1.,0.));
#751=DIRECTION('',(0.,0.,-1.));
#752=DIRECTION('',(-1.,0.,0.));
#753=DIRECTION('',(0.,0.,1.));
#754=DIRECTION('',(0.,1.,0.));
#755=DIRECTION('',(0.,0.,-1.));
#756=DIRECTION('',(0.,1.,0.));
#757=DIRECTION('',(0.,0.,-1.));
#758=DIRECTION('',(0.,0.,-1.));
#759=DIRECTION('',(-1.,0.,0.));
#760=DIRECTION('',(0.,0.,1.));
#761=DIRECTION('',(1.,0.,0.));
#762=DIRECTION('',(0.,0.,-1.));
#763=DIRECTION('',(0.,0.,1.));
#764=DIRECTION('',(1.,0.,0.));
#765=DIRECTION('',(0.,0.,-1.));
#766=DIRECTION('',(0.,0.,-1.));
#767=DIRECTION('',(-1.,0.,0.));
#768=DIRECTION('',(0.,0.,1.));
#769=DIRECTION('',(1.,0.,0.));
#770=DIRECTION('',(0.,0.,1.));
#771=DIRECTION('',(1.,0.,0.));
#772=DIRECTION('',(0.,0.,-1.));
#773=DIRECTION('',(-1.,0.,0.));
#774=DIRECTION('',(0.,0.,1.));
#775=DIRECTION('',(1.,0.,0.));
#776=DIRECTION('',(0.,0.,-1.));
#777=DIRECTION('',(0.,0.,1.));
#778=DIRECTION('',(1.,0.,0.));
#779=DIRECTION('',(0.,0.,1.));
#780=DIRECTION('',(1.,0.,0.));
#781=DIRECTION('',(0.,0.,1.));
#782=DIRECTION('',(1.,0.,0.));
#783=DIRECTION('',(0.,0.,-1.));
#784=DIRECTION('',(-1.,0.,0.));
#785=DIRECTION('',(0.,0.,1.));
#786=DIRECTION('',(1.,0.,0.));
#787=DIRECTION('',(0.,-6.123233995737E-17,-1.));
#788=DIRECTION('',(0.,1.,-6.123233995737E-17));
#789=DIRECTION('',(0.,6.123233995737E-17,1.));
#790=DIRECTION('',(0.,-1.,6.123233995737E-17));
#791=DIRECTION('',(0.,6.123233995737E-17,1.));
#792=DIRECTION('',(0.,-1.,6.123233995737E-17));
#793=DIRECTION('',(0.,6.123233995737E-17,1.));
#794=DIRECTION('',(0.,-1.,6.123233995737E-17));
#795=DIRECTION('',(0.,0.,1.));
#796=DIRECTION('',(-1.,0.,0.));
#797=DIRECTION('',(0.,0.,1.));
#798=DIRECTION('',(1.,0.,0.));
#799=DIRECTION('',(0.,0.,-1.));
#800=DIRECTION('',(1.,0.,0.));
#801=DIRECTION('',(0.,0.,1.));
#802=DIRECTION('',(-1.,0.,0.));
#803=DIRECTION('',(0.,0.,1.));
#804=DIRECTION('',(1.,0.,0.));
#805=DIRECTION('',(0.,0.,-1.));
#806=DIRECTION('',(1.,0.,0.));
#807=DIRECTION('',(0.,0.,1.));
#808=DIRECTION('',(-1.,0.,0.));
#809=DIRECTION('',(0.,0.,1.));
#810=DIRECTION('',(1.,0.,0.));
#811=DIRECTION('',(0.,0.,-1.));
#812=DIRECTION('',(1.,0.,0.));
#813=DIRECTION('',(0.,0.,1.));
#814=DIRECTION('',(-1.,0.,0.));
#815=DIRECTION('',(0.,0.,1.));
#816=DIRECTION('',(1.,0.,0.));
#817=DIRECTION('',(0.,0.,-1.));
#818=DIRECTION('',(1.,0.,0.));
#819=DIRECTION('',(0.,0.,1.));
#820=DIRECTION('',(1.,0.,0.));
#821=DIRECTION('',(0.,0.,-1.));
#822=DIRECTION('',(-1.,0.,0.));
#823=DIRECTION('',(0.,0.,1.));
#824=DIRECTION('',(1.,0.,0.));
#825=DIRECTION('',(0.,0.,-1.));
#826=DIRECTION('',(-1.,0.,0.));
#827=DIRECTION('',(0.,0.,1.));
#828=DIRECTION('',(1.,0.,0.));
#829=DIRECTION('',(0.,0.,-1.));
#830=DIRECTION('',(0.,0.,1.));
#831=DIRECTION('',(1.,0.,0.));
#832=DIRECTION('',(0.,0.,-1.));
#833=DIRECTION('',(-1.,0.,0.));
#834=DIRECTION('',(0.,0.,1.));
#835=DIRECTION('',(0.,1.,0.));
#836=DIRECTION('',(0.,0.,-1.));
#837=DIRECTION('',(0.,1.,0.));
#838=DIRECTION('',(1.,0.,0.));
#839=DIRECTION('',(0.,0.,-1.));
#840=DIRECTION('',(0.,-1.,0.));
#841=DIRECTION('',(0.,0.,-1.));
#842=DIRECTION('',(0.,-1.,0.));
#843=DIRECTION('',(0.,0.,1.));
#844=DIRECTION('',(1.,0.,0.));
#845=DIRECTION('',(0.,0.,1.));
#846=DIRECTION('',(1.,0.,0.));
#847=DIRECTION('',(-1.,0.,0.));
#848=DIRECTION('',(0.,0.,1.));
#849=DIRECTION('',(1.,0.,0.));
#850=DIRECTION('',(1.,0.,0.));
#851=DIRECTION('',(0.,0.,1.));
#852=DIRECTION('',(1.,0.,0.));
#853=DIRECTION('',(1.,0.,0.));
#854=DIRECTION('',(0.,0.,1.));
#855=DIRECTION('',(1.,0.,0.));
#856=DIRECTION('',(0.,0.,1.));
#857=DIRECTION('',(1.,0.,0.));
#858=DIRECTION('',(0.,0.,1.));
#859=DIRECTION('',(1.,0.,0.));
#860=DIRECTION('',(0.,0.,1.));
#861=DIRECTION('',(1.,0.,0.));
#862=DIRECTION('',(1.,0.,0.));
#863=DIRECTION('',(0.,0.,1.));
#864=DIRECTION('',(1.,0.,0.));
#865=DIRECTION('',(1.,0.,0.));
#866=DIRECTION('',(0.,0.,1.));
#867=DIRECTION('',(1.,0.,0.));
#868=DIRECTION('',(-1.,0.,0.));
#869=DIRECTION('',(0.,-1.,0.));
#870=DIRECTION('',(0.,0.,-1.));
#871=DIRECTION('',(0.,0.,-1.));
#872=DIRECTION('',(0.,1.,0.));
#873=DIRECTION('',(0.,0.,1.));
#874=DIRECTION('',(0.,0.,-1.));
#875=DIRECTION('',(0.,1.,0.));
#876=DIRECTION('',(0.,0.,1.));
#877=DIRECTION('',(0.,0.,-1.));
#878=DIRECTION('',(0.,0.,-1.));
#879=DIRECTION('',(-1.,0.,0.));
#880=DIRECTION('',(0.,0.,-1.));
#881=DIRECTION('',(-1.,0.,0.));
#882=DIRECTION('',(0.,0.,-1.));
#883=DIRECTION('',(-1.,0.,0.));
#884=DIRECTION('',(0.,0.,-1.));
#885=DIRECTION('',(-1.,0.,0.));
#886=DIRECTION('',(0.,0.,1.));
#887=DIRECTION('',(-0.601815088128829,0.798635461083773,0.));
#888=DIRECTION('',(0.,0.,1.));
#889=DIRECTION('',(1.,0.,0.));
#890=DIRECTION('',(0.,1.,0.));
#891=DIRECTION('',(-1.,0.,0.));
#892=DIRECTION('',(0.,-1.,0.));
#893=DIRECTION('',(1.,0.,0.));
#894=DIRECTION('',(0.,0.,1.));
#895=DIRECTION('',(1.,0.,0.));
#896=DIRECTION('',(1.,0.,0.));
#897=DIRECTION('',(0.,-1.,0.));
#898=DIRECTION('',(-1.,0.,0.));
#899=DIRECTION('',(0.,1.,0.));
#900=DIRECTION('',(-1.,0.,0.));
#901=DIRECTION('',(0.,1.,0.));
#902=DIRECTION('',(0.,0.,1.));
#903=DIRECTION('',(0.,0.,1.));
#904=DIRECTION('',(0.,-1.,0.));
#905=DIRECTION('',(-1.,0.,0.));
#906=DIRECTION('',(0.,0.,1.));
#907=DIRECTION('',(1.,0.,0.));
#908=DIRECTION('',(0.,-1.,0.));
#909=DIRECTION('',(0.,0.,1.));
#910=DIRECTION('',(0.,1.,0.));
#911=DIRECTION('',(1.,0.,0.));
#912=DIRECTION('',(0.,0.,1.));
#913=DIRECTION('',(1.,0.,0.));
#914=DIRECTION('',(0.,0.,1.));
#915=DIRECTION('',(1.,0.,0.));
#916=DIRECTION('',(0.,0.,1.));
#917=DIRECTION('',(1.,0.,0.));
#918=CARTESIAN_POINT('',(0.,0.,0.));
#919=CARTESIAN_POINT('',(0.,0.,11.1));
#920=CARTESIAN_POINT('',(0.,0.,11.1));
#921=CARTESIAN_POINT('',(10.,0.,11.1));
#922=CARTESIAN_POINT('',(10.,0.,11.1));
#923=CARTESIAN_POINT('',(10.,0.,11.17853981634));
#924=CARTESIAN_POINT('',(9.975331694194,0.,11.257072950211));
#925=CARTESIAN_POINT('',(9.925957044892,0.,11.325957044892));
#926=CARTESIAN_POINT('',(9.857072950212,0.,11.375331694194));
#927=CARTESIAN_POINT('',(9.77853981634,0.,11.4));
#928=CARTESIAN_POINT('',(9.7,0.,11.4));
#929=CARTESIAN_POINT('',(9.7,0.,11.4));
#930=CARTESIAN_POINT('',(0.,0.,11.4));
#931=CARTESIAN_POINT('',(18.,4.,1.5));
#932=CARTESIAN_POINT('',(18.,4.,1.5));
#933=CARTESIAN_POINT('',(14.,4.,1.5));
#934=CARTESIAN_POINT('',(10.781929326424,4.,1.5));
#935=CARTESIAN_POINT('',(14.,4.,1.5));
#936=CARTESIAN_POINT('',(14.,4.,0.));
#937=CARTESIAN_POINT('',(18.,4.,0.));
#938=CARTESIAN_POINT('',(10.781929326424,4.,0.));
#939=CARTESIAN_POINT('',(10.781929326424,4.,1.5));
#940=CARTESIAN_POINT('',(-2.5,15.,1.5));
#941=CARTESIAN_POINT('',(-2.5,15.,1.5));
#942=CARTESIAN_POINT('',(-2.5,12.5,1.5));
#943=CARTESIAN_POINT('',(-2.5,11.224972160322,1.5));
#944=CARTESIAN_POINT('',(-2.5,12.5,1.5));
#945=CARTESIAN_POINT('',(-2.5,12.5,0.));
#946=CARTESIAN_POINT('',(-2.5,15.,0.));
#947=CARTESIAN_POINT('',(-2.5,11.224972160322,0.));
#948=CARTESIAN_POINT('',(-2.5,11.224972160322,1.5));
#949=CARTESIAN_POINT('',(2.5,-15.,1.5));
#950=CARTESIAN_POINT('',(2.5,-15.,0.));
#951=CARTESIAN_POINT('',(2.5,11.224972160322,0.));
#952=CARTESIAN_POINT('',(2.5,12.5,0.));
#953=CARTESIAN_POINT('',(2.5,12.5,1.5));
#954=CARTESIAN_POINT('',(2.5,12.5,1.5));
#955=CARTESIAN_POINT('',(2.5,-15.,1.5));
#956=CARTESIAN_POINT('',(2.5,11.224972160322,1.5));
#957=CARTESIAN_POINT('',(2.5,11.224972160322,1.5));
#958=CARTESIAN_POINT('',(0.,0.,1.5));
#959=CARTESIAN_POINT('',(0.,0.,0.));
#960=CARTESIAN_POINT('',(2.5,-11.22497216032,0.));
#961=CARTESIAN_POINT('',(10.781929326424,-4.,0.));
#962=CARTESIAN_POINT('',(10.781929326424,-4.,1.5));
#963=CARTESIAN_POINT('',(10.781929326424,-4.,1.5));
#964=CARTESIAN_POINT('',(0.,0.,1.5));
#965=CARTESIAN_POINT('',(2.5,-11.22497216032,1.5));
#966=CARTESIAN_POINT('',(2.5,-11.22497216032,1.5));
#967=CARTESIAN_POINT('',(0.,0.,1.5));
#968=CARTESIAN_POINT('',(0.,0.,1.5));
#969=CARTESIAN_POINT('',(0.,0.,0.));
#970=CARTESIAN_POINT('',(0.,0.,1.5));
#971=CARTESIAN_POINT('',(0.,0.,0.));
#972=CARTESIAN_POINT('',(-10.78192932642,4.,0.));
#973=CARTESIAN_POINT('',(-10.78192932642,4.,1.5));
#974=CARTESIAN_POINT('',(-10.78192932642,4.,1.5));
#975=CARTESIAN_POINT('',(0.,0.,1.5));
#976=CARTESIAN_POINT('',(0.,0.,7.25));
#977=CARTESIAN_POINT('',(0.,0.,7.25));
#978=CARTESIAN_POINT('',(5.9,0.,7.25));
#979=CARTESIAN_POINT('',(0.,0.,7.25));
#980=CARTESIAN_POINT('',(5.9,7.225416114969E-16,7.25));
#981=CARTESIAN_POINT('',(5.9,7.225416114969E-16,0.));
#982=CARTESIAN_POINT('',(5.9,0.,0.));
#983=CARTESIAN_POINT('',(0.,0.,0.));
#984=CARTESIAN_POINT('',(1.465641427785,0.,9.82275808543));
#985=CARTESIAN_POINT('',(0.,0.,9.82275808543));
#986=CARTESIAN_POINT('',(0.,-1.465641427785,9.82275808543));
#987=CARTESIAN_POINT('',(0.,0.,11.4));
#988=CARTESIAN_POINT('',(0.,-1.465641427785,9.82275808543));
#989=CARTESIAN_POINT('',(0.,-9.16904136648,11.4));
#990=CARTESIAN_POINT('',(0.,-9.16904136648,11.4));
#991=CARTESIAN_POINT('',(0.,0.,11.4));
#992=CARTESIAN_POINT('',(0.,12.5,-8.5));
#993=CARTESIAN_POINT('',(1.,12.5,0.));
#994=CARTESIAN_POINT('',(1.,12.5,1.5));
#995=CARTESIAN_POINT('',(1.,12.5,0.));
#996=CARTESIAN_POINT('',(1.,12.5,1.5));
#997=CARTESIAN_POINT('',(0.,12.5,0.));
#998=CARTESIAN_POINT('',(0.,12.5,1.5));
#999=CARTESIAN_POINT('',(0.,-12.5,-8.5));
#1000=CARTESIAN_POINT('',(1.,-12.5,0.));
#1001=CARTESIAN_POINT('',(1.,-12.5,1.5));
#1002=CARTESIAN_POINT('',(1.,-12.5,0.));
#1003=CARTESIAN_POINT('',(1.,-12.5,1.5));
#1004=CARTESIAN_POINT('',(0.,-12.5,0.));
#1005=CARTESIAN_POINT('',(0.,-12.5,1.5));
#1006=CARTESIAN_POINT('',(14.,0.,-8.5));
#1007=CARTESIAN_POINT('',(16.,-7.347880794884E-16,0.));
#1008=CARTESIAN_POINT('',(16.,-7.347880794884E-16,1.5));
#1009=CARTESIAN_POINT('',(16.,0.,0.));
#1010=CARTESIAN_POINT('',(16.,0.,1.5));
#1011=CARTESIAN_POINT('',(14.,0.,0.));
#1012=CARTESIAN_POINT('',(14.,0.,1.5));
#1013=CARTESIAN_POINT('',(-14.,0.,-8.5));
#1014=CARTESIAN_POINT('',(-12.,-7.347880794884E-16,0.));
#1015=CARTESIAN_POINT('',(-12.,-7.347880794884E-16,1.5));
#1016=CARTESIAN_POINT('',(-12.,0.,0.));
#1017=CARTESIAN_POINT('',(-12.,0.,1.5));
#1018=CARTESIAN_POINT('',(-14.,0.,0.));
#1019=CARTESIAN_POINT('',(-14.,0.,1.5));
#1020=CARTESIAN_POINT('',(0.,0.,11.4));
#1021=CARTESIAN_POINT('',(0.,0.,11.4));
#1022=CARTESIAN_POINT('',(10.,1.224646799147E-15,11.1));
#1023=CARTESIAN_POINT('',(10.,1.224646799147E-15,1.5));
#1024=CARTESIAN_POINT('',(10.,0.,1.5));
#1025=CARTESIAN_POINT('',(0.,0.,1.5));
#1026=CARTESIAN_POINT('',(0.,0.,1.5));
#1027=CARTESIAN_POINT('',(0.,0.,1.5));
#1028=CARTESIAN_POINT('',(-10.78192932642,-4.,1.5));
#1029=CARTESIAN_POINT('',(-2.5,-11.22497216032,1.5));
#1030=CARTESIAN_POINT('',(-10.78192932642,-4.,1.5));
#1031=CARTESIAN_POINT('',(-10.78192932642,-4.,0.));
#1032=CARTESIAN_POINT('',(0.,0.,0.));
#1033=CARTESIAN_POINT('',(-2.5,-11.22497216032,0.));
#1034=CARTESIAN_POINT('',(-2.5,-11.22497216032,1.5));
#1035=CARTESIAN_POINT('',(2.5,-15.,1.5));
#1036=CARTESIAN_POINT('',(2.5,-15.,1.5));
#1037=CARTESIAN_POINT('',(2.5,-12.5,1.5));
#1038=CARTESIAN_POINT('',(2.5,-12.5,1.5));
#1039=CARTESIAN_POINT('',(2.5,-12.5,0.));
#1040=CARTESIAN_POINT('',(2.5,-15.,0.));
#1041=CARTESIAN_POINT('',(-2.5,15.,1.5));
#1042=CARTESIAN_POINT('',(-2.5,15.,0.));
#1043=CARTESIAN_POINT('',(-2.5,-12.5,0.));
#1044=CARTESIAN_POINT('',(-2.5,-12.5,1.5));
#1045=CARTESIAN_POINT('',(-2.5,-12.5,1.5));
#1046=CARTESIAN_POINT('',(-2.5,15.,1.5));
#1047=CARTESIAN_POINT('',(-18.,-4.,1.5));
#1048=CARTESIAN_POINT('',(0.,12.5,1.5));
#1049=CARTESIAN_POINT('',(18.,4.,1.5));
#1050=CARTESIAN_POINT('',(-14.,4.,1.5));
#1051=CARTESIAN_POINT('',(-14.,0.,1.5));
#1052=CARTESIAN_POINT('',(-14.,-4.,1.5));
#1053=CARTESIAN_POINT('',(-18.,-4.,1.5));
#1054=CARTESIAN_POINT('',(0.,-12.5,1.5));
#1055=CARTESIAN_POINT('',(-18.,-4.,1.5));
#1056=CARTESIAN_POINT('',(14.,-4.,1.5));
#1057=CARTESIAN_POINT('',(14.,0.,1.5));
#1058=CARTESIAN_POINT('',(-18.,-4.,0.));
#1059=CARTESIAN_POINT('',(0.,12.5,0.));
#1060=CARTESIAN_POINT('',(14.,0.,0.));
#1061=CARTESIAN_POINT('',(14.,-4.,0.));
#1062=CARTESIAN_POINT('',(-18.,-4.,0.));
#1063=CARTESIAN_POINT('',(0.,-12.5,0.));
#1064=CARTESIAN_POINT('',(-18.,-4.,0.));
#1065=CARTESIAN_POINT('',(-14.,-4.,0.));
#1066=CARTESIAN_POINT('',(-14.,0.,0.));
#1067=CARTESIAN_POINT('',(-14.,4.,0.));
#1068=CARTESIAN_POINT('',(18.,4.,0.));
#1069=CARTESIAN_POINT('',(18.,4.,1.5));
#1070=CARTESIAN_POINT('',(-14.,4.,1.5));
#1071=CARTESIAN_POINT('',(-18.,-4.,1.5));
#1072=CARTESIAN_POINT('',(14.,-4.,1.5));
#1073=CARTESIAN_POINT('',(-18.,-4.,1.5));
#1074=CARTESIAN_POINT('',(-14.,-4.,1.5));
#1075=CARTESIAN_POINT('',(-14.,0.,1.5));
#1076=CARTESIAN_POINT('',(0.,-12.5,1.5));
#1077=CARTESIAN_POINT('',(0.,12.5,1.5));
#1078=CARTESIAN_POINT('',(14.,0.,1.5));
#1079=CARTESIAN_POINT('',(11.418264160156,36.353514648437,0.));
#1080=CARTESIAN_POINT('',(-2.54999998,1.94999864,0.90000074));
#1081=CARTESIAN_POINT('',(-2.54999998,-1.94999864,0.90000074));
#1082=CARTESIAN_POINT('',(-2.54999998,-1.94999864,0.90000074));
#1083=CARTESIAN_POINT('',(-2.54999998,1.94999864,0.90000074));
#1084=CARTESIAN_POINT('',(2.54999998,-1.94999864,0.90000074));
#1085=CARTESIAN_POINT('',(2.54999998,-1.94999864,0.90000074));
#1086=CARTESIAN_POINT('',(2.54999998,1.94999864,0.90000074));
#1087=CARTESIAN_POINT('',(2.54999998,1.94999864,0.90000074));
#1088=CARTESIAN_POINT('',(-2.54999998,1.94999864,0.90000074));
#1089=CARTESIAN_POINT('',(-2.54999998,1.94999864,0.));
#1090=CARTESIAN_POINT('',(-2.54999998,1.94999864,0.));
#1091=CARTESIAN_POINT('',(-2.54999998,1.94999864,0.));
#1092=CARTESIAN_POINT('',(2.54999998,1.94999864,0.));
#1093=CARTESIAN_POINT('',(2.54999998,1.94999864,0.));
#1094=CARTESIAN_POINT('',(2.54999998,-1.94999864,0.));
#1095=CARTESIAN_POINT('',(2.54999998,-1.94999864,0.));
#1096=CARTESIAN_POINT('',(-2.54999998,-1.94999864,0.));
#1097=CARTESIAN_POINT('',(-2.54999998,-1.94999864,0.));
#1098=CARTESIAN_POINT('',(-2.54999998,-1.94999864,0.));
#1099=CARTESIAN_POINT('',(-2.54999998,-1.94999864,0.));
#1100=CARTESIAN_POINT('',(-2.54999998,1.94999864,0.));
#1101=CARTESIAN_POINT('',(2.54999998,-1.94999864,0.));
#1102=CARTESIAN_POINT('',(2.54999998,-1.94999864,0.));
#1103=CARTESIAN_POINT('',(2.54999998,1.94999864,0.));
#1104=CARTESIAN_POINT('',(2.54999998,1.94999864,0.));
#1105=CARTESIAN_POINT('',(-2.54999998,1.94999864,0.));
#1106=CARTESIAN_POINT('',(0.,0.,0.));
#1107=CARTESIAN_POINT('',(11.418386230469,36.353392578125,0.));
#1108=CARTESIAN_POINT('',(0.,0.,0.));
#1109=MECHANICAL_DESIGN_GEOMETRIC_PRESENTATION_REPRESENTATION('',(#633,
#634),#1110);
#1110=(
GEOMETRIC_REPRESENTATION_CONTEXT(3)
GLOBAL_UNCERTAINTY_ASSIGNED_CONTEXT((#1115))
GLOBAL_UNIT_ASSIGNED_CONTEXT((#1122,#1121,#1120))
REPRESENTATION_CONTEXT('Smoke_2_click_v104','TOP_LEVEL_ASSEMBLY_PART')
);
#1111=(
GEOMETRIC_REPRESENTATION_CONTEXT(3)
GLOBAL_UNCERTAINTY_ASSIGNED_CONTEXT((#1116))
GLOBAL_UNIT_ASSIGNED_CONTEXT((#1122,#1121,#1120))
REPRESENTATION_CONTEXT('U1','COMPONENT_PART')
);
#1112=(
GEOMETRIC_REPRESENTATION_CONTEXT(3)
GLOBAL_UNCERTAINTY_ASSIGNED_CONTEXT((#1117))
GLOBAL_UNIT_ASSIGNED_CONTEXT((#1122,#1121,#1120))
REPRESENTATION_CONTEXT('Part1','COMPONENT_PART')
);
#1113=(
GEOMETRIC_REPRESENTATION_CONTEXT(3)
GLOBAL_UNCERTAINTY_ASSIGNED_CONTEXT((#1118))
GLOBAL_UNIT_ASSIGNED_CONTEXT((#1122,#1121,#1120))
REPRESENTATION_CONTEXT('737110528','COMPONENT_PART')
);
#1114=(
GEOMETRIC_REPRESENTATION_CONTEXT(3)
GLOBAL_UNCERTAINTY_ASSIGNED_CONTEXT((#1119))
GLOBAL_UNIT_ASSIGNED_CONTEXT((#1122,#1121,#1120))
REPRESENTATION_CONTEXT('Extruded','COMPONENT_PART')
);
#1115=UNCERTAINTY_MEASURE_WITH_UNIT(LENGTH_MEASURE(0.005),#1122,
'DISTANCE_ACCURACY_VALUE','Maximum Tolerance applied to model');
#1116=UNCERTAINTY_MEASURE_WITH_UNIT(LENGTH_MEASURE(0.005),#1122,
'DISTANCE_ACCURACY_VALUE','Maximum Tolerance applied to model');
#1117=UNCERTAINTY_MEASURE_WITH_UNIT(LENGTH_MEASURE(0.005),#1122,
'DISTANCE_ACCURACY_VALUE','Maximum Tolerance applied to model');
#1118=UNCERTAINTY_MEASURE_WITH_UNIT(LENGTH_MEASURE(0.005),#1122,
'DISTANCE_ACCURACY_VALUE','Maximum Tolerance applied to model');
#1119=UNCERTAINTY_MEASURE_WITH_UNIT(LENGTH_MEASURE(0.005),#1122,
'DISTANCE_ACCURACY_VALUE','Maximum Tolerance applied to model');
#1120=(
NAMED_UNIT(*)
SI_UNIT($,.STERADIAN.)
SOLID_ANGLE_UNIT()
);
#1121=(
NAMED_UNIT(*)
PLANE_ANGLE_UNIT()
SI_UNIT($,.RADIAN.)
);
#1122=(
LENGTH_UNIT()
NAMED_UNIT(*)
SI_UNIT(.MILLI.,.METRE.)
);
#1123=PRODUCT_DEFINITION_SHAPE('','',#1132);
#1124=PRODUCT_DEFINITION_SHAPE('','',#1133);
#1125=PRODUCT_DEFINITION_SHAPE('','',#1134);
#1126=PRODUCT_DEFINITION_SHAPE(' ','NAUO PRDDFN',#22);
#1127=PRODUCT_DEFINITION_SHAPE('','',#1135);
#1128=PRODUCT_DEFINITION_SHAPE('','',#1136);
#1129=PRODUCT_DEFINITION_SHAPE(' ','NAUO PRDDFN',#23);
#1130=PRODUCT_DEFINITION_SHAPE(' ','NAUO PRDDFN',#24);
#1131=PRODUCT_DEFINITION_SHAPE(' ','NAUO PRDDFN',#25);
#1132=PRODUCT_DEFINITION('','',#1142,#1137);
#1133=PRODUCT_DEFINITION('','',#1143,#1138);
#1134=PRODUCT_DEFINITION('','',#1144,#1139);
#1135=PRODUCT_DEFINITION('','',#1145,#1140);
#1136=PRODUCT_DEFINITION('','',#1146,#1141);
#1137=PRODUCT_DEFINITION_CONTEXT('',#1168,'design');
#1138=PRODUCT_DEFINITION_CONTEXT('',#1168,'design');
#1139=PRODUCT_DEFINITION_CONTEXT('',#1168,'design');
#1140=PRODUCT_DEFINITION_CONTEXT('',#1168,'design');
#1141=PRODUCT_DEFINITION_CONTEXT('',#1168,'design');
#1142=PRODUCT_DEFINITION_FORMATION_WITH_SPECIFIED_SOURCE('','',#1152,
 .NOT_KNOWN.);
#1143=PRODUCT_DEFINITION_FORMATION_WITH_SPECIFIED_SOURCE('','',#1153,
 .NOT_KNOWN.);
#1144=PRODUCT_DEFINITION_FORMATION_WITH_SPECIFIED_SOURCE('','',#1154,
 .NOT_KNOWN.);
#1145=PRODUCT_DEFINITION_FORMATION_WITH_SPECIFIED_SOURCE('','',#1155,
 .NOT_KNOWN.);
#1146=PRODUCT_DEFINITION_FORMATION_WITH_SPECIFIED_SOURCE('','',#1156,
 .NOT_KNOWN.);
#1147=PRODUCT_RELATED_PRODUCT_CATEGORY('','',(#1152));
#1148=PRODUCT_RELATED_PRODUCT_CATEGORY('','',(#1153));
#1149=PRODUCT_RELATED_PRODUCT_CATEGORY('','',(#1154));
#1150=PRODUCT_RELATED_PRODUCT_CATEGORY('','',(#1155));
#1151=PRODUCT_RELATED_PRODUCT_CATEGORY('','',(#1156));
#1152=PRODUCT('Smoke_2_click_v104','Smoke_2_click_v104',
'Smoke_2_click_v104',(#1162));
#1153=PRODUCT('U1','U1','U1',(#1163));
#1154=PRODUCT('Part1','Part1','Part1',(#1164));
#1155=PRODUCT('737110528','737110528','737110528',(#1165));
#1156=PRODUCT('Extruded','Extruded','Extruded',(#1166));
#1157=PRODUCT_CATEGORY('','');
#1158=PRODUCT_CATEGORY('','');
#1159=PRODUCT_CATEGORY('','');
#1160=PRODUCT_CATEGORY('','');
#1161=PRODUCT_CATEGORY('','');
#1162=PRODUCT_CONTEXT('',#1168,'mechanical');
#1163=PRODUCT_CONTEXT('',#1168,'mechanical');
#1164=PRODUCT_CONTEXT('',#1168,'mechanical');
#1165=PRODUCT_CONTEXT('',#1168,'mechanical');
#1166=PRODUCT_CONTEXT('',#1168,'mechanical');
#1167=APPLICATION_PROTOCOL_DEFINITION('international standard',
'automotive_design',2010,#1168);
#1168=APPLICATION_CONTEXT(
'core data for automotive mechanical design processes');
ENDSEC;
END-ISO-10303-21;
