ISO-10303-21;
HEADER;
/* Generated by software containing ST-Developer
 * from STEP Tools, Inc. (www.steptools.com) 
 */
/* OPTION: strings as raw bytes, not using required /X/ escapes */

FILE_DESCRIPTION(
/* description */ ('Unknown'),
/* implementation_level */ '2;1');

FILE_NAME(
/* name */ 'BAT32xx0-5',
/* time_stamp */ '2025-10-06T22:46:13+07:00',
/* author */ ('Unknown'),
/* organization */ ('Unknown'),
/* preprocessor_version */ 'ST-DEVELOPER v20',
/* originating_system */ 'Solid Edge',
/* authorisation */ 'Unknown');

FILE_SCHEMA (('AUTOMOTIVE_DESIGN {1 0 10303 214 3 1 1}'));
ENDSEC;

DATA;
#10=PROPERTY_DEFINITION_REPRESENTATION(#14,#12);
#11=PROPERTY_DEFINITION_REPRESENTATION(#15,#13);
#12=REPRESENTATION('',(#16),#2066);
#13=REPRESENTATION('',(#17),#2066);
#14=PROPERTY_DEFINITION('pmi validation property','',#2073);
#15=PROPERTY_DEFINITION('pmi validation property','',#2073);
#16=VALUE_REPRESENTATION_ITEM('number of annotations',COUNT_MEASURE(0.));
#17=VALUE_REPRESENTATION_ITEM('number of views',COUNT_MEASURE(0.));
#18=CONTEXT_DEPENDENT_SHAPE_REPRESENTATION(#28,#2075);
#19=CONTEXT_DEPENDENT_SHAPE_REPRESENTATION(#29,#2076);
#20=CONTEXT_DEPENDENT_SHAPE_REPRESENTATION(#30,#2077);
#21=CONTEXT_DEPENDENT_SHAPE_REPRESENTATION(#31,#2078);
#22=CONTEXT_DEPENDENT_SHAPE_REPRESENTATION(#32,#2079);
#23=NEXT_ASSEMBLY_USAGE_OCCURRENCE('32650 holder_step',
'32650 holder_step','32650 holder_step',#2080,#2081,'');
#24=NEXT_ASSEMBLY_USAGE_OCCURRENCE('32650 holder_step',
'32650 holder_step','32650 holder_step',#2080,#2081,'');
#25=NEXT_ASSEMBLY_USAGE_OCCURRENCE('32650 holder_step',
'32650 holder_step','32650 holder_step',#2080,#2081,'');
#26=NEXT_ASSEMBLY_USAGE_OCCURRENCE('32650 holder_step',
'32650 holder_step','32650 holder_step',#2080,#2081,'');
#27=NEXT_ASSEMBLY_USAGE_OCCURRENCE('32650 holder_step',
'32650 holder_step','32650 holder_step',#2080,#2081,'');
#28=(
REPRESENTATION_RELATIONSHIP(' ',' ',#1292,#1293)
REPRESENTATION_RELATIONSHIP_WITH_TRANSFORMATION(#33)
SHAPE_REPRESENTATION_RELATIONSHIP()
);
#29=(
REPRESENTATION_RELATIONSHIP(' ',' ',#1292,#1293)
REPRESENTATION_RELATIONSHIP_WITH_TRANSFORMATION(#34)
SHAPE_REPRESENTATION_RELATIONSHIP()
);
#30=(
REPRESENTATION_RELATIONSHIP(' ',' ',#1292,#1293)
REPRESENTATION_RELATIONSHIP_WITH_TRANSFORMATION(#35)
SHAPE_REPRESENTATION_RELATIONSHIP()
);
#31=(
REPRESENTATION_RELATIONSHIP(' ',' ',#1292,#1293)
REPRESENTATION_RELATIONSHIP_WITH_TRANSFORMATION(#36)
SHAPE_REPRESENTATION_RELATIONSHIP()
);
#32=(
REPRESENTATION_RELATIONSHIP(' ',' ',#1292,#1293)
REPRESENTATION_RELATIONSHIP_WITH_TRANSFORMATION(#37)
SHAPE_REPRESENTATION_RELATIONSHIP()
);
#33=ITEM_DEFINED_TRANSFORMATION(' ',' ',#1294,#1370);
#34=ITEM_DEFINED_TRANSFORMATION(' ',' ',#1294,#1371);
#35=ITEM_DEFINED_TRANSFORMATION(' ',' ',#1294,#1372);
#36=ITEM_DEFINED_TRANSFORMATION(' ',' ',#1294,#1373);
#37=ITEM_DEFINED_TRANSFORMATION(' ',' ',#1294,#1374);
#38=SHAPE_REPRESENTATION_RELATIONSHIP('','',#1292,#39);
#39=ADVANCED_BREP_SHAPE_REPRESENTATION('',(#1289),#2067);
#40=CYLINDRICAL_SURFACE('',#1351,16.);
#41=CYLINDRICAL_SURFACE('',#1369,16.);
#42=CIRCLE('',#1335,16.);
#43=CIRCLE('',#1340,16.);
#44=CIRCLE('',#1345,16.);
#45=CIRCLE('',#1350,16.);
#46=CIRCLE('',#1352,16.);
#47=CIRCLE('',#1353,16.);
#48=CIRCLE('',#1354,16.);
#49=CIRCLE('',#1355,16.);
#50=CIRCLE('',#1358,16.);
#51=CIRCLE('',#1360,16.);
#52=CIRCLE('',#1362,16.);
#53=CIRCLE('',#1368,16.);
#54=ORIENTED_EDGE('',*,*,#410,.T.);
#55=ORIENTED_EDGE('',*,*,#411,.T.);
#56=ORIENTED_EDGE('',*,*,#412,.T.);
#57=ORIENTED_EDGE('',*,*,#413,.T.);
#58=ORIENTED_EDGE('',*,*,#414,.T.);
#59=ORIENTED_EDGE('',*,*,#415,.F.);
#60=ORIENTED_EDGE('',*,*,#411,.F.);
#61=ORIENTED_EDGE('',*,*,#416,.T.);
#62=ORIENTED_EDGE('',*,*,#417,.T.);
#63=ORIENTED_EDGE('',*,*,#418,.F.);
#64=ORIENTED_EDGE('',*,*,#413,.F.);
#65=ORIENTED_EDGE('',*,*,#419,.T.);
#66=ORIENTED_EDGE('',*,*,#420,.T.);
#67=ORIENTED_EDGE('',*,*,#416,.F.);
#68=ORIENTED_EDGE('',*,*,#410,.F.);
#69=ORIENTED_EDGE('',*,*,#418,.T.);
#70=ORIENTED_EDGE('',*,*,#421,.F.);
#71=ORIENTED_EDGE('',*,*,#422,.F.);
#72=ORIENTED_EDGE('',*,*,#423,.F.);
#73=ORIENTED_EDGE('',*,*,#424,.T.);
#74=ORIENTED_EDGE('',*,*,#425,.F.);
#75=ORIENTED_EDGE('',*,*,#426,.F.);
#76=ORIENTED_EDGE('',*,*,#422,.T.);
#77=ORIENTED_EDGE('',*,*,#427,.T.);
#78=ORIENTED_EDGE('',*,*,#428,.F.);
#79=ORIENTED_EDGE('',*,*,#429,.F.);
#80=ORIENTED_EDGE('',*,*,#423,.T.);
#81=ORIENTED_EDGE('',*,*,#426,.T.);
#82=ORIENTED_EDGE('',*,*,#430,.F.);
#83=ORIENTED_EDGE('',*,*,#427,.F.);
#84=ORIENTED_EDGE('',*,*,#421,.T.);
#85=ORIENTED_EDGE('',*,*,#431,.T.);
#86=ORIENTED_EDGE('',*,*,#432,.T.);
#87=ORIENTED_EDGE('',*,*,#433,.T.);
#88=ORIENTED_EDGE('',*,*,#434,.T.);
#89=ORIENTED_EDGE('',*,*,#435,.T.);
#90=ORIENTED_EDGE('',*,*,#436,.T.);
#91=ORIENTED_EDGE('',*,*,#437,.F.);
#92=ORIENTED_EDGE('',*,*,#433,.F.);
#93=ORIENTED_EDGE('',*,*,#438,.T.);
#94=ORIENTED_EDGE('',*,*,#439,.T.);
#95=ORIENTED_EDGE('',*,*,#440,.F.);
#96=ORIENTED_EDGE('',*,*,#434,.F.);
#97=ORIENTED_EDGE('',*,*,#437,.T.);
#98=ORIENTED_EDGE('',*,*,#441,.T.);
#99=ORIENTED_EDGE('',*,*,#442,.F.);
#100=ORIENTED_EDGE('',*,*,#435,.F.);
#101=ORIENTED_EDGE('',*,*,#440,.T.);
#102=ORIENTED_EDGE('',*,*,#443,.T.);
#103=ORIENTED_EDGE('',*,*,#444,.T.);
#104=ORIENTED_EDGE('',*,*,#445,.T.);
#105=ORIENTED_EDGE('',*,*,#446,.T.);
#106=ORIENTED_EDGE('',*,*,#447,.T.);
#107=ORIENTED_EDGE('',*,*,#448,.F.);
#108=ORIENTED_EDGE('',*,*,#444,.F.);
#109=ORIENTED_EDGE('',*,*,#449,.T.);
#110=ORIENTED_EDGE('',*,*,#450,.T.);
#111=ORIENTED_EDGE('',*,*,#451,.F.);
#112=ORIENTED_EDGE('',*,*,#445,.F.);
#113=ORIENTED_EDGE('',*,*,#448,.T.);
#114=ORIENTED_EDGE('',*,*,#452,.T.);
#115=ORIENTED_EDGE('',*,*,#453,.F.);
#116=ORIENTED_EDGE('',*,*,#446,.F.);
#117=ORIENTED_EDGE('',*,*,#451,.T.);
#118=ORIENTED_EDGE('',*,*,#454,.F.);
#119=ORIENTED_EDGE('',*,*,#455,.F.);
#120=ORIENTED_EDGE('',*,*,#456,.F.);
#121=ORIENTED_EDGE('',*,*,#457,.F.);
#122=ORIENTED_EDGE('',*,*,#458,.F.);
#123=ORIENTED_EDGE('',*,*,#459,.F.);
#124=ORIENTED_EDGE('',*,*,#457,.T.);
#125=ORIENTED_EDGE('',*,*,#460,.T.);
#126=ORIENTED_EDGE('',*,*,#461,.F.);
#127=ORIENTED_EDGE('',*,*,#460,.F.);
#128=ORIENTED_EDGE('',*,*,#456,.T.);
#129=ORIENTED_EDGE('',*,*,#462,.T.);
#130=ORIENTED_EDGE('',*,*,#463,.F.);
#131=ORIENTED_EDGE('',*,*,#462,.F.);
#132=ORIENTED_EDGE('',*,*,#455,.T.);
#133=ORIENTED_EDGE('',*,*,#464,.T.);
#134=ORIENTED_EDGE('',*,*,#465,.F.);
#135=ORIENTED_EDGE('',*,*,#466,.F.);
#136=ORIENTED_EDGE('',*,*,#467,.F.);
#137=ORIENTED_EDGE('',*,*,#468,.F.);
#138=ORIENTED_EDGE('',*,*,#469,.F.);
#139=ORIENTED_EDGE('',*,*,#470,.F.);
#140=ORIENTED_EDGE('',*,*,#468,.T.);
#141=ORIENTED_EDGE('',*,*,#471,.T.);
#142=ORIENTED_EDGE('',*,*,#472,.F.);
#143=ORIENTED_EDGE('',*,*,#471,.F.);
#144=ORIENTED_EDGE('',*,*,#467,.T.);
#145=ORIENTED_EDGE('',*,*,#473,.T.);
#146=ORIENTED_EDGE('',*,*,#474,.F.);
#147=ORIENTED_EDGE('',*,*,#473,.F.);
#148=ORIENTED_EDGE('',*,*,#466,.T.);
#149=ORIENTED_EDGE('',*,*,#475,.T.);
#150=ORIENTED_EDGE('',*,*,#476,.F.);
#151=ORIENTED_EDGE('',*,*,#477,.F.);
#152=ORIENTED_EDGE('',*,*,#478,.F.);
#153=ORIENTED_EDGE('',*,*,#479,.F.);
#154=ORIENTED_EDGE('',*,*,#480,.F.);
#155=ORIENTED_EDGE('',*,*,#481,.F.);
#156=ORIENTED_EDGE('',*,*,#479,.T.);
#157=ORIENTED_EDGE('',*,*,#482,.T.);
#158=ORIENTED_EDGE('',*,*,#483,.F.);
#159=ORIENTED_EDGE('',*,*,#482,.F.);
#160=ORIENTED_EDGE('',*,*,#478,.T.);
#161=ORIENTED_EDGE('',*,*,#484,.T.);
#162=ORIENTED_EDGE('',*,*,#485,.F.);
#163=ORIENTED_EDGE('',*,*,#484,.F.);
#164=ORIENTED_EDGE('',*,*,#477,.T.);
#165=ORIENTED_EDGE('',*,*,#486,.T.);
#166=ORIENTED_EDGE('',*,*,#487,.F.);
#167=ORIENTED_EDGE('',*,*,#488,.F.);
#168=ORIENTED_EDGE('',*,*,#489,.F.);
#169=ORIENTED_EDGE('',*,*,#490,.F.);
#170=ORIENTED_EDGE('',*,*,#491,.F.);
#171=ORIENTED_EDGE('',*,*,#492,.F.);
#172=ORIENTED_EDGE('',*,*,#490,.T.);
#173=ORIENTED_EDGE('',*,*,#493,.T.);
#174=ORIENTED_EDGE('',*,*,#494,.F.);
#175=ORIENTED_EDGE('',*,*,#493,.F.);
#176=ORIENTED_EDGE('',*,*,#489,.T.);
#177=ORIENTED_EDGE('',*,*,#495,.T.);
#178=ORIENTED_EDGE('',*,*,#496,.F.);
#179=ORIENTED_EDGE('',*,*,#495,.F.);
#180=ORIENTED_EDGE('',*,*,#488,.T.);
#181=ORIENTED_EDGE('',*,*,#497,.T.);
#182=ORIENTED_EDGE('',*,*,#498,.F.);
#183=ORIENTED_EDGE('',*,*,#499,.F.);
#184=ORIENTED_EDGE('',*,*,#500,.F.);
#185=ORIENTED_EDGE('',*,*,#501,.F.);
#186=ORIENTED_EDGE('',*,*,#502,.F.);
#187=ORIENTED_EDGE('',*,*,#503,.F.);
#188=ORIENTED_EDGE('',*,*,#504,.F.);
#189=ORIENTED_EDGE('',*,*,#505,.F.);
#190=ORIENTED_EDGE('',*,*,#506,.F.);
#191=ORIENTED_EDGE('',*,*,#507,.F.);
#192=ORIENTED_EDGE('',*,*,#508,.F.);
#193=ORIENTED_EDGE('',*,*,#509,.F.);
#194=ORIENTED_EDGE('',*,*,#510,.F.);
#195=ORIENTED_EDGE('',*,*,#511,.F.);
#196=ORIENTED_EDGE('',*,*,#512,.F.);
#197=ORIENTED_EDGE('',*,*,#513,.F.);
#198=ORIENTED_EDGE('',*,*,#514,.T.);
#199=ORIENTED_EDGE('',*,*,#506,.T.);
#200=ORIENTED_EDGE('',*,*,#515,.T.);
#201=ORIENTED_EDGE('',*,*,#516,.T.);
#202=ORIENTED_EDGE('',*,*,#517,.T.);
#203=ORIENTED_EDGE('',*,*,#515,.F.);
#204=ORIENTED_EDGE('',*,*,#509,.T.);
#205=ORIENTED_EDGE('',*,*,#518,.T.);
#206=ORIENTED_EDGE('',*,*,#519,.T.);
#207=ORIENTED_EDGE('',*,*,#520,.F.);
#208=ORIENTED_EDGE('',*,*,#521,.T.);
#209=ORIENTED_EDGE('',*,*,#507,.T.);
#210=ORIENTED_EDGE('',*,*,#514,.F.);
#211=ORIENTED_EDGE('',*,*,#522,.T.);
#212=ORIENTED_EDGE('',*,*,#523,.T.);
#213=ORIENTED_EDGE('',*,*,#518,.F.);
#214=ORIENTED_EDGE('',*,*,#508,.T.);
#215=ORIENTED_EDGE('',*,*,#521,.F.);
#216=ORIENTED_EDGE('',*,*,#524,.T.);
#217=ORIENTED_EDGE('',*,*,#525,.T.);
#218=ORIENTED_EDGE('',*,*,#510,.T.);
#219=ORIENTED_EDGE('',*,*,#526,.T.);
#220=ORIENTED_EDGE('',*,*,#527,.T.);
#221=ORIENTED_EDGE('',*,*,#528,.T.);
#222=ORIENTED_EDGE('',*,*,#526,.F.);
#223=ORIENTED_EDGE('',*,*,#513,.T.);
#224=ORIENTED_EDGE('',*,*,#529,.T.);
#225=ORIENTED_EDGE('',*,*,#530,.T.);
#226=ORIENTED_EDGE('',*,*,#531,.F.);
#227=ORIENTED_EDGE('',*,*,#532,.T.);
#228=ORIENTED_EDGE('',*,*,#511,.T.);
#229=ORIENTED_EDGE('',*,*,#525,.F.);
#230=ORIENTED_EDGE('',*,*,#533,.T.);
#231=ORIENTED_EDGE('',*,*,#534,.T.);
#232=ORIENTED_EDGE('',*,*,#529,.F.);
#233=ORIENTED_EDGE('',*,*,#512,.T.);
#234=ORIENTED_EDGE('',*,*,#532,.F.);
#235=ORIENTED_EDGE('',*,*,#535,.T.);
#236=ORIENTED_EDGE('',*,*,#536,.T.);
#237=ORIENTED_EDGE('',*,*,#502,.T.);
#238=ORIENTED_EDGE('',*,*,#537,.T.);
#239=ORIENTED_EDGE('',*,*,#538,.T.);
#240=ORIENTED_EDGE('',*,*,#539,.T.);
#241=ORIENTED_EDGE('',*,*,#537,.F.);
#242=ORIENTED_EDGE('',*,*,#505,.T.);
#243=ORIENTED_EDGE('',*,*,#540,.T.);
#244=ORIENTED_EDGE('',*,*,#541,.T.);
#245=ORIENTED_EDGE('',*,*,#542,.F.);
#246=ORIENTED_EDGE('',*,*,#543,.T.);
#247=ORIENTED_EDGE('',*,*,#503,.T.);
#248=ORIENTED_EDGE('',*,*,#536,.F.);
#249=ORIENTED_EDGE('',*,*,#544,.T.);
#250=ORIENTED_EDGE('',*,*,#545,.T.);
#251=ORIENTED_EDGE('',*,*,#540,.F.);
#252=ORIENTED_EDGE('',*,*,#504,.T.);
#253=ORIENTED_EDGE('',*,*,#543,.F.);
#254=ORIENTED_EDGE('',*,*,#546,.T.);
#255=ORIENTED_EDGE('',*,*,#547,.T.);
#256=ORIENTED_EDGE('',*,*,#498,.T.);
#257=ORIENTED_EDGE('',*,*,#548,.T.);
#258=ORIENTED_EDGE('',*,*,#549,.T.);
#259=ORIENTED_EDGE('',*,*,#550,.T.);
#260=ORIENTED_EDGE('',*,*,#548,.F.);
#261=ORIENTED_EDGE('',*,*,#501,.T.);
#262=ORIENTED_EDGE('',*,*,#551,.T.);
#263=ORIENTED_EDGE('',*,*,#552,.T.);
#264=ORIENTED_EDGE('',*,*,#553,.F.);
#265=ORIENTED_EDGE('',*,*,#554,.T.);
#266=ORIENTED_EDGE('',*,*,#499,.T.);
#267=ORIENTED_EDGE('',*,*,#547,.F.);
#268=ORIENTED_EDGE('',*,*,#555,.T.);
#269=ORIENTED_EDGE('',*,*,#556,.T.);
#270=ORIENTED_EDGE('',*,*,#551,.F.);
#271=ORIENTED_EDGE('',*,*,#500,.T.);
#272=ORIENTED_EDGE('',*,*,#554,.F.);
#273=ORIENTED_EDGE('',*,*,#557,.T.);
#274=ORIENTED_EDGE('',*,*,#558,.F.);
#275=ORIENTED_EDGE('',*,*,#559,.T.);
#276=ORIENTED_EDGE('',*,*,#560,.T.);
#277=ORIENTED_EDGE('',*,*,#561,.F.);
#278=ORIENTED_EDGE('',*,*,#524,.F.);
#279=ORIENTED_EDGE('',*,*,#562,.F.);
#280=ORIENTED_EDGE('',*,*,#557,.F.);
#281=ORIENTED_EDGE('',*,*,#563,.F.);
#282=ORIENTED_EDGE('',*,*,#432,.F.);
#283=ORIENTED_EDGE('',*,*,#442,.T.);
#284=ORIENTED_EDGE('',*,*,#564,.F.);
#285=ORIENTED_EDGE('',*,*,#449,.F.);
#286=ORIENTED_EDGE('',*,*,#443,.F.);
#287=ORIENTED_EDGE('',*,*,#453,.T.);
#288=ORIENTED_EDGE('',*,*,#565,.F.);
#289=ORIENTED_EDGE('',*,*,#566,.T.);
#290=ORIENTED_EDGE('',*,*,#538,.F.);
#291=ORIENTED_EDGE('',*,*,#542,.T.);
#292=ORIENTED_EDGE('',*,*,#567,.T.);
#293=ORIENTED_EDGE('',*,*,#555,.F.);
#294=ORIENTED_EDGE('',*,*,#550,.F.);
#295=ORIENTED_EDGE('',*,*,#568,.F.);
#296=ORIENTED_EDGE('',*,*,#569,.F.);
#297=ORIENTED_EDGE('',*,*,#438,.F.);
#298=ORIENTED_EDGE('',*,*,#567,.F.);
#299=ORIENTED_EDGE('',*,*,#541,.F.);
#300=ORIENTED_EDGE('',*,*,#570,.T.);
#301=ORIENTED_EDGE('',*,*,#563,.T.);
#302=ORIENTED_EDGE('',*,*,#556,.F.);
#303=ORIENTED_EDGE('',*,*,#571,.F.);
#304=ORIENTED_EDGE('',*,*,#530,.F.);
#305=ORIENTED_EDGE('',*,*,#572,.T.);
#306=ORIENTED_EDGE('',*,*,#545,.F.);
#307=ORIENTED_EDGE('',*,*,#573,.F.);
#308=ORIENTED_EDGE('',*,*,#519,.F.);
#309=ORIENTED_EDGE('',*,*,#561,.T.);
#310=ORIENTED_EDGE('',*,*,#574,.T.);
#311=ORIENTED_EDGE('',*,*,#534,.F.);
#312=ORIENTED_EDGE('',*,*,#562,.T.);
#313=ORIENTED_EDGE('',*,*,#523,.F.);
#314=ORIENTED_EDGE('',*,*,#575,.F.);
#315=ORIENTED_EDGE('',*,*,#552,.F.);
#316=ORIENTED_EDGE('',*,*,#576,.F.);
#317=ORIENTED_EDGE('',*,*,#486,.F.);
#318=ORIENTED_EDGE('',*,*,#476,.T.);
#319=ORIENTED_EDGE('',*,*,#481,.T.);
#320=ORIENTED_EDGE('',*,*,#577,.F.);
#321=ORIENTED_EDGE('',*,*,#497,.F.);
#322=ORIENTED_EDGE('',*,*,#487,.T.);
#323=ORIENTED_EDGE('',*,*,#492,.T.);
#324=ORIENTED_EDGE('',*,*,#578,.F.);
#325=ORIENTED_EDGE('',*,*,#568,.T.);
#326=ORIENTED_EDGE('',*,*,#549,.F.);
#327=ORIENTED_EDGE('',*,*,#553,.T.);
#328=ORIENTED_EDGE('',*,*,#575,.T.);
#329=ORIENTED_EDGE('',*,*,#522,.F.);
#330=ORIENTED_EDGE('',*,*,#517,.F.);
#331=ORIENTED_EDGE('',*,*,#579,.F.);
#332=ORIENTED_EDGE('',*,*,#580,.F.);
#333=ORIENTED_EDGE('',*,*,#464,.F.);
#334=ORIENTED_EDGE('',*,*,#454,.T.);
#335=ORIENTED_EDGE('',*,*,#459,.T.);
#336=ORIENTED_EDGE('',*,*,#581,.F.);
#337=ORIENTED_EDGE('',*,*,#475,.F.);
#338=ORIENTED_EDGE('',*,*,#465,.T.);
#339=ORIENTED_EDGE('',*,*,#470,.T.);
#340=ORIENTED_EDGE('',*,*,#582,.F.);
#341=ORIENTED_EDGE('',*,*,#579,.T.);
#342=ORIENTED_EDGE('',*,*,#516,.F.);
#343=ORIENTED_EDGE('',*,*,#520,.T.);
#344=ORIENTED_EDGE('',*,*,#573,.T.);
#345=ORIENTED_EDGE('',*,*,#533,.F.);
#346=ORIENTED_EDGE('',*,*,#528,.F.);
#347=ORIENTED_EDGE('',*,*,#583,.F.);
#348=ORIENTED_EDGE('',*,*,#584,.F.);
#349=ORIENTED_EDGE('',*,*,#419,.F.);
#350=ORIENTED_EDGE('',*,*,#412,.F.);
#351=ORIENTED_EDGE('',*,*,#415,.T.);
#352=ORIENTED_EDGE('',*,*,#585,.F.);
#353=ORIENTED_EDGE('',*,*,#431,.F.);
#354=ORIENTED_EDGE('',*,*,#424,.F.);
#355=ORIENTED_EDGE('',*,*,#429,.T.);
#356=ORIENTED_EDGE('',*,*,#586,.F.);
#357=ORIENTED_EDGE('',*,*,#583,.T.);
#358=ORIENTED_EDGE('',*,*,#527,.F.);
#359=ORIENTED_EDGE('',*,*,#531,.T.);
#360=ORIENTED_EDGE('',*,*,#571,.T.);
#361=ORIENTED_EDGE('',*,*,#544,.F.);
#362=ORIENTED_EDGE('',*,*,#539,.F.);
#363=ORIENTED_EDGE('',*,*,#566,.F.);
#364=ORIENTED_EDGE('',*,*,#564,.T.);
#365=ORIENTED_EDGE('',*,*,#441,.F.);
#366=ORIENTED_EDGE('',*,*,#439,.F.);
#367=ORIENTED_EDGE('',*,*,#436,.F.);
#368=ORIENTED_EDGE('',*,*,#569,.T.);
#369=ORIENTED_EDGE('',*,*,#578,.T.);
#370=ORIENTED_EDGE('',*,*,#491,.T.);
#371=ORIENTED_EDGE('',*,*,#494,.T.);
#372=ORIENTED_EDGE('',*,*,#496,.T.);
#373=ORIENTED_EDGE('',*,*,#577,.T.);
#374=ORIENTED_EDGE('',*,*,#480,.T.);
#375=ORIENTED_EDGE('',*,*,#483,.T.);
#376=ORIENTED_EDGE('',*,*,#485,.T.);
#377=ORIENTED_EDGE('',*,*,#576,.T.);
#378=ORIENTED_EDGE('',*,*,#582,.T.);
#379=ORIENTED_EDGE('',*,*,#469,.T.);
#380=ORIENTED_EDGE('',*,*,#472,.T.);
#381=ORIENTED_EDGE('',*,*,#474,.T.);
#382=ORIENTED_EDGE('',*,*,#581,.T.);
#383=ORIENTED_EDGE('',*,*,#458,.T.);
#384=ORIENTED_EDGE('',*,*,#461,.T.);
#385=ORIENTED_EDGE('',*,*,#463,.T.);
#386=ORIENTED_EDGE('',*,*,#580,.T.);
#387=ORIENTED_EDGE('',*,*,#586,.T.);
#388=ORIENTED_EDGE('',*,*,#428,.T.);
#389=ORIENTED_EDGE('',*,*,#425,.T.);
#390=ORIENTED_EDGE('',*,*,#430,.T.);
#391=ORIENTED_EDGE('',*,*,#585,.T.);
#392=ORIENTED_EDGE('',*,*,#414,.F.);
#393=ORIENTED_EDGE('',*,*,#420,.F.);
#394=ORIENTED_EDGE('',*,*,#417,.F.);
#395=ORIENTED_EDGE('',*,*,#584,.T.);
#396=ORIENTED_EDGE('',*,*,#565,.T.);
#397=ORIENTED_EDGE('',*,*,#452,.F.);
#398=ORIENTED_EDGE('',*,*,#450,.F.);
#399=ORIENTED_EDGE('',*,*,#447,.F.);
#400=ORIENTED_EDGE('',*,*,#587,.F.);
#401=ORIENTED_EDGE('',*,*,#559,.F.);
#402=ORIENTED_EDGE('',*,*,#587,.T.);
#403=ORIENTED_EDGE('',*,*,#558,.T.);
#404=ORIENTED_EDGE('',*,*,#570,.F.);
#405=ORIENTED_EDGE('',*,*,#546,.F.);
#406=ORIENTED_EDGE('',*,*,#572,.F.);
#407=ORIENTED_EDGE('',*,*,#535,.F.);
#408=ORIENTED_EDGE('',*,*,#574,.F.);
#409=ORIENTED_EDGE('',*,*,#560,.F.);
#410=EDGE_CURVE('',#588,#589,#704,.T.);
#411=EDGE_CURVE('',#589,#590,#705,.T.);
#412=EDGE_CURVE('',#590,#591,#706,.T.);
#413=EDGE_CURVE('',#591,#588,#707,.T.);
#414=EDGE_CURVE('',#592,#593,#708,.T.);
#415=EDGE_CURVE('',#590,#593,#709,.T.);
#416=EDGE_CURVE('',#589,#592,#710,.T.);
#417=EDGE_CURVE('',#594,#595,#711,.T.);
#418=EDGE_CURVE('',#588,#595,#712,.T.);
#419=EDGE_CURVE('',#591,#594,#713,.T.);
#420=EDGE_CURVE('',#595,#592,#714,.T.);
#421=EDGE_CURVE('',#596,#597,#715,.T.);
#422=EDGE_CURVE('',#598,#596,#716,.T.);
#423=EDGE_CURVE('',#599,#598,#717,.T.);
#424=EDGE_CURVE('',#599,#597,#718,.T.);
#425=EDGE_CURVE('',#600,#601,#719,.T.);
#426=EDGE_CURVE('',#598,#600,#720,.T.);
#427=EDGE_CURVE('',#596,#601,#721,.T.);
#428=EDGE_CURVE('',#602,#600,#722,.T.);
#429=EDGE_CURVE('',#599,#602,#723,.T.);
#430=EDGE_CURVE('',#601,#603,#724,.T.);
#431=EDGE_CURVE('',#597,#603,#725,.T.);
#432=EDGE_CURVE('',#604,#605,#726,.T.);
#433=EDGE_CURVE('',#605,#606,#727,.T.);
#434=EDGE_CURVE('',#606,#607,#728,.T.);
#435=EDGE_CURVE('',#607,#604,#729,.T.);
#436=EDGE_CURVE('',#608,#609,#730,.T.);
#437=EDGE_CURVE('',#606,#609,#731,.T.);
#438=EDGE_CURVE('',#605,#608,#732,.T.);
#439=EDGE_CURVE('',#609,#610,#733,.T.);
#440=EDGE_CURVE('',#607,#610,#734,.T.);
#441=EDGE_CURVE('',#610,#611,#735,.T.);
#442=EDGE_CURVE('',#604,#611,#736,.T.);
#443=EDGE_CURVE('',#612,#613,#737,.T.);
#444=EDGE_CURVE('',#613,#614,#738,.T.);
#445=EDGE_CURVE('',#614,#615,#739,.T.);
#446=EDGE_CURVE('',#615,#612,#740,.T.);
#447=EDGE_CURVE('',#616,#617,#741,.T.);
#448=EDGE_CURVE('',#614,#617,#742,.T.);
#449=EDGE_CURVE('',#613,#616,#743,.T.);
#450=EDGE_CURVE('',#617,#618,#744,.T.);
#451=EDGE_CURVE('',#615,#618,#745,.T.);
#452=EDGE_CURVE('',#618,#619,#746,.T.);
#453=EDGE_CURVE('',#612,#619,#747,.T.);
#454=EDGE_CURVE('',#620,#621,#748,.T.);
#455=EDGE_CURVE('',#622,#620,#749,.T.);
#456=EDGE_CURVE('',#623,#622,#750,.T.);
#457=EDGE_CURVE('',#621,#623,#751,.T.);
#458=EDGE_CURVE('',#624,#625,#752,.T.);
#459=EDGE_CURVE('',#621,#624,#753,.T.);
#460=EDGE_CURVE('',#623,#625,#754,.T.);
#461=EDGE_CURVE('',#625,#626,#755,.T.);
#462=EDGE_CURVE('',#622,#626,#756,.T.);
#463=EDGE_CURVE('',#626,#627,#757,.T.);
#464=EDGE_CURVE('',#620,#627,#758,.T.);
#465=EDGE_CURVE('',#628,#629,#759,.T.);
#466=EDGE_CURVE('',#630,#628,#760,.T.);
#467=EDGE_CURVE('',#631,#630,#761,.T.);
#468=EDGE_CURVE('',#629,#631,#762,.T.);
#469=EDGE_CURVE('',#632,#633,#763,.T.);
#470=EDGE_CURVE('',#629,#632,#764,.T.);
#471=EDGE_CURVE('',#631,#633,#765,.T.);
#472=EDGE_CURVE('',#633,#634,#766,.T.);
#473=EDGE_CURVE('',#630,#634,#767,.T.);
#474=EDGE_CURVE('',#634,#635,#768,.T.);
#475=EDGE_CURVE('',#628,#635,#769,.T.);
#476=EDGE_CURVE('',#636,#637,#770,.T.);
#477=EDGE_CURVE('',#638,#636,#771,.T.);
#478=EDGE_CURVE('',#639,#638,#772,.T.);
#479=EDGE_CURVE('',#637,#639,#773,.T.);
#480=EDGE_CURVE('',#640,#641,#774,.T.);
#481=EDGE_CURVE('',#637,#640,#775,.T.);
#482=EDGE_CURVE('',#639,#641,#776,.T.);
#483=EDGE_CURVE('',#641,#642,#777,.T.);
#484=EDGE_CURVE('',#638,#642,#778,.T.);
#485=EDGE_CURVE('',#642,#643,#779,.T.);
#486=EDGE_CURVE('',#636,#643,#780,.T.);
#487=EDGE_CURVE('',#644,#645,#781,.T.);
#488=EDGE_CURVE('',#646,#644,#782,.T.);
#489=EDGE_CURVE('',#647,#646,#783,.T.);
#490=EDGE_CURVE('',#645,#647,#784,.T.);
#491=EDGE_CURVE('',#648,#649,#785,.T.);
#492=EDGE_CURVE('',#645,#648,#786,.T.);
#493=EDGE_CURVE('',#647,#649,#787,.T.);
#494=EDGE_CURVE('',#649,#650,#788,.T.);
#495=EDGE_CURVE('',#646,#650,#789,.T.);
#496=EDGE_CURVE('',#650,#651,#790,.T.);
#497=EDGE_CURVE('',#644,#651,#791,.T.);
#498=EDGE_CURVE('',#652,#653,#792,.T.);
#499=EDGE_CURVE('',#654,#652,#793,.T.);
#500=EDGE_CURVE('',#655,#654,#794,.T.);
#501=EDGE_CURVE('',#653,#655,#795,.T.);
#502=EDGE_CURVE('',#656,#657,#796,.T.);
#503=EDGE_CURVE('',#658,#656,#797,.T.);
#504=EDGE_CURVE('',#659,#658,#798,.T.);
#505=EDGE_CURVE('',#657,#659,#799,.T.);
#506=EDGE_CURVE('',#660,#661,#800,.T.);
#507=EDGE_CURVE('',#662,#660,#801,.T.);
#508=EDGE_CURVE('',#663,#662,#802,.T.);
#509=EDGE_CURVE('',#661,#663,#803,.T.);
#510=EDGE_CURVE('',#664,#665,#804,.T.);
#511=EDGE_CURVE('',#666,#664,#805,.T.);
#512=EDGE_CURVE('',#667,#666,#806,.T.);
#513=EDGE_CURVE('',#665,#667,#807,.T.);
#514=EDGE_CURVE('',#668,#660,#808,.T.);
#515=EDGE_CURVE('',#661,#669,#809,.T.);
#516=EDGE_CURVE('',#669,#670,#810,.T.);
#517=EDGE_CURVE('',#670,#668,#811,.T.);
#518=EDGE_CURVE('',#663,#671,#812,.T.);
#519=EDGE_CURVE('',#671,#672,#813,.T.);
#520=EDGE_CURVE('',#669,#672,#814,.T.);
#521=EDGE_CURVE('',#673,#662,#815,.T.);
#522=EDGE_CURVE('',#668,#674,#816,.T.);
#523=EDGE_CURVE('',#674,#673,#817,.T.);
#524=EDGE_CURVE('',#673,#671,#42,.T.);
#525=EDGE_CURVE('',#675,#664,#818,.T.);
#526=EDGE_CURVE('',#665,#676,#819,.T.);
#527=EDGE_CURVE('',#676,#677,#820,.T.);
#528=EDGE_CURVE('',#677,#675,#821,.T.);
#529=EDGE_CURVE('',#667,#678,#822,.T.);
#530=EDGE_CURVE('',#678,#679,#823,.T.);
#531=EDGE_CURVE('',#676,#679,#824,.T.);
#532=EDGE_CURVE('',#680,#666,#825,.T.);
#533=EDGE_CURVE('',#675,#681,#826,.T.);
#534=EDGE_CURVE('',#681,#680,#827,.T.);
#535=EDGE_CURVE('',#680,#678,#43,.T.);
#536=EDGE_CURVE('',#682,#656,#828,.T.);
#537=EDGE_CURVE('',#657,#683,#829,.T.);
#538=EDGE_CURVE('',#683,#684,#830,.T.);
#539=EDGE_CURVE('',#684,#682,#831,.T.);
#540=EDGE_CURVE('',#659,#685,#832,.T.);
#541=EDGE_CURVE('',#685,#686,#833,.T.);
#542=EDGE_CURVE('',#683,#686,#834,.T.);
#543=EDGE_CURVE('',#687,#658,#835,.T.);
#544=EDGE_CURVE('',#682,#688,#836,.T.);
#545=EDGE_CURVE('',#688,#687,#837,.T.);
#546=EDGE_CURVE('',#687,#685,#44,.T.);
#547=EDGE_CURVE('',#689,#652,#838,.T.);
#548=EDGE_CURVE('',#653,#690,#839,.T.);
#549=EDGE_CURVE('',#690,#691,#840,.T.);
#550=EDGE_CURVE('',#691,#689,#841,.T.);
#551=EDGE_CURVE('',#655,#692,#842,.T.);
#552=EDGE_CURVE('',#692,#693,#843,.T.);
#553=EDGE_CURVE('',#690,#693,#844,.T.);
#554=EDGE_CURVE('',#694,#654,#845,.T.);
#555=EDGE_CURVE('',#689,#695,#846,.T.);
#556=EDGE_CURVE('',#695,#694,#847,.T.);
#557=EDGE_CURVE('',#694,#692,#45,.T.);
#558=EDGE_CURVE('',#696,#697,#848,.T.);
#559=EDGE_CURVE('',#696,#698,#46,.T.);
#560=EDGE_CURVE('',#698,#699,#849,.T.);
#561=EDGE_CURVE('',#671,#699,#47,.T.);
#562=EDGE_CURVE('',#692,#673,#48,.T.);
#563=EDGE_CURVE('',#697,#694,#49,.T.);
#564=EDGE_CURVE('',#616,#611,#850,.T.);
#565=EDGE_CURVE('',#700,#619,#851,.T.);
#566=EDGE_CURVE('',#700,#684,#852,.T.);
#567=EDGE_CURVE('',#686,#695,#853,.T.);
#568=EDGE_CURVE('',#701,#691,#854,.T.);
#569=EDGE_CURVE('',#608,#701,#855,.T.);
#570=EDGE_CURVE('',#685,#697,#50,.T.);
#571=EDGE_CURVE('',#679,#688,#856,.T.);
#572=EDGE_CURVE('',#678,#687,#51,.T.);
#573=EDGE_CURVE('',#672,#681,#857,.T.);
#574=EDGE_CURVE('',#699,#680,#52,.T.);
#575=EDGE_CURVE('',#693,#674,#858,.T.);
#576=EDGE_CURVE('',#643,#702,#859,.T.);
#577=EDGE_CURVE('',#651,#640,#860,.T.);
#578=EDGE_CURVE('',#701,#648,#861,.T.);
#579=EDGE_CURVE('',#702,#670,#862,.T.);
#580=EDGE_CURVE('',#627,#703,#863,.T.);
#581=EDGE_CURVE('',#635,#624,#864,.T.);
#582=EDGE_CURVE('',#702,#632,#865,.T.);
#583=EDGE_CURVE('',#703,#677,#866,.T.);
#584=EDGE_CURVE('',#594,#700,#867,.T.);
#585=EDGE_CURVE('',#603,#593,#868,.T.);
#586=EDGE_CURVE('',#703,#602,#869,.T.);
#587=EDGE_CURVE('',#698,#696,#53,.T.);
#588=VERTEX_POINT('',#1706);
#589=VERTEX_POINT('',#1707);
#590=VERTEX_POINT('',#1709);
#591=VERTEX_POINT('',#1711);
#592=VERTEX_POINT('',#1715);
#593=VERTEX_POINT('',#1716);
#594=VERTEX_POINT('',#1721);
#595=VERTEX_POINT('',#1722);
#596=VERTEX_POINT('',#1729);
#597=VERTEX_POINT('',#1730);
#598=VERTEX_POINT('',#1732);
#599=VERTEX_POINT('',#1734);
#600=VERTEX_POINT('',#1738);
#601=VERTEX_POINT('',#1739);
#602=VERTEX_POINT('',#1744);
#603=VERTEX_POINT('',#1748);
#604=VERTEX_POINT('',#1752);
#605=VERTEX_POINT('',#1753);
#606=VERTEX_POINT('',#1755);
#607=VERTEX_POINT('',#1757);
#608=VERTEX_POINT('',#1761);
#609=VERTEX_POINT('',#1762);
#610=VERTEX_POINT('',#1767);
#611=VERTEX_POINT('',#1771);
#612=VERTEX_POINT('',#1775);
#613=VERTEX_POINT('',#1776);
#614=VERTEX_POINT('',#1778);
#615=VERTEX_POINT('',#1780);
#616=VERTEX_POINT('',#1784);
#617=VERTEX_POINT('',#1785);
#618=VERTEX_POINT('',#1790);
#619=VERTEX_POINT('',#1794);
#620=VERTEX_POINT('',#1798);
#621=VERTEX_POINT('',#1799);
#622=VERTEX_POINT('',#1801);
#623=VERTEX_POINT('',#1803);
#624=VERTEX_POINT('',#1807);
#625=VERTEX_POINT('',#1808);
#626=VERTEX_POINT('',#1813);
#627=VERTEX_POINT('',#1817);
#628=VERTEX_POINT('',#1821);
#629=VERTEX_POINT('',#1822);
#630=VERTEX_POINT('',#1824);
#631=VERTEX_POINT('',#1826);
#632=VERTEX_POINT('',#1830);
#633=VERTEX_POINT('',#1831);
#634=VERTEX_POINT('',#1836);
#635=VERTEX_POINT('',#1840);
#636=VERTEX_POINT('',#1844);
#637=VERTEX_POINT('',#1845);
#638=VERTEX_POINT('',#1847);
#639=VERTEX_POINT('',#1849);
#640=VERTEX_POINT('',#1853);
#641=VERTEX_POINT('',#1854);
#642=VERTEX_POINT('',#1859);
#643=VERTEX_POINT('',#1863);
#644=VERTEX_POINT('',#1867);
#645=VERTEX_POINT('',#1868);
#646=VERTEX_POINT('',#1870);
#647=VERTEX_POINT('',#1872);
#648=VERTEX_POINT('',#1876);
#649=VERTEX_POINT('',#1877);
#650=VERTEX_POINT('',#1882);
#651=VERTEX_POINT('',#1886);
#652=VERTEX_POINT('',#1890);
#653=VERTEX_POINT('',#1891);
#654=VERTEX_POINT('',#1893);
#655=VERTEX_POINT('',#1895);
#656=VERTEX_POINT('',#1899);
#657=VERTEX_POINT('',#1900);
#658=VERTEX_POINT('',#1902);
#659=VERTEX_POINT('',#1904);
#660=VERTEX_POINT('',#1908);
#661=VERTEX_POINT('',#1909);
#662=VERTEX_POINT('',#1911);
#663=VERTEX_POINT('',#1913);
#664=VERTEX_POINT('',#1917);
#665=VERTEX_POINT('',#1918);
#666=VERTEX_POINT('',#1920);
#667=VERTEX_POINT('',#1922);
#668=VERTEX_POINT('',#1926);
#669=VERTEX_POINT('',#1928);
#670=VERTEX_POINT('',#1930);
#671=VERTEX_POINT('',#1934);
#672=VERTEX_POINT('',#1936);
#673=VERTEX_POINT('',#1940);
#674=VERTEX_POINT('',#1942);
#675=VERTEX_POINT('',#1948);
#676=VERTEX_POINT('',#1950);
#677=VERTEX_POINT('',#1952);
#678=VERTEX_POINT('',#1956);
#679=VERTEX_POINT('',#1958);
#680=VERTEX_POINT('',#1962);
#681=VERTEX_POINT('',#1964);
#682=VERTEX_POINT('',#1970);
#683=VERTEX_POINT('',#1972);
#684=VERTEX_POINT('',#1974);
#685=VERTEX_POINT('',#1978);
#686=VERTEX_POINT('',#1980);
#687=VERTEX_POINT('',#1984);
#688=VERTEX_POINT('',#1986);
#689=VERTEX_POINT('',#1992);
#690=VERTEX_POINT('',#1994);
#691=VERTEX_POINT('',#1996);
#692=VERTEX_POINT('',#2000);
#693=VERTEX_POINT('',#2002);
#694=VERTEX_POINT('',#2006);
#695=VERTEX_POINT('',#2008);
#696=VERTEX_POINT('',#2014);
#697=VERTEX_POINT('',#2015);
#698=VERTEX_POINT('',#2017);
#699=VERTEX_POINT('',#2019);
#700=VERTEX_POINT('',#2026);
#701=VERTEX_POINT('',#2030);
#702=VERTEX_POINT('',#2044);
#703=VERTEX_POINT('',#2050);
#704=LINE('',#1705,#870);
#705=LINE('',#1708,#871);
#706=LINE('',#1710,#872);
#707=LINE('',#1712,#873);
#708=LINE('',#1714,#874);
#709=LINE('',#1717,#875);
#710=LINE('',#1718,#876);
#711=LINE('',#1720,#877);
#712=LINE('',#1723,#878);
#713=LINE('',#1724,#879);
#714=LINE('',#1726,#880);
#715=LINE('',#1728,#881);
#716=LINE('',#1731,#882);
#717=LINE('',#1733,#883);
#718=LINE('',#1735,#884);
#719=LINE('',#1737,#885);
#720=LINE('',#1740,#886);
#721=LINE('',#1741,#887);
#722=LINE('',#1743,#888);
#723=LINE('',#1745,#889);
#724=LINE('',#1747,#890);
#725=LINE('',#1749,#891);
#726=LINE('',#1751,#892);
#727=LINE('',#1754,#893);
#728=LINE('',#1756,#894);
#729=LINE('',#1758,#895);
#730=LINE('',#1760,#896);
#731=LINE('',#1763,#897);
#732=LINE('',#1764,#898);
#733=LINE('',#1766,#899);
#734=LINE('',#1768,#900);
#735=LINE('',#1770,#901);
#736=LINE('',#1772,#902);
#737=LINE('',#1774,#903);
#738=LINE('',#1777,#904);
#739=LINE('',#1779,#905);
#740=LINE('',#1781,#906);
#741=LINE('',#1783,#907);
#742=LINE('',#1786,#908);
#743=LINE('',#1787,#909);
#744=LINE('',#1789,#910);
#745=LINE('',#1791,#911);
#746=LINE('',#1793,#912);
#747=LINE('',#1795,#913);
#748=LINE('',#1797,#914);
#749=LINE('',#1800,#915);
#750=LINE('',#1802,#916);
#751=LINE('',#1804,#917);
#752=LINE('',#1806,#918);
#753=LINE('',#1809,#919);
#754=LINE('',#1810,#920);
#755=LINE('',#1812,#921);
#756=LINE('',#1814,#922);
#757=LINE('',#1816,#923);
#758=LINE('',#1818,#924);
#759=LINE('',#1820,#925);
#760=LINE('',#1823,#926);
#761=LINE('',#1825,#927);
#762=LINE('',#1827,#928);
#763=LINE('',#1829,#929);
#764=LINE('',#1832,#930);
#765=LINE('',#1833,#931);
#766=LINE('',#1835,#932);
#767=LINE('',#1837,#933);
#768=LINE('',#1839,#934);
#769=LINE('',#1841,#935);
#770=LINE('',#1843,#936);
#771=LINE('',#1846,#937);
#772=LINE('',#1848,#938);
#773=LINE('',#1850,#939);
#774=LINE('',#1852,#940);
#775=LINE('',#1855,#941);
#776=LINE('',#1856,#942);
#777=LINE('',#1858,#943);
#778=LINE('',#1860,#944);
#779=LINE('',#1862,#945);
#780=LINE('',#1864,#946);
#781=LINE('',#1866,#947);
#782=LINE('',#1869,#948);
#783=LINE('',#1871,#949);
#784=LINE('',#1873,#950);
#785=LINE('',#1875,#951);
#786=LINE('',#1878,#952);
#787=LINE('',#1879,#953);
#788=LINE('',#1881,#954);
#789=LINE('',#1883,#955);
#790=LINE('',#1885,#956);
#791=LINE('',#1887,#957);
#792=LINE('',#1889,#958);
#793=LINE('',#1892,#959);
#794=LINE('',#1894,#960);
#795=LINE('',#1896,#961);
#796=LINE('',#1898,#962);
#797=LINE('',#1901,#963);
#798=LINE('',#1903,#964);
#799=LINE('',#1905,#965);
#800=LINE('',#1907,#966);
#801=LINE('',#1910,#967);
#802=LINE('',#1912,#968);
#803=LINE('',#1914,#969);
#804=LINE('',#1916,#970);
#805=LINE('',#1919,#971);
#806=LINE('',#1921,#972);
#807=LINE('',#1923,#973);
#808=LINE('',#1925,#974);
#809=LINE('',#1927,#975);
#810=LINE('',#1929,#976);
#811=LINE('',#1931,#977);
#812=LINE('',#1933,#978);
#813=LINE('',#1935,#979);
#814=LINE('',#1937,#980);
#815=LINE('',#1939,#981);
#816=LINE('',#1941,#982);
#817=LINE('',#1943,#983);
#818=LINE('',#1947,#984);
#819=LINE('',#1949,#985);
#820=LINE('',#1951,#986);
#821=LINE('',#1953,#987);
#822=LINE('',#1955,#988);
#823=LINE('',#1957,#989);
#824=LINE('',#1959,#990);
#825=LINE('',#1961,#991);
#826=LINE('',#1963,#992);
#827=LINE('',#1965,#993);
#828=LINE('',#1969,#994);
#829=LINE('',#1971,#995);
#830=LINE('',#1973,#996);
#831=LINE('',#1975,#997);
#832=LINE('',#1977,#998);
#833=LINE('',#1979,#999);
#834=LINE('',#1981,#1000);
#835=LINE('',#1983,#1001);
#836=LINE('',#1985,#1002);
#837=LINE('',#1987,#1003);
#838=LINE('',#1991,#1004);
#839=LINE('',#1993,#1005);
#840=LINE('',#1995,#1006);
#841=LINE('',#1997,#1007);
#842=LINE('',#1999,#1008);
#843=LINE('',#2001,#1009);
#844=LINE('',#2003,#1010);
#845=LINE('',#2005,#1011);
#846=LINE('',#2007,#1012);
#847=LINE('',#2009,#1013);
#848=LINE('',#2013,#1014);
#849=LINE('',#2018,#1015);
#850=LINE('',#2024,#1016);
#851=LINE('',#2025,#1017);
#852=LINE('',#2027,#1018);
#853=LINE('',#2028,#1019);
#854=LINE('',#2029,#1020);
#855=LINE('',#2031,#1021);
#856=LINE('',#2035,#1022);
#857=LINE('',#2038,#1023);
#858=LINE('',#2041,#1024);
#859=LINE('',#2043,#1025);
#860=LINE('',#2045,#1026);
#861=LINE('',#2046,#1027);
#862=LINE('',#2047,#1028);
#863=LINE('',#2049,#1029);
#864=LINE('',#2051,#1030);
#865=LINE('',#2052,#1031);
#866=LINE('',#2053,#1032);
#867=LINE('',#2055,#1033);
#868=LINE('',#2056,#1034);
#869=LINE('',#2057,#1035);
#870=VECTOR('',#1379,1000.);
#871=VECTOR('',#1380,1000.);
#872=VECTOR('',#1381,1000.);
#873=VECTOR('',#1382,1000.);
#874=VECTOR('',#1385,1000.);
#875=VECTOR('',#1386,1000.);
#876=VECTOR('',#1387,1000.);
#877=VECTOR('',#1390,1000.);
#878=VECTOR('',#1391,1000.);
#879=VECTOR('',#1392,1000.);
#880=VECTOR('',#1395,1000.);
#881=VECTOR('',#1398,1000.);
#882=VECTOR('',#1399,1000.);
#883=VECTOR('',#1400,1000.);
#884=VECTOR('',#1401,1000.);
#885=VECTOR('',#1404,1000.);
#886=VECTOR('',#1405,1000.);
#887=VECTOR('',#1406,1000.);
#888=VECTOR('',#1409,1000.);
#889=VECTOR('',#1410,1000.);
#890=VECTOR('',#1413,1000.);
#891=VECTOR('',#1414,1000.);
#892=VECTOR('',#1417,1000.);
#893=VECTOR('',#1418,1000.);
#894=VECTOR('',#1419,1000.);
#895=VECTOR('',#1420,1000.);
#896=VECTOR('',#1423,1000.);
#897=VECTOR('',#1424,1000.);
#898=VECTOR('',#1425,1000.);
#899=VECTOR('',#1428,1000.);
#900=VECTOR('',#1429,1000.);
#901=VECTOR('',#1432,1000.);
#902=VECTOR('',#1433,1000.);
#903=VECTOR('',#1436,1000.);
#904=VECTOR('',#1437,1000.);
#905=VECTOR('',#1438,1000.);
#906=VECTOR('',#1439,1000.);
#907=VECTOR('',#1442,1000.);
#908=VECTOR('',#1443,1000.);
#909=VECTOR('',#1444,1000.);
#910=VECTOR('',#1447,1000.);
#911=VECTOR('',#1448,1000.);
#912=VECTOR('',#1451,1000.);
#913=VECTOR('',#1452,1000.);
#914=VECTOR('',#1455,1000.);
#915=VECTOR('',#1456,1000.);
#916=VECTOR('',#1457,1000.);
#917=VECTOR('',#1458,1000.);
#918=VECTOR('',#1461,1000.);
#919=VECTOR('',#1462,1000.);
#920=VECTOR('',#1463,1000.);
#921=VECTOR('',#1466,1000.);
#922=VECTOR('',#1467,1000.);
#923=VECTOR('',#1470,1000.);
#924=VECTOR('',#1471,1000.);
#925=VECTOR('',#1474,1000.);
#926=VECTOR('',#1475,1000.);
#927=VECTOR('',#1476,1000.);
#928=VECTOR('',#1477,1000.);
#929=VECTOR('',#1480,1000.);
#930=VECTOR('',#1481,1000.);
#931=VECTOR('',#1482,1000.);
#932=VECTOR('',#1485,1000.);
#933=VECTOR('',#1486,1000.);
#934=VECTOR('',#1489,1000.);
#935=VECTOR('',#1490,1000.);
#936=VECTOR('',#1493,1000.);
#937=VECTOR('',#1494,1000.);
#938=VECTOR('',#1495,1000.);
#939=VECTOR('',#1496,1000.);
#940=VECTOR('',#1499,1000.);
#941=VECTOR('',#1500,1000.);
#942=VECTOR('',#1501,1000.);
#943=VECTOR('',#1504,1000.);
#944=VECTOR('',#1505,1000.);
#945=VECTOR('',#1508,1000.);
#946=VECTOR('',#1509,1000.);
#947=VECTOR('',#1512,1000.);
#948=VECTOR('',#1513,1000.);
#949=VECTOR('',#1514,1000.);
#950=VECTOR('',#1515,1000.);
#951=VECTOR('',#1518,1000.);
#952=VECTOR('',#1519,1000.);
#953=VECTOR('',#1520,1000.);
#954=VECTOR('',#1523,1000.);
#955=VECTOR('',#1524,1000.);
#956=VECTOR('',#1527,1000.);
#957=VECTOR('',#1528,1000.);
#958=VECTOR('',#1531,1000.);
#959=VECTOR('',#1532,1000.);
#960=VECTOR('',#1533,1000.);
#961=VECTOR('',#1534,1000.);
#962=VECTOR('',#1537,1000.);
#963=VECTOR('',#1538,1000.);
#964=VECTOR('',#1539,1000.);
#965=VECTOR('',#1540,1000.);
#966=VECTOR('',#1543,1000.);
#967=VECTOR('',#1544,1000.);
#968=VECTOR('',#1545,1000.);
#969=VECTOR('',#1546,1000.);
#970=VECTOR('',#1549,1000.);
#971=VECTOR('',#1550,1000.);
#972=VECTOR('',#1551,1000.);
#973=VECTOR('',#1552,1000.);
#974=VECTOR('',#1555,1000.);
#975=VECTOR('',#1556,1000.);
#976=VECTOR('',#1557,1000.);
#977=VECTOR('',#1558,1000.);
#978=VECTOR('',#1561,1000.);
#979=VECTOR('',#1562,1000.);
#980=VECTOR('',#1563,1000.);
#981=VECTOR('',#1566,1000.);
#982=VECTOR('',#1567,1000.);
#983=VECTOR('',#1568,1000.);
#984=VECTOR('',#1575,1000.);
#985=VECTOR('',#1576,1000.);
#986=VECTOR('',#1577,1000.);
#987=VECTOR('',#1578,1000.);
#988=VECTOR('',#1581,1000.);
#989=VECTOR('',#1582,1000.);
#990=VECTOR('',#1583,1000.);
#991=VECTOR('',#1586,1000.);
#992=VECTOR('',#1587,1000.);
#993=VECTOR('',#1588,1000.);
#994=VECTOR('',#1595,1000.);
#995=VECTOR('',#1596,1000.);
#996=VECTOR('',#1597,1000.);
#997=VECTOR('',#1598,1000.);
#998=VECTOR('',#1601,1000.);
#999=VECTOR('',#1602,1000.);
#1000=VECTOR('',#1603,1000.);
#1001=VECTOR('',#1606,1000.);
#1002=VECTOR('',#1607,1000.);
#1003=VECTOR('',#1608,1000.);
#1004=VECTOR('',#1615,1000.);
#1005=VECTOR('',#1616,1000.);
#1006=VECTOR('',#1617,1000.);
#1007=VECTOR('',#1618,1000.);
#1008=VECTOR('',#1621,1000.);
#1009=VECTOR('',#1622,1000.);
#1010=VECTOR('',#1623,1000.);
#1011=VECTOR('',#1626,1000.);
#1012=VECTOR('',#1627,1000.);
#1013=VECTOR('',#1628,1000.);
#1014=VECTOR('',#1635,1000.);
#1015=VECTOR('',#1638,1000.);
#1016=VECTOR('',#1647,1000.);
#1017=VECTOR('',#1648,1000.);
#1018=VECTOR('',#1649,1000.);
#1019=VECTOR('',#1650,1000.);
#1020=VECTOR('',#1651,1000.);
#1021=VECTOR('',#1652,1000.);
#1022=VECTOR('',#1659,1000.);
#1023=VECTOR('',#1664,1000.);
#1024=VECTOR('',#1669,1000.);
#1025=VECTOR('',#1672,1000.);
#1026=VECTOR('',#1673,1000.);
#1027=VECTOR('',#1674,1000.);
#1028=VECTOR('',#1675,1000.);
#1029=VECTOR('',#1678,1000.);
#1030=VECTOR('',#1679,1000.);
#1031=VECTOR('',#1680,1000.);
#1032=VECTOR('',#1681,1000.);
#1033=VECTOR('',#1684,1000.);
#1034=VECTOR('',#1685,1000.);
#1035=VECTOR('',#1686,1000.);
#1036=EDGE_LOOP('',(#54,#55,#56,#57));
#1037=EDGE_LOOP('',(#58,#59,#60,#61));
#1038=EDGE_LOOP('',(#62,#63,#64,#65));
#1039=EDGE_LOOP('',(#66,#67,#68,#69));
#1040=EDGE_LOOP('',(#70,#71,#72,#73));
#1041=EDGE_LOOP('',(#74,#75,#76,#77));
#1042=EDGE_LOOP('',(#78,#79,#80,#81));
#1043=EDGE_LOOP('',(#82,#83,#84,#85));
#1044=EDGE_LOOP('',(#86,#87,#88,#89));
#1045=EDGE_LOOP('',(#90,#91,#92,#93));
#1046=EDGE_LOOP('',(#94,#95,#96,#97));
#1047=EDGE_LOOP('',(#98,#99,#100,#101));
#1048=EDGE_LOOP('',(#102,#103,#104,#105));
#1049=EDGE_LOOP('',(#106,#107,#108,#109));
#1050=EDGE_LOOP('',(#110,#111,#112,#113));
#1051=EDGE_LOOP('',(#114,#115,#116,#117));
#1052=EDGE_LOOP('',(#118,#119,#120,#121));
#1053=EDGE_LOOP('',(#122,#123,#124,#125));
#1054=EDGE_LOOP('',(#126,#127,#128,#129));
#1055=EDGE_LOOP('',(#130,#131,#132,#133));
#1056=EDGE_LOOP('',(#134,#135,#136,#137));
#1057=EDGE_LOOP('',(#138,#139,#140,#141));
#1058=EDGE_LOOP('',(#142,#143,#144,#145));
#1059=EDGE_LOOP('',(#146,#147,#148,#149));
#1060=EDGE_LOOP('',(#150,#151,#152,#153));
#1061=EDGE_LOOP('',(#154,#155,#156,#157));
#1062=EDGE_LOOP('',(#158,#159,#160,#161));
#1063=EDGE_LOOP('',(#162,#163,#164,#165));
#1064=EDGE_LOOP('',(#166,#167,#168,#169));
#1065=EDGE_LOOP('',(#170,#171,#172,#173));
#1066=EDGE_LOOP('',(#174,#175,#176,#177));
#1067=EDGE_LOOP('',(#178,#179,#180,#181));
#1068=EDGE_LOOP('',(#182,#183,#184,#185));
#1069=EDGE_LOOP('',(#186,#187,#188,#189));
#1070=EDGE_LOOP('',(#190,#191,#192,#193));
#1071=EDGE_LOOP('',(#194,#195,#196,#197));
#1072=EDGE_LOOP('',(#198,#199,#200,#201,#202));
#1073=EDGE_LOOP('',(#203,#204,#205,#206,#207));
#1074=EDGE_LOOP('',(#208,#209,#210,#211,#212));
#1075=EDGE_LOOP('',(#213,#214,#215,#216));
#1076=EDGE_LOOP('',(#217,#218,#219,#220,#221));
#1077=EDGE_LOOP('',(#222,#223,#224,#225,#226));
#1078=EDGE_LOOP('',(#227,#228,#229,#230,#231));
#1079=EDGE_LOOP('',(#232,#233,#234,#235));
#1080=EDGE_LOOP('',(#236,#237,#238,#239,#240));
#1081=EDGE_LOOP('',(#241,#242,#243,#244,#245));
#1082=EDGE_LOOP('',(#246,#247,#248,#249,#250));
#1083=EDGE_LOOP('',(#251,#252,#253,#254));
#1084=EDGE_LOOP('',(#255,#256,#257,#258,#259));
#1085=EDGE_LOOP('',(#260,#261,#262,#263,#264));
#1086=EDGE_LOOP('',(#265,#266,#267,#268,#269));
#1087=EDGE_LOOP('',(#270,#271,#272,#273));
#1088=EDGE_LOOP('',(#274,#275,#276,#277,#278,#279,#280,#281));
#1089=EDGE_LOOP('',(#282,#283,#284,#285,#286,#287,#288,#289,#290,#291,#292,
#293,#294,#295,#296,#297));
#1090=EDGE_LOOP('',(#298,#299,#300,#301,#302));
#1091=EDGE_LOOP('',(#303,#304,#305,#306));
#1092=EDGE_LOOP('',(#307,#308,#309,#310,#311));
#1093=EDGE_LOOP('',(#312,#313,#314,#315));
#1094=EDGE_LOOP('',(#316,#317,#318,#319,#320,#321,#322,#323,#324,#325,#326,
#327,#328,#329,#330,#331));
#1095=EDGE_LOOP('',(#332,#333,#334,#335,#336,#337,#338,#339,#340,#341,#342,
#343,#344,#345,#346,#347));
#1096=EDGE_LOOP('',(#348,#349,#350,#351,#352,#353,#354,#355,#356,#357,#358,
#359,#360,#361,#362,#363));
#1097=EDGE_LOOP('',(#364,#365,#366,#367,#368,#369,#370,#371,#372,#373,#374,
#375,#376,#377,#378,#379,#380,#381,#382,#383,#384,#385,#386,#387,#388,#389,
#390,#391,#392,#393,#394,#395,#396,#397,#398,#399));
#1098=EDGE_LOOP('',(#400,#401));
#1099=EDGE_LOOP('',(#402,#403,#404,#405,#406,#407,#408,#409));
#1100=FACE_BOUND('',#1036,.T.);
#1101=FACE_BOUND('',#1037,.T.);
#1102=FACE_BOUND('',#1038,.T.);
#1103=FACE_BOUND('',#1039,.T.);
#1104=FACE_BOUND('',#1040,.T.);
#1105=FACE_BOUND('',#1041,.T.);
#1106=FACE_BOUND('',#1042,.T.);
#1107=FACE_BOUND('',#1043,.T.);
#1108=FACE_BOUND('',#1044,.T.);
#1109=FACE_BOUND('',#1045,.T.);
#1110=FACE_BOUND('',#1046,.T.);
#1111=FACE_BOUND('',#1047,.T.);
#1112=FACE_BOUND('',#1048,.T.);
#1113=FACE_BOUND('',#1049,.T.);
#1114=FACE_BOUND('',#1050,.T.);
#1115=FACE_BOUND('',#1051,.T.);
#1116=FACE_BOUND('',#1052,.T.);
#1117=FACE_BOUND('',#1053,.T.);
#1118=FACE_BOUND('',#1054,.T.);
#1119=FACE_BOUND('',#1055,.T.);
#1120=FACE_BOUND('',#1056,.T.);
#1121=FACE_BOUND('',#1057,.T.);
#1122=FACE_BOUND('',#1058,.T.);
#1123=FACE_BOUND('',#1059,.T.);
#1124=FACE_BOUND('',#1060,.T.);
#1125=FACE_BOUND('',#1061,.T.);
#1126=FACE_BOUND('',#1062,.T.);
#1127=FACE_BOUND('',#1063,.T.);
#1128=FACE_BOUND('',#1064,.T.);
#1129=FACE_BOUND('',#1065,.T.);
#1130=FACE_BOUND('',#1066,.T.);
#1131=FACE_BOUND('',#1067,.T.);
#1132=FACE_BOUND('',#1068,.T.);
#1133=FACE_BOUND('',#1069,.T.);
#1134=FACE_BOUND('',#1070,.T.);
#1135=FACE_BOUND('',#1071,.T.);
#1136=FACE_BOUND('',#1072,.T.);
#1137=FACE_BOUND('',#1073,.T.);
#1138=FACE_BOUND('',#1074,.T.);
#1139=FACE_BOUND('',#1075,.T.);
#1140=FACE_BOUND('',#1076,.T.);
#1141=FACE_BOUND('',#1077,.T.);
#1142=FACE_BOUND('',#1078,.T.);
#1143=FACE_BOUND('',#1079,.T.);
#1144=FACE_BOUND('',#1080,.T.);
#1145=FACE_BOUND('',#1081,.T.);
#1146=FACE_BOUND('',#1082,.T.);
#1147=FACE_BOUND('',#1083,.T.);
#1148=FACE_BOUND('',#1084,.T.);
#1149=FACE_BOUND('',#1085,.T.);
#1150=FACE_BOUND('',#1086,.T.);
#1151=FACE_BOUND('',#1087,.T.);
#1152=FACE_BOUND('',#1088,.T.);
#1153=FACE_BOUND('',#1089,.T.);
#1154=FACE_BOUND('',#1090,.T.);
#1155=FACE_BOUND('',#1091,.T.);
#1156=FACE_BOUND('',#1092,.T.);
#1157=FACE_BOUND('',#1093,.T.);
#1158=FACE_BOUND('',#1094,.T.);
#1159=FACE_BOUND('',#1095,.T.);
#1160=FACE_BOUND('',#1096,.T.);
#1161=FACE_BOUND('',#1097,.T.);
#1162=FACE_BOUND('',#1098,.T.);
#1163=FACE_BOUND('',#1099,.T.);
#1164=PLANE('',#1295);
#1165=PLANE('',#1296);
#1166=PLANE('',#1297);
#1167=PLANE('',#1298);
#1168=PLANE('',#1299);
#1169=PLANE('',#1300);
#1170=PLANE('',#1301);
#1171=PLANE('',#1302);
#1172=PLANE('',#1303);
#1173=PLANE('',#1304);
#1174=PLANE('',#1305);
#1175=PLANE('',#1306);
#1176=PLANE('',#1307);
#1177=PLANE('',#1308);
#1178=PLANE('',#1309);
#1179=PLANE('',#1310);
#1180=PLANE('',#1311);
#1181=PLANE('',#1312);
#1182=PLANE('',#1313);
#1183=PLANE('',#1314);
#1184=PLANE('',#1315);
#1185=PLANE('',#1316);
#1186=PLANE('',#1317);
#1187=PLANE('',#1318);
#1188=PLANE('',#1319);
#1189=PLANE('',#1320);
#1190=PLANE('',#1321);
#1191=PLANE('',#1322);
#1192=PLANE('',#1323);
#1193=PLANE('',#1324);
#1194=PLANE('',#1325);
#1195=PLANE('',#1326);
#1196=PLANE('',#1327);
#1197=PLANE('',#1328);
#1198=PLANE('',#1329);
#1199=PLANE('',#1330);
#1200=PLANE('',#1331);
#1201=PLANE('',#1332);
#1202=PLANE('',#1333);
#1203=PLANE('',#1334);
#1204=PLANE('',#1336);
#1205=PLANE('',#1337);
#1206=PLANE('',#1338);
#1207=PLANE('',#1339);
#1208=PLANE('',#1341);
#1209=PLANE('',#1342);
#1210=PLANE('',#1343);
#1211=PLANE('',#1344);
#1212=PLANE('',#1346);
#1213=PLANE('',#1347);
#1214=PLANE('',#1348);
#1215=PLANE('',#1349);
#1216=PLANE('',#1356);
#1217=PLANE('',#1357);
#1218=PLANE('',#1359);
#1219=PLANE('',#1361);
#1220=PLANE('',#1363);
#1221=PLANE('',#1364);
#1222=PLANE('',#1365);
#1223=PLANE('',#1366);
#1224=PLANE('',#1367);
#1225=ADVANCED_FACE('',(#1100),#1164,.T.);
#1226=ADVANCED_FACE('',(#1101),#1165,.F.);
#1227=ADVANCED_FACE('',(#1102),#1166,.F.);
#1228=ADVANCED_FACE('',(#1103),#1167,.F.);
#1229=ADVANCED_FACE('',(#1104),#1168,.T.);
#1230=ADVANCED_FACE('',(#1105),#1169,.T.);
#1231=ADVANCED_FACE('',(#1106),#1170,.T.);
#1232=ADVANCED_FACE('',(#1107),#1171,.T.);
#1233=ADVANCED_FACE('',(#1108),#1172,.T.);
#1234=ADVANCED_FACE('',(#1109),#1173,.F.);
#1235=ADVANCED_FACE('',(#1110),#1174,.F.);
#1236=ADVANCED_FACE('',(#1111),#1175,.F.);
#1237=ADVANCED_FACE('',(#1112),#1176,.T.);
#1238=ADVANCED_FACE('',(#1113),#1177,.F.);
#1239=ADVANCED_FACE('',(#1114),#1178,.F.);
#1240=ADVANCED_FACE('',(#1115),#1179,.F.);
#1241=ADVANCED_FACE('',(#1116),#1180,.F.);
#1242=ADVANCED_FACE('',(#1117),#1181,.T.);
#1243=ADVANCED_FACE('',(#1118),#1182,.T.);
#1244=ADVANCED_FACE('',(#1119),#1183,.T.);
#1245=ADVANCED_FACE('',(#1120),#1184,.F.);
#1246=ADVANCED_FACE('',(#1121),#1185,.T.);
#1247=ADVANCED_FACE('',(#1122),#1186,.T.);
#1248=ADVANCED_FACE('',(#1123),#1187,.T.);
#1249=ADVANCED_FACE('',(#1124),#1188,.F.);
#1250=ADVANCED_FACE('',(#1125),#1189,.T.);
#1251=ADVANCED_FACE('',(#1126),#1190,.T.);
#1252=ADVANCED_FACE('',(#1127),#1191,.T.);
#1253=ADVANCED_FACE('',(#1128),#1192,.F.);
#1254=ADVANCED_FACE('',(#1129),#1193,.T.);
#1255=ADVANCED_FACE('',(#1130),#1194,.T.);
#1256=ADVANCED_FACE('',(#1131),#1195,.T.);
#1257=ADVANCED_FACE('',(#1132),#1196,.F.);
#1258=ADVANCED_FACE('',(#1133),#1197,.F.);
#1259=ADVANCED_FACE('',(#1134),#1198,.F.);
#1260=ADVANCED_FACE('',(#1135),#1199,.F.);
#1261=ADVANCED_FACE('',(#1136),#1200,.F.);
#1262=ADVANCED_FACE('',(#1137),#1201,.F.);
#1263=ADVANCED_FACE('',(#1138),#1202,.F.);
#1264=ADVANCED_FACE('',(#1139),#1203,.T.);
#1265=ADVANCED_FACE('',(#1140),#1204,.T.);
#1266=ADVANCED_FACE('',(#1141),#1205,.F.);
#1267=ADVANCED_FACE('',(#1142),#1206,.F.);
#1268=ADVANCED_FACE('',(#1143),#1207,.F.);
#1269=ADVANCED_FACE('',(#1144),#1208,.F.);
#1270=ADVANCED_FACE('',(#1145),#1209,.F.);
#1271=ADVANCED_FACE('',(#1146),#1210,.F.);
#1272=ADVANCED_FACE('',(#1147),#1211,.T.);
#1273=ADVANCED_FACE('',(#1148),#1212,.T.);
#1274=ADVANCED_FACE('',(#1149),#1213,.F.);
#1275=ADVANCED_FACE('',(#1150),#1214,.F.);
#1276=ADVANCED_FACE('',(#1151),#1215,.F.);
#1277=ADVANCED_FACE('',(#1152),#40,.F.);
#1278=ADVANCED_FACE('',(#1153),#1216,.F.);
#1279=ADVANCED_FACE('',(#1154),#1217,.T.);
#1280=ADVANCED_FACE('',(#1155),#1218,.T.);
#1281=ADVANCED_FACE('',(#1156),#1219,.T.);
#1282=ADVANCED_FACE('',(#1157),#1220,.T.);
#1283=ADVANCED_FACE('',(#1158),#1221,.F.);
#1284=ADVANCED_FACE('',(#1159),#1222,.F.);
#1285=ADVANCED_FACE('',(#1160),#1223,.F.);
#1286=ADVANCED_FACE('',(#1161,#1162),#1224,.F.);
#1287=ADVANCED_FACE('',(#1163),#41,.F.);
#1288=CLOSED_SHELL('',(#1225,#1226,#1227,#1228,#1229,#1230,#1231,#1232,
#1233,#1234,#1235,#1236,#1237,#1238,#1239,#1240,#1241,#1242,#1243,#1244,
#1245,#1246,#1247,#1248,#1249,#1250,#1251,#1252,#1253,#1254,#1255,#1256,
#1257,#1258,#1259,#1260,#1261,#1262,#1263,#1264,#1265,#1266,#1267,#1268,
#1269,#1270,#1271,#1272,#1273,#1274,#1275,#1276,#1277,#1278,#1279,#1280,
#1281,#1282,#1283,#1284,#1285,#1286,#1287));
#1289=MANIFOLD_SOLID_BREP('Cut-Extrude2',#1288);
#1290=SHAPE_DEFINITION_REPRESENTATION(#2074,#1292);
#1291=SHAPE_DEFINITION_REPRESENTATION(#2073,#1293);
#1292=SHAPE_REPRESENTATION('32650 holder_step',(#1294),#2067);
#1293=SHAPE_REPRESENTATION('Asm1',(#1294,#1370,#1371,#1372,#1373,#1374),
#2066);
#1294=AXIS2_PLACEMENT_3D('',#1703,#1375,#1376);
#1295=AXIS2_PLACEMENT_3D('',#1704,#1377,#1378);
#1296=AXIS2_PLACEMENT_3D('',#1713,#1383,#1384);
#1297=AXIS2_PLACEMENT_3D('',#1719,#1388,#1389);
#1298=AXIS2_PLACEMENT_3D('',#1725,#1393,#1394);
#1299=AXIS2_PLACEMENT_3D('',#1727,#1396,#1397);
#1300=AXIS2_PLACEMENT_3D('',#1736,#1402,#1403);
#1301=AXIS2_PLACEMENT_3D('',#1742,#1407,#1408);
#1302=AXIS2_PLACEMENT_3D('',#1746,#1411,#1412);
#1303=AXIS2_PLACEMENT_3D('',#1750,#1415,#1416);
#1304=AXIS2_PLACEMENT_3D('',#1759,#1421,#1422);
#1305=AXIS2_PLACEMENT_3D('',#1765,#1426,#1427);
#1306=AXIS2_PLACEMENT_3D('',#1769,#1430,#1431);
#1307=AXIS2_PLACEMENT_3D('',#1773,#1434,#1435);
#1308=AXIS2_PLACEMENT_3D('',#1782,#1440,#1441);
#1309=AXIS2_PLACEMENT_3D('',#1788,#1445,#1446);
#1310=AXIS2_PLACEMENT_3D('',#1792,#1449,#1450);
#1311=AXIS2_PLACEMENT_3D('',#1796,#1453,#1454);
#1312=AXIS2_PLACEMENT_3D('',#1805,#1459,#1460);
#1313=AXIS2_PLACEMENT_3D('',#1811,#1464,#1465);
#1314=AXIS2_PLACEMENT_3D('',#1815,#1468,#1469);
#1315=AXIS2_PLACEMENT_3D('',#1819,#1472,#1473);
#1316=AXIS2_PLACEMENT_3D('',#1828,#1478,#1479);
#1317=AXIS2_PLACEMENT_3D('',#1834,#1483,#1484);
#1318=AXIS2_PLACEMENT_3D('',#1838,#1487,#1488);
#1319=AXIS2_PLACEMENT_3D('',#1842,#1491,#1492);
#1320=AXIS2_PLACEMENT_3D('',#1851,#1497,#1498);
#1321=AXIS2_PLACEMENT_3D('',#1857,#1502,#1503);
#1322=AXIS2_PLACEMENT_3D('',#1861,#1506,#1507);
#1323=AXIS2_PLACEMENT_3D('',#1865,#1510,#1511);
#1324=AXIS2_PLACEMENT_3D('',#1874,#1516,#1517);
#1325=AXIS2_PLACEMENT_3D('',#1880,#1521,#1522);
#1326=AXIS2_PLACEMENT_3D('',#1884,#1525,#1526);
#1327=AXIS2_PLACEMENT_3D('',#1888,#1529,#1530);
#1328=AXIS2_PLACEMENT_3D('',#1897,#1535,#1536);
#1329=AXIS2_PLACEMENT_3D('',#1906,#1541,#1542);
#1330=AXIS2_PLACEMENT_3D('',#1915,#1547,#1548);
#1331=AXIS2_PLACEMENT_3D('',#1924,#1553,#1554);
#1332=AXIS2_PLACEMENT_3D('',#1932,#1559,#1560);
#1333=AXIS2_PLACEMENT_3D('',#1938,#1564,#1565);
#1334=AXIS2_PLACEMENT_3D('',#1944,#1569,#1570);
#1335=AXIS2_PLACEMENT_3D('',#1945,#1571,#1572);
#1336=AXIS2_PLACEMENT_3D('',#1946,#1573,#1574);
#1337=AXIS2_PLACEMENT_3D('',#1954,#1579,#1580);
#1338=AXIS2_PLACEMENT_3D('',#1960,#1584,#1585);
#1339=AXIS2_PLACEMENT_3D('',#1966,#1589,#1590);
#1340=AXIS2_PLACEMENT_3D('',#1967,#1591,#1592);
#1341=AXIS2_PLACEMENT_3D('',#1968,#1593,#1594);
#1342=AXIS2_PLACEMENT_3D('',#1976,#1599,#1600);
#1343=AXIS2_PLACEMENT_3D('',#1982,#1604,#1605);
#1344=AXIS2_PLACEMENT_3D('',#1988,#1609,#1610);
#1345=AXIS2_PLACEMENT_3D('',#1989,#1611,#1612);
#1346=AXIS2_PLACEMENT_3D('',#1990,#1613,#1614);
#1347=AXIS2_PLACEMENT_3D('',#1998,#1619,#1620);
#1348=AXIS2_PLACEMENT_3D('',#2004,#1624,#1625);
#1349=AXIS2_PLACEMENT_3D('',#2010,#1629,#1630);
#1350=AXIS2_PLACEMENT_3D('',#2011,#1631,#1632);
#1351=AXIS2_PLACEMENT_3D('',#2012,#1633,#1634);
#1352=AXIS2_PLACEMENT_3D('',#2016,#1636,#1637);
#1353=AXIS2_PLACEMENT_3D('',#2020,#1639,#1640);
#1354=AXIS2_PLACEMENT_3D('',#2021,#1641,#1642);
#1355=AXIS2_PLACEMENT_3D('',#2022,#1643,#1644);
#1356=AXIS2_PLACEMENT_3D('',#2023,#1645,#1646);
#1357=AXIS2_PLACEMENT_3D('',#2032,#1653,#1654);
#1358=AXIS2_PLACEMENT_3D('',#2033,#1655,#1656);
#1359=AXIS2_PLACEMENT_3D('',#2034,#1657,#1658);
#1360=AXIS2_PLACEMENT_3D('',#2036,#1660,#1661);
#1361=AXIS2_PLACEMENT_3D('',#2037,#1662,#1663);
#1362=AXIS2_PLACEMENT_3D('',#2039,#1665,#1666);
#1363=AXIS2_PLACEMENT_3D('',#2040,#1667,#1668);
#1364=AXIS2_PLACEMENT_3D('',#2042,#1670,#1671);
#1365=AXIS2_PLACEMENT_3D('',#2048,#1676,#1677);
#1366=AXIS2_PLACEMENT_3D('',#2054,#1682,#1683);
#1367=AXIS2_PLACEMENT_3D('',#2058,#1687,#1688);
#1368=AXIS2_PLACEMENT_3D('',#2059,#1689,#1690);
#1369=AXIS2_PLACEMENT_3D('',#2060,#1691,#1692);
#1370=AXIS2_PLACEMENT_3D('',#2061,#1693,#1694);
#1371=AXIS2_PLACEMENT_3D('',#2062,#1695,#1696);
#1372=AXIS2_PLACEMENT_3D('',#2063,#1697,#1698);
#1373=AXIS2_PLACEMENT_3D('',#2064,#1699,#1700);
#1374=AXIS2_PLACEMENT_3D('',#2065,#1701,#1702);
#1375=DIRECTION('',(0.,0.,1.));
#1376=DIRECTION('',(1.,0.,0.));
#1377=DIRECTION('',(0.,0.,1.));
#1378=DIRECTION('',(1.,0.,0.));
#1379=DIRECTION('',(-1.,0.,0.));
#1380=DIRECTION('',(0.44721359549996,-0.894427190999915,0.));
#1381=DIRECTION('',(1.,0.,0.));
#1382=DIRECTION('',(0.44721359549996,0.894427190999915,0.));
#1383=DIRECTION('',(-0.894427190999915,-0.44721359549996,0.));
#1384=DIRECTION('',(0.44721359549996,-0.894427190999915,0.));
#1385=DIRECTION('',(0.44721359549996,-0.894427190999915,0.));
#1386=DIRECTION('',(0.,0.,1.));
#1387=DIRECTION('',(0.,0.,1.));
#1388=DIRECTION('',(0.894427190999915,-0.44721359549996,0.));
#1389=DIRECTION('',(0.44721359549996,0.894427190999915,0.));
#1390=DIRECTION('',(0.44721359549996,0.894427190999915,0.));
#1391=DIRECTION('',(0.,0.,1.));
#1392=DIRECTION('',(0.,0.,1.));
#1393=DIRECTION('',(0.,1.,0.));
#1394=DIRECTION('',(0.,0.,1.));
#1395=DIRECTION('',(-1.,0.,0.));
#1396=DIRECTION('',(0.,0.,1.));
#1397=DIRECTION('',(1.,0.,0.));
#1398=DIRECTION('',(-0.447213595499956,-0.894427190999917,0.));
#1399=DIRECTION('',(1.,0.,0.));
#1400=DIRECTION('',(-0.44721359549996,0.894427190999915,0.));
#1401=DIRECTION('',(1.,0.,0.));
#1402=DIRECTION('',(0.,-1.,0.));
#1403=DIRECTION('',(0.,0.,-1.));
#1404=DIRECTION('',(1.,0.,0.));
#1405=DIRECTION('',(0.,0.,1.));
#1406=DIRECTION('',(0.,0.,1.));
#1407=DIRECTION('',(0.894427190999915,0.44721359549996,0.));
#1408=DIRECTION('',(-0.44721359549996,0.894427190999915,0.));
#1409=DIRECTION('',(-0.44721359549996,0.894427190999915,0.));
#1410=DIRECTION('',(0.,0.,1.));
#1411=DIRECTION('',(-0.894427190999917,0.447213595499956,0.));
#1412=DIRECTION('',(-0.447213595499956,-0.894427190999917,0.));
#1413=DIRECTION('',(-0.447213595499956,-0.894427190999917,0.));
#1414=DIRECTION('',(0.,0.,1.));
#1415=DIRECTION('',(0.,0.,1.));
#1416=DIRECTION('',(1.,0.,0.));
#1417=DIRECTION('',(0.,1.,0.));
#1418=DIRECTION('',(-0.894427190999915,0.44721359549996,0.));
#1419=DIRECTION('',(0.,-1.,0.));
#1420=DIRECTION('',(0.894427190999915,0.44721359549996,0.));
#1421=DIRECTION('',(0.44721359549996,0.894427190999915,0.));
#1422=DIRECTION('',(-0.894427190999915,0.44721359549996,0.));
#1423=DIRECTION('',(-0.894427190999915,0.44721359549996,0.));
#1424=DIRECTION('',(0.,0.,1.));
#1425=DIRECTION('',(0.,0.,1.));
#1426=DIRECTION('',(-1.,0.,0.));
#1427=DIRECTION('',(0.,0.,1.));
#1428=DIRECTION('',(0.,-1.,0.));
#1429=DIRECTION('',(0.,0.,1.));
#1430=DIRECTION('',(0.44721359549996,-0.894427190999915,0.));
#1431=DIRECTION('',(0.894427190999915,0.44721359549996,0.));
#1432=DIRECTION('',(0.894427190999915,0.44721359549996,0.));
#1433=DIRECTION('',(0.,0.,1.));
#1434=DIRECTION('',(0.,0.,1.));
#1435=DIRECTION('',(1.,0.,0.));
#1436=DIRECTION('',(0.,1.,0.));
#1437=DIRECTION('',(-0.894427190999916,0.447213595499958,0.));
#1438=DIRECTION('',(3.46944695195361E-15,-1.,0.));
#1439=DIRECTION('',(0.894427190999913,0.447213595499963,0.));
#1440=DIRECTION('',(0.447213595499958,0.894427190999916,0.));
#1441=DIRECTION('',(-0.894427190999916,0.447213595499958,0.));
#1442=DIRECTION('',(-0.894427190999916,0.447213595499958,0.));
#1443=DIRECTION('',(0.,0.,1.));
#1444=DIRECTION('',(0.,0.,1.));
#1445=DIRECTION('',(-1.,-3.46944695195361E-15,0.));
#1446=DIRECTION('',(3.46944695195361E-15,-1.,0.));
#1447=DIRECTION('',(3.46944695195361E-15,-1.,0.));
#1448=DIRECTION('',(0.,0.,1.));
#1449=DIRECTION('',(0.447213595499963,-0.894427190999913,0.));
#1450=DIRECTION('',(0.894427190999913,0.447213595499963,0.));
#1451=DIRECTION('',(0.894427190999913,0.447213595499963,0.));
#1452=DIRECTION('',(0.,0.,1.));
#1453=DIRECTION('',(0.,0.,1.));
#1454=DIRECTION('',(1.,0.,0.));
#1455=DIRECTION('',(4.62592926927149E-15,1.,0.));
#1456=DIRECTION('',(0.894427190999913,0.447213595499963,0.));
#1457=DIRECTION('',(-3.46944695195361E-15,-1.,0.));
#1458=DIRECTION('',(-0.894427190999913,0.447213595499963,0.));
#1459=DIRECTION('',(0.447213595499963,0.894427190999913,0.));
#1460=DIRECTION('',(-0.894427190999913,0.447213595499963,0.));
#1461=DIRECTION('',(-0.894427190999913,0.447213595499963,0.));
#1462=DIRECTION('',(0.,0.,1.));
#1463=DIRECTION('',(0.,0.,1.));
#1464=DIRECTION('',(-1.,3.46944695195361E-15,0.));
#1465=DIRECTION('',(-3.46944695195361E-15,-1.,0.));
#1466=DIRECTION('',(-3.46944695195361E-15,-1.,0.));
#1467=DIRECTION('',(0.,0.,1.));
#1468=DIRECTION('',(0.447213595499963,-0.894427190999913,0.));
#1469=DIRECTION('',(0.894427190999913,0.447213595499963,0.));
#1470=DIRECTION('',(0.894427190999913,0.447213595499963,0.));
#1471=DIRECTION('',(0.,0.,1.));
#1472=DIRECTION('',(0.,0.,1.));
#1473=DIRECTION('',(1.,0.,0.));
#1474=DIRECTION('',(4.62592926927148E-15,1.,0.));
#1475=DIRECTION('',(0.894427190999911,0.447213595499968,0.));
#1476=DIRECTION('',(0.,-1.,0.));
#1477=DIRECTION('',(-0.894427190999912,0.447213595499965,0.));
#1478=DIRECTION('',(0.447213595499965,0.894427190999912,0.));
#1479=DIRECTION('',(-0.894427190999912,0.447213595499965,0.));
#1480=DIRECTION('',(-0.894427190999912,0.447213595499965,0.));
#1481=DIRECTION('',(0.,0.,1.));
#1482=DIRECTION('',(0.,0.,1.));
#1483=DIRECTION('',(-1.,0.,0.));
#1484=DIRECTION('',(0.,0.,1.));
#1485=DIRECTION('',(0.,-1.,0.));
#1486=DIRECTION('',(0.,0.,1.));
#1487=DIRECTION('',(0.447213595499968,-0.894427190999911,0.));
#1488=DIRECTION('',(0.894427190999911,0.447213595499968,0.));
#1489=DIRECTION('',(0.894427190999911,0.447213595499968,0.));
#1490=DIRECTION('',(0.,0.,1.));
#1491=DIRECTION('',(0.,0.,1.));
#1492=DIRECTION('',(1.,0.,0.));
#1493=DIRECTION('',(1.,0.,0.));
#1494=DIRECTION('',(0.44721359549996,-0.894427190999915,0.));
#1495=DIRECTION('',(-1.,0.,0.));
#1496=DIRECTION('',(0.447213595499956,0.894427190999917,0.));
#1497=DIRECTION('',(0.894427190999917,-0.447213595499956,0.));
#1498=DIRECTION('',(0.447213595499956,0.894427190999917,0.));
#1499=DIRECTION('',(0.447213595499956,0.894427190999917,0.));
#1500=DIRECTION('',(0.,0.,1.));
#1501=DIRECTION('',(0.,0.,1.));
#1502=DIRECTION('',(0.,1.,0.));
#1503=DIRECTION('',(0.,0.,1.));
#1504=DIRECTION('',(-1.,0.,0.));
#1505=DIRECTION('',(0.,0.,1.));
#1506=DIRECTION('',(-0.894427190999915,-0.44721359549996,0.));
#1507=DIRECTION('',(0.44721359549996,-0.894427190999915,0.));
#1508=DIRECTION('',(0.44721359549996,-0.894427190999915,0.));
#1509=DIRECTION('',(0.,0.,1.));
#1510=DIRECTION('',(0.,0.,1.));
#1511=DIRECTION('',(1.,0.,0.));
#1512=DIRECTION('',(1.,0.,0.));
#1513=DIRECTION('',(0.44721359549996,-0.894427190999915,0.));
#1514=DIRECTION('',(-1.,0.,0.));
#1515=DIRECTION('',(0.447213595499963,0.894427190999913,0.));
#1516=DIRECTION('',(0.894427190999913,-0.447213595499963,0.));
#1517=DIRECTION('',(0.447213595499963,0.894427190999913,0.));
#1518=DIRECTION('',(0.447213595499963,0.894427190999913,0.));
#1519=DIRECTION('',(0.,0.,1.));
#1520=DIRECTION('',(0.,0.,1.));
#1521=DIRECTION('',(0.,1.,0.));
#1522=DIRECTION('',(0.,0.,1.));
#1523=DIRECTION('',(-1.,0.,0.));
#1524=DIRECTION('',(0.,0.,1.));
#1525=DIRECTION('',(-0.894427190999915,-0.44721359549996,0.));
#1526=DIRECTION('',(0.44721359549996,-0.894427190999915,0.));
#1527=DIRECTION('',(0.44721359549996,-0.894427190999915,0.));
#1528=DIRECTION('',(0.,0.,1.));
#1529=DIRECTION('',(0.707106781186546,0.707106781186549,0.));
#1530=DIRECTION('',(0.,0.,1.));
#1531=DIRECTION('',(-0.707106781186549,0.707106781186546,0.));
#1532=DIRECTION('',(0.,0.,-1.));
#1533=DIRECTION('',(0.707106781186549,-0.707106781186546,0.));
#1534=DIRECTION('',(0.,0.,1.));
#1535=DIRECTION('',(0.707106781186549,-0.707106781186546,0.));
#1536=DIRECTION('',(0.,0.,1.));
#1537=DIRECTION('',(0.707106781186546,0.707106781186549,0.));
#1538=DIRECTION('',(0.,0.,-1.));
#1539=DIRECTION('',(-0.707106781186546,-0.707106781186549,0.));
#1540=DIRECTION('',(0.,0.,1.));
#1541=DIRECTION('',(-0.707106781186548,0.707106781186548,0.));
#1542=DIRECTION('',(0.,0.,1.));
#1543=DIRECTION('',(-0.707106781186548,-0.707106781186548,0.));
#1544=DIRECTION('',(0.,0.,-1.));
#1545=DIRECTION('',(0.707106781186548,0.707106781186548,0.));
#1546=DIRECTION('',(0.,0.,1.));
#1547=DIRECTION('',(-0.707106781186546,-0.707106781186549,0.));
#1548=DIRECTION('',(0.,0.,1.));
#1549=DIRECTION('',(0.707106781186549,-0.707106781186546,0.));
#1550=DIRECTION('',(0.,0.,-1.));
#1551=DIRECTION('',(-0.707106781186549,0.707106781186546,0.));
#1552=DIRECTION('',(0.,0.,1.));
#1553=DIRECTION('',(0.,0.,1.));
#1554=DIRECTION('',(1.,0.,0.));
#1555=DIRECTION('',(-1.44560289664734E-16,-1.,0.));
#1556=DIRECTION('',(-1.,0.,0.));
#1557=DIRECTION('',(1.22464679914735E-16,1.,0.));
#1558=DIRECTION('',(1.,-5.78241158658936E-16,0.));
#1559=DIRECTION('',(0.,1.,0.));
#1560=DIRECTION('',(0.,0.,1.));
#1561=DIRECTION('',(-1.,0.,0.));
#1562=DIRECTION('',(-1.,0.,0.));
#1563=DIRECTION('',(0.,0.,1.));
#1564=DIRECTION('',(-1.,1.44560289664734E-16,0.));
#1565=DIRECTION('',(-1.44560289664734E-16,-1.,0.));
#1566=DIRECTION('',(-1.44560289664734E-16,-1.,0.));
#1567=DIRECTION('',(0.,0.,1.));
#1568=DIRECTION('',(-1.44560289664734E-16,-1.,0.));
#1569=DIRECTION('',(0.,0.,1.));
#1570=DIRECTION('',(1.,0.,0.));
#1571=DIRECTION('',(0.,0.,1.));
#1572=DIRECTION('',(1.,0.,0.));
#1573=DIRECTION('',(0.,0.,-1.));
#1574=DIRECTION('',(-1.,0.,0.));
#1575=DIRECTION('',(1.,-2.89120579329468E-16,0.));
#1576=DIRECTION('',(0.,-1.,0.));
#1577=DIRECTION('',(-1.,1.22464679914735E-16,0.));
#1578=DIRECTION('',(0.,1.,0.));
#1579=DIRECTION('',(-1.,0.,0.));
#1580=DIRECTION('',(0.,0.,1.));
#1581=DIRECTION('',(0.,-1.,0.));
#1582=DIRECTION('',(0.,-1.,0.));
#1583=DIRECTION('',(0.,0.,1.));
#1584=DIRECTION('',(-2.89120579329468E-16,-1.,0.));
#1585=DIRECTION('',(1.,-2.89120579329468E-16,0.));
#1586=DIRECTION('',(1.,-2.89120579329468E-16,0.));
#1587=DIRECTION('',(0.,0.,1.));
#1588=DIRECTION('',(1.,-2.89120579329468E-16,0.));
#1589=DIRECTION('',(0.,0.,-1.));
#1590=DIRECTION('',(-1.,0.,0.));
#1591=DIRECTION('',(0.,0.,1.));
#1592=DIRECTION('',(1.,0.,0.));
#1593=DIRECTION('',(0.,0.,1.));
#1594=DIRECTION('',(1.,0.,0.));
#1595=DIRECTION('',(0.,1.,0.));
#1596=DIRECTION('',(1.,0.,0.));
#1597=DIRECTION('',(0.,-1.,0.));
#1598=DIRECTION('',(-1.,0.,0.));
#1599=DIRECTION('',(0.,-1.,0.));
#1600=DIRECTION('',(0.,0.,-1.));
#1601=DIRECTION('',(1.,0.,0.));
#1602=DIRECTION('',(1.,0.,0.));
#1603=DIRECTION('',(0.,0.,1.));
#1604=DIRECTION('',(1.,0.,0.));
#1605=DIRECTION('',(0.,0.,-1.));
#1606=DIRECTION('',(0.,1.,0.));
#1607=DIRECTION('',(0.,0.,1.));
#1608=DIRECTION('',(0.,1.,0.));
#1609=DIRECTION('',(0.,0.,1.));
#1610=DIRECTION('',(1.,0.,0.));
#1611=DIRECTION('',(0.,0.,1.));
#1612=DIRECTION('',(1.,0.,0.));
#1613=DIRECTION('',(0.,0.,-1.));
#1614=DIRECTION('',(-1.,0.,0.));
#1615=DIRECTION('',(-1.,0.,0.));
#1616=DIRECTION('',(2.89120579329468E-16,1.,0.));
#1617=DIRECTION('',(1.,0.,0.));
#1618=DIRECTION('',(-5.78241158658936E-16,-1.,0.));
#1619=DIRECTION('',(1.,-2.89120579329468E-16,0.));
#1620=DIRECTION('',(2.89120579329468E-16,1.,0.));
#1621=DIRECTION('',(2.89120579329468E-16,1.,0.));
#1622=DIRECTION('',(2.89120579329468E-16,1.,0.));
#1623=DIRECTION('',(0.,0.,1.));
#1624=DIRECTION('',(0.,1.,0.));
#1625=DIRECTION('',(0.,0.,1.));
#1626=DIRECTION('',(-1.,0.,0.));
#1627=DIRECTION('',(0.,0.,1.));
#1628=DIRECTION('',(-1.,0.,0.));
#1629=DIRECTION('',(0.,0.,-1.));
#1630=DIRECTION('',(-1.,0.,0.));
#1631=DIRECTION('',(0.,0.,1.));
#1632=DIRECTION('',(1.,0.,0.));
#1633=DIRECTION('',(0.,0.,-1.));
#1634=DIRECTION('',(-1.,0.,0.));
#1635=DIRECTION('',(0.,0.,-1.));
#1636=DIRECTION('',(0.,0.,1.));
#1637=DIRECTION('',(1.,0.,0.));
#1638=DIRECTION('',(0.,0.,-1.));
#1639=DIRECTION('',(0.,0.,1.));
#1640=DIRECTION('',(1.,0.,0.));
#1641=DIRECTION('',(0.,0.,1.));
#1642=DIRECTION('',(1.,0.,0.));
#1643=DIRECTION('',(0.,0.,1.));
#1644=DIRECTION('',(1.,0.,0.));
#1645=DIRECTION('',(-1.,0.,0.));
#1646=DIRECTION('',(0.,0.,1.));
#1647=DIRECTION('',(0.,1.,0.));
#1648=DIRECTION('',(0.,1.,0.));
#1649=DIRECTION('',(0.,0.,-1.));
#1650=DIRECTION('',(0.,1.,0.));
#1651=DIRECTION('',(0.,0.,-1.));
#1652=DIRECTION('',(0.,1.,0.));
#1653=DIRECTION('',(0.,0.,-1.));
#1654=DIRECTION('',(-1.,0.,0.));
#1655=DIRECTION('',(0.,0.,1.));
#1656=DIRECTION('',(1.,0.,0.));
#1657=DIRECTION('',(0.,0.,-1.));
#1658=DIRECTION('',(-1.,0.,0.));
#1659=DIRECTION('',(1.,0.,0.));
#1660=DIRECTION('',(0.,0.,1.));
#1661=DIRECTION('',(1.,0.,0.));
#1662=DIRECTION('',(0.,0.,-1.));
#1663=DIRECTION('',(-1.,0.,0.));
#1664=DIRECTION('',(0.,-1.,0.));
#1665=DIRECTION('',(0.,0.,1.));
#1666=DIRECTION('',(1.,0.,0.));
#1667=DIRECTION('',(0.,0.,-1.));
#1668=DIRECTION('',(-1.,0.,0.));
#1669=DIRECTION('',(-1.,0.,0.));
#1670=DIRECTION('',(0.,-1.,0.));
#1671=DIRECTION('',(0.,0.,-1.));
#1672=DIRECTION('',(-1.,0.,0.));
#1673=DIRECTION('',(-1.,0.,0.));
#1674=DIRECTION('',(-1.,0.,0.));
#1675=DIRECTION('',(0.,0.,-1.));
#1676=DIRECTION('',(1.,0.,0.));
#1677=DIRECTION('',(0.,0.,-1.));
#1678=DIRECTION('',(0.,-1.,0.));
#1679=DIRECTION('',(0.,-1.,0.));
#1680=DIRECTION('',(0.,-1.,0.));
#1681=DIRECTION('',(0.,0.,-1.));
#1682=DIRECTION('',(0.,1.,0.));
#1683=DIRECTION('',(0.,0.,1.));
#1684=DIRECTION('',(1.,0.,0.));
#1685=DIRECTION('',(1.,0.,0.));
#1686=DIRECTION('',(1.,0.,0.));
#1687=DIRECTION('',(0.,0.,-1.));
#1688=DIRECTION('',(-1.,0.,0.));
#1689=DIRECTION('',(0.,0.,1.));
#1690=DIRECTION('',(1.,0.,0.));
#1691=DIRECTION('',(0.,0.,-1.));
#1692=DIRECTION('',(-1.,0.,0.));
#1693=DIRECTION('',(0.,0.,1.));
#1694=DIRECTION('',(1.,0.,0.));
#1695=DIRECTION('',(0.,0.,1.));
#1696=DIRECTION('',(1.,0.,0.));
#1697=DIRECTION('',(0.,0.,1.));
#1698=DIRECTION('',(1.,0.,0.));
#1699=DIRECTION('',(0.,0.,1.));
#1700=DIRECTION('',(1.,0.,0.));
#1701=DIRECTION('',(0.,0.,1.));
#1702=DIRECTION('',(1.,0.,0.));
#1703=CARTESIAN_POINT('',(0.,0.,0.));
#1704=CARTESIAN_POINT('',(0.,0.,0.));
#1705=CARTESIAN_POINT('',(0.,1.,0.));
#1706=CARTESIAN_POINT('',(31.725,0.999999999999999,0.));
#1707=CARTESIAN_POINT('',(27.725,1.,0.));
#1708=CARTESIAN_POINT('',(22.5799999999999,11.29,0.));
#1709=CARTESIAN_POINT('',(28.225,0.,0.));
#1710=CARTESIAN_POINT('',(0.,0.,0.));
#1711=CARTESIAN_POINT('',(31.225,0.,0.));
#1712=CARTESIAN_POINT('',(24.9799999999999,-12.49,0.));
#1713=CARTESIAN_POINT('',(22.5799999999999,11.29,0.));
#1714=CARTESIAN_POINT('',(22.5799999999999,11.29,9.));
#1715=CARTESIAN_POINT('',(27.725,1.,9.));
#1716=CARTESIAN_POINT('',(28.225,-8.67361737988404E-16,9.));
#1717=CARTESIAN_POINT('',(28.225,-8.67361737988404E-16,0.));
#1718=CARTESIAN_POINT('',(27.725,1.,0.));
#1719=CARTESIAN_POINT('',(24.9799999999999,-12.49,0.));
#1720=CARTESIAN_POINT('',(24.9799999999999,-12.49,9.));
#1721=CARTESIAN_POINT('',(31.225,0.,9.));
#1722=CARTESIAN_POINT('',(31.725,0.999999999999999,9.));
#1723=CARTESIAN_POINT('',(31.725,0.999999999999999,0.));
#1724=CARTESIAN_POINT('',(31.225,0.,0.));
#1725=CARTESIAN_POINT('',(0.,1.,0.));
#1726=CARTESIAN_POINT('',(0.,1.,9.));
#1727=CARTESIAN_POINT('',(0.,0.,0.));
#1728=CARTESIAN_POINT('',(4.98000000000001,-2.48999999999999,0.));
#1729=CARTESIAN_POINT('',(6.725,1.,0.));
#1730=CARTESIAN_POINT('',(6.225,-2.16840434497101E-16,0.));
#1731=CARTESIAN_POINT('',(0.,1.,0.));
#1732=CARTESIAN_POINT('',(2.725,1.,0.));
#1733=CARTESIAN_POINT('',(2.58,1.29000000000001,0.));
#1734=CARTESIAN_POINT('',(3.225,0.,0.));
#1735=CARTESIAN_POINT('',(0.,0.,0.));
#1736=CARTESIAN_POINT('',(0.,1.,0.));
#1737=CARTESIAN_POINT('',(0.,1.,9.));
#1738=CARTESIAN_POINT('',(2.725,1.,9.));
#1739=CARTESIAN_POINT('',(6.725,1.,9.));
#1740=CARTESIAN_POINT('',(2.725,1.,0.));
#1741=CARTESIAN_POINT('',(6.725,1.,0.));
#1742=CARTESIAN_POINT('',(2.58,1.29000000000001,0.));
#1743=CARTESIAN_POINT('',(2.58,1.29000000000001,9.));
#1744=CARTESIAN_POINT('',(3.225,0.,9.));
#1745=CARTESIAN_POINT('',(3.225,0.,0.));
#1746=CARTESIAN_POINT('',(4.98000000000001,-2.48999999999999,0.));
#1747=CARTESIAN_POINT('',(4.98000000000001,-2.48999999999999,9.));
#1748=CARTESIAN_POINT('',(6.225,-2.16840434497101E-16,9.));
#1749=CARTESIAN_POINT('',(6.225,-2.16840434497101E-16,0.));
#1750=CARTESIAN_POINT('',(0.,0.,0.));
#1751=CARTESIAN_POINT('',(34.45,0.,0.));
#1752=CARTESIAN_POINT('',(34.45,28.225,0.));
#1753=CARTESIAN_POINT('',(34.45,31.225,0.));
#1754=CARTESIAN_POINT('',(19.3800000000001,38.76,0.));
#1755=CARTESIAN_POINT('',(33.45,31.725,0.));
#1756=CARTESIAN_POINT('',(33.45,0.,0.));
#1757=CARTESIAN_POINT('',(33.45,27.725,0.));
#1758=CARTESIAN_POINT('',(-4.39999999999997,8.79999999999988,0.));
#1759=CARTESIAN_POINT('',(19.3800000000001,38.76,0.));
#1760=CARTESIAN_POINT('',(19.3800000000001,38.76,9.));
#1761=CARTESIAN_POINT('',(34.45,31.225,9.));
#1762=CARTESIAN_POINT('',(33.45,31.725,9.));
#1763=CARTESIAN_POINT('',(33.45,31.725,0.));
#1764=CARTESIAN_POINT('',(34.45,31.225,0.));
#1765=CARTESIAN_POINT('',(33.45,0.,0.));
#1766=CARTESIAN_POINT('',(33.45,0.,9.));
#1767=CARTESIAN_POINT('',(33.45,27.725,9.));
#1768=CARTESIAN_POINT('',(33.45,27.725,0.));
#1769=CARTESIAN_POINT('',(-4.39999999999997,8.79999999999988,0.));
#1770=CARTESIAN_POINT('',(-4.39999999999997,8.79999999999988,9.));
#1771=CARTESIAN_POINT('',(34.45,28.225,9.));
#1772=CARTESIAN_POINT('',(34.45,28.225,0.));
#1773=CARTESIAN_POINT('',(0.,0.,0.));
#1774=CARTESIAN_POINT('',(34.45,0.,0.));
#1775=CARTESIAN_POINT('',(34.45,3.225,0.));
#1776=CARTESIAN_POINT('',(34.45,6.225,0.));
#1777=CARTESIAN_POINT('',(9.38,18.76,0.));
#1778=CARTESIAN_POINT('',(33.45,6.725,0.));
#1779=CARTESIAN_POINT('',(33.45,1.16053000542848E-13,0.));
#1780=CARTESIAN_POINT('',(33.45,2.725,0.));
#1781=CARTESIAN_POINT('',(5.60000000000014,-11.2000000000001,0.));
#1782=CARTESIAN_POINT('',(9.38,18.76,0.));
#1783=CARTESIAN_POINT('',(9.38,18.76,9.));
#1784=CARTESIAN_POINT('',(34.45,6.225,9.));
#1785=CARTESIAN_POINT('',(33.45,6.725,9.));
#1786=CARTESIAN_POINT('',(33.45,6.725,0.));
#1787=CARTESIAN_POINT('',(34.45,6.225,0.));
#1788=CARTESIAN_POINT('',(33.45,1.16053000542848E-13,0.));
#1789=CARTESIAN_POINT('',(33.45,1.16053000542848E-13,9.));
#1790=CARTESIAN_POINT('',(33.45,2.725,9.));
#1791=CARTESIAN_POINT('',(33.45,2.725,0.));
#1792=CARTESIAN_POINT('',(5.60000000000014,-11.2000000000001,0.));
#1793=CARTESIAN_POINT('',(5.60000000000014,-11.2000000000001,9.));
#1794=CARTESIAN_POINT('',(34.45,3.225,9.));
#1795=CARTESIAN_POINT('',(34.45,3.225,0.));
#1796=CARTESIAN_POINT('',(0.,0.,-3.46944695195361E-15));
#1797=CARTESIAN_POINT('',(0.,3.22499999999952,0.));
#1798=CARTESIAN_POINT('',(0.,3.22499999999952,0.));
#1799=CARTESIAN_POINT('',(1.38777878078145E-14,6.22499999999952,0.));
#1800=CARTESIAN_POINT('',(-0.999999999999987,2.72499999999952,0.));
#1801=CARTESIAN_POINT('',(-0.999999999999987,2.72499999999952,0.));
#1802=CARTESIAN_POINT('',(-0.999999999999973,6.72499999999952,0.));
#1803=CARTESIAN_POINT('',(-0.999999999999973,6.72499999999952,0.));
#1804=CARTESIAN_POINT('',(1.38777878078145E-14,6.22499999999952,0.));
#1805=CARTESIAN_POINT('',(1.38777878078145E-14,6.22499999999952,0.));
#1806=CARTESIAN_POINT('',(1.38777878078145E-14,6.22499999999952,9.));
#1807=CARTESIAN_POINT('',(1.38777878078145E-14,6.22499999999952,9.));
#1808=CARTESIAN_POINT('',(-0.999999999999973,6.72499999999952,9.));
#1809=CARTESIAN_POINT('',(1.38777878078145E-14,6.22499999999952,0.));
#1810=CARTESIAN_POINT('',(-0.999999999999973,6.72499999999952,0.));
#1811=CARTESIAN_POINT('',(-0.999999999999973,6.72499999999952,0.));
#1812=CARTESIAN_POINT('',(-0.999999999999973,6.72499999999952,9.));
#1813=CARTESIAN_POINT('',(-0.999999999999987,2.72499999999952,9.));
#1814=CARTESIAN_POINT('',(-0.999999999999987,2.72499999999952,0.));
#1815=CARTESIAN_POINT('',(-0.999999999999987,2.72499999999952,0.));
#1816=CARTESIAN_POINT('',(-0.999999999999987,2.72499999999952,9.));
#1817=CARTESIAN_POINT('',(0.,3.22499999999952,9.));
#1818=CARTESIAN_POINT('',(0.,3.22499999999952,0.));
#1819=CARTESIAN_POINT('',(0.,0.,0.));
#1820=CARTESIAN_POINT('',(0.,28.2249999999995,0.));
#1821=CARTESIAN_POINT('',(0.,28.2249999999995,0.));
#1822=CARTESIAN_POINT('',(1.38777878078145E-14,31.2249999999995,0.));
#1823=CARTESIAN_POINT('',(-0.999999999999973,27.7249999999995,0.));
#1824=CARTESIAN_POINT('',(-0.999999999999973,27.7249999999995,0.));
#1825=CARTESIAN_POINT('',(-0.999999999999973,31.7249999999995,0.));
#1826=CARTESIAN_POINT('',(-0.999999999999973,31.7249999999995,0.));
#1827=CARTESIAN_POINT('',(1.38777878078145E-14,31.2249999999995,0.));
#1828=CARTESIAN_POINT('',(1.38777878078145E-14,31.2249999999995,0.));
#1829=CARTESIAN_POINT('',(1.38777878078145E-14,31.2249999999995,9.));
#1830=CARTESIAN_POINT('',(0.,31.2249999999995,9.));
#1831=CARTESIAN_POINT('',(-0.999999999999973,31.7249999999995,9.));
#1832=CARTESIAN_POINT('',(1.38777878078145E-14,31.2249999999995,0.));
#1833=CARTESIAN_POINT('',(-0.999999999999973,31.7249999999995,0.));
#1834=CARTESIAN_POINT('',(-0.999999999999973,31.7249999999995,0.));
#1835=CARTESIAN_POINT('',(-0.999999999999973,31.7249999999995,9.));
#1836=CARTESIAN_POINT('',(-0.999999999999973,27.7249999999995,9.));
#1837=CARTESIAN_POINT('',(-0.999999999999973,27.7249999999995,0.));
#1838=CARTESIAN_POINT('',(-0.999999999999973,27.7249999999995,0.));
#1839=CARTESIAN_POINT('',(-0.999999999999973,27.7249999999995,9.));
#1840=CARTESIAN_POINT('',(0.,28.2249999999995,9.));
#1841=CARTESIAN_POINT('',(0.,28.2249999999995,0.));
#1842=CARTESIAN_POINT('',(0.,0.,0.));
#1843=CARTESIAN_POINT('',(3.22499999999988,34.45,0.));
#1844=CARTESIAN_POINT('',(3.22499999999988,34.45,0.));
#1845=CARTESIAN_POINT('',(6.22499999999988,34.45,0.));
#1846=CARTESIAN_POINT('',(2.72499999999988,35.45,0.));
#1847=CARTESIAN_POINT('',(2.72499999999988,35.45,0.));
#1848=CARTESIAN_POINT('',(6.72499999999988,35.45,0.));
#1849=CARTESIAN_POINT('',(6.72499999999988,35.45,0.));
#1850=CARTESIAN_POINT('',(6.22499999999988,34.45,0.));
#1851=CARTESIAN_POINT('',(6.22499999999988,34.45,0.));
#1852=CARTESIAN_POINT('',(6.22499999999988,34.45,9.));
#1853=CARTESIAN_POINT('',(6.22499999999988,34.45,9.));
#1854=CARTESIAN_POINT('',(6.72499999999988,35.45,9.));
#1855=CARTESIAN_POINT('',(6.22499999999988,34.45,0.));
#1856=CARTESIAN_POINT('',(6.72499999999988,35.45,0.));
#1857=CARTESIAN_POINT('',(6.72499999999988,35.45,0.));
#1858=CARTESIAN_POINT('',(6.72499999999988,35.45,9.));
#1859=CARTESIAN_POINT('',(2.72499999999988,35.45,9.));
#1860=CARTESIAN_POINT('',(2.72499999999988,35.45,0.));
#1861=CARTESIAN_POINT('',(2.72499999999988,35.45,0.));
#1862=CARTESIAN_POINT('',(2.72499999999988,35.45,9.));
#1863=CARTESIAN_POINT('',(3.22499999999988,34.45,9.));
#1864=CARTESIAN_POINT('',(3.22499999999988,34.45,0.));
#1865=CARTESIAN_POINT('',(0.,0.,0.));
#1866=CARTESIAN_POINT('',(28.2249999999999,34.45,0.));
#1867=CARTESIAN_POINT('',(28.2249999999999,34.45,0.));
#1868=CARTESIAN_POINT('',(31.2249999999999,34.45,0.));
#1869=CARTESIAN_POINT('',(27.7249999999999,35.45,0.));
#1870=CARTESIAN_POINT('',(27.7249999999999,35.45,0.));
#1871=CARTESIAN_POINT('',(31.7249999999999,35.45,0.));
#1872=CARTESIAN_POINT('',(31.7249999999999,35.45,0.));
#1873=CARTESIAN_POINT('',(31.2249999999999,34.45,0.));
#1874=CARTESIAN_POINT('',(31.2249999999999,34.45,0.));
#1875=CARTESIAN_POINT('',(31.2249999999999,34.45,9.));
#1876=CARTESIAN_POINT('',(31.2249999999999,34.45,9.));
#1877=CARTESIAN_POINT('',(31.7249999999999,35.45,9.));
#1878=CARTESIAN_POINT('',(31.2249999999999,34.45,0.));
#1879=CARTESIAN_POINT('',(31.7249999999999,35.45,0.));
#1880=CARTESIAN_POINT('',(31.7249999999999,35.45,0.));
#1881=CARTESIAN_POINT('',(31.7249999999999,35.45,9.));
#1882=CARTESIAN_POINT('',(27.7249999999999,35.45,9.));
#1883=CARTESIAN_POINT('',(27.7249999999999,35.45,0.));
#1884=CARTESIAN_POINT('',(27.7249999999999,35.45,0.));
#1885=CARTESIAN_POINT('',(27.7249999999999,35.45,9.));
#1886=CARTESIAN_POINT('',(28.2249999999999,34.45,9.));
#1887=CARTESIAN_POINT('',(28.2249999999999,34.45,0.));
#1888=CARTESIAN_POINT('',(22.45,23.95,-1.));
#1889=CARTESIAN_POINT('',(23.1999999999999,23.2000000000001,-1.));
#1890=CARTESIAN_POINT('',(23.95,22.45,-1.));
#1891=CARTESIAN_POINT('',(22.45,23.95,-1.));
#1892=CARTESIAN_POINT('',(23.95,22.45,-1.));
#1893=CARTESIAN_POINT('',(23.95,22.45,0.));
#1894=CARTESIAN_POINT('',(22.45,23.95,0.));
#1895=CARTESIAN_POINT('',(22.45,23.95,0.));
#1896=CARTESIAN_POINT('',(22.45,23.95,-1.));
#1897=CARTESIAN_POINT('',(23.95,12.,-1.));
#1898=CARTESIAN_POINT('',(23.95,12.,-1.));
#1899=CARTESIAN_POINT('',(22.45,10.5,-1.));
#1900=CARTESIAN_POINT('',(23.95,12.,-1.));
#1901=CARTESIAN_POINT('',(22.45,10.5,-1.));
#1902=CARTESIAN_POINT('',(22.45,10.5,0.));
#1903=CARTESIAN_POINT('',(5.97500000000005,-5.97500000000002,0.));
#1904=CARTESIAN_POINT('',(23.95,12.,0.));
#1905=CARTESIAN_POINT('',(23.95,12.,-1.));
#1906=CARTESIAN_POINT('',(10.5,22.45,-1.));
#1907=CARTESIAN_POINT('',(10.5,22.45,-1.));
#1908=CARTESIAN_POINT('',(12.,23.95,-1.));
#1909=CARTESIAN_POINT('',(10.5,22.45,-1.));
#1910=CARTESIAN_POINT('',(12.,23.95,-1.));
#1911=CARTESIAN_POINT('',(12.,23.95,0.));
#1912=CARTESIAN_POINT('',(-5.97500000000001,5.97500000000001,0.));
#1913=CARTESIAN_POINT('',(10.5,22.45,0.));
#1914=CARTESIAN_POINT('',(10.5,22.45,-1.));
#1915=CARTESIAN_POINT('',(12.,10.5,-1.));
#1916=CARTESIAN_POINT('',(11.25,11.25,-1.));
#1917=CARTESIAN_POINT('',(10.5,12.,-1.));
#1918=CARTESIAN_POINT('',(12.,10.5,-1.));
#1919=CARTESIAN_POINT('',(10.5,12.,-1.));
#1920=CARTESIAN_POINT('',(10.5,12.,0.));
#1921=CARTESIAN_POINT('',(12.,10.5,0.));
#1922=CARTESIAN_POINT('',(12.,10.5,0.));
#1923=CARTESIAN_POINT('',(12.,10.5,-1.));
#1924=CARTESIAN_POINT('',(0.,0.,-1.));
#1925=CARTESIAN_POINT('',(12.,34.45,-1.));
#1926=CARTESIAN_POINT('',(12.,34.45,-1.));
#1927=CARTESIAN_POINT('',(-1.46957615897682E-15,22.45,-1.));
#1928=CARTESIAN_POINT('',(-1.46957615897682E-15,22.45,-1.));
#1929=CARTESIAN_POINT('',(0.,34.45,-1.));
#1930=CARTESIAN_POINT('',(0.,34.45,-1.));
#1931=CARTESIAN_POINT('',(0.,34.45,-1.));
#1932=CARTESIAN_POINT('',(-1.46957615897682E-15,22.45,-1.));
#1933=CARTESIAN_POINT('',(-1.46957615897682E-15,22.45,0.));
#1934=CARTESIAN_POINT('',(2.10219024122831,22.45,0.));
#1935=CARTESIAN_POINT('',(-1.46957615897682E-15,22.45,0.));
#1936=CARTESIAN_POINT('',(0.,22.45,0.));
#1937=CARTESIAN_POINT('',(-1.46957615897682E-15,22.45,-1.));
#1938=CARTESIAN_POINT('',(12.,34.45,-1.));
#1939=CARTESIAN_POINT('',(12.,34.45,0.));
#1940=CARTESIAN_POINT('',(12.,32.3478097587717,0.));
#1941=CARTESIAN_POINT('',(12.,34.45,-1.));
#1942=CARTESIAN_POINT('',(12.,34.45,0.));
#1943=CARTESIAN_POINT('',(12.,34.45,0.));
#1944=CARTESIAN_POINT('',(0.,0.,0.));
#1945=CARTESIAN_POINT('',(17.225,17.225,0.));
#1946=CARTESIAN_POINT('',(0.,0.,-1.));
#1947=CARTESIAN_POINT('',(0.,12.,-1.));
#1948=CARTESIAN_POINT('',(0.,12.,-1.));
#1949=CARTESIAN_POINT('',(12.,-1.46957615897682E-15,-1.));
#1950=CARTESIAN_POINT('',(12.,-1.46957615897682E-15,-1.));
#1951=CARTESIAN_POINT('',(0.,0.,-1.));
#1952=CARTESIAN_POINT('',(0.,0.,-1.));
#1953=CARTESIAN_POINT('',(0.,0.,-1.));
#1954=CARTESIAN_POINT('',(12.,-1.46957615897682E-15,-1.));
#1955=CARTESIAN_POINT('',(12.,-1.46957615897682E-15,0.));
#1956=CARTESIAN_POINT('',(12.,2.10219024122831,0.));
#1957=CARTESIAN_POINT('',(12.,-1.46957615897682E-15,0.));
#1958=CARTESIAN_POINT('',(12.,0.,0.));
#1959=CARTESIAN_POINT('',(12.,-1.46957615897682E-15,-1.));
#1960=CARTESIAN_POINT('',(0.,12.,-1.));
#1961=CARTESIAN_POINT('',(0.,12.,0.));
#1962=CARTESIAN_POINT('',(2.10219024122831,12.,0.));
#1963=CARTESIAN_POINT('',(0.,12.,-1.));
#1964=CARTESIAN_POINT('',(0.,12.,0.));
#1965=CARTESIAN_POINT('',(0.,12.,0.));
#1966=CARTESIAN_POINT('',(0.,0.,0.));
#1967=CARTESIAN_POINT('',(17.225,17.225,0.));
#1968=CARTESIAN_POINT('',(0.,0.,-1.));
#1969=CARTESIAN_POINT('',(22.45,0.,-1.));
#1970=CARTESIAN_POINT('',(22.45,0.,-1.));
#1971=CARTESIAN_POINT('',(34.45,12.,-1.));
#1972=CARTESIAN_POINT('',(34.45,12.,-1.));
#1973=CARTESIAN_POINT('',(34.45,0.,-1.));
#1974=CARTESIAN_POINT('',(34.45,0.,-1.));
#1975=CARTESIAN_POINT('',(34.45,0.,-1.));
#1976=CARTESIAN_POINT('',(34.45,12.,-1.));
#1977=CARTESIAN_POINT('',(34.45,12.,0.));
#1978=CARTESIAN_POINT('',(32.3478097587717,12.,0.));
#1979=CARTESIAN_POINT('',(34.45,12.,0.));
#1980=CARTESIAN_POINT('',(34.45,12.,0.));
#1981=CARTESIAN_POINT('',(34.45,12.,-1.));
#1982=CARTESIAN_POINT('',(22.45,0.,-1.));
#1983=CARTESIAN_POINT('',(22.45,0.,0.));
#1984=CARTESIAN_POINT('',(22.45,2.10219024122831,0.));
#1985=CARTESIAN_POINT('',(22.45,0.,-1.));
#1986=CARTESIAN_POINT('',(22.45,0.,0.));
#1987=CARTESIAN_POINT('',(22.45,0.,0.));
#1988=CARTESIAN_POINT('',(0.,0.,0.));
#1989=CARTESIAN_POINT('',(17.225,17.225,0.));
#1990=CARTESIAN_POINT('',(0.,0.,-1.));
#1991=CARTESIAN_POINT('',(34.45,22.45,-1.));
#1992=CARTESIAN_POINT('',(34.45,22.45,-1.));
#1993=CARTESIAN_POINT('',(22.45,34.45,-1.));
#1994=CARTESIAN_POINT('',(22.45,34.45,-1.));
#1995=CARTESIAN_POINT('',(34.45,34.45,-1.));
#1996=CARTESIAN_POINT('',(34.45,34.45,-1.));
#1997=CARTESIAN_POINT('',(34.45,34.45,-1.));
#1998=CARTESIAN_POINT('',(22.45,34.45,-1.));
#1999=CARTESIAN_POINT('',(22.45,34.45,0.));
#2000=CARTESIAN_POINT('',(22.45,32.3478097587717,0.));
#2001=CARTESIAN_POINT('',(22.45,34.45,0.));
#2002=CARTESIAN_POINT('',(22.45,34.45,0.));
#2003=CARTESIAN_POINT('',(22.45,34.45,-1.));
#2004=CARTESIAN_POINT('',(34.45,22.45,-1.));
#2005=CARTESIAN_POINT('',(34.45,22.45,0.));
#2006=CARTESIAN_POINT('',(32.3478097587717,22.45,0.));
#2007=CARTESIAN_POINT('',(34.45,22.45,-1.));
#2008=CARTESIAN_POINT('',(34.45,22.45,0.));
#2009=CARTESIAN_POINT('',(34.45,22.45,0.));
#2010=CARTESIAN_POINT('',(0.,0.,0.));
#2011=CARTESIAN_POINT('',(17.225,17.225,0.));
#2012=CARTESIAN_POINT('',(17.225,17.225,9.));
#2013=CARTESIAN_POINT('',(33.225,17.225,9.));
#2014=CARTESIAN_POINT('',(33.225,17.225,9.));
#2015=CARTESIAN_POINT('',(33.225,17.225,0.));
#2016=CARTESIAN_POINT('',(17.225,17.225,9.));
#2017=CARTESIAN_POINT('',(1.22499999999999,17.225,9.));
#2018=CARTESIAN_POINT('',(1.22499999999999,17.225,9.));
#2019=CARTESIAN_POINT('',(1.22499999999999,17.225,0.));
#2020=CARTESIAN_POINT('',(17.225,17.225,0.));
#2021=CARTESIAN_POINT('',(17.225,17.225,0.));
#2022=CARTESIAN_POINT('',(17.225,17.225,0.));
#2023=CARTESIAN_POINT('',(34.45,0.,9.));
#2024=CARTESIAN_POINT('',(34.45,0.,9.));
#2025=CARTESIAN_POINT('',(34.45,0.,9.));
#2026=CARTESIAN_POINT('',(34.45,0.,9.));
#2027=CARTESIAN_POINT('',(34.45,0.,9.));
#2028=CARTESIAN_POINT('',(34.45,0.,0.));
#2029=CARTESIAN_POINT('',(34.45,34.45,9.));
#2030=CARTESIAN_POINT('',(34.45,34.45,9.));
#2031=CARTESIAN_POINT('',(34.45,0.,9.));
#2032=CARTESIAN_POINT('',(0.,0.,0.));
#2033=CARTESIAN_POINT('',(17.225,17.225,0.));
#2034=CARTESIAN_POINT('',(0.,0.,0.));
#2035=CARTESIAN_POINT('',(0.,0.,0.));
#2036=CARTESIAN_POINT('',(17.225,17.225,0.));
#2037=CARTESIAN_POINT('',(0.,0.,0.));
#2038=CARTESIAN_POINT('',(0.,0.,0.));
#2039=CARTESIAN_POINT('',(17.225,17.225,0.));
#2040=CARTESIAN_POINT('',(0.,0.,0.));
#2041=CARTESIAN_POINT('',(0.,34.45,0.));
#2042=CARTESIAN_POINT('',(0.,34.45,9.));
#2043=CARTESIAN_POINT('',(0.,34.45,9.));
#2044=CARTESIAN_POINT('',(0.,34.45,9.));
#2045=CARTESIAN_POINT('',(0.,34.45,9.));
#2046=CARTESIAN_POINT('',(0.,34.45,9.));
#2047=CARTESIAN_POINT('',(0.,34.45,9.));
#2048=CARTESIAN_POINT('',(0.,0.,9.));
#2049=CARTESIAN_POINT('',(0.,0.,9.));
#2050=CARTESIAN_POINT('',(0.,0.,9.));
#2051=CARTESIAN_POINT('',(0.,0.,9.));
#2052=CARTESIAN_POINT('',(0.,0.,9.));
#2053=CARTESIAN_POINT('',(0.,0.,9.));
#2054=CARTESIAN_POINT('',(0.,0.,9.));
#2055=CARTESIAN_POINT('',(0.,0.,9.));
#2056=CARTESIAN_POINT('',(0.,0.,9.));
#2057=CARTESIAN_POINT('',(0.,0.,9.));
#2058=CARTESIAN_POINT('',(0.,0.,9.));
#2059=CARTESIAN_POINT('',(17.225,17.225,9.));
#2060=CARTESIAN_POINT('',(17.225,17.225,9.));
#2061=CARTESIAN_POINT('',(-43.1211408245763,-70.4814018710497,-16.1416472892302));
#2062=CARTESIAN_POINT('',(-43.1211408245763,-104.93140187105,-16.1416472892302));
#2063=CARTESIAN_POINT('',(-43.1211408245763,-139.38140187105,-16.1416472892302));
#2064=CARTESIAN_POINT('',(-42.9488502498132,-173.83140187105,-16.1416472892302));
#2065=CARTESIAN_POINT('',(-42.9488502498123,-208.28140187105,-16.1416472892302));
#2066=(
GEOMETRIC_REPRESENTATION_CONTEXT(3)
GLOBAL_UNCERTAINTY_ASSIGNED_CONTEXT((#2068))
GLOBAL_UNIT_ASSIGNED_CONTEXT((#2072,#2071,#2070))
REPRESENTATION_CONTEXT('Asm1','TOP_LEVEL_ASSEMBLY_PART')
);
#2067=(
GEOMETRIC_REPRESENTATION_CONTEXT(3)
GLOBAL_UNCERTAINTY_ASSIGNED_CONTEXT((#2069))
GLOBAL_UNIT_ASSIGNED_CONTEXT((#2072,#2071,#2070))
REPRESENTATION_CONTEXT('32650 holder_step','COMPONENT_PART')
);
#2068=UNCERTAINTY_MEASURE_WITH_UNIT(LENGTH_MEASURE(0.005),#2072,
'DISTANCE_ACCURACY_VALUE','Maximum Tolerance applied to model');
#2069=UNCERTAINTY_MEASURE_WITH_UNIT(LENGTH_MEASURE(0.005),#2072,
'DISTANCE_ACCURACY_VALUE','Maximum Tolerance applied to model');
#2070=(
NAMED_UNIT(*)
SI_UNIT($,.STERADIAN.)
SOLID_ANGLE_UNIT()
);
#2071=(
NAMED_UNIT(*)
PLANE_ANGLE_UNIT()
SI_UNIT($,.RADIAN.)
);
#2072=(
LENGTH_UNIT()
NAMED_UNIT(*)
SI_UNIT(.MILLI.,.METRE.)
);
#2073=PRODUCT_DEFINITION_SHAPE('','',#2080);
#2074=PRODUCT_DEFINITION_SHAPE('','',#2081);
#2075=PRODUCT_DEFINITION_SHAPE(' ','NAUO PRDDFN',#23);
#2076=PRODUCT_DEFINITION_SHAPE(' ','NAUO PRDDFN',#24);
#2077=PRODUCT_DEFINITION_SHAPE(' ','NAUO PRDDFN',#25);
#2078=PRODUCT_DEFINITION_SHAPE(' ','NAUO PRDDFN',#26);
#2079=PRODUCT_DEFINITION_SHAPE(' ','NAUO PRDDFN',#27);
#2080=PRODUCT_DEFINITION('','',#2084,#2082);
#2081=PRODUCT_DEFINITION('','',#2085,#2083);
#2082=PRODUCT_DEFINITION_CONTEXT('',#2095,'design');
#2083=PRODUCT_DEFINITION_CONTEXT('',#2095,'design');
#2084=PRODUCT_DEFINITION_FORMATION_WITH_SPECIFIED_SOURCE('','',#2088,
 .NOT_KNOWN.);
#2085=PRODUCT_DEFINITION_FORMATION_WITH_SPECIFIED_SOURCE('','',#2089,
 .NOT_KNOWN.);
#2086=PRODUCT_RELATED_PRODUCT_CATEGORY('','',(#2088));
#2087=PRODUCT_RELATED_PRODUCT_CATEGORY('','',(#2089));
#2088=PRODUCT('Asm1','Asm1','Asm1',(#2092));
#2089=PRODUCT('32650 holder_step','32650 holder_step',
'32650 holder_step',(#2093));
#2090=PRODUCT_CATEGORY('','');
#2091=PRODUCT_CATEGORY('','');
#2092=PRODUCT_CONTEXT('',#2095,'mechanical');
#2093=PRODUCT_CONTEXT('',#2095,'mechanical');
#2094=APPLICATION_PROTOCOL_DEFINITION('international standard',
'automotive_design',2010,#2095);
#2095=APPLICATION_CONTEXT(
'core data for automotive mechanical design processes');
ENDSEC;
END-ISO-10303-21;
