ISO-10303-21;
HEADER;
/* Generated by software containing ST-Developer
 * from STEP Tools, Inc. (www.steptools.com) 
 */
/* OPTION: strings as raw bytes, not using required /X/ escapes */

FILE_DESCRIPTION(
/* description */ ('Unknown'),
/* implementation_level */ '2;1');

FILE_NAME(
/* name */ 'Batt-PT',
/* time_stamp */ '2025-12-20T23:37:11+07:00',
/* author */ ('Unknown'),
/* organization */ ('Unknown'),
/* preprocessor_version */ 'ST-DEVELOPER v20',
/* originating_system */ 'Solid Edge',
/* authorisation */ 'Unknown');

FILE_SCHEMA (('AUTOMOTIVE_DESIGN {1 0 10303 214 3 1 1}'));
ENDSEC;

DATA;
#10=PROPERTY_DEFINITION_REPRESENTATION(#14,#12);
#11=PROPERTY_DEFINITION_REPRESENTATION(#15,#13);
#12=REPRESENTATION('',(#16),#591);
#13=REPRESENTATION('',(#17),#591);
#14=PROPERTY_DEFINITION('pmi validation property','',#598);
#15=PROPERTY_DEFINITION('pmi validation property','',#598);
#16=VALUE_REPRESENTATION_ITEM('number of annotations',COUNT_MEASURE(0.));
#17=VALUE_REPRESENTATION_ITEM('number of views',COUNT_MEASURE(0.));
#18=CONTEXT_DEPENDENT_SHAPE_REPRESENTATION(#20,#600);
#19=NEXT_ASSEMBLY_USAGE_OCCURRENCE(
'User Library-LS14250_3PF_Extruded_13',
'User Library-LS14250_3PF_Extruded_13',
'User Library-LS14250_3PF_Extruded_13',#601,#602,'');
#20=(
REPRESENTATION_RELATIONSHIP(' ',' ',#380,#381)
REPRESENTATION_RELATIONSHIP_WITH_TRANSFORMATION(#21)
SHAPE_REPRESENTATION_RELATIONSHIP()
);
#21=ITEM_DEFINED_TRANSFORMATION(' ',' ',#382,#401);
#22=SHAPE_REPRESENTATION_RELATIONSHIP('','',#380,#23);
#23=ADVANCED_BREP_SHAPE_REPRESENTATION('',(#377),#592);
#24=ORIENTED_EDGE('',*,*,#120,.F.);
#25=ORIENTED_EDGE('',*,*,#121,.F.);
#26=ORIENTED_EDGE('',*,*,#122,.F.);
#27=ORIENTED_EDGE('',*,*,#123,.F.);
#28=ORIENTED_EDGE('',*,*,#124,.F.);
#29=ORIENTED_EDGE('',*,*,#125,.F.);
#30=ORIENTED_EDGE('',*,*,#126,.F.);
#31=ORIENTED_EDGE('',*,*,#127,.F.);
#32=ORIENTED_EDGE('',*,*,#128,.F.);
#33=ORIENTED_EDGE('',*,*,#129,.F.);
#34=ORIENTED_EDGE('',*,*,#130,.F.);
#35=ORIENTED_EDGE('',*,*,#131,.F.);
#36=ORIENTED_EDGE('',*,*,#132,.F.);
#37=ORIENTED_EDGE('',*,*,#133,.F.);
#38=ORIENTED_EDGE('',*,*,#134,.F.);
#39=ORIENTED_EDGE('',*,*,#135,.F.);
#40=ORIENTED_EDGE('',*,*,#136,.F.);
#41=ORIENTED_EDGE('',*,*,#137,.F.);
#42=ORIENTED_EDGE('',*,*,#135,.T.);
#43=ORIENTED_EDGE('',*,*,#138,.F.);
#44=ORIENTED_EDGE('',*,*,#139,.F.);
#45=ORIENTED_EDGE('',*,*,#140,.F.);
#46=ORIENTED_EDGE('',*,*,#120,.T.);
#47=ORIENTED_EDGE('',*,*,#137,.T.);
#48=ORIENTED_EDGE('',*,*,#141,.F.);
#49=ORIENTED_EDGE('',*,*,#142,.F.);
#50=ORIENTED_EDGE('',*,*,#121,.T.);
#51=ORIENTED_EDGE('',*,*,#140,.T.);
#52=ORIENTED_EDGE('',*,*,#143,.F.);
#53=ORIENTED_EDGE('',*,*,#144,.F.);
#54=ORIENTED_EDGE('',*,*,#122,.T.);
#55=ORIENTED_EDGE('',*,*,#142,.T.);
#56=ORIENTED_EDGE('',*,*,#145,.F.);
#57=ORIENTED_EDGE('',*,*,#146,.F.);
#58=ORIENTED_EDGE('',*,*,#123,.T.);
#59=ORIENTED_EDGE('',*,*,#144,.T.);
#60=ORIENTED_EDGE('',*,*,#147,.F.);
#61=ORIENTED_EDGE('',*,*,#148,.F.);
#62=ORIENTED_EDGE('',*,*,#124,.T.);
#63=ORIENTED_EDGE('',*,*,#146,.T.);
#64=ORIENTED_EDGE('',*,*,#149,.F.);
#65=ORIENTED_EDGE('',*,*,#150,.F.);
#66=ORIENTED_EDGE('',*,*,#125,.T.);
#67=ORIENTED_EDGE('',*,*,#148,.T.);
#68=ORIENTED_EDGE('',*,*,#151,.F.);
#69=ORIENTED_EDGE('',*,*,#152,.F.);
#70=ORIENTED_EDGE('',*,*,#126,.T.);
#71=ORIENTED_EDGE('',*,*,#150,.T.);
#72=ORIENTED_EDGE('',*,*,#153,.F.);
#73=ORIENTED_EDGE('',*,*,#154,.F.);
#74=ORIENTED_EDGE('',*,*,#127,.T.);
#75=ORIENTED_EDGE('',*,*,#152,.T.);
#76=ORIENTED_EDGE('',*,*,#155,.F.);
#77=ORIENTED_EDGE('',*,*,#156,.F.);
#78=ORIENTED_EDGE('',*,*,#128,.T.);
#79=ORIENTED_EDGE('',*,*,#154,.T.);
#80=ORIENTED_EDGE('',*,*,#157,.F.);
#81=ORIENTED_EDGE('',*,*,#158,.F.);
#82=ORIENTED_EDGE('',*,*,#129,.T.);
#83=ORIENTED_EDGE('',*,*,#156,.T.);
#84=ORIENTED_EDGE('',*,*,#159,.F.);
#85=ORIENTED_EDGE('',*,*,#160,.F.);
#86=ORIENTED_EDGE('',*,*,#130,.T.);
#87=ORIENTED_EDGE('',*,*,#158,.T.);
#88=ORIENTED_EDGE('',*,*,#161,.F.);
#89=ORIENTED_EDGE('',*,*,#162,.F.);
#90=ORIENTED_EDGE('',*,*,#131,.T.);
#91=ORIENTED_EDGE('',*,*,#160,.T.);
#92=ORIENTED_EDGE('',*,*,#163,.F.);
#93=ORIENTED_EDGE('',*,*,#164,.F.);
#94=ORIENTED_EDGE('',*,*,#132,.T.);
#95=ORIENTED_EDGE('',*,*,#162,.T.);
#96=ORIENTED_EDGE('',*,*,#165,.F.);
#97=ORIENTED_EDGE('',*,*,#166,.F.);
#98=ORIENTED_EDGE('',*,*,#133,.T.);
#99=ORIENTED_EDGE('',*,*,#164,.T.);
#100=ORIENTED_EDGE('',*,*,#167,.F.);
#101=ORIENTED_EDGE('',*,*,#138,.T.);
#102=ORIENTED_EDGE('',*,*,#134,.T.);
#103=ORIENTED_EDGE('',*,*,#166,.T.);
#104=ORIENTED_EDGE('',*,*,#141,.T.);
#105=ORIENTED_EDGE('',*,*,#139,.T.);
#106=ORIENTED_EDGE('',*,*,#136,.T.);
#107=ORIENTED_EDGE('',*,*,#167,.T.);
#108=ORIENTED_EDGE('',*,*,#165,.T.);
#109=ORIENTED_EDGE('',*,*,#163,.T.);
#110=ORIENTED_EDGE('',*,*,#161,.T.);
#111=ORIENTED_EDGE('',*,*,#159,.T.);
#112=ORIENTED_EDGE('',*,*,#157,.T.);
#113=ORIENTED_EDGE('',*,*,#155,.T.);
#114=ORIENTED_EDGE('',*,*,#153,.T.);
#115=ORIENTED_EDGE('',*,*,#151,.T.);
#116=ORIENTED_EDGE('',*,*,#149,.T.);
#117=ORIENTED_EDGE('',*,*,#147,.T.);
#118=ORIENTED_EDGE('',*,*,#145,.T.);
#119=ORIENTED_EDGE('',*,*,#143,.T.);
#120=EDGE_CURVE('',#168,#169,#200,.F.);
#121=EDGE_CURVE('',#170,#168,#201,.F.);
#122=EDGE_CURVE('',#171,#170,#202,.T.);
#123=EDGE_CURVE('',#172,#171,#203,.F.);
#124=EDGE_CURVE('',#173,#172,#204,.F.);
#125=EDGE_CURVE('',#174,#173,#205,.F.);
#126=EDGE_CURVE('',#175,#174,#206,.T.);
#127=EDGE_CURVE('',#176,#175,#207,.T.);
#128=EDGE_CURVE('',#177,#176,#208,.T.);
#129=EDGE_CURVE('',#178,#177,#209,.T.);
#130=EDGE_CURVE('',#179,#178,#210,.T.);
#131=EDGE_CURVE('',#180,#179,#211,.T.);
#132=EDGE_CURVE('',#181,#180,#212,.T.);
#133=EDGE_CURVE('',#182,#181,#213,.T.);
#134=EDGE_CURVE('',#183,#182,#214,.F.);
#135=EDGE_CURVE('',#169,#183,#215,.T.);
#136=EDGE_CURVE('',#184,#185,#216,.T.);
#137=EDGE_CURVE('',#169,#184,#217,.T.);
#138=EDGE_CURVE('',#185,#183,#218,.F.);
#139=EDGE_CURVE('',#186,#184,#219,.F.);
#140=EDGE_CURVE('',#168,#186,#220,.F.);
#141=EDGE_CURVE('',#187,#186,#221,.F.);
#142=EDGE_CURVE('',#170,#187,#222,.F.);
#143=EDGE_CURVE('',#188,#187,#223,.T.);
#144=EDGE_CURVE('',#171,#188,#224,.T.);
#145=EDGE_CURVE('',#189,#188,#225,.F.);
#146=EDGE_CURVE('',#172,#189,#226,.F.);
#147=EDGE_CURVE('',#190,#189,#227,.F.);
#148=EDGE_CURVE('',#173,#190,#228,.F.);
#149=EDGE_CURVE('',#191,#190,#229,.F.);
#150=EDGE_CURVE('',#174,#191,#230,.F.);
#151=EDGE_CURVE('',#192,#191,#231,.T.);
#152=EDGE_CURVE('',#175,#192,#232,.T.);
#153=EDGE_CURVE('',#193,#192,#233,.F.);
#154=EDGE_CURVE('',#176,#193,#234,.T.);
#155=EDGE_CURVE('',#194,#193,#235,.T.);
#156=EDGE_CURVE('',#177,#194,#236,.T.);
#157=EDGE_CURVE('',#195,#194,#237,.T.);
#158=EDGE_CURVE('',#178,#195,#238,.T.);
#159=EDGE_CURVE('',#196,#195,#239,.F.);
#160=EDGE_CURVE('',#179,#196,#240,.T.);
#161=EDGE_CURVE('',#197,#196,#241,.T.);
#162=EDGE_CURVE('',#180,#197,#242,.T.);
#163=EDGE_CURVE('',#198,#197,#243,.F.);
#164=EDGE_CURVE('',#181,#198,#244,.T.);
#165=EDGE_CURVE('',#199,#198,#245,.T.);
#166=EDGE_CURVE('',#182,#199,#246,.T.);
#167=EDGE_CURVE('',#185,#199,#247,.F.);
#168=VERTEX_POINT('',#493);
#169=VERTEX_POINT('',#494);
#170=VERTEX_POINT('',#496);
#171=VERTEX_POINT('',#498);
#172=VERTEX_POINT('',#500);
#173=VERTEX_POINT('',#502);
#174=VERTEX_POINT('',#504);
#175=VERTEX_POINT('',#506);
#176=VERTEX_POINT('',#508);
#177=VERTEX_POINT('',#510);
#178=VERTEX_POINT('',#512);
#179=VERTEX_POINT('',#514);
#180=VERTEX_POINT('',#516);
#181=VERTEX_POINT('',#518);
#182=VERTEX_POINT('',#520);
#183=VERTEX_POINT('',#522);
#184=VERTEX_POINT('',#526);
#185=VERTEX_POINT('',#527);
#186=VERTEX_POINT('',#532);
#187=VERTEX_POINT('',#536);
#188=VERTEX_POINT('',#540);
#189=VERTEX_POINT('',#544);
#190=VERTEX_POINT('',#548);
#191=VERTEX_POINT('',#552);
#192=VERTEX_POINT('',#556);
#193=VERTEX_POINT('',#560);
#194=VERTEX_POINT('',#564);
#195=VERTEX_POINT('',#568);
#196=VERTEX_POINT('',#572);
#197=VERTEX_POINT('',#576);
#198=VERTEX_POINT('',#580);
#199=VERTEX_POINT('',#584);
#200=LINE('',#492,#248);
#201=LINE('',#495,#249);
#202=LINE('',#497,#250);
#203=LINE('',#499,#251);
#204=LINE('',#501,#252);
#205=LINE('',#503,#253);
#206=LINE('',#505,#254);
#207=LINE('',#507,#255);
#208=LINE('',#509,#256);
#209=LINE('',#511,#257);
#210=LINE('',#513,#258);
#211=LINE('',#515,#259);
#212=LINE('',#517,#260);
#213=LINE('',#519,#261);
#214=LINE('',#521,#262);
#215=LINE('',#523,#263);
#216=LINE('',#525,#264);
#217=LINE('',#528,#265);
#218=LINE('',#529,#266);
#219=LINE('',#531,#267);
#220=LINE('',#533,#268);
#221=LINE('',#535,#269);
#222=LINE('',#537,#270);
#223=LINE('',#539,#271);
#224=LINE('',#541,#272);
#225=LINE('',#543,#273);
#226=LINE('',#545,#274);
#227=LINE('',#547,#275);
#228=LINE('',#549,#276);
#229=LINE('',#551,#277);
#230=LINE('',#553,#278);
#231=LINE('',#555,#279);
#232=LINE('',#557,#280);
#233=LINE('',#559,#281);
#234=LINE('',#561,#282);
#235=LINE('',#563,#283);
#236=LINE('',#565,#284);
#237=LINE('',#567,#285);
#238=LINE('',#569,#286);
#239=LINE('',#571,#287);
#240=LINE('',#573,#288);
#241=LINE('',#575,#289);
#242=LINE('',#577,#290);
#243=LINE('',#579,#291);
#244=LINE('',#581,#292);
#245=LINE('',#583,#293);
#246=LINE('',#585,#294);
#247=LINE('',#587,#295);
#248=VECTOR('',#406,1000.);
#249=VECTOR('',#407,1000.);
#250=VECTOR('',#408,1000.);
#251=VECTOR('',#409,1000.);
#252=VECTOR('',#410,1000.);
#253=VECTOR('',#411,1000.);
#254=VECTOR('',#412,1000.);
#255=VECTOR('',#413,1000.);
#256=VECTOR('',#414,1000.);
#257=VECTOR('',#415,1000.);
#258=VECTOR('',#416,1000.);
#259=VECTOR('',#417,1000.);
#260=VECTOR('',#418,1000.);
#261=VECTOR('',#419,1000.);
#262=VECTOR('',#420,1000.);
#263=VECTOR('',#421,1000.);
#264=VECTOR('',#424,1000.);
#265=VECTOR('',#425,1000.);
#266=VECTOR('',#426,1000.);
#267=VECTOR('',#429,1000.);
#268=VECTOR('',#430,1000.);
#269=VECTOR('',#433,1000.);
#270=VECTOR('',#434,1000.);
#271=VECTOR('',#437,1000.);
#272=VECTOR('',#438,1000.);
#273=VECTOR('',#441,1000.);
#274=VECTOR('',#442,1000.);
#275=VECTOR('',#445,1000.);
#276=VECTOR('',#446,1000.);
#277=VECTOR('',#449,1000.);
#278=VECTOR('',#450,1000.);
#279=VECTOR('',#453,1000.);
#280=VECTOR('',#454,1000.);
#281=VECTOR('',#457,1000.);
#282=VECTOR('',#458,1000.);
#283=VECTOR('',#461,1000.);
#284=VECTOR('',#462,1000.);
#285=VECTOR('',#465,1000.);
#286=VECTOR('',#466,1000.);
#287=VECTOR('',#469,1000.);
#288=VECTOR('',#470,1000.);
#289=VECTOR('',#473,1000.);
#290=VECTOR('',#474,1000.);
#291=VECTOR('',#477,1000.);
#292=VECTOR('',#478,1000.);
#293=VECTOR('',#481,1000.);
#294=VECTOR('',#482,1000.);
#295=VECTOR('',#485,1000.);
#296=EDGE_LOOP('',(#24,#25,#26,#27,#28,#29,#30,#31,#32,#33,#34,#35,#36,
#37,#38,#39));
#297=EDGE_LOOP('',(#40,#41,#42,#43));
#298=EDGE_LOOP('',(#44,#45,#46,#47));
#299=EDGE_LOOP('',(#48,#49,#50,#51));
#300=EDGE_LOOP('',(#52,#53,#54,#55));
#301=EDGE_LOOP('',(#56,#57,#58,#59));
#302=EDGE_LOOP('',(#60,#61,#62,#63));
#303=EDGE_LOOP('',(#64,#65,#66,#67));
#304=EDGE_LOOP('',(#68,#69,#70,#71));
#305=EDGE_LOOP('',(#72,#73,#74,#75));
#306=EDGE_LOOP('',(#76,#77,#78,#79));
#307=EDGE_LOOP('',(#80,#81,#82,#83));
#308=EDGE_LOOP('',(#84,#85,#86,#87));
#309=EDGE_LOOP('',(#88,#89,#90,#91));
#310=EDGE_LOOP('',(#92,#93,#94,#95));
#311=EDGE_LOOP('',(#96,#97,#98,#99));
#312=EDGE_LOOP('',(#100,#101,#102,#103));
#313=EDGE_LOOP('',(#104,#105,#106,#107,#108,#109,#110,#111,#112,#113,#114,
#115,#116,#117,#118,#119));
#314=FACE_BOUND('',#296,.T.);
#315=FACE_BOUND('',#297,.T.);
#316=FACE_BOUND('',#298,.T.);
#317=FACE_BOUND('',#299,.T.);
#318=FACE_BOUND('',#300,.T.);
#319=FACE_BOUND('',#301,.T.);
#320=FACE_BOUND('',#302,.T.);
#321=FACE_BOUND('',#303,.T.);
#322=FACE_BOUND('',#304,.T.);
#323=FACE_BOUND('',#305,.T.);
#324=FACE_BOUND('',#306,.T.);
#325=FACE_BOUND('',#307,.T.);
#326=FACE_BOUND('',#308,.T.);
#327=FACE_BOUND('',#309,.T.);
#328=FACE_BOUND('',#310,.T.);
#329=FACE_BOUND('',#311,.T.);
#330=FACE_BOUND('',#312,.T.);
#331=FACE_BOUND('',#313,.T.);
#332=PLANE('',#383);
#333=PLANE('',#384);
#334=PLANE('',#385);
#335=PLANE('',#386);
#336=PLANE('',#387);
#337=PLANE('',#388);
#338=PLANE('',#389);
#339=PLANE('',#390);
#340=PLANE('',#391);
#341=PLANE('',#392);
#342=PLANE('',#393);
#343=PLANE('',#394);
#344=PLANE('',#395);
#345=PLANE('',#396);
#346=PLANE('',#397);
#347=PLANE('',#398);
#348=PLANE('',#399);
#349=PLANE('',#400);
#350=ADVANCED_FACE('',(#314),#332,.F.);
#351=ADVANCED_FACE('',(#315),#333,.F.);
#352=ADVANCED_FACE('',(#316),#334,.F.);
#353=ADVANCED_FACE('',(#317),#335,.F.);
#354=ADVANCED_FACE('',(#318),#336,.F.);
#355=ADVANCED_FACE('',(#319),#337,.F.);
#356=ADVANCED_FACE('',(#320),#338,.F.);
#357=ADVANCED_FACE('',(#321),#339,.F.);
#358=ADVANCED_FACE('',(#322),#340,.F.);
#359=ADVANCED_FACE('',(#323),#341,.F.);
#360=ADVANCED_FACE('',(#324),#342,.F.);
#361=ADVANCED_FACE('',(#325),#343,.F.);
#362=ADVANCED_FACE('',(#326),#344,.F.);
#363=ADVANCED_FACE('',(#327),#345,.F.);
#364=ADVANCED_FACE('',(#328),#346,.F.);
#365=ADVANCED_FACE('',(#329),#347,.F.);
#366=ADVANCED_FACE('',(#330),#348,.F.);
#367=ADVANCED_FACE('',(#331),#349,.T.);
#368=CLOSED_SHELL('',(#350,#351,#352,#353,#354,#355,#356,#357,#358,#359,
#360,#361,#362,#363,#364,#365,#366,#367));
#369=STYLED_ITEM('',(#370),#377);
#370=PRESENTATION_STYLE_ASSIGNMENT((#371));
#371=SURFACE_STYLE_USAGE(.BOTH.,#372);
#372=SURFACE_SIDE_STYLE('',(#373));
#373=SURFACE_STYLE_FILL_AREA(#374);
#374=FILL_AREA_STYLE('',(#375));
#375=FILL_AREA_STYLE_COLOUR('',#376);
#376=COLOUR_RGB('',0.733333349227905,0.733333349227905,0.733333349227905);
#377=MANIFOLD_SOLID_BREP('User Library-LS14250_3PF_Extruded_13',#368);
#378=SHAPE_DEFINITION_REPRESENTATION(#599,#380);
#379=SHAPE_DEFINITION_REPRESENTATION(#598,#381);
#380=SHAPE_REPRESENTATION('User Library-LS14250_3PF_Extruded_13',(#382),
#592);
#381=SHAPE_REPRESENTATION('User Library-LS14250_3PF_Extruded_13',(#382,
#401),#591);
#382=AXIS2_PLACEMENT_3D('',#490,#402,#403);
#383=AXIS2_PLACEMENT_3D('',#491,#404,#405);
#384=AXIS2_PLACEMENT_3D('',#524,#422,#423);
#385=AXIS2_PLACEMENT_3D('',#530,#427,#428);
#386=AXIS2_PLACEMENT_3D('',#534,#431,#432);
#387=AXIS2_PLACEMENT_3D('',#538,#435,#436);
#388=AXIS2_PLACEMENT_3D('',#542,#439,#440);
#389=AXIS2_PLACEMENT_3D('',#546,#443,#444);
#390=AXIS2_PLACEMENT_3D('',#550,#447,#448);
#391=AXIS2_PLACEMENT_3D('',#554,#451,#452);
#392=AXIS2_PLACEMENT_3D('',#558,#455,#456);
#393=AXIS2_PLACEMENT_3D('',#562,#459,#460);
#394=AXIS2_PLACEMENT_3D('',#566,#463,#464);
#395=AXIS2_PLACEMENT_3D('',#570,#467,#468);
#396=AXIS2_PLACEMENT_3D('',#574,#471,#472);
#397=AXIS2_PLACEMENT_3D('',#578,#475,#476);
#398=AXIS2_PLACEMENT_3D('',#582,#479,#480);
#399=AXIS2_PLACEMENT_3D('',#586,#483,#484);
#400=AXIS2_PLACEMENT_3D('',#588,#486,#487);
#401=AXIS2_PLACEMENT_3D('',#589,#488,#489);
#402=DIRECTION('',(0.,0.,1.));
#403=DIRECTION('',(1.,0.,0.));
#404=DIRECTION('',(0.,0.,1.));
#405=DIRECTION('',(1.,0.,0.));
#406=DIRECTION('',(0.,1.,0.));
#407=DIRECTION('',(1.,0.,0.));
#408=DIRECTION('',(0.,1.,0.));
#409=DIRECTION('',(1.,0.,0.));
#410=DIRECTION('',(0.,1.,0.));
#411=DIRECTION('',(1.,0.,0.));
#412=DIRECTION('',(0.,1.,0.));
#413=DIRECTION('',(0.707106781186547,0.707106781186548,0.));
#414=DIRECTION('',(0.,1.,0.));
#415=DIRECTION('',(1.,0.,0.));
#416=DIRECTION('',(0.0623781677869063,0.998052585880899,0.));
#417=DIRECTION('',(1.,0.,0.));
#418=DIRECTION('',(0.0623781677868814,-0.9980525858809,0.));
#419=DIRECTION('',(1.,0.,0.));
#420=DIRECTION('',(0.,1.,0.));
#421=DIRECTION('',(0.707092412638549,-0.707121149442581,0.));
#422=DIRECTION('',(0.707121149442565,0.707092412638565,0.));
#423=DIRECTION('',(-0.707092412638565,0.707121149442565,0.));
#424=DIRECTION('',(0.707092412638549,-0.707121149442581,0.));
#425=DIRECTION('',(0.,0.,1.));
#426=DIRECTION('',(0.,0.,1.));
#427=DIRECTION('',(1.,0.,0.));
#428=DIRECTION('',(0.,0.,-1.));
#429=DIRECTION('',(0.,1.,0.));
#430=DIRECTION('',(0.,0.,-1.));
#431=DIRECTION('',(0.,-1.,0.));
#432=DIRECTION('',(0.,0.,-1.));
#433=DIRECTION('',(1.,0.,0.));
#434=DIRECTION('',(0.,0.,-1.));
#435=DIRECTION('',(-1.,0.,0.));
#436=DIRECTION('',(0.,0.,1.));
#437=DIRECTION('',(0.,1.,0.));
#438=DIRECTION('',(0.,0.,1.));
#439=DIRECTION('',(0.,-1.,0.));
#440=DIRECTION('',(0.,0.,-1.));
#441=DIRECTION('',(1.,0.,0.));
#442=DIRECTION('',(0.,0.,-1.));
#443=DIRECTION('',(1.,0.,0.));
#444=DIRECTION('',(0.,0.,-1.));
#445=DIRECTION('',(0.,1.,0.));
#446=DIRECTION('',(0.,0.,-1.));
#447=DIRECTION('',(0.,-1.,0.));
#448=DIRECTION('',(0.,0.,-1.));
#449=DIRECTION('',(1.,0.,0.));
#450=DIRECTION('',(0.,0.,-1.));
#451=DIRECTION('',(-1.,0.,0.));
#452=DIRECTION('',(0.,0.,1.));
#453=DIRECTION('',(0.,1.,0.));
#454=DIRECTION('',(0.,0.,1.));
#455=DIRECTION('',(-0.707106781186548,0.707106781186548,0.));
#456=DIRECTION('',(-0.707106781186548,-0.707106781186548,0.));
#457=DIRECTION('',(-0.707106781186548,-0.707106781186548,0.));
#458=DIRECTION('',(0.,0.,1.));
#459=DIRECTION('',(-1.,0.,0.));
#460=DIRECTION('',(0.,0.,1.));
#461=DIRECTION('',(0.,1.,0.));
#462=DIRECTION('',(0.,0.,1.));
#463=DIRECTION('',(0.,1.,0.));
#464=DIRECTION('',(0.,0.,1.));
#465=DIRECTION('',(1.,0.,0.));
#466=DIRECTION('',(0.,0.,1.));
#467=DIRECTION('',(-0.998052585880899,0.0623781677869037,0.));
#468=DIRECTION('',(-0.0623781677869037,-0.998052585880899,0.));
#469=DIRECTION('',(-0.0623781677869037,-0.998052585880899,0.));
#470=DIRECTION('',(0.,0.,1.));
#471=DIRECTION('',(0.,1.,0.));
#472=DIRECTION('',(0.,0.,1.));
#473=DIRECTION('',(1.,0.,0.));
#474=DIRECTION('',(0.,0.,1.));
#475=DIRECTION('',(0.998052585880902,0.0623781677868539,0.));
#476=DIRECTION('',(-0.0623781677868539,0.998052585880902,0.));
#477=DIRECTION('',(-0.0623781677868539,0.998052585880902,0.));
#478=DIRECTION('',(0.,0.,1.));
#479=DIRECTION('',(0.,1.,0.));
#480=DIRECTION('',(0.,0.,1.));
#481=DIRECTION('',(1.,0.,0.));
#482=DIRECTION('',(0.,0.,1.));
#483=DIRECTION('',(1.,0.,0.));
#484=DIRECTION('',(0.,0.,-1.));
#485=DIRECTION('',(0.,1.,0.));
#486=DIRECTION('',(0.,0.,1.));
#487=DIRECTION('',(1.,0.,0.));
#488=DIRECTION('',(0.,0.,1.));
#489=DIRECTION('',(1.,0.,0.));
#490=CARTESIAN_POINT('',(0.,0.,0.));
#491=CARTESIAN_POINT('',(-1.2500102,-2.21869254,0.));
#492=CARTESIAN_POINT('',(-2.24999042,-2.21869254,0.));
#493=CARTESIAN_POINT('',(-2.24999042,6.2186947,0.));
#494=CARTESIAN_POINT('',(-2.24999042,0.7813294,0.));
#495=CARTESIAN_POINT('',(-1.2500102,6.2186947,0.));
#496=CARTESIAN_POINT('',(-0.25000966,6.2186947,0.));
#497=CARTESIAN_POINT('',(-0.25000966,-2.21869254,0.));
#498=CARTESIAN_POINT('',(-0.25000966,2.46869712,0.));
#499=CARTESIAN_POINT('',(-1.2500102,2.46869712,0.));
#500=CARTESIAN_POINT('',(0.24998934,2.46869712,0.));
#501=CARTESIAN_POINT('',(0.24998934,-2.21869254,0.));
#502=CARTESIAN_POINT('',(0.24998934,6.2186947,0.));
#503=CARTESIAN_POINT('',(-1.2500102,6.2186947,0.));
#504=CARTESIAN_POINT('',(2.24999042,6.2186947,0.));
#505=CARTESIAN_POINT('',(2.24999042,-2.21869254,0.));
#506=CARTESIAN_POINT('',(2.24999042,0.78130908,0.));
#507=CARTESIAN_POINT('',(1.24998988,-0.21869146,0.));
#508=CARTESIAN_POINT('',(1.24998988,-0.21869146,0.));
#509=CARTESIAN_POINT('',(1.24998988,-2.21869254,0.));
#510=CARTESIAN_POINT('',(1.24998988,-2.21869254,0.));
#511=CARTESIAN_POINT('',(-1.2500102,-2.21869254,0.));
#512=CARTESIAN_POINT('',(0.499988839999984,-2.21869254,0.));
#513=CARTESIAN_POINT('',(0.24998934,-6.21869216,0.));
#514=CARTESIAN_POINT('',(0.24998934,-6.21869216,0.));
#515=CARTESIAN_POINT('',(-1.2500102,-6.21869216000001,0.));
#516=CARTESIAN_POINT('',(-0.250009660000166,-6.21869216000001,0.));
#517=CARTESIAN_POINT('',(-0.50000916,-2.21869254,0.));
#518=CARTESIAN_POINT('',(-0.50000916,-2.21869254,0.));
#519=CARTESIAN_POINT('',(-1.2500102,-2.21869254,0.));
#520=CARTESIAN_POINT('',(-1.25001019999999,-2.21869254,0.));
#521=CARTESIAN_POINT('',(-1.25001019999998,-2.21869254,0.));
#522=CARTESIAN_POINT('',(-1.25001019999998,-0.218691459999972,0.));
#523=CARTESIAN_POINT('',(-2.24999042,0.7813294,0.));
#524=CARTESIAN_POINT('',(-2.24999042,0.7813294,0.));
#525=CARTESIAN_POINT('',(-2.24999042,0.7813294,0.2499995));
#526=CARTESIAN_POINT('',(-2.24999042,0.7813294,0.2499995));
#527=CARTESIAN_POINT('',(-1.25001019999998,-0.218691459999972,0.2499995));
#528=CARTESIAN_POINT('',(-2.24999042,0.7813294,0.));
#529=CARTESIAN_POINT('',(-1.25001019999995,-0.218691459999955,0.));
#530=CARTESIAN_POINT('',(-2.24999042,6.2186947,0.));
#531=CARTESIAN_POINT('',(-2.24999042,6.2186947,0.2499995));
#532=CARTESIAN_POINT('',(-2.24999042,6.2186947,0.2499995));
#533=CARTESIAN_POINT('',(-2.24999042,6.2186947,0.));
#534=CARTESIAN_POINT('',(-0.25000966,6.2186947,0.));
#535=CARTESIAN_POINT('',(-0.25000966,6.2186947,0.2499995));
#536=CARTESIAN_POINT('',(-0.25000966,6.2186947,0.2499995));
#537=CARTESIAN_POINT('',(-0.25000966,6.2186947,0.));
#538=CARTESIAN_POINT('',(-0.25000966,2.46869712,0.));
#539=CARTESIAN_POINT('',(-0.25000966,2.46869712,0.2499995));
#540=CARTESIAN_POINT('',(-0.25000966,2.46869712,0.2499995));
#541=CARTESIAN_POINT('',(-0.25000966,2.46869712,0.));
#542=CARTESIAN_POINT('',(0.24998934,2.46869712,0.));
#543=CARTESIAN_POINT('',(0.24998934,2.46869712,0.2499995));
#544=CARTESIAN_POINT('',(0.24998934,2.46869712,0.2499995));
#545=CARTESIAN_POINT('',(0.24998934,2.46869712,0.));
#546=CARTESIAN_POINT('',(0.24998934,6.2186947,0.));
#547=CARTESIAN_POINT('',(0.24998934,6.2186947,0.2499995));
#548=CARTESIAN_POINT('',(0.24998934,6.2186947,0.2499995));
#549=CARTESIAN_POINT('',(0.24998934,6.2186947,0.));
#550=CARTESIAN_POINT('',(2.24999042,6.2186947,0.));
#551=CARTESIAN_POINT('',(2.24999042,6.2186947,0.2499995));
#552=CARTESIAN_POINT('',(2.24999042,6.2186947,0.2499995));
#553=CARTESIAN_POINT('',(2.24999042,6.2186947,0.));
#554=CARTESIAN_POINT('',(2.24999042,0.78130908,0.));
#555=CARTESIAN_POINT('',(2.24999042,0.78130908,0.2499995));
#556=CARTESIAN_POINT('',(2.24999042,0.78130908,0.2499995));
#557=CARTESIAN_POINT('',(2.24999042,0.78130908,0.));
#558=CARTESIAN_POINT('',(1.24998988,-0.21869146,0.));
#559=CARTESIAN_POINT('',(1.24998988,-0.21869146,0.2499995));
#560=CARTESIAN_POINT('',(1.24998988,-0.21869146,0.2499995));
#561=CARTESIAN_POINT('',(1.24998988,-0.21869146,0.));
#562=CARTESIAN_POINT('',(1.24998988,-2.21869254,0.));
#563=CARTESIAN_POINT('',(1.24998988,-2.21869254,0.2499995));
#564=CARTESIAN_POINT('',(1.24998988,-2.21869254,0.2499995));
#565=CARTESIAN_POINT('',(1.24998988,-2.21869254,0.));
#566=CARTESIAN_POINT('',(0.49998884,-2.21869254,0.));
#567=CARTESIAN_POINT('',(0.49998884,-2.21869254,0.2499995));
#568=CARTESIAN_POINT('',(0.499988839999984,-2.21869254,0.2499995));
#569=CARTESIAN_POINT('',(0.49998883999999,-2.21869254,0.));
#570=CARTESIAN_POINT('',(0.24998934,-6.21869216,0.));
#571=CARTESIAN_POINT('',(0.24998934,-6.21869216,0.2499995));
#572=CARTESIAN_POINT('',(0.24998934,-6.21869216,0.2499995));
#573=CARTESIAN_POINT('',(0.24998934,-6.21869216,0.));
#574=CARTESIAN_POINT('',(-0.25000966,-6.21869216,0.));
#575=CARTESIAN_POINT('',(-0.25000966,-6.21869216,0.2499995));
#576=CARTESIAN_POINT('',(-0.250009660000166,-6.21869216000001,0.2499995));
#577=CARTESIAN_POINT('',(-0.25000966000011,-6.21869216,0.));
#578=CARTESIAN_POINT('',(-0.50000916,-2.21869254,0.));
#579=CARTESIAN_POINT('',(-0.50000916,-2.21869254,0.2499995));
#580=CARTESIAN_POINT('',(-0.50000916,-2.21869254,0.2499995));
#581=CARTESIAN_POINT('',(-0.50000916,-2.21869254,0.));
#582=CARTESIAN_POINT('',(-1.2500102,-2.21869254,0.));
#583=CARTESIAN_POINT('',(-1.2500102,-2.21869254,0.2499995));
#584=CARTESIAN_POINT('',(-1.25001019999999,-2.21869254,0.2499995));
#585=CARTESIAN_POINT('',(-1.2500102,-2.21869254,0.));
#586=CARTESIAN_POINT('',(-1.2500102,-0.21869146,0.));
#587=CARTESIAN_POINT('',(-1.2500102,-0.21869146,0.2499995));
#588=CARTESIAN_POINT('',(-1.2500102,-2.21869254,0.2499995));
#589=CARTESIAN_POINT('',(0.,0.,0.));
#590=MECHANICAL_DESIGN_GEOMETRIC_PRESENTATION_REPRESENTATION('',(#369),
#591);
#591=(
GEOMETRIC_REPRESENTATION_CONTEXT(3)
GLOBAL_UNCERTAINTY_ASSIGNED_CONTEXT((#593))
GLOBAL_UNIT_ASSIGNED_CONTEXT((#597,#596,#595))
REPRESENTATION_CONTEXT('User Library-LS14250_3PF_Extruded_13',
'TOP_LEVEL_ASSEMBLY_PART')
);
#592=(
GEOMETRIC_REPRESENTATION_CONTEXT(3)
GLOBAL_UNCERTAINTY_ASSIGNED_CONTEXT((#594))
GLOBAL_UNIT_ASSIGNED_CONTEXT((#597,#596,#595))
REPRESENTATION_CONTEXT('User Library-LS14250_3PF_Extruded_13',
'COMPONENT_PART')
);
#593=UNCERTAINTY_MEASURE_WITH_UNIT(LENGTH_MEASURE(0.005),#597,
'DISTANCE_ACCURACY_VALUE','Maximum Tolerance applied to model');
#594=UNCERTAINTY_MEASURE_WITH_UNIT(LENGTH_MEASURE(0.005),#597,
'DISTANCE_ACCURACY_VALUE','Maximum Tolerance applied to model');
#595=(
NAMED_UNIT(*)
SI_UNIT($,.STERADIAN.)
SOLID_ANGLE_UNIT()
);
#596=(
NAMED_UNIT(*)
PLANE_ANGLE_UNIT()
SI_UNIT($,.RADIAN.)
);
#597=(
LENGTH_UNIT()
NAMED_UNIT(*)
SI_UNIT(.MILLI.,.METRE.)
);
#598=PRODUCT_DEFINITION_SHAPE('','',#601);
#599=PRODUCT_DEFINITION_SHAPE('','',#602);
#600=PRODUCT_DEFINITION_SHAPE(' ','NAUO PRDDFN',#19);
#601=PRODUCT_DEFINITION('','',#605,#603);
#602=PRODUCT_DEFINITION('','',#606,#604);
#603=PRODUCT_DEFINITION_CONTEXT('',#616,'design');
#604=PRODUCT_DEFINITION_CONTEXT('',#616,'design');
#605=PRODUCT_DEFINITION_FORMATION_WITH_SPECIFIED_SOURCE('','',#609,
 .NOT_KNOWN.);
#606=PRODUCT_DEFINITION_FORMATION_WITH_SPECIFIED_SOURCE('','',#610,
 .NOT_KNOWN.);
#607=PRODUCT_RELATED_PRODUCT_CATEGORY('','',(#609));
#608=PRODUCT_RELATED_PRODUCT_CATEGORY('','',(#610));
#609=PRODUCT('User Library-LS14250_3PF_Extruded_13',
'User Library-LS14250_3PF_Extruded_13',
'User Library-LS14250_3PF_Extruded_13',(#613));
#610=PRODUCT('User Library-LS14250_3PF_Extruded_13',
'User Library-LS14250_3PF_Extruded_13',
'User Library-LS14250_3PF_Extruded_13',(#614));
#611=PRODUCT_CATEGORY('','');
#612=PRODUCT_CATEGORY('','');
#613=PRODUCT_CONTEXT('',#616,'mechanical');
#614=PRODUCT_CONTEXT('',#616,'mechanical');
#615=APPLICATION_PROTOCOL_DEFINITION('international standard',
'automotive_design',2010,#616);
#616=APPLICATION_CONTEXT(
'core data for automotive mechanical design processes');
ENDSEC;
END-ISO-10303-21;
