ISO-10303-21;
HEADER;
FILE_DESCRIPTION (( 'STEP AP214' ),
    '1' );
FILE_NAME ('8D6C4F59-2D9B-4275-9C82-B05C505C8FBA.STEP',
    '2025-01-05T15:38:01',
    ( '' ),
    ( '' ),
    'SwSTEP 2.0',
    'SolidWorks 2022',
    '' );
FILE_SCHEMA (( 'AUTOMOTIVE_DESIGN' ));
ENDSEC;

DATA;
#1 = ORIENTED_EDGE ( 'NONE', *, *, #457, .F. ) ;
#2 = CARTESIAN_POINT ( 'NONE',  ( 4.350000000000003197, 3.980102097228897122E-17, 1.474999999999999201 ) ) ;
#3 = ADVANCED_FACE ( 'NONE', ( #689 ), #548, .F. ) ;
#4 = VECTOR ( 'NONE', #643, 1000.000000000000000 ) ;
#5 = PRESENTATION_STYLE_ASSIGNMENT (( #673 ) ) ;
#6 = MECHANICAL_DESIGN_GEOMETRIC_PRESENTATION_REPRESENTATION (  '', ( #550 ), #746 ) ;
#7 = ORIENTED_EDGE ( 'NONE', *, *, #17, .T. ) ;
#8 = AXIS2_PLACEMENT_3D ( 'NONE', #493, #499, #310 ) ;
#9 = DIRECTION ( 'NONE',  ( 1.000000000000000000, -0.0000000000000000000, -0.0000000000000000000 ) ) ;
#10 = COLOUR_RGB ( '',0.7529411764705882248, 0.7529411764705882248, 0.7529411764705882248 ) ;
#11 = MECHANICAL_DESIGN_GEOMETRIC_PRESENTATION_REPRESENTATION (  '', ( #225 ), #123 ) ;
#12 = FILL_AREA_STYLE ('',( #467 ) ) ;
#13 = ORIENTED_EDGE ( 'NONE', *, *, #783, .F. ) ;
#14 =( NAMED_UNIT ( * ) PLANE_ANGLE_UNIT ( ) SI_UNIT ( $, .RADIAN. ) );
#15 =( LENGTH_UNIT ( ) NAMED_UNIT ( * ) SI_UNIT ( .MILLI., .METRE. ) );
#16 = ORIENTED_EDGE ( 'NONE', *, *, #723, .F. ) ;
#17 = EDGE_CURVE ( 'NONE', #660, #216, #132, .T. ) ;
#18 = DIRECTION ( 'NONE',  ( 0.0000000000000000000, 0.0000000000000000000, 1.000000000000000000 ) ) ;
#19 = UNCERTAINTY_MEASURE_WITH_UNIT (LENGTH_MEASURE( 1.000000000000000082E-05 ), #448, 'distance_accuracy_value', 'NONE');
#20 = FILL_AREA_STYLE_COLOUR ( '', #807 ) ;
#21 = VERTEX_POINT ( 'NONE', #176 ) ;
#22 = STYLED_ITEM ( 'NONE', ( #700 ), #165 ) ;
#23 = MECHANICAL_DESIGN_GEOMETRIC_PRESENTATION_REPRESENTATION (  '', ( #436 ), #497 ) ;
#24 =( GEOMETRIC_REPRESENTATION_CONTEXT ( 3 ) GLOBAL_UNCERTAINTY_ASSIGNED_CONTEXT ( ( #470 ) ) GLOBAL_UNIT_ASSIGNED_CONTEXT ( ( #136, #14, #149 ) ) REPRESENTATION_CONTEXT ( 'NONE', 'WORKASPACE' ) );
#25 = MECHANICAL_DESIGN_GEOMETRIC_PRESENTATION_REPRESENTATION (  '', ( #821 ), #552 ) ;
#26 =( GEOMETRIC_REPRESENTATION_CONTEXT ( 3 ) GLOBAL_UNCERTAINTY_ASSIGNED_CONTEXT ( ( #736 ) ) GLOBAL_UNIT_ASSIGNED_CONTEXT ( ( #61, #129, #789 ) ) REPRESENTATION_CONTEXT ( 'NONE', 'WORKASPACE' ) );
#27 = CYLINDRICAL_SURFACE ( 'NONE', #791, 1.799999999999999600 ) ;
#28 = DIRECTION ( 'NONE',  ( 0.0000000000000000000, 0.0000000000000000000, -1.000000000000000000 ) ) ;
#29 = VERTEX_POINT ( 'NONE', #826 ) ;
#30 = CYLINDRICAL_SURFACE ( 'NONE', #266, 0.3249999999999997891 ) ;
#31 = DIRECTION ( 'NONE',  ( -1.000000000000000000, 0.0000000000000000000, 2.832769448823989808E-16 ) ) ;
#32 = DIRECTION ( 'NONE',  ( 1.000000000000000000, -0.0000000000000000000, -0.0000000000000000000 ) ) ;
#33 = EDGE_LOOP ( 'NONE', ( #7, #508, #142, #679 ) ) ;
#34 = CIRCLE ( 'NONE', #730, 0.3249999999999997891 ) ;
#35 = COLOUR_RGB ( '',0.7529411764705882248, 0.7529411764705882248, 0.7529411764705882248 ) ;
#36 = LINE ( 'NONE', #348, #630 ) ;
#37 = AXIS2_PLACEMENT_3D ( 'NONE', #668, #9, #539 ) ;
#38 = AXIS2_PLACEMENT_3D ( 'NONE', #465, #728, #601 ) ;
#39 = TOROIDAL_SURFACE ( 'NONE', #307, 0.6500000000000001332, 0.3249999999999999556 ) ;
#40 = VERTEX_POINT ( 'NONE', #490 ) ;
#41 = SURFACE_STYLE_FILL_AREA ( #286 ) ;
#42 = SURFACE_SIDE_STYLE ('',( #70 ) ) ;
#43 = SURFACE_SIDE_STYLE ('',( #626 ) ) ;
#44 = EDGE_CURVE ( 'NONE', #660, #815, #98, .T. ) ;
#45 = DIRECTION ( 'NONE',  ( 0.0000000000000000000, 0.0000000000000000000, 1.000000000000000000 ) ) ;
#46 = LINE ( 'NONE', #845, #50 ) ;
#47 =( GEOMETRIC_REPRESENTATION_CONTEXT ( 3 ) GLOBAL_UNCERTAINTY_ASSIGNED_CONTEXT ( ( #99 ) ) GLOBAL_UNIT_ASSIGNED_CONTEXT ( ( #77, #788, #597 ) ) REPRESENTATION_CONTEXT ( 'NONE', 'WORKASPACE' ) );
#48 = AXIS2_PLACEMENT_3D ( 'NONE', #841, #764, #704 ) ;
#49 = CARTESIAN_POINT ( 'NONE',  ( 4.999999999999999112, 0.0000000000000000000, -3.700000000000004619 ) ) ;
#50 = VECTOR ( 'NONE', #517, 1000.000000000000000 ) ;
#51 = AXIS2_PLACEMENT_3D ( 'NONE', #124, #565, #318 ) ;
#52 = MECHANICAL_DESIGN_GEOMETRIC_PRESENTATION_REPRESENTATION (  '', ( #354 ), #776 ) ;
#53 = DIRECTION ( 'NONE',  ( -0.0000000000000000000, 0.0000000000000000000, 1.000000000000000000 ) ) ;
#54 = FILL_AREA_STYLE ('',( #306 ) ) ;
#55 = CARTESIAN_POINT ( 'NONE',  ( 2.500000000000003109, 0.0000000000000000000, 3.599999999999998757 ) ) ;
#56 = ORIENTED_EDGE ( 'NONE', *, *, #316, .F. ) ;
#57 = DIRECTION ( 'NONE',  ( -1.000000000000000000, 0.0000000000000000000, -0.0000000000000000000 ) ) ;
#58 =( LENGTH_UNIT ( ) NAMED_UNIT ( * ) SI_UNIT ( .MILLI., .METRE. ) );
#59 = PRESENTATION_STYLE_ASSIGNMENT (( #634 ) ) ;
#60 = FILL_AREA_STYLE_COLOUR ( '', #301 ) ;
#61 =( LENGTH_UNIT ( ) NAMED_UNIT ( * ) SI_UNIT ( .MILLI., .METRE. ) );
#62 = AXIS2_PLACEMENT_3D ( 'NONE', #49, #569, #120 ) ;
#63 = FILL_AREA_STYLE ('',( #631 ) ) ;
#64 = MECHANICAL_DESIGN_GEOMETRIC_PRESENTATION_REPRESENTATION (  '', ( #474 ), #513 ) ;
#65 = CIRCLE ( 'NONE', #8, 0.3250000000000000111 ) ;
#66 = CIRCLE ( 'NONE', #81, 1.800000000000000044 ) ;
#67 = LINE ( 'NONE', #2, #623 ) ;
#68 =( NAMED_UNIT ( * ) PLANE_ANGLE_UNIT ( ) SI_UNIT ( $, .RADIAN. ) );
#69 = ORIENTED_EDGE ( 'NONE', *, *, #326, .T. ) ;
#70 = SURFACE_STYLE_FILL_AREA ( #718 ) ;
#71 = SURFACE_STYLE_FILL_AREA ( #343 ) ;
#72 = UNCERTAINTY_MEASURE_WITH_UNIT (LENGTH_MEASURE( 1.000000000000000082E-05 ), #802, 'distance_accuracy_value', 'NONE');
#73 = SURFACE_SIDE_STYLE ('',( #265 ) ) ;
#74 = ORIENTED_EDGE ( 'NONE', *, *, #833, .T. ) ;
#75 = DIRECTION ( 'NONE',  ( 0.0000000000000000000, 1.000000000000000000, 0.0000000000000000000 ) ) ;
#76 = PRODUCT_RELATED_PRODUCT_CATEGORY ( 'part', '', ( #214 ) ) ;
#77 =( LENGTH_UNIT ( ) NAMED_UNIT ( * ) SI_UNIT ( .MILLI., .METRE. ) );
#78 = ORIENTED_EDGE ( 'NONE', *, *, #614, .T. ) ;
#79 = PRESENTATION_LAYER_ASSIGNMENT (  '', '', ( #773 ) ) ;
#80 = PRESENTATION_LAYER_ASSIGNMENT (  '', '', ( #821 ) ) ;
#81 = AXIS2_PLACEMENT_3D ( 'NONE', #507, #115, #642 ) ;
#82 = DIRECTION ( 'NONE',  ( 0.0000000000000000000, 1.000000000000000000, 0.0000000000000000000 ) ) ;
#83 =( LENGTH_UNIT ( ) NAMED_UNIT ( * ) SI_UNIT ( .MILLI., .METRE. ) );
#84 = ORIENTED_EDGE ( 'NONE', *, *, #816, .F. ) ;
#85 = FILL_AREA_STYLE_COLOUR ( '', #147 ) ;
#86 = DIRECTION ( 'NONE',  ( 0.0000000000000000000, 0.0000000000000000000, 1.000000000000000000 ) ) ;
#87 = PRESENTATION_STYLE_ASSIGNMENT (( #677 ) ) ;
#88 = PRESENTATION_STYLE_ASSIGNMENT (( #97 ) ) ;
#89 = EDGE_CURVE ( 'NONE', #729, #483, #34, .T. ) ;
#90 = ORIENTED_EDGE ( 'NONE', *, *, #648, .F. ) ;
#91 =( NAMED_UNIT ( * ) PLANE_ANGLE_UNIT ( ) SI_UNIT ( $, .RADIAN. ) );
#92 = FILL_AREA_STYLE ('',( #587 ) ) ;
#93 = ORIENTED_EDGE ( 'NONE', *, *, #218, .T. ) ;
#94 = AXIS2_PLACEMENT_3D ( 'NONE', #501, #315, #253 ) ;
#95 = CARTESIAN_POINT ( 'NONE',  ( -5.000000000000000888, 0.0000000000000000000, -3.700000000000000178 ) ) ;
#96 = COLOUR_RGB ( '',0.7921568627450980005, 0.8196078431372548767, 0.9333333333333333481 ) ;
#97 = SURFACE_STYLE_USAGE ( .BOTH. , #519 ) ;
#98 = LINE ( 'NONE', #755, #219 ) ;
#99 = UNCERTAINTY_MEASURE_WITH_UNIT (LENGTH_MEASURE( 1.000000000000000082E-05 ), #77, 'distance_accuracy_value', 'NONE');
#100 = PLANE ( 'NONE',  #352 ) ;
#101 = EDGE_LOOP ( 'NONE', ( #543, #408, #412, #419 ) ) ;
#102 = CARTESIAN_POINT ( 'NONE',  ( 4.999999999999999112, 0.0000000000000000000, -3.700000000000004619 ) ) ;
#103 = DIRECTION ( 'NONE',  ( -0.0000000000000000000, -1.000000000000000000, 0.0000000000000000000 ) ) ;
#104 = PRESENTATION_LAYER_ASSIGNMENT (  '', '', ( #349 ) ) ;
#105 = AXIS2_PLACEMENT_3D ( 'NONE', #164, #625, #549 ) ;
#106 = TOROIDAL_SURFACE ( 'NONE', #440, 0.6500000000000000222, 0.3250000000000000111 ) ;
#107 = CARTESIAN_POINT ( 'NONE',  ( 5.324999999999999289, 3.980102097228897738E-17, 1.149999999999995692 ) ) ;
#108 = EDGE_CURVE ( 'NONE', #237, #40, #168, .T. ) ;
#109 = DIRECTION ( 'NONE',  ( 6.123233995736766036E-17, 0.0000000000000000000, -1.000000000000000000 ) ) ;
#110 =( NAMED_UNIT ( * ) SI_UNIT ( $, .STERADIAN. ) SOLID_ANGLE_UNIT ( ) );
#111 =( NAMED_UNIT ( * ) SI_UNIT ( $, .STERADIAN. ) SOLID_ANGLE_UNIT ( ) );
#112 = FILL_AREA_STYLE_COLOUR ( '', #771 ) ;
#113 = PRESENTATION_STYLE_ASSIGNMENT (( #698 ) ) ;
#114 = DIRECTION ( 'NONE',  ( 0.0000000000000000000, 0.0000000000000000000, 1.000000000000000000 ) ) ;
#115 = DIRECTION ( 'NONE',  ( -1.000000000000000000, -0.0000000000000000000, -0.0000000000000000000 ) ) ;
#116 = ADVANCED_BREP_SHAPE_REPRESENTATION ( '8D6C4F59-2D9B-4275-9C82-B05C505C8FBA', ( #534, #822, #818, #279 ), #26 ) ;
#117 = CARTESIAN_POINT ( 'NONE',  ( -4.350000000000001421, 3.980102097228898971E-17, 2.124999999999999112 ) ) ;
#118 = EDGE_CURVE ( 'NONE', #216, #600, #829, .T. ) ;
#119 = COLOUR_RGB ( '',0.7529411764705882248, 0.7529411764705882248, 0.7529411764705882248 ) ;
#120 = DIRECTION ( 'NONE',  ( -1.000000000000000000, 0.0000000000000000000, 0.0000000000000000000 ) ) ;
#121 = STYLED_ITEM ( 'NONE', ( #59 ), #691 ) ;
#122 = DIRECTION ( 'NONE',  ( 1.000000000000000000, 0.0000000000000000000, 0.0000000000000000000 ) ) ;
#123 =( GEOMETRIC_REPRESENTATION_CONTEXT ( 3 ) GLOBAL_UNCERTAINTY_ASSIGNED_CONTEXT ( ( #461 ) ) GLOBAL_UNIT_ASSIGNED_CONTEXT ( ( #389, #653, #239 ) ) REPRESENTATION_CONTEXT ( 'NONE', 'WORKASPACE' ) );
#124 = CARTESIAN_POINT ( 'NONE',  ( -5.000000000000000888, 0.0000000000000000000, -3.700000000000000178 ) ) ;
#125 = CARTESIAN_POINT ( 'NONE',  ( 2.500000000000000000, 3.980102097228897122E-17, 1.474999999999999201 ) ) ;
#126 =( NAMED_UNIT ( * ) SI_UNIT ( $, .STERADIAN. ) SOLID_ANGLE_UNIT ( ) );
#127 =( NAMED_UNIT ( * ) SI_UNIT ( $, .STERADIAN. ) SOLID_ANGLE_UNIT ( ) );
#128 = DIRECTION ( 'NONE',  ( 1.000000000000000000, 0.0000000000000000000, 0.0000000000000000000 ) ) ;
#129 =( NAMED_UNIT ( * ) PLANE_ANGLE_UNIT ( ) SI_UNIT ( $, .RADIAN. ) );
#130 =( NAMED_UNIT ( * ) SI_UNIT ( $, .STERADIAN. ) SOLID_ANGLE_UNIT ( ) );
#131 = CARTESIAN_POINT ( 'NONE',  ( -4.675000000000001599, 3.980102097228898971E-17, -3.700000000000000178 ) ) ;
#132 = CIRCLE ( 'NONE', #541, 0.3249999999999997891 ) ;
#133 = FILL_AREA_STYLE ('',( #784 ) ) ;
#134 = CIRCLE ( 'NONE', #94, 0.3249999999999997891 ) ;
#135 = SURFACE_STYLE_FILL_AREA ( #312 ) ;
#136 =( LENGTH_UNIT ( ) NAMED_UNIT ( * ) SI_UNIT ( .MILLI., .METRE. ) );
#137 = SURFACE_STYLE_FILL_AREA ( #590 ) ;
#138 = SURFACE_SIDE_STYLE ('',( #533 ) ) ;
#139 = PRODUCT_DEFINITION_CONTEXT ( 'detailed design', #759, 'design' ) ;
#140 = DIRECTION ( 'NONE',  ( 0.0000000000000000000, 0.0000000000000000000, 1.000000000000000000 ) ) ;
#141 = DIRECTION ( 'NONE',  ( -1.000000000000000000, -0.0000000000000000000, -0.0000000000000000000 ) ) ;
#142 = ORIENTED_EDGE ( 'NONE', *, *, #701, .F. ) ;
#143 = AXIS2_PLACEMENT_3D ( 'NONE', #768, #182, #518 ) ;
#144 = DIRECTION ( 'NONE',  ( -1.000000000000000000, 0.0000000000000000000, 0.0000000000000000000 ) ) ;
#145 = MECHANICAL_DESIGN_GEOMETRIC_PRESENTATION_REPRESENTATION (  '', ( #387 ), #593 ) ;
#146 = ORIENTED_EDGE ( 'NONE', *, *, #816, .T. ) ;
#147 = COLOUR_RGB ( '',0.7529411764705882248, 0.7529411764705882248, 0.7529411764705882248 ) ;
#148 = AXIS2_PLACEMENT_3D ( 'NONE', #775, #300, #313 ) ;
#149 =( NAMED_UNIT ( * ) SI_UNIT ( $, .STERADIAN. ) SOLID_ANGLE_UNIT ( ) );
#150 = FACE_OUTER_BOUND ( 'NONE', #415, .T. ) ;
#151 = VERTEX_POINT ( 'NONE', #295 ) ;
#152 =( LENGTH_UNIT ( ) NAMED_UNIT ( * ) SI_UNIT ( .MILLI., .METRE. ) );
#153 = ORIENTED_EDGE ( 'NONE', *, *, #571, .F. ) ;
#154 = FILL_AREA_STYLE_COLOUR ( '', #670 ) ;
#155 = SURFACE_SIDE_STYLE ('',( #741 ) ) ;
#156 =( NAMED_UNIT ( * ) SI_UNIT ( $, .STERADIAN. ) SOLID_ANGLE_UNIT ( ) );
#157 = DIRECTION ( 'NONE',  ( -1.000000000000000000, -0.0000000000000000000, -0.0000000000000000000 ) ) ;
#158 = EDGE_LOOP ( 'NONE', ( #309, #644, #504, #267 ) ) ;
#159 = ADVANCED_FACE ( 'NONE', ( #554 ), #167, .F. ) ;
#160 = PRESENTATION_LAYER_ASSIGNMENT (  '', '', ( #633 ) ) ;
#161 = AXIS2_PLACEMENT_3D ( 'NONE', #95, #555, #484 ) ;
#162 = SURFACE_STYLE_USAGE ( .BOTH. , #42 ) ;
#163 = CARTESIAN_POINT ( 'NONE',  ( -4.350000000000001421, 0.0000000000000000000, 1.149999999999999245 ) ) ;
#164 = CARTESIAN_POINT ( 'NONE',  ( -4.350000000000001421, 0.0000000000000000000, 1.799999999999999600 ) ) ;
#165 = ADVANCED_FACE ( 'NONE', ( #570 ), #446, .T. ) ;
#166 = CARTESIAN_POINT ( 'NONE',  ( -2.499999999999996891, 0.0000000000000000000, 1.474999999999999423 ) ) ;
#167 = PLANE ( 'NONE',  #386 ) ;
#168 = CIRCLE ( 'NONE', #425, 0.3250000000000000111 ) ;
#169 = FILL_AREA_STYLE_COLOUR ( '', #831 ) ;
#170 = AXIS2_PLACEMENT_3D ( 'NONE', #747, #481, #31 ) ;
#171 = SURFACE_SIDE_STYLE ('',( #688 ) ) ;
#172 = PRESENTATION_LAYER_ASSIGNMENT (  '', '', ( #208 ) ) ;
#173 = CIRCLE ( 'NONE', #652, 0.3249999999999997891 ) ;
#174 = FILL_AREA_STYLE ('',( #827 ) ) ;
#175 = CARTESIAN_POINT ( 'NONE',  ( 5.324999999999999289, 3.980102097228900204E-17, -3.700000000000004619 ) ) ;
#176 = CARTESIAN_POINT ( 'NONE',  ( -4.675000000000001599, 3.980102097228898971E-17, 1.149999999999999911 ) ) ;
#177 = DIRECTION ( 'NONE',  ( -1.000000000000000000, -0.0000000000000000000, -0.0000000000000000000 ) ) ;
#178 = DIRECTION ( 'NONE',  ( 0.0000000000000000000, 0.0000000000000000000, -1.000000000000000000 ) ) ;
#179 = SURFACE_SIDE_STYLE ('',( #242 ) ) ;
#180 = AXIS2_PLACEMENT_3D ( 'NONE', #836, #177, #114 ) ;
#181 = FILL_AREA_STYLE ('',( #60 ) ) ;
#182 = DIRECTION ( 'NONE',  ( -1.000000000000000000, -0.0000000000000000000, -0.0000000000000000000 ) ) ;
#183 = FACE_OUTER_BOUND ( 'NONE', #447, .T. ) ;
#184 = CARTESIAN_POINT ( 'NONE',  ( -5.325000000000001066, 0.0000000000000000000, -3.700000000000000178 ) ) ;
#185 = EDGE_LOOP ( 'NONE', ( #546, #90 ) ) ;
#186 = DIRECTION ( 'NONE',  ( -2.832769448823989808E-16, 0.0000000000000000000, -1.000000000000000000 ) ) ;
#187 = EDGE_CURVE ( 'NONE', #351, #29, #817, .T. ) ;
#188 = DIRECTION ( 'NONE',  ( 0.0000000000000000000, 0.0000000000000000000, -1.000000000000000000 ) ) ;
#189 = CARTESIAN_POINT ( 'NONE',  ( -5.325000000000001066, 0.0000000000000000000, 1.149999999999999911 ) ) ;
#190 = UNCERTAINTY_MEASURE_WITH_UNIT (LENGTH_MEASURE( 1.000000000000000082E-05 ), #83, 'distance_accuracy_value', 'NONE');
#191 = COLOUR_RGB ( '',0.7529411764705882248, 0.7529411764705882248, 0.7529411764705882248 ) ;
#192 = PRESENTATION_STYLE_ASSIGNMENT (( #515 ) ) ;
#193 = CIRCLE ( 'NONE', #48, 1.800000000000000044 ) ;
#194 = CIRCLE ( 'NONE', #180, 1.799999999999999156 ) ;
#195 = MECHANICAL_DESIGN_GEOMETRIC_PRESENTATION_REPRESENTATION (  '', ( #611 ), #268 ) ;
#196 = ORIENTED_EDGE ( 'NONE', *, *, #538, .T. ) ;
#197 = PRESENTATION_STYLE_ASSIGNMENT (( #787 ) ) ;
#198 = EDGE_LOOP ( 'NONE', ( #527, #613 ) ) ;
#199 = EDGE_CURVE ( 'NONE', #151, #360, #324, .T. ) ;
#200 = PLANE ( 'NONE',  #170 ) ;
#201 = DIRECTION ( 'NONE',  ( 0.0000000000000000000, 0.0000000000000000000, -1.000000000000000000 ) ) ;
#202 = ORIENTED_EDGE ( 'NONE', *, *, #648, .T. ) ;
#203 = FACE_OUTER_BOUND ( 'NONE', #101, .T. ) ;
#204 = AXIS2_PLACEMENT_3D ( 'NONE', #163, #103, #622 ) ;
#205 = COLOUR_RGB ( '',0.1764705882352941013, 0.1764705882352941013, 0.1764705882352941013 ) ;
#206 = ORIENTED_EDGE ( 'NONE', *, *, #488, .T. ) ;
#207 = MECHANICAL_DESIGN_GEOMETRIC_PRESENTATION_REPRESENTATION (  '', ( #303 ), #793 ) ;
#208 = STYLED_ITEM ( 'NONE', ( #113 ), #752 ) ;
#209 = PRESENTATION_STYLE_ASSIGNMENT (( #489 ) ) ;
#210 = UNCERTAINTY_MEASURE_WITH_UNIT (LENGTH_MEASURE( 1.000000000000000082E-05 ), #152, 'distance_accuracy_value', 'NONE');
#211 =( NAMED_UNIT ( * ) SI_UNIT ( $, .STERADIAN. ) SOLID_ANGLE_UNIT ( ) );
#212 = CYLINDRICAL_SURFACE ( 'NONE', #236, 0.3249999999999997891 ) ;
#213 = ORIENTED_EDGE ( 'NONE', *, *, #326, .F. ) ;
#214 = PRODUCT ( '8D6C4F59-2D9B-4275-9C82-B05C505C8FBA', '8D6C4F59-2D9B-4275-9C82-B05C505C8FBA', '', ( #658 ) ) ;
#215 =( NAMED_UNIT ( * ) PLANE_ANGLE_UNIT ( ) SI_UNIT ( $, .RADIAN. ) );
#216 = VERTEX_POINT ( 'NONE', #117 ) ;
#217 =( NAMED_UNIT ( * ) PLANE_ANGLE_UNIT ( ) SI_UNIT ( $, .RADIAN. ) );
#218 = EDGE_CURVE ( 'NONE', #600, #476, #842, .T. ) ;
#219 = VECTOR ( 'NONE', #32, 1000.000000000000000 ) ;
#220 = CARTESIAN_POINT ( 'NONE',  ( 4.350000000000003197, 0.0000000000000000000, 1.799999999999999156 ) ) ;
#221 = MECHANICAL_DESIGN_GEOMETRIC_PRESENTATION_REPRESENTATION (  '', ( #683 ), #47 ) ;
#222 = COLOUR_RGB ( '',0.7529411764705882248, 0.7529411764705882248, 0.7529411764705882248 ) ;
#223 = SURFACE_SIDE_STYLE ('',( #41 ) ) ;
#224 = AXIS2_PLACEMENT_3D ( 'NONE', #839, #128, #645 ) ;
#225 = STYLED_ITEM ( 'NONE', ( #192 ), #818 ) ;
#226 = FACE_OUTER_BOUND ( 'NONE', #707, .T. ) ;
#227 = ORIENTED_EDGE ( 'NONE', *, *, #431, .F. ) ;
#228 = ADVANCED_FACE ( 'NONE', ( #715 ), #819, .T. ) ;
#229 = CARTESIAN_POINT ( 'NONE',  ( 4.999999999999999112, 0.0000000000000000000, 1.149999999999995692 ) ) ;
#230 =( LENGTH_UNIT ( ) NAMED_UNIT ( * ) SI_UNIT ( .MILLI., .METRE. ) );
#231 = CARTESIAN_POINT ( 'NONE',  ( 5.324999999999999289, 3.980102097228900204E-17, 1.149999999999995692 ) ) ;
#232 = SURFACE_SIDE_STYLE ('',( #687 ) ) ;
#233 = CYLINDRICAL_SURFACE ( 'NONE', #148, 0.3250000000000000111 ) ;
#234 = PRESENTATION_LAYER_ASSIGNMENT (  '', '', ( #361 ) ) ;
#235 = FILL_AREA_STYLE ('',( #503 ) ) ;
#236 = AXIS2_PLACEMENT_3D ( 'NONE', #276, #28, #459 ) ;
#237 = VERTEX_POINT ( 'NONE', #711 ) ;
#238 = DIRECTION ( 'NONE',  ( 0.0000000000000000000, 0.0000000000000000000, -1.000000000000000000 ) ) ;
#239 =( NAMED_UNIT ( * ) SI_UNIT ( $, .STERADIAN. ) SOLID_ANGLE_UNIT ( ) );
#240 =( NAMED_UNIT ( * ) PLANE_ANGLE_UNIT ( ) SI_UNIT ( $, .RADIAN. ) );
#241 = ORIENTED_EDGE ( 'NONE', *, *, #304, .T. ) ;
#242 = SURFACE_STYLE_FILL_AREA ( #703 ) ;
#243 = PRESENTATION_STYLE_ASSIGNMENT (( #636 ) ) ;
#244 = ORIENTED_EDGE ( 'NONE', *, *, #571, .T. ) ;
#245 =( LENGTH_UNIT ( ) NAMED_UNIT ( * ) SI_UNIT ( .MILLI., .METRE. ) );
#246 = PRESENTATION_LAYER_ASSIGNMENT (  '', '', ( #334 ) ) ;
#247 = COLOUR_RGB ( '',0.1764705882352941013, 0.1764705882352941013, 0.1764705882352941013 ) ;
#248 = CARTESIAN_POINT ( 'NONE',  ( -2.499999999999996891, 0.0000000000000000000, 3.599999999999998312 ) ) ;
#249 = FILL_AREA_STYLE_COLOUR ( '', #598 ) ;
#250 = STYLED_ITEM ( 'NONE', ( #209 ), #663 ) ;
#251 = ADVANCED_FACE ( 'NONE', ( #341 ), #27, .T. ) ;
#252 =( NAMED_UNIT ( * ) SI_UNIT ( $, .STERADIAN. ) SOLID_ANGLE_UNIT ( ) );
#253 = DIRECTION ( 'NONE',  ( -1.000000000000000000, 0.0000000000000000000, 0.0000000000000000000 ) ) ;
#254 = DIRECTION ( 'NONE',  ( 1.000000000000000000, 0.0000000000000000000, 0.0000000000000000000 ) ) ;
#255 = ORIENTED_EDGE ( 'NONE', *, *, #843, .T. ) ;
#256 = SURFACE_SIDE_STYLE ('',( #792 ) ) ;
#257 = DIRECTION ( 'NONE',  ( 0.0000000000000000000, 1.000000000000000000, 0.0000000000000000000 ) ) ;
#258 = CARTESIAN_POINT ( 'NONE',  ( 4.350000000000003197, 0.0000000000000000000, 1.799999999999999156 ) ) ;
#259 = UNCERTAINTY_MEASURE_WITH_UNIT (LENGTH_MEASURE( 1.000000000000000082E-05 ), #245, 'distance_accuracy_value', 'NONE');
#260 = PRESENTATION_LAYER_ASSIGNMENT (  '', '', ( #319 ) ) ;
#261 = DIRECTION ( 'NONE',  ( -1.000000000000000000, -0.0000000000000000000, -0.0000000000000000000 ) ) ;
#262 = AXIS2_PLACEMENT_3D ( 'NONE', #258, #261, #86 ) ;
#263 = AXIS2_PLACEMENT_3D ( 'NONE', #657, #75, #460 ) ;
#264 = ADVANCED_FACE ( 'NONE', ( #400 ), #456, .T. ) ;
#265 = SURFACE_STYLE_FILL_AREA ( #12 ) ;
#266 = AXIS2_PLACEMENT_3D ( 'NONE', #379, #627, #372 ) ;
#267 = ORIENTED_EDGE ( 'NONE', *, *, #738, .F. ) ;
#268 =( GEOMETRIC_REPRESENTATION_CONTEXT ( 3 ) GLOBAL_UNCERTAINTY_ASSIGNED_CONTEXT ( ( #210 ) ) GLOBAL_UNIT_ASSIGNED_CONTEXT ( ( #152, #385, #786 ) ) REPRESENTATION_CONTEXT ( 'NONE', 'WORKASPACE' ) );
#269 =( NAMED_UNIT ( * ) PLANE_ANGLE_UNIT ( ) SI_UNIT ( $, .RADIAN. ) );
#270 = SURFACE_STYLE_FILL_AREA ( #133 ) ;
#271 = EDGE_LOOP ( 'NONE', ( #378, #790, #16, #458 ) ) ;
#272 =( NAMED_UNIT ( * ) SI_UNIT ( $, .STERADIAN. ) SOLID_ANGLE_UNIT ( ) );
#273 = VERTEX_POINT ( 'NONE', #331 ) ;
#274 =( LENGTH_UNIT ( ) NAMED_UNIT ( * ) SI_UNIT ( .MILLI., .METRE. ) );
#275 = CLOSED_SHELL ( 'NONE', ( #559, #373, #663, #809, #599, #165, #439, #159 ) ) ;
#276 = CARTESIAN_POINT ( 'NONE',  ( -5.000000000000000888, 0.0000000000000000000, 1.149999999999999911 ) ) ;
#277 = PRESENTATION_LAYER_ASSIGNMENT (  '', '', ( #436 ) ) ;
#278 = EDGE_LOOP ( 'NONE', ( #424, #468 ) ) ;
#279 = AXIS2_PLACEMENT_3D ( 'NONE', #399, #466, #589 ) ;
#280 = UNCERTAINTY_MEASURE_WITH_UNIT (LENGTH_MEASURE( 1.000000000000000082E-05 ), #314, 'distance_accuracy_value', 'NONE');
#281 = ADVANCED_FACE ( 'NONE', ( #150 ), #526, .F. ) ;
#282 = SURFACE_STYLE_USAGE ( .BOTH. , #171 ) ;
#283 = DIRECTION ( 'NONE',  ( 0.0000000000000000000, 0.0000000000000000000, 1.000000000000000000 ) ) ;
#284 = LINE ( 'NONE', #545, #377 ) ;
#285 = EDGE_LOOP ( 'NONE', ( #340, #432, #781, #206 ) ) ;
#286 = FILL_AREA_STYLE ('',( #154 ) ) ;
#287 = PRESENTATION_STYLE_ASSIGNMENT (( #282 ) ) ;
#288 = DIRECTION ( 'NONE',  ( -1.000000000000000000, 0.0000000000000000000, 0.0000000000000000000 ) ) ;
#289 = DIRECTION ( 'NONE',  ( -1.000000000000000000, 0.0000000000000000000, -6.123233995736766036E-17 ) ) ;
#290 = CLOSED_SHELL ( 'NONE', ( #752, #471, #281, #251 ) ) ;
#291 = DIRECTION ( 'NONE',  ( 0.0000000000000000000, 0.0000000000000000000, 1.000000000000000000 ) ) ;
#292 =( LENGTH_UNIT ( ) NAMED_UNIT ( * ) SI_UNIT ( .MILLI., .METRE. ) );
#293 = PRESENTATION_LAYER_ASSIGNMENT (  '', '', ( #250 ) ) ;
#294 = FILL_AREA_STYLE ('',( #494 ) ) ;
#295 = CARTESIAN_POINT ( 'NONE',  ( 2.499999999999996891, 0.0000000000000000000, 3.599999999999999201 ) ) ;
#296 =( NAMED_UNIT ( * ) SI_UNIT ( $, .STERADIAN. ) SOLID_ANGLE_UNIT ( ) );
#297 = SURFACE_STYLE_USAGE ( .BOTH. , #43 ) ;
#298 = SURFACE_SIDE_STYLE ('',( #445 ) ) ;
#299 = CARTESIAN_POINT ( 'NONE',  ( -2.499999999999996891, 0.0000000000000000000, 1.799999999999999600 ) ) ;
#300 = DIRECTION ( 'NONE',  ( 1.000000000000000000, -0.0000000000000000000, -0.0000000000000000000 ) ) ;
#301 = COLOUR_RGB ( '',0.7529411764705882248, 0.7529411764705882248, 0.7529411764705882248 ) ;
#302 = CARTESIAN_POINT ( 'NONE',  ( -2.499999999999996891, 0.0000000000000000000, 1.799999999999999600 ) ) ;
#303 = STYLED_ITEM ( 'NONE', ( #287 ), #439 ) ;
#304 = EDGE_CURVE ( 'NONE', #727, #346, #134, .T. ) ;
#305 = CIRCLE ( 'NONE', #38, 0.3249999999999997891 ) ;
#306 = FILL_AREA_STYLE_COLOUR ( '', #96 ) ;
#307 = AXIS2_PLACEMENT_3D ( 'NONE', #680, #811, #610 ) ;
#308 = DIRECTION ( 'NONE',  ( 0.0000000000000000000, 0.0000000000000000000, -1.000000000000000000 ) ) ;
#309 = ORIENTED_EDGE ( 'NONE', *, *, #108, .T. ) ;
#310 = DIRECTION ( 'NONE',  ( 0.0000000000000000000, 0.0000000000000000000, 1.000000000000000000 ) ) ;
#311 = CARTESIAN_POINT ( 'NONE',  ( 4.674999999999999822, 0.0000000000000000000, 1.149999999999995692 ) ) ;
#312 = FILL_AREA_STYLE ('',( #780 ) ) ;
#313 = DIRECTION ( 'NONE',  ( 0.0000000000000000000, 0.0000000000000000000, -1.000000000000000000 ) ) ;
#314 =( LENGTH_UNIT ( ) NAMED_UNIT ( * ) SI_UNIT ( .MILLI., .METRE. ) );
#315 = DIRECTION ( 'NONE',  ( 6.123233995736766036E-17, 0.0000000000000000000, -1.000000000000000000 ) ) ;
#316 = EDGE_CURVE ( 'NONE', #40, #29, #770, .T. ) ;
#317 = ORIENTED_EDGE ( 'NONE', *, *, #380, .F. ) ;
#318 = DIRECTION ( 'NONE',  ( -1.000000000000000000, 0.0000000000000000000, 0.0000000000000000000 ) ) ;
#319 = STYLED_ITEM ( 'NONE', ( #761 ), #159 ) ;
#320 = SURFACE_STYLE_USAGE ( .BOTH. , #573 ) ;
#321 = VECTOR ( 'NONE', #725, 1000.000000000000000 ) ;
#322 =( GEOMETRIC_REPRESENTATION_CONTEXT ( 3 ) GLOBAL_UNCERTAINTY_ASSIGNED_CONTEXT ( ( #280 ) ) GLOBAL_UNIT_ASSIGNED_CONTEXT ( ( #314, #641, #111 ) ) REPRESENTATION_CONTEXT ( 'NONE', 'WORKASPACE' ) );
#323 = CIRCLE ( 'NONE', #161, 0.3249999999999997891 ) ;
#324 = LINE ( 'NONE', #55, #4 ) ;
#325 = VECTOR ( 'NONE', #825, 1000.000000000000000 ) ;
#326 = EDGE_CURVE ( 'NONE', #273, #151, #193, .T. ) ;
#327 = DIRECTION ( 'NONE',  ( 6.123233995736766036E-17, 0.0000000000000000000, -1.000000000000000000 ) ) ;
#328 = SURFACE_STYLE_USAGE ( .BOTH. , #450 ) ;
#329 = SURFACE_STYLE_USAGE ( .BOTH. , #256 ) ;
#330 = APPLICATION_PROTOCOL_DEFINITION ( 'draft international standard', 'automotive_design', 1998, #759 ) ;
#331 = CARTESIAN_POINT ( 'NONE',  ( 2.499999999999996891, 2.204364238465235576E-16, -8.673617379884035472E-16 ) ) ;
#332 = ORIENTED_EDGE ( 'NONE', *, *, #655, .F. ) ;
#333 = DIRECTION ( 'NONE',  ( -0.0000000000000000000, -1.000000000000000000, 0.0000000000000000000 ) ) ;
#334 = STYLED_ITEM ( 'NONE', ( #391 ), #228 ) ;
#335 = PRESENTATION_STYLE_ASSIGNMENT (( #664 ) ) ;
#336 = AXIS2_PLACEMENT_3D ( 'NONE', #536, #201, #144 ) ;
#337 = PRESENTATION_LAYER_ASSIGNMENT (  '', '', ( #303 ) ) ;
#338 = FILL_AREA_STYLE ('',( #734 ) ) ;
#339 = PRESENTATION_LAYER_ASSIGNMENT (  '', '', ( #708 ) ) ;
#340 = ORIENTED_EDGE ( 'NONE', *, *, #614, .F. ) ;
#341 = FACE_OUTER_BOUND ( 'NONE', #812, .T. ) ;
#342 = ORIENTED_EDGE ( 'NONE', *, *, #44, .F. ) ;
#343 = FILL_AREA_STYLE ('',( #85 ) ) ;
#344 = UNCERTAINTY_MEASURE_WITH_UNIT (LENGTH_MEASURE( 1.000000000000000082E-05 ), #368, 'distance_accuracy_value', 'NONE');
#345 =( NAMED_UNIT ( * ) PLANE_ANGLE_UNIT ( ) SI_UNIT ( $, .RADIAN. ) );
#346 = VERTEX_POINT ( 'NONE', #175 ) ;
#347 = EDGE_CURVE ( 'NONE', #346, #727, #609, .T. ) ;
#348 = CARTESIAN_POINT ( 'NONE',  ( -4.350000000000001421, 3.980102097228897122E-17, 2.124999999999999112 ) ) ;
#349 = STYLED_ITEM ( 'NONE', ( #487 ), #3 ) ;
#350 = PRESENTATION_LAYER_ASSIGNMENT (  '', '', ( #550 ) ) ;
#351 = VERTEX_POINT ( 'NONE', #125 ) ;
#352 = AXIS2_PLACEMENT_3D ( 'NONE', #102, #363, #289 ) ;
#353 = PRESENTATION_LAYER_ASSIGNMENT (  '', '', ( #611 ) ) ;
#354 = STYLED_ITEM ( 'NONE', ( #737 ), #116 ) ;
#355 = UNCERTAINTY_MEASURE_WITH_UNIT (LENGTH_MEASURE( 1.000000000000000082E-05 ), #763, 'distance_accuracy_value', 'NONE');
#356 =( LENGTH_UNIT ( ) NAMED_UNIT ( * ) SI_UNIT ( .MILLI., .METRE. ) );
#357 =( NAMED_UNIT ( * ) PLANE_ANGLE_UNIT ( ) SI_UNIT ( $, .RADIAN. ) );
#358 =( NAMED_UNIT ( * ) SI_UNIT ( $, .STERADIAN. ) SOLID_ANGLE_UNIT ( ) );
#359 = FACE_OUTER_BOUND ( 'NONE', #654, .T. ) ;
#360 = VERTEX_POINT ( 'NONE', #248 ) ;
#361 = STYLED_ITEM ( 'NONE', ( #335 ), #410 ) ;
#362 =( GEOMETRIC_REPRESENTATION_CONTEXT ( 3 ) GLOBAL_UNCERTAINTY_ASSIGNED_CONTEXT ( ( #540 ) ) GLOBAL_UNIT_ASSIGNED_CONTEXT ( ( #491, #628, #252 ) ) REPRESENTATION_CONTEXT ( 'NONE', 'WORKASPACE' ) );
#363 = DIRECTION ( 'NONE',  ( 6.123233995736766036E-17, 0.0000000000000000000, -1.000000000000000000 ) ) ;
#364 = FILL_AREA_STYLE ('',( #426 ) ) ;
#365 = DIRECTION ( 'NONE',  ( -1.000000000000000000, 0.0000000000000000000, 0.0000000000000000000 ) ) ;
#366 =( LENGTH_UNIT ( ) NAMED_UNIT ( * ) SI_UNIT ( .MILLI., .METRE. ) );
#367 = ORIENTED_EDGE ( 'NONE', *, *, #532, .F. ) ;
#368 =( LENGTH_UNIT ( ) NAMED_UNIT ( * ) SI_UNIT ( .MILLI., .METRE. ) );
#369 =( NAMED_UNIT ( * ) PLANE_ANGLE_UNIT ( ) SI_UNIT ( $, .RADIAN. ) );
#370 = CARTESIAN_POINT ( 'NONE',  ( 2.500000000000000000, 0.0000000000000000000, 1.799999999999999156 ) ) ;
#371 = MECHANICAL_DESIGN_GEOMETRIC_PRESENTATION_REPRESENTATION (  '', ( #349 ), #495 ) ;
#372 = DIRECTION ( 'NONE',  ( -1.000000000000000000, 0.0000000000000000000, 0.0000000000000000000 ) ) ;
#373 = ADVANCED_FACE ( 'NONE', ( #514 ), #779, .T. ) ;
#374 = PRESENTATION_LAYER_ASSIGNMENT (  '', '', ( #748 ) ) ;
#375 =( GEOMETRIC_REPRESENTATION_CONTEXT ( 3 ) GLOBAL_UNCERTAINTY_ASSIGNED_CONTEXT ( ( #259 ) ) GLOBAL_UNIT_ASSIGNED_CONTEXT ( ( #245, #511, #110 ) ) REPRESENTATION_CONTEXT ( 'NONE', 'WORKASPACE' ) );
#376 =( GEOMETRIC_REPRESENTATION_CONTEXT ( 3 ) GLOBAL_UNCERTAINTY_ASSIGNED_CONTEXT ( ( #745 ) ) GLOBAL_UNIT_ASSIGNED_CONTEXT ( ( #449, #68, #126 ) ) REPRESENTATION_CONTEXT ( 'NONE', 'WORKASPACE' ) );
#377 = VECTOR ( 'NONE', #814, 1000.000000000000000 ) ;
#378 = ORIENTED_EDGE ( 'NONE', *, *, #797, .T. ) ;
#379 = CARTESIAN_POINT ( 'NONE',  ( 4.999999999999999112, 0.0000000000000000000, 1.149999999999995692 ) ) ;
#380 = EDGE_CURVE ( 'NONE', #483, #727, #796, .T. ) ;
#381 = SURFACE_STYLE_FILL_AREA ( #455 ) ;
#382 =( LENGTH_UNIT ( ) NAMED_UNIT ( * ) SI_UNIT ( .MILLI., .METRE. ) );
#383 = DIRECTION ( 'NONE',  ( 1.000000000000000000, 0.0000000000000000000, 0.0000000000000000000 ) ) ;
#384 = SURFACE_STYLE_USAGE ( .BOTH. , #834 ) ;
#385 =( NAMED_UNIT ( * ) PLANE_ANGLE_UNIT ( ) SI_UNIT ( $, .RADIAN. ) );
#386 = AXIS2_PLACEMENT_3D ( 'NONE', #370, #254, #308 ) ;
#387 = STYLED_ITEM ( 'NONE', ( #87 ), #281 ) ;
#388 = AXIS2_PLACEMENT_3D ( 'NONE', #840, #594, #18 ) ;
#389 =( LENGTH_UNIT ( ) NAMED_UNIT ( * ) SI_UNIT ( .MILLI., .METRE. ) );
#390 = AXIS2_PLACEMENT_3D ( 'NONE', #583, #157, #392 ) ;
#391 = PRESENTATION_STYLE_ASSIGNMENT (( #328 ) ) ;
#392 = DIRECTION ( 'NONE',  ( 0.0000000000000000000, 0.0000000000000000000, 1.000000000000000000 ) ) ;
#393 = CYLINDRICAL_SURFACE ( 'NONE', #37, 0.3250000000000000111 ) ;
#394 = UNCERTAINTY_MEASURE_WITH_UNIT (LENGTH_MEASURE( 1.000000000000000082E-05 ), #837, 'distance_accuracy_value', 'NONE');
#395 = DIRECTION ( 'NONE',  ( 0.0000000000000000000, 0.0000000000000000000, -1.000000000000000000 ) ) ;
#396 = EDGE_CURVE ( 'NONE', #40, #729, #510, .T. ) ;
#397 = PRESENTATION_STYLE_ASSIGNMENT (( #603 ) ) ;
#398 = SURFACE_STYLE_FILL_AREA ( #732 ) ;
#399 = CARTESIAN_POINT ( 'NONE',  ( 0.0000000000000000000, 0.0000000000000000000, 0.0000000000000000000 ) ) ;
#400 = FACE_OUTER_BOUND ( 'NONE', #602, .T. ) ;
#401 = VERTEX_POINT ( 'NONE', #671 ) ;
#402 = FILL_AREA_STYLE_COLOUR ( '', #222 ) ;
#403 = AXIS2_PLACEMENT_3D ( 'NONE', #629, #846, #767 ) ;
#404 =( LENGTH_UNIT ( ) NAMED_UNIT ( * ) SI_UNIT ( .MILLI., .METRE. ) );
#405 = CARTESIAN_POINT ( 'NONE',  ( -4.350000000000001421, 0.0000000000000000000, 1.149999999999999245 ) ) ;
#406 =( GEOMETRIC_REPRESENTATION_CONTEXT ( 3 ) GLOBAL_UNCERTAINTY_ASSIGNED_CONTEXT ( ( #588 ) ) GLOBAL_UNIT_ASSIGNED_CONTEXT ( ( #292, #423, #358 ) ) REPRESENTATION_CONTEXT ( 'NONE', 'WORKASPACE' ) );
#407 = PRESENTATION_LAYER_ASSIGNMENT (  '', '', ( #832 ) ) ;
#408 = ORIENTED_EDGE ( 'NONE', *, *, #714, .T. ) ;
#409 = APPLICATION_CONTEXT ( 'automotive_design' ) ;
#410 = ADVANCED_FACE ( 'NONE', ( #800 ), #200, .T. ) ;
#411 = SURFACE_SIDE_STYLE ('',( #137 ) ) ;
#412 = ORIENTED_EDGE ( 'NONE', *, *, #738, .T. ) ;
#413 = UNCERTAINTY_MEASURE_WITH_UNIT (LENGTH_MEASURE( 1.000000000000000082E-05 ), #404, 'distance_accuracy_value', 'NONE');
#414 = SHAPE_DEFINITION_REPRESENTATION ( #616, #116 ) ;
#415 = EDGE_LOOP ( 'NONE', ( #244, #838 ) ) ;
#416 = FILL_AREA_STYLE ('',( #617 ) ) ;
#417 = CLOSED_SHELL ( 'NONE', ( #777, #691, #756, #264, #228, #584, #410, #3 ) ) ;
#418 = FACE_OUTER_BOUND ( 'NONE', #33, .T. ) ;
#419 = ORIENTED_EDGE ( 'NONE', *, *, #89, .F. ) ;
#420 = MECHANICAL_DESIGN_GEOMETRIC_PRESENTATION_REPRESENTATION (  '', ( #808 ), #362 ) ;
#421 = AXIS2_PLACEMENT_3D ( 'NONE', #522, #327, #850 ) ;
#422 = DIRECTION ( 'NONE',  ( 0.0000000000000000000, 0.0000000000000000000, -1.000000000000000000 ) ) ;
#423 =( NAMED_UNIT ( * ) PLANE_ANGLE_UNIT ( ) SI_UNIT ( $, .RADIAN. ) );
#424 = ORIENTED_EDGE ( 'NONE', *, *, #488, .F. ) ;
#425 = AXIS2_PLACEMENT_3D ( 'NONE', #220, #496, #422 ) ;
#426 = FILL_AREA_STYLE_COLOUR ( '', #191 ) ;
#427 =( GEOMETRIC_REPRESENTATION_CONTEXT ( 3 ) GLOBAL_UNCERTAINTY_ASSIGNED_CONTEXT ( ( #637 ) ) GLOBAL_UNIT_ASSIGNED_CONTEXT ( ( #274, #804, #211 ) ) REPRESENTATION_CONTEXT ( 'NONE', 'WORKASPACE' ) );
#428 = MECHANICAL_DESIGN_GEOMETRIC_PRESENTATION_REPRESENTATION (  '', ( #748 ), #24 ) ;
#429 = PRESENTATION_LAYER_ASSIGNMENT (  '', '', ( #121 ) ) ;
#430 = PRESENTATION_LAYER_ASSIGNMENT (  '', '', ( #225 ) ) ;
#431 = EDGE_CURVE ( 'NONE', #216, #516, #36, .T. ) ;
#432 = ORIENTED_EDGE ( 'NONE', *, *, #714, .F. ) ;
#433 = SURFACE_SIDE_STYLE ('',( #702 ) ) ;
#434 =( NAMED_UNIT ( * ) PLANE_ANGLE_UNIT ( ) SI_UNIT ( $, .RADIAN. ) );
#435 = ORIENTED_EDGE ( 'NONE', *, *, #843, .F. ) ;
#436 = STYLED_ITEM ( 'NONE', ( #665 ), #264 ) ;
#437 = CYLINDRICAL_SURFACE ( 'NONE', #390, 1.799999999999999600 ) ;
#438 = AXIS2_PLACEMENT_3D ( 'NONE', #506, #57, #53 ) ;
#439 = ADVANCED_FACE ( 'NONE', ( #226 ), #100, .T. ) ;
#440 = AXIS2_PLACEMENT_3D ( 'NONE', #724, #257, #520 ) ;
#441 = CIRCLE ( 'NONE', #421, 0.3249999999999997891 ) ;
#442 = SURFACE_SIDE_STYLE ('',( #381 ) ) ;
#443 = CARTESIAN_POINT ( 'NONE',  ( -5.325000000000001066, 0.0000000000000000000, 1.149999999999999911 ) ) ;
#444 = EDGE_LOOP ( 'NONE', ( #227, #674, #806, #196 ) ) ;
#445 = SURFACE_STYLE_FILL_AREA ( #762 ) ;
#446 = CYLINDRICAL_SURFACE ( 'NONE', #143, 0.3250000000000001776 ) ;
#447 = EDGE_LOOP ( 'NONE', ( #1, #586, #202, #342 ) ) ;
#448 =( LENGTH_UNIT ( ) NAMED_UNIT ( * ) SI_UNIT ( .MILLI., .METRE. ) );
#449 =( LENGTH_UNIT ( ) NAMED_UNIT ( * ) SI_UNIT ( .MILLI., .METRE. ) );
#450 = SURFACE_SIDE_STYLE ('',( #713 ) ) ;
#451 = SURFACE_STYLE_FILL_AREA ( #685 ) ;
#452 = COLOUR_RGB ( '',0.7529411764705882248, 0.7529411764705882248, 0.7529411764705882248 ) ;
#453 = SURFACE_SIDE_STYLE ('',( #71 ) ) ;
#454 = PRESENTATION_LAYER_ASSIGNMENT (  '', '', ( #387 ) ) ;
#455 = FILL_AREA_STYLE ('',( #249 ) ) ;
#456 = CYLINDRICAL_SURFACE ( 'NONE', #336, 0.3249999999999997891 ) ;
#457 = EDGE_CURVE ( 'NONE', #216, #660, #830, .T. ) ;
#458 = ORIENTED_EDGE ( 'NONE', *, *, #218, .F. ) ;
#459 = DIRECTION ( 'NONE',  ( -1.000000000000000000, 0.0000000000000000000, 0.0000000000000000000 ) ) ;
#460 = DIRECTION ( 'NONE',  ( 0.0000000000000000000, 0.0000000000000000000, 1.000000000000000000 ) ) ;
#461 = UNCERTAINTY_MEASURE_WITH_UNIT (LENGTH_MEASURE( 1.000000000000000082E-05 ), #389, 'distance_accuracy_value', 'NONE');
#462 = CARTESIAN_POINT ( 'NONE',  ( 4.674999999999999822, 0.0000000000000000000, 1.149999999999995692 ) ) ;
#463 = SURFACE_SIDE_STYLE ('',( #478 ) ) ;
#464 = ORIENTED_EDGE ( 'NONE', *, *, #347, .F. ) ;
#465 = CARTESIAN_POINT ( 'NONE',  ( -2.499999999999996891, 0.0000000000000000000, 1.799999999999999600 ) ) ;
#466 = DIRECTION ( 'NONE',  ( 0.0000000000000000000, 0.0000000000000000000, 1.000000000000000000 ) ) ;
#467 = FILL_AREA_STYLE_COLOUR ( '', #35 ) ;
#468 = ORIENTED_EDGE ( 'NONE', *, *, #187, .F. ) ;
#469 = FILL_AREA_STYLE ('',( #402 ) ) ;
#470 = UNCERTAINTY_MEASURE_WITH_UNIT (LENGTH_MEASURE( 1.000000000000000082E-05 ), #136, 'distance_accuracy_value', 'NONE');
#471 = ADVANCED_FACE ( 'NONE', ( #359 ), #556, .F. ) ;
#472 =( GEOMETRIC_REPRESENTATION_CONTEXT ( 3 ) GLOBAL_UNCERTAINTY_ASSIGNED_CONTEXT ( ( #606 ) ) GLOBAL_UNIT_ASSIGNED_CONTEXT ( ( #382, #581, #130 ) ) REPRESENTATION_CONTEXT ( 'NONE', 'WORKASPACE' ) );
#473 = MECHANICAL_DESIGN_GEOMETRIC_PRESENTATION_REPRESENTATION (  '', ( #361 ), #427 ) ;
#474 = STYLED_ITEM ( 'NONE', ( #397 ), #599 ) ;
#475 = COLOUR_RGB ( '',0.1764705882352941013, 0.1764705882352941013, 0.1764705882352941013 ) ;
#476 = VERTEX_POINT ( 'NONE', #184 ) ;
#477 = SURFACE_SIDE_STYLE ('',( #398 ) ) ;
#478 = SURFACE_STYLE_FILL_AREA ( #338 ) ;
#479 =( NAMED_UNIT ( * ) SI_UNIT ( $, .STERADIAN. ) SOLID_ANGLE_UNIT ( ) );
#480 = ORIENTED_EDGE ( 'NONE', *, *, #380, .T. ) ;
#481 = DIRECTION ( 'NONE',  ( -2.832769448823989808E-16, 0.0000000000000000000, -1.000000000000000000 ) ) ;
#482 = CARTESIAN_POINT ( 'NONE',  ( -5.000000000000000888, 0.0000000000000000000, 1.149999999999999911 ) ) ;
#483 = VERTEX_POINT ( 'NONE', #311 ) ;
#484 = DIRECTION ( 'NONE',  ( -1.000000000000000000, 0.0000000000000000000, 0.0000000000000000000 ) ) ;
#485 = PRESENTATION_LAYER_ASSIGNMENT (  '', '', ( #683 ) ) ;
#486 = MECHANICAL_DESIGN_GEOMETRIC_PRESENTATION_REPRESENTATION (  '', ( #773 ), #322 ) ;
#487 = PRESENTATION_STYLE_ASSIGNMENT (( #766 ) ) ;
#488 = EDGE_CURVE ( 'NONE', #29, #351, #564, .T. ) ;
#489 = SURFACE_STYLE_USAGE ( .BOTH. , #223 ) ;
#490 = CARTESIAN_POINT ( 'NONE',  ( 4.350000000000003197, 0.0000000000000000000, 2.124999999999999112 ) ) ;
#491 =( LENGTH_UNIT ( ) NAMED_UNIT ( * ) SI_UNIT ( .MILLI., .METRE. ) );
#492 = DIRECTION ( 'NONE',  ( 0.0000000000000000000, 0.0000000000000000000, -1.000000000000000000 ) ) ;
#493 = CARTESIAN_POINT ( 'NONE',  ( 4.349999999999999645, -3.980102097228897738E-17, 1.149999999999999023 ) ) ;
#494 = FILL_AREA_STYLE_COLOUR ( '', #731 ) ;
#495 =( GEOMETRIC_REPRESENTATION_CONTEXT ( 3 ) GLOBAL_UNCERTAINTY_ASSIGNED_CONTEXT ( ( #849 ) ) GLOBAL_UNIT_ASSIGNED_CONTEXT ( ( #230, #357, #615 ) ) REPRESENTATION_CONTEXT ( 'NONE', 'WORKASPACE' ) );
#496 = DIRECTION ( 'NONE',  ( 1.000000000000000000, 0.0000000000000000000, 0.0000000000000000000 ) ) ;
#497 =( GEOMETRIC_REPRESENTATION_CONTEXT ( 3 ) GLOBAL_UNCERTAINTY_ASSIGNED_CONTEXT ( ( #190 ) ) GLOBAL_UNIT_ASSIGNED_CONTEXT ( ( #83, #530, #272 ) ) REPRESENTATION_CONTEXT ( 'NONE', 'WORKASPACE' ) );
#498 = CIRCLE ( 'NONE', #388, 1.799999999999999156 ) ;
#499 = DIRECTION ( 'NONE',  ( 0.0000000000000000000, 1.000000000000000000, 0.0000000000000000000 ) ) ;
#500 = SURFACE_STYLE_USAGE ( .BOTH. , #179 ) ;
#501 = CARTESIAN_POINT ( 'NONE',  ( 4.999999999999999112, 0.0000000000000000000, -3.700000000000004619 ) ) ;
#502 = DIRECTION ( 'NONE',  ( -1.000000000000000000, 0.0000000000000000000, 0.0000000000000000000 ) ) ;
#503 = FILL_AREA_STYLE_COLOUR ( '', #512 ) ;
#504 = ORIENTED_EDGE ( 'NONE', *, *, #833, .F. ) ;
#505 =( NAMED_UNIT ( * ) PLANE_ANGLE_UNIT ( ) SI_UNIT ( $, .RADIAN. ) );
#506 = CARTESIAN_POINT ( 'NONE',  ( 2.500000000000000000, 0.0000000000000000000, 1.799999999999999156 ) ) ;
#507 = CARTESIAN_POINT ( 'NONE',  ( 2.499999999999996891, 0.0000000000000000000, 1.799999999999999156 ) ) ;
#508 = ORIENTED_EDGE ( 'NONE', *, *, #118, .T. ) ;
#509 = PRODUCT_DEFINITION ( 'UNKNOWN', '', #612, #139 ) ;
#510 = CIRCLE ( 'NONE', #772, 0.9750000000000001998 ) ;
#511 =( NAMED_UNIT ( * ) PLANE_ANGLE_UNIT ( ) SI_UNIT ( $, .RADIAN. ) );
#512 = COLOUR_RGB ( '',0.7921568627450980005, 0.8196078431372548767, 0.9333333333333333481 ) ;
#513 =( GEOMETRIC_REPRESENTATION_CONTEXT ( 3 ) GLOBAL_UNCERTAINTY_ASSIGNED_CONTEXT ( ( #72 ) ) GLOBAL_UNIT_ASSIGNED_CONTEXT ( ( #802, #269, #650 ) ) REPRESENTATION_CONTEXT ( 'NONE', 'WORKASPACE' ) );
#514 = FACE_OUTER_BOUND ( 'NONE', #666, .T. ) ;
#515 = SURFACE_STYLE_USAGE ( .BOTH. , #706 ) ;
#516 = VERTEX_POINT ( 'NONE', #646 ) ;
#517 = DIRECTION ( 'NONE',  ( 0.0000000000000000000, 0.0000000000000000000, -1.000000000000000000 ) ) ;
#518 = DIRECTION ( 'NONE',  ( 0.0000000000000000000, 0.0000000000000000000, 1.000000000000000000 ) ) ;
#519 = SURFACE_SIDE_STYLE ('',( #451 ) ) ;
#520 = DIRECTION ( 'NONE',  ( 0.0000000000000000000, 0.0000000000000000000, 1.000000000000000000 ) ) ;
#521 = SURFACE_STYLE_USAGE ( .BOTH. , #676 ) ;
#522 = CARTESIAN_POINT ( 'NONE',  ( 4.999999999999999112, 0.0000000000000000000, 1.149999999999995692 ) ) ;
#523 = AXIS2_PLACEMENT_3D ( 'NONE', #302, #568, #45 ) ;
#524 =( NAMED_UNIT ( * ) SI_UNIT ( $, .STERADIAN. ) SOLID_ANGLE_UNIT ( ) );
#525 = COLOUR_RGB ( '',0.7529411764705882248, 0.7529411764705882248, 0.7529411764705882248 ) ;
#526 = PLANE ( 'NONE',  #403 ) ;
#527 = ORIENTED_EDGE ( 'NONE', *, *, #723, .T. ) ;
#528 = DIRECTION ( 'NONE',  ( 0.0000000000000000000, 0.0000000000000000000, -1.000000000000000000 ) ) ;
#529 = CARTESIAN_POINT ( 'NONE',  ( 4.349999999999999645, 0.0000000000000000000, 1.149999999999999023 ) ) ;
#530 =( NAMED_UNIT ( * ) PLANE_ANGLE_UNIT ( ) SI_UNIT ( $, .RADIAN. ) );
#531 = ORIENTED_EDGE ( 'NONE', *, *, #199, .T. ) ;
#532 = EDGE_CURVE ( 'NONE', #21, #582, #46, .T. ) ;
#533 = SURFACE_STYLE_FILL_AREA ( #469 ) ;
#534 = MANIFOLD_SOLID_BREP ( '?????????1', #290 ) ;
#535 = PRESENTATION_STYLE_ASSIGNMENT (( #521 ) ) ;
#536 = CARTESIAN_POINT ( 'NONE',  ( -5.000000000000000888, 0.0000000000000000000, 1.149999999999999911 ) ) ;
#537 = ORIENTED_EDGE ( 'NONE', *, *, #701, .T. ) ;
#538 = EDGE_CURVE ( 'NONE', #815, #516, #632, .T. ) ;
#539 = DIRECTION ( 'NONE',  ( 0.0000000000000000000, 0.0000000000000000000, -1.000000000000000000 ) ) ;
#540 = UNCERTAINTY_MEASURE_WITH_UNIT (LENGTH_MEASURE( 1.000000000000000082E-05 ), #491, 'distance_accuracy_value', 'NONE');
#541 = AXIS2_PLACEMENT_3D ( 'NONE', #562, #502, #291 ) ;
#542 = CIRCLE ( 'NONE', #51, 0.3249999999999997891 ) ;
#543 = ORIENTED_EDGE ( 'NONE', *, *, #396, .F. ) ;
#544 = DIRECTION ( 'NONE',  ( -0.0000000000000000000, -1.000000000000000000, 0.0000000000000000000 ) ) ;
#545 = CARTESIAN_POINT ( 'NONE',  ( 2.500000000000003109, 2.204364238465235083E-16, -4.336808689942017736E-16 ) ) ;
#546 = ORIENTED_EDGE ( 'NONE', *, *, #538, .F. ) ;
#547 = EDGE_CURVE ( 'NONE', #401, #360, #194, .T. ) ;
#548 = PLANE ( 'NONE',  #760 ) ;
#549 = DIRECTION ( 'NONE',  ( 0.0000000000000000000, 0.0000000000000000000, 1.000000000000000000 ) ) ;
#550 = STYLED_ITEM ( 'NONE', ( #5 ), #251 ) ;
#551 = DIRECTION ( 'NONE',  ( -1.000000000000000000, 0.0000000000000000000, 0.0000000000000000000 ) ) ;
#552 =( GEOMETRIC_REPRESENTATION_CONTEXT ( 3 ) GLOBAL_UNCERTAINTY_ASSIGNED_CONTEXT ( ( #19 ) ) GLOBAL_UNIT_ASSIGNED_CONTEXT ( ( #448, #844, #479 ) ) REPRESENTATION_CONTEXT ( 'NONE', 'WORKASPACE' ) );
#553 = PRESENTATION_LAYER_ASSIGNMENT (  '', '', ( #354 ) ) ;
#554 = FACE_OUTER_BOUND ( 'NONE', #278, .T. ) ;
#555 = DIRECTION ( 'NONE',  ( -2.832769448823989808E-16, 0.0000000000000000000, -1.000000000000000000 ) ) ;
#556 = PLANE ( 'NONE',  #438 ) ;
#557 = FILL_AREA_STYLE ('',( #112 ) ) ;
#558 = FACE_OUTER_BOUND ( 'NONE', #798, .T. ) ;
#559 = ADVANCED_FACE ( 'NONE', ( #828 ), #595, .T. ) ;
#560 = SURFACE_STYLE_FILL_AREA ( #235 ) ;
#561 = AXIS2_PLACEMENT_3D ( 'NONE', #638, #122, #178 ) ;
#562 = CARTESIAN_POINT ( 'NONE',  ( -4.350000000000001421, 0.0000000000000000000, 1.799999999999999600 ) ) ;
#563 = VECTOR ( 'NONE', #647, 1000.000000000000000 ) ;
#564 = CIRCLE ( 'NONE', #694, 0.3250000000000000111 ) ;
#565 = DIRECTION ( 'NONE',  ( -2.832769448823989808E-16, 0.0000000000000000000, -1.000000000000000000 ) ) ;
#566 = CIRCLE ( 'NONE', #579, 0.3249999999999997891 ) ;
#567 = MECHANICAL_DESIGN_GEOMETRIC_PRESENTATION_REPRESENTATION (  '', ( #708 ), #376 ) ;
#568 = DIRECTION ( 'NONE',  ( -1.000000000000000000, 0.0000000000000000000, 0.0000000000000000000 ) ) ;
#569 = DIRECTION ( 'NONE',  ( 6.123233995736766036E-17, 0.0000000000000000000, -1.000000000000000000 ) ) ;
#570 = FACE_OUTER_BOUND ( 'NONE', #285, .T. ) ;
#571 = EDGE_CURVE ( 'NONE', #360, #401, #498, .T. ) ;
#572 = DIRECTION ( 'NONE',  ( -2.832769448823989808E-16, 0.0000000000000000000, -1.000000000000000000 ) ) ;
#573 = SURFACE_SIDE_STYLE ('',( #560 ) ) ;
#574 = CARTESIAN_POINT ( 'NONE',  ( 4.350000000000003197, 0.0000000000000000000, 2.124999999999999112 ) ) ;
#575 =( NAMED_UNIT ( * ) SI_UNIT ( $, .STERADIAN. ) SOLID_ANGLE_UNIT ( ) );
#576 =( GEOMETRIC_REPRESENTATION_CONTEXT ( 3 ) GLOBAL_UNCERTAINTY_ASSIGNED_CONTEXT ( ( #803 ) ) GLOBAL_UNIT_ASSIGNED_CONTEXT ( ( #58, #434, #575 ) ) REPRESENTATION_CONTEXT ( 'NONE', 'WORKASPACE' ) );
#577 = FACE_OUTER_BOUND ( 'NONE', #735, .T. ) ;
#578 = COLOUR_RGB ( '',0.7529411764705882248, 0.7529411764705882248, 0.7529411764705882248 ) ;
#579 = AXIS2_PLACEMENT_3D ( 'NONE', #712, #572, #365 ) ;
#580 = APPLICATION_PROTOCOL_DEFINITION ( 'draft international standard', 'automotive_design', 1998, #409 ) ;
#581 =( NAMED_UNIT ( * ) PLANE_ANGLE_UNIT ( ) SI_UNIT ( $, .RADIAN. ) );
#582 = VERTEX_POINT ( 'NONE', #131 ) ;
#583 = CARTESIAN_POINT ( 'NONE',  ( 2.500000000000003109, 0.0000000000000000000, 1.799999999999999156 ) ) ;
#584 = ADVANCED_FACE ( 'NONE', ( #799 ), #393, .T. ) ;
#585 = SURFACE_STYLE_FILL_AREA ( #54 ) ;
#586 = ORIENTED_EDGE ( 'NONE', *, *, #431, .T. ) ;
#587 = FILL_AREA_STYLE_COLOUR ( '', #696 ) ;
#588 = UNCERTAINTY_MEASURE_WITH_UNIT (LENGTH_MEASURE( 1.000000000000000082E-05 ), #292, 'distance_accuracy_value', 'NONE');
#589 = DIRECTION ( 'NONE',  ( 1.000000000000000000, 0.0000000000000000000, 0.0000000000000000000 ) ) ;
#590 = FILL_AREA_STYLE ('',( #604 ) ) ;
#591 = ORIENTED_EDGE ( 'NONE', *, *, #199, .F. ) ;
#592 = MECHANICAL_DESIGN_GEOMETRIC_PRESENTATION_REPRESENTATION (  '', ( #319 ), #472 ) ;
#593 =( GEOMETRIC_REPRESENTATION_CONTEXT ( 3 ) GLOBAL_UNCERTAINTY_ASSIGNED_CONTEXT ( ( #690 ) ) GLOBAL_UNIT_ASSIGNED_CONTEXT ( ( #366, #215, #156 ) ) REPRESENTATION_CONTEXT ( 'NONE', 'WORKASPACE' ) );
#594 = DIRECTION ( 'NONE',  ( -1.000000000000000000, -0.0000000000000000000, -0.0000000000000000000 ) ) ;
#595 = TOROIDAL_SURFACE ( 'NONE', #263, 0.6500000000000000222, 0.3250000000000000111 ) ;
#596 = CIRCLE ( 'NONE', #749, 0.3250000000000001776 ) ;
#597 =( NAMED_UNIT ( * ) SI_UNIT ( $, .STERADIAN. ) SOLID_ANGLE_UNIT ( ) );
#598 = COLOUR_RGB ( '',0.7921568627450980005, 0.8196078431372548767, 0.9333333333333333481 ) ;
#599 = ADVANCED_FACE ( 'NONE', ( #203 ), #106, .T. ) ;
#600 = VERTEX_POINT ( 'NONE', #189 ) ;
#601 = DIRECTION ( 'NONE',  ( 0.0000000000000000000, 0.0000000000000000000, 1.000000000000000000 ) ) ;
#602 = EDGE_LOOP ( 'NONE', ( #367, #537, #93, #332 ) ) ;
#603 = SURFACE_STYLE_USAGE ( .BOTH. , #453 ) ;
#604 = FILL_AREA_STYLE_COLOUR ( '', #247 ) ;
#605 = ORIENTED_EDGE ( 'NONE', *, *, #89, .T. ) ;
#606 = UNCERTAINTY_MEASURE_WITH_UNIT (LENGTH_MEASURE( 1.000000000000000082E-05 ), #382, 'distance_accuracy_value', 'NONE');
#607 = PRESENTATION_LAYER_ASSIGNMENT (  '', '', ( #22 ) ) ;
#608 = DIRECTION ( 'NONE',  ( 1.000000000000000000, -0.0000000000000000000, -0.0000000000000000000 ) ) ;
#609 = CIRCLE ( 'NONE', #62, 0.3249999999999997891 ) ;
#610 = DIRECTION ( 'NONE',  ( 0.0000000000000000000, 0.0000000000000000000, -1.000000000000000000 ) ) ;
#611 = STYLED_ITEM ( 'NONE', ( #88 ), #777 ) ;
#612 = PRODUCT_DEFINITION_FORMATION_WITH_SPECIFIED_SOURCE ( 'ANY', '', #214, .NOT_KNOWN. ) ;
#613 = ORIENTED_EDGE ( 'NONE', *, *, #655, .T. ) ;
#614 = EDGE_CURVE ( 'NONE', #237, #351, #67, .T. ) ;
#615 =( NAMED_UNIT ( * ) SI_UNIT ( $, .STERADIAN. ) SOLID_ANGLE_UNIT ( ) );
#616 = PRODUCT_DEFINITION_SHAPE ( 'NONE', 'NONE',  #509 ) ;
#617 = FILL_AREA_STYLE_COLOUR ( '', #578 ) ;
#618 = COLOUR_RGB ( '',0.7529411764705882248, 0.7529411764705882248, 0.7529411764705882248 ) ;
#619 =( NAMED_UNIT ( * ) PLANE_ANGLE_UNIT ( ) SI_UNIT ( $, .RADIAN. ) );
#620 =( GEOMETRIC_REPRESENTATION_CONTEXT ( 3 ) GLOBAL_UNCERTAINTY_ASSIGNED_CONTEXT ( ( #355 ) ) GLOBAL_UNIT_ASSIGNED_CONTEXT ( ( #763, #369, #782 ) ) REPRESENTATION_CONTEXT ( 'NONE', 'WORKASPACE' ) );
#621 = EDGE_CURVE ( 'NONE', #660, #21, #596, .T. ) ;
#622 = DIRECTION ( 'NONE',  ( 0.0000000000000000000, 0.0000000000000000000, -1.000000000000000000 ) ) ;
#623 = VECTOR ( 'NONE', #794, 1000.000000000000000 ) ;
#624 = FACE_OUTER_BOUND ( 'NONE', #697, .T. ) ;
#625 = DIRECTION ( 'NONE',  ( -1.000000000000000000, 0.0000000000000000000, 0.0000000000000000000 ) ) ;
#626 = SURFACE_STYLE_FILL_AREA ( #364 ) ;
#627 = DIRECTION ( 'NONE',  ( 0.0000000000000000000, 0.0000000000000000000, -1.000000000000000000 ) ) ;
#628 =( NAMED_UNIT ( * ) PLANE_ANGLE_UNIT ( ) SI_UNIT ( $, .RADIAN. ) );
#629 = CARTESIAN_POINT ( 'NONE',  ( -2.499999999999996891, 0.0000000000000000000, 1.800000000000000044 ) ) ;
#630 = VECTOR ( 'NONE', #608, 1000.000000000000000 ) ;
#631 = FILL_AREA_STYLE_COLOUR ( '', #618 ) ;
#632 = CIRCLE ( 'NONE', #523, 0.3249999999999997891 ) ;
#633 = STYLED_ITEM ( 'NONE', ( #709 ), #559 ) ;
#634 = SURFACE_STYLE_USAGE ( .BOTH. , #298 ) ;
#635 =( GEOMETRIC_REPRESENTATION_CONTEXT ( 3 ) GLOBAL_UNCERTAINTY_ASSIGNED_CONTEXT ( ( #344 ) ) GLOBAL_UNIT_ASSIGNED_CONTEXT ( ( #368, #505, #640 ) ) REPRESENTATION_CONTEXT ( 'NONE', 'WORKASPACE' ) );
#636 = SURFACE_STYLE_USAGE ( .BOTH. , #442 ) ;
#637 = UNCERTAINTY_MEASURE_WITH_UNIT (LENGTH_MEASURE( 1.000000000000000082E-05 ), #274, 'distance_accuracy_value', 'NONE');
#638 = CARTESIAN_POINT ( 'NONE',  ( 2.500000000000000000, 0.0000000000000000000, 1.799999999999999156 ) ) ;
#639 = EDGE_LOOP ( 'NONE', ( #751, #774, #743, #695 ) ) ;
#640 =( NAMED_UNIT ( * ) SI_UNIT ( $, .STERADIAN. ) SOLID_ANGLE_UNIT ( ) );
#641 =( NAMED_UNIT ( * ) PLANE_ANGLE_UNIT ( ) SI_UNIT ( $, .RADIAN. ) );
#642 = DIRECTION ( 'NONE',  ( 0.0000000000000000000, 0.0000000000000000000, 1.000000000000000000 ) ) ;
#643 = DIRECTION ( 'NONE',  ( -1.000000000000000000, -0.0000000000000000000, -0.0000000000000000000 ) ) ;
#644 = ORIENTED_EDGE ( 'NONE', *, *, #396, .T. ) ;
#645 = DIRECTION ( 'NONE',  ( 0.0000000000000000000, 0.0000000000000000000, -1.000000000000000000 ) ) ;
#646 = CARTESIAN_POINT ( 'NONE',  ( -2.499999999999996891, 3.980102097228898971E-17, 2.124999999999999112 ) ) ;
#647 = DIRECTION ( 'NONE',  ( -1.000000000000000000, -0.0000000000000000000, -0.0000000000000000000 ) ) ;
#648 = EDGE_CURVE ( 'NONE', #516, #815, #305, .T. ) ;
#649 = CYLINDRICAL_SURFACE ( 'NONE', #686, 0.3249999999999997891 ) ;
#650 =( NAMED_UNIT ( * ) SI_UNIT ( $, .STERADIAN. ) SOLID_ANGLE_UNIT ( ) );
#651 = MECHANICAL_DESIGN_GEOMETRIC_PRESENTATION_REPRESENTATION (  '', ( #208 ), #635 ) ;
#652 = AXIS2_PLACEMENT_3D ( 'NONE', #482, #186, #742 ) ;
#653 =( NAMED_UNIT ( * ) PLANE_ANGLE_UNIT ( ) SI_UNIT ( $, .RADIAN. ) );
#654 = EDGE_LOOP ( 'NONE', ( #435, #213 ) ) ;
#655 = EDGE_CURVE ( 'NONE', #582, #476, #323, .T. ) ;
#656 = PRESENTATION_STYLE_ASSIGNMENT (( #329 ) ) ;
#657 = CARTESIAN_POINT ( 'NONE',  ( 4.349999999999999645, 0.0000000000000000000, 1.149999999999999023 ) ) ;
#658 = PRODUCT_CONTEXT ( 'NONE', #409, 'mechanical' ) ;
#659 =( NAMED_UNIT ( * ) SI_UNIT ( $, .STERADIAN. ) SOLID_ANGLE_UNIT ( ) );
#660 = VERTEX_POINT ( 'NONE', #753 ) ;
#661 = CARTESIAN_POINT ( 'NONE',  ( -4.350000000000001421, 3.980102097228897122E-17, 1.149999999999999245 ) ) ;
#662 = UNCERTAINTY_MEASURE_WITH_UNIT (LENGTH_MEASURE( 1.000000000000000082E-05 ), #765, 'distance_accuracy_value', 'NONE');
#663 = ADVANCED_FACE ( 'NONE', ( #624 ), #30, .T. ) ;
#664 = SURFACE_STYLE_USAGE ( .BOTH. , #477 ) ;
#665 = PRESENTATION_STYLE_ASSIGNMENT (( #739 ) ) ;
#666 = EDGE_LOOP ( 'NONE', ( #681, #78, #847, #56 ) ) ;
#667 = MECHANICAL_DESIGN_GEOMETRIC_PRESENTATION_REPRESENTATION (  '', ( #334 ), #576 ) ;
#668 = CARTESIAN_POINT ( 'NONE',  ( -4.350000000000001421, 0.0000000000000000000, 1.799999999999999600 ) ) ;
#669 = MECHANICAL_DESIGN_GEOMETRIC_PRESENTATION_REPRESENTATION (  '', ( #633 ), #620 ) ;
#670 = COLOUR_RGB ( '',0.7529411764705882248, 0.7529411764705882248, 0.7529411764705882248 ) ;
#671 = CARTESIAN_POINT ( 'NONE',  ( -2.499999999999996891, 2.204364238465234590E-16, 0.0000000000000000000 ) ) ;
#672 = MECHANICAL_DESIGN_GEOMETRIC_PRESENTATION_REPRESENTATION (  '', ( #832 ), #733 ) ;
#673 = SURFACE_STYLE_USAGE ( .BOTH. , #463 ) ;
#674 = ORIENTED_EDGE ( 'NONE', *, *, #17, .F. ) ;
#675 = UNCERTAINTY_MEASURE_WITH_UNIT (LENGTH_MEASURE( 1.000000000000000082E-05 ), #15, 'distance_accuracy_value', 'NONE');
#676 = SURFACE_SIDE_STYLE ('',( #710 ) ) ;
#677 = SURFACE_STYLE_USAGE ( .BOTH. , #411 ) ;
#678 = FILL_AREA_STYLE_COLOUR ( '', #525 ) ;
#679 = ORIENTED_EDGE ( 'NONE', *, *, #621, .F. ) ;
#680 = CARTESIAN_POINT ( 'NONE',  ( -4.350000000000001421, 0.0000000000000000000, 1.149999999999999245 ) ) ;
#681 = ORIENTED_EDGE ( 'NONE', *, *, #108, .F. ) ;
#682 =( NAMED_UNIT ( * ) SI_UNIT ( $, .STERADIAN. ) SOLID_ANGLE_UNIT ( ) );
#683 = STYLED_ITEM ( 'NONE', ( #535 ), #373 ) ;
#684 = PRESENTATION_LAYER_ASSIGNMENT (  '', '', ( #808 ) ) ;
#685 = FILL_AREA_STYLE ('',( #678 ) ) ;
#686 = AXIS2_PLACEMENT_3D ( 'NONE', #229, #492, #757 ) ;
#687 = SURFACE_STYLE_FILL_AREA ( #557 ) ;
#688 = SURFACE_STYLE_FILL_AREA ( #416 ) ;
#689 = FACE_OUTER_BOUND ( 'NONE', #185, .T. ) ;
#690 = UNCERTAINTY_MEASURE_WITH_UNIT (LENGTH_MEASURE( 1.000000000000000082E-05 ), #366, 'distance_accuracy_value', 'NONE');
#691 = ADVANCED_FACE ( 'NONE', ( #183 ), #233, .T. ) ;
#692 = DIRECTION ( 'NONE',  ( 0.0000000000000000000, 0.0000000000000000000, 1.000000000000000000 ) ) ;
#693 = LINE ( 'NONE', #107, #325 ) ;
#694 = AXIS2_PLACEMENT_3D ( 'NONE', #778, #383, #238 ) ;
#695 = ORIENTED_EDGE ( 'NONE', *, *, #797, .F. ) ;
#696 = COLOUR_RGB ( '',0.7529411764705882248, 0.7529411764705882248, 0.7529411764705882248 ) ;
#697 = EDGE_LOOP ( 'NONE', ( #74, #146, #801, #317 ) ) ;
#698 = SURFACE_STYLE_USAGE ( .BOTH. , #433 ) ;
#699 = FILL_AREA_STYLE_COLOUR ( '', #119 ) ;
#700 = PRESENTATION_STYLE_ASSIGNMENT (( #384 ) ) ;
#701 = EDGE_CURVE ( 'NONE', #21, #600, #566, .T. ) ;
#702 = SURFACE_STYLE_FILL_AREA ( #174 ) ;
#703 = FILL_AREA_STYLE ('',( #699 ) ) ;
#704 = DIRECTION ( 'NONE',  ( 0.0000000000000000000, 0.0000000000000000000, 1.000000000000000000 ) ) ;
#705 = VECTOR ( 'NONE', #188, 1000.000000000000000 ) ;
#706 = SURFACE_SIDE_STYLE ('',( #585 ) ) ;
#707 = EDGE_LOOP ( 'NONE', ( #241, #740 ) ) ;
#708 = STYLED_ITEM ( 'NONE', ( #243 ), #822 ) ;
#709 = PRESENTATION_STYLE_ASSIGNMENT (( #500 ) ) ;
#710 = SURFACE_STYLE_FILL_AREA ( #181 ) ;
#711 = CARTESIAN_POINT ( 'NONE',  ( 4.350000000000003197, 3.980102097228897122E-17, 1.474999999999999201 ) ) ;
#712 = CARTESIAN_POINT ( 'NONE',  ( -5.000000000000000888, 0.0000000000000000000, 1.149999999999999911 ) ) ;
#713 = SURFACE_STYLE_FILL_AREA ( #63 ) ;
#714 = EDGE_CURVE ( 'NONE', #40, #237, #795, .T. ) ;
#715 = FACE_OUTER_BOUND ( 'NONE', #639, .T. ) ;
#716 = MECHANICAL_DESIGN_GEOMETRIC_PRESENTATION_REPRESENTATION (  '', ( #22 ), #744 ) ;
#717 = AXIS2_PLACEMENT_3D ( 'NONE', #405, #544, #395 ) ;
#718 = FILL_AREA_STYLE ('',( #848 ) ) ;
#719 = PRESENTATION_LAYER_ASSIGNMENT (  '', '', ( #474 ) ) ;
#720 = UNCERTAINTY_MEASURE_WITH_UNIT (LENGTH_MEASURE( 1.000000000000000082E-05 ), #356, 'distance_accuracy_value', 'NONE');
#721 = COLOUR_RGB ( '',0.7921568627450980005, 0.8196078431372548767, 0.9333333333333333481 ) ;
#722 = FACE_OUTER_BOUND ( 'NONE', #271, .T. ) ;
#723 = EDGE_CURVE ( 'NONE', #476, #582, #542, .T. ) ;
#724 = CARTESIAN_POINT ( 'NONE',  ( 4.349999999999999645, 0.0000000000000000000, 1.149999999999999023 ) ) ;
#725 = DIRECTION ( 'NONE',  ( 0.0000000000000000000, 0.0000000000000000000, -1.000000000000000000 ) ) ;
#726 = SURFACE_STYLE_USAGE ( .BOTH. , #813 ) ;
#727 = VERTEX_POINT ( 'NONE', #835 ) ;
#728 = DIRECTION ( 'NONE',  ( -1.000000000000000000, 0.0000000000000000000, 0.0000000000000000000 ) ) ;
#729 = VERTEX_POINT ( 'NONE', #231 ) ;
#730 = AXIS2_PLACEMENT_3D ( 'NONE', #758, #109, #288 ) ;
#731 = COLOUR_RGB ( '',0.1764705882352941013, 0.1764705882352941013, 0.1764705882352941013 ) ;
#732 = FILL_AREA_STYLE ('',( #20 ) ) ;
#733 =( GEOMETRIC_REPRESENTATION_CONTEXT ( 3 ) GLOBAL_UNCERTAINTY_ASSIGNED_CONTEXT ( ( #662 ) ) GLOBAL_UNIT_ASSIGNED_CONTEXT ( ( #765, #619, #296 ) ) REPRESENTATION_CONTEXT ( 'NONE', 'WORKASPACE' ) );
#734 = FILL_AREA_STYLE_COLOUR ( '', #205 ) ;
#735 = EDGE_LOOP ( 'NONE', ( #84, #605, #480, #464 ) ) ;
#736 = UNCERTAINTY_MEASURE_WITH_UNIT (LENGTH_MEASURE( 1.000000000000000082E-05 ), #61, 'distance_accuracy_value', 'NONE');
#737 = PRESENTATION_STYLE_ASSIGNMENT (( #726 ) ) ;
#738 = EDGE_CURVE ( 'NONE', #237, #483, #65, .T. ) ;
#739 = SURFACE_STYLE_USAGE ( .BOTH. , #73 ) ;
#740 = ORIENTED_EDGE ( 'NONE', *, *, #347, .T. ) ;
#741 = SURFACE_STYLE_FILL_AREA ( #294 ) ;
#742 = DIRECTION ( 'NONE',  ( -1.000000000000000000, 0.0000000000000000000, 0.0000000000000000000 ) ) ;
#743 = ORIENTED_EDGE ( 'NONE', *, *, #621, .T. ) ;
#744 =( GEOMETRIC_REPRESENTATION_CONTEXT ( 3 ) GLOBAL_UNCERTAINTY_ASSIGNED_CONTEXT ( ( #394 ) ) GLOBAL_UNIT_ASSIGNED_CONTEXT ( ( #837, #240, #127 ) ) REPRESENTATION_CONTEXT ( 'NONE', 'WORKASPACE' ) );
#745 = UNCERTAINTY_MEASURE_WITH_UNIT (LENGTH_MEASURE( 1.000000000000000082E-05 ), #449, 'distance_accuracy_value', 'NONE');
#746 =( GEOMETRIC_REPRESENTATION_CONTEXT ( 3 ) GLOBAL_UNCERTAINTY_ASSIGNED_CONTEXT ( ( #675 ) ) GLOBAL_UNIT_ASSIGNED_CONTEXT ( ( #15, #91, #659 ) ) REPRESENTATION_CONTEXT ( 'NONE', 'WORKASPACE' ) );
#747 = CARTESIAN_POINT ( 'NONE',  ( -5.000000000000000888, 0.0000000000000000000, -3.700000000000000178 ) ) ;
#748 = STYLED_ITEM ( 'NONE', ( #197 ), #584 ) ;
#749 = AXIS2_PLACEMENT_3D ( 'NONE', #661, #333, #528 ) ;
#750 = MECHANICAL_DESIGN_GEOMETRIC_PRESENTATION_REPRESENTATION (  '', ( #121 ), #375 ) ;
#751 = ORIENTED_EDGE ( 'NONE', *, *, #118, .F. ) ;
#752 = ADVANCED_FACE ( 'NONE', ( #558 ), #437, .T. ) ;
#753 = CARTESIAN_POINT ( 'NONE',  ( -4.350000000000001421, 0.0000000000000000000, 1.474999999999999423 ) ) ;
#754 = PRESENTATION_STYLE_ASSIGNMENT (( #162 ) ) ;
#755 = CARTESIAN_POINT ( 'NONE',  ( -4.350000000000001421, 0.0000000000000000000, 1.474999999999999423 ) ) ;
#756 = ADVANCED_FACE ( 'NONE', ( #722 ), #212, .T. ) ;
#757 = DIRECTION ( 'NONE',  ( -1.000000000000000000, 0.0000000000000000000, 0.0000000000000000000 ) ) ;
#758 = CARTESIAN_POINT ( 'NONE',  ( 4.999999999999999112, 0.0000000000000000000, 1.149999999999995692 ) ) ;
#759 = APPLICATION_CONTEXT ( 'automotive_design' ) ;
#760 = AXIS2_PLACEMENT_3D ( 'NONE', #299, #551, #692 ) ;
#761 = PRESENTATION_STYLE_ASSIGNMENT (( #297 ) ) ;
#762 = FILL_AREA_STYLE ('',( #169 ) ) ;
#763 =( LENGTH_UNIT ( ) NAMED_UNIT ( * ) SI_UNIT ( .MILLI., .METRE. ) );
#764 = DIRECTION ( 'NONE',  ( -1.000000000000000000, -0.0000000000000000000, -0.0000000000000000000 ) ) ;
#765 =( LENGTH_UNIT ( ) NAMED_UNIT ( * ) SI_UNIT ( .MILLI., .METRE. ) );
#766 = SURFACE_STYLE_USAGE ( .BOTH. , #232 ) ;
#767 = DIRECTION ( 'NONE',  ( 0.0000000000000000000, 0.0000000000000000000, -1.000000000000000000 ) ) ;
#768 = CARTESIAN_POINT ( 'NONE',  ( 4.350000000000003197, 0.0000000000000000000, 1.799999999999999156 ) ) ;
#769 = PRESENTATION_STYLE_ASSIGNMENT (( #320 ) ) ;
#770 = LINE ( 'NONE', #574, #563 ) ;
#771 = COLOUR_RGB ( '',0.7529411764705882248, 0.7529411764705882248, 0.7529411764705882248 ) ;
#772 = AXIS2_PLACEMENT_3D ( 'NONE', #529, #82, #140 ) ;
#773 = STYLED_ITEM ( 'NONE', ( #769 ), #534 ) ;
#774 = ORIENTED_EDGE ( 'NONE', *, *, #457, .T. ) ;
#775 = CARTESIAN_POINT ( 'NONE',  ( -4.350000000000001421, 0.0000000000000000000, 1.799999999999999600 ) ) ;
#776 =( GEOMETRIC_REPRESENTATION_CONTEXT ( 3 ) GLOBAL_UNCERTAINTY_ASSIGNED_CONTEXT ( ( #413 ) ) GLOBAL_UNIT_ASSIGNED_CONTEXT ( ( #404, #345, #524 ) ) REPRESENTATION_CONTEXT ( 'NONE', 'WORKASPACE' ) );
#777 = ADVANCED_FACE ( 'NONE', ( #418 ), #39, .T. ) ;
#778 = CARTESIAN_POINT ( 'NONE',  ( 2.500000000000000000, 0.0000000000000000000, 1.799999999999999156 ) ) ;
#779 = CYLINDRICAL_SURFACE ( 'NONE', #262, 0.3250000000000001776 ) ;
#780 = FILL_AREA_STYLE_COLOUR ( '', #452 ) ;
#781 = ORIENTED_EDGE ( 'NONE', *, *, #316, .T. ) ;
#782 =( NAMED_UNIT ( * ) SI_UNIT ( $, .STERADIAN. ) SOLID_ANGLE_UNIT ( ) );
#783 = EDGE_CURVE ( 'NONE', #273, #401, #284, .T. ) ;
#784 = FILL_AREA_STYLE_COLOUR ( '', #721 ) ;
#785 = ORIENTED_EDGE ( 'NONE', *, *, #783, .T. ) ;
#786 =( NAMED_UNIT ( * ) SI_UNIT ( $, .STERADIAN. ) SOLID_ANGLE_UNIT ( ) );
#787 = SURFACE_STYLE_USAGE ( .BOTH. , #138 ) ;
#788 =( NAMED_UNIT ( * ) PLANE_ANGLE_UNIT ( ) SI_UNIT ( $, .RADIAN. ) );
#789 =( NAMED_UNIT ( * ) SI_UNIT ( $, .STERADIAN. ) SOLID_ANGLE_UNIT ( ) );
#790 = ORIENTED_EDGE ( 'NONE', *, *, #532, .T. ) ;
#791 = AXIS2_PLACEMENT_3D ( 'NONE', #805, #141, #283 ) ;
#792 = SURFACE_STYLE_FILL_AREA ( #92 ) ;
#793 =( GEOMETRIC_REPRESENTATION_CONTEXT ( 3 ) GLOBAL_UNCERTAINTY_ASSIGNED_CONTEXT ( ( #720 ) ) GLOBAL_UNIT_ASSIGNED_CONTEXT ( ( #356, #217, #682 ) ) REPRESENTATION_CONTEXT ( 'NONE', 'WORKASPACE' ) );
#794 = DIRECTION ( 'NONE',  ( -1.000000000000000000, -0.0000000000000000000, -0.0000000000000000000 ) ) ;
#795 = CIRCLE ( 'NONE', #224, 0.3250000000000000111 ) ;
#796 = LINE ( 'NONE', #462, #321 ) ;
#797 = EDGE_CURVE ( 'NONE', #600, #21, #173, .T. ) ;
#798 = EDGE_LOOP ( 'NONE', ( #255, #785, #153, #591 ) ) ;
#799 = FACE_OUTER_BOUND ( 'NONE', #444, .T. ) ;
#800 = FACE_OUTER_BOUND ( 'NONE', #198, .T. ) ;
#801 = ORIENTED_EDGE ( 'NONE', *, *, #304, .F. ) ;
#802 =( LENGTH_UNIT ( ) NAMED_UNIT ( * ) SI_UNIT ( .MILLI., .METRE. ) );
#803 = UNCERTAINTY_MEASURE_WITH_UNIT (LENGTH_MEASURE( 1.000000000000000082E-05 ), #58, 'distance_accuracy_value', 'NONE');
#804 =( NAMED_UNIT ( * ) PLANE_ANGLE_UNIT ( ) SI_UNIT ( $, .RADIAN. ) );
#805 = CARTESIAN_POINT ( 'NONE',  ( 2.500000000000003109, 0.0000000000000000000, 1.799999999999999156 ) ) ;
#806 = ORIENTED_EDGE ( 'NONE', *, *, #44, .T. ) ;
#807 = COLOUR_RGB ( '',0.7529411764705882248, 0.7529411764705882248, 0.7529411764705882248 ) ;
#808 = STYLED_ITEM ( 'NONE', ( #823 ), #471 ) ;
#809 = ADVANCED_FACE ( 'NONE', ( #577 ), #649, .T. ) ;
#810 = MECHANICAL_DESIGN_GEOMETRIC_PRESENTATION_REPRESENTATION (  '', ( #250 ), #406 ) ;
#811 = DIRECTION ( 'NONE',  ( -0.0000000000000000000, -1.000000000000000000, 0.0000000000000000000 ) ) ;
#812 = EDGE_LOOP ( 'NONE', ( #13, #69, #531, #824 ) ) ;
#813 = SURFACE_SIDE_STYLE ('',( #270 ) ) ;
#814 = DIRECTION ( 'NONE',  ( -1.000000000000000000, -0.0000000000000000000, -0.0000000000000000000 ) ) ;
#815 = VERTEX_POINT ( 'NONE', #166 ) ;
#816 = EDGE_CURVE ( 'NONE', #729, #346, #693, .T. ) ;
#817 = CIRCLE ( 'NONE', #561, 0.3250000000000000111 ) ;
#818 = MANIFOLD_SOLID_BREP ( '?? ??????????2', #417 ) ;
#819 = TOROIDAL_SURFACE ( 'NONE', #717, 0.6500000000000001332, 0.3249999999999999556 ) ;
#820 = SURFACE_STYLE_USAGE ( .BOTH. , #155 ) ;
#821 = STYLED_ITEM ( 'NONE', ( #656 ), #756 ) ;
#822 = MANIFOLD_SOLID_BREP ( '?? ??????????1', #275 ) ;
#823 = PRESENTATION_STYLE_ASSIGNMENT (( #820 ) ) ;
#824 = ORIENTED_EDGE ( 'NONE', *, *, #547, .F. ) ;
#825 = DIRECTION ( 'NONE',  ( 0.0000000000000000000, 0.0000000000000000000, -1.000000000000000000 ) ) ;
#826 = CARTESIAN_POINT ( 'NONE',  ( 2.500000000000000000, 0.0000000000000000000, 2.124999999999999112 ) ) ;
#827 = FILL_AREA_STYLE_COLOUR ( '', #475 ) ;
#828 = FACE_OUTER_BOUND ( 'NONE', #158, .T. ) ;
#829 = CIRCLE ( 'NONE', #204, 0.9750000000000001998 ) ;
#830 = CIRCLE ( 'NONE', #105, 0.3249999999999997891 ) ;
#831 = COLOUR_RGB ( '',0.7529411764705882248, 0.7529411764705882248, 0.7529411764705882248 ) ;
#832 = STYLED_ITEM ( 'NONE', ( #754 ), #809 ) ;
#833 = EDGE_CURVE ( 'NONE', #483, #729, #441, .T. ) ;
#834 = SURFACE_SIDE_STYLE ('',( #135 ) ) ;
#835 = CARTESIAN_POINT ( 'NONE',  ( 4.674999999999999822, 0.0000000000000000000, -3.700000000000004619 ) ) ;
#836 = CARTESIAN_POINT ( 'NONE',  ( -2.499999999999996891, 0.0000000000000000000, 1.799999999999999156 ) ) ;
#837 =( LENGTH_UNIT ( ) NAMED_UNIT ( * ) SI_UNIT ( .MILLI., .METRE. ) );
#838 = ORIENTED_EDGE ( 'NONE', *, *, #547, .T. ) ;
#839 = CARTESIAN_POINT ( 'NONE',  ( 4.350000000000003197, 0.0000000000000000000, 1.799999999999999156 ) ) ;
#840 = CARTESIAN_POINT ( 'NONE',  ( -2.499999999999996891, 0.0000000000000000000, 1.799999999999999156 ) ) ;
#841 = CARTESIAN_POINT ( 'NONE',  ( 2.499999999999996891, 0.0000000000000000000, 1.799999999999999156 ) ) ;
#842 = LINE ( 'NONE', #443, #705 ) ;
#843 = EDGE_CURVE ( 'NONE', #151, #273, #66, .T. ) ;
#844 =( NAMED_UNIT ( * ) PLANE_ANGLE_UNIT ( ) SI_UNIT ( $, .RADIAN. ) );
#845 = CARTESIAN_POINT ( 'NONE',  ( -4.675000000000001599, 3.980102097228897122E-17, 1.149999999999999911 ) ) ;
#846 = DIRECTION ( 'NONE',  ( 1.000000000000000000, 0.0000000000000000000, 0.0000000000000000000 ) ) ;
#847 = ORIENTED_EDGE ( 'NONE', *, *, #187, .T. ) ;
#848 = FILL_AREA_STYLE_COLOUR ( '', #10 ) ;
#849 = UNCERTAINTY_MEASURE_WITH_UNIT (LENGTH_MEASURE( 1.000000000000000082E-05 ), #230, 'distance_accuracy_value', 'NONE');
#850 = DIRECTION ( 'NONE',  ( -1.000000000000000000, 0.0000000000000000000, 0.0000000000000000000 ) ) ;
ENDSEC;
END-ISO-10303-21;
