ISO-10303-21;
HEADER;
FILE_DESCRIPTION(('STEP AP214'),'1');
FILE_NAME('1824086P.stp','2024-05-13T12:41:53',('TraceParts'),('TraceParts S.A.'),'Spatial InterOp 3D',' ',' ');
FILE_SCHEMA(('AUTOMOTIVE_DESIGN { 1 0 10303 214 1 1 1 1 }'));
ENDSEC;
DATA;
#1=MECHANICAL_DESIGN_GEOMETRIC_PRESENTATION_REPRESENTATION(' ',(#10,#11,#12,#13,#14,#15,#16,#17,#18,#19,#20,#21,#22,#23,#24,#25,#26,#27,#28,#29,#30,#31,#32,#33,#34,#35,#36,#37),#6);
#2=PRODUCT_DEFINITION_CONTEXT('',#38,'design');
#3=APPLICATION_PROTOCOL_DEFINITION('INTERNATIONAL STANDARD','automotive_design',1994,#38);
#4=PRODUCT_CATEGORY_RELATIONSHIP('NONE','NONE',#39,#40);
#5=SHAPE_DEFINITION_REPRESENTATION(#41,#42);
#6= (GEOMETRIC_REPRESENTATION_CONTEXT(3)GLOBAL_UNCERTAINTY_ASSIGNED_CONTEXT((#45))GLOBAL_UNIT_ASSIGNED_CONTEXT((#47,#48,#49))REPRESENTATION_CONTEXT('NONE','WORKSPACE'));
#10=STYLED_ITEM('',(#51),#52);
#11=STYLED_ITEM('',(#53),#54);
#12=STYLED_ITEM('',(#55),#56);
#13=STYLED_ITEM('',(#57),#58);
#14=STYLED_ITEM('',(#59),#60);
#15=STYLED_ITEM('',(#61),#62);
#16=STYLED_ITEM('',(#63),#64);
#17=STYLED_ITEM('',(#65),#66);
#18=STYLED_ITEM('',(#67),#68);
#19=STYLED_ITEM('',(#69),#70);
#20=STYLED_ITEM('',(#71),#72);
#21=STYLED_ITEM('',(#73),#74);
#22=STYLED_ITEM('',(#75),#76);
#23=STYLED_ITEM('',(#77),#78);
#24=STYLED_ITEM('',(#79),#80);
#25=STYLED_ITEM('',(#81),#82);
#26=STYLED_ITEM('',(#83),#84);
#27=STYLED_ITEM('',(#85),#86);
#28=STYLED_ITEM('',(#87),#88);
#29=STYLED_ITEM('',(#89),#90);
#30=STYLED_ITEM('',(#91),#92);
#31=STYLED_ITEM('',(#93),#94);
#32=STYLED_ITEM('',(#95),#96);
#33=STYLED_ITEM('',(#97),#98);
#34=STYLED_ITEM('',(#99),#100);
#35=STYLED_ITEM('',(#101),#102);
#36=STYLED_ITEM('',(#103),#104);
#37=STYLED_ITEM('',(#105),#106);
#38=APPLICATION_CONTEXT(' ');
#39=PRODUCT_CATEGORY('part','NONE');
#40=PRODUCT_RELATED_PRODUCT_CATEGORY('detail',' ',(#107));
#41=PRODUCT_DEFINITION_SHAPE('NONE','NONE',#108);
#42=ADVANCED_BREP_SHAPE_REPRESENTATION('1824086P',(#109,#110),#6);
#45=UNCERTAINTY_MEASURE_WITH_UNIT(LENGTH_MEASURE(1.0E-06),#47,'','');
#47= (CONVERSION_BASED_UNIT('MILLIMETRE',#113)LENGTH_UNIT()NAMED_UNIT(#116));
#48= (NAMED_UNIT(#118)PLANE_ANGLE_UNIT()SI_UNIT($,.RADIAN.));
#49= (NAMED_UNIT(#118)SOLID_ANGLE_UNIT()SI_UNIT($,.STERADIAN.));
#51=PRESENTATION_STYLE_ASSIGNMENT((#124));
#52=ADVANCED_FACE('',(#125,#126),#127,.T.);
#53=PRESENTATION_STYLE_ASSIGNMENT((#128));
#54=ADVANCED_FACE('',(#129),#130,.T.);
#55=PRESENTATION_STYLE_ASSIGNMENT((#131));
#56=ADVANCED_FACE('',(#132),#133,.T.);
#57=PRESENTATION_STYLE_ASSIGNMENT((#134));
#58=ADVANCED_FACE('',(#135),#136,.T.);
#59=PRESENTATION_STYLE_ASSIGNMENT((#137));
#60=ADVANCED_FACE('',(#138),#139,.T.);
#61=PRESENTATION_STYLE_ASSIGNMENT((#140));
#62=ADVANCED_FACE('',(#141),#142,.T.);
#63=PRESENTATION_STYLE_ASSIGNMENT((#143));
#64=ADVANCED_FACE('',(#144),#145,.T.);
#65=PRESENTATION_STYLE_ASSIGNMENT((#146));
#66=ADVANCED_FACE('',(#147),#148,.T.);
#67=PRESENTATION_STYLE_ASSIGNMENT((#149));
#68=ADVANCED_FACE('',(#150),#151,.T.);
#69=PRESENTATION_STYLE_ASSIGNMENT((#152));
#70=ADVANCED_FACE('',(#153),#154,.F.);
#71=PRESENTATION_STYLE_ASSIGNMENT((#155));
#72=ADVANCED_FACE('',(#156),#157,.T.);
#73=PRESENTATION_STYLE_ASSIGNMENT((#158));
#74=ADVANCED_FACE('',(#159),#160,.T.);
#75=PRESENTATION_STYLE_ASSIGNMENT((#161));
#76=ADVANCED_FACE('',(#162),#163,.T.);
#77=PRESENTATION_STYLE_ASSIGNMENT((#164));
#78=ADVANCED_FACE('',(#165),#166,.T.);
#79=PRESENTATION_STYLE_ASSIGNMENT((#167));
#80=ADVANCED_FACE('',(#168,#169),#170,.T.);
#81=PRESENTATION_STYLE_ASSIGNMENT((#171));
#82=ADVANCED_FACE('',(#172),#173,.T.);
#83=PRESENTATION_STYLE_ASSIGNMENT((#174));
#84=ADVANCED_FACE('',(#175),#176,.T.);
#85=PRESENTATION_STYLE_ASSIGNMENT((#177));
#86=ADVANCED_FACE('',(#178),#179,.T.);
#87=PRESENTATION_STYLE_ASSIGNMENT((#180));
#88=ADVANCED_FACE('',(#181),#182,.T.);
#89=PRESENTATION_STYLE_ASSIGNMENT((#183));
#90=ADVANCED_FACE('',(#184),#185,.T.);
#91=PRESENTATION_STYLE_ASSIGNMENT((#186));
#92=ADVANCED_FACE('',(#187),#188,.T.);
#93=PRESENTATION_STYLE_ASSIGNMENT((#189));
#94=ADVANCED_FACE('',(#190),#191,.T.);
#95=PRESENTATION_STYLE_ASSIGNMENT((#192));
#96=ADVANCED_FACE('',(#193),#194,.T.);
#97=PRESENTATION_STYLE_ASSIGNMENT((#195));
#98=ADVANCED_FACE('',(#196),#197,.F.);
#99=PRESENTATION_STYLE_ASSIGNMENT((#198));
#100=ADVANCED_FACE('',(#199),#200,.T.);
#101=PRESENTATION_STYLE_ASSIGNMENT((#201));
#102=ADVANCED_FACE('',(#202),#203,.T.);
#103=PRESENTATION_STYLE_ASSIGNMENT((#204));
#104=ADVANCED_FACE('',(#205),#206,.T.);
#105=PRESENTATION_STYLE_ASSIGNMENT((#207));
#106=ADVANCED_FACE('',(#208),#209,.T.);
#107=PRODUCT('1824086P','1824086P','PART-1824086P-DESC',(#210));
#108=PRODUCT_DEFINITION('','NONE',#211,#2);
#109=MANIFOLD_SOLID_BREP('1824086P',#212);
#110=AXIS2_PLACEMENT_3D('',#213,#214,#215);
#113=LENGTH_MEASURE_WITH_UNIT(LENGTH_MEASURE(1.0),#216);
#116=DIMENSIONAL_EXPONENTS(1.0,0.0,0.0,0.0,0.0,0.0,0.0);
#118=DIMENSIONAL_EXPONENTS(0.0,0.0,0.0,0.0,0.0,0.0,0.0);
#124=SURFACE_STYLE_USAGE(.BOTH.,#217);
#125=FACE_OUTER_BOUND('',#218,.T.);
#126=FACE_BOUND('',#219,.T.);
#127=PLANE('',#220);
#128=SURFACE_STYLE_USAGE(.BOTH.,#221);
#129=FACE_OUTER_BOUND('',#222,.T.);
#130=PLANE('',#223);
#131=SURFACE_STYLE_USAGE(.BOTH.,#224);
#132=FACE_OUTER_BOUND('',#225,.T.);
#133=CYLINDRICAL_SURFACE('',#226,0.2);
#134=SURFACE_STYLE_USAGE(.BOTH.,#227);
#135=FACE_OUTER_BOUND('',#228,.T.);
#136=PLANE('',#229);
#137=SURFACE_STYLE_USAGE(.BOTH.,#230);
#138=FACE_OUTER_BOUND('',#231,.T.);
#139=CYLINDRICAL_SURFACE('',#232,0.2);
#140=SURFACE_STYLE_USAGE(.BOTH.,#233);
#141=FACE_OUTER_BOUND('',#234,.T.);
#142=PLANE('',#235);
#143=SURFACE_STYLE_USAGE(.BOTH.,#236);
#144=FACE_OUTER_BOUND('',#237,.T.);
#145=CYLINDRICAL_SURFACE('',#238,0.2);
#146=SURFACE_STYLE_USAGE(.BOTH.,#239);
#147=FACE_OUTER_BOUND('',#240,.T.);
#148=PLANE('',#241);
#149=SURFACE_STYLE_USAGE(.BOTH.,#242);
#150=FACE_OUTER_BOUND('',#243,.T.);
#151=CYLINDRICAL_SURFACE('',#244,0.2);
#152=SURFACE_STYLE_USAGE(.BOTH.,#245);
#153=FACE_OUTER_BOUND('',#246,.T.);
#154=PLANE('',#247);
#155=SURFACE_STYLE_USAGE(.BOTH.,#248);
#156=FACE_OUTER_BOUND('',#249,.T.);
#157=PLANE('',#250);
#158=SURFACE_STYLE_USAGE(.BOTH.,#251);
#159=FACE_OUTER_BOUND('',#252,.T.);
#160=CYLINDRICAL_SURFACE('',#253,0.1);
#161=SURFACE_STYLE_USAGE(.BOTH.,#254);
#162=FACE_OUTER_BOUND('',#255,.T.);
#163=PLANE('',#256);
#164=SURFACE_STYLE_USAGE(.BOTH.,#257);
#165=FACE_OUTER_BOUND('',#258,.T.);
#166=CYLINDRICAL_SURFACE('',#259,0.1);
#167=SURFACE_STYLE_USAGE(.BOTH.,#260);
#168=FACE_OUTER_BOUND('',#261,.T.);
#169=FACE_BOUND('',#262,.T.);
#170=PLANE('',#263);
#171=SURFACE_STYLE_USAGE(.BOTH.,#264);
#172=FACE_OUTER_BOUND('',#265,.T.);
#173=PLANE('',#266);
#174=SURFACE_STYLE_USAGE(.BOTH.,#267);
#175=FACE_OUTER_BOUND('',#268,.T.);
#176=CYLINDRICAL_SURFACE('',#269,0.2);
#177=SURFACE_STYLE_USAGE(.BOTH.,#270);
#178=FACE_OUTER_BOUND('',#271,.T.);
#179=PLANE('',#272);
#180=SURFACE_STYLE_USAGE(.BOTH.,#273);
#181=FACE_OUTER_BOUND('',#274,.T.);
#182=CYLINDRICAL_SURFACE('',#275,0.2);
#183=SURFACE_STYLE_USAGE(.BOTH.,#276);
#184=FACE_OUTER_BOUND('',#277,.T.);
#185=PLANE('',#278);
#186=SURFACE_STYLE_USAGE(.BOTH.,#279);
#187=FACE_OUTER_BOUND('',#280,.T.);
#188=CYLINDRICAL_SURFACE('',#281,0.2);
#189=SURFACE_STYLE_USAGE(.BOTH.,#282);
#190=FACE_OUTER_BOUND('',#283,.T.);
#191=PLANE('',#284);
#192=SURFACE_STYLE_USAGE(.BOTH.,#285);
#193=FACE_OUTER_BOUND('',#286,.T.);
#194=CYLINDRICAL_SURFACE('',#287,0.2);
#195=SURFACE_STYLE_USAGE(.BOTH.,#288);
#196=FACE_OUTER_BOUND('',#289,.T.);
#197=PLANE('',#290);
#198=SURFACE_STYLE_USAGE(.BOTH.,#291);
#199=FACE_OUTER_BOUND('',#292,.T.);
#200=PLANE('',#293);
#201=SURFACE_STYLE_USAGE(.BOTH.,#294);
#202=FACE_OUTER_BOUND('',#295,.T.);
#203=CYLINDRICAL_SURFACE('',#296,0.1);
#204=SURFACE_STYLE_USAGE(.BOTH.,#297);
#205=FACE_OUTER_BOUND('',#298,.T.);
#206=PLANE('',#299);
#207=SURFACE_STYLE_USAGE(.BOTH.,#300);
#208=FACE_OUTER_BOUND('',#301,.T.);
#209=CYLINDRICAL_SURFACE('',#302,0.1);
#210=PRODUCT_CONTEXT('',#38,'mechanical');
#211=PRODUCT_DEFINITION_FORMATION_WITH_SPECIFIED_SOURCE(' ','NONE',#107,.NOT_KNOWN.);
#212=CLOSED_SHELL('',(#52,#54,#56,#58,#60,#62,#64,#66,#68,#70,#72,#74,#76,#78,#80,#82,#84,#86,#88,#90,#92,#94,#96,#98,#100,#102,#104,#106));
#213=CARTESIAN_POINT('',(0.0,0.0,0.0));
#214=DIRECTION('',(0.0,0.0,1.0));
#215=DIRECTION('',(1.0,0.0,0.0));
#216= (NAMED_UNIT(#116)LENGTH_UNIT()SI_UNIT(.MILLI.,.METRE.));
#217=SURFACE_SIDE_STYLE('',(#304));
#218=EDGE_LOOP('',(#305,#306,#307,#308,#309,#310,#311,#312));
#219=EDGE_LOOP('',(#313,#314,#315,#316,#317,#318,#319,#320));
#220=AXIS2_PLACEMENT_3D('',#321,#322,#323);
#221=SURFACE_SIDE_STYLE('',(#324));
#222=EDGE_LOOP('',(#325,#326,#327,#328));
#223=AXIS2_PLACEMENT_3D('',#329,#330,#331);
#224=SURFACE_SIDE_STYLE('',(#332));
#225=EDGE_LOOP('',(#333,#334,#335,#336));
#226=AXIS2_PLACEMENT_3D('',#337,#338,#339);
#227=SURFACE_SIDE_STYLE('',(#340));
#228=EDGE_LOOP('',(#341,#342,#343,#344));
#229=AXIS2_PLACEMENT_3D('',#345,#346,#347);
#230=SURFACE_SIDE_STYLE('',(#348));
#231=EDGE_LOOP('',(#349,#350,#351,#352));
#232=AXIS2_PLACEMENT_3D('',#353,#354,#355);
#233=SURFACE_SIDE_STYLE('',(#356));
#234=EDGE_LOOP('',(#357,#358,#359,#360));
#235=AXIS2_PLACEMENT_3D('',#361,#362,#363);
#236=SURFACE_SIDE_STYLE('',(#364));
#237=EDGE_LOOP('',(#365,#366,#367,#368));
#238=AXIS2_PLACEMENT_3D('',#369,#370,#371);
#239=SURFACE_SIDE_STYLE('',(#372));
#240=EDGE_LOOP('',(#373,#374,#375,#376));
#241=AXIS2_PLACEMENT_3D('',#377,#378,#379);
#242=SURFACE_SIDE_STYLE('',(#380));
#243=EDGE_LOOP('',(#381,#382,#383,#384));
#244=AXIS2_PLACEMENT_3D('',#385,#386,#387);
#245=SURFACE_SIDE_STYLE('',(#388));
#246=EDGE_LOOP('',(#389,#390,#391,#392,#393,#394,#395,#396));
#247=AXIS2_PLACEMENT_3D('',#397,#398,#399);
#248=SURFACE_SIDE_STYLE('',(#400));
#249=EDGE_LOOP('',(#401,#402,#403,#404));
#250=AXIS2_PLACEMENT_3D('',#405,#406,#407);
#251=SURFACE_SIDE_STYLE('',(#408));
#252=EDGE_LOOP('',(#409,#410,#411,#412));
#253=AXIS2_PLACEMENT_3D('',#413,#414,#415);
#254=SURFACE_SIDE_STYLE('',(#416));
#255=EDGE_LOOP('',(#417,#418,#419,#420));
#256=AXIS2_PLACEMENT_3D('',#421,#422,#423);
#257=SURFACE_SIDE_STYLE('',(#424));
#258=EDGE_LOOP('',(#425,#426,#427,#428));
#259=AXIS2_PLACEMENT_3D('',#429,#430,#431);
#260=SURFACE_SIDE_STYLE('',(#432));
#261=EDGE_LOOP('',(#433,#434,#435,#436,#437,#438,#439,#440));
#262=EDGE_LOOP('',(#441,#442,#443,#444,#445,#446,#447,#448));
#263=AXIS2_PLACEMENT_3D('',#449,#450,#451);
#264=SURFACE_SIDE_STYLE('',(#452));
#265=EDGE_LOOP('',(#453,#454,#455,#456));
#266=AXIS2_PLACEMENT_3D('',#457,#458,#459);
#267=SURFACE_SIDE_STYLE('',(#460));
#268=EDGE_LOOP('',(#461,#462,#463,#464));
#269=AXIS2_PLACEMENT_3D('',#465,#466,#467);
#270=SURFACE_SIDE_STYLE('',(#468));
#271=EDGE_LOOP('',(#469,#470,#471,#472));
#272=AXIS2_PLACEMENT_3D('',#473,#474,#475);
#273=SURFACE_SIDE_STYLE('',(#476));
#274=EDGE_LOOP('',(#477,#478,#479,#480));
#275=AXIS2_PLACEMENT_3D('',#481,#482,#483);
#276=SURFACE_SIDE_STYLE('',(#484));
#277=EDGE_LOOP('',(#485,#486,#487,#488));
#278=AXIS2_PLACEMENT_3D('',#489,#490,#491);
#279=SURFACE_SIDE_STYLE('',(#492));
#280=EDGE_LOOP('',(#493,#494,#495,#496));
#281=AXIS2_PLACEMENT_3D('',#497,#498,#499);
#282=SURFACE_SIDE_STYLE('',(#500));
#283=EDGE_LOOP('',(#501,#502,#503,#504));
#284=AXIS2_PLACEMENT_3D('',#505,#506,#507);
#285=SURFACE_SIDE_STYLE('',(#508));
#286=EDGE_LOOP('',(#509,#510,#511,#512));
#287=AXIS2_PLACEMENT_3D('',#513,#514,#515);
#288=SURFACE_SIDE_STYLE('',(#516));
#289=EDGE_LOOP('',(#517,#518,#519,#520,#521,#522,#523,#524));
#290=AXIS2_PLACEMENT_3D('',#525,#526,#527);
#291=SURFACE_SIDE_STYLE('',(#528));
#292=EDGE_LOOP('',(#529,#530,#531,#532));
#293=AXIS2_PLACEMENT_3D('',#533,#534,#535);
#294=SURFACE_SIDE_STYLE('',(#536));
#295=EDGE_LOOP('',(#537,#538,#539,#540));
#296=AXIS2_PLACEMENT_3D('',#541,#542,#543);
#297=SURFACE_SIDE_STYLE('',(#544));
#298=EDGE_LOOP('',(#545,#546,#547,#548));
#299=AXIS2_PLACEMENT_3D('',#549,#550,#551);
#300=SURFACE_SIDE_STYLE('',(#552));
#301=EDGE_LOOP('',(#553,#554,#555,#556));
#302=AXIS2_PLACEMENT_3D('',#557,#558,#559);
#304=SURFACE_STYLE_FILL_AREA(#560);
#305=ORIENTED_EDGE('',*,*,#561,.F.);
#306=ORIENTED_EDGE('',*,*,#562,.F.);
#307=ORIENTED_EDGE('',*,*,#563,.F.);
#308=ORIENTED_EDGE('',*,*,#564,.F.);
#309=ORIENTED_EDGE('',*,*,#565,.F.);
#310=ORIENTED_EDGE('',*,*,#566,.F.);
#311=ORIENTED_EDGE('',*,*,#567,.F.);
#312=ORIENTED_EDGE('',*,*,#568,.F.);
#313=ORIENTED_EDGE('',*,*,#569,.F.);
#314=ORIENTED_EDGE('',*,*,#570,.F.);
#315=ORIENTED_EDGE('',*,*,#571,.F.);
#316=ORIENTED_EDGE('',*,*,#572,.F.);
#317=ORIENTED_EDGE('',*,*,#573,.F.);
#318=ORIENTED_EDGE('',*,*,#574,.F.);
#319=ORIENTED_EDGE('',*,*,#575,.F.);
#320=ORIENTED_EDGE('',*,*,#576,.F.);
#321=CARTESIAN_POINT('',(1.6,5.55111512312578E-17,-2.40557859311234E-17));
#322=DIRECTION('',(-1.0,0.0,-1.83690953073357E-16));
#323=DIRECTION('',(-1.83690953073357E-16,0.0,1.0));
#324=SURFACE_STYLE_FILL_AREA(#577);
#325=ORIENTED_EDGE('',*,*,#561,.T.);
#326=ORIENTED_EDGE('',*,*,#578,.F.);
#327=ORIENTED_EDGE('',*,*,#579,.F.);
#328=ORIENTED_EDGE('',*,*,#580,.T.);
#329=CARTESIAN_POINT('',(3.05,0.0,1.3));
#330=DIRECTION('',(-1.83690953073357E-16,0.0,1.0));
#331=DIRECTION('',(0.0,1.0,0.0));
#332=SURFACE_STYLE_FILL_AREA(#581);
#333=ORIENTED_EDGE('',*,*,#568,.T.);
#334=ORIENTED_EDGE('',*,*,#582,.F.);
#335=ORIENTED_EDGE('',*,*,#583,.T.);
#336=ORIENTED_EDGE('',*,*,#578,.T.);
#337=CARTESIAN_POINT('',(3.05,-1.1,1.1));
#338=DIRECTION('',(-1.0,0.0,-1.83690953073357E-16));
#339=DIRECTION('',(-1.83690953073357E-16,0.0,1.0));
#340=SURFACE_STYLE_FILL_AREA(#584);
#341=ORIENTED_EDGE('',*,*,#567,.T.);
#342=ORIENTED_EDGE('',*,*,#585,.F.);
#343=ORIENTED_EDGE('',*,*,#586,.T.);
#344=ORIENTED_EDGE('',*,*,#582,.T.);
#345=CARTESIAN_POINT('',(3.05,-1.3,3.73504937915825E-16));
#346=DIRECTION('',(-0.0,-1.0,0.0));
#347=DIRECTION('',(-1.83690953073357E-16,0.0,1.0));
#348=SURFACE_STYLE_FILL_AREA(#587);
#349=ORIENTED_EDGE('',*,*,#566,.T.);
#350=ORIENTED_EDGE('',*,*,#588,.F.);
#351=ORIENTED_EDGE('',*,*,#589,.T.);
#352=ORIENTED_EDGE('',*,*,#585,.T.);
#353=CARTESIAN_POINT('',(3.05,-1.1,-1.1));
#354=DIRECTION('',(-1.0,0.0,-1.83690953073357E-16));
#355=DIRECTION('',(-1.83690953073357E-16,0.0,1.0));
#356=SURFACE_STYLE_FILL_AREA(#590);
#357=ORIENTED_EDGE('',*,*,#565,.T.);
#358=ORIENTED_EDGE('',*,*,#591,.F.);
#359=ORIENTED_EDGE('',*,*,#592,.T.);
#360=ORIENTED_EDGE('',*,*,#588,.T.);
#361=CARTESIAN_POINT('',(3.05,2.22044604925031E-16,-1.3));
#362=DIRECTION('',(1.83690953073357E-16,2.01858731750028E-16,-1.0));
#363=DIRECTION('',(3.70796228213417E-32,-1.0,-2.01858731750028E-16));
#364=SURFACE_STYLE_FILL_AREA(#593);
#365=ORIENTED_EDGE('',*,*,#564,.T.);
#366=ORIENTED_EDGE('',*,*,#594,.F.);
#367=ORIENTED_EDGE('',*,*,#595,.T.);
#368=ORIENTED_EDGE('',*,*,#591,.T.);
#369=CARTESIAN_POINT('',(3.05,1.1,-1.1));
#370=DIRECTION('',(-1.0,0.0,-1.83690953073357E-16));
#371=DIRECTION('',(-1.83690953073357E-16,0.0,1.0));
#372=SURFACE_STYLE_FILL_AREA(#596);
#373=ORIENTED_EDGE('',*,*,#563,.T.);
#374=ORIENTED_EDGE('',*,*,#597,.F.);
#375=ORIENTED_EDGE('',*,*,#598,.T.);
#376=ORIENTED_EDGE('',*,*,#594,.T.);
#377=CARTESIAN_POINT('',(3.05,1.3,3.73504937915825E-16));
#378=DIRECTION('',(-1.85398114106709E-32,1.0,1.00929365875014E-16));
#379=DIRECTION('',(1.83690953073357E-16,1.00929365875014E-16,-1.0));
#380=SURFACE_STYLE_FILL_AREA(#599);
#381=ORIENTED_EDGE('',*,*,#562,.T.);
#382=ORIENTED_EDGE('',*,*,#580,.F.);
#383=ORIENTED_EDGE('',*,*,#600,.T.);
#384=ORIENTED_EDGE('',*,*,#597,.T.);
#385=CARTESIAN_POINT('',(3.05,1.1,1.1));
#386=DIRECTION('',(-1.0,0.0,-1.83690953073357E-16));
#387=DIRECTION('',(-1.83690953073357E-16,0.0,1.0));
#388=SURFACE_STYLE_FILL_AREA(#601);
#389=ORIENTED_EDGE('',*,*,#600,.F.);
#390=ORIENTED_EDGE('',*,*,#579,.T.);
#391=ORIENTED_EDGE('',*,*,#583,.F.);
#392=ORIENTED_EDGE('',*,*,#586,.F.);
#393=ORIENTED_EDGE('',*,*,#589,.F.);
#394=ORIENTED_EDGE('',*,*,#592,.F.);
#395=ORIENTED_EDGE('',*,*,#595,.F.);
#396=ORIENTED_EDGE('',*,*,#598,.F.);
#397=CARTESIAN_POINT('',(3.05,5.55111512312578E-17,2.42296096025244E-16));
#398=DIRECTION('',(-1.0,0.0,-1.83690953073357E-16));
#399=DIRECTION('',(-1.83690953073357E-16,0.0,1.0));
#400=SURFACE_STYLE_FILL_AREA(#602);
#401=ORIENTED_EDGE('',*,*,#573,.T.);
#402=ORIENTED_EDGE('',*,*,#603,.F.);
#403=ORIENTED_EDGE('',*,*,#604,.T.);
#404=ORIENTED_EDGE('',*,*,#605,.T.);
#405=CARTESIAN_POINT('',(-2.55,0.0,-1.15));
#406=DIRECTION('',(6.12303176911189E-17,0.0,-1.0));
#407=DIRECTION('',(0.0,1.0,0.0));
#408=SURFACE_STYLE_FILL_AREA(#606);
#409=ORIENTED_EDGE('',*,*,#572,.T.);
#410=ORIENTED_EDGE('',*,*,#607,.F.);
#411=ORIENTED_EDGE('',*,*,#608,.T.);
#412=ORIENTED_EDGE('',*,*,#603,.T.);
#413=CARTESIAN_POINT('',(-2.55,-1.05,-1.05));
#414=DIRECTION('',(1.0,0.0,6.12303176911189E-17));
#415=DIRECTION('',(6.12303176911189E-17,0.0,-1.0));
#416=SURFACE_STYLE_FILL_AREA(#609);
#417=ORIENTED_EDGE('',*,*,#571,.T.);
#418=ORIENTED_EDGE('',*,*,#610,.F.);
#419=ORIENTED_EDGE('',*,*,#611,.T.);
#420=ORIENTED_EDGE('',*,*,#607,.T.);
#421=CARTESIAN_POINT('',(-2.55,-1.15,0.0));
#422=DIRECTION('',(0.0,-1.0,0.0));
#423=DIRECTION('',(6.12303176911189E-17,0.0,-1.0));
#424=SURFACE_STYLE_FILL_AREA(#612);
#425=ORIENTED_EDGE('',*,*,#570,.T.);
#426=ORIENTED_EDGE('',*,*,#613,.F.);
#427=ORIENTED_EDGE('',*,*,#614,.T.);
#428=ORIENTED_EDGE('',*,*,#610,.T.);
#429=CARTESIAN_POINT('',(-2.55,-1.05,1.05));
#430=DIRECTION('',(1.0,0.0,6.12303176911189E-17));
#431=DIRECTION('',(6.12303176911189E-17,0.0,-1.0));
#432=SURFACE_STYLE_FILL_AREA(#615);
#433=ORIENTED_EDGE('',*,*,#616,.F.);
#434=ORIENTED_EDGE('',*,*,#617,.F.);
#435=ORIENTED_EDGE('',*,*,#618,.F.);
#436=ORIENTED_EDGE('',*,*,#619,.F.);
#437=ORIENTED_EDGE('',*,*,#620,.F.);
#438=ORIENTED_EDGE('',*,*,#621,.F.);
#439=ORIENTED_EDGE('',*,*,#622,.F.);
#440=ORIENTED_EDGE('',*,*,#623,.F.);
#441=ORIENTED_EDGE('',*,*,#604,.F.);
#442=ORIENTED_EDGE('',*,*,#608,.F.);
#443=ORIENTED_EDGE('',*,*,#611,.F.);
#444=ORIENTED_EDGE('',*,*,#614,.F.);
#445=ORIENTED_EDGE('',*,*,#624,.F.);
#446=ORIENTED_EDGE('',*,*,#625,.F.);
#447=ORIENTED_EDGE('',*,*,#626,.F.);
#448=ORIENTED_EDGE('',*,*,#627,.F.);
#449=CARTESIAN_POINT('',(-1.6,5.55111512312578E-17,2.19992802542704E-16));
#450=DIRECTION('',(1.0,0.0,6.12303176911189E-17));
#451=DIRECTION('',(6.12303176911189E-17,0.0,-1.0));
#452=SURFACE_STYLE_FILL_AREA(#628);
#453=ORIENTED_EDGE('',*,*,#616,.T.);
#454=ORIENTED_EDGE('',*,*,#629,.F.);
#455=ORIENTED_EDGE('',*,*,#630,.F.);
#456=ORIENTED_EDGE('',*,*,#631,.T.);
#457=CARTESIAN_POINT('',(-3.05,0.0,-1.3));
#458=DIRECTION('',(6.12303176911189E-17,0.0,-1.0));
#459=DIRECTION('',(0.0,1.0,0.0));
#460=SURFACE_STYLE_FILL_AREA(#632);
#461=ORIENTED_EDGE('',*,*,#623,.T.);
#462=ORIENTED_EDGE('',*,*,#633,.F.);
#463=ORIENTED_EDGE('',*,*,#634,.T.);
#464=ORIENTED_EDGE('',*,*,#629,.T.);
#465=CARTESIAN_POINT('',(-3.05,-1.1,-1.1));
#466=DIRECTION('',(1.0,0.0,6.12303176911189E-17));
#467=DIRECTION('',(6.12303176911189E-17,0.0,-1.0));
#468=SURFACE_STYLE_FILL_AREA(#635);
#469=ORIENTED_EDGE('',*,*,#622,.T.);
#470=ORIENTED_EDGE('',*,*,#636,.F.);
#471=ORIENTED_EDGE('',*,*,#637,.T.);
#472=ORIENTED_EDGE('',*,*,#633,.T.);
#473=CARTESIAN_POINT('',(-3.05,-1.3,0.0));
#474=DIRECTION('',(0.0,-1.0,0.0));
#475=DIRECTION('',(6.12303176911189E-17,0.0,-1.0));
#476=SURFACE_STYLE_FILL_AREA(#638);
#477=ORIENTED_EDGE('',*,*,#621,.T.);
#478=ORIENTED_EDGE('',*,*,#639,.F.);
#479=ORIENTED_EDGE('',*,*,#640,.T.);
#480=ORIENTED_EDGE('',*,*,#636,.T.);
#481=CARTESIAN_POINT('',(-3.05,-1.1,1.1));
#482=DIRECTION('',(1.0,0.0,6.12303176911189E-17));
#483=DIRECTION('',(6.12303176911189E-17,0.0,-1.0));
#484=SURFACE_STYLE_FILL_AREA(#641);
#485=ORIENTED_EDGE('',*,*,#620,.T.);
#486=ORIENTED_EDGE('',*,*,#642,.F.);
#487=ORIENTED_EDGE('',*,*,#643,.T.);
#488=ORIENTED_EDGE('',*,*,#639,.T.);
#489=CARTESIAN_POINT('',(-3.05,2.22044604925031E-16,1.3));
#490=DIRECTION('',(-6.12303176911189E-17,2.01858731750028E-16,1.0));
#491=DIRECTION('',(-1.23598742737806E-32,-1.0,2.01858731750028E-16));
#492=SURFACE_STYLE_FILL_AREA(#644);
#493=ORIENTED_EDGE('',*,*,#619,.T.);
#494=ORIENTED_EDGE('',*,*,#645,.F.);
#495=ORIENTED_EDGE('',*,*,#646,.T.);
#496=ORIENTED_EDGE('',*,*,#642,.T.);
#497=CARTESIAN_POINT('',(-3.05,1.1,1.1));
#498=DIRECTION('',(1.0,0.0,6.12303176911189E-17));
#499=DIRECTION('',(6.12303176911189E-17,0.0,-1.0));
#500=SURFACE_STYLE_FILL_AREA(#647);
#501=ORIENTED_EDGE('',*,*,#618,.T.);
#502=ORIENTED_EDGE('',*,*,#648,.F.);
#503=ORIENTED_EDGE('',*,*,#649,.T.);
#504=ORIENTED_EDGE('',*,*,#645,.T.);
#505=CARTESIAN_POINT('',(-3.05,1.3,0.0));
#506=DIRECTION('',(6.17993713689029E-33,1.0,-1.00929365875014E-16));
#507=DIRECTION('',(-6.12303176911189E-17,1.00929365875014E-16,1.0));
#508=SURFACE_STYLE_FILL_AREA(#650);
#509=ORIENTED_EDGE('',*,*,#617,.T.);
#510=ORIENTED_EDGE('',*,*,#631,.F.);
#511=ORIENTED_EDGE('',*,*,#651,.T.);
#512=ORIENTED_EDGE('',*,*,#648,.T.);
#513=CARTESIAN_POINT('',(-3.05,1.1,-1.1));
#514=DIRECTION('',(1.0,0.0,6.12303176911189E-17));
#515=DIRECTION('',(6.12303176911189E-17,0.0,-1.0));
#516=SURFACE_STYLE_FILL_AREA(#652);
#517=ORIENTED_EDGE('',*,*,#651,.F.);
#518=ORIENTED_EDGE('',*,*,#630,.T.);
#519=ORIENTED_EDGE('',*,*,#634,.F.);
#520=ORIENTED_EDGE('',*,*,#637,.F.);
#521=ORIENTED_EDGE('',*,*,#640,.F.);
#522=ORIENTED_EDGE('',*,*,#643,.F.);
#523=ORIENTED_EDGE('',*,*,#646,.F.);
#524=ORIENTED_EDGE('',*,*,#649,.F.);
#525=CARTESIAN_POINT('',(-3.05,5.55111512312578E-17,1.31208841890581E-16));
#526=DIRECTION('',(1.0,0.0,6.12303176911189E-17));
#527=DIRECTION('',(6.12303176911189E-17,0.0,-1.0));
#528=SURFACE_STYLE_FILL_AREA(#653);
#529=ORIENTED_EDGE('',*,*,#569,.T.);
#530=ORIENTED_EDGE('',*,*,#654,.F.);
#531=ORIENTED_EDGE('',*,*,#624,.T.);
#532=ORIENTED_EDGE('',*,*,#613,.T.);
#533=CARTESIAN_POINT('',(-2.55,2.22044604925031E-16,1.15));
#534=DIRECTION('',(-6.12303176911189E-17,2.11471052309554E-16,1.0));
#535=DIRECTION('',(-1.29484397153892E-32,-1.0,2.11471052309554E-16));
#536=SURFACE_STYLE_FILL_AREA(#655);
#537=ORIENTED_EDGE('',*,*,#576,.T.);
#538=ORIENTED_EDGE('',*,*,#656,.F.);
#539=ORIENTED_EDGE('',*,*,#625,.T.);
#540=ORIENTED_EDGE('',*,*,#654,.T.);
#541=CARTESIAN_POINT('',(-2.55,1.05,1.05));
#542=DIRECTION('',(1.0,0.0,6.12303176911189E-17));
#543=DIRECTION('',(6.12303176911189E-17,0.0,-1.0));
#544=SURFACE_STYLE_FILL_AREA(#657);
#545=ORIENTED_EDGE('',*,*,#575,.T.);
#546=ORIENTED_EDGE('',*,*,#658,.F.);
#547=ORIENTED_EDGE('',*,*,#626,.T.);
#548=ORIENTED_EDGE('',*,*,#656,.T.);
#549=CARTESIAN_POINT('',(-2.55,1.15,0.0));
#550=DIRECTION('',(6.47421985769459E-33,1.0,-1.05735526154777E-16));
#551=DIRECTION('',(-6.12303176911189E-17,1.05735526154777E-16,1.0));
#552=SURFACE_STYLE_FILL_AREA(#659);
#553=ORIENTED_EDGE('',*,*,#574,.T.);
#554=ORIENTED_EDGE('',*,*,#605,.F.);
#555=ORIENTED_EDGE('',*,*,#627,.T.);
#556=ORIENTED_EDGE('',*,*,#658,.T.);
#557=CARTESIAN_POINT('',(-2.55,1.05,-1.05));
#558=DIRECTION('',(1.0,0.0,6.12303176911189E-17));
#559=DIRECTION('',(6.12303176911189E-17,0.0,-1.0));
#560=FILL_AREA_STYLE('',(#660));
#561=EDGE_CURVE('',#661,#662,#663,.T.);
#562=EDGE_CURVE('',#664,#661,#665,.T.);
#563=EDGE_CURVE('',#666,#664,#667,.T.);
#564=EDGE_CURVE('',#668,#666,#669,.T.);
#565=EDGE_CURVE('',#670,#668,#671,.T.);
#566=EDGE_CURVE('',#672,#670,#673,.T.);
#567=EDGE_CURVE('',#674,#672,#675,.T.);
#568=EDGE_CURVE('',#662,#674,#676,.T.);
#569=EDGE_CURVE('',#677,#678,#679,.T.);
#570=EDGE_CURVE('',#680,#677,#681,.T.);
#571=EDGE_CURVE('',#682,#680,#683,.T.);
#572=EDGE_CURVE('',#684,#682,#685,.T.);
#573=EDGE_CURVE('',#686,#684,#687,.T.);
#574=EDGE_CURVE('',#688,#686,#689,.T.);
#575=EDGE_CURVE('',#690,#688,#691,.T.);
#576=EDGE_CURVE('',#678,#690,#692,.T.);
#577=FILL_AREA_STYLE('',(#693));
#578=EDGE_CURVE('',#694,#662,#695,.T.);
#579=EDGE_CURVE('',#696,#694,#697,.T.);
#580=EDGE_CURVE('',#696,#661,#698,.T.);
#581=FILL_AREA_STYLE('',(#699));
#582=EDGE_CURVE('',#700,#674,#701,.T.);
#583=EDGE_CURVE('',#700,#694,#702,.T.);
#584=FILL_AREA_STYLE('',(#703));
#585=EDGE_CURVE('',#704,#672,#705,.T.);
#586=EDGE_CURVE('',#704,#700,#706,.T.);
#587=FILL_AREA_STYLE('',(#707));
#588=EDGE_CURVE('',#708,#670,#709,.T.);
#589=EDGE_CURVE('',#708,#704,#710,.T.);
#590=FILL_AREA_STYLE('',(#711));
#591=EDGE_CURVE('',#712,#668,#713,.T.);
#592=EDGE_CURVE('',#712,#708,#714,.T.);
#593=FILL_AREA_STYLE('',(#715));
#594=EDGE_CURVE('',#716,#666,#717,.T.);
#595=EDGE_CURVE('',#716,#712,#718,.T.);
#596=FILL_AREA_STYLE('',(#719));
#597=EDGE_CURVE('',#720,#664,#721,.T.);
#598=EDGE_CURVE('',#720,#716,#722,.T.);
#599=FILL_AREA_STYLE('',(#723));
#600=EDGE_CURVE('',#696,#720,#724,.T.);
#601=FILL_AREA_STYLE('',(#725));
#602=FILL_AREA_STYLE('',(#726));
#603=EDGE_CURVE('',#727,#684,#728,.T.);
#604=EDGE_CURVE('',#727,#729,#730,.T.);
#605=EDGE_CURVE('',#729,#686,#731,.T.);
#606=FILL_AREA_STYLE('',(#732));
#607=EDGE_CURVE('',#733,#682,#734,.T.);
#608=EDGE_CURVE('',#733,#727,#735,.T.);
#609=FILL_AREA_STYLE('',(#736));
#610=EDGE_CURVE('',#737,#680,#738,.T.);
#611=EDGE_CURVE('',#737,#733,#739,.T.);
#612=FILL_AREA_STYLE('',(#740));
#613=EDGE_CURVE('',#741,#677,#742,.T.);
#614=EDGE_CURVE('',#741,#737,#743,.T.);
#615=FILL_AREA_STYLE('',(#744));
#616=EDGE_CURVE('',#745,#746,#747,.T.);
#617=EDGE_CURVE('',#748,#745,#749,.T.);
#618=EDGE_CURVE('',#750,#748,#751,.T.);
#619=EDGE_CURVE('',#752,#750,#753,.T.);
#620=EDGE_CURVE('',#754,#752,#755,.T.);
#621=EDGE_CURVE('',#756,#754,#757,.T.);
#622=EDGE_CURVE('',#758,#756,#759,.T.);
#623=EDGE_CURVE('',#746,#758,#760,.T.);
#624=EDGE_CURVE('',#761,#741,#762,.T.);
#625=EDGE_CURVE('',#763,#761,#764,.T.);
#626=EDGE_CURVE('',#765,#763,#766,.T.);
#627=EDGE_CURVE('',#729,#765,#767,.T.);
#628=FILL_AREA_STYLE('',(#768));
#629=EDGE_CURVE('',#769,#746,#770,.T.);
#630=EDGE_CURVE('',#771,#769,#772,.T.);
#631=EDGE_CURVE('',#771,#745,#773,.T.);
#632=FILL_AREA_STYLE('',(#774));
#633=EDGE_CURVE('',#775,#758,#776,.T.);
#634=EDGE_CURVE('',#775,#769,#777,.T.);
#635=FILL_AREA_STYLE('',(#778));
#636=EDGE_CURVE('',#779,#756,#780,.T.);
#637=EDGE_CURVE('',#779,#775,#781,.T.);
#638=FILL_AREA_STYLE('',(#782));
#639=EDGE_CURVE('',#783,#754,#784,.T.);
#640=EDGE_CURVE('',#783,#779,#785,.T.);
#641=FILL_AREA_STYLE('',(#786));
#642=EDGE_CURVE('',#787,#752,#788,.T.);
#643=EDGE_CURVE('',#787,#783,#789,.T.);
#644=FILL_AREA_STYLE('',(#790));
#645=EDGE_CURVE('',#791,#750,#792,.T.);
#646=EDGE_CURVE('',#791,#787,#793,.T.);
#647=FILL_AREA_STYLE('',(#794));
#648=EDGE_CURVE('',#795,#748,#796,.T.);
#649=EDGE_CURVE('',#795,#791,#797,.T.);
#650=FILL_AREA_STYLE('',(#798));
#651=EDGE_CURVE('',#771,#795,#799,.T.);
#652=FILL_AREA_STYLE('',(#800));
#653=FILL_AREA_STYLE('',(#801));
#654=EDGE_CURVE('',#761,#678,#802,.T.);
#655=FILL_AREA_STYLE('',(#803));
#656=EDGE_CURVE('',#763,#690,#804,.T.);
#657=FILL_AREA_STYLE('',(#805));
#658=EDGE_CURVE('',#765,#688,#806,.T.);
#659=FILL_AREA_STYLE('',(#807));
#660=FILL_AREA_STYLE_COLOUR('',#808);
#661=VERTEX_POINT('',#809);
#662=VERTEX_POINT('',#810);
#663=LINE('',#811,#812);
#664=VERTEX_POINT('',#813);
#665=CIRCLE('',#814,0.2);
#666=VERTEX_POINT('',#815);
#667=LINE('',#816,#817);
#668=VERTEX_POINT('',#818);
#669=CIRCLE('',#819,0.2);
#670=VERTEX_POINT('',#820);
#671=LINE('',#821,#822);
#672=VERTEX_POINT('',#823);
#673=CIRCLE('',#824,0.2);
#674=VERTEX_POINT('',#825);
#675=LINE('',#826,#827);
#676=CIRCLE('',#828,0.2);
#677=VERTEX_POINT('',#829);
#678=VERTEX_POINT('',#830);
#679=LINE('',#831,#832);
#680=VERTEX_POINT('',#833);
#681=CIRCLE('',#834,0.1);
#682=VERTEX_POINT('',#835);
#683=LINE('',#836,#837);
#684=VERTEX_POINT('',#838);
#685=CIRCLE('',#839,0.1);
#686=VERTEX_POINT('',#840);
#687=LINE('',#841,#842);
#688=VERTEX_POINT('',#843);
#689=CIRCLE('',#844,0.1);
#690=VERTEX_POINT('',#845);
#691=LINE('',#846,#847);
#692=CIRCLE('',#848,0.1);
#693=FILL_AREA_STYLE_COLOUR('',#849);
#694=VERTEX_POINT('',#850);
#695=LINE('',#851,#852);
#696=VERTEX_POINT('',#853);
#697=LINE('',#854,#855);
#698=LINE('',#856,#857);
#699=FILL_AREA_STYLE_COLOUR('',#858);
#700=VERTEX_POINT('',#859);
#701=LINE('',#860,#861);
#702=CIRCLE('',#862,0.2);
#703=FILL_AREA_STYLE_COLOUR('',#863);
#704=VERTEX_POINT('',#864);
#705=LINE('',#865,#866);
#706=LINE('',#867,#868);
#707=FILL_AREA_STYLE_COLOUR('',#869);
#708=VERTEX_POINT('',#870);
#709=LINE('',#871,#872);
#710=CIRCLE('',#873,0.2);
#711=FILL_AREA_STYLE_COLOUR('',#874);
#712=VERTEX_POINT('',#875);
#713=LINE('',#876,#877);
#714=LINE('',#878,#879);
#715=FILL_AREA_STYLE_COLOUR('',#880);
#716=VERTEX_POINT('',#881);
#717=LINE('',#882,#883);
#718=CIRCLE('',#884,0.2);
#719=FILL_AREA_STYLE_COLOUR('',#885);
#720=VERTEX_POINT('',#886);
#721=LINE('',#887,#888);
#722=LINE('',#889,#890);
#723=FILL_AREA_STYLE_COLOUR('',#891);
#724=CIRCLE('',#892,0.2);
#725=FILL_AREA_STYLE_COLOUR('',#893);
#726=FILL_AREA_STYLE_COLOUR('',#894);
#727=VERTEX_POINT('',#895);
#728=LINE('',#896,#897);
#729=VERTEX_POINT('',#898);
#730=LINE('',#899,#900);
#731=LINE('',#901,#902);
#732=FILL_AREA_STYLE_COLOUR('',#903);
#733=VERTEX_POINT('',#904);
#734=LINE('',#905,#906);
#735=CIRCLE('',#907,0.1);
#736=FILL_AREA_STYLE_COLOUR('',#908);
#737=VERTEX_POINT('',#909);
#738=LINE('',#910,#911);
#739=LINE('',#912,#913);
#740=FILL_AREA_STYLE_COLOUR('',#914);
#741=VERTEX_POINT('',#915);
#742=LINE('',#916,#917);
#743=CIRCLE('',#918,0.1);
#744=FILL_AREA_STYLE_COLOUR('',#919);
#745=VERTEX_POINT('',#920);
#746=VERTEX_POINT('',#921);
#747=LINE('',#922,#923);
#748=VERTEX_POINT('',#924);
#749=CIRCLE('',#925,0.2);
#750=VERTEX_POINT('',#926);
#751=LINE('',#927,#928);
#752=VERTEX_POINT('',#929);
#753=CIRCLE('',#930,0.2);
#754=VERTEX_POINT('',#931);
#755=LINE('',#932,#933);
#756=VERTEX_POINT('',#934);
#757=CIRCLE('',#935,0.2);
#758=VERTEX_POINT('',#936);
#759=LINE('',#937,#938);
#760=CIRCLE('',#939,0.2);
#761=VERTEX_POINT('',#940);
#762=LINE('',#941,#942);
#763=VERTEX_POINT('',#943);
#764=CIRCLE('',#944,0.1);
#765=VERTEX_POINT('',#945);
#766=LINE('',#946,#947);
#767=CIRCLE('',#948,0.1);
#768=FILL_AREA_STYLE_COLOUR('',#949);
#769=VERTEX_POINT('',#950);
#770=LINE('',#951,#952);
#771=VERTEX_POINT('',#953);
#772=LINE('',#954,#955);
#773=LINE('',#956,#957);
#774=FILL_AREA_STYLE_COLOUR('',#958);
#775=VERTEX_POINT('',#959);
#776=LINE('',#960,#961);
#777=CIRCLE('',#962,0.2);
#778=FILL_AREA_STYLE_COLOUR('',#963);
#779=VERTEX_POINT('',#964);
#780=LINE('',#965,#966);
#781=LINE('',#967,#968);
#782=FILL_AREA_STYLE_COLOUR('',#969);
#783=VERTEX_POINT('',#970);
#784=LINE('',#971,#972);
#785=CIRCLE('',#973,0.2);
#786=FILL_AREA_STYLE_COLOUR('',#974);
#787=VERTEX_POINT('',#975);
#788=LINE('',#976,#977);
#789=LINE('',#978,#979);
#790=FILL_AREA_STYLE_COLOUR('',#980);
#791=VERTEX_POINT('',#981);
#792=LINE('',#982,#983);
#793=CIRCLE('',#984,0.2);
#794=FILL_AREA_STYLE_COLOUR('',#985);
#795=VERTEX_POINT('',#986);
#796=LINE('',#987,#988);
#797=LINE('',#989,#990);
#798=FILL_AREA_STYLE_COLOUR('',#991);
#799=CIRCLE('',#992,0.2);
#800=FILL_AREA_STYLE_COLOUR('',#993);
#801=FILL_AREA_STYLE_COLOUR('',#994);
#802=LINE('',#995,#996);
#803=FILL_AREA_STYLE_COLOUR('',#997);
#804=LINE('',#998,#999);
#805=FILL_AREA_STYLE_COLOUR('',#1000);
#806=LINE('',#1001,#1002);
#807=FILL_AREA_STYLE_COLOUR('',#1003);
#808=COLOUR_RGB('',0.905882358551025,0.854901969432831,0.678431391716003);
#809=CARTESIAN_POINT('',(1.6,1.1,1.3));
#810=CARTESIAN_POINT('',(1.6,-1.1,1.3));
#811=CARTESIAN_POINT('',(1.6,1.1,1.3));
#812=VECTOR('',#1004,1.0);
#813=CARTESIAN_POINT('',(1.6,1.3,1.1));
#814=AXIS2_PLACEMENT_3D('',#1005,#1006,#1007);
#815=CARTESIAN_POINT('',(1.6,1.3,-1.1));
#816=CARTESIAN_POINT('',(1.6,1.3,1.1));
#817=VECTOR('',#1008,1.0);
#818=CARTESIAN_POINT('',(1.6,1.1,-1.3));
#819=AXIS2_PLACEMENT_3D('',#1009,#1010,#1011);
#820=CARTESIAN_POINT('',(1.6,-1.1,-1.3));
#821=CARTESIAN_POINT('',(1.6,1.1,-1.3));
#822=VECTOR('',#1012,1.0);
#823=CARTESIAN_POINT('',(1.6,-1.3,-1.1));
#824=AXIS2_PLACEMENT_3D('',#1013,#1014,#1015);
#825=CARTESIAN_POINT('',(1.6,-1.3,1.1));
#826=CARTESIAN_POINT('',(1.6,-1.3,-1.1));
#827=VECTOR('',#1016,1.0);
#828=AXIS2_PLACEMENT_3D('',#1017,#1018,#1019);
#829=CARTESIAN_POINT('',(1.6,-1.05,1.15));
#830=CARTESIAN_POINT('',(1.6,1.05,1.15));
#831=CARTESIAN_POINT('',(1.6,2.60373733156138E-16,1.15));
#832=VECTOR('',#1020,1.0);
#833=CARTESIAN_POINT('',(1.6,-1.15,1.05));
#834=AXIS2_PLACEMENT_3D('',#1021,#1022,#1023);
#835=CARTESIAN_POINT('',(1.6,-1.15,-1.05));
#836=CARTESIAN_POINT('',(1.6,-1.15,3.69130834661653E-16));
#837=VECTOR('',#1024,1.0);
#838=CARTESIAN_POINT('',(1.6,-1.05,-1.15));
#839=AXIS2_PLACEMENT_3D('',#1025,#1026,#1027);
#840=CARTESIAN_POINT('',(1.6,1.05,-1.15));
#841=CARTESIAN_POINT('',(1.6,2.77555756156289E-17,-1.15));
#842=VECTOR('',#1028,1.0);
#843=CARTESIAN_POINT('',(1.6,1.15,-1.05));
#844=AXIS2_PLACEMENT_3D('',#1029,#1030,#1031);
#845=CARTESIAN_POINT('',(1.6,1.15,1.05));
#846=CARTESIAN_POINT('',(1.6,1.15,3.08332907122656E-16));
#847=VECTOR('',#1032,1.0);
#848=AXIS2_PLACEMENT_3D('',#1033,#1034,#1035);
#849=COLOUR_RGB('',0.905882358551025,0.854901969432831,0.678431391716003);
#850=CARTESIAN_POINT('',(3.05,-1.1,1.3));
#851=CARTESIAN_POINT('',(3.05,-1.1,1.3));
#852=VECTOR('',#1036,1.0);
#853=CARTESIAN_POINT('',(3.05,1.1,1.3));
#854=CARTESIAN_POINT('',(3.05,1.1,1.3));
#855=VECTOR('',#1037,1.0);
#856=CARTESIAN_POINT('',(3.05,1.1,1.3));
#857=VECTOR('',#1038,1.0);
#858=COLOUR_RGB('',0.905882358551025,0.854901969432831,0.678431391716003);
#859=CARTESIAN_POINT('',(3.05,-1.3,1.1));
#860=CARTESIAN_POINT('',(3.05,-1.3,1.1));
#861=VECTOR('',#1039,1.0);
#862=AXIS2_PLACEMENT_3D('',#1040,#1041,#1042);
#863=COLOUR_RGB('',0.905882358551025,0.854901969432831,0.678431391716003);
#864=CARTESIAN_POINT('',(3.05,-1.3,-1.1));
#865=CARTESIAN_POINT('',(3.05,-1.3,-1.1));
#866=VECTOR('',#1043,1.0);
#867=CARTESIAN_POINT('',(3.05,-1.3,-1.1));
#868=VECTOR('',#1044,1.0);
#869=COLOUR_RGB('',0.905882358551025,0.854901969432831,0.678431391716003);
#870=CARTESIAN_POINT('',(3.05,-1.1,-1.3));
#871=CARTESIAN_POINT('',(3.05,-1.1,-1.3));
#872=VECTOR('',#1045,1.0);
#873=AXIS2_PLACEMENT_3D('',#1046,#1047,#1048);
#874=COLOUR_RGB('',0.905882358551025,0.854901969432831,0.678431391716003);
#875=CARTESIAN_POINT('',(3.05,1.1,-1.3));
#876=CARTESIAN_POINT('',(3.05,1.1,-1.3));
#877=VECTOR('',#1049,1.0);
#878=CARTESIAN_POINT('',(3.05,1.1,-1.3));
#879=VECTOR('',#1050,1.0);
#880=COLOUR_RGB('',0.905882358551025,0.854901969432831,0.678431391716003);
#881=CARTESIAN_POINT('',(3.05,1.3,-1.1));
#882=CARTESIAN_POINT('',(3.05,1.3,-1.1));
#883=VECTOR('',#1051,1.0);
#884=AXIS2_PLACEMENT_3D('',#1052,#1053,#1054);
#885=COLOUR_RGB('',0.905882358551025,0.854901969432831,0.678431391716003);
#886=CARTESIAN_POINT('',(3.05,1.3,1.1));
#887=CARTESIAN_POINT('',(3.05,1.3,1.1));
#888=VECTOR('',#1055,1.0);
#889=CARTESIAN_POINT('',(3.05,1.3,1.1));
#890=VECTOR('',#1056,1.0);
#891=COLOUR_RGB('',0.905882358551025,0.854901969432831,0.678431391716003);
#892=AXIS2_PLACEMENT_3D('',#1057,#1058,#1059);
#893=COLOUR_RGB('',0.905882358551025,0.854901969432831,0.678431391716003);
#894=COLOUR_RGB('',1.0,1.0,1.0);
#895=CARTESIAN_POINT('',(-1.6,-1.05,-1.15));
#896=CARTESIAN_POINT('',(-2.55,-1.05,-1.15));
#897=VECTOR('',#1060,1.0);
#898=CARTESIAN_POINT('',(-1.6,1.05,-1.15));
#899=CARTESIAN_POINT('',(-1.6,2.77555756156289E-17,-1.15));
#900=VECTOR('',#1061,1.0);
#901=CARTESIAN_POINT('',(-2.55,1.05,-1.15));
#902=VECTOR('',#1062,1.0);
#903=COLOUR_RGB('',1.0,1.0,1.0);
#904=CARTESIAN_POINT('',(-1.6,-1.15,-1.05));
#905=CARTESIAN_POINT('',(-2.55,-1.15,-1.05));
#906=VECTOR('',#1063,1.0);
#907=AXIS2_PLACEMENT_3D('',#1064,#1065,#1066);
#908=COLOUR_RGB('',1.0,1.0,1.0);
#909=CARTESIAN_POINT('',(-1.6,-1.15,1.05));
#910=CARTESIAN_POINT('',(-2.55,-1.15,1.05));
#911=VECTOR('',#1067,1.0);
#912=CARTESIAN_POINT('',(-1.6,-1.15,1.39080802174633E-16));
#913=VECTOR('',#1068,1.0);
#914=COLOUR_RGB('',1.0,1.0,1.0);
#915=CARTESIAN_POINT('',(-1.6,-1.05,1.15));
#916=CARTESIAN_POINT('',(-2.55,-1.05,1.15));
#917=VECTOR('',#1069,1.0);
#918=AXIS2_PLACEMENT_3D('',#1070,#1071,#1072);
#919=COLOUR_RGB('',0.905882358551025,0.854901969432831,0.678431391716003);
#920=CARTESIAN_POINT('',(-1.6,1.1,-1.3));
#921=CARTESIAN_POINT('',(-1.6,-1.1,-1.3));
#922=CARTESIAN_POINT('',(-1.6,1.1,-1.3));
#923=VECTOR('',#1073,1.0);
#924=CARTESIAN_POINT('',(-1.6,1.3,-1.1));
#925=AXIS2_PLACEMENT_3D('',#1074,#1075,#1076);
#926=CARTESIAN_POINT('',(-1.6,1.3,1.1));
#927=CARTESIAN_POINT('',(-1.6,1.3,-1.1));
#928=VECTOR('',#1077,1.0);
#929=CARTESIAN_POINT('',(-1.6,1.1,1.3));
#930=AXIS2_PLACEMENT_3D('',#1078,#1079,#1080);
#931=CARTESIAN_POINT('',(-1.6,-1.1,1.3));
#932=CARTESIAN_POINT('',(-1.6,1.1,1.3));
#933=VECTOR('',#1081,1.0);
#934=CARTESIAN_POINT('',(-1.6,-1.3,1.1));
#935=AXIS2_PLACEMENT_3D('',#1082,#1083,#1084);
#936=CARTESIAN_POINT('',(-1.6,-1.3,-1.1));
#937=CARTESIAN_POINT('',(-1.6,-1.3,1.1));
#938=VECTOR('',#1085,1.0);
#939=AXIS2_PLACEMENT_3D('',#1086,#1087,#1088);
#940=CARTESIAN_POINT('',(-1.6,1.05,1.15));
#941=CARTESIAN_POINT('',(-1.6,2.60373733156138E-16,1.15));
#942=VECTOR('',#1089,1.0);
#943=CARTESIAN_POINT('',(-1.6,1.15,1.05));
#944=AXIS2_PLACEMENT_3D('',#1090,#1091,#1092);
#945=CARTESIAN_POINT('',(-1.6,1.15,-1.05));
#946=CARTESIAN_POINT('',(-1.6,1.15,7.82828746356367E-17));
#947=VECTOR('',#1093,1.0);
#948=AXIS2_PLACEMENT_3D('',#1094,#1095,#1096);
#949=COLOUR_RGB('',0.905882358551025,0.854901969432831,0.678431391716003);
#950=CARTESIAN_POINT('',(-3.05,-1.1,-1.3));
#951=CARTESIAN_POINT('',(-3.05,-1.1,-1.3));
#952=VECTOR('',#1097,1.0);
#953=CARTESIAN_POINT('',(-3.05,1.1,-1.3));
#954=CARTESIAN_POINT('',(-3.05,1.1,-1.3));
#955=VECTOR('',#1098,1.0);
#956=CARTESIAN_POINT('',(-3.05,1.1,-1.3));
#957=VECTOR('',#1099,1.0);
#958=COLOUR_RGB('',0.905882358551025,0.854901969432831,0.678431391716003);
#959=CARTESIAN_POINT('',(-3.05,-1.3,-1.1));
#960=CARTESIAN_POINT('',(-3.05,-1.3,-1.1));
#961=VECTOR('',#1100,1.0);
#962=AXIS2_PLACEMENT_3D('',#1101,#1102,#1103);
#963=COLOUR_RGB('',0.905882358551025,0.854901969432831,0.678431391716003);
#964=CARTESIAN_POINT('',(-3.05,-1.3,1.1));
#965=CARTESIAN_POINT('',(-3.05,-1.3,1.1));
#966=VECTOR('',#1104,1.0);
#967=CARTESIAN_POINT('',(-3.05,-1.3,1.1));
#968=VECTOR('',#1105,1.0);
#969=COLOUR_RGB('',0.905882358551025,0.854901969432831,0.678431391716003);
#970=CARTESIAN_POINT('',(-3.05,-1.1,1.3));
#971=CARTESIAN_POINT('',(-3.05,-1.1,1.3));
#972=VECTOR('',#1106,1.0);
#973=AXIS2_PLACEMENT_3D('',#1107,#1108,#1109);
#974=COLOUR_RGB('',0.905882358551025,0.854901969432831,0.678431391716003);
#975=CARTESIAN_POINT('',(-3.05,1.1,1.3));
#976=CARTESIAN_POINT('',(-3.05,1.1,1.3));
#977=VECTOR('',#1110,1.0);
#978=CARTESIAN_POINT('',(-3.05,1.1,1.3));
#979=VECTOR('',#1111,1.0);
#980=COLOUR_RGB('',0.905882358551025,0.854901969432831,0.678431391716003);
#981=CARTESIAN_POINT('',(-3.05,1.3,1.1));
#982=CARTESIAN_POINT('',(-3.05,1.3,1.1));
#983=VECTOR('',#1112,1.0);
#984=AXIS2_PLACEMENT_3D('',#1113,#1114,#1115);
#985=COLOUR_RGB('',0.905882358551025,0.854901969432831,0.678431391716003);
#986=CARTESIAN_POINT('',(-3.05,1.3,-1.1));
#987=CARTESIAN_POINT('',(-3.05,1.3,-1.1));
#988=VECTOR('',#1116,1.0);
#989=CARTESIAN_POINT('',(-3.05,1.3,-1.1));
#990=VECTOR('',#1117,1.0);
#991=COLOUR_RGB('',0.905882358551025,0.854901969432831,0.678431391716003);
#992=AXIS2_PLACEMENT_3D('',#1118,#1119,#1120);
#993=COLOUR_RGB('',0.905882358551025,0.854901969432831,0.678431391716003);
#994=COLOUR_RGB('',1.0,1.0,1.0);
#995=CARTESIAN_POINT('',(-2.55,1.05,1.15));
#996=VECTOR('',#1121,1.0);
#997=COLOUR_RGB('',1.0,1.0,1.0);
#998=CARTESIAN_POINT('',(-2.55,1.15,1.05));
#999=VECTOR('',#1122,1.0);
#1000=COLOUR_RGB('',1.0,1.0,1.0);
#1001=CARTESIAN_POINT('',(-2.55,1.15,-1.05));
#1002=VECTOR('',#1123,1.0);
#1003=COLOUR_RGB('',1.0,1.0,1.0);
#1004=DIRECTION('',(0.0,-1.0,-0.0));
#1005=CARTESIAN_POINT('',(1.6,1.1,1.1));
#1006=DIRECTION('',(1.0,0.0,1.83690953073357E-16));
#1007=DIRECTION('',(-1.83690953073357E-16,0.0,1.0));
#1008=DIRECTION('',(-1.83690953073357E-16,-1.00929365875014E-16,1.0));
#1009=CARTESIAN_POINT('',(1.6,1.1,-1.1));
#1010=DIRECTION('',(1.0,0.0,1.83690953073357E-16));
#1011=DIRECTION('',(-1.83690953073357E-16,0.0,1.0));
#1012=DIRECTION('',(-3.70796228213417E-32,1.0,2.01858731750028E-16));
#1013=CARTESIAN_POINT('',(1.6,-1.1,-1.1));
#1014=DIRECTION('',(1.0,0.0,1.83690953073357E-16));
#1015=DIRECTION('',(-1.83690953073357E-16,0.0,1.0));
#1016=DIRECTION('',(1.83690953073357E-16,0.0,-1.0));
#1017=CARTESIAN_POINT('',(1.6,-1.1,1.1));
#1018=DIRECTION('',(1.0,0.0,1.83690953073357E-16));
#1019=DIRECTION('',(-1.83690953073357E-16,0.0,1.0));
#1020=DIRECTION('',(3.88453191461675E-32,1.0,-2.11471052309554E-16));
#1021=CARTESIAN_POINT('',(1.6,-1.05,1.05));
#1022=DIRECTION('',(-1.0,0.0,-1.83690953073357E-16));
#1023=DIRECTION('',(1.83690953073357E-16,0.0,-1.0));
#1024=DIRECTION('',(-1.83690953073357E-16,0.0,1.0));
#1025=CARTESIAN_POINT('',(1.6,-1.05,-1.05));
#1026=DIRECTION('',(-1.0,0.0,-1.83690953073357E-16));
#1027=DIRECTION('',(1.83690953073357E-16,0.0,-1.0));
#1028=DIRECTION('',(0.0,-1.0,-0.0));
#1029=CARTESIAN_POINT('',(1.6,1.05,-1.05));
#1030=DIRECTION('',(-1.0,0.0,-1.83690953073357E-16));
#1031=DIRECTION('',(1.83690953073357E-16,0.0,-1.0));
#1032=DIRECTION('',(1.83690953073357E-16,-1.05735526154777E-16,-1.0));
#1033=CARTESIAN_POINT('',(1.6,1.05,1.05));
#1034=DIRECTION('',(-1.0,0.0,-1.83690953073357E-16));
#1035=DIRECTION('',(1.83690953073357E-16,0.0,-1.0));
#1036=DIRECTION('',(-1.0,0.0,-1.83690953073357E-16));
#1037=DIRECTION('',(0.0,-1.0,-0.0));
#1038=DIRECTION('',(-1.0,0.0,-1.83690953073357E-16));
#1039=DIRECTION('',(-1.0,0.0,-1.83690953073357E-16));
#1040=CARTESIAN_POINT('',(3.05,-1.1,1.1));
#1041=DIRECTION('',(-1.0,0.0,-1.83690953073357E-16));
#1042=DIRECTION('',(-1.83690953073357E-16,0.0,1.0));
#1043=DIRECTION('',(-1.0,0.0,-1.83690953073357E-16));
#1044=DIRECTION('',(-1.83690953073357E-16,0.0,1.0));
#1045=DIRECTION('',(-1.0,0.0,-1.83690953073357E-16));
#1046=CARTESIAN_POINT('',(3.05,-1.1,-1.1));
#1047=DIRECTION('',(-1.0,0.0,-1.83690953073357E-16));
#1048=DIRECTION('',(-1.83690953073357E-16,0.0,1.0));
#1049=DIRECTION('',(-1.0,0.0,-1.83690953073357E-16));
#1050=DIRECTION('',(3.70796228213417E-32,-1.0,-2.01858731750028E-16));
#1051=DIRECTION('',(-1.0,0.0,-1.83690953073357E-16));
#1052=CARTESIAN_POINT('',(3.05,1.1,-1.1));
#1053=DIRECTION('',(-1.0,0.0,-1.83690953073357E-16));
#1054=DIRECTION('',(-1.83690953073357E-16,0.0,1.0));
#1055=DIRECTION('',(-1.0,0.0,-1.83690953073357E-16));
#1056=DIRECTION('',(1.83690953073357E-16,1.00929365875014E-16,-1.0));
#1057=CARTESIAN_POINT('',(3.05,1.1,1.1));
#1058=DIRECTION('',(-1.0,0.0,-1.83690953073357E-16));
#1059=DIRECTION('',(-1.83690953073357E-16,0.0,1.0));
#1060=DIRECTION('',(1.0,0.0,6.12303176911189E-17));
#1061=DIRECTION('',(-0.0,1.0,0.0));
#1062=DIRECTION('',(1.0,0.0,6.12303176911189E-17));
#1063=DIRECTION('',(1.0,0.0,6.12303176911189E-17));
#1064=CARTESIAN_POINT('',(-1.6,-1.05,-1.05));
#1065=DIRECTION('',(1.0,0.0,6.12303176911189E-17));
#1066=DIRECTION('',(6.12303176911189E-17,0.0,-1.0));
#1067=DIRECTION('',(1.0,0.0,6.12303176911189E-17));
#1068=DIRECTION('',(6.12303176911189E-17,0.0,-1.0));
#1069=DIRECTION('',(1.0,0.0,6.12303176911189E-17));
#1070=CARTESIAN_POINT('',(-1.6,-1.05,1.05));
#1071=DIRECTION('',(1.0,0.0,6.12303176911189E-17));
#1072=DIRECTION('',(6.12303176911189E-17,0.0,-1.0));
#1073=DIRECTION('',(0.0,-1.0,0.0));
#1074=CARTESIAN_POINT('',(-1.6,1.1,-1.1));
#1075=DIRECTION('',(-1.0,-0.0,-6.12303176911189E-17));
#1076=DIRECTION('',(6.12303176911189E-17,0.0,-1.0));
#1077=DIRECTION('',(6.12303176911189E-17,-1.00929365875014E-16,-1.0));
#1078=CARTESIAN_POINT('',(-1.6,1.1,1.1));
#1079=DIRECTION('',(-1.0,-0.0,-6.12303176911189E-17));
#1080=DIRECTION('',(6.12303176911189E-17,0.0,-1.0));
#1081=DIRECTION('',(1.23598742737806E-32,1.0,-2.01858731750028E-16));
#1082=CARTESIAN_POINT('',(-1.6,-1.1,1.1));
#1083=DIRECTION('',(-1.0,-0.0,-6.12303176911189E-17));
#1084=DIRECTION('',(6.12303176911189E-17,0.0,-1.0));
#1085=DIRECTION('',(-6.12303176911189E-17,0.0,1.0));
#1086=CARTESIAN_POINT('',(-1.6,-1.1,-1.1));
#1087=DIRECTION('',(-1.0,-0.0,-6.12303176911189E-17));
#1088=DIRECTION('',(6.12303176911189E-17,0.0,-1.0));
#1089=DIRECTION('',(-1.29484397153892E-32,-1.0,2.11471052309554E-16));
#1090=CARTESIAN_POINT('',(-1.6,1.05,1.05));
#1091=DIRECTION('',(1.0,0.0,6.12303176911189E-17));
#1092=DIRECTION('',(6.12303176911189E-17,0.0,-1.0));
#1093=DIRECTION('',(-6.12303176911189E-17,1.05735526154777E-16,1.0));
#1094=CARTESIAN_POINT('',(-1.6,1.05,-1.05));
#1095=DIRECTION('',(1.0,0.0,6.12303176911189E-17));
#1096=DIRECTION('',(6.12303176911189E-17,0.0,-1.0));
#1097=DIRECTION('',(1.0,0.0,6.12303176911189E-17));
#1098=DIRECTION('',(0.0,-1.0,0.0));
#1099=DIRECTION('',(1.0,0.0,6.12303176911189E-17));
#1100=DIRECTION('',(1.0,0.0,6.12303176911189E-17));
#1101=CARTESIAN_POINT('',(-3.05,-1.1,-1.1));
#1102=DIRECTION('',(1.0,0.0,6.12303176911189E-17));
#1103=DIRECTION('',(6.12303176911189E-17,0.0,-1.0));
#1104=DIRECTION('',(1.0,0.0,6.12303176911189E-17));
#1105=DIRECTION('',(6.12303176911189E-17,0.0,-1.0));
#1106=DIRECTION('',(1.0,0.0,6.12303176911189E-17));
#1107=CARTESIAN_POINT('',(-3.05,-1.1,1.1));
#1108=DIRECTION('',(1.0,0.0,6.12303176911189E-17));
#1109=DIRECTION('',(6.12303176911189E-17,0.0,-1.0));
#1110=DIRECTION('',(1.0,0.0,6.12303176911189E-17));
#1111=DIRECTION('',(-1.23598742737806E-32,-1.0,2.01858731750028E-16));
#1112=DIRECTION('',(1.0,0.0,6.12303176911189E-17));
#1113=CARTESIAN_POINT('',(-3.05,1.1,1.1));
#1114=DIRECTION('',(1.0,0.0,6.12303176911189E-17));
#1115=DIRECTION('',(6.12303176911189E-17,0.0,-1.0));
#1116=DIRECTION('',(1.0,0.0,6.12303176911189E-17));
#1117=DIRECTION('',(-6.12303176911189E-17,1.00929365875014E-16,1.0));
#1118=CARTESIAN_POINT('',(-3.05,1.1,-1.1));
#1119=DIRECTION('',(1.0,0.0,6.12303176911189E-17));
#1120=DIRECTION('',(6.12303176911189E-17,0.0,-1.0));
#1121=DIRECTION('',(1.0,0.0,6.12303176911189E-17));
#1122=DIRECTION('',(1.0,0.0,6.12303176911189E-17));
#1123=DIRECTION('',(1.0,0.0,6.12303176911189E-17));
ENDSEC;
END-ISO-10303-21;
