ISO-10303-21;
HEADER;
FILE_DESCRIPTION (( 'STEP AP214' ),
    '1' );
FILE_NAME ('8F95348D-032F-41E6-807C-C27037B906D7.STEP',
    '2025-06-06T16:14:44',
    ( '' ),
    ( '' ),
    'SwSTEP 2.0',
    'SolidWorks 2022',
    '' );
FILE_SCHEMA (( 'AUTOMOTIVE_DESIGN' ));
ENDSEC;

DATA;
#1 = ADVANCED_FACE ( 'NONE', ( #86 ), #216, .F. ) ;
#2 = DIRECTION ( 'NONE',  ( -0.08048686583908294667, -0.4824322318720776215, 0.8722276113941402897 ) ) ;
#3 = ORIENTED_EDGE ( 'NONE', *, *, #104, .F. ) ;
#4 = DIRECTION ( 'NONE',  ( 0.0000000000000000000, 0.4970031298864864833, -0.8677487475548646412 ) ) ;
#5 = FACE_OUTER_BOUND ( 'NONE', #345, .T. ) ;
#6 = ORIENTED_EDGE ( 'NONE', *, *, #543, .T. ) ;
#7 = CYLINDRICAL_SURFACE ( 'NONE', #485, 0.7485142509979985093 ) ;
#8 = ORIENTED_EDGE ( 'NONE', *, *, #123, .F. ) ;
#9 = VERTEX_POINT ( 'NONE', #622 ) ;
#10 = CARTESIAN_POINT ( 'NONE',  ( 11.56031287760784743, 12.07323770303028532, 29.87576188545459033 ) ) ;
#11 = AXIS2_PLACEMENT_3D ( 'NONE', #766, #231, #410 ) ;
#12 = CARTESIAN_POINT ( 'NONE',  ( 11.73729748533014217, 12.95681468005948389, 29.80644655358427642 ) ) ;
#13 = EDGE_LOOP ( 'NONE', ( #6, #43, #607, #627 ) ) ;
#14 = PLANE ( 'NONE',  #487 ) ;
#15 = DIRECTION ( 'NONE',  ( -0.1816747739591814403, -0.8533082554559409116, -0.4887323374584692792 ) ) ;
#16 = ORIENTED_EDGE ( 'NONE', *, *, #303, .T. ) ;
#17 = ORIENTED_EDGE ( 'NONE', *, *, #212, .T. ) ;
#18 = FACE_OUTER_BOUND ( 'NONE', #692, .T. ) ;
#19 = EDGE_CURVE ( 'NONE', #768, #9, #498, .T. ) ;
#20 = DIRECTION ( 'NONE',  ( 0.1816747739599167133, 0.8533082554556088439, 0.4887323374587759228 ) ) ;
#21 = DIRECTION ( 'NONE',  ( -0.08048686583908294667, -0.4824322318720776215, 0.8722276113941402897 ) ) ;
#22 = ORIENTED_EDGE ( 'NONE', *, *, #448, .T. ) ;
#23 = DIRECTION ( 'NONE',  ( -0.9800592537872915289, 0.1977982882175922108, 0.01896565960065215578 ) ) ;
#24 = CARTESIAN_POINT ( 'NONE',  ( 11.18173197338905744, 13.95891482334533151, 30.30944562874439896 ) ) ;
#25 = AXIS2_PLACEMENT_3D ( 'NONE', #472, #696, #700 ) ;
#26 = DIRECTION ( 'NONE',  ( -0.9800592537872132581, 0.1977982882180430169, 0.01896565959999410578 ) ) ;
#27 = VERTEX_POINT ( 'NONE', #572 ) ;
#28 = DIRECTION ( 'NONE',  ( -0.9800592537873282772, 0.1977982882174850465, 0.01896565959986482724 ) ) ;
#29 = CYLINDRICAL_SURFACE ( 'NONE', #560, 0.2514857490020006026 ) ;
#30 = ORIENTED_EDGE ( 'NONE', *, *, #758, .T. ) ;
#31 = SHAPE_DEFINITION_REPRESENTATION ( #464, #343 ) ;
#32 = CARTESIAN_POINT ( 'NONE',  ( 11.94242528129100123, 15.41656538019227085, 34.64305689032029534 ) ) ;
#33 = ORIENTED_EDGE ( 'NONE', *, *, #741, .T. ) ;
#34 = FILL_AREA_STYLE ('',( #394 ) ) ;
#35 = EDGE_CURVE ( 'NONE', #79, #447, #268, .T. ) ;
#36 = AXIS2_PLACEMENT_3D ( 'NONE', #91, #330, #211 ) ;
#37 = DIRECTION ( 'NONE',  ( 0.08048686583847108889, 0.4824322318725273728, -0.8722276113939479991 ) ) ;
#38 = CIRCLE ( 'NONE', #237, 1.999999999999999556 ) ;
#39 = ORIENTED_EDGE ( 'NONE', *, *, #407, .F. ) ;
#40 = AXIS2_PLACEMENT_3D ( 'NONE', #620, #68, #81 ) ;
#41 = EDGE_CURVE ( 'NONE', #722, #430, #760, .T. ) ;
#42 = FACE_OUTER_BOUND ( 'NONE', #674, .T. ) ;
#43 = ORIENTED_EDGE ( 'NONE', *, *, #532, .F. ) ;
#44 = DIRECTION ( 'NONE',  ( 0.0000000000000000000, 0.0000000000000000000, 1.000000000000000000 ) ) ;
#45 = LINE ( 'NONE', #143, #752 ) ;
#46 = EDGE_CURVE ( 'NONE', #660, #365, #568, .T. ) ;
#47 = DIRECTION ( 'NONE',  ( -0.1816747739599167133, -0.8533082554556087329, -0.4887323374587759228 ) ) ;
#48 = ORIENTED_EDGE ( 'NONE', *, *, #119, .T. ) ;
#49 = LINE ( 'NONE', #354, #462 ) ;
#50 = EDGE_CURVE ( 'NONE', #743, #289, #687, .T. ) ;
#51 = CARTESIAN_POINT ( 'NONE',  ( 14.54081211966332887, 11.72152676681713501, 29.38190530551801416 ) ) ;
#52 = ORIENTED_EDGE ( 'NONE', *, *, #665, .T. ) ;
#53 = VECTOR ( 'NONE', #82, 1000.000000000000000 ) ;
#54 = FACE_OUTER_BOUND ( 'NONE', #765, .T. ) ;
#55 = LINE ( 'NONE', #645, #286 ) ;
#56 = ORIENTED_EDGE ( 'NONE', *, *, #212, .F. ) ;
#57 = DIRECTION ( 'NONE',  ( -0.9800592537872881982, 0.1977982882176732293, 0.01896565959997375400 ) ) ;
#58 = DIRECTION ( 'NONE',  ( 0.1816747739599167133, 0.8533082554556087329, 0.4887323374587759228 ) ) ;
#59 = ORIENTED_EDGE ( 'NONE', *, *, #129, .T. ) ;
#60 = LINE ( 'NONE', #762, #65 ) ;
#61 = EDGE_CURVE ( 'NONE', #27, #731, #630, .T. ) ;
#62 = DIRECTION ( 'NONE',  ( 0.0000000000000000000, 0.8750666168196743477, 0.4840024959933256765 ) ) ;
#63 = CARTESIAN_POINT ( 'NONE',  ( 14.50049063896964618, 11.47984283837803154, 29.81886490665508305 ) ) ;
#64 = VECTOR ( 'NONE', #384, 1000.000000000000000 ) ;
#65 = VECTOR ( 'NONE', #116, 1000.000000000000114 ) ;
#66 = FACE_OUTER_BOUND ( 'NONE', #206, .T. ) ;
#67 = ORIENTED_EDGE ( 'NONE', *, *, #672, .T. ) ;
#68 = DIRECTION ( 'NONE',  ( 0.9800592537872132581, -0.1977982882180430169, -0.01896565959999410578 ) ) ;
#69 =( LENGTH_UNIT ( ) NAMED_UNIT ( * ) SI_UNIT ( .MILLI., .METRE. ) );
#70 = ADVANCED_FACE ( 'NONE', ( #144 ), #324, .T. ) ;
#71 = VERTEX_POINT ( 'NONE', #262 ) ;
#72 = DIRECTION ( 'NONE',  ( 0.08048686583908291892, 0.4824322318720775660, -0.8722276113941404008 ) ) ;
#73 = DIRECTION ( 'NONE',  ( -0.08048686583908294667, -0.4824322318720776215, 0.8722276113941402897 ) ) ;
#74 = ORIENTED_EDGE ( 'NONE', *, *, #541, .T. ) ;
#75 = PLANE ( 'NONE',  #40 ) ;
#76 = AXIS2_PLACEMENT_3D ( 'NONE', #528, #581, #357 ) ;
#77 = SPHERICAL_SURFACE ( 'NONE', #181, 1.500000000000065059 ) ;
#78 = MECHANICAL_DESIGN_GEOMETRIC_PRESENTATION_REPRESENTATION (  '', ( #763 ), #328 ) ;
#79 = VERTEX_POINT ( 'NONE', #554 ) ;
#80 = ORIENTED_EDGE ( 'NONE', *, *, #312, .T. ) ;
#81 = DIRECTION ( 'NONE',  ( 0.1978338714683789690, 0.9802355631682789783, 0.0000000000000000000 ) ) ;
#82 = DIRECTION ( 'NONE',  ( 0.9800592537872770960, -0.1977982882177254931, -0.01896565960000523576 ) ) ;
#83 = CARTESIAN_POINT ( 'NONE',  ( 12.67003712333296406, 13.67325944011878391, 30.25494666697138868 ) ) ;
#84 = DIRECTION ( 'NONE',  ( -0.08048686583908294667, -0.4824322318720776215, 0.8722276113941402897 ) ) ;
#85 = ADVANCED_FACE ( 'NONE', ( #506 ), #453, .T. ) ;
#86 = FACE_OUTER_BOUND ( 'NONE', #13, .T. ) ;
#87 = ORIENTED_EDGE ( 'NONE', *, *, #665, .F. ) ;
#88 = EDGE_CURVE ( 'NONE', #377, #611, #94, .T. ) ;
#89 = CARTESIAN_POINT ( 'NONE',  ( 11.60063435830216960, 12.31492163146868712, 29.43880228431848423 ) ) ;
#90 = AXIS2_PLACEMENT_3D ( 'NONE', #756, #170, #508 ) ;
#91 = CARTESIAN_POINT ( 'NONE',  ( 11.48823834639200214, 14.02879943638200011, 32.11960292534099892 ) ) ;
#92 = ORIENTED_EDGE ( 'NONE', *, *, #672, .F. ) ;
#93 = ADVANCED_FACE ( 'NONE', ( #565 ), #29, .F. ) ;
#94 = LINE ( 'NONE', #742, #701 ) ;
#95 = ORIENTED_EDGE ( 'NONE', *, *, #133, .F. ) ;
#96 = LINE ( 'NONE', #32, #451 ) ;
#97 = EDGE_CURVE ( 'NONE', #430, #641, #96, .T. ) ;
#98 = ORIENTED_EDGE ( 'NONE', *, *, #489, .F. ) ;
#99 = DIRECTION ( 'NONE',  ( -0.08048686583959040186, -0.4824322318736581905, 0.8722276113932192487 ) ) ;
#100 = AXIS2_PLACEMENT_3D ( 'NONE', #531, #182, #706 ) ;
#101 = EDGE_LOOP ( 'NONE', ( #491, #284, #527, #154 ) ) ;
#102 = APPLICATION_PROTOCOL_DEFINITION ( 'draft international standard', 'automotive_design', 1998, #569 ) ;
#103 = PLANE ( 'NONE',  #364 ) ;
#104 = EDGE_CURVE ( 'NONE', #9, #619, #748, .T. ) ;
#105 = DIRECTION ( 'NONE',  ( 0.1816747739599465228, 0.8533082554557862576, 0.4887323374584545688 ) ) ;
#106 = EDGE_LOOP ( 'NONE', ( #433, #695, #417, #409 ) ) ;
#107 = CARTESIAN_POINT ( 'NONE',  ( 11.67615329140106972, 13.85912933590341289, 30.29987781294125426 ) ) ;
#108 = EDGE_CURVE ( 'NONE', #465, #635, #273, .T. ) ;
#109 = CARTESIAN_POINT ( 'NONE',  ( 11.42764367703400374, 12.39220803246600688, 32.95344477985700138 ) ) ;
#110 = ORIENTED_EDGE ( 'NONE', *, *, #421, .T. ) ;
#111 = DIRECTION ( 'NONE',  ( 0.1816747739599167133, 0.8533082554556087329, 0.4887323374587759228 ) ) ;
#112 = FACE_OUTER_BOUND ( 'NONE', #396, .T. ) ;
#113 = ORIENTED_EDGE ( 'NONE', *, *, #288, .F. ) ;
#114 = CIRCLE ( 'NONE', #213, 0.2477594767350009275 ) ;
#115 = COLOUR_RGB ( '',0.9176470588235293713, 0.9490196078431372140, 0.9568627450980391469 ) ;
#116 = DIRECTION ( 'NONE',  ( -0.1816747739599166855, -0.8533082554556087329, -0.4887323374587758673 ) ) ;
#117 = AXIS2_PLACEMENT_3D ( 'NONE', #209, #44, #275 ) ;
#118 = CARTESIAN_POINT ( 'NONE',  ( 11.30656357243208632, 13.17549118092639659, 31.63087058788222805 ) ) ;
#119 = EDGE_CURVE ( 'NONE', #376, #486, #393, .T. ) ;
#120 = ORIENTED_EDGE ( 'NONE', *, *, #753, .F. ) ;
#121 = CARTESIAN_POINT ( 'NONE',  ( 14.59214211906492231, 11.91032068010261646, 30.06542110772892684 ) ) ;
#122 = ORIENTED_EDGE ( 'NONE', *, *, #367, .T. ) ;
#123 = EDGE_CURVE ( 'NONE', #632, #584, #277, .T. ) ;
#124 = CARTESIAN_POINT ( 'NONE',  ( 10.79937205464102057, 11.88008820497612383, 32.03502219138877649 ) ) ;
#125 = CARTESIAN_POINT ( 'NONE',  ( 10.37427407959320647, 15.02657109599503471, 30.79162125093107960 ) ) ;
#126 = ORIENTED_EDGE ( 'NONE', *, *, #685, .T. ) ;
#127 = LINE ( 'NONE', #360, #141 ) ;
#128 = VECTOR ( 'NONE', #234, 1000.000000000000114 ) ;
#129 = EDGE_CURVE ( 'NONE', #663, #632, #770, .T. ) ;
#130 = CARTESIAN_POINT ( 'NONE',  ( 11.63583181070715256, 13.61744540746493648, 30.73683741407849013 ) ) ;
#131 = EDGE_LOOP ( 'NONE', ( #604, #405, #3, #494 ) ) ;
#132 = CARTESIAN_POINT ( 'NONE',  ( 11.63583181070690031, 13.61744540746452437, 30.73683741407872816 ) ) ;
#133 = EDGE_CURVE ( 'NONE', #595, #584, #469, .T. ) ;
#134 = CARTESIAN_POINT ( 'NONE',  ( 11.24596890307422647, 11.53889977701024883, 32.46471244239786103 ) ) ;
#135 = ORIENTED_EDGE ( 'NONE', *, *, #375, .F. ) ;
#136 = DIRECTION ( 'NONE',  ( 0.08048686583896853819, 0.4824322318724260095, -0.8722276113939581021 ) ) ;
#137 = CARTESIAN_POINT ( 'NONE',  ( 11.48727175632000019, 11.51743850166899996, 31.89791690695199833 ) ) ;
#138 = ORIENTED_EDGE ( 'NONE', *, *, #333, .T. ) ;
#139 = PLANE ( 'NONE',  #226 ) ;
#140 = VECTOR ( 'NONE', #105, 1000.000000000000114 ) ;
#141 = VECTOR ( 'NONE', #185, 1000.000000000000000 ) ;
#142 = VECTOR ( 'NONE', #187, 1000.000000000000114 ) ;
#143 = CARTESIAN_POINT ( 'NONE',  ( 11.00005719943009019, 13.10560656788953793, 29.82071329128602954 ) ) ;
#144 = FACE_OUTER_BOUND ( 'NONE', #359, .T. ) ;
#145 = ORIENTED_EDGE ( 'NONE', *, *, #242, .F. ) ;
#146 = PLANE ( 'NONE',  #379 ) ;
#147 = PRODUCT ( '8F95348D-032F-41E6-807C-C27037B906D7', '8F95348D-032F-41E6-807C-C27037B906D7', '', ( #454 ) ) ;
#148 = LINE ( 'NONE', #323, #702 ) ;
#149 = CARTESIAN_POINT ( 'NONE',  ( 11.53296037292323817, 11.73203336742185066, 32.02082612489888191 ) ) ;
#150 = ORIENTED_EDGE ( 'NONE', *, *, #97, .F. ) ;
#151 = ADVANCED_FACE ( 'NONE', ( #640 ), #576, .T. ) ;
#152 = LINE ( 'NONE', #107, #239 ) ;
#153 = DIRECTION ( 'NONE',  ( 0.9800592537872907517, -0.1977982882176577695, -0.01896565959999921280 ) ) ;
#154 = ORIENTED_EDGE ( 'NONE', *, *, #119, .F. ) ;
#155 =( NAMED_UNIT ( * ) PLANE_ANGLE_UNIT ( ) SI_UNIT ( $, .RADIAN. ) );
#156 = EDGE_CURVE ( 'NONE', #184, #377, #165, .T. ) ;
#157 =( GEOMETRIC_REPRESENTATION_CONTEXT ( 3 ) GLOBAL_UNCERTAINTY_ASSIGNED_CONTEXT ( ( #608 ) ) GLOBAL_UNIT_ASSIGNED_CONTEXT ( ( #511, #567, #392 ) ) REPRESENTATION_CONTEXT ( 'NONE', 'WORKASPACE' ) );
#158 = DIRECTION ( 'NONE',  ( 0.0000000000000000000, 0.4970031298864854286, -0.8677487475548651963 ) ) ;
#159 = ORIENTED_EDGE ( 'NONE', *, *, #242, .T. ) ;
#160 = DIRECTION ( 'NONE',  ( 0.9800592537872886423, -0.1977982882176716750, -0.01896565959997377482 ) ) ;
#161 = CARTESIAN_POINT ( 'NONE',  ( 11.94242528129100123, 16.16207007502200099, 33.34143376898799715 ) ) ;
#162 = EDGE_LOOP ( 'NONE', ( #336, #673, #52, #243 ) ) ;
#163 = LINE ( 'NONE', #269, #656 ) ;
#164 = VECTOR ( 'NONE', #160, 999.9999999999998863 ) ;
#165 = LINE ( 'NONE', #51, #773 ) ;
#166 = AXIS2_PLACEMENT_3D ( 'NONE', #260, #684, #313 ) ;
#167 = EDGE_LOOP ( 'NONE', ( #646, #470, #95, #145 ) ) ;
#168 = PRESENTATION_LAYER_ASSIGNMENT (  '', '', ( #763 ) ) ;
#169 = EDGE_CURVE ( 'NONE', #768, #292, #55, .T. ) ;
#170 = DIRECTION ( 'NONE',  ( -0.1816747739599167133, -0.8533082554556088439, -0.4887323374587759228 ) ) ;
#171 = DIRECTION ( 'NONE',  ( 0.1816747739591718924, 0.8533082554559403565, 0.4887323374584737201 ) ) ;
#172 = ORIENTED_EDGE ( 'NONE', *, *, #61, .F. ) ;
#173 = DIRECTION ( 'NONE',  ( 0.0000000000000000000, -0.4970031298864857616, 0.8677487475548651963 ) ) ;
#174 = ADVANCED_FACE ( 'NONE', ( #42 ), #590, .F. ) ;
#175 = LINE ( 'NONE', #340, #739 ) ;
#176 = ORIENTED_EDGE ( 'NONE', *, *, #505, .F. ) ;
#177 = DIRECTION ( 'NONE',  ( -0.08048686583846768883, -0.4824322318725274839, 0.8722276113939482212 ) ) ;
#178 = EDGE_CURVE ( 'NONE', #71, #768, #224, .T. ) ;
#179 = CARTESIAN_POINT ( 'NONE',  ( 14.50049063896999257, 11.47984283837795871, 29.81886490665507594 ) ) ;
#180 = ORIENTED_EDGE ( 'NONE', *, *, #235, .F. ) ;
#181 = AXIS2_PLACEMENT_3D ( 'NONE', #316, #481, #475 ) ;
#182 = DIRECTION ( 'NONE',  ( 0.08048686583908294667, 0.4824322318720776215, -0.8722276113941402897 ) ) ;
#183 = DIRECTION ( 'NONE',  ( -2.306075546751280485E-15, 0.8750666168196724604, 0.4840024959933292292 ) ) ;
#184 = VERTEX_POINT ( 'NONE', #455 ) ;
#185 = DIRECTION ( 'NONE',  ( -0.9800592537872515608, 0.1977982882178320190, 0.01896565960021313196 ) ) ;
#186 = LINE ( 'NONE', #666, #350 ) ;
#187 = DIRECTION ( 'NONE',  ( 0.9800592537870871368, -0.1977982882186166969, -0.01896565960052197172 ) ) ;
#188 = SURFACE_STYLE_USAGE ( .BOTH. , #362 ) ;
#189 = VERTEX_POINT ( 'NONE', #344 ) ;
#190 = CARTESIAN_POINT ( 'NONE',  ( 12.85171189729250152, 14.52656769557392025, 30.74367900442973678 ) ) ;
#191 = ADVANCED_FACE ( 'NONE', ( #408 ), #287, .T. ) ;
#192 = VECTOR ( 'NONE', #21, 1000.000000000000000 ) ;
#193 = CARTESIAN_POINT ( 'NONE',  ( 11.73729748533004624, 12.95681468005890657, 29.80644655358531736 ) ) ;
#194 = FACE_OUTER_BOUND ( 'NONE', #519, .T. ) ;
#195 = DIRECTION ( 'NONE',  ( 0.1816747739599167133, 0.8533082554556088439, 0.4887323374587759228 ) ) ;
#196 = FACE_OUTER_BOUND ( 'NONE', #534, .T. ) ;
#197 = LINE ( 'NONE', #261, #515 ) ;
#198 = ADVANCED_FACE ( 'NONE', ( #112 ), #283, .T. ) ;
#199 = VERTEX_POINT ( 'NONE', #657 ) ;
#200 = CARTESIAN_POINT ( 'NONE',  ( 10.75885152029674252, 11.63721116390037125, 32.47413891577803469 ) ) ;
#201 = VECTOR ( 'NONE', #171, 1000.000000000000000 ) ;
#202 = VECTOR ( 'NONE', #28, 1000.000000000000114 ) ;
#203 =( NAMED_UNIT ( * ) SI_UNIT ( $, .STERADIAN. ) SOLID_ANGLE_UNIT ( ) );
#204 = EDGE_CURVE ( 'NONE', #278, #641, #524, .T. ) ;
#205 = DIRECTION ( 'NONE',  ( 0.08048686583850822585, 0.4824322318725201564, -0.8722276113939484432 ) ) ;
#206 = EDGE_LOOP ( 'NONE', ( #353, #638 ) ) ;
#207 = DIRECTION ( 'NONE',  ( -0.08048686583908294667, -0.4824322318720776215, 0.8722276113941402897 ) ) ;
#208 = DIRECTION ( 'NONE',  ( -0.08048686583896372260, -0.4824322318724283409, 0.8722276113939573250 ) ) ;
#209 = CARTESIAN_POINT ( 'NONE',  ( 0.0000000000000000000, 0.0000000000000000000, 0.0000000000000000000 ) ) ;
#210 = ADVANCED_FACE ( 'NONE', ( #757 ), #518, .T. ) ;
#211 = DIRECTION ( 'NONE',  ( 0.0000000000000000000, 0.4970031298864855396, -0.8677487475548651963 ) ) ;
#212 = EDGE_CURVE ( 'NONE', #595, #663, #767, .T. ) ;
#213 = AXIS2_PLACEMENT_3D ( 'NONE', #12, #2, #304 ) ;
#214 = AXIS2_PLACEMENT_3D ( 'NONE', #329, #621, #703 ) ;
#215 = DIRECTION ( 'NONE',  ( -0.1816747739599167133, -0.8533082554556087329, -0.4887323374587759228 ) ) ;
#216 = PLANE ( 'NONE',  #737 ) ;
#217 = FACE_OUTER_BOUND ( 'NONE', #274, .T. ) ;
#218 = EDGE_CURVE ( 'NONE', #635, #603, #294, .T. ) ;
#219 = DIRECTION ( 'NONE',  ( 0.9800592537872132581, -0.1977982882180430169, -0.01896565959999410578 ) ) ;
#220 = ORIENTED_EDGE ( 'NONE', *, *, #303, .F. ) ;
#221 =( NAMED_UNIT ( * ) SI_UNIT ( $, .STERADIAN. ) SOLID_ANGLE_UNIT ( ) );
#222 = LINE ( 'NONE', #626, #727 ) ;
#223 = CIRCLE ( 'NONE', #326, 0.7485142509979985093 ) ;
#224 = LINE ( 'NONE', #229, #265 ) ;
#225 = EDGE_CURVE ( 'NONE', #289, #743, #38, .T. ) ;
#226 = AXIS2_PLACEMENT_3D ( 'NONE', #488, #495, #624 ) ;
#227 = VERTEX_POINT ( 'NONE', #533 ) ;
#228 = CARTESIAN_POINT ( 'NONE',  ( 11.69228583839744751, 12.74539947319409272, 29.68535848539256961 ) ) ;
#229 = CARTESIAN_POINT ( 'NONE',  ( 11.46816421137812547, 12.63508507354176125, 32.51432805546662053 ) ) ;
#230 = ORIENTED_EDGE ( 'NONE', *, *, #549, .T. ) ;
#231 = DIRECTION ( 'NONE',  ( 0.9800592537872132581, -0.1977982882180430169, -0.01896565959999410578 ) ) ;
#232 = CARTESIAN_POINT ( 'NONE',  ( 11.00005719942999960, 13.10560656788899969, 29.82071329128699944 ) ) ;
#233 = EDGE_LOOP ( 'NONE', ( #308, #372 ) ) ;
#234 = DIRECTION ( 'NONE',  ( -0.1816747739599166855, -0.8533082554556087329, -0.4887323374587758673 ) ) ;
#235 = EDGE_CURVE ( 'NONE', #635, #184, #175, .T. ) ;
#236 = DIRECTION ( 'NONE',  ( 0.0000000000000000000, 0.8750666168196743477, 0.4840024959933256765 ) ) ;
#237 = AXIS2_PLACEMENT_3D ( 'NONE', #118, #594, #404 ) ;
#238 = ORIENTED_EDGE ( 'NONE', *, *, #312, .F. ) ;
#239 = VECTOR ( 'NONE', #15, 1000.000000000000114 ) ;
#240 = LINE ( 'NONE', #418, #574 ) ;
#241 = APPLICATION_CONTEXT ( 'automotive_design' ) ;
#242 = EDGE_CURVE ( 'NONE', #199, #595, #754, .T. ) ;
#243 = ORIENTED_EDGE ( 'NONE', *, *, #606, .F. ) ;
#244 = CARTESIAN_POINT ( 'NONE',  ( 14.82718160382230188, 10.40102596895784615, 31.58862319678675590 ) ) ;
#245 = CARTESIAN_POINT ( 'NONE',  ( 11.39697421556799917, 11.09331997771900014, 31.65500300538700529 ) ) ;
#246 = PRODUCT_RELATED_PRODUCT_CATEGORY ( 'part', '', ( #147 ) ) ;
#247 = ORIENTED_EDGE ( 'NONE', *, *, #218, .F. ) ;
#248 = DIRECTION ( 'NONE',  ( 0.1816747739599167133, 0.8533082554556088439, 0.4887323374587759228 ) ) ;
#249 = ORIENTED_EDGE ( 'NONE', *, *, #61, .T. ) ;
#250 = CARTESIAN_POINT ( 'NONE',  ( 14.73677096068800196, 12.48319717216599933, 31.56449077928199998 ) ) ;
#251 = AXIS2_PLACEMENT_3D ( 'NONE', #137, #195, #602 ) ;
#252 = ADVANCED_FACE ( 'NONE', ( #5 ), #358, .T. ) ;
#253 = STYLED_ITEM ( 'NONE', ( #369 ), #368 ) ;
#254 = DIRECTION ( 'NONE',  ( 0.08048686583918437942, 0.4824322318717569336, -0.8722276113943082665 ) ) ;
#255 = UNCERTAINTY_MEASURE_WITH_UNIT (LENGTH_MEASURE( 1.000000000000000082E-05 ), #337, 'distance_accuracy_value', 'NONE');
#256 = DIRECTION ( 'NONE',  ( 0.1978338714683789690, 0.9802355631682789783, 0.0000000000000000000 ) ) ;
#257 = FACE_OUTER_BOUND ( 'NONE', #719, .T. ) ;
#258 = ORIENTED_EDGE ( 'NONE', *, *, #718, .F. ) ;
#259 = EDGE_LOOP ( 'NONE', ( #747, #459, #172, #120 ) ) ;
#260 = CARTESIAN_POINT ( 'NONE',  ( 11.48823834639220820, 14.02879943638297178, 32.11960292534156025 ) ) ;
#261 = CARTESIAN_POINT ( 'NONE',  ( 14.78666106947900438, 10.15814892788201540, 32.02773992117697333 ) ) ;
#262 = CARTESIAN_POINT ( 'NONE',  ( 11.46816421137810060, 12.63508507354158716, 32.51432805546711791 ) ) ;
#263 = ORIENTED_EDGE ( 'NONE', *, *, #156, .F. ) ;
#264 = CARTESIAN_POINT ( 'NONE',  ( 11.35645368122400001, 10.85044293664400072, 32.09411972977699889 ) ) ;
#265 = VECTOR ( 'NONE', #764, 1000.000000000000114 ) ;
#266 = PRODUCT_DEFINITION_FORMATION_WITH_SPECIFIED_SOURCE ( 'ANY', '', #147, .NOT_KNOWN. ) ;
#267 = FACE_OUTER_BOUND ( 'NONE', #106, .T. ) ;
#268 = LINE ( 'NONE', #446, #586 ) ;
#269 = CARTESIAN_POINT ( 'NONE',  ( 11.45415703674803254, 12.76413715200919796, 30.24810507661964110 ) ) ;
#270 = DIRECTION ( 'NONE',  ( 0.08048686583908294667, 0.4824322318720776215, -0.8722276113941402897 ) ) ;
#271 = ORIENTED_EDGE ( 'NONE', *, *, #204, .T. ) ;
#272 = SURFACE_STYLE_FILL_AREA ( #34 ) ;
#273 = LINE ( 'NONE', #513, #164 ) ;
#274 = EDGE_LOOP ( 'NONE', ( #180, #388, #450, #577 ) ) ;
#275 = DIRECTION ( 'NONE',  ( 1.000000000000000000, 0.0000000000000000000, 0.0000000000000000000 ) ) ;
#276 = CIRCLE ( 'NONE', #166, 1.999999999999999556 ) ;
#277 = LINE ( 'NONE', #351, #140 ) ;
#278 = VERTEX_POINT ( 'NONE', #478 ) ;
#279 = ADVANCED_FACE ( 'NONE', ( #537 ), #7, .T. ) ;
#280 = CARTESIAN_POINT ( 'NONE',  ( 11.56031287760800019, 12.07323770303099941, 29.87576188545499889 ) ) ;
#281 = ORIENTED_EDGE ( 'NONE', *, *, #235, .T. ) ;
#282 = DIRECTION ( 'NONE',  ( 0.0000000000000000000, 0.4970031298864857616, -0.8677487475548651963 ) ) ;
#283 = CYLINDRICAL_SURFACE ( 'NONE', #500, 1.500000000000002665 ) ;
#284 = ORIENTED_EDGE ( 'NONE', *, *, #552, .T. ) ;
#285 = DIRECTION ( 'NONE',  ( 0.08048686583940971306, 0.4824322318728299086, -0.8722276113936940911 ) ) ;
#286 = VECTOR ( 'NONE', #99, 1000.000000000000000 ) ;
#287 = PLANE ( 'NONE',  #25 ) ;
#288 = EDGE_CURVE ( 'NONE', #615, #370, #691, .T. ) ;
#289 = VERTEX_POINT ( 'NONE', #423 ) ;
#290 = CARTESIAN_POINT ( 'NONE',  ( 11.46816421137804909, 12.63508507354123722, 32.51432805546813398 ) ) ;
#291 = DIRECTION ( 'NONE',  ( 0.0000000000000000000, 0.4970031298864854286, -0.8677487475548651963 ) ) ;
#292 = VERTEX_POINT ( 'NONE', #134 ) ;
#293 = CARTESIAN_POINT ( 'NONE',  ( 14.78666106947776626, 10.15814892788224810, 32.02773992117702306 ) ) ;
#294 = LINE ( 'NONE', #179, #201 ) ;
#295 = ORIENTED_EDGE ( 'NONE', *, *, #582, .F. ) ;
#296 = CARTESIAN_POINT ( 'NONE',  ( 11.48823834639114594, 14.02879943638268578, 32.11960292534088524 ) ) ;
#297 = EDGE_CURVE ( 'NONE', #530, #486, #669, .T. ) ;
#298 = LINE ( 'NONE', #419, #426 ) ;
#299 = AXIS2_PLACEMENT_3D ( 'NONE', #613, #717, #183 ) ;
#300 = ORIENTED_EDGE ( 'NONE', *, *, #156, .T. ) ;
#301 = CIRCLE ( 'NONE', #100, 0.2514857490020006026 ) ;
#302 = CYLINDRICAL_SURFACE ( 'NONE', #76, 0.7522405232650012374 ) ;
#303 = EDGE_CURVE ( 'NONE', #227, #611, #114, .T. ) ;
#304 = DIRECTION ( 'NONE',  ( -1.400328656515719102E-14, 0.8750666168196719052, 0.4840024959933300619 ) ) ;
#305 = ORIENTED_EDGE ( 'NONE', *, *, #617, .T. ) ;
#306 = DIRECTION ( 'NONE',  ( 0.0000000000000000000, 0.8750666168196727934, 0.4840024959933283966 ) ) ;
#307 = DIRECTION ( 'NONE',  ( 0.9800592537872535592, -0.1977982882178203061, -0.01896565960023360170 ) ) ;
#308 = ORIENTED_EDGE ( 'NONE', *, *, #204, .F. ) ;
#309 = DIRECTION ( 'NONE',  ( 0.1816747739599166855, 0.8533082554556087329, 0.4887323374587758673 ) ) ;
#310 = DIRECTION ( 'NONE',  ( -2.306075546751280485E-15, 0.8750666168196724604, 0.4840024959933292292 ) ) ;
#311 = EDGE_LOOP ( 'NONE', ( #705, #545, #138, #664, #436, #688, #33, #592 ) ) ;
#312 = EDGE_CURVE ( 'NONE', #683, #615, #186, .T. ) ;
#313 = DIRECTION ( 'NONE',  ( 0.0000000000000000000, 0.4970031298864855396, -0.8677487475548651963 ) ) ;
#314 = VECTOR ( 'NONE', #307, 1000.000000000000000 ) ;
#315 = AXIS2_PLACEMENT_3D ( 'NONE', #578, #20, #402 ) ;
#316 = CARTESIAN_POINT ( 'NONE',  ( 11.94242528129100123, 16.16207007502150006, 33.34143376898800426 ) ) ;
#317 = ORIENTED_EDGE ( 'NONE', *, *, #288, .T. ) ;
#318 = DIRECTION ( 'NONE',  ( 0.9800592537872132581, -0.1977982882180430169, -0.01896565959999410578 ) ) ;
#319 = CARTESIAN_POINT ( 'NONE',  ( 11.60063435830200085, 12.31492163146899976, 29.43880228431800461 ) ) ;
#320 = DIRECTION ( 'NONE',  ( -0.1816747739599166855, -0.8533082554556087329, -0.4887323374587758673 ) ) ;
#321 = CARTESIAN_POINT ( 'NONE',  ( 10.95973571873584795, 12.86392263945078973, 30.25767289242258684 ) ) ;
#322 = EDGE_CURVE ( 'NONE', #447, #530, #484, .T. ) ;
#323 = CARTESIAN_POINT ( 'NONE',  ( 11.14141049269509587, 13.71723089490656733, 30.74640522988097402 ) ) ;
#324 = CYLINDRICAL_SURFACE ( 'NONE', #712, 1.500000000000002665 ) ;
#325 = EDGE_LOOP ( 'NONE', ( #22, #110, #16, #561, #263, #39, #113, #341 ) ) ;
#326 = AXIS2_PLACEMENT_3D ( 'NONE', #540, #415, #62 ) ;
#327 = VECTOR ( 'NONE', #309, 1000.000000000000114 ) ;
#328 =( GEOMETRIC_REPRESENTATION_CONTEXT ( 3 ) GLOBAL_UNCERTAINTY_ASSIGNED_CONTEXT ( ( #255 ) ) GLOBAL_UNIT_ASSIGNED_CONTEXT ( ( #337, #155, #221 ) ) REPRESENTATION_CONTEXT ( 'NONE', 'WORKASPACE' ) );
#329 = CARTESIAN_POINT ( 'NONE',  ( 11.71713674498299973, 12.83597271584000055, 30.02492635415299915 ) ) ;
#330 = DIRECTION ( 'NONE',  ( -0.1816747739599167133, -0.8533082554556087329, -0.4887323374587759228 ) ) ;
#331 = ORIENTED_EDGE ( 'NONE', *, *, #564, .T. ) ;
#332 = DIRECTION ( 'NONE',  ( -0.9800592537872563348, 0.1977982882178025981, 0.01896565960026645042 ) ) ;
#333 = EDGE_CURVE ( 'NONE', #683, #465, #642, .T. ) ;
#334 = ORIENTED_EDGE ( 'NONE', *, *, #512, .T. ) ;
#335 = CARTESIAN_POINT ( 'NONE',  ( 14.87695861023067856, 10.58226745183148942, 32.27065382274013672 ) ) ;
#336 = ORIENTED_EDGE ( 'NONE', *, *, #375, .T. ) ;
#337 =( LENGTH_UNIT ( ) NAMED_UNIT ( * ) SI_UNIT ( .MILLI., .METRE. ) );
#338 = CLOSED_SHELL ( 'NONE', ( #198, #361, #70, #466, #85, #723, #689, #151, #647, #174, #651, #1, #725, #386, #625, #733, #428, #521, #93, #252, #570, #458, #279, #210, #191 ) ) ;
#339 = VECTOR ( 'NONE', #57, 1000.000000000000000 ) ;
#340 = CARTESIAN_POINT ( 'NONE',  ( 14.50049063896896051, 11.47984283837820918, 29.81886490665502265 ) ) ;
#341 = ORIENTED_EDGE ( 'NONE', *, *, #489, .T. ) ;
#342 = EDGE_CURVE ( 'NONE', #632, #447, #223, .T. ) ;
#343 = ADVANCED_BREP_SHAPE_REPRESENTATION ( '8F95348D-032F-41E6-807C-C27037B906D7', ( #368, #117 ), #157 ) ;
#344 = CARTESIAN_POINT ( 'NONE',  ( 11.65196435770330652, 12.50371554475577796, 30.12231808652890308 ) ) ;
#345 = EDGE_LOOP ( 'NONE', ( #48, #74, #682, #510 ) ) ;
#346 = DIRECTION ( 'NONE',  ( 0.1816747739590064969, 0.8533082554559758837, 0.4887323374584729985 ) ) ;
#347 = CARTESIAN_POINT ( 'NONE',  ( 10.94052629425611123, 12.49051941935652899, 32.96287125323730294 ) ) ;
#348 = ORIENTED_EDGE ( 'NONE', *, *, #97, .T. ) ;
#349 = LINE ( 'NONE', #585, #142 ) ;
#350 = VECTOR ( 'NONE', #254, 1000.000000000000114 ) ;
#351 = CARTESIAN_POINT ( 'NONE',  ( 10.79937205464104188, 11.88008820497624640, 32.03502219138855622 ) ) ;
#352 = VECTOR ( 'NONE', #598, 1000.000000000000114 ) ;
#353 = ORIENTED_EDGE ( 'NONE', *, *, #41, .T. ) ;
#354 = CARTESIAN_POINT ( 'NONE',  ( 12.85171189729279284, 14.52656769557402860, 30.74367900442944190 ) ) ;
#355 = CARTESIAN_POINT ( 'NONE',  ( 11.60063435830200085, 12.31492163146899976, 29.43880228431800461 ) ) ;
#356 = VERTEX_POINT ( 'NONE', #125 ) ;
#357 = DIRECTION ( 'NONE',  ( 0.0000000000000000000, 0.8750666168196724604, 0.4840024959933292292 ) ) ;
#358 = PLANE ( 'NONE',  #251 ) ;
#359 = EDGE_LOOP ( 'NONE', ( #150, #425, #401, #271 ) ) ;
#360 = CARTESIAN_POINT ( 'NONE',  ( 14.91747914457472746, 10.82514449290671976, 31.83153709835126577 ) ) ;
#361 = ADVANCED_FACE ( 'NONE', ( #66 ), #77, .T. ) ;
#362 = SURFACE_SIDE_STYLE ('',( #662 ) ) ;
#363 = ORIENTED_EDGE ( 'NONE', *, *, #50, .F. ) ;
#364 = AXIS2_PLACEMENT_3D ( 'NONE', #319, #520, #282 ) ;
#365 = VERTEX_POINT ( 'NONE', #130 ) ;
#366 = LINE ( 'NONE', #10, #601 ) ;
#367 = EDGE_CURVE ( 'NONE', #79, #514, #298, .T. ) ;
#368 = MANIFOLD_SOLID_BREP ( 'Imported1', #338 ) ;
#369 = PRESENTATION_STYLE_ASSIGNMENT (( #188 ) ) ;
#370 = VERTEX_POINT ( 'NONE', #89 ) ;
#371 = CARTESIAN_POINT ( 'NONE',  ( 12.85171189729242336, 14.52656769557456684, 30.74367900442980073 ) ) ;
#372 = ORIENTED_EDGE ( 'NONE', *, *, #512, .F. ) ;
#373 = LINE ( 'NONE', #556, #452 ) ;
#374 = DIRECTION ( 'NONE',  ( 0.1816747739598676692, 0.8533082554548403476, 0.4887323374601356685 ) ) ;
#375 = EDGE_CURVE ( 'NONE', #603, #377, #490, .T. ) ;
#376 = VERTEX_POINT ( 'NONE', #629 ) ;
#377 = VERTEX_POINT ( 'NONE', #387 ) ;
#378 = CARTESIAN_POINT ( 'NONE',  ( 11.48823834639114594, 13.28329474155295387, 33.42122604667318342 ) ) ;
#379 = AXIS2_PLACEMENT_3D ( 'NONE', #605, #72, #306 ) ;
#380 = CARTESIAN_POINT ( 'NONE',  ( 14.87695861023096633, 10.58226745183278261, 32.27065382274139438 ) ) ;
#381 = CARTESIAN_POINT ( 'NONE',  ( 11.94242528129100123, 16.16207007502200099, 33.34143376898799715 ) ) ;
#382 = LINE ( 'NONE', #190, #327 ) ;
#383 = FACE_OUTER_BOUND ( 'NONE', #473, .T. ) ;
#384 = DIRECTION ( 'NONE',  ( 0.08048686583858227772, 0.4824322318725051684, -0.8722276113939499975 ) ) ;
#385 = ORIENTED_EDGE ( 'NONE', *, *, #416, .F. ) ;
#386 = ADVANCED_FACE ( 'NONE', ( #383 ), #435, .F. ) ;
#387 = CARTESIAN_POINT ( 'NONE',  ( 14.63246359975872757, 12.15200460854108577, 29.62846150659246902 ) ) ;
#388 = ORIENTED_EDGE ( 'NONE', *, *, #108, .F. ) ;
#389 = VECTOR ( 'NONE', #610, 1000.000000000000227 ) ;
#390 = CARTESIAN_POINT ( 'NONE',  ( 11.28648943741900013, 11.78177681808600141, 32.02559571800900073 ) ) ;
#391 = ORIENTED_EDGE ( 'NONE', *, *, #403, .T. ) ;
#392 =( NAMED_UNIT ( * ) SI_UNIT ( $, .STERADIAN. ) SOLID_ANGLE_UNIT ( ) );
#393 = LINE ( 'NONE', #335, #424 ) ;
#394 = FILL_AREA_STYLE_COLOUR ( '', #589 ) ;
#395 = DIRECTION ( 'NONE',  ( -0.1816747739590057198, -0.8533082554559767718, -0.4887323374584720548 ) ) ;
#396 = EDGE_LOOP ( 'NONE', ( #538, #348, #334, #637 ) ) ;
#397 = PLANE ( 'NONE',  #90 ) ;
#398 = VECTOR ( 'NONE', #679, 1000.000000000000227 ) ;
#399 = AXIS2_PLACEMENT_3D ( 'NONE', #296, #111, #4 ) ;
#400 = DIRECTION ( 'NONE',  ( -0.08048686583908291892, -0.4824322318720775660, 0.8722276113941404008 ) ) ;
#401 = ORIENTED_EDGE ( 'NONE', *, *, #591, .T. ) ;
#402 = DIRECTION ( 'NONE',  ( 0.0000000000000000000, -0.4970031298864857616, 0.8677487475548651963 ) ) ;
#403 = EDGE_CURVE ( 'NONE', #376, #619, #563, .T. ) ;
#404 = DIRECTION ( 'NONE',  ( 8.673617379884037444E-16, 0.4970031298864855396, -0.8677487475548651963 ) ) ;
#405 = ORIENTED_EDGE ( 'NONE', *, *, #617, .F. ) ;
#406 = LINE ( 'NONE', #293, #562 ) ;
#407 = EDGE_CURVE ( 'NONE', #370, #184, #222, .T. ) ;
#408 = FACE_OUTER_BOUND ( 'NONE', #771, .T. ) ;
#409 = ORIENTED_EDGE ( 'NONE', *, *, #322, .T. ) ;
#410 = DIRECTION ( 'NONE',  ( 0.1978338714683789690, 0.9802355631682789783, 0.0000000000000000000 ) ) ;
#411 = CARTESIAN_POINT ( 'NONE',  ( 10.75885152029640146, 11.63721116390012256, 32.47413891577901524 ) ) ;
#412 = CIRCLE ( 'NONE', #399, 1.499999999999999556 ) ;
#413 = ORIENTED_EDGE ( 'NONE', *, *, #505, .T. ) ;
#414 = CARTESIAN_POINT ( 'NONE',  ( 11.69228583839699986, 12.74539947319400035, 29.68535848539299948 ) ) ;
#415 = DIRECTION ( 'NONE',  ( -0.08048686583908294667, -0.4824322318720776215, 0.8722276113941402897 ) ) ;
#416 = EDGE_CURVE ( 'NONE', #27, #683, #148, .T. ) ;
#417 = ORIENTED_EDGE ( 'NONE', *, *, #35, .T. ) ;
#418 = CARTESIAN_POINT ( 'NONE',  ( 11.49447851744199944, 13.00582108044799945, 29.81114547548299853 ) ) ;
#419 = CARTESIAN_POINT ( 'NONE',  ( 11.35645368122400001, 10.85044293664400072, 32.09411972977699889 ) ) ;
#420 = VERTEX_POINT ( 'NONE', #681 ) ;
#421 = EDGE_CURVE ( 'NONE', #660, #227, #152, .T. ) ;
#422 = CARTESIAN_POINT ( 'NONE',  ( 14.78666106947859049, 10.15814892788209711, 32.02773992117697333 ) ) ;
#423 = CARTESIAN_POINT ( 'NONE',  ( 10.19259930563291405, 14.17326284053873842, 30.30288891347214175 ) ) ;
#424 = VECTOR ( 'NONE', #37, 1000.000000000000114 ) ;
#425 = ORIENTED_EDGE ( 'NONE', *, *, #41, .F. ) ;
#426 = VECTOR ( 'NONE', #429, 999.9999999999998863 ) ;
#427 = DIRECTION ( 'NONE',  ( 0.08048686583908294667, 0.4824322318720776215, -0.8722276113941402897 ) ) ;
#428 = ADVANCED_FACE ( 'NONE', ( #217 ), #103, .T. ) ;
#429 = DIRECTION ( 'NONE',  ( 0.9800592537872747645, -0.1977982882177365120, -0.01896565960000983625 ) ) ;
#430 = VERTEX_POINT ( 'NONE', #738 ) ;
#431 = CARTESIAN_POINT ( 'NONE',  ( 11.30656357243299936, 13.17549118092700056, 31.63087058788199712 ) ) ;
#432 = EDGE_CURVE ( 'NONE', #420, #365, #163, .T. ) ;
#433 = ORIENTED_EDGE ( 'NONE', *, *, #552, .F. ) ;
#434 = FACE_BOUND ( 'NONE', #259, .T. ) ;
#435 = CYLINDRICAL_SURFACE ( 'NONE', #214, 0.2477594767350009275 ) ;
#436 = ORIENTED_EDGE ( 'NONE', *, *, #218, .T. ) ;
#437 = VECTOR ( 'NONE', #374, 1000.000000000000227 ) ;
#438 = LINE ( 'NONE', #132, #503 ) ;
#439 = AXIS2_PLACEMENT_3D ( 'NONE', #496, #456, #745 ) ;
#440 = DIRECTION ( 'NONE',  ( 0.08048686583853867371, 0.4824322318725127734, -0.8722276113939496645 ) ) ;
#441 = CARTESIAN_POINT ( 'NONE',  ( 11.14141049269507100, 13.71723089490633818, 30.74640522988219260 ) ) ;
#442 = EDGE_CURVE ( 'NONE', #430, #722, #678, .T. ) ;
#443 = ORIENTED_EDGE ( 'NONE', *, *, #133, .T. ) ;
#444 = FACE_BOUND ( 'NONE', #167, .T. ) ;
#445 = DIRECTION ( 'NONE',  ( -0.1816747739591800526, -0.8533082554559406896, -0.4887323374584701674 ) ) ;
#446 = CARTESIAN_POINT ( 'NONE',  ( 11.35645368122386323, 10.85044293664335591, 32.09411972977662941 ) ) ;
#447 = VERTEX_POINT ( 'NONE', #553 ) ;
#448 = EDGE_CURVE ( 'NONE', #731, #660, #558, .T. ) ;
#449 = CARTESIAN_POINT ( 'NONE',  ( 11.46701148914771551, 11.39599998113095047, 32.11747526914674467 ) ) ;
#450 = ORIENTED_EDGE ( 'NONE', *, *, #718, .T. ) ;
#451 = VECTOR ( 'NONE', #320, 1000.000000000000114 ) ;
#452 = VECTOR ( 'NONE', #207, 1000.000000000000000 ) ;
#453 = CYLINDRICAL_SURFACE ( 'NONE', #36, 1.999999999999999556 ) ;
#454 = PRODUCT_CONTEXT ( 'NONE', #241, 'mechanical' ) ;
#455 = CARTESIAN_POINT ( 'NONE',  ( 14.54081211966322940, 11.72152676681666961, 29.38190530551774771 ) ) ;
#456 = DIRECTION ( 'NONE',  ( 0.1816747739593909394, 0.8533082554557624988, 0.4887323374587029257 ) ) ;
#457 = DIRECTION ( 'NONE',  ( 0.0000000000000000000, -0.8750666168196727934, -0.4840024959933283966 ) ) ;
#458 = ADVANCED_FACE ( 'NONE', ( #267 ), #397, .T. ) ;
#459 = ORIENTED_EDGE ( 'NONE', *, *, #448, .F. ) ;
#460 = PRESENTATION_STYLE_ASSIGNMENT (( #639 ) ) ;
#461 = FACE_BOUND ( 'NONE', #233, .T. ) ;
#462 = VECTOR ( 'NONE', #709, 1000.000000000000114 ) ;
#463 = DIRECTION ( 'NONE',  ( 0.0000000000000000000, 0.4970031298864864833, -0.8677487475548646412 ) ) ;
#464 = PRODUCT_DEFINITION_SHAPE ( 'NONE', 'NONE',  #557 ) ;
#465 = VERTEX_POINT ( 'NONE', #644 ) ;
#466 = ADVANCED_FACE ( 'NONE', ( #257, #461 ), #676, .T. ) ;
#467 = UNCERTAINTY_MEASURE_WITH_UNIT (LENGTH_MEASURE( 1.000000000000000082E-05 ), #69, 'distance_accuracy_value', 'NONE');
#468 = FACE_OUTER_BOUND ( 'NONE', #101, .T. ) ;
#469 = LINE ( 'NONE', #347, #655 ) ;
#470 = ORIENTED_EDGE ( 'NONE', *, *, #564, .F. ) ;
#471 = CARTESIAN_POINT ( 'NONE',  ( 10.37427407959301284, 15.02657109599451601, 30.79162125093089131 ) ) ;
#472 = CARTESIAN_POINT ( 'NONE',  ( 11.39697421556799917, 11.09331997771900014, 31.65500300538700529 ) ) ;
#473 = EDGE_LOOP ( 'NONE', ( #571, #697, #87, #220 ) ) ;
#474 = CARTESIAN_POINT ( 'NONE',  ( 11.24596890307402930, 11.53889977701016711, 32.46471244239770471 ) ) ;
#475 = DIRECTION ( 'NONE',  ( -0.08048686583904629543, -0.4824322318727250480, 0.8722276113937855735 ) ) ;
#476 = MECHANICAL_DESIGN_GEOMETRIC_PRESENTATION_REPRESENTATION (  '', ( #253 ), #616 ) ;
#477 = ORIENTED_EDGE ( 'NONE', *, *, #50, .T. ) ;
#478 = CARTESIAN_POINT ( 'NONE',  ( 11.48823834639114594, 14.77430413121241415, 30.81797980400858705 ) ) ;
#479 = ORIENTED_EDGE ( 'NONE', *, *, #225, .F. ) ;
#480 = DIRECTION ( 'NONE',  ( -0.08048686583931612126, -0.4824322318723754388, 0.8722276113939539943 ) ) ;
#481 = DIRECTION ( 'NONE',  ( -0.1816747739594757327, -0.8533082554555222465, -0.4887323374590908376 ) ) ;
#482 = ORIENTED_EDGE ( 'NONE', *, *, #178, .T. ) ;
#483 = DIRECTION ( 'NONE',  ( 0.0000000000000000000, -0.4970031298864857616, 0.8677487475548651963 ) ) ;
#484 = LINE ( 'NONE', #245, #314 ) ;
#485 = AXIS2_PLACEMENT_3D ( 'NONE', #730, #597, #236 ) ;
#486 = VERTEX_POINT ( 'NONE', #493 ) ;
#487 = AXIS2_PLACEMENT_3D ( 'NONE', #250, #318, #256 ) ;
#488 = CARTESIAN_POINT ( 'NONE',  ( 11.49447851744199944, 13.00582108044799945, 29.81114547548299853 ) ) ;
#489 = EDGE_CURVE ( 'NONE', #615, #731, #45, .T. ) ;
#490 = LINE ( 'NONE', #699, #575 ) ;
#491 = ORIENTED_EDGE ( 'NONE', *, *, #497, .F. ) ;
#492 = DIRECTION ( 'NONE',  ( 0.0000000000000000000, 0.8750666168196719052, 0.4840024959933300619 ) ) ;
#493 = CARTESIAN_POINT ( 'NONE',  ( 14.91747914457455337, 10.82514449290720115, 31.83153709835151446 ) ) ;
#494 = ORIENTED_EDGE ( 'NONE', *, *, #19, .F. ) ;
#495 = DIRECTION ( 'NONE',  ( -0.9800592537872132581, 0.1977982882180430169, 0.01896565959999410578 ) ) ;
#496 = CARTESIAN_POINT ( 'NONE',  ( 11.94242528129100123, 16.16207007502150006, 33.34143376898800426 ) ) ;
#497 = EDGE_CURVE ( 'NONE', #514, #376, #197, .T. ) ;
#498 = CIRCLE ( 'NONE', #599, 0.2514857490020006026 ) ;
#499 = ORIENTED_EDGE ( 'NONE', *, *, #333, .F. ) ;
#500 = AXIS2_PLACEMENT_3D ( 'NONE', #161, #47, #291 ) ;
#501 = EDGE_LOOP ( 'NONE', ( #477, #176, #728, #580 ) ) ;
#502 = DIRECTION ( 'NONE',  ( 0.0000000000000000000, -0.8750666168196727934, -0.4840024959933283966 ) ) ;
#503 = VECTOR ( 'NONE', #23, 999.9999999999998863 ) ;
#504 = DIRECTION ( 'NONE',  ( 0.9800592537872564458, -0.1977982882178020985, -0.01896565960026760922 ) ) ;
#505 = EDGE_CURVE ( 'NONE', #356, #289, #535, .T. ) ;
#506 = FACE_OUTER_BOUND ( 'NONE', #544, .T. ) ;
#507 = ORIENTED_EDGE ( 'NONE', *, *, #46, .T. ) ;
#508 = DIRECTION ( 'NONE',  ( 0.0000000000000000000, 0.4970031298864857616, -0.8677487475548651963 ) ) ;
#509 = DIRECTION ( 'NONE',  ( 0.0000000000000000000, 0.8750666168196703509, 0.4840024959933326709 ) ) ;
#510 = ORIENTED_EDGE ( 'NONE', *, *, #403, .F. ) ;
#511 =( LENGTH_UNIT ( ) NAMED_UNIT ( * ) SI_UNIT ( .MILLI., .METRE. ) );
#512 = EDGE_CURVE ( 'NONE', #641, #278, #412, .T. ) ;
#513 = CARTESIAN_POINT ( 'NONE',  ( 11.56031287760800019, 12.07323770303099941, 29.87576188545499889 ) ) ;
#514 = VERTEX_POINT ( 'NONE', #422 ) ;
#515 = VECTOR ( 'NONE', #661, 1000.000000000000227 ) ;
#516 = DIRECTION ( 'NONE',  ( -0.08048686583908294667, -0.4824322318720776215, 0.8722276113941402897 ) ) ;
#517 = ORIENTED_EDGE ( 'NONE', *, *, #297, .F. ) ;
#518 = PLANE ( 'NONE',  #631 ) ;
#519 = EDGE_LOOP ( 'NONE', ( #507, #759, #295, #542 ) ) ;
#520 = DIRECTION ( 'NONE',  ( -0.1816747739599167133, -0.8533082554556088439, -0.4887323374587759228 ) ) ;
#521 = ADVANCED_FACE ( 'NONE', ( #54 ), #302, .T. ) ;
#522 = ORIENTED_EDGE ( 'NONE', *, *, #532, .T. ) ;
#523 = CARTESIAN_POINT ( 'NONE',  ( 10.98104682860103765, 12.73339646043223716, 32.52375452884746210 ) ) ;
#524 = CIRCLE ( 'NONE', #751, 1.499999999999999556 ) ;
#525 = CIRCLE ( 'NONE', #761, 0.2477594767350009275 ) ;
#526 = DIRECTION ( 'NONE',  ( 0.08048686583908291892, 0.4824322318720775660, -0.8722276113941404008 ) ) ;
#527 = ORIENTED_EDGE ( 'NONE', *, *, #297, .T. ) ;
#528 = CARTESIAN_POINT ( 'NONE',  ( 11.71713674498299973, 12.83597271584000055, 30.02492635415299915 ) ) ;
#529 = CARTESIAN_POINT ( 'NONE',  ( 11.48823834639114594, 14.02879943638268578, 32.11960292534088524 ) ) ;
#530 = VERTEX_POINT ( 'NONE', #244 ) ;
#531 = CARTESIAN_POINT ( 'NONE',  ( 11.49243983857885532, 11.48915632634670381, 32.45994284928811879 ) ) ;
#532 = EDGE_CURVE ( 'NONE', #292, #199, #654, .T. ) ;
#533 = CARTESIAN_POINT ( 'NONE',  ( 11.49447851744193194, 13.00582108044767438, 29.81114547548285998 ) ) ;
#534 = EDGE_LOOP ( 'NONE', ( #159, #17, #30, #122, #735, #391, #305, #522 ) ) ;
#535 = LINE ( 'NONE', #471, #128 ) ;
#536 = VECTOR ( 'NONE', #579, 1000.000000000000114 ) ;
#537 = FACE_OUTER_BOUND ( 'NONE', #649, .T. ) ;
#538 = ORIENTED_EDGE ( 'NONE', *, *, #442, .F. ) ;
#539 = LINE ( 'NONE', #290, #774 ) ;
#540 = CARTESIAN_POINT ( 'NONE',  ( 11.53296037292324705, 11.73203336742191816, 32.02082612489876112 ) ) ;
#541 = EDGE_CURVE ( 'NONE', #486, #9, #127, .T. ) ;
#542 = ORIENTED_EDGE ( 'NONE', *, *, #421, .F. ) ;
#543 = EDGE_CURVE ( 'NONE', #71, #199, #539, .T. ) ;
#544 = EDGE_LOOP ( 'NONE', ( #566, #126, #92, #413 ) ) ;
#545 = ORIENTED_EDGE ( 'NONE', *, *, #416, .T. ) ;
#546 = FACE_OUTER_BOUND ( 'NONE', #501, .T. ) ;
#547 = CARTESIAN_POINT ( 'NONE',  ( 14.82718160382240313, 10.40102596895832221, 31.58862319678702590 ) ) ;
#548 = CARTESIAN_POINT ( 'NONE',  ( 11.18173197338906277, 13.95891482334532974, 30.30944562874466186 ) ) ;
#549 = EDGE_CURVE ( 'NONE', #755, #356, #49, .T. ) ;
#550 = ORIENTED_EDGE ( 'NONE', *, *, #342, .F. ) ;
#551 = CARTESIAN_POINT ( 'NONE',  ( 11.69697600463592657, 12.71513075162092399, 30.24340615472099003 ) ) ;
#552 = EDGE_CURVE ( 'NONE', #514, #530, #406, .T. ) ;
#553 = CARTESIAN_POINT ( 'NONE',  ( 11.39697421556767942, 11.09331997771893796, 31.65500300538723266 ) ) ;
#554 = CARTESIAN_POINT ( 'NONE',  ( 11.35645368122353638, 10.85044293664375736, 32.09411972977682836 ) ) ;
#555 = ORIENTED_EDGE ( 'NONE', *, *, #541, .F. ) ;
#556 = CARTESIAN_POINT ( 'NONE',  ( 11.67212509804989651, 12.62455750897478879, 29.90383828596083404 ) ) ;
#557 = PRODUCT_DEFINITION ( 'UNKNOWN', '', #266, #618 ) ;
#558 = LINE ( 'NONE', #24, #53 ) ;
#559 = CARTESIAN_POINT ( 'NONE',  ( 11.94242528129100123, 16.16207007502150006, 33.34143376898800426 ) ) ;
#560 = AXIS2_PLACEMENT_3D ( 'NONE', #694, #270, #509 ) ;
#561 = ORIENTED_EDGE ( 'NONE', *, *, #88, .F. ) ;
#562 = VECTOR ( 'NONE', #285, 1000.000000000000227 ) ;
#563 = LINE ( 'NONE', #380, #202 ) ;
#564 = EDGE_CURVE ( 'NONE', #584, #71, #349, .T. ) ;
#565 = FACE_OUTER_BOUND ( 'NONE', #131, .T. ) ;
#566 = ORIENTED_EDGE ( 'NONE', *, *, #225, .T. ) ;
#567 =( NAMED_UNIT ( * ) PLANE_ANGLE_UNIT ( ) SI_UNIT ( $, .RADIAN. ) );
#568 = LINE ( 'NONE', #634, #614 ) ;
#569 = APPLICATION_CONTEXT ( 'automotive_design' ) ;
#570 = ADVANCED_FACE ( 'NONE', ( #468 ), #650, .T. ) ;
#571 = ORIENTED_EDGE ( 'NONE', *, *, #582, .T. ) ;
#572 = CARTESIAN_POINT ( 'NONE',  ( 11.14141049269509587, 13.71723089490656733, 30.74640522988097402 ) ) ;
#573 = VECTOR ( 'NONE', #395, 999.9999999999998863 ) ;
#574 = VECTOR ( 'NONE', #480, 1000.000000000000114 ) ;
#575 = VECTOR ( 'NONE', #440, 1000.000000000000114 ) ;
#576 = PLANE ( 'NONE',  #600 ) ;
#577 = ORIENTED_EDGE ( 'NONE', *, *, #407, .T. ) ;
#578 = CARTESIAN_POINT ( 'NONE',  ( 11.48823834639200214, 14.02879943638200011, 32.11960292534099892 ) ) ;
#579 = DIRECTION ( 'NONE',  ( 0.08048686583934662464, 0.4824322318725167147, -0.8722276113938730591 ) ) ;
#580 = ORIENTED_EDGE ( 'NONE', *, *, #685, .F. ) ;
#581 = DIRECTION ( 'NONE',  ( 0.08048686583908294667, 0.4824322318720776215, -0.8722276113941402897 ) ) ;
#582 = EDGE_CURVE ( 'NONE', #227, #420, #240, .T. ) ;
#583 = DIRECTION ( 'NONE',  ( 0.1978338714683789690, 0.9802355631682789783, 0.0000000000000000000 ) ) ;
#584 = VERTEX_POINT ( 'NONE', #523 ) ;
#585 = CARTESIAN_POINT ( 'NONE',  ( 10.98104682860107140, 12.73339646043242190, 32.52375452884723472 ) ) ;
#586 = VECTOR ( 'NONE', #205, 1000.000000000000114 ) ;
#587 = AXIS2_PLACEMENT_3D ( 'NONE', #559, #746, #153 ) ;
#588 = AXIS2_PLACEMENT_3D ( 'NONE', #431, #248, #483 ) ;
#589 = COLOUR_RGB ( '',0.9176470588235293713, 0.9490196078431372140, 0.9568627450980391469 ) ;
#590 = PLANE ( 'NONE',  #726 ) ;
#591 = EDGE_CURVE ( 'NONE', #722, #278, #60, .T. ) ;
#592 = ORIENTED_EDGE ( 'NONE', *, *, #432, .T. ) ;
#593 = CARTESIAN_POINT ( 'NONE',  ( 14.59214211906499159, 11.91032068010293976, 30.06542110772910803 ) ) ;
#594 = DIRECTION ( 'NONE',  ( 0.1816747739599167133, 0.8533082554556087329, 0.4887323374587759228 ) ) ;
#595 = VERTEX_POINT ( 'NONE', #720 ) ;
#596 = LINE ( 'NONE', #593, #339 ) ;
#597 = DIRECTION ( 'NONE',  ( 0.08048686583908294667, 0.4824322318720776215, -0.8722276113941402897 ) ) ;
#598 = DIRECTION ( 'NONE',  ( 0.1816747739599465228, 0.8533082554557862576, 0.4887323374584545688 ) ) ;
#599 = AXIS2_PLACEMENT_3D ( 'NONE', #149, #516, #750 ) ;
#600 = AXIS2_PLACEMENT_3D ( 'NONE', #280, #400, #457 ) ;
#601 = VECTOR ( 'NONE', #136, 1000.000000000000000 ) ;
#602 = DIRECTION ( 'NONE',  ( 0.0000000000000000000, -0.4970031298864857616, 0.8677487475548651963 ) ) ;
#603 = VERTEX_POINT ( 'NONE', #121 ) ;
#604 = ORIENTED_EDGE ( 'NONE', *, *, #169, .T. ) ;
#605 = CARTESIAN_POINT ( 'NONE',  ( 10.37427407959300041, 15.02657109599499918, 30.79162125093100499 ) ) ;
#606 = EDGE_CURVE ( 'NONE', #603, #189, #596, .T. ) ;
#607 = ORIENTED_EDGE ( 'NONE', *, *, #169, .F. ) ;
#608 = UNCERTAINTY_MEASURE_WITH_UNIT (LENGTH_MEASURE( 1.000000000000000082E-05 ), #511, 'distance_accuracy_value', 'NONE');
#609 = CARTESIAN_POINT ( 'NONE',  ( 11.67615329140106439, 13.85912933590335605, 30.29987781294154914 ) ) ;
#610 = DIRECTION ( 'NONE',  ( -0.9800592537872193644, 0.1977982882180246704, 0.01896565959986374478 ) ) ;
#611 = VERTEX_POINT ( 'NONE', #228 ) ;
#612 = FACE_OUTER_BOUND ( 'NONE', #623, .T. ) ;
#613 = CARTESIAN_POINT ( 'NONE',  ( 11.69697600463592302, 12.71513075162090622, 30.24340615472102201 ) ) ;
#614 = VECTOR ( 'NONE', #208, 1000.000000000000000 ) ;
#615 = VERTEX_POINT ( 'NONE', #772 ) ;
#616 =( GEOMETRIC_REPRESENTATION_CONTEXT ( 3 ) GLOBAL_UNCERTAINTY_ASSIGNED_CONTEXT ( ( #467 ) ) GLOBAL_UNIT_ASSIGNED_CONTEXT ( ( #69, #734, #203 ) ) REPRESENTATION_CONTEXT ( 'NONE', 'WORKASPACE' ) );
#617 = EDGE_CURVE ( 'NONE', #619, #292, #301, .T. ) ;
#618 = PRODUCT_DEFINITION_CONTEXT ( 'detailed design', #569, 'design' ) ;
#619 = VERTEX_POINT ( 'NONE', #769 ) ;
#620 = CARTESIAN_POINT ( 'NONE',  ( 10.79937205464099925, 11.88008820497599949, 32.03502219138899676 ) ) ;
#621 = DIRECTION ( 'NONE',  ( 0.08048686583908294667, 0.4824322318720776215, -0.8722276113941402897 ) ) ;
#622 = CARTESIAN_POINT ( 'NONE',  ( 11.48727175631958275, 11.51743850166903371, 31.89791690695172832 ) ) ;
#623 = EDGE_LOOP ( 'NONE', ( #363, #479 ) ) ;
#624 = DIRECTION ( 'NONE',  ( -0.1978338714683789690, -0.9802355631682789783, 0.0000000000000000000 ) ) ;
#625 = ADVANCED_FACE ( 'NONE', ( #711 ), #716, .T. ) ;
#626 = CARTESIAN_POINT ( 'NONE',  ( 11.60063435830200085, 12.31492163146899976, 29.43880228431800461 ) ) ;
#627 = ORIENTED_EDGE ( 'NONE', *, *, #178, .F. ) ;
#628 = ORIENTED_EDGE ( 'NONE', *, *, #19, .T. ) ;
#629 = CARTESIAN_POINT ( 'NONE',  ( 14.87695861023085619, 10.58226745183227990, 32.27065382274110306 ) ) ;
#630 = LINE ( 'NONE', #441, #64 ) ;
#631 = AXIS2_PLACEMENT_3D ( 'NONE', #355, #526, #710 ) ;
#632 = VERTEX_POINT ( 'NONE', #124 ) ;
#633 = CIRCLE ( 'NONE', #740, 0.7485142509979985093 ) ;
#634 = CARTESIAN_POINT ( 'NONE',  ( 11.67615329140105196, 13.85912933590324414, 30.29987781294213534 ) ) ;
#635 = VERTEX_POINT ( 'NONE', #63 ) ;
#636 = APPLICATION_PROTOCOL_DEFINITION ( 'draft international standard', 'automotive_design', 1998, #241 ) ;
#637 = ORIENTED_EDGE ( 'NONE', *, *, #591, .F. ) ;
#638 = ORIENTED_EDGE ( 'NONE', *, *, #442, .T. ) ;
#639 = SURFACE_STYLE_USAGE ( .BOTH. , #698 ) ;
#640 = FACE_OUTER_BOUND ( 'NONE', #311, .T. ) ;
#641 = VERTEX_POINT ( 'NONE', #378 ) ;
#642 = CIRCLE ( 'NONE', #299, 0.7522405232650012374 ) ;
#643 = AXIS2_PLACEMENT_3D ( 'NONE', #264, #744, #502 ) ;
#644 = CARTESIAN_POINT ( 'NONE',  ( 11.56031287760818671, 12.07323770303058907, 29.87576188545478573 ) ) ;
#645 = CARTESIAN_POINT ( 'NONE',  ( 11.28648943741900013, 11.78177681808600141, 32.02559571800900073 ) ) ;
#646 = ORIENTED_EDGE ( 'NONE', *, *, #543, .F. ) ;
#647 = ADVANCED_FACE ( 'NONE', ( #194 ), #139, .F. ) ;
#648 = DIRECTION ( 'NONE',  ( 0.08048686583931596861, 0.4824322318723780478, -0.8722276113939525510 ) ) ;
#649 = EDGE_LOOP ( 'NONE', ( #653, #670, #59, #749 ) ) ;
#650 = PLANE ( 'NONE',  #11 ) ;
#651 = ADVANCED_FACE ( 'NONE', ( #196 ), #736, .T. ) ;
#652 = DIRECTION ( 'NONE',  ( 0.1816747739598931211, 0.8533082554549751286, 0.4887323374598908643 ) ) ;
#653 = ORIENTED_EDGE ( 'NONE', *, *, #35, .F. ) ;
#654 = LINE ( 'NONE', #474, #352 ) ;
#655 = VECTOR ( 'NONE', #707, 1000.000000000000227 ) ;
#656 = VECTOR ( 'NONE', #686, 1000.000000000000114 ) ;
#657 = CARTESIAN_POINT ( 'NONE',  ( 11.42764367703413519, 12.39220803246615255, 32.95344477985668874 ) ) ;
#658 = ORIENTED_EDGE ( 'NONE', *, *, #322, .F. ) ;
#659 = DIRECTION ( 'NONE',  ( 0.1816747739599167133, 0.8533082554556088439, 0.4887323374587759228 ) ) ;
#660 = VERTEX_POINT ( 'NONE', #609 ) ;
#661 = DIRECTION ( 'NONE',  ( 0.1816747739599970657, 0.8533082554557744892, 0.4887323374584564561 ) ) ;
#662 = SURFACE_STYLE_FILL_AREA ( #714 ) ;
#663 = VERTEX_POINT ( 'NONE', #200 ) ;
#664 = ORIENTED_EDGE ( 'NONE', *, *, #108, .T. ) ;
#665 = EDGE_CURVE ( 'NONE', #611, #189, #373, .T. ) ;
#666 = CARTESIAN_POINT ( 'NONE',  ( 10.95973571873580710, 12.86392263945104020, 30.25767289242300251 ) ) ;
#667 = ORIENTED_EDGE ( 'NONE', *, *, #123, .T. ) ;
#668 = CARTESIAN_POINT ( 'NONE',  ( 11.94242528129088576, 16.90757476985119112, 32.03981064765537923 ) ) ;
#669 = LINE ( 'NONE', #547, #437 ) ;
#670 = ORIENTED_EDGE ( 'NONE', *, *, #758, .F. ) ;
#671 = DIRECTION ( 'NONE',  ( -4.635111418824397902E-15, 0.8750666168196743477, 0.4840024959933256765 ) ) ;
#672 = EDGE_CURVE ( 'NONE', #356, #755, #276, .T. ) ;
#673 = ORIENTED_EDGE ( 'NONE', *, *, #88, .T. ) ;
#674 = EDGE_LOOP ( 'NONE', ( #249, #98, #238, #385 ) ) ;
#675 = PLANE ( 'NONE',  #588 ) ;
#676 = PLANE ( 'NONE',  #315 ) ;
#677 = AXIS2_PLACEMENT_3D ( 'NONE', #193, #73, #310 ) ;
#678 = CIRCLE ( 'NONE', #439, 1.500000000000065059 ) ;
#679 = DIRECTION ( 'NONE',  ( -0.9800592537872895305, 0.1977982882176664015, 0.01896565959997139825 ) ) ;
#680 = CARTESIAN_POINT ( 'NONE',  ( 11.49243983857886242, 11.48915632634674466, 32.45994284928804063 ) ) ;
#681 = CARTESIAN_POINT ( 'NONE',  ( 11.45415703674779984, 12.76413715200900789, 30.24810507661947767 ) ) ;
#682 = ORIENTED_EDGE ( 'NONE', *, *, #104, .T. ) ;
#683 = VERTEX_POINT ( 'NONE', #321 ) ;
#684 = DIRECTION ( 'NONE',  ( 0.1816747739599167133, 0.8533082554556087329, 0.4887323374587759228 ) ) ;
#685 = EDGE_CURVE ( 'NONE', #743, #755, #382, .T. ) ;
#686 = DIRECTION ( 'NONE',  ( 0.1816747739589864297, 0.8533082554559789923, 0.4887323374584752189 ) ) ;
#687 = LINE ( 'NONE', #83, #398 ) ;
#688 = ORIENTED_EDGE ( 'NONE', *, *, #606, .T. ) ;
#689 = ADVANCED_FACE ( 'NONE', ( #434, #444, #612 ), #675, .F. ) ;
#690 = DIRECTION ( 'NONE',  ( -0.1978338714683789690, -0.9802355631682789783, 0.0000000000000000000 ) ) ;
#691 = CIRCLE ( 'NONE', #677, 0.7522405232650012374 ) ;
#692 = EDGE_LOOP ( 'NONE', ( #443, #8, #715, #56 ) ) ;
#693 = AXIS2_PLACEMENT_3D ( 'NONE', #414, #659, #173 ) ;
#694 = CARTESIAN_POINT ( 'NONE',  ( 11.51270010575100144, 11.61059484688400012, 32.24038448709399773 ) ) ;
#695 = ORIENTED_EDGE ( 'NONE', *, *, #367, .F. ) ;
#696 = DIRECTION ( 'NONE',  ( 0.08048686583908291892, 0.4824322318720775660, -0.8722276113941404008 ) ) ;
#697 = ORIENTED_EDGE ( 'NONE', *, *, #741, .F. ) ;
#698 = SURFACE_SIDE_STYLE ('',( #272 ) ) ;
#699 = CARTESIAN_POINT ( 'NONE',  ( 14.59214211906479441, 11.91032068010203382, 30.06542110772844723 ) ) ;
#700 = DIRECTION ( 'NONE',  ( 0.0000000000000000000, 0.8750666168196727934, 0.4840024959933283966 ) ) ;
#701 = VECTOR ( 'NONE', #332, 1000.000000000000114 ) ;
#702 = VECTOR ( 'NONE', #445, 999.9999999999998863 ) ;
#703 = DIRECTION ( 'NONE',  ( 0.0000000000000000000, 0.8750666168196719052, 0.4840024959933300619 ) ) ;
#704 = CARTESIAN_POINT ( 'NONE',  ( 10.94052629425604550, 12.49051941935627497, 32.96287125323650002 ) ) ;
#705 = ORIENTED_EDGE ( 'NONE', *, *, #753, .T. ) ;
#706 = DIRECTION ( 'NONE',  ( 0.0000000000000000000, 0.8750666168196703509, 0.4840024959933326709 ) ) ;
#707 = DIRECTION ( 'NONE',  ( 0.08048686583999829780, 0.4824322318722187863, -0.8722276113939776421 ) ) ;
#708 = EDGE_LOOP ( 'NONE', ( #247, #281, #300, #135 ) ) ;
#709 = DIRECTION ( 'NONE',  ( -0.9800592537872435672, 0.1977982882178791479, 0.01896565960012786337 ) ) ;
#710 = DIRECTION ( 'NONE',  ( 0.0000000000000000000, 0.8750666168196727934, 0.4840024959933283966 ) ) ;
#711 = FACE_OUTER_BOUND ( 'NONE', #162, .T. ) ;
#712 = AXIS2_PLACEMENT_3D ( 'NONE', #381, #215, #158 ) ;
#713 = PRESENTATION_LAYER_ASSIGNMENT (  '', '', ( #253 ) ) ;
#714 = FILL_AREA_STYLE ('',( #721 ) ) ;
#715 = ORIENTED_EDGE ( 'NONE', *, *, #129, .F. ) ;
#716 = PLANE ( 'NONE',  #693 ) ;
#717 = DIRECTION ( 'NONE',  ( -0.08048686583908294667, -0.4824322318720776215, 0.8722276113941402897 ) ) ;
#718 = EDGE_CURVE ( 'NONE', #465, #370, #366, .T. ) ;
#719 = EDGE_LOOP ( 'NONE', ( #230, #67 ) ) ;
#720 = CARTESIAN_POINT ( 'NONE',  ( 10.94052629425604550, 12.49051941935627497, 32.96287125323650002 ) ) ;
#721 = FILL_AREA_STYLE_COLOUR ( '', #115 ) ;
#722 = VERTEX_POINT ( 'NONE', #668 ) ;
#723 = ADVANCED_FACE ( 'NONE', ( #546 ), #146, .T. ) ;
#724 = FACE_OUTER_BOUND ( 'NONE', #708, .T. ) ;
#725 = ADVANCED_FACE ( 'NONE', ( #18 ), #75, .F. ) ;
#726 = AXIS2_PLACEMENT_3D ( 'NONE', #232, #219, #583 ) ;
#727 = VECTOR ( 'NONE', #504, 1000.000000000000227 ) ;
#728 = ORIENTED_EDGE ( 'NONE', *, *, #549, .F. ) ;
#729 = CARTESIAN_POINT ( 'NONE',  ( 12.67003712333264431, 13.67325944011859029, 30.25494666697115420 ) ) ;
#730 = CARTESIAN_POINT ( 'NONE',  ( 11.51270010575100144, 11.61059484688400012, 32.24038448709399773 ) ) ;
#731 = VERTEX_POINT ( 'NONE', #548 ) ;
#732 = CARTESIAN_POINT ( 'NONE',  ( 11.28648943741895572, 11.78177681808582555, 32.02559571800853178 ) ) ;
#733 = ADVANCED_FACE ( 'NONE', ( #724 ), #14, .T. ) ;
#734 =( NAMED_UNIT ( * ) PLANE_ANGLE_UNIT ( ) SI_UNIT ( $, .RADIAN. ) );
#735 = ORIENTED_EDGE ( 'NONE', *, *, #497, .T. ) ;
#736 = PLANE ( 'NONE',  #643 ) ;
#737 = AXIS2_PLACEMENT_3D ( 'NONE', #390, #26, #690 ) ;
#738 = CARTESIAN_POINT ( 'NONE',  ( 11.94242528129096215, 15.41656538019208789, 34.64305689032018876 ) ) ;
#739 = VECTOR ( 'NONE', #648, 1000.000000000000227 ) ;
#740 = AXIS2_PLACEMENT_3D ( 'NONE', #680, #84, #671 ) ;
#741 = EDGE_CURVE ( 'NONE', #189, #420, #525, .T. ) ;
#742 = CARTESIAN_POINT ( 'NONE',  ( 14.63246359975870270, 12.15200460854060616, 29.62846150659219902 ) ) ;
#743 = VERTEX_POINT ( 'NONE', #729 ) ;
#744 = DIRECTION ( 'NONE',  ( -0.08048686583908291892, -0.4824322318720775660, 0.8722276113941404008 ) ) ;
#745 = DIRECTION ( 'NONE',  ( 0.9800592537872907517, -0.1977982882176577695, -0.01896565959999921280 ) ) ;
#746 = DIRECTION ( 'NONE',  ( 0.1816747739593909394, 0.8533082554557624988, 0.4887323374587029257 ) ) ;
#747 = ORIENTED_EDGE ( 'NONE', *, *, #46, .F. ) ;
#748 = LINE ( 'NONE', #449, #192 ) ;
#749 = ORIENTED_EDGE ( 'NONE', *, *, #342, .T. ) ;
#750 = DIRECTION ( 'NONE',  ( -1.379579942689322827E-14, 0.8750666168196703509, 0.4840024959933326709 ) ) ;
#751 = AXIS2_PLACEMENT_3D ( 'NONE', #529, #58, #463 ) ;
#752 = VECTOR ( 'NONE', #346, 1000.000000000000227 ) ;
#753 = EDGE_CURVE ( 'NONE', #365, #27, #438, .T. ) ;
#754 = LINE ( 'NONE', #109, #389 ) ;
#755 = VERTEX_POINT ( 'NONE', #371 ) ;
#756 = CARTESIAN_POINT ( 'NONE',  ( 11.39697421556799917, 11.09331997771900014, 31.65500300538700529 ) ) ;
#757 = FACE_OUTER_BOUND ( 'NONE', #325, .T. ) ;
#758 = EDGE_CURVE ( 'NONE', #663, #79, #633, .T. ) ;
#759 = ORIENTED_EDGE ( 'NONE', *, *, #432, .F. ) ;
#760 = CIRCLE ( 'NONE', #587, 1.500000000000065059 ) ;
#761 = AXIS2_PLACEMENT_3D ( 'NONE', #551, #427, #492 ) ;
#762 = CARTESIAN_POINT ( 'NONE',  ( 11.94242528129100123, 16.90757476985172758, 32.03981064765569187 ) ) ;
#763 = STYLED_ITEM ( 'NONE', ( #460 ), #343 ) ;
#764 = DIRECTION ( 'NONE',  ( -0.1816747739591786648, -0.8533082554559423549, -0.4887323374584676694 ) ) ;
#765 = EDGE_LOOP ( 'NONE', ( #258, #499, #80, #317 ) ) ;
#766 = CARTESIAN_POINT ( 'NONE',  ( 15.22680058758200161, 12.38429802805699964, 31.55500794948200394 ) ) ;
#767 = LINE ( 'NONE', #704, #573 ) ;
#768 = VERTEX_POINT ( 'NONE', #732 ) ;
#769 = CARTESIAN_POINT ( 'NONE',  ( 11.44675122197525141, 11.27456146059383357, 32.33703363134092967 ) ) ;
#770 = LINE ( 'NONE', #411, #536 ) ;
#771 = EDGE_LOOP ( 'NONE', ( #331, #482, #628, #555, #517, #658, #550, #667 ) ) ;
#772 = CARTESIAN_POINT ( 'NONE',  ( 11.00005719942997295, 13.10560656788893397, 29.82071329128632442 ) ) ;
#773 = VECTOR ( 'NONE', #652, 1000.000000000000114 ) ;
#774 = VECTOR ( 'NONE', #177, 1000.000000000000114 ) ;
ENDSEC;
END-ISO-10303-21;
