ISO-10303-21;
HEADER;
FILE_DESCRIPTION (( 'STEP AP214' ),
    '1' );
FILE_NAME ('ALSRobot-LED Red 3mm V.STEP',
    '2018-12-14T02:04:57',
    ( '' ),
    ( '' ),
    'SwSTEP 2.0',
    'SolidWorks 2018',
    '' );
FILE_SCHEMA (( 'AUTOMOTIVE_DESIGN' ));
ENDSEC;

DATA;
#1 = FILL_AREA_STYLE ('',( #220 ) ) ;
#2 = LINE ( 'NONE', #621, #12 ) ;
#3 = DIRECTION ( 'NONE',  ( -1.000000000000000000, 0.0000000000000000000, 0.0000000000000000000 ) ) ;
#4 = ORIENTED_EDGE ( 'NONE', *, *, #571, .T. ) ;
#5 = CARTESIAN_POINT ( 'NONE',  ( 1.263922465976452969, 1.000000000000000000, -1.550000000000000488 ) ) ;
#6 = CARTESIAN_POINT ( 'NONE',  ( 0.2485142509980858283, 0.0000000000000000000, 1.018278592277236383 ) ) ;
#7 = EDGE_CURVE ( 'NONE', #597, #890, #889, .T. ) ;
#8 = FILL_AREA_STYLE ('',( #277 ) ) ;
#9 = AXIS2_PLACEMENT_3D ( 'NONE', #399, #465, #696 ) ;
#10 = APPLICATION_PROTOCOL_DEFINITION ( 'draft international standard', 'automotive_design', 1998, #769 ) ;
#11 = CARTESIAN_POINT ( 'NONE',  ( 0.0000000000000000000, 3.500000000000000000, 0.0000000000000000000 ) ) ;
#12 = VECTOR ( 'NONE', #781, 1000.000000000000000 ) ;
#13 = EDGE_CURVE ( 'NONE', #103, #802, #418, .T. ) ;
#14 = VECTOR ( 'NONE', #502, 1000.000000000000000 ) ;
#15 = DIRECTION ( 'NONE',  ( -1.000000000000000000, -0.0000000000000000000, 0.0000000000000000000 ) ) ;
#16 = FACE_BOUND ( 'NONE', #153, .T. ) ;
#17 = ORIENTED_EDGE ( 'NONE', *, *, #71, .F. ) ;
#18 = SURFACE_STYLE_FILL_AREA ( #886 ) ;
#19 = VERTEX_POINT ( 'NONE', #308 ) ;
#20 = VERTEX_POINT ( 'NONE', #843 ) ;
#21 = DIRECTION ( 'NONE',  ( 0.0000000000000000000, -1.000000000000000000, 0.0000000000000000000 ) ) ;
#22 = EDGE_CURVE ( 'NONE', #321, #391, #151, .T. ) ;
#23 = CARTESIAN_POINT ( 'NONE',  ( 0.4999999999999998890, -1.000000000000000000, -1.270000000000000018 ) ) ;
#24 = STYLED_ITEM ( 'NONE', ( #816 ), #326 ) ;
#25 = DIRECTION ( 'NONE',  ( 0.0000000000000000000, 0.0000000000000000000, 1.000000000000000000 ) ) ;
#26 = DIRECTION ( 'NONE',  ( -0.0000000000000000000, 0.0000000000000000000, -1.000000000000000000 ) ) ;
#27 = CARTESIAN_POINT ( 'NONE',  ( -1.500000000000000000, 3.500000000000000444, 1.836970198721029688E-16 ) ) ;
#28 = LINE ( 'NONE', #413, #62 ) ;
#29 = LINE ( 'NONE', #561, #99 ) ;
#30 = FACE_OUTER_BOUND ( 'NONE', #165, .T. ) ;
#31 = ORIENTED_EDGE ( 'NONE', *, *, #496, .F. ) ;
#32 = VERTEX_POINT ( 'NONE', #284 ) ;
#33 = DIRECTION ( 'NONE',  ( -0.0000000000000000000, 1.000000000000000000, -1.224646799147353207E-16 ) ) ;
#34 = AXIS2_PLACEMENT_3D ( 'NONE', #505, #33, #642 ) ;
#35 = CARTESIAN_POINT ( 'NONE',  ( -0.2485142509980858283, 0.0000000000000000000, 1.018278592277236383 ) ) ;
#36 = DIRECTION ( 'NONE',  ( -1.000000000000000000, 0.0000000000000000000, 0.0000000000000000000 ) ) ;
#37 =( NAMED_UNIT ( * ) PLANE_ANGLE_UNIT ( ) SI_UNIT ( $, .RADIAN. ) );
#38 = CARTESIAN_POINT ( 'NONE',  ( 0.5000000000000034417, -1.752240523264949612, -1.019515152106898137 ) ) ;
#39 = VECTOR ( 'NONE', #144, 1000.000000000000000 ) ;
#40 = VECTOR ( 'NONE', #783, 1000.000000000000000 ) ;
#41 = DIRECTION ( 'NONE',  ( -0.0000000000000000000, -1.000000000000000000, -0.0000000000000000000 ) ) ;
#42 = VERTEX_POINT ( 'NONE', #497 ) ;
#43 = VERTEX_POINT ( 'NONE', #682 ) ;
#44 = ORIENTED_EDGE ( 'NONE', *, *, #169, .F. ) ;
#45 = EDGE_CURVE ( 'NONE', #114, #204, #383, .T. ) ;
#46 = ORIENTED_EDGE ( 'NONE', *, *, #225, .T. ) ;
#47 = CYLINDRICAL_SURFACE ( 'NONE', #420, 0.2514857490019141717 ) ;
#48 = EDGE_LOOP ( 'NONE', ( #407, #46, #249, #106 ) ) ;
#49 = ORIENTED_EDGE ( 'NONE', *, *, #528, .T. ) ;
#50 = EDGE_CURVE ( 'NONE', #890, #19, #662, .T. ) ;
#51 = PLANE ( 'NONE',  #9 ) ;
#52 = CYLINDRICAL_SURFACE ( 'NONE', #128, 0.7485142509980858838 ) ;
#53 = LINE ( 'NONE', #858, #688 ) ;
#54 = ORIENTED_EDGE ( 'NONE', *, *, #7, .F. ) ;
#55 = DIRECTION ( 'NONE',  ( -0.0000000000000000000, -1.000000000000000000, -0.0000000000000000000 ) ) ;
#56 =( NAMED_UNIT ( * ) PLANE_ANGLE_UNIT ( ) SI_UNIT ( $, .RADIAN. ) );
#57 = CARTESIAN_POINT ( 'NONE',  ( 1.836970198721030181E-16, 3.500000000000000000, 1.500000000000000222 ) ) ;
#58 = PLANE ( 'NONE',  #92 ) ;
#59 = EDGE_CURVE ( 'NONE', #391, #649, #302, .T. ) ;
#60 = AXIS2_PLACEMENT_3D ( 'NONE', #550, #203, #767 ) ;
#61 = DIRECTION ( 'NONE',  ( 0.0000000000000000000, 1.000000000000000000, 0.0000000000000000000 ) ) ;
#62 = VECTOR ( 'NONE', #131, 1000.000000000000000 ) ;
#63 = CARTESIAN_POINT ( 'NONE',  ( 1.500000000000000000, 3.500000000000000000, 0.0000000000000000000 ) ) ;
#64 = CYLINDRICAL_SURFACE ( 'NONE', #863, 2.000000000000000000 ) ;
#65 = ORIENTED_EDGE ( 'NONE', *, *, #619, .T. ) ;
#66 = VERTEX_POINT ( 'NONE', #117 ) ;
#67 = DIRECTION ( 'NONE',  ( -0.0000000000000000000, -1.000000000000000000, -0.0000000000000000000 ) ) ;
#68 = CARTESIAN_POINT ( 'NONE',  ( 0.4999999999999998890, -1.000000000000000000, -1.520484847893101898 ) ) ;
#69 = UNCERTAINTY_MEASURE_WITH_UNIT (LENGTH_MEASURE( 1.000000000000000082E-05 ), #641, 'distance_accuracy_value', 'NONE');
#70 = CARTESIAN_POINT ( 'NONE',  ( 0.5000000000000034417, -1.752240523264949612, -1.019515152106898137 ) ) ;
#71 = EDGE_CURVE ( 'NONE', #527, #204, #278, .T. ) ;
#72 = DIRECTION ( 'NONE',  ( -0.0000000000000000000, -0.0000000000000000000, -1.000000000000000000 ) ) ;
#73 = ADVANCED_FACE ( 'NONE', ( #474 ), #762, .T. ) ;
#74 = DIRECTION ( 'NONE',  ( -1.000000000000000000, 0.0000000000000000000, -0.0000000000000000000 ) ) ;
#75 = EDGE_CURVE ( 'NONE', #790, #527, #191, .T. ) ;
#76 = SURFACE_SIDE_STYLE ('',( #253 ) ) ;
#77 = LINE ( 'NONE', #86, #549 ) ;
#78 =( NAMED_UNIT ( * ) SI_UNIT ( $, .STERADIAN. ) SOLID_ANGLE_UNIT ( ) );
#79 = VECTOR ( 'NONE', #761, 1000.000000000000000 ) ;
#80 = VERTEX_POINT ( 'NONE', #120 ) ;
#81 = ORIENTED_EDGE ( 'NONE', *, *, #807, .T. ) ;
#82 = CARTESIAN_POINT ( 'NONE',  ( 1.500000000000000000, 3.500000000000000000, 0.0000000000000000000 ) ) ;
#83 = CARTESIAN_POINT ( 'NONE',  ( 0.2522405232649495010, -1.000000000000000444, -1.520484847893101898 ) ) ;
#84 = DIRECTION ( 'NONE',  ( 1.000000000000000000, -0.0000000000000000000, 0.0000000000000000000 ) ) ;
#85 = PRODUCT ( 'ALSRobot-LED Red 3mm V', 'ALSRobot-LED Red 3mm V', '', ( #560 ) ) ;
#86 = CARTESIAN_POINT ( 'NONE',  ( 0.5000000000000034417, -1.251485749001914227, 1.270000000000000018 ) ) ;
#87 = SURFACE_STYLE_USAGE ( .BOTH. , #288 ) ;
#88 = FACE_OUTER_BOUND ( 'NONE', #568, .T. ) ;
#89 = LINE ( 'NONE', #244, #616 ) ;
#90 = ORIENTED_EDGE ( 'NONE', *, *, #536, .T. ) ;
#91 = FACE_OUTER_BOUND ( 'NONE', #409, .T. ) ;
#92 = AXIS2_PLACEMENT_3D ( 'NONE', #333, #115, #911 ) ;
#93 = ORIENTED_EDGE ( 'NONE', *, *, #882, .T. ) ;
#94 = ORIENTED_EDGE ( 'NONE', *, *, #510, .T. ) ;
#95 = DIRECTION ( 'NONE',  ( -1.000000000000000000, 0.0000000000000000000, 0.0000000000000000000 ) ) ;
#96 = DIRECTION ( 'NONE',  ( 0.0000000000000000000, 1.000000000000000000, 0.0000000000000000000 ) ) ;
#97 = EDGE_CURVE ( 'NONE', #385, #320, #729, .T. ) ;
#98 = DIRECTION ( 'NONE',  ( 0.0000000000000000000, 0.0000000000000000000, -1.000000000000000000 ) ) ;
#99 = VECTOR ( 'NONE', #259, 1000.000000000000000 ) ;
#100 = SURFACE_STYLE_FILL_AREA ( #201 ) ;
#101 = STYLED_ITEM ( 'NONE', ( #173 ), #197 ) ;
#102 = CARTESIAN_POINT ( 'NONE',  ( -0.2485142509980858283, -1.951563910473907981E-15, 1.521721407722763653 ) ) ;
#103 = VERTEX_POINT ( 'NONE', #471 ) ;
#104 = AXIS2_PLACEMENT_3D ( 'NONE', #485, #341, #74 ) ;
#105 = ORIENTED_EDGE ( 'NONE', *, *, #268, .F. ) ;
#106 = ORIENTED_EDGE ( 'NONE', *, *, #59, .F. ) ;
#107 = CLOSED_SHELL ( 'NONE', ( #197, #704, #118, #398, #545, #326, #493, #394, #73, #844, #697, #836, #622, #612, #486, #260, #481, #272, #200, #206, #552, #782, #778, #686, #765 ) ) ;
#108 = EDGE_CURVE ( 'NONE', #602, #722, #202, .T. ) ;
#109 = CIRCLE ( 'NONE', #423, 1.500000000000000222 ) ;
#110 = ORIENTED_EDGE ( 'NONE', *, *, #592, .F. ) ;
#111 = CIRCLE ( 'NONE', #693, 0.7522405232649495010 ) ;
#112 = ORIENTED_EDGE ( 'NONE', *, *, #97, .T. ) ;
#113 = EDGE_CURVE ( 'NONE', #80, #618, #29, .T. ) ;
#114 = VERTEX_POINT ( 'NONE', #6 ) ;
#115 = DIRECTION ( 'NONE',  ( 0.0000000000000000000, 1.000000000000000000, 0.0000000000000000000 ) ) ;
#116 =( LENGTH_UNIT ( ) NAMED_UNIT ( * ) SI_UNIT ( .MILLI., .METRE. ) );
#117 = CARTESIAN_POINT ( 'NONE',  ( 4.000000000000000000, -1.748514250998085773, 1.521721407722763653 ) ) ;
#118 = ADVANCED_FACE ( 'NONE', ( #606 ), #566, .T. ) ;
#119 = CARTESIAN_POINT ( 'NONE',  ( 3.500000000000000000, -1.752240523264949834, -1.019515152106898137 ) ) ;
#120 = CARTESIAN_POINT ( 'NONE',  ( 1.263922465976453191, 0.0000000000000000000, -1.550000000000000488 ) ) ;
#121 = LINE ( 'NONE', #712, #40 ) ;
#122 = VECTOR ( 'NONE', #546, 1000.000000000000000 ) ;
#123 = ORIENTED_EDGE ( 'NONE', *, *, #268, .T. ) ;
#124 = LINE ( 'NONE', #511, #674 ) ;
#125 = CARTESIAN_POINT ( 'NONE',  ( 0.5000000000000019984, -1.748514250998085773, 1.018278592277236383 ) ) ;
#126 = VERTEX_POINT ( 'NONE', #632 ) ;
#127 = EDGE_LOOP ( 'NONE', ( #897, #266, #31, #572 ) ) ;
#128 = AXIS2_PLACEMENT_3D ( 'NONE', #422, #848, #862 ) ;
#129 = CARTESIAN_POINT ( 'NONE',  ( -1.263922465976453857, 0.0000000000000000000, -1.550000000000000266 ) ) ;
#130 = ADVANCED_BREP_SHAPE_REPRESENTATION ( 'ALSRobot-LED Red 3mm V', ( #231, #648 ), #454 ) ;
#131 = DIRECTION ( 'NONE',  ( -1.000000000000000000, -0.0000000000000000000, 0.0000000000000000000 ) ) ;
#132 = DIRECTION ( 'NONE',  ( 0.0000000000000000000, 0.0000000000000000000, 1.000000000000000000 ) ) ;
#133 = EDGE_CURVE ( 'NONE', #66, #126, #53, .T. ) ;
#134 = CARTESIAN_POINT ( 'NONE',  ( 0.2522405232649495010, -1.000000000000000222, -1.019515152106898137 ) ) ;
#135 = ORIENTED_EDGE ( 'NONE', *, *, #737, .F. ) ;
#136 = ORIENTED_EDGE ( 'NONE', *, *, #45, .F. ) ;
#137 = DIRECTION ( 'NONE',  ( 1.000000000000000000, -0.0000000000000000000, 0.0000000000000000000 ) ) ;
#138 = ORIENTED_EDGE ( 'NONE', *, *, #183, .F. ) ;
#139 = SURFACE_SIDE_STYLE ('',( #522 ) ) ;
#140 =( NAMED_UNIT ( * ) SI_UNIT ( $, .STERADIAN. ) SOLID_ANGLE_UNIT ( ) );
#141 = EDGE_CURVE ( 'NONE', #20, #43, #319, .T. ) ;
#142 = DIRECTION ( 'NONE',  ( 0.0000000000000000000, 0.0000000000000000000, -1.000000000000000000 ) ) ;
#143 = PRESENTATION_LAYER_ASSIGNMENT (  '', '', ( #735 ) ) ;
#144 = DIRECTION ( 'NONE',  ( -0.0000000000000000000, -1.000000000000000000, -0.0000000000000000000 ) ) ;
#145 = DIRECTION ( 'NONE',  ( -0.0000000000000000000, -1.000000000000000000, -0.0000000000000000000 ) ) ;
#146 = CARTESIAN_POINT ( 'NONE',  ( 4.000000000000000000, -1.748514250998085773, 1.018278592277236383 ) ) ;
#147 = PLANE ( 'NONE',  #598 ) ;
#148 =( GEOMETRIC_REPRESENTATION_CONTEXT ( 3 ) GLOBAL_UNCERTAINTY_ASSIGNED_CONTEXT ( ( #69 ) ) GLOBAL_UNIT_ASSIGNED_CONTEXT ( ( #641, #603, #318 ) ) REPRESENTATION_CONTEXT ( 'NONE', 'WORKASPACE' ) );
#149 = SURFACE_STYLE_USAGE ( .BOTH. , #861 ) ;
#150 = LINE ( 'NONE', #146, #317 ) ;
#151 = LINE ( 'NONE', #760, #631 ) ;
#152 = CIRCLE ( 'NONE', #359, 0.7485142509980858838 ) ;
#153 = EDGE_LOOP ( 'NONE', ( #633, #242, #54, #457 ) ) ;
#154 = DIRECTION ( 'NONE',  ( 0.0000000000000000000, 0.0000000000000000000, -1.000000000000000000 ) ) ;
#155 = ORIENTED_EDGE ( 'NONE', *, *, #13, .T. ) ;
#156 = PLANE ( 'NONE',  #436 ) ;
#157 = AXIS2_PLACEMENT_3D ( 'NONE', #23, #226, #873 ) ;
#158 = STYLED_ITEM ( 'NONE', ( #181 ), #130 ) ;
#159 = DIRECTION ( 'NONE',  ( 0.0000000000000000000, 0.0000000000000000000, -1.000000000000000000 ) ) ;
#160 = EDGE_CURVE ( 'NONE', #455, #385, #121, .T. ) ;
#161 = LINE ( 'NONE', #788, #401 ) ;
#162 = FACE_OUTER_BOUND ( 'NONE', #362, .T. ) ;
#163 = SURFACE_STYLE_FILL_AREA ( #695 ) ;
#164 = MECHANICAL_DESIGN_GEOMETRIC_PRESENTATION_REPRESENTATION (  '', ( #404 ), #490 ) ;
#165 = EDGE_LOOP ( 'NONE', ( #620, #748, #720, #476 ) ) ;
#166 = ORIENTED_EDGE ( 'NONE', *, *, #807, .F. ) ;
#167 = CARTESIAN_POINT ( 'NONE',  ( 0.5000000000000034417, -1.247759476735050610, -1.520484847893101898 ) ) ;
#168 =( NAMED_UNIT ( * ) PLANE_ANGLE_UNIT ( ) SI_UNIT ( $, .RADIAN. ) );
#169 = EDGE_CURVE ( 'NONE', #42, #455, #671, .T. ) ;
#170 = DIRECTION ( 'NONE',  ( -1.000000000000000000, -0.0000000000000000000, 0.0000000000000000000 ) ) ;
#171 = CARTESIAN_POINT ( 'NONE',  ( -0.2522405232649495010, -0.9999999999999933387, -1.019515152106898137 ) ) ;
#172 = CARTESIAN_POINT ( 'NONE',  ( 0.4999999999999998890, -1.000000000000000000, 1.521721407722763653 ) ) ;
#173 = PRESENTATION_STYLE_ASSIGNMENT (( #149 ) ) ;
#174 = VECTOR ( 'NONE', #687, 1000.000000000000000 ) ;
#175 =( GEOMETRIC_REPRESENTATION_CONTEXT ( 3 ) GLOBAL_UNCERTAINTY_ASSIGNED_CONTEXT ( ( #822 ) ) GLOBAL_UNIT_ASSIGNED_CONTEXT ( ( #650, #426, #513 ) ) REPRESENTATION_CONTEXT ( 'NONE', 'WORKASPACE' ) );
#176 = VERTEX_POINT ( 'NONE', #718 ) ;
#177 = FACE_OUTER_BOUND ( 'NONE', #667, .T. ) ;
#178 = EDGE_LOOP ( 'NONE', ( #608, #186, #112, #874 ) ) ;
#179 = PRESENTATION_LAYER_ASSIGNMENT (  '', '', ( #158 ) ) ;
#180 =( GEOMETRIC_REPRESENTATION_CONTEXT ( 3 ) GLOBAL_UNCERTAINTY_ASSIGNED_CONTEXT ( ( #261 ) ) GLOBAL_UNIT_ASSIGNED_CONTEXT ( ( #411, #495, #78 ) ) REPRESENTATION_CONTEXT ( 'NONE', 'WORKASPACE' ) );
#181 = PRESENTATION_STYLE_ASSIGNMENT (( #630 ) ) ;
#182 = LINE ( 'NONE', #702, #717 ) ;
#183 = EDGE_CURVE ( 'NONE', #204, #321, #216, .T. ) ;
#184 = PRESENTATION_STYLE_ASSIGNMENT (( #754 ) ) ;
#185 = VERTEX_POINT ( 'NONE', #221 ) ;
#186 = ORIENTED_EDGE ( 'NONE', *, *, #626, .F. ) ;
#187 = AXIS2_PLACEMENT_3D ( 'NONE', #437, #96, #581 ) ;
#188 = AXIS2_PLACEMENT_3D ( 'NONE', #856, #137, #627 ) ;
#189 = CARTESIAN_POINT ( 'NONE',  ( 0.2522405232649495010, 0.0000000000000000000, 0.0000000000000000000 ) ) ;
#190 = COLOUR_RGB ( '',1.000000000000000000, 0.0000000000000000000, 0.0000000000000000000 ) ;
#191 = CIRCLE ( 'NONE', #654, 0.2514857490019141717 ) ;
#192 = LINE ( 'NONE', #83, #672 ) ;
#193 = DIRECTION ( 'NONE',  ( 0.0000000000000000000, 0.0000000000000000000, -1.000000000000000000 ) ) ;
#194 = ORIENTED_EDGE ( 'NONE', *, *, #237, .T. ) ;
#195 = EDGE_CURVE ( 'NONE', #802, #439, #515, .T. ) ;
#196 = ORIENTED_EDGE ( 'NONE', *, *, #71, .T. ) ;
#197 = ADVANCED_FACE ( 'NONE', ( #162 ), #330, .T. ) ;
#198 = CARTESIAN_POINT ( 'NONE',  ( 0.2485142509980858283, -1.000000000000000222, 1.018278592277236383 ) ) ;
#199 = UNCERTAINTY_MEASURE_WITH_UNIT (LENGTH_MEASURE( 1.000000000000000082E-05 ), #847, 'distance_accuracy_value', 'NONE');
#200 = ADVANCED_FACE ( 'NONE', ( #434 ), #352, .T. ) ;
#201 = FILL_AREA_STYLE ('',( #757 ) ) ;
#202 = CIRCLE ( 'NONE', #251, 0.7522405232649495010 ) ;
#203 = DIRECTION ( 'NONE',  ( 0.0000000000000000000, 1.000000000000000000, 0.0000000000000000000 ) ) ;
#204 = VERTEX_POINT ( 'NONE', #793 ) ;
#205 = DIRECTION ( 'NONE',  ( -0.0000000000000000000, 0.0000000000000000000, -1.000000000000000000 ) ) ;
#206 = ADVANCED_FACE ( 'NONE', ( #721 ), #156, .T. ) ;
#207 = EDGE_CURVE ( 'NONE', #232, #42, #248, .T. ) ;
#208 = PLANE ( 'NONE',  #804 ) ;
#209 = CARTESIAN_POINT ( 'NONE',  ( 0.2522405232649495010, 0.0000000000000000000, -1.520484847893101898 ) ) ;
#210 = APPLICATION_PROTOCOL_DEFINITION ( 'draft international standard', 'automotive_design', 1998, #215 ) ;
#211 = EDGE_CURVE ( 'NONE', #126, #790, #800, .T. ) ;
#212 = DIRECTION ( 'NONE',  ( -0.0000000000000000000, 0.0000000000000000000, -1.000000000000000000 ) ) ;
#213 = CARTESIAN_POINT ( 'NONE',  ( 1.500000000000000000, 3.500000000000000000, 0.0000000000000000000 ) ) ;
#214 = VECTOR ( 'NONE', #343, 1000.000000000000000 ) ;
#215 = APPLICATION_CONTEXT ( 'automotive_design' ) ;
#216 = LINE ( 'NONE', #499, #739 ) ;
#217 = ORIENTED_EDGE ( 'NONE', *, *, #734, .T. ) ;
#218 = CARTESIAN_POINT ( 'NONE',  ( -1.499999999999999556, 3.500000000000000000, -2.999999999999999556 ) ) ;
#219 = ORIENTED_EDGE ( 'NONE', *, *, #7, .T. ) ;
#220 = FILL_AREA_STYLE_COLOUR ( '', #591 ) ;
#221 = CARTESIAN_POINT ( 'NONE',  ( -1.500000000000000000, 3.500000000000000000, 1.836970198721029934E-16 ) ) ;
#222 = DIRECTION ( 'NONE',  ( -1.000000000000000000, 0.0000000000000000000, 0.0000000000000000000 ) ) ;
#223 = DIRECTION ( 'NONE',  ( -1.000000000000000000, -0.0000000000000000000, 0.0000000000000000000 ) ) ;
#224 = CARTESIAN_POINT ( 'NONE',  ( -1.499999999999999556, 3.500000000000000444, 2.999999999999999556 ) ) ;
#225 = EDGE_CURVE ( 'NONE', #321, #314, #907, .T. ) ;
#226 = DIRECTION ( 'NONE',  ( -0.0000000000000000000, -0.0000000000000000000, -1.000000000000000000 ) ) ;
#227 = CARTESIAN_POINT ( 'NONE',  ( 0.5000000000000017764, -1.251485749001914227, 1.521721407722763653 ) ) ;
#228 = VECTOR ( 'NONE', #452, 1000.000000000000000 ) ;
#229 = EDGE_LOOP ( 'NONE', ( #799, #351, #906, #479 ) ) ;
#230 = ORIENTED_EDGE ( 'NONE', *, *, #683, .T. ) ;
#231 = MANIFOLD_SOLID_BREP ( '…®√Ë2', #107 ) ;
#232 = VERTEX_POINT ( 'NONE', #659 ) ;
#233 = DIRECTION ( 'NONE',  ( 0.0000000000000000000, 0.0000000000000000000, 1.000000000000000000 ) ) ;
#234 = DIRECTION ( 'NONE',  ( 0.0000000000000000000, 0.0000000000000000000, 1.000000000000000000 ) ) ;
#235 = DIRECTION ( 'NONE',  ( 0.0000000000000000000, 1.000000000000000000, 0.0000000000000000000 ) ) ;
#236 = FILL_AREA_STYLE_COLOUR ( '', #730 ) ;
#237 = EDGE_CURVE ( 'NONE', #232, #722, #124, .T. ) ;
#238 =( LENGTH_UNIT ( ) NAMED_UNIT ( * ) SI_UNIT ( .MILLI., .METRE. ) );
#239 = LINE ( 'NONE', #198, #738 ) ;
#240 = VECTOR ( 'NONE', #638, 1000.000000000000000 ) ;
#241 = MECHANICAL_DESIGN_GEOMETRIC_PRESENTATION_REPRESENTATION (  '', ( #735 ), #180 ) ;
#242 = ORIENTED_EDGE ( 'NONE', *, *, #50, .F. ) ;
#243 = EDGE_LOOP ( 'NONE', ( #279, #812, #384, #135 ) ) ;
#244 = CARTESIAN_POINT ( 'NONE',  ( 4.000000000000000000, -1.251485749001914227, 1.018278592277236383 ) ) ;
#245 = VECTOR ( 'NONE', #574, 1000.000000000000000 ) ;
#246 = CYLINDRICAL_SURFACE ( 'NONE', #746, 0.2477594767350504712 ) ;
#247 = ORIENTED_EDGE ( 'NONE', *, *, #637, .T. ) ;
#248 = LINE ( 'NONE', #366, #289 ) ;
#249 = ORIENTED_EDGE ( 'NONE', *, *, #286, .F. ) ;
#250 = ORIENTED_EDGE ( 'NONE', *, *, #358, .T. ) ;
#251 = AXIS2_PLACEMENT_3D ( 'NONE', #539, #900, #466 ) ;
#252 = LINE ( 'NONE', #733, #744 ) ;
#253 = SURFACE_STYLE_FILL_AREA ( #535 ) ;
#254 = ORIENTED_EDGE ( 'NONE', *, *, #851, .F. ) ;
#255 = CARTESIAN_POINT ( 'NONE',  ( 0.5000000000000034417, -1.748514250998085773, 1.018278592277236383 ) ) ;
#256 = CARTESIAN_POINT ( 'NONE',  ( 0.5000000000000034417, 0.0000000000000000000, -1.520484847893101898 ) ) ;
#257 = CARTESIAN_POINT ( 'NONE',  ( 0.2485142509980858283, -1.748514250998085773, 1.521721407722763653 ) ) ;
#258 =( NAMED_UNIT ( * ) PLANE_ANGLE_UNIT ( ) SI_UNIT ( $, .RADIAN. ) );
#259 = DIRECTION ( 'NONE',  ( 0.0000000000000000000, 1.000000000000000000, 0.0000000000000000000 ) ) ;
#260 = ADVANCED_FACE ( 'NONE', ( #177 ), #47, .F. ) ;
#261 = UNCERTAINTY_MEASURE_WITH_UNIT (LENGTH_MEASURE( 1.000000000000000082E-05 ), #411, 'distance_accuracy_value', 'NONE');
#262 = SHAPE_DEFINITION_REPRESENTATION ( #795, #130 ) ;
#263 = PRODUCT_DEFINITION_CONTEXT ( 'detailed design', #769, 'design' ) ;
#264 = CARTESIAN_POINT ( 'NONE',  ( 0.0000000000000000000, 1.000000000000000000, 0.0000000000000000000 ) ) ;
#265 = VECTOR ( 'NONE', #170, 1000.000000000000000 ) ;
#266 = ORIENTED_EDGE ( 'NONE', *, *, #833, .T. ) ;
#267 = LINE ( 'NONE', #167, #265 ) ;
#268 = EDGE_CURVE ( 'NONE', #617, #19, #504, .T. ) ;
#269 = ORIENTED_EDGE ( 'NONE', *, *, #59, .T. ) ;
#270 = DIRECTION ( 'NONE',  ( 0.0000000000000000000, 0.0000000000000000000, -1.000000000000000000 ) ) ;
#271 =( NAMED_UNIT ( * ) PLANE_ANGLE_UNIT ( ) SI_UNIT ( $, .RADIAN. ) );
#272 = ADVANCED_FACE ( 'NONE', ( #91 ), #294, .T. ) ;
#273 = DIRECTION ( 'NONE',  ( 0.0000000000000000000, 0.0000000000000000000, 1.000000000000000000 ) ) ;
#274 = DIRECTION ( 'NONE',  ( -0.0000000000000000000, 0.0000000000000000000, 1.000000000000000000 ) ) ;
#275 =( NAMED_UNIT ( * ) SI_UNIT ( $, .STERADIAN. ) SOLID_ANGLE_UNIT ( ) );
#276 = PRESENTATION_STYLE_ASSIGNMENT (( #337 ) ) ;
#277 = FILL_AREA_STYLE_COLOUR ( '', #190 ) ;
#278 = LINE ( 'NONE', #257, #878 ) ;
#279 = ORIENTED_EDGE ( 'NONE', *, *, #510, .F. ) ;
#280 = CARTESIAN_POINT ( 'NONE',  ( 0.0000000000000000000, 0.0000000000000000000, 0.0000000000000000000 ) ) ;
#281 = EDGE_CURVE ( 'NONE', #841, #80, #839, .T. ) ;
#282 = CARTESIAN_POINT ( 'NONE',  ( 1.500000000000000222, 3.500000000000000000, -2.999999999999999556 ) ) ;
#283 = CARTESIAN_POINT ( 'NONE',  ( 0.5000000000000039968, -1.748514250998085773, 1.270000000000000018 ) ) ;
#284 = CARTESIAN_POINT ( 'NONE',  ( 0.5000000000000017764, -1.247759476735050610, -1.019515152106898137 ) ) ;
#285 = CARTESIAN_POINT ( 'NONE',  ( -1.499999999999999556, 9.499999999999998224, -2.999999999999999556 ) ) ;
#286 = EDGE_CURVE ( 'NONE', #649, #314, #477, .T. ) ;
#287 = DIRECTION ( 'NONE',  ( 0.0000000000000000000, 0.0000000000000000000, -1.000000000000000000 ) ) ;
#288 = SURFACE_SIDE_STYLE ('',( #456 ) ) ;
#289 = VECTOR ( 'NONE', #643, 1000.000000000000000 ) ;
#290 = ORIENTED_EDGE ( 'NONE', *, *, #909, .T. ) ;
#291 = CIRCLE ( 'NONE', #521, 0.2514857490019141717 ) ;
#292 = DIRECTION ( 'NONE',  ( 0.0000000000000000000, 0.0000000000000000000, 1.000000000000000000 ) ) ;
#293 = ORIENTED_EDGE ( 'NONE', *, *, #592, .T. ) ;
#294 = PLANE ( 'NONE',  #644 ) ;
#295 = CARTESIAN_POINT ( 'NONE',  ( 0.5000000000000019984, -1.752240523264949612, -1.019515152106898137 ) ) ;
#296 = CARTESIAN_POINT ( 'NONE',  ( 0.5000000000000034417, -1.748514250998085773, 1.018278592277236383 ) ) ;
#297 = CARTESIAN_POINT ( 'NONE',  ( -1.499999999999999556, 9.499999999999998224, 2.999999999999998668 ) ) ;
#298 = STYLED_ITEM ( 'NONE', ( #184 ), #118 ) ;
#299 = FILL_AREA_STYLE_COLOUR ( '', #381 ) ;
#300 = DIRECTION ( 'NONE',  ( -0.0000000000000000000, -1.000000000000000000, -0.0000000000000000000 ) ) ;
#301 = CIRCLE ( 'NONE', #894, 0.2477594767350504712 ) ;
#302 = LINE ( 'NONE', #853, #852 ) ;
#303 = SURFACE_STYLE_USAGE ( .BOTH. , #589 ) ;
#304 = ORIENTED_EDGE ( 'NONE', *, *, #45, .T. ) ;
#305 = ORIENTED_EDGE ( 'NONE', *, *, #327, .F. ) ;
#306 = DIRECTION ( 'NONE',  ( -0.0000000000000000000, -1.000000000000000000, -0.0000000000000000000 ) ) ;
#307 = EDGE_CURVE ( 'NONE', #355, #439, #291, .T. ) ;
#308 = CARTESIAN_POINT ( 'NONE',  ( 0.2522405232649495010, -1.951563910473907981E-15, -1.019515152106898137 ) ) ;
#309 = CARTESIAN_POINT ( 'NONE',  ( 0.2522405232649495010, -1.752240523264949612, -1.520484847893101898 ) ) ;
#310 = ORIENTED_EDGE ( 'NONE', *, *, #195, .T. ) ;
#311 = ORIENTED_EDGE ( 'NONE', *, *, #207, .F. ) ;
#312 = PRESENTATION_STYLE_ASSIGNMENT (( #87 ) ) ;
#313 = ORIENTED_EDGE ( 'NONE', *, *, #400, .F. ) ;
#314 = VERTEX_POINT ( 'NONE', #35 ) ;
#315 = EDGE_LOOP ( 'NONE', ( #65, #375, #194, #331 ) ) ;
#316 = EDGE_CURVE ( 'NONE', #818, #103, #771, .T. ) ;
#317 = VECTOR ( 'NONE', #274, 1000.000000000000000 ) ;
#318 =( NAMED_UNIT ( * ) SI_UNIT ( $, .STERADIAN. ) SOLID_ANGLE_UNIT ( ) );
#319 = LINE ( 'NONE', #57, #553 ) ;
#320 = VERTEX_POINT ( 'NONE', #725 ) ;
#321 = VERTEX_POINT ( 'NONE', #102 ) ;
#322 = SURFACE_SIDE_STYLE ('',( #163 ) ) ;
#323 = EDGE_CURVE ( 'NONE', #320, #582, #267, .T. ) ;
#324 = CARTESIAN_POINT ( 'NONE',  ( 0.5000000000000019984, -1.748514250998085773, 1.521721407722763653 ) ) ;
#325 = DIRECTION ( 'NONE',  ( -1.000000000000000000, 0.0000000000000000000, 0.0000000000000000000 ) ) ;
#326 = ADVANCED_FACE ( 'NONE', ( #88 ), #450, .T. ) ;
#327 = EDGE_CURVE ( 'NONE', #579, #617, #192, .T. ) ;
#328 = PRESENTATION_STYLE_ASSIGNMENT (( #371 ) ) ;
#329 = ORIENTED_EDGE ( 'NONE', *, *, #169, .T. ) ;
#330 = CYLINDRICAL_SURFACE ( 'NONE', #723, 1.500000000000000222 ) ;
#331 = ORIENTED_EDGE ( 'NONE', *, *, #108, .F. ) ;
#332 = CARTESIAN_POINT ( 'NONE',  ( 0.0000000000000000000, 3.500000000000000000, 0.0000000000000000000 ) ) ;
#333 = CARTESIAN_POINT ( 'NONE',  ( 0.5000000000000034417, -1.251485749001914227, 1.018278592277236383 ) ) ;
#334 = MECHANICAL_DESIGN_GEOMETRIC_PRESENTATION_REPRESENTATION (  '', ( #24 ), #609 ) ;
#335 = CARTESIAN_POINT ( 'NONE',  ( 3.500000000000000000, -1.247759476735050610, -1.019515152106898137 ) ) ;
#336 = PLANE ( 'NONE',  #438 ) ;
#337 = SURFACE_STYLE_USAGE ( .BOTH. , #699 ) ;
#338 = VECTOR ( 'NONE', #67, 1000.000000000000000 ) ;
#339 = PRESENTATION_LAYER_ASSIGNMENT (  '', '', ( #298 ) ) ;
#340 = ORIENTED_EDGE ( 'NONE', *, *, #526, .F. ) ;
#341 = DIRECTION ( 'NONE',  ( 0.0000000000000000000, 0.0000000000000000000, -1.000000000000000000 ) ) ;
#342 = ORIENTED_EDGE ( 'NONE', *, *, #851, .T. ) ;
#343 = DIRECTION ( 'NONE',  ( 1.000000000000000000, 0.0000000000000000000, -0.0000000000000000000 ) ) ;
#344 = CARTESIAN_POINT ( 'NONE',  ( -0.2522405232649495010, 0.0000000000000000000, 0.0000000000000000000 ) ) ;
#345 = CARTESIAN_POINT ( 'NONE',  ( 3.500000000000000000, -1.247759476735050610, -1.520484847893101898 ) ) ;
#346 = CARTESIAN_POINT ( 'NONE',  ( 0.2522405232649495010, -1.000000000000000444, -1.520484847893101898 ) ) ;
#347 = FILL_AREA_STYLE ('',( #865 ) ) ;
#348 = LINE ( 'NONE', #283, #564 ) ;
#349 = SURFACE_STYLE_FILL_AREA ( #347 ) ;
#350 = FACE_BOUND ( 'NONE', #829, .T. ) ;
#351 = ORIENTED_EDGE ( 'NONE', *, *, #780, .T. ) ;
#352 = CYLINDRICAL_SURFACE ( 'NONE', #157, 0.7522405232649495010 ) ;
#353 = CARTESIAN_POINT ( 'NONE',  ( 0.4999999999999998890, -1.000000000000000000, 1.270000000000000018 ) ) ;
#354 = DIRECTION ( 'NONE',  ( -0.0000000000000000000, -1.000000000000000000, -0.0000000000000000000 ) ) ;
#355 = VERTEX_POINT ( 'NONE', #846 ) ;
#356 = CARTESIAN_POINT ( 'NONE',  ( 0.0000000000000000000, 1.000000000000000000, -1.500000000000000222 ) ) ;
#357 = CARTESIAN_POINT ( 'NONE',  ( 0.5000000000000034417, -1.251485749001914227, 1.521721407722763653 ) ) ;
#358 = EDGE_CURVE ( 'NONE', #232, #425, #111, .T. ) ;
#359 = AXIS2_PLACEMENT_3D ( 'NONE', #172, #451, #36 ) ;
#360 = DIRECTION ( 'NONE',  ( 0.0000000000000000000, 1.000000000000000000, 0.0000000000000000000 ) ) ;
#361 = FACE_OUTER_BOUND ( 'NONE', #665, .T. ) ;
#362 = EDGE_LOOP ( 'NONE', ( #569, #871, #770, #531, #855 ) ) ;
#363 = CARTESIAN_POINT ( 'NONE',  ( 3.500000000000000000, 0.0000000000000000000, 0.0000000000000000000 ) ) ;
#364 = ORIENTED_EDGE ( 'NONE', *, *, #211, .F. ) ;
#365 = VERTEX_POINT ( 'NONE', #487 ) ;
#366 = CARTESIAN_POINT ( 'NONE',  ( 0.5000000000000034417, -1.752240523264949612, -1.520484847893101898 ) ) ;
#367 = CARTESIAN_POINT ( 'NONE',  ( -1.500000000000000000, 3.500000000000000000, 1.836970198721029688E-16 ) ) ;
#368 =( LENGTH_UNIT ( ) NAMED_UNIT ( * ) SI_UNIT ( .MILLI., .METRE. ) );
#369 = MECHANICAL_DESIGN_GEOMETRIC_PRESENTATION_REPRESENTATION (  '', ( #101 ), #148 ) ;
#370 = DIRECTION ( 'NONE',  ( -1.000000000000000000, 0.0000000000000000000, -0.0000000000000000000 ) ) ;
#371 = SURFACE_STYLE_USAGE ( .BOTH. , #884 ) ;
#372 = CIRCLE ( 'NONE', #677, 0.7485142509980858838 ) ;
#373 = VECTOR ( 'NONE', #467, 1000.000000000000000 ) ;
#374 = VECTOR ( 'NONE', #306, 1000.000000000000000 ) ;
#375 = ORIENTED_EDGE ( 'NONE', *, *, #358, .F. ) ;
#376 = ORIENTED_EDGE ( 'NONE', *, *, #160, .F. ) ;
#377 = CARTESIAN_POINT ( 'NONE',  ( 0.4999999999999998890, -1.000000000000000000, -1.270000000000000018 ) ) ;
#378 = AXIS2_PLACEMENT_3D ( 'NONE', #577, #429, #159 ) ;
#379 = EDGE_CURVE ( 'NONE', #448, #449, #463, .T. ) ;
#380 = VECTOR ( 'NONE', #300, 1000.000000000000000 ) ;
#381 = COLOUR_RGB ( '',1.000000000000000000, 1.000000000000000000, 1.000000000000000000 ) ;
#382 =( BOUNDED_SURFACE ( )  B_SPLINE_SURFACE ( 3, 3, ( 
 ( #634, #213, #82, #713 ),
 ( #282, #785, #565, #639 ),
 ( #218, #285, #297, #224 ),
 ( #645, #500, #27, #367 ) ),
 .UNSPECIFIED., .F., .F., .F. ) 
 B_SPLINE_SURFACE_WITH_KNOTS ( ( 4, 4 ),
 ( 4, 4 ),
 ( 0.0000000000000000000, 1.000000000000000000 ),
 ( 0.0000000000000000000, 1.000000000000000000 ),
 .UNSPECIFIED. ) 
 GEOMETRIC_REPRESENTATION_ITEM ( )  RATIONAL_B_SPLINE_SURFACE ( (
 ( 1.000000000000000000, 0.3333333333333334259, 0.3333333333333334259, 1.000000000000000000),
 ( 0.3333333333333333703, 0.1111111111111111605, 0.1111111111111111605, 0.3333333333333333703),
 ( 0.3333333333333333703, 0.1111111111111111605, 0.1111111111111111605, 0.3333333333333333703),
 ( 1.000000000000000000, 0.3333333333333334259, 0.3333333333333334259, 1.000000000000000000) ) ) 
 REPRESENTATION_ITEM ( '' )  SURFACE ( )  );
#383 = LINE ( 'NONE', #690, #240 ) ;
#384 = ORIENTED_EDGE ( 'NONE', *, *, #750, .F. ) ;
#385 = VERTEX_POINT ( 'NONE', #335 ) ;
#386 = MECHANICAL_DESIGN_GEOMETRIC_PRESENTATION_REPRESENTATION (  '', ( #298 ), #441 ) ;
#387 = STYLED_ITEM ( 'NONE', ( #663 ), #398 ) ;
#388 = PLANE ( 'NONE',  #443 ) ;
#389 = LINE ( 'NONE', #625, #39 ) ;
#390 = DIRECTION ( 'NONE',  ( 0.0000000000000000000, 1.000000000000000000, 0.0000000000000000000 ) ) ;
#391 = VERTEX_POINT ( 'NONE', #775 ) ;
#392 = ORIENTED_EDGE ( 'NONE', *, *, #316, .F. ) ;
#393 = EDGE_LOOP ( 'NONE', ( #732, #655, #523, #93, #758 ) ) ;
#394 = ADVANCED_FACE ( 'NONE', ( #854 ), #623, .F. ) ;
#395 = ORIENTED_EDGE ( 'NONE', *, *, #133, .F. ) ;
#396 = DIRECTION ( 'NONE',  ( 0.0000000000000000000, -1.000000000000000000, 0.0000000000000000000 ) ) ;
#397 = CARTESIAN_POINT ( 'NONE',  ( 0.5000000000000034417, -1.748514250998085773, 1.521721407722763653 ) ) ;
#398 = ADVANCED_FACE ( 'NONE', ( #350, #867 ), #51, .T. ) ;
#399 = CARTESIAN_POINT ( 'NONE',  ( 0.0000000000000000000, 1.000000000000000000, 0.0000000000000000000 ) ) ;
#400 = EDGE_CURVE ( 'NONE', #42, #320, #530, .T. ) ;
#401 = VECTOR ( 'NONE', #715, 1000.000000000000000 ) ;
#402 = LINE ( 'NONE', #740, #228 ) ;
#403 = ORIENTED_EDGE ( 'NONE', *, *, #75, .T. ) ;
#404 = STYLED_ITEM ( 'NONE', ( #446 ), #493 ) ;
#405 = CARTESIAN_POINT ( 'NONE',  ( 4.000000000000000000, 0.0000000000000000000, 1.018278592277236383 ) ) ;
#406 = DIRECTION ( 'NONE',  ( -1.000000000000000000, 0.0000000000000000000, 0.0000000000000000000 ) ) ;
#407 = ORIENTED_EDGE ( 'NONE', *, *, #22, .F. ) ;
#408 = DIRECTION ( 'NONE',  ( -0.0000000000000000000, -0.0000000000000000000, -1.000000000000000000 ) ) ;
#409 = EDGE_LOOP ( 'NONE', ( #155, #857, #395, #594 ) ) ;
#410 = ORIENTED_EDGE ( 'NONE', *, *, #225, .F. ) ;
#411 =( LENGTH_UNIT ( ) NAMED_UNIT ( * ) SI_UNIT ( .MILLI., .METRE. ) );
#412 = DIRECTION ( 'NONE',  ( 0.0000000000000000000, 0.0000000000000000000, 1.000000000000000000 ) ) ;
#413 = CARTESIAN_POINT ( 'NONE',  ( 0.0000000000000000000, 1.000000000000000000, -1.550000000000000488 ) ) ;
#414 = AXIS2_PLACEMENT_3D ( 'NONE', #363, #508, #806 ) ;
#415 = CARTESIAN_POINT ( 'NONE',  ( -1.263922465976453191, 1.000000000000000000, -1.550000000000000488 ) ) ;
#416 = LINE ( 'NONE', #344, #784 ) ;
#417 = DIRECTION ( 'NONE',  ( 1.000000000000000000, 0.0000000000000000000, 0.0000000000000000000 ) ) ;
#418 = LINE ( 'NONE', #405, #445 ) ;
#419 =( LENGTH_UNIT ( ) NAMED_UNIT ( * ) SI_UNIT ( .MILLI., .METRE. ) );
#420 = AXIS2_PLACEMENT_3D ( 'NONE', #353, #726, #95 ) ;
#421 = ORIENTED_EDGE ( 'NONE', *, *, #50, .T. ) ;
#422 = CARTESIAN_POINT ( 'NONE',  ( 0.4999999999999998890, -1.000000000000000000, 1.270000000000000018 ) ) ;
#423 = AXIS2_PLACEMENT_3D ( 'NONE', #791, #440, #653 ) ;
#424 = DIRECTION ( 'NONE',  ( -1.000000000000000000, -0.0000000000000000000, 0.0000000000000000000 ) ) ;
#425 = VERTEX_POINT ( 'NONE', #470 ) ;
#426 =( NAMED_UNIT ( * ) PLANE_ANGLE_UNIT ( ) SI_UNIT ( $, .RADIAN. ) );
#427 = CARTESIAN_POINT ( 'NONE',  ( 0.5000000000000034417, -1.251485749001914227, 1.018278592277236383 ) ) ;
#428 = DIRECTION ( 'NONE',  ( -1.000000000000000000, 0.0000000000000000000, -0.0000000000000000000 ) ) ;
#429 = DIRECTION ( 'NONE',  ( 0.0000000000000000000, 1.000000000000000000, 0.0000000000000000000 ) ) ;
#430 = PLANE ( 'NONE',  #414 ) ;
#431 = FACE_OUTER_BOUND ( 'NONE', #786, .T. ) ;
#432 = EDGE_CURVE ( 'NONE', #365, #618, #554, .T. ) ;
#433 = ORIENTED_EDGE ( 'NONE', *, *, #909, .F. ) ;
#434 = FACE_OUTER_BOUND ( 'NONE', #315, .T. ) ;
#435 = ORIENTED_EDGE ( 'NONE', *, *, #601, .F. ) ;
#436 = AXIS2_PLACEMENT_3D ( 'NONE', #805, #21, #517 ) ;
#437 = CARTESIAN_POINT ( 'NONE',  ( 0.5000000000000034417, -1.247759476735050610, -1.520484847893101898 ) ) ;
#438 = AXIS2_PLACEMENT_3D ( 'NONE', #558, #488, #132 ) ;
#439 = VERTEX_POINT ( 'NONE', #825 ) ;
#440 = DIRECTION ( 'NONE',  ( 0.0000000000000000000, 1.000000000000000000, 0.0000000000000000000 ) ) ;
#441 =( GEOMETRIC_REPRESENTATION_CONTEXT ( 3 ) GLOBAL_UNCERTAINTY_ASSIGNED_CONTEXT ( ( #458 ) ) GLOBAL_UNIT_ASSIGNED_CONTEXT ( ( #419, #614, #140 ) ) REPRESENTATION_CONTEXT ( 'NONE', 'WORKASPACE' ) );
#442 = CARTESIAN_POINT ( 'NONE',  ( 0.0000000000000000000, 1.000000000000000000, 0.0000000000000000000 ) ) ;
#443 = AXIS2_PLACEMENT_3D ( 'NONE', #255, #396, #473 ) ;
#444 =( NAMED_UNIT ( * ) SI_UNIT ( $, .STERADIAN. ) SOLID_ANGLE_UNIT ( ) );
#445 = VECTOR ( 'NONE', #61, 1000.000000000000000 ) ;
#446 = PRESENTATION_STYLE_ASSIGNMENT (( #537 ) ) ;
#447 = DIRECTION ( 'NONE',  ( -0.0000000000000000000, -0.0000000000000000000, -1.000000000000000000 ) ) ;
#448 = VERTEX_POINT ( 'NONE', #63 ) ;
#449 = VERTEX_POINT ( 'NONE', #534 ) ;
#450 = PLANE ( 'NONE',  #794 ) ;
#451 = DIRECTION ( 'NONE',  ( 0.0000000000000000000, 0.0000000000000000000, 1.000000000000000000 ) ) ;
#452 = DIRECTION ( 'NONE',  ( -1.000000000000000000, -0.0000000000000000000, 0.0000000000000000000 ) ) ;
#453 = PRESENTATION_LAYER_ASSIGNMENT (  '', '', ( #670 ) ) ;
#454 =( GEOMETRIC_REPRESENTATION_CONTEXT ( 3 ) GLOBAL_UNCERTAINTY_ASSIGNED_CONTEXT ( ( #199 ) ) GLOBAL_UNIT_ASSIGNED_CONTEXT ( ( #847, #624, #275 ) ) REPRESENTATION_CONTEXT ( 'NONE', 'WORKASPACE' ) );
#455 = VERTEX_POINT ( 'NONE', #119 ) ;
#456 = SURFACE_STYLE_FILL_AREA ( #724 ) ;
#457 = ORIENTED_EDGE ( 'NONE', *, *, #833, .F. ) ;
#458 = UNCERTAINTY_MEASURE_WITH_UNIT (LENGTH_MEASURE( 1.000000000000000082E-05 ), #419, 'distance_accuracy_value', 'NONE');
#459 = ORIENTED_EDGE ( 'NONE', *, *, #281, .F. ) ;
#460 = EDGE_CURVE ( 'NONE', #80, #841, #827, .T. ) ;
#461 =( GEOMETRIC_REPRESENTATION_CONTEXT ( 3 ) GLOBAL_UNCERTAINTY_ASSIGNED_CONTEXT ( ( #694 ) ) GLOBAL_UNIT_ASSIGNED_CONTEXT ( ( #368, #168, #887 ) ) REPRESENTATION_CONTEXT ( 'NONE', 'WORKASPACE' ) );
#462 = FACE_OUTER_BOUND ( 'NONE', #518, .T. ) ;
#463 = CIRCLE ( 'NONE', #60, 1.500000000000000222 ) ;
#464 = EDGE_LOOP ( 'NONE', ( #138, #136, #433, #410 ) ) ;
#465 = DIRECTION ( 'NONE',  ( 0.0000000000000000000, 1.000000000000000000, 0.0000000000000000000 ) ) ;
#466 = DIRECTION ( 'NONE',  ( -1.000000000000000000, 0.0000000000000000000, 0.0000000000000000000 ) ) ;
#467 = DIRECTION ( 'NONE',  ( 1.000000000000000000, -0.0000000000000000000, 0.0000000000000000000 ) ) ;
#468 = AXIS2_PLACEMENT_3D ( 'NONE', #701, #605, #270 ) ;
#469 = DIRECTION ( 'NONE',  ( 0.0000000000000000000, -0.0000000000000000000, 1.000000000000000000 ) ) ;
#470 = CARTESIAN_POINT ( 'NONE',  ( -0.2522405232649495010, -0.9999999999999965583, -1.520484847893101898 ) ) ;
#471 = CARTESIAN_POINT ( 'NONE',  ( 4.000000000000000000, -1.748514250998085773, 1.018278592277236383 ) ) ;
#472 = AXIS2_PLACEMENT_3D ( 'NONE', #332, #55, #193 ) ;
#473 = DIRECTION ( 'NONE',  ( 0.0000000000000000000, -0.0000000000000000000, -1.000000000000000000 ) ) ;
#474 = FACE_OUTER_BOUND ( 'NONE', #494, .T. ) ;
#475 = FACE_OUTER_BOUND ( 'NONE', #869, .T. ) ;
#476 = ORIENTED_EDGE ( 'NONE', *, *, #113, .T. ) ;
#477 = LINE ( 'NONE', #587, #580 ) ;
#478 = ORIENTED_EDGE ( 'NONE', *, *, #743, .T. ) ;
#479 = ORIENTED_EDGE ( 'NONE', *, *, #676, .T. ) ;
#480 = DIRECTION ( 'NONE',  ( 0.0000000000000000000, 0.0000000000000000000, -1.000000000000000000 ) ) ;
#481 = ADVANCED_FACE ( 'NONE', ( #745 ), #58, .T. ) ;
#482 = CARTESIAN_POINT ( 'NONE',  ( -0.2522405232649495010, 0.0000000000000000000, -1.520484847893101898 ) ) ;
#483 = CARTESIAN_POINT ( 'NONE',  ( 0.4999999999999998890, -1.000000000000000000, -1.520484847893101898 ) ) ;
#484 = UNCERTAINTY_MEASURE_WITH_UNIT (LENGTH_MEASURE( 1.000000000000000082E-05 ), #238, 'distance_accuracy_value', 'NONE');
#485 = CARTESIAN_POINT ( 'NONE',  ( 0.5000000000000034417, -1.748514250998085773, 1.018278592277236383 ) ) ;
#486 = ADVANCED_FACE ( 'NONE', ( #879 ), #388, .T. ) ;
#487 = CARTESIAN_POINT ( 'NONE',  ( -1.263922465976452969, 1.000000000000000000, -1.550000000000000488 ) ) ;
#488 = DIRECTION ( 'NONE',  ( -1.000000000000000000, 0.0000000000000000000, 0.0000000000000000000 ) ) ;
#489 = ORIENTED_EDGE ( 'NONE', *, *, #75, .F. ) ;
#490 =( GEOMETRIC_REPRESENTATION_CONTEXT ( 3 ) GLOBAL_UNCERTAINTY_ASSIGNED_CONTEXT ( ( #658 ) ) GLOBAL_UNIT_ASSIGNED_CONTEXT ( ( #116, #56, #610 ) ) REPRESENTATION_CONTEXT ( 'NONE', 'WORKASPACE' ) );
#491 = VERTEX_POINT ( 'NONE', #324 ) ;
#492 = CARTESIAN_POINT ( 'NONE',  ( -1.263922465976453413, 0.0000000000000000000, -1.550000000000000488 ) ) ;
#493 = ADVANCED_FACE ( 'NONE', ( #475, #679, #16 ), #547, .F. ) ;
#494 = EDGE_LOOP ( 'NONE', ( #772, #831, #891, #673, #403, #196, #821, #747 ) ) ;
#495 =( NAMED_UNIT ( * ) PLANE_ANGLE_UNIT ( ) SI_UNIT ( $, .RADIAN. ) );
#496 = EDGE_CURVE ( 'NONE', #425, #597, #706, .T. ) ;
#497 = CARTESIAN_POINT ( 'NONE',  ( 3.500000000000000000, -1.752240523264949834, -1.520484847893101898 ) ) ;
#498 = CARTESIAN_POINT ( 'NONE',  ( -0.2485142509980858283, -0.9999999999999965583, 1.018278592277236383 ) ) ;
#499 = CARTESIAN_POINT ( 'NONE',  ( 0.0000000000000000000, 0.0000000000000000000, 1.521721407722763653 ) ) ;
#500 = CARTESIAN_POINT ( 'NONE',  ( -1.500000000000000000, 3.500000000000000444, -1.836970198721029934E-16 ) ) ;
#501 = EDGE_LOOP ( 'NONE', ( #881, #595, #329, #583 ) ) ;
#502 = DIRECTION ( 'NONE',  ( -0.0000000000000000000, 0.0000000000000000000, 1.000000000000000000 ) ) ;
#503 = ORIENTED_EDGE ( 'NONE', *, *, #899, .F. ) ;
#504 = LINE ( 'NONE', #507, #245 ) ;
#505 = CARTESIAN_POINT ( 'NONE',  ( 0.0000000000000000000, 3.500000000000000000, 0.0000000000000000000 ) ) ;
#506 = EDGE_LOOP ( 'NONE', ( #541, #304, #17, #166 ) ) ;
#507 = CARTESIAN_POINT ( 'NONE',  ( 0.2522405232649495010, -1.752240523264949612, -1.019515152106898137 ) ) ;
#508 = DIRECTION ( 'NONE',  ( 1.000000000000000000, -0.0000000000000000000, 0.0000000000000000000 ) ) ;
#509 = ORIENTED_EDGE ( 'NONE', *, *, #496, .T. ) ;
#510 = EDGE_CURVE ( 'NONE', #579, #582, #755, .T. ) ;
#511 = CARTESIAN_POINT ( 'NONE',  ( 0.5000000000000039968, -1.752240523264949612, -1.270000000000000018 ) ) ;
#512 = DIRECTION ( 'NONE',  ( 1.000000000000000000, 0.0000000000000000000, 0.0000000000000000000 ) ) ;
#513 =( NAMED_UNIT ( * ) SI_UNIT ( $, .STERADIAN. ) SOLID_ANGLE_UNIT ( ) );
#514 = FACE_OUTER_BOUND ( 'NONE', #229, .T. ) ;
#515 = LINE ( 'NONE', #427, #540 ) ;
#516 = SURFACE_STYLE_FILL_AREA ( #596 ) ;
#517 = DIRECTION ( 'NONE',  ( 0.0000000000000000000, -0.0000000000000000000, -1.000000000000000000 ) ) ;
#518 = EDGE_LOOP ( 'NONE', ( #678, #49, #692, #675, #838, #123, #774, #90 ) ) ;
#519 = EDGE_LOOP ( 'NONE', ( #478, #364, #4, #310 ) ) ;
#520 = DIRECTION ( 'NONE',  ( -1.000000000000000000, 0.0000000000000000000, 0.0000000000000000000 ) ) ;
#521 = AXIS2_PLACEMENT_3D ( 'NONE', #584, #234, #731 ) ;
#522 = SURFACE_STYLE_FILL_AREA ( #1 ) ;
#523 = ORIENTED_EDGE ( 'NONE', *, *, #676, .F. ) ;
#524 = LINE ( 'NONE', #171, #374 ) ;
#525 = EDGE_LOOP ( 'NONE', ( #254, #820, #247, #435 ) ) ;
#526 = EDGE_CURVE ( 'NONE', #391, #491, #152, .T. ) ;
#527 = VERTEX_POINT ( 'NONE', #669 ) ;
#528 = EDGE_CURVE ( 'NONE', #722, #455, #567, .T. ) ;
#529 = VECTOR ( 'NONE', #212, 1000.000000000000000 ) ;
#530 = LINE ( 'NONE', #684, #79 ) ;
#531 = ORIENTED_EDGE ( 'NONE', *, *, #882, .F. ) ;
#532 = PRESENTATION_LAYER_ASSIGNMENT (  '', '', ( #101 ) ) ;
#533 = AXIS2_PLACEMENT_3D ( 'NONE', #613, #681, #752 ) ;
#534 = CARTESIAN_POINT ( 'NONE',  ( 0.0000000000000000000, 3.500000000000000000, -1.500000000000000222 ) ) ;
#535 = FILL_AREA_STYLE ('',( #828 ) ) ;
#536 = EDGE_CURVE ( 'NONE', #176, #602, #524, .T. ) ;
#537 = SURFACE_STYLE_USAGE ( .BOTH. , #830 ) ;
#538 = FACE_OUTER_BOUND ( 'NONE', #506, .T. ) ;
#539 = CARTESIAN_POINT ( 'NONE',  ( 0.4999999999999998890, -1.000000000000000000, -1.019515152106898137 ) ) ;
#540 = VECTOR ( 'NONE', #424, 1000.000000000000000 ) ;
#541 = ORIENTED_EDGE ( 'NONE', *, *, #734, .F. ) ;
#542 =( LENGTH_UNIT ( ) NAMED_UNIT ( * ) SI_UNIT ( .MILLI., .METRE. ) );
#543 = ORIENTED_EDGE ( 'NONE', *, *, #286, .T. ) ;
#544 = DIRECTION ( 'NONE',  ( -0.0000000000000000000, -1.000000000000000000, -0.0000000000000000000 ) ) ;
#545 = ADVANCED_FACE ( 'NONE', ( #30 ), #64, .T. ) ;
#546 = DIRECTION ( 'NONE',  ( 0.0000000000000000000, 1.000000000000000000, 0.0000000000000000000 ) ) ;
#547 = PLANE ( 'NONE',  #533 ) ;
#548 =( GEOMETRIC_REPRESENTATION_CONTEXT ( 3 ) GLOBAL_UNCERTAINTY_ASSIGNED_CONTEXT ( ( #868 ) ) GLOBAL_UNIT_ASSIGNED_CONTEXT ( ( #542, #258, #834 ) ) REPRESENTATION_CONTEXT ( 'NONE', 'WORKASPACE' ) );
#549 = VECTOR ( 'NONE', #25, 1000.000000000000000 ) ;
#550 = CARTESIAN_POINT ( 'NONE',  ( 0.0000000000000000000, 3.500000000000000000, 0.0000000000000000000 ) ) ;
#551 = DIRECTION ( 'NONE',  ( 0.0000000000000000000, 0.0000000000000000000, 1.000000000000000000 ) ) ;
#552 = ADVANCED_FACE ( 'NONE', ( #817 ), #246, .F. ) ;
#553 = VECTOR ( 'NONE', #544, 1000.000000000000000 ) ;
#554 = CIRCLE ( 'NONE', #759, 2.000000000000000000 ) ;
#555 = ORIENTED_EDGE ( 'NONE', *, *, #307, .F. ) ;
#556 = DIRECTION ( 'NONE',  ( 0.0000000000000000000, 0.0000000000000000000, 1.000000000000000000 ) ) ;
#557 = ORIENTED_EDGE ( 'NONE', *, *, #307, .T. ) ;
#558 = CARTESIAN_POINT ( 'NONE',  ( 0.2485142509980858283, -1.000000000000000222, 1.018278592277236383 ) ) ;
#559 = PLANE ( 'NONE',  #188 ) ;
#560 = PRODUCT_CONTEXT ( 'NONE', #215, 'mechanical' ) ;
#561 = CARTESIAN_POINT ( 'NONE',  ( 1.263922465976452969, 1.000000000000000000, -1.550000000000000711 ) ) ;
#562 = CARTESIAN_POINT ( 'NONE',  ( 3.500000000000000000, -1.752240523264949612, -1.520484847893101898 ) ) ;
#563 = PRESENTATION_LAYER_ASSIGNMENT (  '', '', ( #24 ) ) ;
#564 = VECTOR ( 'NONE', #273, 1000.000000000000000 ) ;
#565 = CARTESIAN_POINT ( 'NONE',  ( 1.500000000000000222, 9.499999999999998224, 2.999999999999998668 ) ) ;
#566 = CYLINDRICAL_SURFACE ( 'NONE', #472, 1.500000000000000222 ) ;
#567 = LINE ( 'NONE', #38, #903 ) ;
#568 = EDGE_LOOP ( 'NONE', ( #776, #898, #635, #896 ) ) ;
#569 = ORIENTED_EDGE ( 'NONE', *, *, #780, .F. ) ;
#570 = DIRECTION ( 'NONE',  ( -0.0000000000000000000, -0.0000000000000000000, -1.000000000000000000 ) ) ;
#571 = EDGE_CURVE ( 'NONE', #126, #802, #89, .T. ) ;
#572 = ORIENTED_EDGE ( 'NONE', *, *, #619, .F. ) ;
#573 = CARTESIAN_POINT ( 'NONE',  ( 0.0000000000000000000, 3.500000000000000000, 0.0000000000000000000 ) ) ;
#574 = DIRECTION ( 'NONE',  ( -0.0000000000000000000, 1.000000000000000000, 0.0000000000000000000 ) ) ;
#575 = CARTESIAN_POINT ( 'NONE',  ( 0.2485142509980858283, -1.748514250998085773, 1.018278592277236383 ) ) ;
#576 = EDGE_CURVE ( 'NONE', #19, #176, #402, .T. ) ;
#577 = CARTESIAN_POINT ( 'NONE',  ( 0.0000000000000000000, 0.0000000000000000000, 0.0000000000000000000 ) ) ;
#578 = VECTOR ( 'NONE', #223, 1000.000000000000000 ) ;
#579 = VERTEX_POINT ( 'NONE', #888 ) ;
#580 = VECTOR ( 'NONE', #360, 1000.000000000000000 ) ;
#581 = DIRECTION ( 'NONE',  ( 0.0000000000000000000, -0.0000000000000000000, 1.000000000000000000 ) ) ;
#582 = VERTEX_POINT ( 'NONE', #809 ) ;
#583 = ORIENTED_EDGE ( 'NONE', *, *, #528, .F. ) ;
#584 = CARTESIAN_POINT ( 'NONE',  ( 0.4999999999999998890, -1.000000000000000000, 1.018278592277236383 ) ) ;
#585 = ORIENTED_EDGE ( 'NONE', *, *, #97, .F. ) ;
#586 = CARTESIAN_POINT ( 'NONE',  ( 0.0000000000000000000, 3.500000000000000000, 0.0000000000000000000 ) ) ;
#587 = CARTESIAN_POINT ( 'NONE',  ( -0.2485142509980858283, -1.748514250998085773, 1.018278592277236383 ) ) ;
#588 = AXIS2_PLACEMENT_3D ( 'NONE', #483, #668, #883 ) ;
#589 = SURFACE_SIDE_STYLE ('',( #18 ) ) ;
#590 = DIRECTION ( 'NONE',  ( -0.0000000000000000000, 0.0000000000000000000, -1.000000000000000000 ) ) ;
#591 = COLOUR_RGB ( '',1.000000000000000000, 1.000000000000000000, 1.000000000000000000 ) ;
#592 = EDGE_CURVE ( 'NONE', #890, #579, #647, .T. ) ;
#593 = COLOUR_RGB ( '',1.000000000000000000, 0.0000000000000000000, 0.0000000000000000000 ) ;
#594 = ORIENTED_EDGE ( 'NONE', *, *, #637, .F. ) ;
#595 = ORIENTED_EDGE ( 'NONE', *, *, #207, .T. ) ;
#596 = FILL_AREA_STYLE ('',( #236 ) ) ;
#597 = VERTEX_POINT ( 'NONE', #482 ) ;
#598 = AXIS2_PLACEMENT_3D ( 'NONE', #70, #551, #640 ) ;
#599 = SURFACE_STYLE_FILL_AREA ( #8 ) ;
#600 = ORIENTED_EDGE ( 'NONE', *, *, #13, .F. ) ;
#601 = EDGE_CURVE ( 'NONE', #491, #66, #895, .T. ) ;
#602 = VERTEX_POINT ( 'NONE', #664 ) ;
#603 =( NAMED_UNIT ( * ) PLANE_ANGLE_UNIT ( ) SI_UNIT ( $, .RADIAN. ) );
#604 = FACE_OUTER_BOUND ( 'NONE', #178, .T. ) ;
#605 = DIRECTION ( 'NONE',  ( 1.000000000000000000, -0.0000000000000000000, 0.0000000000000000000 ) ) ;
#606 = FACE_OUTER_BOUND ( 'NONE', #393, .T. ) ;
#607 = DIRECTION ( 'NONE',  ( 1.000000000000000000, 0.0000000000000000000, -0.0000000000000000000 ) ) ;
#608 = ORIENTED_EDGE ( 'NONE', *, *, #737, .T. ) ;
#609 =( GEOMETRIC_REPRESENTATION_CONTEXT ( 3 ) GLOBAL_UNCERTAINTY_ASSIGNED_CONTEXT ( ( #484 ) ) GLOBAL_UNIT_ASSIGNED_CONTEXT ( ( #238, #37, #444 ) ) REPRESENTATION_CONTEXT ( 'NONE', 'WORKASPACE' ) );
#610 =( NAMED_UNIT ( * ) SI_UNIT ( $, .STERADIAN. ) SOLID_ANGLE_UNIT ( ) );
#611 = DIRECTION ( 'NONE',  ( 0.0000000000000000000, 0.0000000000000000000, -1.000000000000000000 ) ) ;
#612 = ADVANCED_FACE ( 'NONE', ( #703 ), #52, .T. ) ;
#613 = CARTESIAN_POINT ( 'NONE',  ( 0.0000000000000000000, 0.0000000000000000000, 0.0000000000000000000 ) ) ;
#614 =( NAMED_UNIT ( * ) PLANE_ANGLE_UNIT ( ) SI_UNIT ( $, .RADIAN. ) );
#615 = AXIS2_PLACEMENT_3D ( 'NONE', #397, #835, #607 ) ;
#616 = VECTOR ( 'NONE', #590, 1000.000000000000000 ) ;
#617 = VERTEX_POINT ( 'NONE', #134 ) ;
#618 = VERTEX_POINT ( 'NONE', #5 ) ;
#619 = EDGE_CURVE ( 'NONE', #602, #425, #2, .T. ) ;
#620 = ORIENTED_EDGE ( 'NONE', *, *, #432, .F. ) ;
#621 = CARTESIAN_POINT ( 'NONE',  ( -0.2522405232649495010, -0.9999999999999933387, -1.520484847893101898 ) ) ;
#622 = ADVANCED_FACE ( 'NONE', ( #431 ), #208, .F. ) ;
#623 = PLANE ( 'NONE',  #468 ) ;
#624 =( NAMED_UNIT ( * ) PLANE_ANGLE_UNIT ( ) SI_UNIT ( $, .RADIAN. ) );
#625 = CARTESIAN_POINT ( 'NONE',  ( 0.0000000000000000000, 3.500000000000000000, -1.500000000000000222 ) ) ;
#626 = EDGE_CURVE ( 'NONE', #385, #32, #161, .T. ) ;
#627 = DIRECTION ( 'NONE',  ( 0.0000000000000000000, 0.0000000000000000000, -1.000000000000000000 ) ) ;
#628 = PRESENTATION_LAYER_ASSIGNMENT (  '', '', ( #404 ) ) ;
#629 = FACE_OUTER_BOUND ( 'NONE', #710, .T. ) ;
#630 = SURFACE_STYLE_USAGE ( .BOTH. , #139 ) ;
#631 = VECTOR ( 'NONE', #145, 1000.000000000000000 ) ;
#632 = CARTESIAN_POINT ( 'NONE',  ( 4.000000000000000000, -1.251485749001914227, 1.521721407722763653 ) ) ;
#633 = ORIENTED_EDGE ( 'NONE', *, *, #576, .F. ) ;
#634 = CARTESIAN_POINT ( 'NONE',  ( 1.500000000000000000, 3.500000000000000000, 0.0000000000000000000 ) ) ;
#635 = ORIENTED_EDGE ( 'NONE', *, *, #460, .T. ) ;
#636 = DIRECTION ( 'NONE',  ( -1.000000000000000000, 0.0000000000000000000, 0.0000000000000000000 ) ) ;
#637 = EDGE_CURVE ( 'NONE', #103, #66, #150, .T. ) ;
#638 = DIRECTION ( 'NONE',  ( 0.0000000000000000000, -0.0000000000000000000, 1.000000000000000000 ) ) ;
#639 = CARTESIAN_POINT ( 'NONE',  ( 1.500000000000000222, 3.500000000000000444, 2.999999999999999556 ) ) ;
#640 = DIRECTION ( 'NONE',  ( 1.000000000000000000, 0.0000000000000000000, -0.0000000000000000000 ) ) ;
#641 =( LENGTH_UNIT ( ) NAMED_UNIT ( * ) SI_UNIT ( .MILLI., .METRE. ) );
#642 = DIRECTION ( 'NONE',  ( 1.000000000000000000, 0.0000000000000000000, 0.0000000000000000000 ) ) ;
#643 = DIRECTION ( 'NONE',  ( 1.000000000000000000, 0.0000000000000000000, 0.0000000000000000000 ) ) ;
#644 = AXIS2_PLACEMENT_3D ( 'NONE', #864, #84, #154 ) ;
#645 = CARTESIAN_POINT ( 'NONE',  ( -1.500000000000000000, 3.500000000000000000, -1.836970198721029934E-16 ) ) ;
#646 = VECTOR ( 'NONE', #26, 1000.000000000000000 ) ;
#647 = LINE ( 'NONE', #309, #798 ) ;
#648 = AXIS2_PLACEMENT_3D ( 'NONE', #280, #842, #417 ) ;
#649 = VERTEX_POINT ( 'NONE', #498 ) ;
#650 =( LENGTH_UNIT ( ) NAMED_UNIT ( * ) SI_UNIT ( .MILLI., .METRE. ) );
#651 = EDGE_LOOP ( 'NONE', ( #230, #680 ) ) ;
#652 = ORIENTED_EDGE ( 'NONE', *, *, #743, .F. ) ;
#653 = DIRECTION ( 'NONE',  ( 0.0000000000000000000, 0.0000000000000000000, -1.000000000000000000 ) ) ;
#654 = AXIS2_PLACEMENT_3D ( 'NONE', #787, #905, #325 ) ;
#655 = ORIENTED_EDGE ( 'NONE', *, *, #763, .F. ) ;
#656 = DIRECTION ( 'NONE',  ( -0.0000000000000000000, 1.000000000000000000, -1.224646799147353207E-16 ) ) ;
#657 = STYLED_ITEM ( 'NONE', ( #328 ), #545 ) ;
#658 = UNCERTAINTY_MEASURE_WITH_UNIT (LENGTH_MEASURE( 1.000000000000000082E-05 ), #116, 'distance_accuracy_value', 'NONE');
#659 = CARTESIAN_POINT ( 'NONE',  ( 0.5000000000000019984, -1.752240523264949612, -1.520484847893101898 ) ) ;
#660 = CARTESIAN_POINT ( 'NONE',  ( 0.0000000000000000000, 1.000000000000000000, 0.0000000000000000000 ) ) ;
#661 = CIRCLE ( 'NONE', #728, 1.500000000000000222 ) ;
#662 = LINE ( 'NONE', #189, #826 ) ;
#663 = PRESENTATION_STYLE_ASSIGNMENT (( #764 ) ) ;
#664 = CARTESIAN_POINT ( 'NONE',  ( -0.2522405232649495010, -0.9999999999999965583, -1.019515152106898137 ) ) ;
#665 = EDGE_LOOP ( 'NONE', ( #756, #585, #376, #44 ) ) ;
#666 = PRODUCT_RELATED_PRODUCT_CATEGORY ( 'part', '', ( #85 ) ) ;
#667 = EDGE_LOOP ( 'NONE', ( #555, #81, #489, #652 ) ) ;
#668 = DIRECTION ( 'NONE',  ( 0.0000000000000000000, 0.0000000000000000000, 1.000000000000000000 ) ) ;
#669 = CARTESIAN_POINT ( 'NONE',  ( 0.2485142509980858283, -1.000000000000000000, 1.521721407722763653 ) ) ;
#670 = STYLED_ITEM ( 'NONE', ( #312 ), #231 ) ;
#671 = LINE ( 'NONE', #562, #14 ) ;
#672 = VECTOR ( 'NONE', #412, 1000.000000000000000 ) ;
#673 = ORIENTED_EDGE ( 'NONE', *, *, #211, .T. ) ;
#674 = VECTOR ( 'NONE', #877, 1000.000000000000000 ) ;
#675 = ORIENTED_EDGE ( 'NONE', *, *, #626, .T. ) ;
#676 = EDGE_CURVE ( 'NONE', #449, #185, #824, .T. ) ;
#677 = AXIS2_PLACEMENT_3D ( 'NONE', #850, #408, #636 ) ;
#678 = ORIENTED_EDGE ( 'NONE', *, *, #108, .T. ) ;
#679 = FACE_BOUND ( 'NONE', #464, .T. ) ;
#680 = ORIENTED_EDGE ( 'NONE', *, *, #432, .T. ) ;
#681 = DIRECTION ( 'NONE',  ( 0.0000000000000000000, 1.000000000000000000, 0.0000000000000000000 ) ) ;
#682 = CARTESIAN_POINT ( 'NONE',  ( 1.836970198721030181E-16, 1.000000000000000000, 1.500000000000000222 ) ) ;
#683 = EDGE_CURVE ( 'NONE', #618, #365, #28, .T. ) ;
#684 = CARTESIAN_POINT ( 'NONE',  ( 3.500000000000000000, 0.0000000000000000000, -1.520484847893101898 ) ) ;
#685 = DIRECTION ( 'NONE',  ( -0.0000000000000000000, 1.000000000000000000, 0.0000000000000000000 ) ) ;
#686 = ADVANCED_FACE ( 'NONE', ( #753 ), #773, .T. ) ;
#687 = DIRECTION ( 'NONE',  ( -1.000000000000000000, 0.0000000000000000000, -0.0000000000000000000 ) ) ;
#688 = VECTOR ( 'NONE', #685, 1000.000000000000000 ) ;
#689 = COLOUR_RGB ( '',1.000000000000000000, 0.0000000000000000000, 0.0000000000000000000 ) ;
#690 = CARTESIAN_POINT ( 'NONE',  ( 0.2485142509980858283, 0.0000000000000000000, 0.0000000000000000000 ) ) ;
#691 = ORIENTED_EDGE ( 'NONE', *, *, #899, .T. ) ;
#692 = ORIENTED_EDGE ( 'NONE', *, *, #160, .T. ) ;
#693 = AXIS2_PLACEMENT_3D ( 'NONE', #68, #72, #406 ) ;
#694 = UNCERTAINTY_MEASURE_WITH_UNIT (LENGTH_MEASURE( 1.000000000000000082E-05 ), #368, 'distance_accuracy_value', 'NONE');
#695 = FILL_AREA_STYLE ('',( #901 ) ) ;
#696 = DIRECTION ( 'NONE',  ( 0.0000000000000000000, -0.0000000000000000000, 1.000000000000000000 ) ) ;
#697 = ADVANCED_FACE ( 'NONE', ( #727 ), #559, .F. ) ;
#698 = EDGE_CURVE ( 'NONE', #365, #841, #797, .T. ) ;
#699 = SURFACE_SIDE_STYLE ('',( #599 ) ) ;
#700 = PRESENTATION_LAYER_ASSIGNMENT (  '', '', ( #657 ) ) ;
#701 = CARTESIAN_POINT ( 'NONE',  ( -0.2485142509980858283, -0.9999999999999933387, 1.018278592277236383 ) ) ;
#702 = CARTESIAN_POINT ( 'NONE',  ( 0.5000000000000034417, 0.0000000000000000000, 1.018278592277236383 ) ) ;
#703 = FACE_OUTER_BOUND ( 'NONE', #741, .T. ) ;
#704 = ADVANCED_FACE ( 'NONE', ( #514 ), #382, .T. ) ;
#705 = ORIENTED_EDGE ( 'NONE', *, *, #195, .F. ) ;
#706 = LINE ( 'NONE', #837, #122 ) ;
#707 = ORIENTED_EDGE ( 'NONE', *, *, #708, .F. ) ;
#708 = EDGE_CURVE ( 'NONE', #742, #43, #109, .T. ) ;
#709 = EDGE_LOOP ( 'NONE', ( #557, #705, #600, #392, #691, #543, #290, #217 ) ) ;
#710 = EDGE_LOOP ( 'NONE', ( #94, #908, #313, #311, #250, #509, #219, #293 ) ) ;
#711 = MECHANICAL_DESIGN_GEOMETRIC_PRESENTATION_REPRESENTATION (  '', ( #158 ), #751 ) ;
#712 = CARTESIAN_POINT ( 'NONE',  ( 3.500000000000000000, -1.752240523264949612, -1.019515152106898137 ) ) ;
#713 = CARTESIAN_POINT ( 'NONE',  ( 1.500000000000000000, 3.500000000000000000, 0.0000000000000000000 ) ) ;
#714 =( LENGTH_UNIT ( ) NAMED_UNIT ( * ) SI_UNIT ( .MILLI., .METRE. ) );
#715 = DIRECTION ( 'NONE',  ( -1.000000000000000000, -0.0000000000000000000, 0.0000000000000000000 ) ) ;
#716 = AXIS2_PLACEMENT_3D ( 'NONE', #866, #872, #428 ) ;
#717 = VECTOR ( 'NONE', #777, 1000.000000000000000 ) ;
#718 = CARTESIAN_POINT ( 'NONE',  ( -0.2522405232649495010, -1.951563910473907981E-15, -1.019515152106898137 ) ) ;
#719 = COLOUR_RGB ( '',1.000000000000000000, 0.0000000000000000000, 0.0000000000000000000 ) ;
#720 = ORIENTED_EDGE ( 'NONE', *, *, #281, .T. ) ;
#721 = FACE_OUTER_BOUND ( 'NONE', #501, .T. ) ;
#722 = VERTEX_POINT ( 'NONE', #295 ) ;
#723 = AXIS2_PLACEMENT_3D ( 'NONE', #573, #354, #287 ) ;
#724 = FILL_AREA_STYLE ('',( #299 ) ) ;
#725 = CARTESIAN_POINT ( 'NONE',  ( 3.500000000000000000, -1.247759476735050610, -1.520484847893101898 ) ) ;
#726 = DIRECTION ( 'NONE',  ( -0.0000000000000000000, -0.0000000000000000000, -1.000000000000000000 ) ) ;
#727 = FACE_OUTER_BOUND ( 'NONE', #127, .T. ) ;
#728 = AXIS2_PLACEMENT_3D ( 'NONE', #660, #235, #142 ) ;
#729 = LINE ( 'NONE', #345, #529 ) ;
#730 = COLOUR_RGB ( '',1.000000000000000000, 0.0000000000000000000, 0.0000000000000000000 ) ;
#731 = DIRECTION ( 'NONE',  ( -1.000000000000000000, 0.0000000000000000000, 0.0000000000000000000 ) ) ;
#732 = ORIENTED_EDGE ( 'NONE', *, *, #141, .F. ) ;
#733 = CARTESIAN_POINT ( 'NONE',  ( 0.5000000000000034417, -1.247759476735050610, -1.270000000000000018 ) ) ;
#734 = EDGE_CURVE ( 'NONE', #114, #355, #766, .T. ) ;
#735 = STYLED_ITEM ( 'NONE', ( #276 ), #704 ) ;
#736 = FILL_AREA_STYLE_COLOUR ( '', #819 ) ;
#737 = EDGE_CURVE ( 'NONE', #582, #32, #252, .T. ) ;
#738 = VECTOR ( 'NONE', #233, 1000.000000000000000 ) ;
#739 = VECTOR ( 'NONE', #15, 1000.000000000000000 ) ;
#740 = CARTESIAN_POINT ( 'NONE',  ( 0.0000000000000000000, 0.0000000000000000000, -1.019515152106898137 ) ) ;
#741 = EDGE_LOOP ( 'NONE', ( #269, #503, #342, #340 ) ) ;
#742 = VERTEX_POINT ( 'NONE', #356 ) ;
#743 = EDGE_CURVE ( 'NONE', #439, #790, #77, .T. ) ;
#744 = VECTOR ( 'NONE', #292, 1000.000000000000000 ) ;
#745 = FACE_OUTER_BOUND ( 'NONE', #519, .T. ) ;
#746 = AXIS2_PLACEMENT_3D ( 'NONE', #377, #447, #520 ) ;
#747 = ORIENTED_EDGE ( 'NONE', *, *, #22, .T. ) ;
#748 = ORIENTED_EDGE ( 'NONE', *, *, #698, .T. ) ;
#749 = ORIENTED_EDGE ( 'NONE', *, *, #792, .F. ) ;
#750 = EDGE_CURVE ( 'NONE', #32, #617, #301, .T. ) ;
#751 =( GEOMETRIC_REPRESENTATION_CONTEXT ( 3 ) GLOBAL_UNCERTAINTY_ASSIGNED_CONTEXT ( ( #893 ) ) GLOBAL_UNIT_ASSIGNED_CONTEXT ( ( #714, #271, #860 ) ) REPRESENTATION_CONTEXT ( 'NONE', 'WORKASPACE' ) );
#752 = DIRECTION ( 'NONE',  ( 0.0000000000000000000, -0.0000000000000000000, 1.000000000000000000 ) ) ;
#753 = FACE_OUTER_BOUND ( 'NONE', #709, .T. ) ;
#754 = SURFACE_STYLE_USAGE ( .BOTH. , #76 ) ;
#755 = CIRCLE ( 'NONE', #588, 0.2477594767350504712 ) ;
#756 = ORIENTED_EDGE ( 'NONE', *, *, #400, .T. ) ;
#757 = FILL_AREA_STYLE_COLOUR ( '', #689 ) ;
#758 = ORIENTED_EDGE ( 'NONE', *, *, #708, .T. ) ;
#759 = AXIS2_PLACEMENT_3D ( 'NONE', #264, #390, #480 ) ;
#760 = CARTESIAN_POINT ( 'NONE',  ( -0.2485142509980858283, -0.9999999999999933387, 1.521721407722763653 ) ) ;
#761 = DIRECTION ( 'NONE',  ( 0.0000000000000000000, 1.000000000000000000, 0.0000000000000000000 ) ) ;
#762 = PLANE ( 'NONE',  #615 ) ;
#763 = EDGE_CURVE ( 'NONE', #185, #20, #849, .T. ) ;
#764 = SURFACE_STYLE_USAGE ( .BOTH. , #322 ) ;
#765 = ADVANCED_FACE ( 'NONE', ( #629 ), #796, .T. ) ;
#766 = LINE ( 'NONE', #575, #380 ) ;
#767 = DIRECTION ( 'NONE',  ( 0.0000000000000000000, 0.0000000000000000000, -1.000000000000000000 ) ) ;
#768 = VECTOR ( 'NONE', #789, 1000.000000000000000 ) ;
#769 = APPLICATION_CONTEXT ( 'automotive_design' ) ;
#770 = ORIENTED_EDGE ( 'NONE', *, *, #792, .T. ) ;
#771 = LINE ( 'NONE', #296, #768 ) ;
#772 = ORIENTED_EDGE ( 'NONE', *, *, #526, .T. ) ;
#773 = PLANE ( 'NONE',  #104 ) ;
#774 = ORIENTED_EDGE ( 'NONE', *, *, #576, .T. ) ;
#775 = CARTESIAN_POINT ( 'NONE',  ( -0.2485142509980858283, -0.9999999999999965583, 1.521721407722763653 ) ) ;
#776 = ORIENTED_EDGE ( 'NONE', *, *, #683, .F. ) ;
#777 = DIRECTION ( 'NONE',  ( 1.000000000000000000, -0.0000000000000000000, 0.0000000000000000000 ) ) ;
#778 = ADVANCED_FACE ( 'NONE', ( #361 ), #430, .T. ) ;
#779 = DIRECTION ( 'NONE',  ( 0.0000000000000000000, 1.000000000000000000, 0.0000000000000000000 ) ) ;
#780 = EDGE_CURVE ( 'NONE', #20, #448, #810, .T. ) ;
#781 = DIRECTION ( 'NONE',  ( 0.0000000000000000000, 0.0000000000000000000, -1.000000000000000000 ) ) ;
#782 = ADVANCED_FACE ( 'NONE', ( #604 ), #875, .T. ) ;
#783 = DIRECTION ( 'NONE',  ( -0.0000000000000000000, 1.000000000000000000, 0.0000000000000000000 ) ) ;
#784 = VECTOR ( 'NONE', #205, 1000.000000000000000 ) ;
#785 = CARTESIAN_POINT ( 'NONE',  ( 1.500000000000000222, 9.499999999999998224, -2.999999999999999556 ) ) ;
#786 = EDGE_LOOP ( 'NONE', ( #110, #421, #105, #305 ) ) ;
#787 = CARTESIAN_POINT ( 'NONE',  ( 0.4999999999999998890, -1.000000000000000000, 1.521721407722763653 ) ) ;
#788 = CARTESIAN_POINT ( 'NONE',  ( 0.5000000000000034417, -1.247759476735050610, -1.019515152106898137 ) ) ;
#789 = DIRECTION ( 'NONE',  ( 1.000000000000000000, 0.0000000000000000000, 0.0000000000000000000 ) ) ;
#790 = VERTEX_POINT ( 'NONE', #227 ) ;
#791 = CARTESIAN_POINT ( 'NONE',  ( 0.0000000000000000000, 1.000000000000000000, 0.0000000000000000000 ) ) ;
#792 = EDGE_CURVE ( 'NONE', #43, #742, #661, .T. ) ;
#793 = CARTESIAN_POINT ( 'NONE',  ( 0.2485142509980858283, -1.843143693225357538E-15, 1.521721407722763653 ) ) ;
#794 = AXIS2_PLACEMENT_3D ( 'NONE', #811, #808, #370 ) ;
#795 = PRODUCT_DEFINITION_SHAPE ( 'NONE', 'NONE',  #823 ) ;
#796 = PLANE ( 'NONE',  #716 ) ;
#797 = LINE ( 'NONE', #415, #338 ) ;
#798 = VECTOR ( 'NONE', #880, 1000.000000000000000 ) ;
#799 = ORIENTED_EDGE ( 'NONE', *, *, #763, .T. ) ;
#800 = LINE ( 'NONE', #357, #578 ) ;
#801 = CARTESIAN_POINT ( 'NONE',  ( 0.4999999999999998890, -1.000000000000000000, -1.019515152106898137 ) ) ;
#802 = VERTEX_POINT ( 'NONE', #803 ) ;
#803 = CARTESIAN_POINT ( 'NONE',  ( 4.000000000000000000, -1.251485749001914227, 1.018278592277236383 ) ) ;
#804 = AXIS2_PLACEMENT_3D ( 'NONE', #346, #3, #556 ) ;
#805 = CARTESIAN_POINT ( 'NONE',  ( 0.5000000000000034417, -1.752240523264949612, -1.520484847893101898 ) ) ;
#806 = DIRECTION ( 'NONE',  ( 0.0000000000000000000, 0.0000000000000000000, -1.000000000000000000 ) ) ;
#807 = EDGE_CURVE ( 'NONE', #355, #527, #239, .T. ) ;
#808 = DIRECTION ( 'NONE',  ( 0.0000000000000000000, 0.0000000000000000000, -1.000000000000000000 ) ) ;
#809 = CARTESIAN_POINT ( 'NONE',  ( 0.5000000000000017764, -1.247759476735050610, -1.520484847893101898 ) ) ;
#810 = CIRCLE ( 'NONE', #904, 1.500000000000000000 ) ;
#811 = CARTESIAN_POINT ( 'NONE',  ( -1.263922465976453857, 1.000000000000000000, -1.550000000000000266 ) ) ;
#812 = ORIENTED_EDGE ( 'NONE', *, *, #327, .T. ) ;
#813 = DIRECTION ( 'NONE',  ( 1.000000000000000000, 0.0000000000000000000, -0.0000000000000000000 ) ) ;
#814 = CARTESIAN_POINT ( 'NONE',  ( 0.5000000000000034417, -1.748514250998085773, 1.521721407722763653 ) ) ;
#815 = PRESENTATION_LAYER_ASSIGNMENT (  '', '', ( #387 ) ) ;
#816 = PRESENTATION_STYLE_ASSIGNMENT (( #303 ) ) ;
#817 = FACE_OUTER_BOUND ( 'NONE', #243, .T. ) ;
#818 = VERTEX_POINT ( 'NONE', #125 ) ;
#819 = COLOUR_RGB ( '',1.000000000000000000, 0.0000000000000000000, 0.0000000000000000000 ) ;
#820 = ORIENTED_EDGE ( 'NONE', *, *, #316, .T. ) ;
#821 = ORIENTED_EDGE ( 'NONE', *, *, #183, .T. ) ;
#822 = UNCERTAINTY_MEASURE_WITH_UNIT (LENGTH_MEASURE( 1.000000000000000082E-05 ), #650, 'distance_accuracy_value', 'NONE');
#823 = PRODUCT_DEFINITION ( 'UNKNOWN', '', #876, #263 ) ;
#824 = CIRCLE ( 'NONE', #845, 1.500000000000000222 ) ;
#825 = CARTESIAN_POINT ( 'NONE',  ( 0.5000000000000017764, -1.251485749001914227, 1.018278592277236383 ) ) ;
#826 = VECTOR ( 'NONE', #469, 1000.000000000000000 ) ;
#827 = LINE ( 'NONE', #129, #174 ) ;
#828 = FILL_AREA_STYLE_COLOUR ( '', #902 ) ;
#829 = EDGE_LOOP ( 'NONE', ( #707, #749 ) ) ;
#830 = SURFACE_SIDE_STYLE ('',( #100 ) ) ;
#831 = ORIENTED_EDGE ( 'NONE', *, *, #601, .T. ) ;
#832 = DIRECTION ( 'NONE',  ( -0.0000000000000000000, 1.000000000000000000, 0.0000000000000000000 ) ) ;
#833 = EDGE_CURVE ( 'NONE', #176, #597, #416, .T. ) ;
#834 =( NAMED_UNIT ( * ) SI_UNIT ( $, .STERADIAN. ) SOLID_ANGLE_UNIT ( ) );
#835 = DIRECTION ( 'NONE',  ( 0.0000000000000000000, 0.0000000000000000000, 1.000000000000000000 ) ) ;
#836 = ADVANCED_FACE ( 'NONE', ( #462 ), #147, .T. ) ;
#837 = CARTESIAN_POINT ( 'NONE',  ( -0.2522405232649495010, -1.752240523264949612, -1.520484847893101898 ) ) ;
#838 = ORIENTED_EDGE ( 'NONE', *, *, #750, .T. ) ;
#839 = CIRCLE ( 'NONE', #378, 2.000000000000000000 ) ;
#840 = ORIENTED_EDGE ( 'NONE', *, *, #460, .F. ) ;
#841 = VERTEX_POINT ( 'NONE', #492 ) ;
#842 = DIRECTION ( 'NONE',  ( 0.0000000000000000000, 0.0000000000000000000, 1.000000000000000000 ) ) ;
#843 = CARTESIAN_POINT ( 'NONE',  ( 1.836970198721030674E-16, 3.500000000000000000, 1.500000000000000444 ) ) ;
#844 = ADVANCED_FACE ( 'NONE', ( #538 ), #336, .F. ) ;
#845 = AXIS2_PLACEMENT_3D ( 'NONE', #11, #779, #859 ) ;
#846 = CARTESIAN_POINT ( 'NONE',  ( 0.2485142509980858283, -1.000000000000000000, 1.018278592277236383 ) ) ;
#847 =( LENGTH_UNIT ( ) NAMED_UNIT ( * ) SI_UNIT ( .MILLI., .METRE. ) );
#848 = DIRECTION ( 'NONE',  ( -0.0000000000000000000, -0.0000000000000000000, -1.000000000000000000 ) ) ;
#849 = CIRCLE ( 'NONE', #34, 1.500000000000000000 ) ;
#850 = CARTESIAN_POINT ( 'NONE',  ( 0.4999999999999998890, -1.000000000000000000, 1.018278592277236383 ) ) ;
#851 = EDGE_CURVE ( 'NONE', #818, #491, #348, .T. ) ;
#852 = VECTOR ( 'NONE', #611, 1000.000000000000000 ) ;
#853 = CARTESIAN_POINT ( 'NONE',  ( -0.2485142509980858283, -0.9999999999999933387, 1.018278592277236383 ) ) ;
#854 = FACE_OUTER_BOUND ( 'NONE', #48, .T. ) ;
#855 = ORIENTED_EDGE ( 'NONE', *, *, #379, .F. ) ;
#856 = CARTESIAN_POINT ( 'NONE',  ( -0.2522405232649495010, -0.9999999999999933387, -1.520484847893101898 ) ) ;
#857 = ORIENTED_EDGE ( 'NONE', *, *, #571, .F. ) ;
#858 = CARTESIAN_POINT ( 'NONE',  ( 4.000000000000000000, -1.748514250998085773, 1.521721407722763653 ) ) ;
#859 = DIRECTION ( 'NONE',  ( 0.0000000000000000000, 0.0000000000000000000, -1.000000000000000000 ) ) ;
#860 =( NAMED_UNIT ( * ) SI_UNIT ( $, .STERADIAN. ) SOLID_ANGLE_UNIT ( ) );
#861 = SURFACE_SIDE_STYLE ('',( #349 ) ) ;
#862 = DIRECTION ( 'NONE',  ( -1.000000000000000000, 0.0000000000000000000, 0.0000000000000000000 ) ) ;
#863 = AXIS2_PLACEMENT_3D ( 'NONE', #442, #41, #98 ) ;
#864 = CARTESIAN_POINT ( 'NONE',  ( 4.000000000000000000, 0.0000000000000000000, 0.0000000000000000000 ) ) ;
#865 = FILL_AREA_STYLE_COLOUR ( '', #593 ) ;
#866 = CARTESIAN_POINT ( 'NONE',  ( 0.5000000000000034417, -1.752240523264949612, -1.520484847893101898 ) ) ;
#867 = FACE_OUTER_BOUND ( 'NONE', #651, .T. ) ;
#868 = UNCERTAINTY_MEASURE_WITH_UNIT (LENGTH_MEASURE( 1.000000000000000082E-05 ), #542, 'distance_accuracy_value', 'NONE');
#869 = EDGE_LOOP ( 'NONE', ( #459, #840 ) ) ;
#870 = CARTESIAN_POINT ( 'NONE',  ( -0.2485142509980858283, 0.0000000000000000000, 0.0000000000000000000 ) ) ;
#871 = ORIENTED_EDGE ( 'NONE', *, *, #141, .T. ) ;
#872 = DIRECTION ( 'NONE',  ( 0.0000000000000000000, 0.0000000000000000000, -1.000000000000000000 ) ) ;
#873 = DIRECTION ( 'NONE',  ( -1.000000000000000000, 0.0000000000000000000, 0.0000000000000000000 ) ) ;
#874 = ORIENTED_EDGE ( 'NONE', *, *, #323, .T. ) ;
#875 = PLANE ( 'NONE',  #187 ) ;
#876 = PRODUCT_DEFINITION_FORMATION_WITH_SPECIFIED_SOURCE ( 'ANY', '', #85, .NOT_KNOWN. ) ;
#877 = DIRECTION ( 'NONE',  ( 0.0000000000000000000, 0.0000000000000000000, 1.000000000000000000 ) ) ;
#878 = VECTOR ( 'NONE', #832, 1000.000000000000000 ) ;
#879 = FACE_OUTER_BOUND ( 'NONE', #525, .T. ) ;
#880 = DIRECTION ( 'NONE',  ( -0.0000000000000000000, -1.000000000000000000, -0.0000000000000000000 ) ) ;
#881 = ORIENTED_EDGE ( 'NONE', *, *, #237, .F. ) ;
#882 = EDGE_CURVE ( 'NONE', #449, #742, #389, .T. ) ;
#883 = DIRECTION ( 'NONE',  ( -1.000000000000000000, -8.752054103221494101E-16, 0.0000000000000000000 ) ) ;
#884 = SURFACE_SIDE_STYLE ('',( #516 ) ) ;
#885 = MECHANICAL_DESIGN_GEOMETRIC_PRESENTATION_REPRESENTATION (  '', ( #657 ), #461 ) ;
#886 = FILL_AREA_STYLE ('',( #736 ) ) ;
#887 =( NAMED_UNIT ( * ) SI_UNIT ( $, .STERADIAN. ) SOLID_ANGLE_UNIT ( ) );
#888 = CARTESIAN_POINT ( 'NONE',  ( 0.2522405232649495010, -1.000000000000000222, -1.520484847893101898 ) ) ;
#889 = LINE ( 'NONE', #256, #373 ) ;
#890 = VERTEX_POINT ( 'NONE', #209 ) ;
#891 = ORIENTED_EDGE ( 'NONE', *, *, #133, .T. ) ;
#892 = MECHANICAL_DESIGN_GEOMETRIC_PRESENTATION_REPRESENTATION (  '', ( #670 ), #175 ) ;
#893 = UNCERTAINTY_MEASURE_WITH_UNIT (LENGTH_MEASURE( 1.000000000000000082E-05 ), #714, 'distance_accuracy_value', 'NONE');
#894 = AXIS2_PLACEMENT_3D ( 'NONE', #801, #570, #222 ) ;
#895 = LINE ( 'NONE', #814, #214 ) ;
#896 = ORIENTED_EDGE ( 'NONE', *, *, #698, .F. ) ;
#897 = ORIENTED_EDGE ( 'NONE', *, *, #536, .F. ) ;
#898 = ORIENTED_EDGE ( 'NONE', *, *, #113, .F. ) ;
#899 = EDGE_CURVE ( 'NONE', #818, #649, #372, .T. ) ;
#900 = DIRECTION ( 'NONE',  ( 0.0000000000000000000, 0.0000000000000000000, 1.000000000000000000 ) ) ;
#901 = FILL_AREA_STYLE_COLOUR ( '', #719 ) ;
#902 = COLOUR_RGB ( '',1.000000000000000000, 0.0000000000000000000, 0.0000000000000000000 ) ;
#903 = VECTOR ( 'NONE', #813, 1000.000000000000000 ) ;
#904 = AXIS2_PLACEMENT_3D ( 'NONE', #586, #656, #512 ) ;
#905 = DIRECTION ( 'NONE',  ( -0.0000000000000000000, -0.0000000000000000000, -1.000000000000000000 ) ) ;
#906 = ORIENTED_EDGE ( 'NONE', *, *, #379, .T. ) ;
#907 = LINE ( 'NONE', #870, #646 ) ;
#908 = ORIENTED_EDGE ( 'NONE', *, *, #323, .F. ) ;
#909 = EDGE_CURVE ( 'NONE', #314, #114, #182, .T. ) ;
#910 = MECHANICAL_DESIGN_GEOMETRIC_PRESENTATION_REPRESENTATION (  '', ( #387 ), #548 ) ;
#911 = DIRECTION ( 'NONE',  ( 0.0000000000000000000, -0.0000000000000000000, 1.000000000000000000 ) ) ;
ENDSEC;
END-ISO-10303-21;
