ISO-10303-21;
HEADER;
/* Generated by software containing ST-Developer
 * from STEP Tools, Inc. (www.steptools.com) 
 */
/* OPTION: strings as raw bytes, not using required /X/ escapes */

FILE_DESCRIPTION(
/* description */ ('Unknown'),
/* implementation_level */ '2;1');

FILE_NAME(
/* name */ 'SMT_Support_M1.2',
/* time_stamp */ '2026-03-08T15:38:17+07:00',
/* author */ ('Unknown'),
/* organization */ ('Unknown'),
/* preprocessor_version */ 'ST-DEVELOPER v20',
/* originating_system */ 'Solid Edge',
/* authorisation */ 'Unknown');

FILE_SCHEMA (('AUTOMOTIVE_DESIGN {1 0 10303 214 3 1 1}'));
ENDSEC;

DATA;
#10=PROPERTY_DEFINITION_REPRESENTATION(#14,#12);
#11=PROPERTY_DEFINITION_REPRESENTATION(#15,#13);
#12=REPRESENTATION('',(#16),#157);
#13=REPRESENTATION('',(#17),#157);
#14=PROPERTY_DEFINITION('pmi validation property','',#162);
#15=PROPERTY_DEFINITION('pmi validation property','',#162);
#16=VALUE_REPRESENTATION_ITEM('number of annotations',COUNT_MEASURE(0.));
#17=VALUE_REPRESENTATION_ITEM('number of views',COUNT_MEASURE(0.));
#18=SHAPE_REPRESENTATION_RELATIONSHIP('','',#97,#19);
#19=ADVANCED_BREP_SHAPE_REPRESENTATION('',(#95),#157);
#20=PLANE('',#102);
#21=PLANE('',#104);
#22=PLANE('',#108);
#23=ORIENTED_EDGE('',*,*,#35,.F.);
#24=ORIENTED_EDGE('',*,*,#36,.T.);
#25=ORIENTED_EDGE('',*,*,#37,.T.);
#26=ORIENTED_EDGE('',*,*,#35,.T.);
#27=ORIENTED_EDGE('',*,*,#38,.T.);
#28=ORIENTED_EDGE('',*,*,#36,.F.);
#29=ORIENTED_EDGE('',*,*,#39,.T.);
#30=ORIENTED_EDGE('',*,*,#38,.F.);
#31=ORIENTED_EDGE('',*,*,#40,.T.);
#32=ORIENTED_EDGE('',*,*,#39,.F.);
#33=ORIENTED_EDGE('',*,*,#37,.F.);
#34=ORIENTED_EDGE('',*,*,#40,.F.);
#35=EDGE_CURVE('',#41,#41,#47,.T.);
#36=EDGE_CURVE('',#42,#42,#48,.T.);
#37=EDGE_CURVE('',#43,#43,#49,.F.);
#38=EDGE_CURVE('',#44,#44,#50,.T.);
#39=EDGE_CURVE('',#45,#45,#51,.T.);
#40=EDGE_CURVE('',#46,#46,#52,.T.);
#41=VERTEX_POINT('',#140);
#42=VERTEX_POINT('',#142);
#43=VERTEX_POINT('',#145);
#44=VERTEX_POINT('',#148);
#45=VERTEX_POINT('',#151);
#46=VERTEX_POINT('',#154);
#47=CIRCLE('',#100,1.15);
#48=CIRCLE('',#101,1.15);
#49=CIRCLE('',#103,0.6);
#50=CIRCLE('',#105,0.95);
#51=CIRCLE('',#107,0.95);
#52=CIRCLE('',#109,0.6);
#53=EDGE_LOOP('',(#23));
#54=EDGE_LOOP('',(#24));
#55=EDGE_LOOP('',(#25));
#56=EDGE_LOOP('',(#26));
#57=EDGE_LOOP('',(#27));
#58=EDGE_LOOP('',(#28));
#59=EDGE_LOOP('',(#29));
#60=EDGE_LOOP('',(#30));
#61=EDGE_LOOP('',(#31));
#62=EDGE_LOOP('',(#32));
#63=EDGE_LOOP('',(#33));
#64=EDGE_LOOP('',(#34));
#65=FACE_BOUND('',#53,.T.);
#66=FACE_BOUND('',#54,.T.);
#67=FACE_BOUND('',#55,.T.);
#68=FACE_BOUND('',#56,.T.);
#69=FACE_BOUND('',#57,.T.);
#70=FACE_BOUND('',#58,.T.);
#71=FACE_BOUND('',#59,.T.);
#72=FACE_BOUND('',#60,.T.);
#73=FACE_BOUND('',#61,.T.);
#74=FACE_BOUND('',#62,.T.);
#75=FACE_BOUND('',#63,.T.);
#76=FACE_BOUND('',#64,.T.);
#77=CYLINDRICAL_SURFACE('',#99,1.15);
#78=CYLINDRICAL_SURFACE('',#106,0.95);
#79=CYLINDRICAL_SURFACE('',#110,0.6);
#80=ADVANCED_FACE('',(#65,#66),#77,.T.);
#81=ADVANCED_FACE('',(#67,#68),#20,.T.);
#82=ADVANCED_FACE('',(#69,#70),#21,.F.);
#83=ADVANCED_FACE('',(#71,#72),#78,.T.);
#84=ADVANCED_FACE('',(#73,#74),#22,.F.);
#85=ADVANCED_FACE('',(#75,#76),#79,.F.);
#86=CLOSED_SHELL('',(#80,#81,#82,#83,#84,#85));
#87=STYLED_ITEM('',(#88),#95);
#88=PRESENTATION_STYLE_ASSIGNMENT((#89));
#89=SURFACE_STYLE_USAGE(.BOTH.,#90);
#90=SURFACE_SIDE_STYLE('',(#91));
#91=SURFACE_STYLE_FILL_AREA(#92);
#92=FILL_AREA_STYLE('',(#93));
#93=FILL_AREA_STYLE_COLOUR('',#94);
#94=COLOUR_RGB('',0.506983280181885,0.531564235687256,0.550000011920929);
#95=MANIFOLD_SOLID_BREP('',#86);
#96=SHAPE_DEFINITION_REPRESENTATION(#162,#97);
#97=SHAPE_REPRESENTATION('SMT_Support_M1.2',(#98),#157);
#98=AXIS2_PLACEMENT_3D('',#137,#111,#112);
#99=AXIS2_PLACEMENT_3D('',#138,#113,#114);
#100=AXIS2_PLACEMENT_3D('',#139,#115,#116);
#101=AXIS2_PLACEMENT_3D('',#141,#117,#118);
#102=AXIS2_PLACEMENT_3D('',#143,#119,#120);
#103=AXIS2_PLACEMENT_3D('',#144,#121,#122);
#104=AXIS2_PLACEMENT_3D('',#146,#123,#124);
#105=AXIS2_PLACEMENT_3D('',#147,#125,#126);
#106=AXIS2_PLACEMENT_3D('',#149,#127,#128);
#107=AXIS2_PLACEMENT_3D('',#150,#129,#130);
#108=AXIS2_PLACEMENT_3D('',#152,#131,#132);
#109=AXIS2_PLACEMENT_3D('',#153,#133,#134);
#110=AXIS2_PLACEMENT_3D('',#155,#135,#136);
#111=DIRECTION('',(0.,0.,1.));
#112=DIRECTION('',(1.,0.,0.));
#113=DIRECTION('',(0.,0.,1.));
#114=DIRECTION('',(1.,0.,0.));
#115=DIRECTION('',(0.,0.,-1.));
#116=DIRECTION('',(1.,0.,0.));
#117=DIRECTION('',(0.,0.,-1.));
#118=DIRECTION('',(1.,0.,0.));
#119=DIRECTION('',(0.,0.,-1.));
#120=DIRECTION('',(-1.,0.,0.));
#121=DIRECTION('',(0.,0.,-1.));
#122=DIRECTION('',(-1.,0.,0.));
#123=DIRECTION('',(0.,0.,-1.));
#124=DIRECTION('',(-1.,0.,0.));
#125=DIRECTION('',(0.,0.,-1.));
#126=DIRECTION('',(1.,0.,0.));
#127=DIRECTION('',(0.,0.,-1.));
#128=DIRECTION('',(-1.,0.,0.));
#129=DIRECTION('',(0.,0.,-1.));
#130=DIRECTION('',(1.,0.,0.));
#131=DIRECTION('',(0.,0.,-1.));
#132=DIRECTION('',(-1.,0.,0.));
#133=DIRECTION('',(0.,0.,-1.));
#134=DIRECTION('',(-1.,0.,0.));
#135=DIRECTION('',(0.,0.,-1.));
#136=DIRECTION('',(-1.,0.,0.));
#137=CARTESIAN_POINT('',(0.,0.,0.));
#138=CARTESIAN_POINT('',(2.19410503235113,1.54883582299621,-3.));
#139=CARTESIAN_POINT('',(2.19410503235113,1.54883582299621,-3.));
#140=CARTESIAN_POINT('',(3.34410503235113,1.54883582299621,-3.));
#141=CARTESIAN_POINT('',(2.19410503235113,1.54883582299621,0.));
#142=CARTESIAN_POINT('',(3.34410503235113,1.54883582299621,0.));
#143=CARTESIAN_POINT('',(2.19410503235113,1.54883582299621,-3.));
#144=CARTESIAN_POINT('',(2.19410503235113,1.54883582299621,-3.));
#145=CARTESIAN_POINT('',(1.59410503235113,1.54883582299621,-3.));
#146=CARTESIAN_POINT('',(2.19410503235113,1.54883582299621,0.));
#147=CARTESIAN_POINT('',(2.19410503235113,1.54883582299621,0.));
#148=CARTESIAN_POINT('',(3.14410503235113,1.54883582299621,0.));
#149=CARTESIAN_POINT('',(2.19410503235113,1.54883582299621,0.5));
#150=CARTESIAN_POINT('',(2.19410503235113,1.54883582299621,0.5));
#151=CARTESIAN_POINT('',(3.14410503235113,1.54883582299621,0.5));
#152=CARTESIAN_POINT('',(2.19410503235113,1.54883582299621,0.5));
#153=CARTESIAN_POINT('',(2.19410503235113,1.54883582299621,0.5));
#154=CARTESIAN_POINT('',(1.59410503235113,1.54883582299621,0.5));
#155=CARTESIAN_POINT('',(2.19410503235113,1.54883582299621,0.25));
#156=MECHANICAL_DESIGN_GEOMETRIC_PRESENTATION_REPRESENTATION('',(#87),#157);
#157=(
GEOMETRIC_REPRESENTATION_CONTEXT(3)
GLOBAL_UNCERTAINTY_ASSIGNED_CONTEXT((#158))
GLOBAL_UNIT_ASSIGNED_CONTEXT((#161,#160,#159))
REPRESENTATION_CONTEXT('SMT_Support_M1.2','TOP_LEVEL_ASSEMBLY_PART')
);
#158=UNCERTAINTY_MEASURE_WITH_UNIT(LENGTH_MEASURE(0.005),#161,
'DISTANCE_ACCURACY_VALUE','Maximum Tolerance applied to model');
#159=(
NAMED_UNIT(*)
SI_UNIT($,.STERADIAN.)
SOLID_ANGLE_UNIT()
);
#160=(
NAMED_UNIT(*)
PLANE_ANGLE_UNIT()
SI_UNIT($,.RADIAN.)
);
#161=(
LENGTH_UNIT()
NAMED_UNIT(*)
SI_UNIT(.MILLI.,.METRE.)
);
#162=PRODUCT_DEFINITION_SHAPE('','',#163);
#163=PRODUCT_DEFINITION('','',#165,#164);
#164=PRODUCT_DEFINITION_CONTEXT('',#171,'design');
#165=PRODUCT_DEFINITION_FORMATION_WITH_SPECIFIED_SOURCE('','',#167,
 .NOT_KNOWN.);
#166=PRODUCT_RELATED_PRODUCT_CATEGORY('','',(#167));
#167=PRODUCT('SMT_Support_M1.2','SMT_Support_M1.2','SMT_Support_M1.2',(#169));
#168=PRODUCT_CATEGORY('','');
#169=PRODUCT_CONTEXT('',#171,'mechanical');
#170=APPLICATION_PROTOCOL_DEFINITION('international standard',
'automotive_design',2010,#171);
#171=APPLICATION_CONTEXT(
'core data for automotive mechanical design processes');
ENDSEC;
END-ISO-10303-21;
