ISO-10303-21;
HEADER;
/* Generated by software containing ST-Developer
 * from STEP Tools, Inc. (www.steptools.com) 
 */
/* OPTION: using custom schema-name function */

FILE_DESCRIPTION(
/* description */ (''),
/* implementation_level */ '2;1');

FILE_NAME(
/* name */ 'P8.10-glas.stp',
/* time_stamp */ '2018-04-19T16:08:08+02:00',
/* author */ (''),
/* organization */ (''),
/* preprocessor_version */ 'ST-DEVELOPER v14',
/* originating_system */ 'SIEMENS PLM Software NX 8.0',
/* authorisation */ '');

FILE_SCHEMA (('CONFIG_CONTROL_DESIGN'));
ENDSEC;

DATA;
#10=SHAPE_REPRESENTATION_RELATIONSHIP('None',
'relationship between P8.10test-None and P8.10test-None',#92,#11);
#11=ADVANCED_BREP_SHAPE_REPRESENTATION('P8.10test-None',(#93),#381);
#12=CC_DESIGN_APPROVAL(#24,(#82));
#13=CC_DESIGN_APPROVAL(#25,(#84));
#14=CC_DESIGN_APPROVAL(#26,(#31));
#15=APPROVAL_PERSON_ORGANIZATION(#69,#24,#18);
#16=APPROVAL_PERSON_ORGANIZATION(#70,#25,#19);
#17=APPROVAL_PERSON_ORGANIZATION(#71,#26,#20);
#18=APPROVAL_ROLE('approver');
#19=APPROVAL_ROLE('approver');
#20=APPROVAL_ROLE('approver');
#21=APPROVAL_DATE_TIME(#39,#24);
#22=APPROVAL_DATE_TIME(#40,#25);
#23=APPROVAL_DATE_TIME(#41,#26);
#24=APPROVAL(#27,' ');
#25=APPROVAL(#28,' ');
#26=APPROVAL(#29,' ');
#27=APPROVAL_STATUS('not_yet_approved');
#28=APPROVAL_STATUS('not_yet_approved');
#29=APPROVAL_STATUS('not_yet_approved');
#30=CC_DESIGN_SECURITY_CLASSIFICATION(#31,(#84));
#31=SECURITY_CLASSIFICATION(' ',' ',#32);
#32=SECURITY_CLASSIFICATION_LEVEL('confidential');
#33=CC_DESIGN_DATE_AND_TIME_ASSIGNMENT(#37,#35,(#82));
#34=CC_DESIGN_DATE_AND_TIME_ASSIGNMENT(#38,#36,(#31));
#35=DATE_TIME_ROLE('creation_date');
#36=DATE_TIME_ROLE('classification_date');
#37=DATE_AND_TIME(#52,#42);
#38=DATE_AND_TIME(#53,#43);
#39=DATE_AND_TIME(#54,#44);
#40=DATE_AND_TIME(#55,#45);
#41=DATE_AND_TIME(#56,#46);
#42=LOCAL_TIME(0,0,0.,#47);
#43=LOCAL_TIME(0,0,0.,#48);
#44=LOCAL_TIME(0,0,0.,#49);
#45=LOCAL_TIME(0,0,0.,#50);
#46=LOCAL_TIME(0,0,0.,#51);
#47=COORDINATED_UNIVERSAL_TIME_OFFSET(0,0,.BEHIND.);
#48=COORDINATED_UNIVERSAL_TIME_OFFSET(0,0,.BEHIND.);
#49=COORDINATED_UNIVERSAL_TIME_OFFSET(0,0,.BEHIND.);
#50=COORDINATED_UNIVERSAL_TIME_OFFSET(0,0,.BEHIND.);
#51=COORDINATED_UNIVERSAL_TIME_OFFSET(0,0,.BEHIND.);
#52=CALENDAR_DATE(0,1,1);
#53=CALENDAR_DATE(0,1,1);
#54=CALENDAR_DATE(0,1,1);
#55=CALENDAR_DATE(0,1,1);
#56=CALENDAR_DATE(0,1,1);
#57=CC_DESIGN_PERSON_AND_ORGANIZATION_ASSIGNMENT(#65,#61,(#82,#84));
#58=CC_DESIGN_PERSON_AND_ORGANIZATION_ASSIGNMENT(#66,#62,(#86));
#59=CC_DESIGN_PERSON_AND_ORGANIZATION_ASSIGNMENT(#67,#63,(#84));
#60=CC_DESIGN_PERSON_AND_ORGANIZATION_ASSIGNMENT(#68,#64,(#31));
#61=PERSON_AND_ORGANIZATION_ROLE('creator');
#62=PERSON_AND_ORGANIZATION_ROLE('design_owner');
#63=PERSON_AND_ORGANIZATION_ROLE('design_supplier');
#64=PERSON_AND_ORGANIZATION_ROLE('classification_officer');
#65=PERSON_AND_ORGANIZATION(#79,#72);
#66=PERSON_AND_ORGANIZATION(#79,#73);
#67=PERSON_AND_ORGANIZATION(#79,#74);
#68=PERSON_AND_ORGANIZATION(#79,#75);
#69=PERSON_AND_ORGANIZATION(#79,#76);
#70=PERSON_AND_ORGANIZATION(#79,#77);
#71=PERSON_AND_ORGANIZATION(#79,#78);
#72=ORGANIZATION(' ',' ',' ');
#73=ORGANIZATION(' ',' ',' ');
#74=ORGANIZATION(' ',' ',' ');
#75=ORGANIZATION(' ',' ',' ');
#76=ORGANIZATION(' ',' ',' ');
#77=ORGANIZATION(' ',' ',' ');
#78=ORGANIZATION(' ',' ',' ');
#79=PERSON(' ',' ',' ',(' '),$,$);
#80=SHAPE_DEFINITION_REPRESENTATION(#81,#92);
#81=PRODUCT_DEFINITION_SHAPE('','',#82);
#82=PRODUCT_DEFINITION(' ','',#84,#83);
#83=DESIGN_CONTEXT('',#91,'design');
#84=PRODUCT_DEFINITION_FORMATION_WITH_SPECIFIED_SOURCE(' ',' ',#86,
 .NOT_KNOWN.);
#85=PRODUCT_RELATED_PRODUCT_CATEGORY('detail','',(#86));
#86=PRODUCT('P8.10test','P8.10test',' ',(#89));
#87=PRODUCT_CATEGORY('part',' ');
#88=PRODUCT_CATEGORY(' ','');
#89=MECHANICAL_CONTEXT(' ',#91,'mechanical');
#90=APPLICATION_PROTOCOL_DEFINITION('international standard',
'config_control_design',2010,#91);
#91=APPLICATION_CONTEXT(
'configuration controlled 3D designs of mechanical parts and assemblies');
#92=SHAPE_REPRESENTATION('P8.10test-None',(#222),#381);
#93=BREP_WITH_VOIDS('',#95,(#94));
#94=ORIENTED_CLOSED_SHELL('',*,#96,.F.);
#95=CLOSED_SHELL('',(#108,#109,#110,#111,#112,#113,#114,#115,#116,#117));
#96=CLOSED_SHELL('',(#118,#119,#120));
#97=TOROIDAL_SURFACE('',#236,0.425,0.3);
#98=TOROIDAL_SURFACE('',#239,0.525,0.2);
#99=CYLINDRICAL_SURFACE('',#230,0.5);
#100=CYLINDRICAL_SURFACE('',#238,0.725);
#101=CYLINDRICAL_SURFACE('',#242,0.5);
#102=(
BOUNDED_SURFACE()
B_SPLINE_SURFACE(3,3,((#300,#301,#302,#303,#304,#305,#306),(#307,#308,#309,
#310,#311,#312,#313),(#314,#315,#316,#317,#318,#319,#320),(#321,#322,#323,
#324,#325,#326,#327)),.UNSPECIFIED.,.F.,.T.,.F.)
B_SPLINE_SURFACE_WITH_KNOTS((4,4),(1,3,3,3,1),(0.,1.),(-0.5,0.,0.5,1.,1.5),
 .UNSPECIFIED.)
GEOMETRIC_REPRESENTATION_ITEM()
RATIONAL_B_SPLINE_SURFACE(((1.,0.333333333333333,0.333333333333333,1.,0.333333333333333,
0.333333333333333,1.),(0.978830557701236,0.326276852567079,0.326276852567079,
0.978830557701236,0.326276852567079,0.326276852567079,0.978830557701236),
(0.978830557701236,0.326276852567079,0.326276852567079,0.978830557701236,
0.326276852567079,0.326276852567079,0.978830557701236),(1.,0.333333333333333,
0.333333333333333,1.,0.333333333333333,0.333333333333333,1.)))
REPRESENTATION_ITEM('')
SURFACE()
);
#103=(
BOUNDED_SURFACE()
B_SPLINE_SURFACE(3,3,((#338,#339,#340,#341,#342,#343,#344),(#345,#346,#347,
#348,#349,#350,#351),(#352,#353,#354,#355,#356,#357,#358),(#359,#360,#361,
#362,#363,#364,#365)),.UNSPECIFIED.,.F.,.T.,.F.)
B_SPLINE_SURFACE_WITH_KNOTS((4,4),(1,3,3,3,1),(0.,1.),(-0.5,0.,0.5,1.,1.5),
 .UNSPECIFIED.)
GEOMETRIC_REPRESENTATION_ITEM()
RATIONAL_B_SPLINE_SURFACE(((1.,0.333333333333333,0.333333333333333,1.,0.333333333333333,
0.333333333333333,1.),(0.978830557701236,0.326276852567079,0.326276852567079,
0.978830557701236,0.326276852567079,0.326276852567079,0.978830557701236),
(0.978830557701236,0.326276852567079,0.326276852567079,0.978830557701236,
0.326276852567079,0.326276852567079,0.978830557701236),(1.,0.333333333333333,
0.333333333333333,1.,0.333333333333333,0.333333333333333,1.)))
REPRESENTATION_ITEM('')
SURFACE()
);
#104=FACE_OUTER_BOUND('',#147,.T.);
#105=FACE_OUTER_BOUND('',#152,.T.);
#106=FACE_OUTER_BOUND('',#165,.F.);
#107=FACE_OUTER_BOUND('',#166,.F.);
#108=ADVANCED_FACE('',(#127,#128),#121,.T.);
#109=ADVANCED_FACE('',(#104),#122,.T.);
#110=ADVANCED_FACE('',(#129,#130),#102,.T.);
#111=ADVANCED_FACE('',(#131,#132),#99,.T.);
#112=ADVANCED_FACE('',(#105),#123,.F.);
#113=ADVANCED_FACE('',(#133,#134),#103,.T.);
#114=ADVANCED_FACE('',(#135,#136),#124,.F.);
#115=ADVANCED_FACE('',(#137,#138),#97,.T.);
#116=ADVANCED_FACE('',(#139,#140),#100,.T.);
#117=ADVANCED_FACE('',(#141,#142),#98,.T.);
#118=ADVANCED_FACE('',(#143,#144),#101,.T.);
#119=ADVANCED_FACE('',(#106),#125,.F.);
#120=ADVANCED_FACE('',(#107),#126,.F.);
#121=PLANE('',#225);
#122=PLANE('',#227);
#123=PLANE('',#232);
#124=PLANE('',#234);
#125=PLANE('',#243);
#126=PLANE('',#244);
#127=FACE_BOUND('',#145,.T.);
#128=FACE_BOUND('',#146,.T.);
#129=FACE_BOUND('',#148,.T.);
#130=FACE_BOUND('',#149,.T.);
#131=FACE_BOUND('',#150,.T.);
#132=FACE_BOUND('',#151,.T.);
#133=FACE_BOUND('',#153,.T.);
#134=FACE_BOUND('',#154,.T.);
#135=FACE_BOUND('',#155,.T.);
#136=FACE_BOUND('',#156,.T.);
#137=FACE_BOUND('',#157,.T.);
#138=FACE_BOUND('',#158,.T.);
#139=FACE_BOUND('',#159,.T.);
#140=FACE_BOUND('',#160,.T.);
#141=FACE_BOUND('',#161,.T.);
#142=FACE_BOUND('',#162,.T.);
#143=FACE_BOUND('',#163,.F.);
#144=FACE_BOUND('',#164,.F.);
#145=EDGE_LOOP('',(#167));
#146=EDGE_LOOP('',(#168));
#147=EDGE_LOOP('',(#169));
#148=EDGE_LOOP('',(#170));
#149=EDGE_LOOP('',(#171));
#150=EDGE_LOOP('',(#172));
#151=EDGE_LOOP('',(#173));
#152=EDGE_LOOP('',(#174));
#153=EDGE_LOOP('',(#175));
#154=EDGE_LOOP('',(#176));
#155=EDGE_LOOP('',(#177));
#156=EDGE_LOOP('',(#178));
#157=EDGE_LOOP('',(#179));
#158=EDGE_LOOP('',(#180));
#159=EDGE_LOOP('',(#181));
#160=EDGE_LOOP('',(#182));
#161=EDGE_LOOP('',(#183));
#162=EDGE_LOOP('',(#184));
#163=EDGE_LOOP('',(#185));
#164=EDGE_LOOP('',(#186));
#165=EDGE_LOOP('',(#187));
#166=EDGE_LOOP('',(#188));
#167=ORIENTED_EDGE('',*,*,#200,.F.);
#168=ORIENTED_EDGE('',*,*,#201,.T.);
#169=ORIENTED_EDGE('',*,*,#202,.T.);
#170=ORIENTED_EDGE('',*,*,#200,.T.);
#171=ORIENTED_EDGE('',*,*,#202,.F.);
#172=ORIENTED_EDGE('',*,*,#203,.T.);
#173=ORIENTED_EDGE('',*,*,#204,.T.);
#174=ORIENTED_EDGE('',*,*,#205,.T.);
#175=ORIENTED_EDGE('',*,*,#205,.F.);
#176=ORIENTED_EDGE('',*,*,#206,.T.);
#177=ORIENTED_EDGE('',*,*,#204,.F.);
#178=ORIENTED_EDGE('',*,*,#206,.F.);
#179=ORIENTED_EDGE('',*,*,#203,.F.);
#180=ORIENTED_EDGE('',*,*,#207,.F.);
#181=ORIENTED_EDGE('',*,*,#207,.T.);
#182=ORIENTED_EDGE('',*,*,#208,.F.);
#183=ORIENTED_EDGE('',*,*,#208,.T.);
#184=ORIENTED_EDGE('',*,*,#201,.F.);
#185=ORIENTED_EDGE('',*,*,#209,.F.);
#186=ORIENTED_EDGE('',*,*,#210,.T.);
#187=ORIENTED_EDGE('',*,*,#209,.T.);
#188=ORIENTED_EDGE('',*,*,#210,.F.);
#189=VERTEX_POINT('',#293);
#190=VERTEX_POINT('',#295);
#191=VERTEX_POINT('',#298);
#192=VERTEX_POINT('',#329);
#193=VERTEX_POINT('',#331);
#194=VERTEX_POINT('',#334);
#195=VERTEX_POINT('',#337);
#196=VERTEX_POINT('',#368);
#197=VERTEX_POINT('',#371);
#198=VERTEX_POINT('',#375);
#199=VERTEX_POINT('',#377);
#200=EDGE_CURVE('',#189,#189,#211,.T.);
#201=EDGE_CURVE('',#190,#190,#212,.T.);
#202=EDGE_CURVE('',#191,#191,#213,.T.);
#203=EDGE_CURVE('',#192,#192,#214,.T.);
#204=EDGE_CURVE('',#193,#193,#215,.T.);
#205=EDGE_CURVE('',#194,#194,#216,.T.);
#206=EDGE_CURVE('',#195,#195,#217,.T.);
#207=EDGE_CURVE('',#196,#196,#218,.T.);
#208=EDGE_CURVE('',#197,#197,#219,.T.);
#209=EDGE_CURVE('',#198,#198,#220,.T.);
#210=EDGE_CURVE('',#199,#199,#221,.T.);
#211=CIRCLE('',#223,0.725);
#212=CIRCLE('',#224,0.525);
#213=CIRCLE('',#226,0.725);
#214=CIRCLE('',#228,0.5);
#215=CIRCLE('',#229,0.5);
#216=CIRCLE('',#231,0.725);
#217=CIRCLE('',#233,0.725);
#218=CIRCLE('',#235,0.725);
#219=CIRCLE('',#237,0.725);
#220=CIRCLE('',#240,0.5);
#221=CIRCLE('',#241,0.5);
#222=AXIS2_PLACEMENT_3D('',#291,#245,#246);
#223=AXIS2_PLACEMENT_3D('',#292,#247,#248);
#224=AXIS2_PLACEMENT_3D('',#294,#249,#250);
#225=AXIS2_PLACEMENT_3D('',#296,#251,#252);
#226=AXIS2_PLACEMENT_3D('',#297,#253,#254);
#227=AXIS2_PLACEMENT_3D('',#299,#255,#256);
#228=AXIS2_PLACEMENT_3D('',#328,#257,#258);
#229=AXIS2_PLACEMENT_3D('',#330,#259,#260);
#230=AXIS2_PLACEMENT_3D('',#332,#261,#262);
#231=AXIS2_PLACEMENT_3D('',#333,#263,#264);
#232=AXIS2_PLACEMENT_3D('',#335,#265,#266);
#233=AXIS2_PLACEMENT_3D('',#336,#267,#268);
#234=AXIS2_PLACEMENT_3D('',#366,#269,#270);
#235=AXIS2_PLACEMENT_3D('',#367,#271,#272);
#236=AXIS2_PLACEMENT_3D('',#369,#273,#274);
#237=AXIS2_PLACEMENT_3D('',#370,#275,#276);
#238=AXIS2_PLACEMENT_3D('',#372,#277,#278);
#239=AXIS2_PLACEMENT_3D('',#373,#279,#280);
#240=AXIS2_PLACEMENT_3D('',#374,#281,#282);
#241=AXIS2_PLACEMENT_3D('',#376,#283,#284);
#242=AXIS2_PLACEMENT_3D('',#378,#285,#286);
#243=AXIS2_PLACEMENT_3D('',#379,#287,#288);
#244=AXIS2_PLACEMENT_3D('',#380,#289,#290);
#245=DIRECTION('',(0.,0.,1.));
#246=DIRECTION('',(1.,0.,0.));
#247=DIRECTION('',(0.,0.,-1.));
#248=DIRECTION('',(-1.,0.,0.));
#249=DIRECTION('',(-4.35520358280569E-019,0.,-1.));
#250=DIRECTION('',(-1.,0.,0.));
#251=DIRECTION('',(0.,0.,1.));
#252=DIRECTION('',(1.,0.,0.));
#253=DIRECTION('',(0.,0.,-1.));
#254=DIRECTION('',(-1.,0.,0.));
#255=DIRECTION('',(0.,0.,-1.));
#256=DIRECTION('',(-1.,0.,0.));
#257=DIRECTION('',(4.35520358280569E-019,0.,1.));
#258=DIRECTION('',(-1.,0.,0.));
#259=DIRECTION('',(-3.62072122929789E-018,-1.50143077107646E-018,-1.));
#260=DIRECTION('',(-0.923728021347068,-0.383049008063238,0.));
#261=DIRECTION('',(-3.62072122929789E-018,-1.50143077107646E-018,-1.));
#262=DIRECTION('',(-0.923728021347068,-0.383049008063238,0.));
#263=DIRECTION('',(3.62072122929789E-018,1.50143077107647E-018,1.));
#264=DIRECTION('',(0.923728021347068,0.383049008063238,0.));
#265=DIRECTION('',(-3.62072122929789E-018,-1.50143077107647E-018,-1.));
#266=DIRECTION('',(-0.923728021347068,-0.383049008063238,3.90312782094782E-018));
#267=DIRECTION('',(3.62072122929789E-018,1.50143077107647E-018,1.));
#268=DIRECTION('',(0.923728021347068,0.383049008063238,0.));
#269=DIRECTION('',(3.62072122929789E-018,1.50143077107647E-018,1.));
#270=DIRECTION('',(0.923728021347068,0.383049008063238,-3.90312782094782E-018));
#271=DIRECTION('',(-4.35520358280569E-019,0.,-1.));
#272=DIRECTION('',(-1.,0.,0.));
#273=DIRECTION('',(-4.35520358280569E-019,0.,-1.));
#274=DIRECTION('',(-1.,0.,0.));
#275=DIRECTION('',(-4.35520358280569E-019,0.,-1.));
#276=DIRECTION('',(-1.,0.,0.));
#277=DIRECTION('',(-4.35520358280569E-019,0.,-1.));
#278=DIRECTION('',(-1.,0.,0.));
#279=DIRECTION('',(-4.35520358280569E-019,0.,-1.));
#280=DIRECTION('',(-1.,0.,0.));
#281=DIRECTION('',(-3.62072122929789E-018,-1.50143077107646E-018,-1.));
#282=DIRECTION('',(-0.923728021347068,-0.383049008063238,0.));
#283=DIRECTION('',(-4.35520358280569E-019,0.,-1.));
#284=DIRECTION('',(-1.,0.,0.));
#285=DIRECTION('',(-4.35520358280569E-019,0.,-1.));
#286=DIRECTION('',(-1.,0.,0.));
#287=DIRECTION('',(-3.62072122929789E-018,-1.50143077107646E-018,-1.));
#288=DIRECTION('',(-0.923728021347068,-0.383049008063238,3.90312782094782E-018));
#289=DIRECTION('',(0.,0.,1.));
#290=DIRECTION('',(1.,0.,0.));
#291=CARTESIAN_POINT('',(0.,0.,0.));
#292=CARTESIAN_POINT('',(-3.44918921145909E-020,-1.4303003433252E-020,-0.00952624903444453));
#293=CARTESIAN_POINT('',(-0.725,-1.4303003433252E-020,-0.00952624903444453));
#294=CARTESIAN_POINT('',(-8.66664028667945E-018,-1.29578697111011E-017,-0.00952624903444422));
#295=CARTESIAN_POINT('',(-0.525,-1.29578697111011E-017,-0.00952624903444422));
#296=CARTESIAN_POINT('',(-0.725,-1.4303003433252E-020,-0.00952624903444453));
#297=CARTESIAN_POINT('',(-3.44918921145909E-020,-1.4303003433252E-020,-0.309526249034444));
#298=CARTESIAN_POINT('',(-0.725,-1.4303003433252E-020,-0.309526249034444));
#299=CARTESIAN_POINT('',(-3.44918921145909E-020,-1.4303003433252E-020,-0.309526249034444));
#300=CARTESIAN_POINT('',(-0.725,-1.4303003433252E-020,-0.309526249034444));
#301=CARTESIAN_POINT('',(-0.725,1.45,-0.309526249034444));
#302=CARTESIAN_POINT('',(0.725,1.45,-0.309526249034444));
#303=CARTESIAN_POINT('',(0.725,-1.4303003433252E-020,-0.309526249034444));
#304=CARTESIAN_POINT('',(0.725,-1.45,-0.309526249034444));
#305=CARTESIAN_POINT('',(-0.725,-1.45,-0.309526249034444));
#306=CARTESIAN_POINT('',(-0.725,-1.4303003433252E-020,-0.309526249034444));
#307=CARTESIAN_POINT('',(-0.750540681993737,-1.4303003433252E-020,-0.210607613021919));
#308=CARTESIAN_POINT('',(-0.750540681993737,1.50108136398747,-0.210607613021919));
#309=CARTESIAN_POINT('',(0.750540681993737,1.50108136398747,-0.210607613021919));
#310=CARTESIAN_POINT('',(0.750540681993737,-1.4303003433252E-020,-0.210607613021919));
#311=CARTESIAN_POINT('',(0.750540681993737,-1.50108136398747,-0.210607613021919));
#312=CARTESIAN_POINT('',(-0.750540681993737,-1.50108136398747,-0.210607613021919));
#313=CARTESIAN_POINT('',(-0.750540681993737,-1.4303003433252E-020,-0.210607613021919));
#314=CARTESIAN_POINT('',(-0.750540681993737,-1.4303003433252E-020,-0.108444885046969));
#315=CARTESIAN_POINT('',(-0.750540681993737,1.50108136398747,-0.108444885046969));
#316=CARTESIAN_POINT('',(0.750540681993737,1.50108136398747,-0.108444885046969));
#317=CARTESIAN_POINT('',(0.750540681993737,-1.4303003433252E-020,-0.108444885046969));
#318=CARTESIAN_POINT('',(0.750540681993737,-1.50108136398747,-0.108444885046969));
#319=CARTESIAN_POINT('',(-0.750540681993737,-1.50108136398747,-0.108444885046969));
#320=CARTESIAN_POINT('',(-0.750540681993737,-1.4303003433252E-020,-0.108444885046969));
#321=CARTESIAN_POINT('',(-0.725,-1.4303003433252E-020,-0.00952624903444434));
#322=CARTESIAN_POINT('',(-0.725,1.45,-0.00952624903444434));
#323=CARTESIAN_POINT('',(0.725,1.45,-0.00952624903444434));
#324=CARTESIAN_POINT('',(0.725,-1.4303003433252E-020,-0.00952624903444434));
#325=CARTESIAN_POINT('',(0.725,-1.45,-0.00952624903444434));
#326=CARTESIAN_POINT('',(-0.725,-1.45,-0.00952624903444434));
#327=CARTESIAN_POINT('',(-0.725,-1.4303003433252E-020,-0.00952624903444434));
#328=CARTESIAN_POINT('',(-7.36422808723029E-018,-1.29578697111011E-017,2.68094750193111));
#329=CARTESIAN_POINT('',(-0.5,-1.29578697111011E-017,2.68094750193111));
#330=CARTESIAN_POINT('',(1.79895938616983E-018,-8.61802347841263E-018,2.89047375096556));
#331=CARTESIAN_POINT('',(-0.461864010673534,-0.191524504031619,2.89047375096556));
#332=CARTESIAN_POINT('',(1.79895938616983E-018,-8.61802347841263E-018,2.89047375096556));
#333=CARTESIAN_POINT('',(-7.96681655771297E-019,-2.35859893134871E-018,3.19047375096556));
#334=CARTESIAN_POINT('',(0.669702815476624,0.277710530845848,3.19047375096556));
#335=CARTESIAN_POINT('',(0.669702815476624,0.277710530845848,3.19047375096556));
#336=CARTESIAN_POINT('',(-1.88289802456066E-018,-2.80902816267165E-018,2.89047375096556));
#337=CARTESIAN_POINT('',(0.669702815476624,0.277710530845848,2.89047375096556));
#338=CARTESIAN_POINT('',(0.669702815476624,0.277710530845848,3.19047375096556));
#339=CARTESIAN_POINT('',(0.114281753784929,1.6171161617991,3.19047375096555));
#340=CARTESIAN_POINT('',(-1.22512387716832,1.0616951001074,3.19047375096555));
#341=CARTESIAN_POINT('',(-0.669702815476624,-0.277710530845848,3.19047375096556));
#342=CARTESIAN_POINT('',(-0.114281753784929,-1.6171161617991,3.19047375096555));
#343=CARTESIAN_POINT('',(1.22512387716832,-1.0616951001074,3.19047375096555));
#344=CARTESIAN_POINT('',(0.669702815476624,0.277710530845848,3.19047375096556));
#345=CARTESIAN_POINT('',(0.693295459118554,0.287493863748807,3.09155511495303));
#346=CARTESIAN_POINT('',(0.118307731620939,1.67408478198592,3.09155511495303));
#347=CARTESIAN_POINT('',(-1.26828318661617,1.0990970544883,3.09155511495303));
#348=CARTESIAN_POINT('',(-0.693295459118554,-0.287493863748807,3.09155511495303));
#349=CARTESIAN_POINT('',(-0.118307731620939,-1.67408478198592,3.09155511495303));
#350=CARTESIAN_POINT('',(1.26828318661617,-1.0990970544883,3.09155511495303));
#351=CARTESIAN_POINT('',(0.693295459118554,0.287493863748807,3.09155511495303));
#352=CARTESIAN_POINT('',(0.693295459118554,0.287493863748807,2.98939238697808));
#353=CARTESIAN_POINT('',(0.118307731620939,1.67408478198592,2.98939238697808));
#354=CARTESIAN_POINT('',(-1.26828318661617,1.0990970544883,2.98939238697808));
#355=CARTESIAN_POINT('',(-0.693295459118554,-0.287493863748807,2.98939238697808));
#356=CARTESIAN_POINT('',(-0.118307731620939,-1.67408478198592,2.98939238697808));
#357=CARTESIAN_POINT('',(1.26828318661617,-1.0990970544883,2.98939238697808));
#358=CARTESIAN_POINT('',(0.693295459118554,0.287493863748807,2.98939238697808));
#359=CARTESIAN_POINT('',(0.669702815476624,0.277710530845848,2.89047375096555));
#360=CARTESIAN_POINT('',(0.114281753784929,1.6171161617991,2.89047375096555));
#361=CARTESIAN_POINT('',(-1.22512387716832,1.0616951001074,2.89047375096555));
#362=CARTESIAN_POINT('',(-0.669702815476624,-0.277710530845848,2.89047375096555));
#363=CARTESIAN_POINT('',(-0.114281753784929,-1.6171161617991,2.89047375096555));
#364=CARTESIAN_POINT('',(1.22512387716832,-1.0616951001074,2.89047375096555));
#365=CARTESIAN_POINT('',(0.669702815476624,0.277710530845848,2.89047375096555));
#366=CARTESIAN_POINT('',(-7.96681655771296E-019,-2.35859893134871E-018,2.89047375096556));
#367=CARTESIAN_POINT('',(-7.62139142680608E-018,-1.29578697111011E-017,2.39047375096556));
#368=CARTESIAN_POINT('',(-0.725,-1.29578697111011E-017,2.39047375096556));
#369=CARTESIAN_POINT('',(-7.49073531932191E-018,-1.29578697111011E-017,2.39047375096556));
#370=CARTESIAN_POINT('',(-8.57953621502333E-018,-1.29578697111011E-017,0.190473750965556));
#371=CARTESIAN_POINT('',(-0.725,-1.29578697111011E-017,0.190473750965556));
#372=CARTESIAN_POINT('',(-8.66664028667945E-018,-1.29578697111011E-017,-0.00952624903444426));
#373=CARTESIAN_POINT('',(-7.49073531932191E-018,-1.29578697111011E-017,0.190473750965556));
#374=CARTESIAN_POINT('',(1.79895938616983E-018,-8.61802347841263E-018,1.89047375096555));
#375=CARTESIAN_POINT('',(-0.461864010673534,-0.191524504031619,1.89047375096555));
#376=CARTESIAN_POINT('',(1.84384140254582E-017,-1.29578697111011E-017,-0.00952624903444426));
#377=CARTESIAN_POINT('',(-0.5,-1.29578697111011E-017,-0.00952624903444426));
#378=CARTESIAN_POINT('',(1.96143189928157E-017,-1.29578697111011E-017,2.69047375096556));
#379=CARTESIAN_POINT('',(1.79895938616983E-018,-8.61802347841263E-018,1.89047375096555));
#380=CARTESIAN_POINT('',(-0.725,-1.4303003433252E-020,-0.00952624903444453));
#381=(
GEOMETRIC_REPRESENTATION_CONTEXT(3)
GLOBAL_UNCERTAINTY_ASSIGNED_CONTEXT((#382))
GLOBAL_UNIT_ASSIGNED_CONTEXT((#388,#384,#383))
REPRESENTATION_CONTEXT('P8','TOP_LEVEL_ASSEMBLY_PART')
);
#382=UNCERTAINTY_MEASURE_WITH_UNIT(LENGTH_MEASURE(0.0254),#388,
'DISTANCE_ACCURACY_VALUE','Maximum Tolerance applied to model');
#383=(
NAMED_UNIT(*)
SI_UNIT($,.STERADIAN.)
SOLID_ANGLE_UNIT()
);
#384=(
CONVERSION_BASED_UNIT('DEGREE',#386)
NAMED_UNIT(#385)
PLANE_ANGLE_UNIT()
);
#385=DIMENSIONAL_EXPONENTS(0.,0.,0.,0.,0.,0.,0.);
#386=PLANE_ANGLE_MEASURE_WITH_UNIT(PLANE_ANGLE_MEASURE(0.0174532925),#387);
#387=(
NAMED_UNIT(*)
PLANE_ANGLE_UNIT()
SI_UNIT($,.RADIAN.)
);
#388=(
LENGTH_UNIT()
NAMED_UNIT(*)
SI_UNIT(.MILLI.,.METRE.)
);
ENDSEC;
END-ISO-10303-21;
